# Blender v2.91.0 OBJ File: ''
# www.blender.org
mtllib sitrus berry.mtl
o pref_sm_prop_fruit01_lv3
v -0.055919 0.868618 -0.503796
v 0.015196 0.834593 -0.621349
v 0.022333 0.894841 -0.560885
v -0.083765 0.801436 -0.549052
v 0.015977 0.785256 -0.656800
v -0.095438 0.747929 -0.575363
v -0.098902 0.690082 -0.595326
v 0.022404 0.730721 -0.684028
v 0.037203 0.668148 -0.699545
v -0.090426 0.625391 -0.606210
v -0.071392 0.565451 -0.605937
v 0.057716 0.608702 -0.700362
v 0.090158 0.543991 -0.679801
v -0.033692 0.502500 -0.589244
v 0.026390 0.449618 -0.548902
v 0.134706 0.485907 -0.628077
v 0.179712 0.446770 -0.561169
v 0.092204 0.417449 -0.497252
v 0.160958 0.386603 -0.442495
v 0.226284 0.408494 -0.490157
v -0.108646 0.853903 -0.419334
v -0.083765 0.801436 -0.549052
v -0.055919 0.868618 -0.503796
v -0.150705 0.782755 -0.441822
v -0.127557 0.853031 -0.320480
v -0.095438 0.747929 -0.575363
v -0.174714 0.781648 -0.316321
v -0.109276 0.866405 -0.221016
v -0.170908 0.726867 -0.454469
v -0.151471 0.798645 -0.189961
v -0.058000 0.891216 -0.139693
v -0.181162 0.667125 -0.463557
v -0.098902 0.690082 -0.595326
v -0.090426 0.625391 -0.606210
v -0.197976 0.725618 -0.312977
v -0.086407 0.830127 -0.086802
v 0.019879 0.924461 -0.085284
v -0.210664 0.665764 -0.309335
v -0.176999 0.601231 -0.467532
v -0.171758 0.744788 -0.170482
v 0.012464 0.872332 -0.017727
v 0.112007 0.960806 -0.067339
v -0.182077 0.686665 -0.153992
v -0.098417 0.780275 -0.054212
v 0.129426 0.918475 0.005055
v 0.204809 0.994877 -0.088800
v -0.158990 0.541005 -0.465617
v -0.071392 0.565451 -0.605937
v -0.033692 0.502500 -0.589244
v -0.208048 0.599799 -0.305225
v -0.102149 0.725338 -0.027291
v 0.013053 0.827858 0.023665
v 0.247568 0.961844 -0.022343
v 0.282876 1.021036 -0.145802
v -0.190407 0.539555 -0.301386
v -0.177959 0.621797 -0.141730
v 0.019349 0.777202 0.057591
v 0.144918 0.879880 0.049350
v 0.346353 0.994939 -0.094558
v 0.335603 1.035750 -0.230265
v -0.117664 0.479066 -0.454732
v -0.093844 0.662495 -0.008395
v 0.163077 0.833904 0.085587
v 0.278244 0.928822 0.018400
v 0.413293 1.013621 -0.201788
v 0.354514 1.036623 -0.329119
v -0.046988 0.429140 -0.431359
v 0.026390 0.449618 -0.548902
v 0.092204 0.417449 -0.497252
v 0.034024 0.717079 0.080938
v 0.308510 0.887287 0.051800
v 0.389487 0.966088 -0.062956
v 0.185287 0.776754 0.110401
v 0.429648 0.927868 -0.036822
v 0.338374 0.832946 0.074829
v 0.033043 0.400939 -0.402483
v 0.116930 0.374315 -0.371967
v 0.160958 0.386603 -0.442495
v 0.101139 0.373587 -0.289422
v -0.073305 0.427927 -0.293789
v 0.011825 0.399960 -0.291567
v 0.116406 0.384755 -0.206365
v -0.147781 0.477676 -0.297300
v 0.032361 0.414979 -0.179903
v 0.159220 0.405472 -0.138463
v -0.047814 0.446566 -0.155241
v -0.159958 0.561816 -0.135946
v 0.089869 0.442805 -0.088722
v 0.224250 0.433232 -0.093030
v -0.118600 0.499011 -0.138728
v -0.074849 0.602994 -0.001039
v 0.023494 0.481068 -0.042197
v 0.177249 0.480106 -0.027675
v 0.301179 0.463581 -0.078046
v 0.054533 0.658225 0.089352
v -0.037007 0.538489 -0.009387
v 0.131874 0.527333 0.033521
v 0.280618 0.520886 -0.007540
v 0.378682 0.492036 -0.095973
v 0.207589 0.718607 0.119165
v 0.087020 0.591434 0.077262
v 0.260084 0.577912 0.058494
v 0.384990 0.559200 -0.031735
v 0.443857 0.513874 -0.143564
v 0.362519 0.775476 0.083158
v 0.233739 0.649315 0.105841
v 0.389724 0.625500 0.028398
v 0.472336 0.588464 -0.095577
v 0.487885 0.526161 -0.214091
v 0.382182 0.703804 0.071359
v 0.497874 0.661731 -0.050699
v 0.491459 0.818668 -0.011189
v 0.531496 0.604974 -0.190345
v 0.503676 0.526890 -0.296636
v 0.505858 0.745235 -0.019116
v 0.571251 0.682209 -0.168241
v 0.465833 0.875643 -0.018426
v 0.552714 0.605953 -0.301261
v 0.488239 0.515629 -0.380127
v 0.597568 0.683423 -0.305812
v 0.589829 0.768669 -0.153628
v 0.579057 0.843114 -0.151509
v 0.511907 0.950824 -0.168592
v 0.531996 0.590834 -0.413388
v 0.445594 0.495004 -0.447596
v 0.571890 0.664681 -0.444836
v 0.552405 0.899803 -0.157103
v 0.619946 0.770058 -0.311059
v 0.610474 0.844563 -0.315739
v 0.464957 0.987150 -0.183850
v 0.474670 0.563108 -0.504106
v 0.380564 0.467244 -0.493028
v 0.500769 0.630282 -0.557404
v 0.541410 0.952185 -0.322814
v 0.583454 0.901236 -0.319411
v 0.590570 0.748616 -0.470131
v 0.579837 0.822200 -0.481661
v 0.387290 0.525807 -0.565154
v 0.303636 0.436895 -0.508012
v 0.392390 0.584017 -0.633122
v 0.509172 0.709245 -0.598973
v 0.494916 0.781124 -0.616086
v 0.553173 0.879133 -0.483397
v 0.283920 0.485027 -0.585288
v 0.226284 0.408494 -0.490157
v 0.179712 0.446770 -0.561169
v 0.134706 0.485907 -0.628077
v 0.264179 0.533436 -0.658095
v 0.385146 0.656301 -0.685623
v 0.238425 0.598418 -0.714200
v 0.090158 0.543991 -0.679801
v 0.057716 0.608702 -0.700362
v 0.365534 0.725893 -0.706478
v 0.212478 0.665512 -0.736290
v 0.469250 0.838539 -0.616241
v 0.190119 0.724280 -0.735036
v 0.037203 0.668148 -0.699545
v 0.022404 0.730721 -0.684028
v 0.341383 0.783955 -0.705573
v 0.167668 0.784045 -0.717735
v 0.311397 0.840747 -0.689740
v 0.432894 0.892612 -0.604857
v 0.149130 0.834136 -0.687668
v 0.015977 0.785256 -0.656800
v 0.015196 0.834593 -0.621349
v 0.280996 0.886158 -0.661983
v 0.133162 0.877901 -0.648665
v 0.022333 0.894841 -0.560885
v 0.114950 0.928847 -0.582260
v 0.250124 0.924043 -0.625883
v 0.207078 0.965192 -0.564314
v 0.392465 0.933742 -0.584107
v 0.348995 0.966249 -0.556807
v 0.284956 0.998437 -0.509906
v 0.465613 0.969123 -0.468333
v 0.413863 0.997624 -0.454149
v 0.336026 1.023136 -0.429111
v 0.512634 0.931182 -0.478639
v 0.492024 0.988398 -0.325343
v 0.437302 1.014728 -0.327290
v 0.279261 0.324773 -0.382918
v 0.226284 0.408494 -0.490157
v 0.160958 0.386603 -0.442495
v 0.361205 0.354867 -0.401725
v 0.303636 0.436895 -0.508012
v 0.341696 0.245507 -0.333997
v 0.380564 0.467244 -0.493028
v 0.386640 0.262017 -0.344254
v 0.378062 0.214103 -0.298764
v 0.430294 0.384337 -0.353800
v 0.445594 0.495004 -0.447596
v 0.488239 0.515629 -0.380127
v 0.394966 0.220318 -0.302541
v 0.388905 0.211817 -0.285028
v 0.446300 0.396094 -0.265977
v 0.503676 0.526890 -0.296636
v 0.487885 0.526161 -0.214091
v 0.424719 0.278257 -0.317880
v 0.399275 0.382961 -0.190788
v 0.443857 0.513874 -0.143564
v 0.378682 0.492036 -0.095973
v 0.433566 0.284752 -0.269395
v 0.317248 0.352839 -0.171941
v 0.301179 0.463581 -0.078046
v 0.224250 0.433232 -0.093030
v 0.409543 0.226531 -0.292499
v 0.407429 0.277438 -0.227836
v 0.248064 0.323316 -0.220107
v 0.159220 0.405472 -0.138463
v 0.116406 0.384755 -0.206365
v 0.412966 0.229038 -0.273828
v 0.362400 0.260898 -0.217539
v 0.232152 0.311611 -0.307689
v 0.101139 0.373587 -0.289422
v 0.116930 0.374315 -0.371967
v 0.402657 0.226133 -0.257755
v 0.324227 0.244607 -0.244154
v 0.279261 0.324773 -0.382918
v 0.160958 0.386603 -0.442495
v 0.315474 0.238163 -0.292398
v 0.341696 0.245507 -0.333997
v 0.385668 0.219889 -0.253938
v 0.367669 0.211168 -0.282651
v 0.378062 0.214103 -0.298764
v 0.388905 0.211817 -0.285028
v 0.370998 0.213624 -0.264220
v 0.384988 0.210686 -0.279342
v 0.392746 0.213746 -0.277831
v 0.386097 0.211510 -0.273108
v 0.391153 0.213673 -0.269507
v 0.396670 0.215705 -0.270674
v 0.400503 0.216807 -0.276320
v 0.399300 0.215931 -0.282795
v 0.394659 0.213939 -0.286206
v -0.108646 0.853903 -0.419334
v -0.055919 0.868618 -0.503796
v -0.083125 0.952388 -0.504739
v -0.134580 0.938029 -0.422316
v -0.127557 0.853031 -0.320480
v -0.142729 0.990529 -0.421035
v -0.093719 1.004205 -0.499543
v -0.153034 0.937178 -0.325848
v -0.109276 0.866405 -0.221016
v -0.160307 0.989717 -0.329148
v -0.140918 1.037338 -0.416345
v -0.095950 1.049887 -0.488378
v -0.135197 0.950227 -0.228792
v -0.058000 0.891216 -0.139693
v -0.143328 1.002141 -0.236730
v -0.157046 1.036594 -0.332037
v -0.121757 1.087457 -0.404592
v -0.084653 1.097811 -0.464029
v -0.085156 0.974442 -0.149426
v 0.019879 0.924461 -0.085284
v -0.095653 1.025212 -0.161106
v -0.141481 1.047986 -0.247276
v -0.135066 1.086843 -0.335027
v -0.083724 1.133020 -0.385845
v -0.057999 1.140198 -0.427053
v -0.009158 1.006883 -0.096331
v 0.112007 0.960806 -0.067339
v -0.017627 1.144324 -0.359074
v -0.006357 1.147469 -0.377127
v -0.021669 1.144137 -0.337945
v -0.092951 1.132594 -0.337616
v -0.017834 1.146956 -0.316871
v -0.084131 1.139064 -0.289344
v -0.006802 1.152299 -0.299306
v -0.122254 1.096225 -0.265165
v -0.059015 1.151224 -0.249413
v 0.009843 1.159404 -0.287677
v -0.086117 1.113715 -0.207804
v -0.021019 1.167444 -0.222868
v 0.029534 1.167173 -0.283841
v -0.097725 1.069162 -0.177855
v 0.023928 1.185176 -0.214113
v 0.048666 1.174207 -0.288100
v -0.031313 1.137110 -0.169516
v -0.031307 1.097514 -0.131453
v 0.068233 1.201456 -0.224130
v 0.066054 1.180045 -0.300611
v 0.033519 1.162686 -0.156888
v -0.023265 1.056113 -0.110532
v 0.107292 1.214560 -0.252394
v 0.077324 1.183190 -0.318664
v 0.047264 1.128511 -0.116149
v 0.098317 1.186483 -0.171753
v 0.062369 1.089896 -0.093852
v 0.133017 1.221739 -0.293602
v 0.081366 1.183377 -0.339792
v 0.126160 1.157480 -0.134336
v 0.153761 1.205070 -0.212104
v 0.080746 1.042351 -0.078819
v 0.204809 0.994877 -0.088800
v 0.142243 1.222165 -0.341831
v 0.077342 1.180455 -0.361348
v 0.190866 1.215425 -0.271541
v 0.192987 1.179877 -0.183066
v 0.148501 1.121520 -0.113741
v 0.171283 1.075590 -0.099751
v 0.282876 1.021036 -0.145802
v 0.133123 1.215531 -0.390870
v 0.066499 1.175215 -0.378432
v 0.204174 1.216039 -0.341106
v 0.237955 1.192426 -0.255098
v 0.221193 1.145880 -0.166784
v 0.247489 1.101126 -0.155388
v 0.335603 1.035750 -0.230265
v 0.108307 1.203535 -0.430033
v 0.049854 1.168110 -0.390061
v 0.191112 1.206520 -0.411604
v 0.254084 1.193170 -0.339405
v 0.270203 1.159557 -0.245293
v 0.298943 1.115485 -0.237811
v 0.354514 1.036623 -0.329119
v 0.070312 1.187315 -0.456578
v 0.030163 1.160342 -0.393896
v 0.155225 1.189167 -0.468328
v 0.238291 1.181654 -0.424748
v 0.287781 1.160368 -0.337179
v 0.317398 1.116337 -0.334279
v 0.336026 1.023136 -0.429111
v 0.025364 1.169583 -0.465334
v 0.011200 1.153367 -0.389717
v 0.100421 1.165772 -0.506616
v 0.194763 1.160603 -0.493588
v 0.270583 1.147825 -0.430155
v 0.299353 1.103174 -0.431862
v 0.284956 0.998437 -0.509906
v -0.018672 1.153397 -0.455443
v -0.006357 1.147469 -0.377127
v -0.057999 1.140198 -0.427053
v 0.035589 1.140195 -0.519244
v -0.028986 1.116477 -0.504483
v -0.084653 1.097811 -0.464029
v 0.128345 1.132250 -0.539990
v 0.223128 1.124874 -0.505221
v 0.249520 1.079073 -0.510701
v 0.207078 0.965192 -0.564314
v -0.028919 1.072356 -0.537204
v -0.095950 1.049887 -0.488378
v 0.049774 1.101253 -0.555295
v 0.150739 1.093972 -0.555795
v 0.173521 1.046631 -0.563796
v 0.114950 0.928847 -0.582260
v 0.065105 1.060189 -0.572475
v -0.020832 1.028634 -0.552678
v -0.093719 1.004205 -0.499543
v 0.083617 1.011163 -0.581307
v 0.022333 0.894841 -0.560885
v -0.006735 0.977988 -0.560462
v -0.083125 0.952388 -0.504739
v -0.055919 0.868618 -0.503796
v -0.019870 1.191212 -0.287726
v -0.040711 1.179983 -0.298651
v -0.063383 1.203144 -0.293009
v -0.054835 1.226025 -0.281475
v -0.122456 1.254359 -0.262678
v -0.122545 1.225091 -0.277080
v -0.155143 1.235424 -0.272306
v -0.172364 1.248312 -0.273494
v -0.033878 1.250118 -0.300971
v -0.006641 1.196537 -0.297663
v -0.030265 1.250526 -0.310912
v -0.004762 1.197881 -0.306093
v -0.069151 1.300777 -0.302128
v -0.113959 1.335774 -0.307215
v -0.067373 1.304146 -0.313311
v -0.109706 1.337826 -0.318403
v -0.126825 1.338066 -0.334404
v -0.144836 1.340546 -0.326120
v -0.167226 1.284965 -0.265361
v -0.187838 1.273962 -0.280941
v -0.191437 1.299301 -0.291272
v -0.146712 1.333065 -0.294948
v -0.162530 1.335617 -0.317614
v -0.183690 1.318394 -0.301878
v -0.166288 1.313339 -0.280105
v -0.050598 1.176975 -0.314213
v -0.063383 1.203144 -0.293009
v -0.040711 1.179983 -0.298651
v -0.080381 1.202693 -0.314521
v -0.048429 1.176484 -0.346063
v -0.124084 1.218969 -0.300897
v -0.122545 1.225091 -0.277080
v -0.119349 1.234864 -0.330497
v -0.077464 1.213283 -0.342258
v -0.155556 1.230344 -0.291822
v -0.155143 1.235424 -0.272306
v -0.172364 1.248312 -0.273494
v -0.068363 1.245031 -0.353080
v -0.032111 1.182214 -0.356593
v -0.013355 1.186435 -0.343236
v -0.069552 1.283558 -0.345551
v -0.180750 1.262162 -0.303310
v -0.187838 1.273962 -0.280941
v -0.191437 1.299301 -0.291272
v -0.125055 1.305813 -0.349880
v -0.112507 1.321788 -0.345109
v -0.126825 1.338066 -0.334404
v -0.179283 1.295553 -0.323596
v -0.183690 1.318394 -0.301878
v -0.162530 1.335617 -0.317614
v -0.147412 1.306436 -0.344014
v -0.144836 1.340546 -0.326120
v 0.007814 1.198168 -0.305455
v -0.004762 1.197881 -0.306093
v -0.030265 1.250526 -0.310912
v -0.018633 1.260828 -0.309941
v 0.028366 1.247641 -0.322307
v 0.041314 1.209224 -0.319291
v 0.045574 1.207968 -0.331367
v 0.035537 1.243260 -0.333498
v 0.028971 1.283180 -0.341271
v 0.021513 1.284601 -0.328854
v 0.025587 1.355268 -0.359860
v -0.054861 1.313645 -0.310783
v -0.067373 1.304146 -0.313311
v 0.014499 1.364740 -0.351768
v 0.021214 1.371030 -0.379018
v -0.090580 1.349359 -0.312603
v -0.109706 1.337826 -0.318403
v -0.020418 1.396160 -0.352724
v -0.025883 1.421779 -0.383787
v -0.113640 1.362135 -0.322783
v -0.126825 1.338066 -0.334404
v -0.141011 1.369728 -0.355053
v -0.001858 1.403447 -0.407059
v 0.019113 1.368089 -0.388123
v -0.032100 1.425809 -0.419185
v -0.076019 1.386961 -0.330695
v -0.114368 1.389773 -0.338533
v -0.129752 1.406838 -0.384119
v -0.052862 1.430390 -0.387693
v -0.065393 1.432177 -0.417699
v -0.051730 1.403466 -0.346727
v -0.107525 1.407609 -0.353938
v -0.085508 1.424284 -0.373522
v -0.101200 1.426291 -0.406669
v -0.112507 1.321788 -0.345109
v -0.141011 1.369728 -0.355053
v -0.126825 1.338066 -0.334404
v -0.126101 1.353373 -0.384102
v -0.074225 1.304404 -0.378341
v -0.069552 1.283558 -0.345551
v -0.127849 1.379721 -0.399385
v -0.129752 1.406838 -0.384119
v -0.104679 1.408064 -0.421032
v -0.101200 1.426291 -0.406669
v -0.065393 1.432177 -0.417699
v -0.065167 1.402847 -0.433911
v -0.032100 1.425809 -0.419185
v -0.030671 1.390385 -0.429764
v -0.001858 1.403447 -0.407059
v -0.006899 1.364287 -0.416219
v 0.019113 1.368089 -0.388123
v 0.012373 1.321099 -0.386247
v -0.014172 1.311142 -0.400388
v 0.013400 1.273122 -0.374897
v -0.037786 1.256526 -0.372148
v -0.013355 1.186435 -0.343236
v -0.005066 1.188228 -0.365538
v -0.000568 1.238585 -0.381124
v 0.017274 1.240794 -0.371400
v 0.014189 1.194050 -0.374633
v 0.028169 1.198963 -0.370358
v 0.051083 1.211453 -0.327534
v 0.045574 1.207968 -0.331367
v 0.035537 1.243260 -0.333498
v 0.043816 1.245516 -0.332692
v 0.028971 1.283180 -0.341271
v 0.066633 1.247485 -0.339046
v 0.076901 1.220510 -0.335172
v 0.038488 1.286273 -0.340236
v 0.078226 1.239376 -0.351697
v 0.082134 1.221614 -0.348822
v 0.075590 1.237109 -0.374096
v 0.077469 1.218452 -0.373816
v 0.078120 1.254017 -0.355637
v 0.079987 1.260420 -0.380221
v 0.070884 1.288008 -0.348774
v 0.086400 1.278877 -0.363323
v 0.088804 1.279732 -0.389870
v 0.109284 1.314066 -0.400537
v 0.039937 1.352388 -0.354283
v 0.025587 1.355268 -0.359860
v 0.094780 1.328691 -0.365131
v 0.109924 1.324682 -0.380006
v 0.115569 1.334379 -0.411419
v 0.111648 1.363910 -0.391355
v 0.115090 1.357062 -0.417842
v 0.107680 1.373829 -0.419718
v 0.052313 1.376899 -0.364505
v 0.021214 1.371030 -0.379018
v 0.089855 1.369355 -0.374421
v 0.103332 1.382990 -0.396198
v 0.093212 1.389703 -0.416632
v 0.083817 1.394017 -0.388691
v 0.072040 1.397668 -0.410703
v 0.054450 1.395752 -0.404350
v 0.048704 1.390779 -0.378472
v 0.038089 1.387839 -0.396124
v 0.030569 1.384012 -0.386629
v 0.019113 1.368089 -0.388123
v 0.075590 1.237109 -0.374096
v 0.060565 1.212928 -0.394213
v 0.077469 1.218452 -0.373816
v 0.059252 1.241345 -0.397311
v 0.079987 1.260420 -0.380221
v 0.062667 1.271570 -0.408464
v 0.088804 1.279732 -0.389870
v 0.048970 1.207285 -0.397326
v 0.109284 1.314066 -0.400537
v 0.046646 1.217634 -0.397715
v 0.030964 1.199802 -0.384379
v 0.043294 1.253596 -0.402410
v 0.021841 1.231041 -0.384620
v 0.028169 1.198963 -0.370358
v 0.017274 1.240794 -0.371400
v 0.018192 1.258215 -0.387845
v 0.013400 1.273122 -0.374897
v 0.053326 1.287661 -0.415420
v 0.073420 1.328289 -0.432767
v 0.085491 1.316863 -0.426733
v 0.115569 1.334379 -0.411419
v 0.017617 1.317704 -0.399029
v 0.012373 1.321099 -0.386247
v 0.093299 1.341169 -0.432595
v 0.115090 1.357062 -0.417842
v 0.107680 1.373829 -0.419718
v 0.026417 1.363624 -0.403726
v 0.019113 1.368089 -0.388123
v 0.038089 1.387839 -0.396124
v 0.042308 1.366020 -0.418681
v 0.054450 1.395752 -0.404350
v 0.080131 1.350801 -0.435269
v 0.062413 1.370224 -0.428687
v 0.072040 1.397668 -0.410703
v 0.093212 1.389703 -0.416632
v 0.074306 1.365851 -0.432433
v 0.070438 1.205938 -0.408189
v 0.078523 1.186605 -0.407768
v 0.098854 1.196038 -0.381830
v 0.090525 1.215257 -0.382564
v 0.108167 1.201683 -0.349326
v 0.042522 1.194295 -0.423426
v 0.050266 1.174820 -0.423191
v 0.056353 1.217184 -0.397412
v 0.073005 1.224910 -0.376168
v 0.099724 1.220834 -0.350451
v 0.105041 1.202682 -0.315201
v 0.080632 1.229534 -0.349546
v 0.011028 1.182102 -0.425954
v 0.018386 1.162478 -0.425751
v 0.096636 1.221821 -0.316739
v 0.089953 1.198881 -0.284655
v 0.078072 1.230352 -0.321598
v 0.081731 1.218066 -0.286561
v 0.065201 1.190860 -0.262335
v 0.065715 1.227239 -0.296580
v 0.057277 1.210142 -0.264511
v 0.034552 1.179839 -0.251641
v 0.045442 1.220669 -0.278300
v 0.026998 1.199254 -0.253946
v 0.002672 1.167497 -0.254200
v 0.020340 1.211643 -0.269541
v -0.005770 1.201535 -0.271636
v -0.028913 1.191883 -0.284268
v -0.045565 1.184157 -0.305512
v -0.004497 1.187061 -0.256474
v -0.025584 1.155712 -0.269623
v -0.032413 1.175419 -0.271711
v -0.045916 1.146279 -0.295561
v -0.052499 1.166099 -0.297336
v -0.055229 1.140633 -0.328067
v -0.053192 1.179533 -0.332135
v -0.061699 1.160522 -0.329449
v -0.052103 1.139635 -0.362190
v -0.050632 1.178715 -0.360082
v -0.058611 1.159535 -0.363161
v -0.037015 1.143436 -0.392737
v -0.038275 1.181828 -0.385101
v -0.043705 1.163290 -0.393339
v -0.012263 1.151457 -0.415056
v -0.018002 1.188398 -0.403381
v -0.019252 1.171214 -0.415389
v 0.007100 1.197424 -0.412140
v 0.033210 1.207532 -0.410043
vt 0.006054 0.269287
vt 0.006054 0.233643
vt 0.066040 0.269287
vt 0.066040 0.233643
vt 0.006054 0.208740
vt 0.066040 0.208740
vt 0.066040 0.183838
vt 0.006054 0.183838
vt 0.006054 0.158569
vt 0.066040 0.158569
vt 0.066040 0.133301
vt 0.006054 0.133301
vt 0.006054 0.101685
vt 0.066040 0.101685
vt 0.066040 0.070068
vt 0.006054 0.070068
vt 0.006054 0.037537
vt 0.066040 0.037537
vt 0.066040 0.005005
vt 0.006054 0.005005
vt 0.066040 0.269287
vt 0.066040 0.233643
vt 0.128174 0.269287
vt 0.128174 0.233643
vt 0.190674 0.269287
vt 0.066040 0.208740
vt 0.190674 0.233643
vt 0.253174 0.269287
vt 0.128174 0.208740
vt 0.253174 0.233643
vt 0.315674 0.269287
vt 0.128174 0.183838
vt 0.066040 0.183838
vt 0.066040 0.158569
vt 0.190674 0.208740
vt 0.315674 0.233643
vt 0.377686 0.269287
vt 0.190674 0.183838
vt 0.128174 0.158569
vt 0.253174 0.208740
vt 0.377686 0.233643
vt 0.439453 0.269287
vt 0.253174 0.183838
vt 0.315674 0.208740
vt 0.439453 0.233643
vt 0.501465 0.269287
vt 0.128174 0.133301
vt 0.066040 0.133301
vt 0.066040 0.101685
vt 0.190674 0.158569
vt 0.315674 0.183838
vt 0.377686 0.208740
vt 0.501465 0.233643
vt 0.562988 0.269287
vt 0.190674 0.133301
vt 0.253174 0.158569
vt 0.377686 0.183838
vt 0.439453 0.208740
vt 0.562988 0.233643
vt 0.625000 0.269287
vt 0.128174 0.101685
vt 0.315674 0.158569
vt 0.439453 0.183838
vt 0.501465 0.208740
vt 0.625000 0.233643
vt 0.687012 0.269287
vt 0.128174 0.070068
vt 0.066040 0.070068
vt 0.066040 0.037537
vt 0.377686 0.158569
vt 0.501465 0.183838
vt 0.562988 0.208740
vt 0.439453 0.158569
vt 0.562988 0.183838
vt 0.501465 0.158569
vt 0.128174 0.037537
vt 0.128174 0.005005
vt 0.066040 0.005005
vt 0.190674 0.005005
vt 0.190674 0.070068
vt 0.190674 0.037537
vt 0.253174 0.005005
vt 0.190674 0.101685
vt 0.253174 0.037537
vt 0.315674 0.005005
vt 0.253174 0.070068
vt 0.253174 0.133301
vt 0.315674 0.037537
vt 0.377686 0.005005
vt 0.253174 0.101685
vt 0.315674 0.133301
vt 0.315674 0.070068
vt 0.377686 0.037537
vt 0.439453 0.005005
vt 0.377686 0.133301
vt 0.315674 0.101685
vt 0.377686 0.070068
vt 0.439453 0.037537
vt 0.501465 0.005005
vt 0.439453 0.133301
vt 0.377686 0.101685
vt 0.439453 0.070068
vt 0.501465 0.037537
vt 0.562988 0.005005
vt 0.501465 0.133301
vt 0.439453 0.101685
vt 0.501465 0.070068
vt 0.562988 0.037537
vt 0.625000 0.005005
vt 0.501465 0.101685
vt 0.562988 0.070068
vt 0.562988 0.133301
vt 0.625000 0.037537
vt 0.687012 0.005005
vt 0.562988 0.101685
vt 0.625000 0.070068
vt 0.562988 0.158569
vt 0.687012 0.037537
vt 0.749023 0.005005
vt 0.687012 0.070068
vt 0.625000 0.101685
vt 0.625000 0.133301
vt 0.625000 0.183838
vt 0.749023 0.037537
vt 0.811523 0.005005
vt 0.749023 0.070068
vt 0.625000 0.158569
vt 0.687012 0.101685
vt 0.687012 0.133301
vt 0.625000 0.208740
vt 0.811523 0.037537
vt 0.874023 0.005005
vt 0.811523 0.070068
vt 0.687012 0.183838
vt 0.687012 0.158569
vt 0.749023 0.101685
vt 0.749023 0.133301
vt 0.874023 0.037537
vt 0.936035 0.005005
vt 0.874023 0.070068
vt 0.811523 0.101685
vt 0.811523 0.133301
vt 0.749023 0.158569
vt 0.936035 0.037537
vt 0.995605 0.005005
vt 0.995605 0.037537
vt 0.995605 0.070068
vt 0.936035 0.070068
vt 0.874023 0.101685
vt 0.936035 0.101685
vt 0.995605 0.101685
vt 0.995605 0.133301
vt 0.874023 0.133301
vt 0.936035 0.133301
vt 0.811523 0.158569
vt 0.936035 0.158569
vt 0.995605 0.158569
vt 0.995605 0.183838
vt 0.874023 0.158569
vt 0.936035 0.183838
vt 0.874023 0.183838
vt 0.811523 0.183838
vt 0.936035 0.208740
vt 0.995605 0.208740
vt 0.995605 0.233643
vt 0.874023 0.208740
vt 0.936035 0.233643
vt 0.995605 0.269287
vt 0.936035 0.269287
vt 0.874023 0.233643
vt 0.874023 0.269287
vt 0.811523 0.208740
vt 0.811523 0.233643
vt 0.811523 0.269287
vt 0.749023 0.208740
vt 0.749023 0.233643
vt 0.749023 0.269287
vt 0.749023 0.183838
vt 0.687012 0.208740
vt 0.687012 0.233643
vt 0.710938 0.674805
vt 0.759277 0.678223
vt 0.730957 0.738281
vt 0.771973 0.758789
vt 0.803223 0.699707
vt 0.728027 0.775879
vt 0.834961 0.736816
vt 0.743652 0.783691
vt 0.727051 0.793457
vt 0.786621 0.802734
vt 0.850098 0.782715
vt 0.847168 0.830566
vt 0.729980 0.794922
vt 0.727051 0.797363
vt 0.766113 0.844238
vt 0.824707 0.875000
vt 0.788086 0.906738
vt 0.749023 0.799805
vt 0.722168 0.858887
vt 0.741699 0.922363
vt 0.693359 0.918945
vt 0.741211 0.815430
vt 0.680664 0.837891
vt 0.649902 0.896973
vt 0.618164 0.860352
vt 0.731445 0.798828
vt 0.724609 0.820801
vt 0.666016 0.793945
vt 0.602539 0.813965
vt 0.605957 0.766113
vt 0.729492 0.802246
vt 0.709473 0.812988
vt 0.687012 0.752930
vt 0.627930 0.721680
vt 0.664551 0.689941
vt 0.726074 0.803223
vt 0.704102 0.796875
vt 0.730957 0.738281
vt 0.710938 0.674805
vt 0.711914 0.781250
vt 0.728027 0.775879
vt 0.722656 0.801758
vt 0.723145 0.794922
vt 0.727051 0.793457
vt 0.727051 0.797363
vt 0.721680 0.797852
vt 0.725586 0.797363
vt 0.726562 0.798340
vt 0.725098 0.798340
vt 0.725586 0.799316
vt 0.726074 0.799316
vt 0.727051 0.799316
vt 0.727539 0.798340
vt 0.727539 0.797852
vt 0.239990 0.913574
vt 0.220703 0.942383
vt 0.179810 0.901855
vt 0.208862 0.882324
vt 0.157715 0.848633
vt 0.226440 0.870605
vt 0.251709 0.895996
vt 0.192017 0.841797
vt 0.157715 0.790527
vt 0.212769 0.837402
vt 0.241699 0.860352
vt 0.261963 0.880371
vt 0.191895 0.797363
vt 0.179443 0.737793
vt 0.212891 0.801270
vt 0.230835 0.833984
vt 0.261475 0.847168
vt 0.275146 0.860840
vt 0.208496 0.757324
vt 0.220093 0.696777
vt 0.226318 0.769043
vt 0.230835 0.805176
vt 0.254150 0.829590
vt 0.281006 0.833984
vt 0.288086 0.841309
vt 0.239624 0.726074
vt 0.273193 0.674805
vt 0.289062 0.828613
vt 0.293457 0.833008
vt 0.286865 0.822754
vt 0.277100 0.824707
vt 0.286865 0.816406
vt 0.277100 0.814453
vt 0.289307 0.810547
vt 0.254150 0.810059
vt 0.281006 0.805176
vt 0.293701 0.806152
vt 0.261475 0.792480
vt 0.288086 0.798340
vt 0.299316 0.803711
vt 0.241577 0.779297
vt 0.297363 0.794434
vt 0.305420 0.803711
vt 0.274902 0.778809
vt 0.261719 0.758789
vt 0.307373 0.793945
vt 0.311279 0.806152
vt 0.292725 0.771484
vt 0.251465 0.743652
vt 0.316895 0.797852
vt 0.315674 0.810547
vt 0.288086 0.748047
vt 0.312012 0.770996
vt 0.284424 0.729980
vt 0.323975 0.805176
vt 0.318115 0.816406
vt 0.316650 0.748047
vt 0.329834 0.778320
vt 0.280273 0.708984
vt 0.331055 0.674805
vt 0.327637 0.814453
vt 0.318115 0.822754
vt 0.343262 0.791992
vt 0.343018 0.758789
vt 0.320312 0.729980
vt 0.324463 0.708984
vt 0.384277 0.696777
vt 0.327637 0.824707
vt 0.315674 0.828613
vt 0.350586 0.809570
vt 0.363281 0.778809
vt 0.353271 0.743164
vt 0.364990 0.725586
vt 0.425049 0.737305
vt 0.323975 0.833984
vt 0.311279 0.833008
vt 0.350586 0.829590
vt 0.374023 0.805176
vt 0.378418 0.768555
vt 0.395996 0.756836
vt 0.447266 0.790527
vt 0.316895 0.840820
vt 0.305664 0.835449
vt 0.343506 0.846680
vt 0.374023 0.834473
vt 0.392090 0.801758
vt 0.412842 0.797363
vt 0.447266 0.848633
vt 0.307617 0.844727
vt 0.299561 0.835449
vt 0.329834 0.860352
vt 0.363281 0.859863
vt 0.392090 0.837891
vt 0.412842 0.842285
vt 0.425537 0.901367
vt 0.297607 0.845215
vt 0.293457 0.833008
vt 0.288086 0.841309
vt 0.312256 0.867676
vt 0.292969 0.868164
vt 0.275146 0.860840
vt 0.343262 0.880371
vt 0.378662 0.870117
vt 0.396484 0.881836
vt 0.384766 0.942383
vt 0.288330 0.891113
vt 0.261963 0.880371
vt 0.316895 0.891113
vt 0.353516 0.895508
vt 0.365234 0.913086
vt 0.331543 0.964355
vt 0.320557 0.909180
vt 0.284668 0.909180
vt 0.251709 0.895996
vt 0.324707 0.930176
vt 0.273926 0.964355
vt 0.280762 0.930176
vt 0.239990 0.913574
vt 0.220703 0.942383
vt 0.968750 0.677734
vt 0.971191 0.666016
vt 0.980957 0.666016
vt 0.977539 0.683105
vt 0.964844 0.707031
vt 0.957520 0.698730
vt 0.951660 0.709961
vt 0.950684 0.718750
vt 0.991211 0.685547
vt 0.987305 0.665039
vt 0.994629 0.685059
vt 0.990723 0.664551
vt 0.992676 0.707031
vt 0.990234 0.726074
vt 0.996094 0.708008
vt 0.994629 0.727051
vt 0.995605 0.735352
vt 0.988770 0.738770
vt 0.961426 0.724609
vt 0.954102 0.729980
vt 0.961426 0.737793
vt 0.979980 0.731934
vt 0.981445 0.741211
vt 0.969727 0.741211
vt 0.969727 0.731445
vt 0.634277 0.631348
vt 0.625000 0.637695
vt 0.629883 0.625977
vt 0.616699 0.630859
vt 0.626953 0.615234
vt 0.603516 0.641602
vt 0.605957 0.649414
vt 0.598145 0.631348
vt 0.611328 0.621094
vt 0.594238 0.648926
vt 0.595703 0.655273
vt 0.588379 0.657715
vt 0.601562 0.611816
vt 0.626465 0.607910
vt 0.626953 0.599609
vt 0.587891 0.606934
vt 0.580566 0.649414
vt 0.577148 0.657715
vt 0.567383 0.653809
vt 0.574219 0.622559
vt 0.569824 0.617188
vt 0.561035 0.620605
vt 0.570312 0.642090
vt 0.561035 0.646973
vt 0.557129 0.635742
vt 0.570801 0.629395
vt 0.557617 0.627441
vt 0.724121 0.517090
vt 0.727051 0.496094
vt 0.731934 0.494629
vt 0.730957 0.518555
vt 0.746582 0.508301
vt 0.746094 0.494385
vt 0.750977 0.493652
vt 0.751465 0.506348
vt 0.754883 0.520508
vt 0.749512 0.521484
vt 0.763184 0.545410
vt 0.726074 0.541016
vt 0.719238 0.540527
vt 0.758789 0.548828
vt 0.768066 0.553223
vt 0.721680 0.558105
vt 0.714355 0.560547
vt 0.752930 0.562500
vt 0.758301 0.575195
vt 0.718750 0.567871
vt 0.708984 0.568848
vt 0.713867 0.583008
vt 0.770508 0.570801
vt 0.771973 0.554688
vt 0.766113 0.584473
vt 0.733887 0.566895
vt 0.724609 0.576172
vt 0.728027 0.594238
vt 0.752930 0.582520
vt 0.756836 0.592773
vt 0.744141 0.568848
vt 0.730957 0.581543
vt 0.741211 0.584961
vt 0.743164 0.597168
vt 0.789551 0.614746
vt 0.799316 0.625000
vt 0.781738 0.617188
vt 0.789551 0.632324
vt 0.765625 0.627441
vt 0.762207 0.613770
vt 0.794434 0.640137
vt 0.804199 0.641602
vt 0.793945 0.653809
vt 0.800781 0.657227
vt 0.792969 0.669434
vt 0.783203 0.662598
vt 0.780273 0.675781
vt 0.771973 0.666016
vt 0.764648 0.676270
vt 0.759277 0.662109
vt 0.748535 0.669434
vt 0.741699 0.652832
vt 0.749512 0.644043
vt 0.731934 0.637695
vt 0.745605 0.620117
vt 0.726074 0.600098
vt 0.722656 0.607422
vt 0.730957 0.624023
vt 0.725098 0.627930
vt 0.718262 0.612793
vt 0.714844 0.616699
vt 0.144043 0.603027
vt 0.135742 0.592285
vt 0.137817 0.590820
vt 0.146606 0.600098
vt 0.154907 0.613770
vt 0.152344 0.591797
vt 0.145508 0.583984
vt 0.157593 0.609863
vt 0.154541 0.584473
vt 0.149536 0.580078
vt 0.159912 0.577637
vt 0.155518 0.573242
vt 0.159180 0.586914
vt 0.166992 0.582031
vt 0.165039 0.598633
vt 0.168213 0.590332
vt 0.174683 0.583496
vt 0.188354 0.588379
vt 0.178223 0.621582
vt 0.178589 0.627441
vt 0.182007 0.601074
vt 0.186401 0.595703
vt 0.196777 0.590332
vt 0.197998 0.602539
vt 0.203979 0.595215
vt 0.207764 0.601074
vt 0.188110 0.621582
vt 0.187744 0.633789
vt 0.192749 0.609863
vt 0.201904 0.607422
vt 0.209351 0.609375
vt 0.200439 0.614746
vt 0.208008 0.618652
vt 0.203979 0.625000
vt 0.194092 0.624512
vt 0.197876 0.630371
vt 0.193237 0.630859
vt 0.190308 0.636719
vt 0.401367 0.576172
vt 0.406006 0.583984
vt 0.395508 0.578613
vt 0.396973 0.588867
vt 0.387207 0.581543
vt 0.386475 0.594238
vt 0.378906 0.584473
vt 0.409668 0.586426
vt 0.363770 0.587891
vt 0.406738 0.588867
vt 0.416260 0.591309
vt 0.396484 0.596680
vt 0.408936 0.599609
vt 0.420166 0.594238
vt 0.410156 0.605469
vt 0.401855 0.605957
vt 0.401855 0.613281
vt 0.383789 0.600586
vt 0.367432 0.604492
vt 0.368164 0.599121
vt 0.355957 0.593262
vt 0.385254 0.618164
vt 0.387451 0.622559
vt 0.360352 0.603027
vt 0.350098 0.600586
vt 0.347656 0.607422
vt 0.371338 0.626465
vt 0.374023 0.632324
vt 0.363770 0.632324
vt 0.366211 0.621582
vt 0.356689 0.628906
vt 0.360840 0.607910
vt 0.360352 0.616699
vt 0.351074 0.624023
vt 0.347412 0.615723
vt 0.358643 0.612793
vt 0.418457 0.914062
vt 0.428711 0.903809
vt 0.433594 0.910645
vt 0.425537 0.918457
vt 0.412842 0.927734
vt 0.444092 0.906250
vt 0.442139 0.898438
vt 0.437256 0.916504
vt 0.431152 0.922363
vt 0.420898 0.929199
vt 0.412842 0.942383
vt 0.427734 0.930664
vt 0.455322 0.906250
vt 0.456787 0.897949
vt 0.420898 0.940430
vt 0.418457 0.955566
vt 0.427734 0.938965
vt 0.425293 0.951172
vt 0.428711 0.965820
vt 0.430908 0.947266
vt 0.433350 0.958984
vt 0.442383 0.971680
vt 0.437012 0.953125
vt 0.443848 0.963379
vt 0.456787 0.971680
vt 0.445068 0.956543
vt 0.453857 0.956543
vt 0.461914 0.953125
vt 0.468018 0.947266
vt 0.455078 0.963379
vt 0.470459 0.965820
vt 0.465576 0.958984
vt 0.480713 0.955566
vt 0.473633 0.951172
vt 0.486328 0.941895
vt 0.471436 0.938965
vt 0.478271 0.940430
vt 0.486328 0.927246
vt 0.471436 0.930664
vt 0.478271 0.929199
vt 0.480713 0.914062
vt 0.468262 0.922363
vt 0.473877 0.918457
vt 0.470215 0.903809
vt 0.462158 0.916504
vt 0.465820 0.910645
vt 0.454102 0.913086
vt 0.445312 0.913086
vn -0.4853 0.3105 -0.8174
vn -0.5010 0.5676 -0.6534
vn -0.7468 0.2229 -0.6266
vn -0.7028 0.5001 -0.5059
vn -0.4977 0.4168 -0.7606
vn -0.7376 0.3364 -0.5855
vn -0.7463 0.1319 -0.6524
vn -0.4723 0.2237 -0.8526
vn -0.4174 -0.0055 -0.9087
vn -0.7148 -0.1051 -0.6914
vn -0.6277 -0.3670 -0.6865
vn -0.3253 -0.2657 -0.9075
vn -0.1788 -0.5556 -0.8120
vn -0.4561 -0.6486 -0.6094
vn -0.2443 -0.8476 -0.4710
vn -0.0204 -0.7726 -0.6346
vn 0.0603 -0.8518 -0.5204
vn -0.1279 -0.9149 -0.3829
vn -0.1672 -0.8980 -0.4069
vn 0.0411 -0.8280 -0.5593
vn -0.9221 0.1737 -0.3457
vn -0.8386 0.4621 -0.2884
vn -0.9851 0.1712 -0.0151
vn -0.8874 0.4598 -0.0326
vn -0.9251 0.2149 0.3129
vn -0.8991 0.2913 -0.3266
vn -0.8409 0.4939 0.2212
vn -0.7526 0.2983 0.5871
vn -0.9307 0.0804 -0.3569
vn -0.9572 0.2886 -0.0222
vn -0.7074 0.5586 0.4330
vn -0.4942 0.4088 0.7672
vn -0.9970 0.0774 -0.0092
vn -0.9146 -0.1609 -0.3711
vn -0.9018 0.3292 0.2799
vn -0.5073 0.6440 0.5727
vn -0.1865 0.5302 0.8271
vn -0.9337 0.1238 0.3360
vn -0.7430 0.4061 0.5319
vn -0.2693 0.7378 0.6190
vn 0.1214 0.6431 0.7561
vn -0.8309 -0.4237 -0.3607
vn -0.9864 -0.1641 0.0060
vn -0.7524 0.2116 0.6238
vn -0.5049 0.5077 0.6980
vn -0.0309 0.8254 0.5638
vn 0.3826 0.7309 0.5652
vn -0.9040 -0.4269 0.0228
vn -0.9178 -0.1139 0.3803
vn -0.4804 0.3276 0.8136
vn -0.2216 0.6194 0.7531
vn 0.1710 0.8930 0.4162
vn 0.5579 0.7796 0.2844
vn -0.6424 -0.7006 -0.3106
vn -0.7212 -0.0187 0.6925
vn -0.1563 0.4552 0.8766
vn 0.0622 0.7236 0.6874
vn 0.3065 0.9308 0.1989
vn 0.6208 0.7825 -0.0467
vn -0.3948 -0.8895 -0.2299
vn -0.2442 -0.8476 -0.4711
vn -0.4262 0.1072 0.8983
vn 0.1676 0.5744 0.8013
vn 0.3021 0.8044 0.5115
vn -0.0752 0.2456 0.9664
vn 0.4416 0.6662 0.6009
vn 0.2765 0.3748 0.8849
vn -0.2545 -0.9501 -0.1802
vn -0.2957 -0.9339 -0.2010
vn -0.1672 -0.8980 -0.4070
vn -0.3462 -0.9361 0.0625
vn -0.4489 -0.8919 0.0539
vn -0.2999 -0.9522 0.0583
vn -0.3022 -0.9039 0.3028
vn -0.7095 -0.7035 0.0410
vn -0.2566 -0.9204 0.2950
vn -0.1646 -0.8372 0.5215
vn -0.3973 -0.8542 0.3355
vn -0.8342 -0.3758 0.4036
vn -0.1321 -0.8602 0.4925
vn 0.0250 -0.7563 0.6537
vn -0.6455 -0.6567 0.3900
vn -0.6342 -0.2790 0.7210
vn -0.2492 -0.7826 0.5705
vn 0.0545 -0.7805 0.6227
vn 0.2702 -0.6594 0.7016
vn -0.3342 -0.1510 0.9303
vn -0.4621 -0.5680 0.6810
vn -0.0272 -0.6878 0.7254
vn 0.2764 -0.6930 0.6659
vn 0.4958 -0.5766 0.6493
vn 0.0229 -0.0101 0.9997
vn -0.1871 -0.4506 0.8729
vn 0.2369 -0.5835 0.7768
vn 0.4987 -0.6114 0.6145
vn 0.7041 -0.5071 0.4971
vn 0.3807 0.1212 0.9167
vn 0.1402 -0.3214 0.9365
vn 0.5015 -0.4865 0.7154
vn 0.6869 -0.5483 0.4769
vn 0.8325 -0.4712 0.2915
vn 0.4681 -0.2011 0.8605
vn 0.7253 -0.4115 0.5518
vn 0.6829 0.2225 0.6958
vn 0.8134 -0.5130 0.2742
vn 0.8829 -0.4688 0.0273
vn 0.7453 -0.1083 0.6579
vn 0.8757 -0.3695 0.3108
vn 0.5738 0.4744 0.6676
vn 0.8588 -0.5110 0.0354
vn 0.8387 -0.5012 -0.2132
vn 0.9298 -0.3670 0.0267
vn 0.9315 -0.0563 0.3593
vn 0.8861 0.2792 0.3700
vn 0.6259 0.7176 0.3056
vn 0.8153 -0.5429 -0.2015
vn 0.7009 -0.5678 -0.4317
vn 0.8780 -0.4050 -0.2551
vn 0.7736 0.5299 0.3476
vn 0.9986 -0.0532 0.0074
vn 0.9592 0.2824 -0.0138
vn 0.4635 0.8491 0.2533
vn 0.6909 -0.6031 -0.3987
vn 0.5115 -0.6486 -0.5637
vn 0.7300 -0.4767 -0.4898
vn 0.6922 0.7205 -0.0424
vn 0.8454 0.5333 -0.0300
vn 0.9344 -0.1002 -0.3419
vn 0.8892 0.2312 -0.3949
vn 0.5044 -0.6826 -0.5287
vn 0.2667 -0.7451 -0.6113
vn 0.5082 -0.5713 -0.6445
vn 0.7511 -0.1890 -0.6326
vn 0.6892 0.1344 -0.7120
vn 0.7766 0.4829 -0.4046
vn 0.2826 -0.7701 -0.5719
vn 0.2441 -0.6754 -0.6959
vn 0.4762 -0.3063 -0.8243
vn 0.1490 -0.4353 -0.8879
vn -0.3253 -0.2656 -0.9075
vn 0.3894 0.0065 -0.9211
vn 0.0324 -0.1343 -0.9904
vn 0.5799 0.3878 -0.7164
vn -0.0657 0.1235 -0.9902
vn 0.2851 0.2620 -0.9220
vn -0.1480 0.3424 -0.9278
vn 0.1755 0.4704 -0.8648
vn 0.4473 0.5864 -0.6753
vn -0.2139 0.5206 -0.8266
vn 0.0693 0.6327 -0.7713
vn -0.2626 0.6551 -0.7085
vn -0.4853 0.3104 -0.8174
vn -0.1776 0.4232 -0.8885
vn -0.0246 0.7493 -0.6618
vn 0.1299 0.5446 -0.8286
vn 0.3072 0.7343 -0.6054
vn 0.1751 0.8343 -0.5227
vn 0.3883 0.6547 -0.6485
vn 0.4660 0.8110 -0.3537
vn 0.3086 0.8988 -0.3112
vn 0.5606 0.7383 -0.3751
vn 0.6287 0.6741 -0.3878
vn 0.5216 0.8517 -0.0513
vn 0.3554 0.9330 -0.0572
vn -0.1789 -0.7764 -0.6042
vn 0.3686 -0.5749 -0.7305
vn -0.2258 -0.7270 -0.6485
vn 0.3541 -0.5137 -0.7815
vn -0.0300 -0.8878 -0.4592
vn 0.8308 -0.3782 -0.4083
vn 0.3962 -0.7310 -0.5556
vn 0.2255 -0.9635 -0.1443
vn 0.9376 -0.2998 0.1764
vn 0.8449 -0.3047 -0.4398
vn 0.6238 -0.3872 0.6790
vn 0.4958 -0.5766 0.6494
vn 0.9580 -0.2216 0.1821
vn 0.0758 -0.5883 0.8051
vn 0.2702 -0.6594 0.7015
vn 0.7593 -0.5758 -0.3031
vn 0.6239 -0.3146 0.7154
vn -0.3869 -0.7860 0.4822
vn -0.1646 -0.8372 0.5216
vn 0.8423 -0.5150 0.1588
vn 0.0429 -0.5280 0.8482
vn -0.4929 -0.8641 -0.1021
vn 0.5933 -0.5845 0.5535
vn -0.4479 -0.7376 0.5053
vn -0.1789 -0.7764 -0.6043
vn -0.5597 -0.8205 -0.1160
vn -0.2258 -0.7269 -0.6485
vn 0.1648 -0.7420 0.6498
vn -0.2793 -0.9580 -0.0656
vn -0.1975 -0.8968 0.3958
vn 0.1220 -0.9925 0.0102
vn 0.3562 -0.9325 0.0599
vn 0.1554 -0.9683 0.1954
vn 0.2981 -0.9073 0.2965
vn 0.4663 -0.8456 0.2599
vn 0.5690 -0.8157 0.1046
vn 0.5349 -0.8411 -0.0797
vn 0.3949 -0.9006 -0.1815
vn -0.7021 -0.1552 -0.6950
vn -0.9041 -0.2117 -0.3713
vn -0.9851 0.1712 -0.0152
vn -0.9298 -0.0351 -0.3663
vn -0.7363 0.0190 -0.6764
vn -0.9766 -0.2150 0.0091
vn -0.9993 -0.0383 -0.0021
vn -0.9131 0.2288 -0.3374
vn -0.7436 0.2764 -0.6089
vn -0.9074 -0.1643 0.3868
vn -0.7526 0.2983 0.5870
vn -0.9331 0.0102 0.3596
vn -0.9740 0.2260 -0.0185
vn -0.8025 0.5329 -0.2683
vn -0.6792 0.5676 -0.4652
vn -0.7090 -0.0682 0.7019
vn -0.4942 0.4089 0.7672
vn -0.7430 0.1023 0.6614
vn -0.9160 0.2685 0.2980
vn -0.8467 0.5308 -0.0371
vn -0.4967 0.8594 -0.1211
vn -0.4622 0.8690 -0.1767
vn -0.4112 0.0589 0.9096
vn -0.1866 0.5302 0.8271
vn -0.1746 0.9845 0.0155
vn -0.2164 0.9729 0.0821
vn -0.1598 0.9852 -0.0622
vn -0.5093 0.8588 -0.0560
vn -0.1738 0.9749 -0.1391
vn -0.4975 0.8675 0.0083
vn -0.2145 0.9552 -0.2039
vn -0.8047 0.5616 0.1924
vn -0.4633 0.8840 0.0624
vn -0.2755 0.9292 -0.2464
vn -0.6839 0.6202 0.3843
vn -0.4125 0.9057 0.0981
vn -0.3470 0.9010 -0.2605
vn -0.7500 0.3491 0.5618
vn -0.3522 0.9295 0.1097
vn -0.4190 0.8745 -0.2442
vn -0.5028 0.6974 0.5107
vn -0.5000 0.4556 0.7365
vn -0.2922 0.9515 0.0961
vn -0.4812 0.8536 -0.1993
vn -0.2882 0.7820 0.5527
vn -0.4578 0.2239 0.8604
vn -0.2399 0.9690 0.0586
vn -0.5230 0.8419 -0.1328
vn -0.2037 0.5724 0.7943
vn -0.0730 0.8611 0.5033
vn -0.1192 0.3575 0.9263
vn -0.2053 0.9787 0.0030
vn -0.5378 0.8413 -0.0546
vn 0.0933 0.6817 0.7256
vn 0.1104 0.9226 0.3696
vn -0.0575 0.1984 0.9784
vn -0.1924 0.9793 -0.0624
vn -0.5236 0.8517 0.0227
vn 0.2335 0.9569 0.1726
vn 0.3456 0.7662 0.5418
vn 0.2202 0.4821 0.8480
vn 0.2971 0.3285 0.8966
vn 0.3826 0.7308 0.5652
vn -0.2049 0.9705 -0.1270
vn -0.4829 0.8713 0.0870
vn 0.2777 0.9588 -0.0593
vn 0.5150 0.8134 0.2704
vn 0.5082 0.5787 0.6379
vn 0.5975 0.4293 0.6772
vn -0.2392 0.9540 -0.1804
vn -0.4222 0.8972 0.1292
vn 0.2352 0.9279 -0.2892
vn 0.5759 0.8160 -0.0491
vn 0.7016 0.6326 0.3280
vn 0.7994 0.4856 0.3537
vn 0.6208 0.7826 -0.0467
vn -0.2897 0.9324 -0.2161
vn -0.3505 0.9255 0.1434
vn 0.1144 0.8696 -0.4803
vn 0.5175 0.7735 -0.3661
vn 0.7710 0.6357 -0.0369
vn 0.8719 0.4888 -0.0273
vn -0.3497 0.9089 -0.2274
vn -0.2790 0.9518 0.1271
vn -0.0663 0.7924 -0.6064
vn 0.3511 0.6931 -0.6296
vn 0.7044 0.5870 -0.3990
vn 0.8024 0.4380 -0.4054
vn -0.4097 0.8867 -0.2142
vn -0.2808 0.7076 -0.6485
vn -0.4957 0.6288 -0.5991
vn 0.1018 0.5866 -0.8035
vn 0.5144 0.4951 -0.7002
vn 0.6038 0.3423 -0.7199
vn -0.4911 0.3607 -0.7929
vn -0.7436 0.2764 -0.6088
vn -0.1941 0.4697 -0.8612
vn 0.2296 0.3736 -0.8987
vn 0.3066 0.2151 -0.9272
vn -0.1775 0.4232 -0.8885
vn -0.1088 0.2400 -0.9647
vn -0.4481 0.1155 -0.8865
vn -0.0469 0.0756 -0.9960
vn -0.4013 -0.0546 -0.9143
vn -0.2906 -0.6370 0.7139
vn -0.3979 -0.5466 0.7368
vn 0.2108 0.0153 0.9774
vn 0.2336 -0.0149 0.9722
vn 0.1307 -0.0040 0.9914
vn -0.1178 -0.7526 0.6478
vn -0.3409 -0.6508 0.6784
vn -0.6531 -0.4968 0.5716
vn 0.6653 0.4380 0.6047
vn 0.6923 0.3924 0.6056
vn 0.8166 0.4950 0.2968
vn 0.8464 0.4430 0.2954
vn 0.5493 0.5537 0.6259
vn 0.2615 0.8137 0.5191
vn 0.6650 0.6740 0.3217
vn 0.2088 0.9469 0.2446
vn -0.1300 0.8195 -0.5582
vn -0.2461 0.8968 -0.3676
vn -0.2343 0.2188 0.9472
vn -0.9068 -0.1406 0.3974
vn -0.9493 0.2209 0.2236
vn -0.0182 0.7828 0.6220
vn -0.5412 0.8052 -0.2426
vn -0.7942 0.6070 0.0294
vn -0.2157 0.5612 0.7991
vn -0.3979 -0.5465 0.7368
vn -0.2906 -0.6370 0.7140
vn -0.6810 -0.7085 0.1853
vn -0.5415 -0.8407 -0.0062
vn -0.6158 -0.4568 -0.6420
vn -0.3746 -0.9190 -0.1229
vn -0.1178 -0.7526 0.6479
vn -0.4419 -0.5352 -0.7199
vn -0.5473 -0.4868 -0.6808
vn -0.5269 -0.8391 -0.1352
vn -0.3409 -0.6509 0.6784
vn -0.6531 -0.4967 0.5715
vn 0.0222 0.0204 -0.9995
vn 0.0607 0.0550 -0.9966
vn 0.4234 0.2513 -0.8704
vn 0.2036 0.2009 -0.9582
vn -0.7895 -0.4666 -0.3986
vn -0.9068 -0.1406 0.3975
vn -0.9493 0.2208 0.2236
vn -0.1443 0.0959 -0.9849
vn -0.0480 0.3193 -0.9464
vn -0.1299 0.8195 -0.5582
vn -0.7410 -0.0343 -0.6706
vn -0.5412 0.8052 -0.2425
vn -0.4077 0.0879 -0.9089
vn -0.0807 0.0095 0.9967
vn -0.0847 0.0422 0.9955
vn 0.1452 0.1300 0.9808
vn 0.1363 0.1293 0.9822
vn 0.6173 0.2476 0.7468
vn 0.6628 0.2703 0.6983
vn 0.8828 0.3007 0.3609
vn 0.8718 0.2751 0.4054
vn 0.8159 0.2252 0.5325
vn 0.5846 0.2512 0.7715
vn 0.7831 0.3827 0.4901
vn 0.0979 0.1320 0.9864
vn -0.1538 -0.0793 0.9849
vn 0.5968 0.4678 0.6519
vn 0.7924 0.5963 0.1281
vn -0.0552 0.2053 0.9771
vn -0.4572 0.0216 0.8891
vn 0.4020 0.5917 0.6987
vn 0.4583 0.8383 0.2955
vn -0.4754 0.3038 0.8256
vn -0.9136 -0.2601 0.3125
vn -0.9786 0.0358 0.2027
vn 0.7685 0.5077 -0.3895
vn 0.8128 0.1006 -0.5738
vn 0.3960 0.7459 -0.5356
vn 0.0794 0.5336 0.8420
vn -0.4440 0.5589 0.7004
vn -0.8177 0.5738 -0.0469
vn 0.1204 0.9557 0.2685
vn -0.0401 0.8688 -0.4935
vn 0.1805 0.6502 0.7380
vn -0.3630 0.7428 0.5625
vn -0.1540 0.9058 0.3948
vn -0.4493 0.8530 -0.2656
vn -0.7094 -0.6430 -0.2885
vn -0.6496 -0.5194 -0.5552
vn -0.4936 -0.5319 -0.6881
vn -0.7195 -0.6085 -0.3348
vn -0.7126 -0.2285 -0.6633
vn -0.5239 0.1759 -0.8334
vn -0.4493 0.8530 -0.2655
vn -0.1196 -0.0322 -0.9923
vn 0.1838 -0.1174 -0.9759
vn 0.3654 -0.2106 -0.9067
vn 0.5944 -0.2069 -0.7771
vn 0.1097 -0.2635 -0.9584
vn 0.5627 -0.1053 -0.8199
vn -0.5870 -0.4167 -0.6941
vn -0.7909 -0.4478 -0.4170
vn -0.5986 -0.3675 -0.7117
vn 0.0529 -0.1631 -0.9852
vn 0.4369 0.0023 -0.8995
vn 0.0224 -0.1155 -0.9931
vn 0.3955 0.0373 -0.9177
vn -0.2411 0.0895 0.9664
vn -0.3266 0.0200 0.9450
vn -0.0861 0.1053 0.9907
vn -0.0055 0.1534 0.9882
vn -0.1997 0.1878 0.9617
vn 0.5097 0.2065 0.8352
vn 0.5696 0.2912 0.7686
vn 0.0081 0.2057 0.9786
vn 0.9593 0.1602 0.2324
vn 0.9517 0.2563 0.1688
vn 0.9330 -0.0570 -0.3554
vn 0.9072 0.0734 -0.4144
vn 0.9365 -0.0554 0.3464
vn 0.8852 -0.3580 -0.2970
vn 0.4715 0.1089 0.8751
vn 0.8778 -0.2213 0.4247
vn 0.7991 -0.5297 -0.2844
vn 0.8515 -0.4584 -0.2545
vn -0.0205 0.3036 0.9526
vn -0.3183 0.4563 0.8310
vn 0.5355 0.1203 0.8359
vn 0.8967 -0.1170 0.4268
vn 0.9149 -0.2309 -0.3312
vn 0.8738 0.2832 0.3953
vn 0.8970 0.1157 -0.4266
vn 0.7031 0.4471 -0.5530
vn 0.0044 0.5226 0.8526
vn -0.6414 0.6893 0.3369
vn 0.4491 0.3970 0.8004
vn 0.7253 0.6338 0.2688
vn 0.3939 0.7592 -0.5181
vn 0.3226 0.8507 0.4151
vn -0.0247 0.9203 -0.3904
vn -0.3368 0.8889 -0.3105
vn -0.1878 0.8390 0.5107
vn -0.5725 0.7674 -0.2888
vn -0.6500 0.7484 0.1318
vn -0.8308 0.4120 -0.3741
vn 0.9072 0.0734 -0.4143
vn 0.4999 -0.0354 -0.8654
vn 0.5078 -0.1875 -0.8408
vn 0.3448 -0.4433 -0.8274
vn -0.2161 -0.1278 -0.9680
vn -0.1825 -0.1278 -0.9749
vn -0.8129 -0.2314 -0.5345
vn -0.2655 -0.2287 -0.9366
vn -0.8171 -0.2126 -0.5358
vn -0.9496 -0.2632 -0.1704
vn -0.9633 -0.1819 -0.1973
vn -0.8076 -0.1574 -0.5683
vn -0.9537 -0.0979 -0.2845
vn -0.2587 -0.2758 -0.9258
vn -0.1960 -0.2032 -0.9593
vn 0.3617 -0.4364 -0.8238
vn -0.7663 -0.0347 -0.6415
vn -0.9260 0.0256 -0.3766
vn 0.4164 -0.1470 -0.8972
vn 0.7030 0.4471 -0.5530
vn -0.7266 0.2450 -0.6419
vn -0.5608 0.2094 -0.8010
vn -0.0416 0.0344 -0.9985
vn -0.3317 0.3200 -0.8875
vn 0.3939 0.7592 -0.5182
vn -0.0725 0.2775 -0.9580
vn 0.8048 0.3300 -0.4934
vn 0.5737 0.2228 -0.7882
vn 0.4066 0.5255 -0.7473
vn 0.6197 0.6244 -0.4754
vn 0.9108 0.3939 -0.1236
vn 0.1105 0.4020 -0.9089
vn 0.2525 0.0888 -0.9635
vn -0.0727 0.9195 -0.3863
vn 0.0250 0.9648 -0.2616
vn 0.7176 0.6833 -0.1347
vn 0.8751 0.4055 0.2640
vn 0.0698 0.9920 -0.1054
vn -0.2236 0.2727 -0.9358
vn -0.1099 -0.0515 -0.9926
vn 0.6846 0.6940 0.2229
vn 0.7036 0.3623 0.6113
vn 0.0544 0.9968 0.0587
vn 0.5264 0.6542 0.5430
vn 0.4223 0.2711 0.8650
vn -0.0178 0.9785 0.2054
vn 0.2670 0.5701 0.7769
vn 0.0739 0.1458 0.9865
vn -0.1367 0.9400 0.3127
vn -0.0542 0.4546 0.8890
vn -0.2885 0.0055 0.9575
vn -0.2840 0.8870 0.3641
vn -0.4373 0.8277 0.3518
vn -0.5731 0.7710 0.2777
vn -0.6708 0.7257 0.1530
vn -0.3883 0.3253 0.8622
vn -0.6097 -0.1284 0.7821
vn -0.6845 0.2018 0.7006
vn -0.8408 -0.2356 0.4873
vn -0.8976 0.1029 0.4287
vn -0.9467 -0.2998 0.1178
vn -0.7155 0.6986 -0.0032
vn -0.9952 0.0437 0.0880
vn -0.9112 -0.3112 -0.2701
vn -0.7007 0.6936 -0.1670
vn -0.9624 0.0333 -0.2696
vn -0.7397 -0.2680 -0.6173
vn -0.6280 0.7120 -0.3140
vn -0.8043 0.0731 -0.5898
vn -0.4583 -0.1768 -0.8710
vn -0.5088 0.7507 -0.4214
vn -0.5449 0.1572 -0.8237
vn -0.3617 0.8035 -0.4727
vn -0.2085 0.8629 -0.4604
usemtl mat_prop_fruit01_lv3
s 1
f 3/1/1 2/2/2 1/3/3
f 2/2/2 4/4/4 1/3/3
f 2/2/2 5/5/5 4/4/4
f 5/5/5 6/6/6 4/4/4
f 6/6/6 5/5/5 7/7/7
f 5/5/5 8/8/8 7/7/7
f 8/8/8 9/9/9 7/7/7
f 9/9/9 10/10/10 7/7/7
f 10/10/10 9/9/9 11/11/11
f 9/9/9 12/12/12 11/11/11
f 12/12/12 13/13/13 11/11/11
f 13/13/13 14/14/14 11/11/11
f 14/14/14 13/13/13 15/15/15
f 13/13/13 16/16/16 15/15/15
f 16/16/16 17/17/17 15/15/15
f 17/17/17 18/18/18 15/15/15
f 18/18/18 17/17/17 19/19/19
f 17/17/17 20/20/20 19/19/19
f 23/21/3 22/22/4 21/23/21
f 22/22/4 24/24/22 21/23/21
f 21/23/21 24/24/22 25/25/23
f 22/22/4 26/26/6 24/24/22
f 24/24/22 27/27/24 25/25/23
f 25/25/23 27/27/24 28/28/25
f 26/26/6 29/29/26 24/24/22
f 24/24/22 29/29/26 27/27/24
f 27/27/24 30/30/27 28/28/25
f 28/28/25 30/30/27 31/31/28
f 29/29/26 26/26/6 32/32/29
f 26/26/6 33/33/7 32/32/29
f 33/33/7 34/34/10 32/32/29
f 29/29/26 35/35/30 27/27/24
f 27/27/24 35/35/30 30/30/27
f 30/30/27 36/36/31 31/31/28
f 31/31/28 36/36/31 37/37/32
f 29/29/26 32/32/29 38/38/33
f 35/35/30 29/29/26 38/38/33
f 34/34/10 39/39/34 32/32/29
f 32/32/29 39/39/34 38/38/33
f 35/35/30 40/40/35 30/30/27
f 30/30/27 40/40/35 36/36/31
f 36/36/31 41/41/36 37/37/32
f 37/37/32 41/41/36 42/42/37
f 35/35/30 38/38/33 43/43/38
f 40/40/35 35/35/30 43/43/38
f 40/40/35 44/44/39 36/36/31
f 36/36/31 44/44/39 41/41/36
f 41/41/36 45/45/40 42/42/37
f 42/42/37 45/45/40 46/46/41
f 39/39/34 34/34/10 47/47/42
f 34/34/10 48/48/11 47/47/42
f 48/48/11 49/49/14 47/47/42
f 39/39/34 50/50/43 38/38/33
f 38/38/33 50/50/43 43/43/38
f 40/40/35 43/43/38 51/51/44
f 44/44/39 40/40/35 51/51/44
f 44/44/39 52/52/45 41/41/36
f 41/41/36 52/52/45 45/45/40
f 45/45/40 53/53/46 46/46/41
f 46/46/41 53/53/46 54/54/47
f 39/39/34 47/47/42 55/55/48
f 50/50/43 39/39/34 55/55/48
f 50/50/43 56/56/49 43/43/38
f 43/43/38 56/56/49 51/51/44
f 44/44/39 51/51/44 57/57/50
f 52/52/45 44/44/39 57/57/50
f 52/52/45 58/58/51 45/45/40
f 45/45/40 58/58/51 53/53/46
f 53/53/46 59/59/52 54/54/47
f 54/54/47 59/59/52 60/60/53
f 47/47/42 61/61/54 55/55/48
f 49/49/14 61/61/54 47/47/42
f 56/56/49 62/62/55 51/51/44
f 51/51/44 62/62/55 57/57/50
f 52/52/45 57/57/50 63/63/56
f 58/58/51 52/52/45 63/63/56
f 58/58/51 64/64/57 53/53/46
f 53/53/46 64/64/57 59/59/52
f 59/59/52 65/65/58 60/60/53
f 60/60/53 65/65/58 66/66/59
f 61/61/54 49/49/14 67/67/60
f 49/49/14 68/68/61 67/67/60
f 68/68/61 69/69/18 67/67/60
f 57/57/50 70/70/62 63/63/56
f 62/62/55 70/70/62 57/57/50
f 58/58/51 63/63/56 71/71/63
f 64/64/57 58/58/51 71/71/63
f 64/64/57 72/72/64 59/59/52
f 59/59/52 72/72/64 65/65/58
f 70/70/62 73/73/65 63/63/56
f 63/63/56 73/73/65 71/71/63
f 64/64/57 71/71/63 74/74/66
f 72/72/64 64/64/57 74/74/66
f 73/73/65 75/75/67 71/71/63
f 71/71/63 75/75/67 74/74/66
f 69/69/18 76/76/68 67/67/60
f 76/76/68 69/69/18 77/77/69
f 69/69/18 78/78/70 77/77/69
f 76/76/68 77/77/69 79/79/71
f 67/67/60 76/76/68 80/80/72
f 61/61/54 67/67/60 80/80/72
f 81/81/73 76/76/68 79/79/71
f 76/76/68 81/81/73 80/80/72
f 81/81/73 79/79/71 82/82/74
f 83/83/75 61/61/54 80/80/72
f 61/61/54 83/83/75 55/55/48
f 84/84/76 81/81/73 82/82/74
f 84/84/76 82/82/74 85/85/77
f 80/80/72 81/81/73 86/86/78
f 83/83/75 80/80/72 86/86/78
f 81/81/73 84/84/76 86/86/78
f 55/55/48 83/83/75 87/87/79
f 50/50/43 55/55/48 87/87/79
f 56/56/49 50/50/43 87/87/79
f 88/88/80 84/84/76 85/85/77
f 88/88/80 85/85/77 89/89/81
f 90/90/82 83/83/75 86/86/78
f 83/83/75 90/90/82 87/87/79
f 56/56/49 87/87/79 91/91/83
f 87/87/79 90/90/82 91/91/83
f 62/62/55 56/56/49 91/91/83
f 86/86/78 84/84/76 92/92/84
f 90/90/82 86/86/78 92/92/84
f 84/84/76 88/88/80 92/92/84
f 93/93/85 88/88/80 89/89/81
f 93/93/85 89/89/81 94/94/86
f 62/62/55 91/91/83 95/95/87
f 70/70/62 62/62/55 95/95/87
f 90/90/82 96/96/88 91/91/83
f 96/96/88 90/90/82 92/92/84
f 91/91/83 96/96/88 95/95/87
f 92/92/84 88/88/80 97/97/89
f 96/96/88 92/92/84 97/97/89
f 88/88/80 93/93/85 97/97/89
f 98/98/90 93/93/85 94/94/86
f 98/98/90 94/94/86 99/99/91
f 70/70/62 95/95/87 100/100/92
f 73/73/65 70/70/62 100/100/92
f 96/96/88 101/101/93 95/95/87
f 101/101/93 96/96/88 97/97/89
f 95/95/87 101/101/93 100/100/92
f 97/97/89 93/93/85 102/102/94
f 101/101/93 97/97/89 102/102/94
f 93/93/85 98/98/90 102/102/94
f 103/103/95 98/98/90 99/99/91
f 103/103/95 99/99/91 104/104/96
f 73/73/65 100/100/92 105/105/97
f 75/75/67 73/73/65 105/105/97
f 101/101/93 106/106/98 100/100/92
f 106/106/98 101/101/93 102/102/94
f 100/100/92 106/106/98 105/105/97
f 102/102/94 98/98/90 107/107/99
f 106/106/98 102/102/94 107/107/99
f 98/98/90 103/103/95 107/107/99
f 108/108/100 103/103/95 104/104/96
f 108/108/100 104/104/96 109/109/101
f 106/106/98 110/110/102 105/105/97
f 110/110/102 106/106/98 107/107/99
f 107/107/99 103/103/95 111/111/103
f 103/103/95 108/108/100 111/111/103
f 110/110/102 107/107/99 111/111/103
f 75/75/67 105/105/97 112/112/104
f 105/105/97 110/110/102 112/112/104
f 113/113/105 108/108/100 109/109/101
f 113/113/105 109/109/101 114/114/106
f 115/115/107 110/110/102 111/111/103
f 110/110/102 115/115/107 112/112/104
f 111/111/103 108/108/100 116/116/108
f 108/108/100 113/113/105 116/116/108
f 115/115/107 111/111/103 116/116/108
f 117/117/109 75/75/67 112/112/104
f 75/75/67 117/117/109 74/74/66
f 118/118/110 113/113/105 114/114/106
f 118/118/110 114/114/106 119/119/111
f 116/116/108 113/113/105 120/120/112
f 113/113/105 118/118/110 120/120/112
f 121/121/113 115/115/107 116/116/108
f 121/121/113 116/116/108 120/120/112
f 112/112/104 115/115/107 122/122/114
f 117/117/109 112/112/104 122/122/114
f 115/115/107 121/121/113 122/122/114
f 74/74/66 117/117/109 123/123/115
f 72/72/64 74/74/66 123/123/115
f 124/124/116 118/118/110 119/119/111
f 124/124/116 119/119/111 125/125/117
f 120/120/112 118/118/110 126/126/118
f 118/118/110 124/124/116 126/126/118
f 127/127/119 117/117/109 122/122/114
f 117/117/109 127/127/119 123/123/115
f 128/128/120 121/121/113 120/120/112
f 128/128/120 120/120/112 126/126/118
f 122/122/114 121/121/113 129/129/121
f 127/127/119 122/122/114 129/129/121
f 121/121/113 128/128/120 129/129/121
f 130/130/122 72/72/64 123/123/115
f 72/72/64 130/130/122 65/65/58
f 131/131/123 124/124/116 125/125/117
f 131/131/123 125/125/117 132/132/124
f 126/126/118 124/124/116 133/133/125
f 124/124/116 131/131/123 133/133/125
f 123/123/115 127/127/119 134/134/126
f 130/130/122 123/123/115 134/134/126
f 135/135/127 127/127/119 129/129/121
f 127/127/119 135/135/127 134/134/126
f 136/136/128 128/128/120 126/126/118
f 136/136/128 126/126/118 133/133/125
f 129/129/121 128/128/120 137/137/129
f 135/135/127 129/129/121 137/137/129
f 128/128/120 136/136/128 137/137/129
f 138/138/130 131/131/123 132/132/124
f 138/138/130 132/132/124 139/139/131
f 133/133/125 131/131/123 140/140/132
f 131/131/123 138/138/130 140/140/132
f 141/141/133 136/136/128 133/133/125
f 141/141/133 133/133/125 140/140/132
f 137/137/129 136/136/128 142/142/134
f 136/136/128 141/141/133 142/142/134
f 143/143/135 135/135/127 137/137/129
f 143/143/135 137/137/129 142/142/134
f 144/144/136 138/138/130 139/139/131
f 144/144/136 139/139/131 145/145/20
f 146/146/17 144/144/136 145/145/20
f 144/144/136 146/146/17 147/147/16
f 138/138/130 144/144/136 148/148/137
f 140/140/132 138/138/130 148/148/137
f 148/148/137 144/144/136 147/147/16
f 149/149/138 141/141/133 140/140/132
f 149/149/138 140/140/132 148/148/137
f 150/150/139 148/148/137 147/147/16
f 150/150/139 149/149/138 148/148/137
f 151/151/13 150/150/139 147/147/16
f 150/150/139 151/151/13 152/152/140
f 142/142/134 141/141/133 153/153/141
f 141/141/133 149/149/138 153/153/141
f 149/149/138 150/150/139 154/154/142
f 154/154/142 150/150/139 152/152/140
f 153/153/141 149/149/138 154/154/142
f 155/155/143 142/142/134 153/153/141
f 155/155/143 143/143/135 142/142/134
f 156/156/144 154/154/142 152/152/140
f 157/157/9 156/156/144 152/152/140
f 156/156/144 157/157/9 158/158/8
f 159/159/145 153/153/141 154/154/142
f 156/156/144 159/159/145 154/154/142
f 159/159/145 155/155/143 153/153/141
f 160/160/146 156/156/144 158/158/8
f 159/159/145 156/156/144 160/160/146
f 155/155/143 159/159/145 161/161/147
f 161/161/147 159/159/145 160/160/146
f 143/143/135 155/155/143 162/162/148
f 162/162/148 155/155/143 161/161/147
f 163/163/149 160/160/146 158/158/8
f 164/164/5 163/163/149 158/158/8
f 163/163/149 164/164/5 165/165/2
f 166/166/150 161/161/147 160/160/146
f 163/163/149 166/166/150 160/160/146
f 167/167/151 163/163/149 165/165/2
f 166/166/150 163/163/149 167/167/151
f 167/167/151 165/165/2 168/168/152
f 169/169/153 167/167/151 168/168/152
f 170/170/154 167/167/151 169/169/153
f 170/170/154 166/166/150 167/167/151
f 171/171/155 170/170/154 169/169/153
f 166/166/150 172/172/156 161/161/147
f 172/172/156 166/166/150 170/170/154
f 172/172/156 162/162/148 161/161/147
f 173/173/157 170/170/154 171/171/155
f 173/173/157 172/172/156 170/170/154
f 174/174/158 173/173/157 171/171/155
f 172/172/156 175/175/159 162/162/148
f 175/175/159 172/172/156 173/173/157
f 176/176/160 173/173/157 174/174/158
f 176/176/160 175/175/159 173/173/157
f 177/177/161 176/176/160 174/174/158
f 175/175/159 178/178/162 162/162/148
f 178/178/162 143/143/135 162/162/148
f 135/135/127 143/143/135 178/178/162
f 134/134/126 135/135/127 178/178/162
f 175/175/159 179/179/163 178/178/162
f 179/179/163 134/134/126 178/178/162
f 179/179/163 175/175/159 176/176/160
f 179/179/163 130/130/122 134/134/126
f 180/180/164 176/176/160 177/177/161
f 180/180/164 179/179/163 176/176/160
f 130/130/122 179/179/163 180/180/164
f 66/66/59 180/180/164 177/177/161
f 65/65/58 130/130/122 180/180/164
f 65/65/58 180/180/164 66/66/59
f 183/181/19 182/182/20 181/183/165
f 184/184/166 181/183/165 182/182/20
f 185/185/131 184/184/166 182/182/20
f 181/183/165 184/184/166 186/186/167
f 185/185/131 187/187/124 184/184/166
f 184/184/166 188/188/168 186/186/167
f 189/189/169 186/186/167 188/188/168
f 190/190/170 184/184/166 187/187/124
f 184/184/166 190/190/170 188/188/168
f 191/191/117 190/190/170 187/187/124
f 191/191/117 192/192/111 190/190/170
f 193/193/171 189/189/169 188/188/168
f 189/189/169 193/193/171 194/194/172
f 195/195/173 190/190/170 192/192/111
f 196/196/106 195/195/173 192/192/111
f 196/196/106 197/197/101 195/195/173
f 190/190/170 198/198/174 188/188/168
f 193/193/171 188/188/168 198/198/174
f 190/190/170 195/195/173 198/198/174
f 199/199/175 195/195/173 197/197/101
f 200/200/96 199/199/175 197/197/101
f 200/200/96 201/201/176 199/199/175
f 195/195/173 202/202/177 198/198/174
f 195/195/173 199/199/175 202/202/177
f 203/203/178 199/199/175 201/201/176
f 204/204/179 203/203/178 201/201/176
f 204/204/179 205/205/81 203/203/178
f 206/206/180 193/193/171 198/198/174
f 206/206/180 198/198/174 202/202/177
f 199/199/175 207/207/181 202/202/177
f 199/199/175 203/203/178 207/207/181
f 208/208/182 203/203/178 205/205/81
f 209/209/183 208/208/182 205/205/81
f 209/209/183 210/210/74 208/208/182
f 211/211/184 206/206/180 202/202/177
f 211/211/184 202/202/177 207/207/181
f 203/203/178 212/212/185 207/207/181
f 203/203/178 208/208/182 212/212/185
f 213/213/186 208/208/182 210/210/74
f 214/214/71 213/213/186 210/210/74
f 214/214/71 215/215/69 213/213/186
f 216/216/187 211/211/184 207/207/181
f 216/216/187 207/207/181 212/212/185
f 208/208/182 217/217/188 212/212/185
f 208/208/182 213/213/186 217/217/188
f 218/218/189 213/213/186 215/215/69
f 219/219/19 218/218/189 215/215/69
f 213/213/186 218/218/189 220/220/190
f 213/213/186 220/220/190 217/217/188
f 218/218/189 221/221/191 220/220/190
f 222/222/192 212/212/185 217/217/188
f 222/222/192 216/216/187 212/212/185
f 223/223/193 220/220/190 221/221/191
f 224/224/169 223/223/193 221/221/191
f 224/224/169 225/225/172 223/223/193
f 226/226/194 217/217/188 220/220/190
f 223/223/193 226/226/194 220/220/190
f 226/226/194 222/222/192 217/217/188
f 225/225/172 227/227/195 223/223/193
f 223/223/193 227/227/195 226/226/194
f 225/225/172 228/228/196 227/227/195
f 227/227/195 229/229/197 226/226/194
f 226/226/194 229/229/197 222/222/192
f 227/227/195 228/228/196 229/229/197
f 229/229/197 230/230/198 222/222/192
f 222/222/192 230/230/198 216/216/187
f 229/229/197 228/228/196 230/230/198
f 230/230/198 231/231/199 216/216/187
f 230/230/198 228/228/196 231/231/199
f 216/216/187 231/231/199 211/211/184
f 231/231/199 232/232/200 211/211/184
f 231/231/199 228/228/196 232/232/200
f 211/211/184 232/232/200 206/206/180
f 232/232/200 233/233/201 206/206/180
f 232/232/200 228/228/196 233/233/201
f 206/206/180 233/233/201 193/193/171
f 233/233/201 228/228/196 234/234/202
f 233/233/201 234/234/202 193/193/171
f 194/194/172 234/234/202 228/228/196
f 193/193/171 234/234/202 194/194/172
f 237/235/203 236/236/3 235/237/21
f 238/238/204 237/235/203 235/237/21
f 238/238/204 235/237/21 239/239/205
f 237/235/203 238/238/204 240/240/206
f 241/241/207 237/235/203 240/240/206
f 242/242/208 238/238/204 239/239/205
f 242/242/208 239/239/205 243/243/25
f 240/240/206 238/238/204 244/244/209
f 238/238/204 242/242/208 244/244/209
f 241/241/207 240/240/206 245/245/210
f 246/246/211 241/241/207 245/245/210
f 247/247/212 242/242/208 243/243/25
f 247/247/212 243/243/25 248/248/213
f 244/244/209 242/242/208 249/249/214
f 242/242/208 247/247/212 249/249/214
f 240/240/206 244/244/209 250/250/215
f 245/245/210 240/240/206 250/250/215
f 246/246/211 245/245/210 251/251/216
f 252/252/217 246/246/211 251/251/216
f 253/253/218 247/247/212 248/248/213
f 253/253/218 248/248/213 254/254/219
f 249/249/214 247/247/212 255/255/220
f 247/247/212 253/253/218 255/255/220
f 244/244/209 249/249/214 256/256/221
f 250/250/215 244/244/209 256/256/221
f 245/245/210 250/250/215 257/257/222
f 251/251/216 245/245/210 257/257/222
f 252/252/217 251/251/216 258/258/223
f 259/259/224 252/252/217 258/258/223
f 260/260/225 253/253/218 254/254/219
f 260/260/225 254/254/219 261/261/226
f 258/258/223 262/262/227 259/259/224
f 262/262/227 263/263/228 259/259/224
f 264/264/229 262/262/227 258/258/223
f 258/258/223 251/251/216 265/265/230
f 265/265/230 264/264/229 258/258/223
f 251/251/216 257/257/222 265/265/230
f 266/266/231 264/264/229 265/265/230
f 267/267/232 266/266/231 265/265/230
f 265/265/230 257/257/222 267/267/232
f 268/268/233 266/266/231 267/267/232
f 257/257/222 269/269/234 267/267/232
f 257/257/222 250/250/215 269/269/234
f 250/250/215 256/256/221 269/269/234
f 270/270/235 268/268/233 267/267/232
f 267/267/232 269/269/234 270/270/235
f 271/271/236 268/268/233 270/270/235
f 269/269/234 256/256/221 272/272/237
f 269/269/234 272/272/237 270/270/235
f 273/273/238 271/271/236 270/270/235
f 270/270/235 272/272/237 273/273/238
f 274/274/239 271/271/236 273/273/238
f 256/256/221 275/275/240 272/272/237
f 256/256/221 249/249/214 275/275/240
f 249/249/214 255/255/220 275/275/240
f 276/276/241 274/274/239 273/273/238
f 277/277/242 274/274/239 276/276/241
f 272/272/237 278/278/243 273/273/238
f 272/272/237 275/275/240 278/278/243
f 273/273/238 278/278/243 276/276/241
f 275/275/240 255/255/220 279/279/244
f 275/275/240 279/279/244 278/278/243
f 280/280/245 277/277/242 276/276/241
f 281/281/246 277/277/242 280/280/245
f 278/278/243 282/282/247 276/276/241
f 278/278/243 279/279/244 282/282/247
f 276/276/241 282/282/247 280/280/245
f 255/255/220 283/283/248 279/279/244
f 255/255/220 253/253/218 283/283/248
f 253/253/218 260/260/225 283/283/248
f 284/284/249 281/281/246 280/280/245
f 285/285/250 281/281/246 284/284/249
f 279/279/244 286/286/251 282/282/247
f 279/279/244 283/283/248 286/286/251
f 282/282/247 287/287/252 280/280/245
f 280/280/245 287/287/252 284/284/249
f 282/282/247 286/286/251 287/287/252
f 283/283/248 260/260/225 288/288/253
f 283/283/248 288/288/253 286/286/251
f 289/289/254 285/285/250 284/284/249
f 290/290/255 285/285/250 289/289/254
f 286/286/251 291/291/256 287/287/252
f 286/286/251 288/288/253 291/291/256
f 287/287/252 292/292/257 284/284/249
f 284/284/249 292/292/257 289/289/254
f 287/287/252 291/291/256 292/292/257
f 260/260/225 293/293/258 288/288/253
f 293/293/258 260/260/225 261/261/226
f 293/293/258 261/261/226 294/294/41
f 295/295/259 290/290/255 289/289/254
f 296/296/260 290/290/255 295/295/259
f 292/292/257 297/297/261 289/289/254
f 289/289/254 297/297/261 295/295/259
f 291/291/256 298/298/262 292/292/257
f 292/292/257 298/298/262 297/297/261
f 288/288/253 299/299/263 291/291/256
f 288/288/253 293/293/258 299/299/263
f 291/291/256 299/299/263 298/298/262
f 300/300/264 293/293/258 294/294/41
f 293/293/258 300/300/264 299/299/263
f 300/300/264 294/294/41 301/301/265
f 302/302/266 296/296/260 295/295/259
f 303/303/267 296/296/260 302/302/266
f 297/297/261 304/304/268 295/295/259
f 295/295/259 304/304/268 302/302/266
f 298/298/262 305/305/269 297/297/261
f 297/297/261 305/305/269 304/304/268
f 299/299/263 306/306/270 298/298/262
f 299/299/263 300/300/264 306/306/270
f 298/298/262 306/306/270 305/305/269
f 307/307/271 300/300/264 301/301/265
f 300/300/264 307/307/271 306/306/270
f 307/307/271 301/301/265 308/308/53
f 309/309/272 303/303/267 302/302/266
f 310/310/273 303/303/267 309/309/272
f 304/304/268 311/311/274 302/302/266
f 302/302/266 311/311/274 309/309/272
f 305/305/269 312/312/275 304/304/268
f 304/304/268 312/312/275 311/311/274
f 306/306/270 313/313/276 305/305/269
f 306/306/270 307/307/271 313/313/276
f 305/305/269 313/313/276 312/312/275
f 314/314/277 307/307/271 308/308/53
f 307/307/271 314/314/277 313/313/276
f 314/314/277 308/308/53 315/315/278
f 316/316/279 310/310/273 309/309/272
f 317/317/280 310/310/273 316/316/279
f 311/311/274 318/318/281 309/309/272
f 309/309/272 318/318/281 316/316/279
f 312/312/275 319/319/282 311/311/274
f 311/311/274 319/319/282 318/318/281
f 313/313/276 320/320/283 312/312/275
f 313/313/276 314/314/277 320/320/283
f 312/312/275 320/320/283 319/319/282
f 321/321/284 314/314/277 315/315/278
f 314/314/277 321/321/284 320/320/283
f 321/321/284 315/315/278 322/322/161
f 323/323/285 317/317/280 316/316/279
f 324/324/286 317/317/280 323/323/285
f 318/318/281 325/325/287 316/316/279
f 316/316/279 325/325/287 323/323/285
f 319/319/282 326/326/288 318/318/281
f 318/318/281 326/326/288 325/325/287
f 320/320/283 327/327/289 319/319/282
f 320/320/283 321/321/284 327/327/289
f 319/319/282 327/327/289 326/326/288
f 328/328/290 321/321/284 322/322/161
f 321/321/284 328/328/290 327/327/289
f 328/328/290 322/322/161 329/329/158
f 330/330/291 324/324/286 323/323/285
f 331/331/228 324/324/286 330/330/291
f 332/332/224 331/331/228 330/330/291
f 325/325/287 333/333/292 323/323/285
f 323/323/285 333/333/292 330/330/291
f 330/330/291 334/334/293 332/332/224
f 333/333/292 334/334/293 330/330/291
f 334/334/293 335/335/217 332/332/224
f 326/326/288 336/336/294 325/325/287
f 325/325/287 336/336/294 333/333/292
f 327/327/289 337/337/295 326/326/288
f 327/327/289 328/328/290 337/337/295
f 326/326/288 337/337/295 336/336/294
f 338/338/296 328/328/290 329/329/158
f 328/328/290 338/338/296 337/337/295
f 338/338/296 329/329/158 339/339/155
f 334/334/293 340/340/297 335/335/217
f 340/340/297 341/341/298 335/335/217
f 333/333/292 342/342/299 334/334/293
f 336/336/294 342/342/299 333/333/292
f 342/342/299 340/340/297 334/334/293
f 337/337/295 343/343/300 336/336/294
f 337/337/295 338/338/296 343/343/300
f 336/336/294 343/343/300 342/342/299
f 344/344/301 338/338/296 339/339/155
f 338/338/296 344/344/301 343/343/300
f 344/344/301 339/339/155 345/345/302
f 343/343/300 346/346/303 342/342/299
f 342/342/299 346/346/303 340/340/297
f 343/343/300 344/344/301 346/346/303
f 340/340/297 347/347/304 341/341/298
f 346/346/303 347/347/304 340/340/297
f 347/347/304 348/348/207 341/341/298
f 349/349/305 344/344/301 345/345/302
f 344/344/301 349/349/305 346/346/303
f 346/346/303 349/349/305 347/347/304
f 349/349/305 345/345/302 350/350/152
f 347/347/304 351/351/306 348/348/207
f 349/349/305 351/351/306 347/347/304
f 351/351/306 349/349/305 350/350/152
f 351/351/306 352/352/203 348/348/207
f 351/351/306 350/350/152 353/353/3
f 352/352/203 351/351/306 353/353/3
f 356/354/307 355/355/308 354/356/309
f 357/357/310 356/354/307 354/356/309
f 357/357/310 358/358/311 356/354/307
f 356/354/307 358/358/311 359/359/312
f 360/360/313 359/359/312 358/358/311
f 360/360/313 358/358/311 361/361/314
f 357/357/310 354/356/309 362/362/315
f 362/362/315 358/358/311 357/357/310
f 354/356/309 363/363/316 362/362/315
f 362/362/315 363/363/316 364/364/317
f 363/363/316 365/365/318 364/364/317
f 366/366/319 362/362/315 364/364/317
f 362/362/315 366/366/319 358/358/311
f 358/358/311 366/366/319 367/367/320
f 368/368/321 366/366/319 364/364/317
f 367/367/320 366/366/319 368/368/321
f 369/369/322 367/367/320 368/368/321
f 369/369/322 370/370/323 367/367/320
f 370/370/323 371/371/324 367/367/320
f 358/358/311 372/372/325 361/361/314
f 372/372/325 358/358/311 367/367/320
f 373/373/326 361/361/314 372/372/325
f 373/373/326 372/372/325 374/374/327
f 371/371/324 375/375/328 367/367/320
f 367/367/320 375/375/328 372/372/325
f 376/376/329 375/375/328 371/371/324
f 375/375/328 376/376/329 377/377/330
f 372/372/325 378/378/331 374/374/327
f 374/374/327 378/378/331 377/377/330
f 375/375/328 378/378/331 372/372/325
f 378/378/331 375/375/328 377/377/330
f 381/379/332 380/380/333 379/381/334
f 380/380/333 382/382/335 379/381/334
f 379/381/334 382/382/335 383/383/336
f 384/384/337 382/382/335 380/380/333
f 385/385/338 384/384/337 380/380/333
f 384/384/337 386/386/339 382/382/335
f 382/382/335 386/386/339 387/387/340
f 382/382/335 387/387/340 383/383/336
f 384/384/337 385/385/338 388/388/341
f 388/388/341 386/386/339 384/384/337
f 385/385/338 389/389/342 388/388/341
f 389/389/342 390/390/343 388/388/341
f 383/383/336 387/387/340 391/391/344
f 387/387/340 386/386/339 391/391/344
f 392/392/345 383/383/336 391/391/344
f 393/393/346 392/392/345 391/391/344
f 394/394/347 393/393/346 391/391/344
f 388/388/341 390/390/343 395/395/348
f 386/386/339 388/388/341 395/395/348
f 396/396/349 395/395/348 390/390/343
f 395/395/348 396/396/349 397/397/350
f 394/394/347 391/391/344 398/398/351
f 391/391/344 386/386/339 398/398/351
f 399/399/352 394/394/347 398/398/351
f 400/400/353 399/399/352 398/398/351
f 401/401/354 395/395/348 397/397/350
f 401/401/354 386/386/339 395/395/348
f 401/401/354 397/397/350 402/402/330
f 402/402/330 403/403/355 401/401/354
f 404/404/356 400/400/353 398/398/351
f 386/386/339 404/404/356 398/398/351
f 401/401/354 404/404/356 386/386/339
f 401/401/354 403/403/355 404/404/356
f 400/400/353 404/404/356 405/405/324
f 403/403/355 405/405/324 404/404/356
f 408/406/357 407/407/358 406/408/359
f 409/409/360 408/406/357 406/408/359
f 409/409/360 406/408/359 410/410/361
f 406/408/359 411/411/362 410/410/361
f 410/410/361 411/411/362 412/412/363
f 413/413/364 410/410/361 412/412/363
f 410/410/361 413/413/364 414/414/365
f 415/415/366 410/410/361 414/414/365
f 415/415/366 409/409/360 410/410/361
f 415/415/366 414/414/365 416/416/367
f 417/417/368 408/406/357 409/409/360
f 409/409/360 415/415/366 417/417/368
f 418/418/369 408/406/357 417/417/368
f 419/419/370 415/415/366 416/416/367
f 415/415/366 419/419/370 417/417/368
f 416/416/367 420/420/371 419/419/370
f 421/421/372 418/418/369 417/417/368
f 418/418/369 421/421/372 422/422/373
f 419/419/370 423/423/374 417/417/368
f 423/423/374 421/421/372 417/417/368
f 419/419/370 420/420/371 424/424/375
f 424/424/375 423/423/374 419/419/370
f 422/422/373 421/421/372 425/425/376
f 426/426/377 422/422/373 425/425/376
f 427/427/378 426/426/377 425/425/376
f 424/424/375 420/420/371 428/428/379
f 428/428/379 420/420/371 429/429/380
f 428/428/379 430/430/381 424/424/375
f 421/421/372 423/423/374 431/431/382
f 425/425/376 421/421/372 431/431/382
f 427/427/378 425/425/376 432/432/383
f 425/425/376 431/431/382 432/432/383
f 433/433/384 427/427/378 432/432/383
f 430/430/381 434/434/385 424/424/375
f 430/430/381 435/435/386 434/434/385
f 423/423/374 424/424/375 436/436/387
f 423/423/374 436/436/387 431/431/382
f 424/424/375 434/434/385 436/436/387
f 431/431/382 437/437/388 432/432/383
f 437/437/388 433/433/384 432/432/383
f 431/431/382 436/436/387 437/437/388
f 438/438/389 434/434/385 435/435/386
f 434/434/385 438/438/389 436/436/387
f 436/436/387 438/438/389 437/437/388
f 433/433/384 437/437/388 438/438/389
f 439/439/390 438/438/389 435/435/386
f 439/439/390 433/433/384 438/438/389
f 442/440/377 441/441/378 440/442/391
f 441/441/378 443/443/392 440/442/391
f 444/444/393 440/442/391 443/443/392
f 445/445/394 440/442/391 444/444/393
f 446/446/395 443/443/392 441/441/378
f 447/447/384 446/446/395 441/441/378
f 448/448/396 446/446/395 447/447/384
f 449/449/397 448/448/396 447/447/384
f 448/448/396 449/449/397 450/450/386
f 448/448/396 451/451/398 446/446/395
f 451/451/398 448/448/396 450/450/386
f 443/443/392 446/446/395 451/451/398
f 450/450/386 452/452/381 451/451/398
f 452/452/381 453/453/399 451/451/398
f 453/453/399 443/443/392 451/451/398
f 454/454/379 453/453/399 452/452/381
f 453/453/399 455/455/400 443/443/392
f 453/453/399 454/454/379 455/455/400
f 443/443/392 455/455/400 444/444/393
f 454/454/379 456/456/380 455/455/400
f 456/456/380 457/457/401 455/455/400
f 457/457/401 458/458/402 455/455/400
f 455/455/400 458/458/402 444/444/393
f 458/458/402 457/457/401 459/459/403
f 444/444/393 458/458/402 460/460/404
f 460/460/404 445/445/394 444/444/393
f 445/445/394 460/460/404 461/461/405
f 460/460/404 462/462/406 461/461/405
f 463/463/407 458/458/402 459/459/403
f 458/458/402 463/463/407 460/460/404
f 462/462/406 460/460/404 463/463/407
f 464/464/408 463/463/407 459/459/403
f 465/465/409 462/462/406 463/463/407
f 463/463/407 464/464/408 465/465/409
f 464/464/408 466/466/410 465/465/409
f 469/467/411 468/468/412 467/469/413
f 470/470/414 469/467/411 467/469/413
f 471/471/415 469/467/411 470/470/414
f 470/470/414 467/469/413 472/472/416
f 467/469/413 473/473/417 472/472/416
f 474/474/418 471/471/415 470/470/414
f 474/474/418 470/470/414 472/472/416
f 472/472/416 473/473/417 475/475/419
f 473/473/417 476/476/420 475/475/419
f 475/475/419 476/476/420 477/477/421
f 476/476/420 478/478/422 477/477/421
f 479/479/423 475/475/419 477/477/421
f 475/475/419 479/479/423 472/472/416
f 480/480/424 479/479/423 477/477/421
f 481/481/425 472/472/416 479/479/423
f 481/481/425 474/474/418 472/472/416
f 479/479/423 480/480/424 482/482/426
f 482/482/426 481/481/425 479/479/423
f 480/480/424 483/483/427 482/482/426
f 483/483/427 484/484/428 482/482/426
f 471/471/415 474/474/418 485/485/429
f 486/486/430 471/471/415 485/485/429
f 474/474/418 481/481/425 487/487/431
f 487/487/431 481/481/425 482/482/426
f 485/485/429 474/474/418 487/487/431
f 484/484/428 488/488/432 482/482/426
f 482/482/426 488/488/432 487/487/431
f 484/484/428 489/489/433 488/488/432
f 490/490/434 488/488/432 489/489/433
f 488/488/432 490/490/434 487/487/431
f 491/491/435 490/490/434 489/489/433
f 490/490/434 491/491/435 492/492/436
f 485/485/429 493/493/437 486/486/430
f 486/486/430 493/493/437 494/494/438
f 495/495/439 485/485/429 487/487/431
f 487/487/431 490/490/434 495/495/439
f 493/493/437 485/485/429 495/495/439
f 496/496/440 490/490/434 492/492/436
f 490/490/434 496/496/440 495/495/439
f 492/492/436 497/497/441 496/496/440
f 496/496/440 497/497/441 498/498/442
f 496/496/440 498/498/442 495/495/439
f 497/497/441 499/499/443 498/498/442
f 499/499/443 500/500/444 498/498/442
f 493/493/437 495/495/439 501/501/445
f 495/495/439 498/498/442 501/501/445
f 498/498/442 500/500/444 501/501/445
f 494/494/438 493/493/437 501/501/445
f 502/502/446 501/501/445 500/500/444
f 494/494/438 501/501/445 503/503/447
f 502/502/446 503/503/447 501/501/445
f 504/504/448 494/494/438 503/503/447
f 502/502/446 504/504/448 503/503/447
f 507/505/449 506/506/450 505/507/421
f 506/506/450 508/508/451 505/507/421
f 505/507/421 508/508/451 509/509/424
f 508/508/451 510/510/452 509/509/424
f 509/509/424 510/510/452 511/511/427
f 508/508/451 506/506/450 512/512/453
f 511/511/427 510/510/452 513/513/428
f 514/514/454 508/508/451 512/512/453
f 514/514/454 512/512/453 515/515/455
f 514/514/454 516/516/456 508/508/451
f 510/510/452 508/508/451 516/516/456
f 517/517/457 514/514/454 515/515/455
f 514/514/454 517/517/457 516/516/456
f 517/517/457 515/515/455 518/518/458
f 519/519/459 517/517/457 518/518/458
f 520/520/460 517/517/457 519/519/459
f 517/517/457 520/520/460 516/516/456
f 521/521/461 520/520/460 519/519/459
f 522/522/462 516/516/456 520/520/460
f 516/516/456 522/522/462 510/510/452
f 510/510/452 522/522/462 523/523/463
f 510/510/452 524/524/464 513/513/428
f 524/524/464 510/510/452 523/523/463
f 513/513/428 524/524/464 525/525/433
f 526/526/465 520/520/460 521/521/461
f 526/526/465 522/522/462 520/520/460
f 522/522/462 526/526/465 523/523/463
f 527/527/466 526/526/465 521/521/461
f 524/524/464 528/528/467 525/525/433
f 524/524/464 523/523/463 528/528/467
f 529/529/435 525/525/433 528/528/467
f 530/530/468 529/529/435 528/528/467
f 531/531/469 526/526/465 527/527/466
f 526/526/465 531/531/469 523/523/463
f 532/532/448 531/531/469 527/527/466
f 532/532/448 533/533/446 531/531/469
f 531/531/469 533/533/446 534/534/470
f 523/523/463 531/531/469 534/534/470
f 534/534/470 533/533/446 535/535/444
f 523/523/463 536/536/471 528/528/467
f 536/536/471 530/530/468 528/528/467
f 536/536/471 523/523/463 534/534/470
f 537/537/472 534/534/470 535/535/444
f 534/534/470 537/537/472 536/536/471
f 535/535/444 538/538/443 537/537/472
f 537/537/472 538/538/443 539/539/473
f 540/540/474 539/539/473 530/530/468
f 536/536/471 540/540/474 530/530/468
f 540/540/474 537/537/472 539/539/473
f 537/537/472 540/540/474 536/536/471
f 543/541/475 542/542/476 541/543/477
f 544/544/478 543/541/475 541/543/477
f 545/545/479 543/541/475 544/544/478
f 541/543/477 542/542/476 546/546/480
f 542/542/476 547/547/481 546/546/480
f 548/548/482 541/543/477 546/546/480
f 548/548/482 549/549/483 541/543/477
f 549/549/483 544/544/478 541/543/477
f 550/550/484 545/545/479 544/544/478
f 551/551/485 545/545/479 550/550/484
f 549/549/483 552/552/486 544/544/478
f 549/549/483 548/548/482 552/552/486
f 552/552/486 550/550/484 544/544/478
f 546/546/480 547/547/481 553/553/487
f 547/547/481 554/554/488 553/553/487
f 555/555/489 551/551/485 550/550/484
f 556/556/490 551/551/485 555/555/489
f 552/552/486 557/557/491 550/550/484
f 552/552/486 548/548/482 557/557/491
f 557/557/491 555/555/489 550/550/484
f 558/558/492 556/556/490 555/555/489
f 559/559/493 556/556/490 558/558/492
f 557/557/491 560/560/494 555/555/489
f 557/557/491 548/548/482 560/560/494
f 560/560/494 558/558/492 555/555/489
f 561/561/495 559/559/493 558/558/492
f 562/562/496 559/559/493 561/561/495
f 560/560/494 563/563/497 558/558/492
f 560/560/494 548/548/482 563/563/497
f 563/563/497 561/561/495 558/558/492
f 564/564/498 562/562/496 561/561/495
f 565/565/499 562/562/496 564/564/498
f 563/563/497 566/566/500 561/561/495
f 563/563/497 548/548/482 566/566/500
f 566/566/500 564/564/498 561/561/495
f 566/566/500 548/548/482 567/567/501
f 566/566/500 567/567/501 564/564/498
f 567/567/501 548/548/482 568/568/502
f 568/568/502 548/548/482 569/569/503
f 570/570/504 565/565/499 564/564/498
f 567/567/501 570/570/504 564/564/498
f 567/567/501 568/568/502 570/570/504
f 571/571/505 565/565/499 570/570/504
f 568/568/502 572/572/506 570/570/504
f 572/572/506 571/571/505 570/570/504
f 568/568/502 569/569/503 572/572/506
f 573/573/507 571/571/505 572/572/506
f 574/574/508 573/573/507 572/572/506
f 569/569/503 574/574/508 572/572/506
f 575/575/509 573/573/507 574/574/508
f 569/569/503 576/576/510 574/574/508
f 569/569/503 548/548/482 576/576/510
f 577/577/511 575/575/509 574/574/508
f 576/576/510 577/577/511 574/574/508
f 578/578/512 575/575/509 577/577/511
f 576/576/510 579/579/513 577/577/511
f 576/576/510 548/548/482 579/579/513
f 580/580/514 578/578/512 577/577/511
f 579/579/513 580/580/514 577/577/511
f 581/581/515 578/578/512 580/580/514
f 579/579/513 582/582/516 580/580/514
f 579/579/513 548/548/482 582/582/516
f 583/583/517 581/581/515 580/580/514
f 582/582/516 583/583/517 580/580/514
f 584/584/518 581/581/515 583/583/517
f 582/582/516 585/585/519 583/583/517
f 582/582/516 548/548/482 585/585/519
f 586/586/520 584/584/518 583/583/517
f 585/585/519 586/586/520 583/583/517
f 554/554/488 584/584/518 586/586/520
f 553/553/487 554/554/488 586/586/520
f 585/585/519 587/587/521 586/586/520
f 585/585/519 548/548/482 587/587/521
f 587/587/521 553/553/487 586/586/520
f 587/587/521 548/548/482 588/588/522
f 587/587/521 588/588/522 553/553/487
f 588/588/522 548/548/482 546/546/480
f 588/588/522 546/546/480 553/553/487
