mtllib pm0812_00_00_lod1.mtl
v 0.03241547 0.1360117 0.07862931
vt 0.8176174 0.7239124
vn 0.3342285 0.4089355 0.8486328
v 0.03189867 0.1281175 0.0827025
vt 0.8415238 0.6145294
vn 0.5107422 0.3674316 0.7768555
v 0.0332232 0.1240446 0.0837583
vt 0.8654301 0.5051465
vn 0.46875 0.402832 0.7856445
v 0.03557948 0.138039 0.07643474
vt 0.5642139 0.8054262
vn 0.3679199 0.3815918 0.8476563
v 0.04012977 0.118295 0.08325853
vt 0.4999998 0.009975195
vn 0.338623 0.3666992 0.8662109
v 0.04443315 0.1246139 0.07892273
vt 0.1876985 0.2665236
vn 0.3061523 0.3469238 0.8862305
vn 0.3344727 0.3803711 0.8618164
v 0.03934933 0.1362152 0.07565404
vt 0.4375122 0.8461832
vn 0.2932129 0.3859863 0.8745117
v 0.04214319 0.1327082 0.0761175
vt 0.3108104 0.8869402
vn 0.331543 0.4682617 0.8188477
v 0.04372884 0.1284942 0.07759348
vt 0.2492545 0.5767319
o pm0812_00_00_eye_mesh_shape_lod1_l_eye
g polygon_0
usemtl l_eye
f 1/1/1 2/2/2 3/3/3
f 1/1/1 3/3/3 4/4/4
f 4/4/4 3/3/3 5/5/5
f 5/5/5 6/6/6 4/4/7
f 4/4/7 6/6/6 7/7/7
f 7/7/8 6/6/6 8/8/9
f 8/8/9 6/6/6 9/9/8
v -0.03241547 0.1360117 0.07862931
vt 0.8176178 0.7239124
vn -0.3342285 0.4089355 0.8486328
v -0.0332232 0.1240446 0.0837583
vn -0.46875 0.402832 0.7856445
v -0.03189867 0.1281175 0.0827025
vt 0.8415239 0.6145294
vn -0.5107422 0.3674316 0.7768555
v -0.03934933 0.1362152 0.07565404
vt 0.4375123 0.8461832
vn -0.2932129 0.3859863 0.8745117
v -0.04214319 0.1327082 0.0761175
vt 0.3108105 0.8869402
vn -0.331543 0.4682617 0.8188477
v -0.04443315 0.1246139 0.07892273
vt 0.1876985 0.2665237
vn -0.3061523 0.3469238 0.8862305
v -0.04372884 0.1284942 0.07759348
v -0.04012977 0.118295 0.08325853
vt 0.5 0.009975195
vn -0.338623 0.3666992 0.8662109
v -0.03557948 0.138039 0.07643474
vt 0.5642141 0.8054262
vn -0.3344727 0.3803711 0.8618164
vn -0.3679199 0.3815918 0.8476563
o pm0812_00_00_eye_mesh_shape_lod1_r_eye
g polygon_0
usemtl r_eye
f 10/10/10 11/3/11 12/11/12
f 13/12/13 14/13/14 15/14/15
f 15/14/15 14/13/14 16/9/13
f 17/15/16 18/16/17 15/14/15
f 15/14/15 18/16/17 13/12/17
f 10/10/10 18/16/18 11/3/11
f 11/3/11 18/16/18 17/15/16
v -0.02398293 0.2956006 -5.372217E-05
vt 0.1523696 1.290893
vn -0.996582 0.07653809 -0.009002686
v -0.02001467 0.2663172 0.01143536
vt 0.2035072 1.308594
vn -0.9106445 -0.0960083 0.4016113
v -7.054584E-08 0.295754 0.02386196
vt 0.1523696 1.347656
vn 0 0.1472168 0.9887695
v -0.09112697 0.1711197 0.04593392
vt 0.1610729 1.699732
vn -0.05709839 0.1791992 0.9819336
v -0.05421242 0.1723724 0.04152026
vt 0.2514759 1.70261
vn 0.296875 0.3935547 0.8696289
v -0.0911159 0.1945622 0.04165445
vt 0.1703563 1.742543
vn -0.004295349 0.5214844 0.8525391
v -0.0409651 0.2136053 0.01478786
vt 0.2736093 1.809381
vn 0.2724609 0.7929688 0.5439453
v -0.01371933 0.1931522 0.01470287
vt 0.3379876 1.795973
vn 0.5112305 0.3681641 0.7763672
v -0.1261263 0.1712921 0.03757218
vt 0.07940805 1.732878
vn -0.3613281 0.2629395 0.894043
v -0.1574069 0.182493 6.213393E-05
vt 0.03569561 1.839852
vn -0.7832031 0.6191406 -0.05056763
v -0.1565228 0.1704978 -1.677151E-05
vt 0.009765625 1.839996
vn -0.9970703 -0.07348633 -0.001958847
v -0.1494672 0.1698194 0.01854892
vt 0.02298808 1.786098
vn -0.7900391 0.1185913 0.6005859
v -0.01865984 0.1761407 0.01325644
vt 0.2495237 1.378179
vn -0.008735657 -0.9985352 -0.05273438
vt 0.3040114 1.443098
vn -0.05325317 -0.96875 -0.2420654
v -0.09118412 0.1847733 2.830056E-05
vt 0.2265625 1.515625
vn -0.002204895 -0.9995117 0.01571655
vt 0.3149664 1.516277
vn 0.02880859 -0.9580078 -0.2849121
vt 0.2971894 1.586324
vn 0.1420898 -0.9658203 -0.2145996
vt 0.2643993 1.632911
vn 0.204834 -0.96875 -0.1376953
v -0.1403504 0.1876947 0.02590005
vt 0.0696606 1.783292
vn -0.5522461 0.5009766 0.6655273
vt 0.2265621 1.648797
vn 0.2133789 -0.9765625 0.002708435
v -0.01387229 0.1932118 -0.01477306
vt 0.3382765 1.880967
vn 0.5136719 0.3652344 -0.7758789
v -0.01531648 0.2017956 -2.327741E-05
vt 0.3301247 1.838467
vn 0.6591797 0.7514648 7.83205E-05
vn -0.2719727 0.9296875 -0.2480469
v -0.008213256 0.1945507 0.004710575
vt 0.3517525 1.825986
vn -0.1734619 0.9838867 0.04232788
vn -0.2231445 0.949707 0.2181396
v 6.801296E-06 0.1764722 -0.03118642
vt 0.9841905 1.543899
vn 0 -0.9287109 0.3706055
v 0.01881663 0.1763093 -0.01302889
vt 0.9473727 1.508057
vn -0.2583008 -0.9501953 -0.1739502
v -2.053503E-30 0.1778944 0
vt 0.984375 1.484374
vn 0 -0.9995117 -0.002174377
vt 0.0158022 1.543898
vt 0.015625 1.484374
v -0.01881663 0.1763093 -0.01302889
vt 0.05261949 1.508056
vn 0.2580566 -0.9501953 -0.1739502
vt 0.4639344 1.6818
v -1.361551E-06 0.193826 0.01015011
vt 0.5 1.696356
vn 0 0.9897461 0.1425781
vt 0.4795794 1.704168
v 0.01371933 0.1931522 0.01470287
vt 0.5360655 1.6818
vn 0.2719727 0.9296875 -0.2480469
v 0.008213256 0.1945507 0.004710575
vt 0.5204205 1.704168
vn 0.1734619 0.9838867 0.04232788
v -0.04005269 0.172194 -0.02872213
vt 0.09571144 1.542348
vn -0.1245728 -0.7963867 0.5908203
v -0.04757226 0.1593098 -0.05929972
vt 0.1056062 1.608711
vn -0.9804688 -0.1947021 -0.01693726
v -0.0388177 0.1456065 -0.07141942
vt 0.09615396 1.642998
vn 0.1741943 -0.8139648 0.5537109
vt 0.4037504 1.421875
vn -0.006580353 0.9995117 0.0001909733
vt 0.3554689 1.469532
vn 0 1.000122 0.0001909733
v 4.489597E-07 0.2957631 -0.02385308
vt 0.3554685 1.374218
vt 0.3554688 1.308594
vn -0.8217773 -0.1362305 0.5527344
vt 0.3554688 1.347656
vn 0 -0.2102051 0.9775391
v -0.0148192 0.2138854 -0.000342525
vt 0.3088666 1.290893
vn -0.9760742 -0.2165527 0.005805969
v 4.45402E-06 0.1538745 -0.07559552
vt 0.015625 1.640625
vn 0 -0.7983398 0.6015625
v 3.074377E-06 0.1361808 -0.08790329
vt 0.0158022 1.683757
vn 0 -0.7290039 0.684082
v -0.008278722 0.1945996 -0.005589705
vt 0.3554688 1.271633
vn -0.5996094 -0.3220215 -0.7319336
v -4.968103E-06 0.2135681 -0.01475248
vt 0.3088666 1.234375
vn 0 -0.2496338 -0.9682617
v 0.008278722 0.1945996 -0.005589705
vt 0.3554688 1.234375
vn 0.5996094 -0.3217773 -0.7324219
v 0.0148192 0.2138854 -0.000342525
vt 0.6911331 1.290893
vn 0.9760742 -0.2166748 0.005664825
vt 0.6445313 1.347656
vt 0.6445313 1.308594
vn 0.8217773 -0.1362305 0.5527344
v 0.01865984 0.1761407 0.01325644
vt 0.9475562 1.460725
vn 0.008735657 -0.9985352 -0.05273438
v 0.04005269 0.172194 -0.02872213
vt 0.6124429 1.80206
vn 0.1246338 -0.7963867 0.5908203
v 0.01387229 0.1932118 -0.01477306
vt 0.5367741 1.750609
vn 0.159668 0.9736328 0.161377
vt 0.5781037 1.741374
vn 0.605957 0.2548828 0.7529297
v 0.04757226 0.1593098 -0.05929972
vt 0.8943854 1.608712
vn 0.9013672 0.3308105 -0.2775879
vt 0.9042803 1.542349
v 0.0388177 0.1456065 -0.07141942
vt 0.9038378 1.642999
vn -0.1741943 -0.8139648 0.5537109
vt 0.9841905 1.68376
v 0.01908987 0.1375803 -0.089518
vt 0.9441354 1.684658
vn 0.3203125 -0.7250977 -0.6088867
vt 0.3496676 1.753832
vn 0.6191406 -0.2432861 0.7460938
vt 0.984375 1.640625
vt 0.6497372 1.922543
vt 0.6617235 1.880967
vn -0.5136719 0.3652344 -0.7758789
v 0.05418521 0.1725521 -0.04155593
vt 0.747269 1.974866
vn -0.1392822 -0.8408203 -0.5224609
vt 0.7964008 1.378179
vt 0.8508839 1.443098
vt 0.7504763 1.378178
vt 0.6445313 1.271633
vt 0.6481708 1.850904
vn 0.05862427 0.9916992 -0.1141357
vt 0.6482475 1.825986
v 0.1494607 0.1697219 -0.01858135
vt 0.8112751 1.632915
vn -0.2052002 -0.9682617 0.140625
v 0.1565228 0.1704978 -1.677151E-05
vt 0.7734379 1.648797
vn -0.2133789 -0.9765625 0.002708435
v 0.09118412 0.1847733 2.830056E-05
vt 0.7734375 1.515625
vn 0.002204895 -0.9995117 0.01571655
vt 0.9764509 1.893752
vn 0.7871094 0.1240845 -0.6035156
v 0.1260645 0.1712346 -0.037541
vt 0.919498 1.946362
vn 0.3642578 0.2641602 -0.8925781
v 0.1403084 0.1879998 -0.02567531
vt 0.9297664 1.896043
vn 0.5356445 0.6645508 -0.5200195
vt 0.8440689 1.586323
vn -0.1436768 -0.9658203 0.2145996
v 0.09113899 0.1711295 -0.04596219
vt 0.8618397 1.516274
vn -0.03225708 -0.9580078 0.2841797
v 0.1574069 0.182493 6.213393E-05
vt 0.9643044 1.839852
vn 0.7832031 0.6191406 -0.05056763
vt 0.9902344 1.839996
vn 0.9970703 -0.07348633 -0.001958847
vt 0.8375457 1.978648
vn 0.05929565 0.1793213 -0.9819336
v 0.0910553 0.1944904 -0.04169844
vt 0.8287305 1.935722
vn 0.03408813 0.5424805 -0.8388672
v 0.02398293 0.2956006 -5.372217E-05
vt 0.8476303 1.290893
vn 0.996582 0.07647705 -0.008987427
v 0.01189167 0.2663851 -0.01962874
vt 0.7964923 1.252758
vn 0.6875 -0.07952881 -0.7211914
vt 0.8476822 1.234375
vn 0 0.1436768 -0.9892578
v -7.633794E-07 0.1764664 0.03116642
vt 0.9841905 1.424851
vn 0 -0.9370117 -0.3486328
v 0.04305939 0.1756115 0.03009839
vt 0.6046383 1.626113
vn 0.8701172 0.0859375 -0.4846191
vt 0.5772313 1.691283
vn 0.5668945 0.08972168 -0.8183594
v 0.05421242 0.1723724 0.04152026
vt 0.7485241 1.70261
vn -0.296875 0.3935547 0.8696289
vt 0.6620124 1.795973
vn -0.5112305 0.3681641 0.7763672
vt 0.6503324 1.753832
vn -0.6191406 -0.2432861 0.7460938
vt 0.5962501 1.421875
vn 0.006580353 0.9995117 0.0001910925
vt 0.6445314 1.37422
vt 0.6445311 1.46953
v 0.01531648 0.2017956 -2.327741E-05
vt 0.6698753 1.838467
vn -0.6591797 0.7514648 7.83205E-05
v 0.1494672 0.1698194 0.01854892
vt 0.7356004 1.632911
vn -0.204834 -0.96875 -0.1376953
v 0.1403504 0.1876947 0.02590005
vt 0.9303394 1.783292
vn 0.5522461 0.5009766 0.6655273
v 0.1261263 0.1712921 0.03757218
vt 0.920592 1.732878
vn 0.3613281 0.2629395 0.894043
vt 0.9770119 1.786098
vn 0.7900391 0.1185913 0.6005859
vt 0.7028105 1.586324
vn -0.1420898 -0.9658203 -0.2145996
v 0.09112697 0.1711197 0.04593392
vt 0.6850333 1.516277
vn -0.02880859 -0.9580078 -0.2849121
vt 0.4227687 1.691283
vn -0.5668945 0.08972168 -0.8183594
v -0.04305939 0.1756115 0.03009839
vt 0.3953617 1.626113
vn -0.8701172 0.0859375 -0.4846191
vt 0.6959885 1.443098
vn 0.05325317 -0.96875 -0.2420654
v 0.0911159 0.1945622 0.04165445
vt 0.8296436 1.742543
vn 0.004295349 0.5214844 0.8525391
vt 0.8389271 1.699732
vn 0.05709839 0.1791992 0.9819336
v 0.0409651 0.2136053 0.01478786
vt 0.7263907 1.809381
vn -0.2724609 0.7929688 0.5439453
vt 0.8476303 1.347656
v 0.02001467 0.2663172 0.01143536
vt 0.7964923 1.308594
vn 0.9106445 -0.0960083 0.4016113
vt 0.05243601 1.460725
vt 0.4218963 1.741374
vn -0.605957 0.2548828 0.7529297
vt 0.463226 1.750609
vt 0.3875571 1.80206
v -0.01908987 0.1375803 -0.089518
vt 0.05585682 1.684656
vn -0.3200684 -0.7260742 -0.6083984
v -0.05418521 0.1725521 -0.04155593
vt 0.252731 1.974866
vn 0.1392822 -0.8408203 -0.5224609
vt 0.3502628 1.922543
vt 0.1491162 1.443098
vt 0.203599 1.378179
vt 0.3518292 1.850904
vn -0.08062744 0.9912109 -0.100708
v -0.1494607 0.1697219 -0.01858135
vt 0.1887249 1.632915
vn 0.2052002 -0.9682617 0.140625
v -0.1403084 0.1879998 -0.02567531
vt 0.07023364 1.896043
vn -0.5356445 0.6645508 -0.5200195
v -0.1260645 0.1712346 -0.037541
vt 0.08050197 1.946362
vn -0.3642578 0.2641602 -0.8925781
vt 0.02354908 1.893752
vn -0.7871094 0.1240845 -0.6035156
vt 0.1559312 1.586323
vn 0.1436768 -0.9658203 0.2145996
v -0.09113899 0.1711295 -0.04596219
vt 0.1381603 1.516273
vn 0.03225708 -0.9580078 0.2841797
v -0.0910553 0.1944904 -0.04169844
vt 0.1712695 1.935722
vn -0.03408813 0.5424805 -0.8388672
vt 0.1624543 1.978648
vn -0.05929565 0.1793213 -0.9819336
vt 0.0158022 1.424852
vt 0.1523179 1.234375
v -0.01189167 0.2663851 -0.01962874
vt 0.2035072 1.252759
vn -0.6875 -0.07952881 -0.7211914
vt 0.904229 1.426942
v 0.0436938 0.1628187 0.04232177
vt 0.8947762 1.394324
vn -0.004089355 -0.8764648 -0.480957
v 1.100715E-05 0.1544208 0.07599562
vt 0.9841905 1.328535
vn 0 -0.8149414 -0.5791016
v 0.02661514 0.1397473 0.07955918
vt 0.9293975 1.304958
vn 0.09197998 -0.90625 -0.4116211
v 0.04759033 0.1591374 0.05938936
vt 0.893676 1.360285
vn 0.9272461 0.1939697 0.3200684
v -1.87137E-06 0.1364616 0.08786748
vt 0.9841905 1.28499
vn 7.599592E-05 -0.7172852 -0.6962891
v 0.01894861 0.1376363 0.08959133
vt 0.9442205 1.283574
vn 0.2854004 -0.574707 0.7666016
v -0.0436938 0.1628187 0.04232177
vt 0.1052154 1.394325
vn 0.00409317 -0.8764648 -0.480957
vt 0.09576261 1.426943
vt 0.0158022 1.328535
v -0.02661514 0.1397473 0.07955918
vt 0.07059451 1.30496
vn -0.09185791 -0.90625 -0.4116211
v -0.04759033 0.1591374 0.05938936
vt 0.1063156 1.360287
vn -0.9272461 0.1939697 0.3200684
vt 0.0158022 1.284993
v -0.01894861 0.1376363 0.08959133
vt 0.05577162 1.283576
vn -0.2854004 -0.574707 0.7666016
v 7.50546E-07 0.2661554 0.02302619
vt 0.2035072 1.347656
vn 0 -0.1314697 0.9912109
vt 0.7964923 1.347656
v 6.204335E-07 0.1978521 0.04180269
vt 0.5 1.626306
vn 0 0.9506836 0.3085938
v 0.03527384 0.1883715 0.03589126
vt 0.5732985 1.626413
vn 0.5083008 0.8286133 0.2337646
vt 0.6130034 1.550504
vt 0.6258906 1.589687
v 0.02964994 0.1568989 0.08987427
vt 0.5588005 1.499901
vn 0.5620117 0.4936523 0.6630859
vt 0.5827194 1.473204
vt 0.5525906 1.453965
v -8.226028E-07 0.1759386 0.08379968
vt 0.5 1.533484
vn 0 0.8173828 0.5751953
v -0.03527384 0.1883715 0.03589126
vt 0.4267015 1.626413
vn -0.5083008 0.8286133 0.2337646
v 1.121053E-05 0.1544272 0.09905717
vt 0.5 1.483935
vn 0 0.1365967 0.9902344
vt 0.5 1.442058
vt 0.4474094 1.453965
v -0.02964994 0.1568989 0.08987427
vt 0.4411995 1.499901
vn -0.5620117 0.4936523 0.6630859
vt 0.4172806 1.473204
vt 0.3869965 1.550504
vt 0.3741094 1.589687
vt 0.4788134 1.72814
vt 0.5211866 1.72814
v -0.02529611 0.1939644 -0.0387177
vt 0.4489953 1.80584
vn -0.243042 0.9331055 -0.2644043
v 0.02529611 0.1939644 -0.0387177
vt 0.5510047 1.80584
vn 0.2384033 0.9545898 -0.1776123
v 0.0417549 0.182433 -0.03281709
vt 0.5910413 1.807479
vn 0.7836914 0.6181641 -0.05404663
vt 0.6126158 1.882748
v 0.01485053 0.1835847 -0.07074967
vt 0.5280243 1.86966
vn 0.1588135 0.8334961 -0.5283203
vt 0.6071454 1.93008
vn 0.8178711 -0.2077637 -0.5356445
v 0.02952428 0.1568781 -0.0899794
vt 0.5581537 1.932777
vn 0.543457 0.4030762 -0.7358398
v -0.0417549 0.182433 -0.03281709
vt 0.4089587 1.807479
vn -0.8022461 0.5708008 0.1729736
vt 0.3873842 1.882748
v -0.03929713 0.1732671 -0.06586213
vt 0.4203721 1.875229
vn -0.4355469 0.7294922 -0.5268555
v -0.02952428 0.1568781 -0.0899794
vt 0.4418463 1.932777
vn -0.3979492 0.5029297 -0.7670898
vt 0.3928546 1.93008
vn -0.8178711 -0.2077637 -0.5356445
v -3.790066E-05 0.1547801 -0.09910674
vt 0.5 1.948337
vn -0.03225708 0.355957 -0.9335938
vt 0.4483198 1.978673
vt 0.5516801 1.978673
vt 0.5 1.990234
vt 0.6911331 1.234375
v -0.0409582 0.213681 -0.01469943
vt 0.2738147 1.867854
vn 0.2678223 0.8046875 -0.5292969
v -0.09110003 0.2177762 0.01757554
vt 0.1790965 1.806007
vn -0.07110596 0.925293 0.3720703
v -0.0913491 0.2177438 -0.01751894
vt 0.1793948 1.872141
vn -0.1424561 0.9140625 -0.3793945
v -0.1260622 0.2072911 0.0136284
vt 0.1115949 1.812582
vn -0.4641113 0.8686523 0.1706543
v 0.0409582 0.213681 -0.01469943
vt 0.7261852 1.867854
vn -0.2678223 0.8046875 -0.5292969
v 0.0913491 0.2177438 -0.01751894
vt 0.8206052 1.872141
vn 0.1424561 0.9140625 -0.3793945
v 0.09110003 0.2177762 0.01757554
vt 0.8209034 1.806007
vn 0.07110596 0.925293 0.3720703
v 0.1260622 0.2072911 0.0136284
vt 0.8884051 1.812582
vn 0.4641113 0.8686523 0.1706543
o pm0812_00_00_body_c_mesh_shape_lod1_body_b
g polygon_0
usemtl body_b
f 19/17/19 20/18/20 21/19/21
f 22/20/22 23/21/23 24/22/24
f 25/23/25 23/21/23 26/24/26
f 27/25/27 22/20/22 24/22/24
f 28/26/28 29/27/29 30/28/30
f 31/29/31 23/30/32 32/31/33
f 32/31/33 23/30/32 22/32/34
f 22/32/34 27/33/35 32/31/33
f 27/33/35 30/34/36 32/31/33
f 30/28/30 27/25/27 33/35/37
f 30/34/36 29/36/38 32/31/33
f 34/37/39 35/38/40 26/24/26
f 26/24/41 36/39/42 34/37/43
f 37/40/44 38/41/45 39/42/46
f 37/43/44 39/44/46 40/45/47
f 26/46/41 41/47/48 36/48/42
f 42/49/49 43/50/50 41/47/48
f 44/51/51 45/52/52 46/53/53
f 19/54/54 21/55/55 47/56/55
f 36/57/56 41/58/57 48/59/58
f 49/60/59 46/53/53 50/61/60
f 36/57/56 48/59/58 51/62/61
f 51/62/61 52/63/62 53/64/63
f 54/65/64 41/66/57 43/67/65
f 39/42/46 38/41/45 55/68/66
f 56/69/67 57/70/68 38/71/69
f 58/72/70 56/73/67 59/74/71
f 59/74/71 50/75/60 60/76/72
f 31/77/73 26/24/26 23/21/23
f 50/75/60 59/74/71 49/78/59
f 38/79/45 57/80/74 61/81/75
f 38/82/45 61/83/75 55/84/66
f 54/65/64 43/67/65 53/85/63
f 53/86/76 43/87/50 57/80/68
f 62/88/77 63/89/78 64/90/79
f 62/91/80 65/92/81 66/93/82
f 65/94/83 62/88/77 64/90/79
f 67/95/84 65/94/83 64/90/79
f 68/96/85 63/97/86 62/91/80
f 65/92/81 67/98/87 69/99/88
f 70/100/89 71/101/90 47/102/91
f 39/42/46 55/68/66 72/103/92
f 42/49/49 73/104/93 55/105/94
f 74/106/95 42/107/96 55/108/97
f 70/109/98 47/110/55 21/111/55
f 57/80/68 43/87/50 42/107/49
f 57/80/74 42/107/96 75/112/99
f 64/90/79 63/89/78 76/113/100
f 77/114/101 78/115/102 76/116/103
f 64/90/79 76/113/100 78/117/104
f 64/90/79 78/117/104 79/118/105
f 31/119/106 80/120/107 26/46/41
f 64/90/79 79/118/105 74/121/108
f 55/84/66 64/90/79 74/121/108
f 68/96/85 76/116/103 63/97/86
f 78/115/102 81/122/109 79/123/110
f 42/107/96 74/106/95 82/124/111
f 81/122/109 74/106/95 79/123/110
f 70/100/89 21/125/21 83/126/112
f 40/45/47 39/44/46 31/127/31
f 40/128/113 34/129/43 44/130/51
f 46/53/53 84/131/114 50/61/60
f 85/132/115 34/37/39 40/133/47
f 31/29/31 85/134/115 40/135/47
f 34/37/43 36/39/42 51/136/116
f 32/31/33 29/36/38 86/137/117
f 87/138/118 88/139/119 86/140/120
f 32/31/33 86/137/117 88/141/121
f 32/31/33 88/141/121 89/142/122
f 28/26/28 86/140/120 29/27/29
f 88/139/119 90/143/123 89/144/124
f 31/127/31 39/44/46 72/145/92
f 19/17/19 47/146/91 91/147/125
f 55/68/94 73/148/93 92/149/126
f 72/103/92 55/68/66 92/149/126
f 92/149/126 93/150/127 72/103/92
f 94/151/128 93/150/127 92/149/126
f 92/149/126 95/152/129 94/151/128
f 93/150/127 94/151/128 96/153/130
f 94/151/128 97/154/131 96/153/130
f 31/127/106 98/155/132 80/156/107
f 31/127/31 72/145/92 98/155/132
f 72/145/92 93/157/127 98/155/132
f 98/155/132 93/157/127 99/158/133
f 100/159/134 98/155/132 99/158/133
f 96/160/130 99/158/133 93/157/127
f 99/158/133 96/160/130 101/161/135
f 21/19/21 20/18/20 102/162/136
f 20/18/20 41/58/57 102/162/136
f 83/126/112 102/163/136 41/66/57
f 83/126/112 21/125/21 102/163/136
f 64/90/79 61/83/75 67/95/84
f 55/84/66 61/83/75 64/90/79
f 26/46/41 42/49/49 41/47/48
f 26/46/41 103/164/137 42/49/49
f 42/49/49 103/164/137 104/165/138
f 42/49/49 104/165/138 73/104/93
f 95/166/129 92/167/126 73/104/93
f 73/104/93 104/165/138 95/166/129
f 95/166/129 104/165/138 105/168/139
f 94/169/128 95/166/129 105/168/139
f 97/170/131 94/169/128 105/168/139
f 106/171/140 104/165/138 103/164/137
f 105/168/139 104/165/138 106/171/140
f 107/172/141 103/164/137 26/46/41
f 103/164/137 107/172/141 106/171/140
f 105/168/139 108/173/142 97/170/131
f 105/168/139 106/171/140 108/173/142
f 96/174/130 97/170/131 101/175/135
f 97/170/131 108/173/142 101/175/135
f 106/171/140 109/176/143 108/173/142
f 101/175/135 108/173/142 109/176/143
f 107/172/141 109/176/143 106/171/140
f 109/176/143 99/177/133 101/175/135
f 109/176/143 100/178/134 99/177/133
f 107/172/141 100/178/134 109/176/143
f 107/172/141 80/120/107 100/178/134
f 80/120/107 98/179/132 100/178/134
f 80/120/107 107/172/141 26/46/41
f 32/31/33 89/142/122 85/134/115
f 31/29/31 32/31/33 85/134/115
f 46/53/53 49/60/59 44/51/51
f 44/51/51 49/60/59 37/43/44
f 40/45/47 44/51/51 37/43/44
f 38/41/45 37/40/44 56/73/67
f 37/40/44 49/78/59 56/73/67
f 56/73/67 49/78/59 59/74/71
f 34/129/43 51/180/116 53/181/76
f 57/70/68 34/129/43 53/181/76
f 110/182/144 34/129/43 57/70/68
f 57/70/68 111/183/145 110/182/144
f 112/184/146 111/183/145 57/70/68
f 56/69/67 112/184/146 57/70/68
f 56/69/67 58/185/70 112/184/146
f 112/184/146 113/186/147 111/183/145
f 58/185/70 113/186/147 112/184/146
f 111/183/145 113/186/147 110/182/144
f 59/187/148 114/188/149 58/185/70
f 114/188/149 113/186/147 58/185/70
f 34/129/43 110/182/144 115/189/150
f 34/129/43 115/189/150 44/130/51
f 115/189/150 45/190/52 44/130/51
f 110/182/144 116/191/151 115/189/150
f 115/189/150 116/191/151 45/190/52
f 110/182/144 113/186/147 116/191/151
f 117/192/152 45/190/52 116/191/151
f 113/186/147 117/192/152 116/191/151
f 45/190/52 117/192/152 46/193/153
f 118/194/154 117/192/152 113/186/147
f 118/194/154 113/186/147 114/188/149
f 84/195/114 46/193/153 117/192/152
f 117/192/152 118/194/154 84/195/114
f 60/196/72 118/194/154 114/188/149
f 84/195/114 118/194/154 60/196/72
f 114/188/149 59/187/148 60/196/72
f 60/196/72 50/197/60 84/195/114
f 48/59/58 52/63/62 51/62/61
f 91/147/125 47/146/91 52/63/62
f 52/63/62 48/59/58 91/147/125
f 48/59/58 20/18/20 91/147/125
f 20/18/20 19/17/19 91/147/125
f 48/59/58 41/58/57 20/18/20
f 83/126/112 41/66/57 54/65/64
f 70/100/89 83/126/112 71/101/90
f 83/126/112 54/65/64 71/101/90
f 71/101/90 54/65/64 52/198/62
f 54/65/64 53/85/63 52/198/62
f 47/102/91 71/101/90 52/198/62
f 25/23/25 26/24/26 35/38/40
f 35/38/40 34/37/39 119/199/155
f 35/38/40 119/199/155 25/23/25
f 24/22/24 23/21/23 25/23/25
f 34/37/39 85/132/115 119/199/155
f 25/23/25 120/200/156 24/22/24
f 25/23/25 119/199/155 120/200/156
f 90/143/123 85/132/115 89/144/124
f 119/199/155 85/132/115 90/143/123
f 120/200/156 119/199/155 121/201/157
f 121/201/157 119/199/155 90/143/123
f 120/200/156 122/202/158 24/22/24
f 120/200/156 121/201/157 122/202/158
f 121/201/157 90/143/123 87/138/118
f 90/143/123 88/139/119 87/138/118
f 121/201/157 87/138/118 122/202/158
f 24/22/24 33/35/37 27/25/27
f 24/22/24 122/202/158 33/35/37
f 87/138/118 28/26/28 122/202/158
f 122/202/158 28/26/28 33/35/37
f 28/26/28 87/138/118 86/140/120
f 28/26/28 30/28/30 33/35/37
f 67/98/87 61/81/75 69/99/88
f 123/203/159 61/81/75 57/80/74
f 69/99/88 61/81/75 123/203/159
f 123/203/159 57/80/74 75/112/99
f 75/112/99 42/107/96 82/124/111
f 82/124/111 123/203/159 75/112/99
f 69/99/88 66/93/82 65/92/81
f 123/203/159 124/204/160 69/99/88
f 124/204/160 66/93/82 69/99/88
f 82/124/111 125/205/161 123/203/159
f 123/203/159 125/205/161 124/204/160
f 82/124/111 74/106/95 81/122/109
f 125/205/161 82/124/111 81/122/109
f 126/206/162 124/204/160 125/205/161
f 125/205/161 81/122/109 126/206/162
f 126/206/162 66/93/82 124/204/160
f 81/122/109 78/115/102 77/114/101
f 126/206/162 81/122/109 77/114/101
f 126/206/162 68/96/85 66/93/82
f 77/114/101 68/96/85 126/206/162
f 68/96/85 62/91/80 66/93/82
f 68/96/85 77/114/101 76/116/103
v 8.23358E-09 0.05383768 -0.08716273
vt 0.5000001 1.232871
vn 0 -0.447998 -0.8935547
v 0.03867919 0.054064 -0.06700169
vt 0.5900888 1.24044
vn 0.416748 -0.309082 -0.8544922
v 0.03341013 0.02687086 -0.05750139
vt 0.5755568 1.313035
vn 0.3322754 -0.6455078 -0.6870117
v 0.05971177 0.03403108 -0.05320048
vt 0.734293 1.143904
vn 0.6264648 -0.5673828 -0.5332031
vt 0.790834 1.179344
v 0.07557466 0.05394449 -0.04332481
vt 0.7028949 1.186315
vn 0.8452148 -0.4350586 -0.3098145
v 0.07737287 0.05403706 2.485707E-05
vt 0.6132813 1.178066
vn 0.9482422 -0.3088379 -0.06665039
v 0.06644818 0.02676739 8.155047E-05
vt 0.6282136 1.106767
vn 0.7294922 -0.675293 -0.1079712
v 0.07596001 0.03399779 0.0249091
vt 0.9332964 1.145436
vn 0.8173828 -0.5576172 0.1424561
vt 0.9906545 1.181356
v 0.07542124 0.05419283 0.04348729
vt 0.9005495 1.188482
vn 0.8544922 -0.1811523 0.4863281
v 0.03874352 0.05387139 0.06700741
vt 0.8105469 1.180166
vn 0.4082031 -0.3603516 0.8383789
v 0.05946715 0.03427533 0.05363479
vt 0.8683746 1.145007
vn 0.4650879 -0.5820313 0.6665039
v 5.625546E-05 0.05399732 0.08713294
vt 0.5 1.1864
vn -0.1200562 -0.5615234 0.8183594
v 0.01492816 0.02516319 0.06951848
vt 0.5316242 1.119517
vn 0.1147461 -0.6303711 0.7670898
vt 0.5905076 1.178273
v -0.03341013 0.02687086 -0.05750139
vt 0.4244433 1.313035
vn -0.3322754 -0.6455078 -0.6870117
v -0.03867919 0.054064 -0.06700169
vt 0.4099112 1.240439
vn -0.416748 -0.309082 -0.8544922
v -0.07557466 0.05394449 -0.04332481
vt 0.2971053 1.186315
vn -0.8452148 -0.4350586 -0.3098145
vt 0.209166 1.179344
v -0.05971177 0.03403108 -0.05320048
vt 0.265707 1.143904
vn -0.6264648 -0.5673828 -0.5332031
v -0.07737287 0.05403706 2.485707E-05
vt 0.3867188 1.178066
vn -0.9482422 -0.3088379 -0.06665039
v -0.06644818 0.02676739 8.155045E-05
vt 0.3717864 1.106767
vn -0.7294922 -0.675293 -0.1079712
v -0.07542124 0.05419283 0.04348729
vt 0.09945048 1.188482
vn -0.8544922 -0.1811523 0.4863281
vt 0.009345535 1.181356
v -0.07596001 0.03399779 0.0249091
vt 0.06670351 1.145436
vn -0.8173828 -0.5576172 0.1424561
v -0.05946715 0.03427533 0.05363479
vt 0.1316254 1.145007
vn -0.4650879 -0.5820313 0.6665039
v -0.03874352 0.05387139 0.06700741
vt 0.1894531 1.180166
vn -0.3100586 -0.482666 0.8188477
vt 0.4094923 1.178273
v -0.02806887 0.01236441 -5.601604E-06
vt 0.3356268 1.022455
vn -0.1824951 -0.9829102 -0.001162529
v -0.04384333 0.01365237 -0.009088826
vt 0.3304405 1.058658
vn -0.40625 -0.9116211 -0.0607605
v -0.02968639 0.01359465 -0.0332615
vt 0.2637705 1.059125
vn -0.223999 -0.9272461 -0.2988281
vt 0.2230996 1.107813
v -0.01406948 0.01171772 -0.02448006
vt 0.2580574 1.022455
vn -0.08087158 -0.9907227 -0.1071777
vt 0.4604098 1.399942
v -0.0139485 0.01397455 -0.04222657
vt 0.4660175 1.362285
vn -0.2661133 -0.9194336 -0.2890625
v 1.116519E-09 0.02465563 -0.07129429
vt 0.5000001 1.300958
vn 0 -0.640625 -0.7670898
v -1.692681E-07 0.01322564 -0.04278221
vt 0.5000001 1.362628
vn 0 -0.9677734 -0.2504883
v 0.0139485 0.01397455 -0.04222657
vt 0.5339827 1.362284
vn 0.2661133 -0.9194336 -0.2890625
v 0.01406948 0.01171772 -0.02448006
vt 0.5395904 1.399942
vn 0.08087158 -0.9907227 -0.1071777
vt 0.7419426 1.022455
vt 0.7769004 1.107813
v 0.02968639 0.01359465 -0.0332615
vt 0.7362295 1.059125
vn 0.223999 -0.9272461 -0.2988281
v 0.04384333 0.01365237 -0.009088826
vt 0.6695595 1.058658
vn 0.40625 -0.9116211 -0.06079102
v 0.02806887 0.01236441 -5.601604E-06
vt 0.6643732 1.022455
vn 0.1824951 -0.9829102 -0.001162529
vt 0.9409978 1.022455
vt 0.9764922 1.108808
v 0.0436779 0.01360238 0.00909898
vt 0.9352196 1.059439
vn 0.3544922 -0.934082 0.0375061
v 0.02978606 0.01363338 0.03336051
vt 0.8675884 1.058992
vn 0.2995605 -0.9228516 0.2414551
v 0.0141202 0.01181259 0.02447292
vt 0.8623064 1.022455
vn 0.07495117 -0.9912109 0.1049194
v 0.02764003 0.01799079 0.04780655
vt 0.8382857 1.07695
vn 0.3310547 -0.8105469 0.4824219
vt 0.05900216 1.022455
v -0.0436779 0.01360238 0.00909898
vt 0.06478036 1.059439
vn -0.3544922 -0.934082 0.0375061
vt 0.02350778 1.108808
v -0.02978606 0.01363338 0.03336051
vt 0.1324115 1.058992
vn -0.2995605 -0.9228516 0.2414551
v -0.0141202 0.01181259 0.02447292
vt 0.1376936 1.022455
vn -0.07507324 -0.9912109 0.1047363
v -0.02764003 0.01799079 0.04780655
vt 0.1617143 1.076951
vn -0.2805176 -0.7216797 0.6323242
vt 0.5326653 1.022455
vt 0.5610436 1.075793
v -5.778267E-05 0.0133799 0.04248078
vt 0.5 1.061883
vn -0.01346588 -0.956543 0.2910156
vt 0.4389564 1.075793
vt 0.4673347 1.022455
o pm0812_00_00_body_b_mesh_shape_lod1_body_b
g polygon_0
usemtl body_b
f 127/207/163 128/208/164 129/209/165
f 130/210/166 128/211/164 131/212/167
f 131/212/167 132/213/168 133/214/169
f 134/215/170 132/216/168 135/217/171
f 135/217/171 136/218/172 137/219/173
f 138/220/174 139/221/175 136/222/172
f 127/207/163 140/223/176 141/224/177
f 142/225/178 141/226/177 143/227/179
f 144/228/180 142/225/178 145/229/181
f 146/230/182 144/231/180 147/232/183
f 148/233/184 149/234/185 146/230/182
f 139/221/175 138/220/174 149/235/185
f 150/236/186 145/229/181 151/237/187
f 145/229/181 143/227/179 151/237/187
f 142/225/178 143/227/179 145/229/181
f 151/237/187 143/227/179 152/238/188
f 152/238/188 143/227/179 140/239/176
f 153/240/189 152/238/188 140/239/176
f 141/226/177 140/239/176 143/227/179
f 153/241/189 140/223/176 154/242/190
f 140/223/176 155/243/191 154/242/190
f 127/207/163 155/243/191 140/223/176
f 154/242/190 155/243/191 156/244/192
f 156/244/192 155/243/191 157/245/193
f 157/245/193 155/243/191 129/209/165
f 158/246/194 157/245/193 129/209/165
f 127/207/163 129/209/165 155/243/191
f 158/247/194 129/248/165 159/249/195
f 129/248/165 130/210/166 159/249/195
f 128/211/164 130/210/166 129/248/165
f 159/249/195 130/210/166 160/250/196
f 160/250/196 130/210/166 133/214/169
f 161/251/197 160/250/196 133/214/169
f 130/210/166 131/212/167 133/214/169
f 161/252/197 133/253/169 162/254/198
f 133/253/169 134/215/170 162/254/198
f 132/216/168 134/215/170 133/253/169
f 162/254/198 134/215/170 163/255/199
f 164/256/200 163/255/199 165/257/201
f 163/255/199 134/215/170 165/257/201
f 165/257/201 134/215/170 137/219/173
f 135/217/171 137/219/173 134/215/170
f 136/218/172 165/257/201 137/219/173
f 150/258/186 166/259/202 145/260/181
f 166/259/202 147/232/183 145/260/181
f 144/231/180 145/260/181 147/232/183
f 167/261/203 147/232/183 166/259/202
f 168/262/204 169/263/205 167/261/203
f 169/263/205 147/232/183 167/261/203
f 148/233/184 147/232/183 169/263/205
f 148/233/184 169/263/205 149/234/185
f 146/230/182 147/232/183 148/233/184
f 164/264/200 165/265/201 170/266/206
f 139/221/175 165/265/201 136/222/172
f 165/265/201 139/221/175 170/266/206
f 170/266/206 139/221/175 169/267/205
f 168/268/204 170/266/206 169/267/205
f 149/235/185 169/267/205 139/221/175
v -1.09926E-19 0.07425874 -1.310157E-10
vt 0.8125 0.4239488
vn 0 1.000122 -0.0001887083
vt 0.886533 0.5521779
vn 0.1256104 0.9672852 -0.2189941
vt 0.8124999 0.5898438
vn 0 0.9736328 -0.2280273
vt 0.9560388 0.5068209
vn 0.1967773 0.9736328 -0.1131592
vt 0.8865331 0.2957197
vn 0.1257324 0.9667969 0.2214355
vt 0.956039 0.3410764
vn 0.1933594 0.9741211 0.1140747
vt 0.8125 0.2580535
vn 0 0.9736328 0.2264404
vt 0.1875 0.4239488
vt 0.1874999 0.5898438
vt 0.113467 0.5521778
vn -0.1256104 0.9672852 -0.2189941
vt 0.04396105 0.5068209
vn -0.1967773 0.9736328 -0.1131592
vt 0.04396111 0.3410763
vn -0.1933594 0.9741211 0.1140747
vt 0.1134673 0.2957186
vn -0.1256104 0.9667969 0.2215576
vt 0.1875 0.2580535
vt 0.960555 0.4239504
vn 0.2526855 0.9672852 -0.002334595
vt 0.03944483 0.4239471
vn -0.2526855 0.9672852 -0.002334595
vt 0.943539 0.04530811
vt 0.9819903 0.015625
vt 0.9804395 0.04474235
v 2.371088E-06 0.008787134 1.753851E-05
vt 0.8923389 0.015625
vn 0 -0.9995117 0.001932144
vt 0.9607668 0.07773131
vt 0.9104199 0.1059154
vt 0.8922971 0.07415915
vt 0.8741045 0.1058921
vt 0.8409853 0.04535186
vt 0.8238323 0.07764482
vt 0.8027189 0.015625
v 0.01619089 0.0006352848 6.22606E-06
vt 0.8681406 0.1964952
vn -0.1605225 -0.9868164 0.0003809929
v 0.009573655 0.01695356 1.387779E-19
vt 0.8506579 0.1445313
vn -0.9262695 -0.3757324 -8.845329E-05
v 0.01198081 0.01725203 -0.005910071
vt 0.864773 0.1445313
vn -0.6010742 -0.3986816 -0.6923828
v 0.01779219 0.0179726 -0.008358102
vt 0.8757162 0.1445313
vn 0.1032104 -0.4396973 -0.8916016
v 0.02360357 0.01869316 -0.005910071
vt 0.8853222 0.1445313
vn 0.5991211 -0.3596191 -0.7148438
v 0.0235916 0.005890796 2.475318E-07
vt 0.8945313 0.1831771
vn 0.715332 -0.6982422 -0.0002118349
v 0.02602127 0.01896989 1.387779E-19
vt 0.8945313 0.1445313
vn 0.9829102 -0.1826172 0
v 0.02360357 0.01869316 0.005910071
vt 0.9037402 0.1445313
vn 0.5996094 -0.359375 0.7148438
vt 0.9209222 0.1964952
v 0.01779219 0.0179726 0.008358102
vt 0.9133463 0.1445313
vn 0.1031494 -0.439209 0.8920898
v 0.01198081 0.01725203 0.005910071
vt 0.9242897 0.1445313
vn -0.6010742 -0.3981934 0.6923828
vt 0.9384054 0.1445313
v -0.01198081 0.01725202 -0.005910071
vt 0.1352271 0.1445313
vn 0.6010742 -0.3986816 -0.6923828
v -0.009573654 0.01695356 1.387779E-19
vt 0.1493422 0.1445311
vn 0.9262695 -0.3757324 -8.845329E-05
v -0.01619089 0.0006352748 6.22606E-06
vt 0.1318597 0.1964947
vn 0.1605225 -0.9868164 0.0003805161
v -0.01779219 0.01797259 -0.008358102
vt 0.124284 0.1445313
vn -0.1032104 -0.4396973 -0.8916016
v -0.02360357 0.01869316 -0.005910071
vt 0.114678 0.1445313
vn -0.5991211 -0.3596191 -0.7148438
v -0.0235916 0.005890787 2.475318E-07
vt 0.1054693 0.1831766
vn -0.715332 -0.6982422 -0.0002118349
v -0.02602127 0.01896989 1.387779E-19
vt 0.1054693 0.1445313
vn -0.9829102 -0.1826172 0
v -0.02360357 0.01869316 0.005910071
vt 0.09626061 0.1445313
vn -0.5996094 -0.359375 0.7148438
vt 0.07907856 0.1964947
v -0.01779219 0.01797259 0.008358102
vt 0.08665437 0.1445313
vn -0.1031494 -0.439209 0.8920898
v -0.01198081 0.01725202 0.005910071
vt 0.07571071 0.1445313
vn 0.6010742 -0.3981934 0.6923828
vt 0.06159532 0.1445311
vt 0.05646075 0.04530889
vt 0.01955916 0.04474306
vt 0.01800855 0.015625
vt 0.1076629 0.015625
vt 0.08958103 0.1059178
vt 0.03923269 0.07773292
vt 0.1077041 0.0741607
vt 0.1258971 0.1058945
vt 0.1590173 0.04535264
vt 0.1761707 0.07764649
vt 0.1972848 0.015625
o pm0812_00_00_body_b_mesh_shape_lod1_body_a
g polygon_0
usemtl body_a
f 171/269/207 128/270/208 127/271/209
f 171/269/207 131/272/210 128/270/208
f 171/269/207 136/273/211 135/274/212
f 171/269/207 138/275/213 136/273/211
f 171/276/207 127/277/209 141/278/214
f 171/276/207 141/278/214 142/279/215
f 171/276/207 146/280/216 149/281/217
f 171/276/207 149/281/217 138/282/213
f 171/269/207 132/283/218 131/272/210
f 171/269/207 135/274/212 132/283/218
f 171/276/207 142/279/215 144/284/219
f 171/276/207 144/284/219 146/280/216
f 158/285/194 156/286/192 157/287/193
f 158/285/194 172/288/220 156/286/192
f 158/285/194 159/289/195 160/290/196
f 172/288/220 158/285/194 160/290/196
f 172/288/220 160/290/196 161/291/197
f 161/291/197 162/292/198 172/288/220
f 172/288/220 162/292/198 164/293/200
f 164/293/200 162/292/198 163/294/199
f 164/293/200 170/295/206 172/288/220
f 173/296/221 174/297/222 175/298/223
f 176/299/224 173/296/221 175/298/223
f 176/299/224 177/300/225 173/296/221
f 178/301/226 173/296/221 177/300/225
f 178/301/226 177/300/225 179/302/227
f 180/303/228 178/301/226 179/302/227
f 173/304/221 178/301/226 180/303/228
f 173/304/221 180/303/228 181/305/229
f 182/306/230 173/304/221 181/305/229
f 174/307/222 173/304/221 182/306/230
f 183/308/231 184/309/232 185/310/233
f 186/311/234 183/308/231 185/310/233
f 187/312/235 186/311/234 185/310/233
f 187/312/235 185/310/233 188/313/236
f 189/314/237 187/312/235 188/313/236
f 188/313/236 190/315/238 189/314/237
f 188/313/236 185/316/233 190/315/238
f 191/317/239 190/315/238 185/316/233
f 191/317/239 185/316/233 192/318/240
f 185/316/233 184/319/232 192/318/240
f 153/320/189 154/321/190 156/322/192
f 153/320/189 156/322/192 172/323/220
f 153/320/189 151/324/187 152/325/188
f 172/323/220 151/324/187 153/320/189
f 150/326/186 151/324/187 172/323/220
f 172/323/220 166/327/202 150/326/186
f 172/323/220 168/328/204 166/327/202
f 168/328/204 167/329/203 166/327/202
f 172/323/220 170/330/206 168/328/204
v -0.009827346 0.04832575 0.04398416
vt 0.3568599 0.6443467
vn -0.02711487 -0.9926758 0.1137085
v -3.339219E-19 0.04832575 0.04519125
vt 0.359375 0.625006
vn 0 -0.9926758 0.1195068
v -3.594984E-06 0.05336776 0.08707269
vt 0.4414063 0.625006
v -0.04390284 0.05292542 0.07563618
vt 0.4207586 0.7120141
vn -0.2990723 -0.7646484 0.5698242
v -0.02620419 0.04832575 0.03630093
vt 0.3416284 0.676587
vn -0.07476807 -0.9936523 0.08251953
v -0.03976846 0.04832575 0.01862364
vt 0.3068121 0.7033013
vn -0.09814453 -0.9941406 0.04467773
v -0.07542906 0.05299221 0.0437085
vt 0.3570597 0.7756554
vn -0.3632813 -0.9077148 0.2089844
v -0.08778095 0.05327996 -5.023541E-06
vt 0.2700772 0.7988803
vn -0.7871094 -0.6162109 0.008346558
v -0.04267686 0.04832575 -0.003467522
vt 0.263319 0.7090332
vn -0.102417 -0.9946289 -0.01094055
v -0.08454456 0.05304746 -0.02287827
vt 0.2250838 0.7929118
vn -0.5341797 -0.8076172 -0.248291
v -0.03414996 0.04832575 -0.0240532
vt 0.2227834 0.692248
vn -0.08795166 -0.9936523 -0.06665039
v -0.04392798 0.05299962 -0.07572738
vt 0.1196342 0.7118506
vn -0.3496094 -0.7797852 -0.5180664
v -0.01647265 0.04832575 -0.03761749
vt 0.1960219 0.6574249
vn -0.04318237 -0.9946289 -0.09088135
v -5.901112E-19 0.04832575 -0.04126556
vt 0.1875 0.625006
vn 0 -0.9941406 -0.1064453
v 7.582339E-10 0.0533318 -0.0878024
vt 0.09765625 0.625006
vn 0 -0.7080078 -0.7060547
v 0.009827346 0.04832575 0.04398416
vt 0.6431404 0.6443462
vn 0.02709961 -0.9926758 0.1137085
vt 0.5585938 0.625006
vt 0.640625 0.625006
v 0.04390284 0.05292542 0.07563618
vt 0.5792347 0.7120126
vn 0.2990723 -0.7646484 0.5698242
v 0.02620419 0.04832575 0.03630093
vt 0.6583716 0.676587
vn 0.07476807 -0.9936523 0.08251953
v 0.03976846 0.04832575 0.01862364
vt 0.6931879 0.7033013
vn 0.09814453 -0.9941406 0.04467773
v 0.07542906 0.05299221 0.0437085
vt 0.6429415 0.7756592
vn 0.3632813 -0.9077148 0.2089844
v 0.08778095 0.05327996 -5.023541E-06
vt 0.7299316 0.7988788
vn 0.7871094 -0.6162109 0.008346558
v 0.04267686 0.04832575 -0.003467522
vt 0.736681 0.7090332
vn 0.102417 -0.9946289 -0.01094055
v 0.08454456 0.05304746 -0.02287827
vt 0.7749162 0.7929118
vn 0.5341797 -0.8076172 -0.248291
v 0.03414996 0.04832575 -0.0240532
vt 0.777217 0.6922421
vn 0.08795166 -0.9936523 -0.06665039
v 0.04392798 0.05299962 -0.07572738
vt 0.8803658 0.7118506
vn 0.3496094 -0.7797852 -0.5180664
v 0.01647265 0.04832575 -0.03761749
vt 0.8039781 0.6574249
vn 0.04318237 -0.9946289 -0.09088135
vt 0.8125 0.625006
vt 0.9023438 0.625006
v 1.923836E-09 0.1705641 -0.05665815
vt 0.7094923 0.8594416
vn 0 0.8164063 -0.5766602
v -4.74713E-08 0.1872993 3.496782E-05
vt 0.8242188 0.859375
vn 0 0.9990234 -0.03842163
v 0.02957644 0.1704927 -0.04945685
vt 0.7229559 0.9196385
vn 0.3276367 0.8457031 -0.4208984
v 0.0568073 0.1706257 -9.078356E-05
vt 0.8241435 0.9752457
vn 0.5258789 0.847168 -0.07250977
v 0.04963003 0.1704563 0.02936129
vt 0.8837063 0.9609674
vn 0.500061 0.8120117 0.2993164
v 0.02930492 0.1705605 0.04924533
vt 0.9248887 0.9193256
vn 0.2958984 0.8544922 0.4257813
v -7.893352E-08 0.1708596 0.05546571
vt 0.9377129 0.8594413
vn 0 0.9238281 0.3823242
vt 0.2905076 0.8594413
v -0.02957644 0.1704927 -0.04945685
vt 0.277044 0.9196382
vn -0.3276367 0.8457031 -0.4208984
vt 0.1757813 0.859375
v -0.0568073 0.1706257 -9.078356E-05
vt 0.1758566 0.9752455
vn -0.5258789 0.847168 -0.07250977
v -0.04963003 0.1704563 0.02936129
vt 0.1162939 0.9609673
vn -0.500061 0.8120117 0.2993164
v -0.02930492 0.1705605 0.04924533
vt 0.07511166 0.9193255
vn -0.2958984 0.8544922 0.4257813
vt 0.06228711 0.8594416
v -0.010977 0.1233244 0.09096054
vt 0.3908157 0.9215283
vn 0.1641846 -0.8237305 -0.5424805
v 1.200597E-05 0.1290033 0.06804221
vt 0.4374316 0.9731975
vn -0.0001046062 -0.9975586 0.06365967
v -1.575517E-05 0.1165033 0.09183207
vt 0.3881037 0.9732825
vn -0.0002397299 -0.8847656 -0.4650879
v -0.02404158 0.1181976 0.08334985
vt 0.4080411 0.9043438
vn 0.9775391 -0.03442383 -0.2069092
v -7.827467E-06 0.1166681 0.09171376
vt 0.3945156 0.8277202
vn 0.0001026988 0.3557129 -0.9345703
v -1.671483E-07 0.1004813 0.08584005
vt 0.4225294 0.8256095
vn 0 0.7861328 -0.6171875
v -7.366073E-08 0.09420507 0.0690415
vt 0.4594226 0.841809
vn 0 0.9985352 -0.04559326
v -0.02314972 0.1146173 0.04944862
vt 0.4599248 0.9156306
vn 0.9536133 0.1148071 0.2773438
v -2.472615E-19 0.1254328 0.04960791
vt 0.4779813 0.9566262
vn 0.0001046062 -0.9077148 0.4191895
v 5.353042E-19 0.1008559 0.04492287
vt 0.4999999 0.8920535
vn 0 0.8623047 0.5058594
v 2.602085E-19 0.1141344 0.03936201
vt 0.4999999 0.921875
vn 0 -0.15271 0.987793
v 0.02314972 0.1146173 0.04944862
vt 0.5400751 0.9156306
vn -0.9536133 0.1152344 0.2773438
vt 0.5220186 0.9566262
vt 0.5405772 0.841809
vt 0.5625681 0.9731975
v 0.02404158 0.1181976 0.08334987
vt 0.5919589 0.9043438
vn -0.9775391 -0.03375244 -0.2072754
vt 0.5774707 0.8256096
vt 0.6054844 0.8277202
v 0.010977 0.1233244 0.09096054
vt 0.6091843 0.9215283
vn -0.1640625 -0.8232422 -0.5424805
vt 0.6118963 0.9732824
vt 0.3203496 0.015625
v -0.08430946 0.0696557 0.04863837
vt 0.3203496 0.0543561
vn -0.8720703 -0.09686279 0.479248
vt 0.2285156 0.015625
v -0.09900244 0.1007969 6.636136E-05
vt 0.2285156 0.1149582
vn -0.9980469 0.02809143 0.0534668
vt 0.4065469 0.015625
v -0.07870988 0.1299877 0.04542768
vt 0.3203496 0.1725888
vn -0.7998047 0.3549805 0.4836426
v -0.08324017 0.1436751 -4.570108E-05
vt 0.2285156 0.2055714
vn -0.8286133 0.550293 0.1015015
vt 0.2285156 0.2929688
v -0.05044115 0.08392978 0.0856232
vt 0.4065469 0.08219582
vn -0.546875 -0.05389404 0.8349609
vt 0.5 0.015625
vt 0.3203496 0.2929688
vt 0.4104074 0.164948
vn -0.6552734 0.2255859 0.7202148
vt 0.4127921 0.178975
vn -0.6088867 0.4060059 0.6811523
vt 0.4151767 0.1930019
vn -0.5478516 0.5932617 0.5893555
vt 0.4222984 0.1471438
vn -0.3688965 0.173584 0.9125977
vt 0.4202207 0.1931411
vn -0.5405273 0.6142578 0.5742188
vt 0.4346755 0.1628277
vn -0.2919922 0.1800537 0.9389648
vt 0.4252647 0.1932804
vn -0.4228516 0.625 0.6552734
vt 0.4080232 0.2929688
v -0.01074627 0.1583185 0.07026239
vt 0.4735374 0.2502155
vn -0.1621094 0.6323242 0.7573242
vt 0.5 0.2929688
vt 0.4353526 0.1935589
vn -0.199707 0.4980469 0.8432617
v 0.01074627 0.1583185 0.07026239
vt 0.5264626 0.2502155
vn 0.1623535 0.6323242 0.7568359
vt 0.5919768 0.2929688
vt 0.48002 0.1597
vn -0.1619873 0.279541 0.9458008
vt 0.435014 0.1781933
vn -0.2553711 0.4006348 0.8793945
vt 0.5747353 0.1932804
vn 0.4228516 0.625 0.6552734
vt 0.6796504 0.2929688
vt 0.5646474 0.1935589
vn 0.199707 0.4980469 0.8432617
vt 0.5797793 0.1931411
vn 0.5405273 0.6142578 0.5742188
vt 0.5848233 0.1930019
vn 0.5478516 0.5932617 0.5893555
vt 0.5199799 0.1597
vn 0.1622314 0.2792969 0.9462891
vt 0.564986 0.1781933
vn 0.2553711 0.4006348 0.8793945
vt 0.5653245 0.1628277
vn 0.2919922 0.1800537 0.9389648
vt 0.5000002 0.145389
vn 0 0.126709 0.9916992
v 0.05044115 0.08392978 0.0856232
vt 0.5934531 0.08219588
vn 0.546875 -0.05392456 0.8349609
vt 0.5777016 0.1471438
vn 0.3688965 0.173584 0.9125977
vt 0.5895927 0.164948
vn 0.6552734 0.2255859 0.7202148
v -2.232526E-09 0.0839759 0.09710833
vt 0.5 0.08219588
vn 0 -0.102356 0.9946289
vt 0.5 0.1450292
vn 0 0.1627197 0.9863281
vt 0.5934531 0.015625
v 0.08430946 0.0696557 0.04863837
vt 0.6796504 0.0543561
vn 0.8720703 -0.09686279 0.479248
vt 0.6796504 0.015625
vt 0.7714844 0.015625
v 0.09900244 0.1007969 6.636136E-05
vt 0.7714844 0.1149582
vn 0.9980469 0.02809143 0.0534668
v 0.07870988 0.1299877 0.04542768
vt 0.6796504 0.1725888
vn 0.7998047 0.3549805 0.4836426
v 0.08324017 0.1436751 -4.570108E-05
vt 0.7714844 0.2055714
vn 0.8286133 0.550293 0.1015015
vt 0.587208 0.1789749
vn 0.6088867 0.4060059 0.6811523
vt 0.7714844 0.2929688
vt 0.7714844 0.5898438
vt 0.7270879 0.5898438
v 0.08614929 0.08378442 -0.04974402
vt 0.6816703 0.5235357
vn 0.840332 -0.08325195 -0.5351563
vt 0.7714844 0.4907734
vt 0.5928738 0.5898438
v 0.08766625 0.1301725 -0.02361941
vt 0.7270879 0.4331427
vn 0.8417969 0.4160156 -0.3427734
vt 0.7714844 0.4001601
vt 0.7714844 0.3125
v 0.04965968 0.08394309 -0.0862218
vt 0.5928738 0.5235357
vn 0.5205078 -0.02642822 -0.8530273
v 0.05901162 0.1436537 -0.05896773
vt 0.6369002 0.4001601
vn 0.6347656 0.5014648 -0.5874023
vt 0.5928738 0.3125
vt 0.5 0.5898438
v 0.02354212 0.1300729 -0.08777159
vt 0.5469381 0.4331427
vn 0.2763672 0.4206543 -0.8637695
vt 0.5 0.3125
v 7.406297E-10 0.1006154 -0.09902493
vt 0.5 0.4907734
vn 0 -0.005256653 -0.9995117
v -0.02354212 0.1300729 -0.08777159
vt 0.4530619 0.4331427
vn -0.2763672 0.4206543 -0.8637695
vt 0.4071262 0.3125
v -0.04965968 0.08394309 -0.0862218
vt 0.4071262 0.5235357
vn -0.5205078 -0.02642822 -0.8530273
vt 0.4071262 0.5898438
v -0.05901162 0.1436537 -0.05896773
vt 0.3630998 0.4001602
vn -0.6347656 0.5014648 -0.5874023
vt 0.2285156 0.3125
v -0.08614929 0.08378442 -0.04974402
vt 0.3183297 0.5235357
vn -0.840332 -0.08325195 -0.5351563
vt 0.2729121 0.5898438
vt 0.2285156 0.5898438
vt 0.2285156 0.4907734
v -0.08766625 0.1301725 -0.02361941
vt 0.2729121 0.4331427
vn -0.8417969 0.4160156 -0.3427734
vt 0.2285156 0.4001602
o pm0812_00_00_body_a_mesh_shape_lod1_body_a
g polygon_0
usemtl body_a
f 193/331/241 194/332/242 195/333/60
f 193/331/241 195/333/60 196/334/243
f 197/335/244 193/331/241 196/334/243
f 196/334/243 198/336/245 197/335/244
f 199/337/246 198/336/245 196/334/243
f 199/337/246 200/338/247 198/336/245
f 200/338/247 201/339/248 198/336/245
f 200/338/247 202/340/249 201/339/248
f 202/340/249 203/341/250 201/339/248
f 204/342/251 203/341/250 202/340/249
f 204/342/251 205/343/252 203/341/250
f 204/342/251 206/344/253 205/343/252
f 207/345/254 206/344/253 204/342/251
f 208/346/255 195/347/60 194/348/242
f 195/347/60 208/346/255 209/349/256
f 209/349/256 208/346/255 210/350/257
f 210/350/257 211/351/258 209/349/256
f 209/349/256 211/351/258 212/352/259
f 212/352/259 211/351/258 213/353/260
f 211/351/258 214/354/261 213/353/260
f 213/353/260 214/354/261 215/355/262
f 214/354/261 216/356/263 215/355/262
f 215/355/262 216/356/263 217/357/264
f 216/356/263 218/358/265 217/357/264
f 218/358/265 206/359/253 217/357/264
f 217/357/264 206/359/253 207/360/254
f 219/361/266 220/362/267 221/363/268
f 222/364/269 221/363/268 220/362/267
f 223/365/270 222/364/269 220/362/267
f 223/365/270 220/362/267 224/366/271
f 225/367/272 224/366/271 220/362/267
f 219/368/266 226/369/273 220/370/267
f 227/371/274 220/370/267 226/369/273
f 220/370/267 227/371/274 228/372/275
f 220/370/267 228/372/275 229/373/276
f 229/373/276 225/374/272 220/370/267
f 230/375/277 231/376/278 232/377/279
f 233/378/280 231/376/278 230/375/277
f 234/379/281 233/378/280 230/375/277
f 235/380/282 233/378/280 234/379/281
f 236/381/283 233/378/280 235/380/282
f 233/378/280 237/382/284 231/376/278
f 236/381/283 237/382/284 233/378/280
f 238/383/285 231/376/278 237/382/284
f 236/381/283 239/384/286 237/382/284
f 238/383/285 237/382/284 240/385/287
f 237/382/284 239/384/286 240/385/287
f 240/385/287 239/384/286 241/386/288
f 238/387/285 240/385/287 241/386/288
f 236/388/283 241/386/288 239/384/286
f 238/387/285 241/386/288 231/389/278
f 236/388/283 242/390/289 241/386/288
f 242/390/289 231/389/278 241/386/288
f 235/391/282 242/390/289 236/388/283
f 235/391/282 234/392/281 242/390/289
f 234/392/281 243/393/290 242/390/289
f 242/390/289 243/393/290 231/389/278
f 232/394/279 231/389/278 243/393/290
f 199/395/246 244/396/291 200/397/247
f 200/397/247 244/396/291 245/398/292
f 199/395/246 196/399/243 244/396/291
f 246/400/293 245/398/292 244/396/291
f 247/401/294 245/398/292 246/400/293
f 227/402/274 247/401/294 246/400/293
f 244/396/291 196/399/243 248/403/295
f 244/396/291 248/403/295 246/400/293
f 195/404/60 248/403/295 196/399/243
f 227/402/274 246/400/293 228/405/275
f 246/400/293 248/403/295 15/406/296
f 15/406/296 16/407/297 246/400/293
f 246/400/293 16/407/297 14/408/298
f 14/408/298 228/405/275 246/400/293
f 248/403/295 17/409/299 15/406/296
f 14/408/298 13/410/300 228/405/275
f 248/403/295 11/411/301 17/409/299
f 228/405/275 13/410/300 18/412/302
f 228/405/275 18/412/302 229/413/276
f 229/413/276 18/412/302 249/414/303
f 225/415/272 229/413/276 249/414/303
f 249/414/303 18/412/302 10/416/304
f 225/415/272 249/414/303 250/417/305
f 224/418/271 225/415/272 250/417/305
f 10/416/304 230/419/306 249/414/303
f 12/420/307 230/419/306 10/416/304
f 11/411/301 230/419/306 12/420/307
f 230/419/306 11/411/301 248/403/295
f 250/417/305 4/421/308 224/418/271
f 224/418/271 4/421/308 223/422/270
f 1/423/309 4/421/308 250/417/305
f 223/422/270 4/421/308 7/424/310
f 223/422/270 7/424/310 8/425/311
f 243/426/312 1/423/309 250/417/305
f 243/426/312 250/417/305 249/414/303
f 243/426/312 2/427/313 1/423/309
f 230/419/306 243/426/312 249/414/303
f 3/428/314 2/427/313 243/426/312
f 243/426/312 230/419/306 232/429/315
f 251/430/316 3/428/314 243/426/312
f 5/431/317 3/428/314 251/430/316
f 251/430/316 6/432/318 5/431/317
f 248/403/295 252/433/319 230/419/306
f 230/419/306 252/433/319 234/434/320
f 252/433/319 243/426/312 234/434/320
f 251/430/316 243/426/312 252/433/319
f 195/404/60 252/433/319 248/403/295
f 195/404/60 251/430/316 252/433/319
f 195/404/60 209/435/256 251/430/316
f 209/435/256 253/436/321 251/430/316
f 212/437/259 253/436/321 209/435/256
f 213/438/260 253/436/321 212/437/259
f 213/438/260 254/439/322 253/436/321
f 251/430/316 253/436/321 255/440/323
f 254/439/322 255/440/323 253/436/321
f 255/440/323 6/432/318 251/430/316
f 256/441/324 255/440/323 254/439/322
f 255/440/323 9/442/325 6/432/318
f 256/441/324 222/443/269 255/440/323
f 255/440/323 8/425/311 9/442/325
f 222/443/269 223/422/270 255/440/323
f 8/425/311 255/440/323 223/422/270
f 213/444/260 215/445/262 257/446/326
f 213/444/260 257/446/326 254/447/322
f 257/446/326 215/445/262 217/448/264
f 257/446/326 258/449/327 254/447/322
f 258/449/327 256/450/324 254/447/322
f 222/451/269 256/450/324 258/449/327
f 257/446/326 217/448/264 259/452/328
f 260/453/329 222/451/269 258/449/327
f 257/446/326 260/453/329 258/449/327
f 259/452/328 260/453/329 257/446/326
f 221/454/268 222/451/269 260/453/329
f 259/452/328 217/448/264 207/455/254
f 261/456/330 221/454/268 260/453/329
f 259/452/328 261/456/330 260/453/329
f 219/457/266 221/454/268 261/456/330
f 262/458/331 259/452/328 207/455/254
f 262/458/331 261/456/330 259/452/328
f 263/459/332 219/457/266 261/456/330
f 261/456/330 262/458/331 263/459/332
f 219/457/266 263/459/332 226/460/273
f 262/458/331 207/455/254 264/461/333
f 263/459/332 262/458/331 264/461/333
f 264/461/333 207/455/254 204/462/251
f 226/460/273 263/459/332 265/463/334
f 264/461/333 265/463/334 263/459/332
f 226/460/273 265/463/334 227/464/274
f 266/465/335 264/461/333 204/462/251
f 264/461/333 266/465/335 265/463/334
f 202/466/249 266/465/335 204/462/251
f 200/467/247 266/465/335 202/466/249
f 266/465/335 200/467/247 245/468/292
f 227/464/274 265/463/334 267/469/336
f 265/463/334 266/465/335 267/469/336
f 266/465/335 245/468/292 267/469/336
f 227/464/274 267/469/336 247/470/294
f 247/470/294 267/469/336 245/468/292
