mtllib pm0339_00_00_lod2.mtl
v 0.03014501 0.009071508 0.1627057
vt 0.283355 0.6894578
vn 0.8134766 0.1665039 0.5566406
v 0.02737084 0.01202844 0.165875
vt 0.5905972 0.9541665
v 0.02931632 0.001518649 0.1661769
vt 0.5911955 0.05042112
o pm0339_00_00_eye_mesh_shape_lod2_l_eye
g polygon_0
usemtl l_eye
f 1/1/1 2/2/1 3/3/1
v -0.02737084 0.01202844 0.165875
vn -0.8134766 0.1665039 0.5566406
v -0.03014501 0.009071508 0.1627057
vt 0.2833549 0.6894578
v -0.02931632 0.001518649 0.1661769
o pm0339_00_00_eye_mesh_shape_lod2_r_eye
g polygon_0
usemtl r_eye
f 4/2/2 5/4/2 6/3/2
v 0.0141202 -0.02863614 0.1746551
vt 0.5117188 1.09367
vn 0.02296448 -0.2070313 0.9780273
v 0.02867134 -0.03745358 0.1724462
vt 0.5990611 1.132692
vn 0.08465576 -0.1862793 0.9785156
v 0.02200112 -0.02065379 0.1760826
vt 0.5117193 1.164897
vn 0.06390381 -0.1867676 0.9799805
v 0.02893075 -0.05012465 0.1695073
vt 0.6434668 1.093669
vn -0.1933594 0.03851318 -0.9799805
v 0.02297262 -0.02170264 0.1718002
vt 0.5187523 1.022443
vn -0.2191162 -0.0802002 -0.972168
vt 0.5990609 1.054647
vn 0.1003418 -0.004493713 -0.9946289
vn -0.3120117 0.007289886 -0.949707
vn 0.01110077 -0.2255859 0.9741211
v 0.04125292 -0.04031217 0.1698466
vt 0.6400661 1.167448
vn 0.1687012 -0.144043 0.9746094
vt 0.6438563 1.020703
vn 0.7124023 0.7011719 -0.01004028
vn 0.8007813 0.597168 0.03533936
vt 0.5117188 1.015625
vn 0.9555664 -0.2749023 0.1056519
vn -0.2272949 -0.1218262 -0.9658203
v 0.03768927 0.05562137 0.1807457
vt 0.5322468 1.505483
vn -0.8798828 0.3737793 -0.2929688
v 0.01675591 0.01384992 0.1821704
vt 0.5425106 1.28125
vn -0.7993164 0.2736816 0.5341797
v 0.02648138 0.03523608 0.1869139
vt 0.5630389 1.391209
vn -0.7612305 0.4106445 0.5014648
v 0.03224953 0.03271484 0.1845765
vt 0.5117188 1.391209
vn 0.4348145 -0.2374268 -0.8681641
vn 0.07092285 0.01727295 -0.9970703
vn 0.6748047 -0.2971191 -0.6748047
v 0.0173102 0.002127171 0.1878074
vt 0.5835668 1.231356
vn 0.5981445 0.409668 0.6879883
v 0.01364804 0.006723569 0.1826315
vt 0.5425106 1.243516
vn -0.01457977 0.7822266 0.6220703
v 0.01829778 0.003673236 0.1818978
vt 0.5219828 1.239703
vn -0.1337891 0.03427124 -0.9902344
vn -0.1231689 0.01643372 -0.9921875
v 0.02177666 0.01166127 0.1817043
vt 0.5219828 1.28125
vn -0.04934692 0.1119995 -0.9921875
v -0.02200112 -0.02065379 0.1760826
vt 0.4882807 1.164897
vn -0.06390381 -0.1867676 0.9799805
v -0.02867134 -0.03745358 0.1724462
vt 0.4009389 1.132692
vn -0.08465576 -0.1862793 0.9785156
v -0.0141202 -0.02863614 0.1746551
vt 0.4882813 1.09367
vn -0.02296448 -0.2070313 0.9780273
v -0.02893075 -0.05012465 0.1695073
vt 0.3565332 1.093669
vn 0.1933594 0.03851318 -0.9799805
vt 0.4009391 1.054647
vn -0.1003418 -0.004493713 -0.9946289
v -0.02297262 -0.02170264 0.1718002
vt 0.4812477 1.022443
vn 0.2191162 -0.0802002 -0.972168
vn 0.3120117 0.007289886 -0.949707
vn -0.01110077 -0.2255859 0.9741211
v -0.04125292 -0.04031217 0.1698466
vt 0.3599339 1.167448
vn -0.1687012 -0.144043 0.9746094
vt 0.4882813 1.015625
vn -0.9555664 -0.2749023 0.1056519
vn -0.8007813 0.597168 0.03533936
vt 0.3561437 1.020703
vn -0.7124023 0.7011719 -0.01004028
vn 0.2272949 -0.1218262 -0.9658203
v -0.0167559 0.01384992 0.1821704
vt 0.4574893 1.28125
vn 0.7993164 0.2736816 0.5341797
v -0.03768926 0.05562137 0.1807457
vt 0.4677532 1.505483
vn 0.8798828 0.3737793 -0.2929688
v -0.02648138 0.03523608 0.1869139
vt 0.4369611 1.391209
vn 0.7612305 0.4106445 0.5014648
vn -0.07092285 0.01727295 -0.9970703
v -0.03224953 0.03271485 0.1845765
vt 0.4882813 1.391209
vn -0.4348145 -0.2374268 -0.8681641
vn -0.6748047 -0.2971191 -0.6748047
v -0.01364804 0.00672357 0.1826315
vt 0.4574893 1.243516
vn 0.01457977 0.7822266 0.6220703
v -0.0173102 0.002127172 0.1878074
vt 0.4164332 1.231356
vn -0.5981445 0.409668 0.6879883
v -0.01829778 0.003673237 0.1818978
vt 0.4780172 1.239703
vn 0.1337891 0.03427124 -0.9902344
v -0.02177666 0.01166127 0.1817043
vt 0.4780172 1.28125
vn 0.04934692 0.1119995 -0.9921875
vn 0.1231689 0.01643372 -0.9921875
vt 0.5938311 1.391209
vn 0.3911133 -0.1256104 0.9116211
v 0.03590195 0.05645862 0.1867637
vt 0.5630389 1.505483
vn 0.2770996 -0.1362305 0.9506836
v 0.02084814 0.01207027 0.187811
vt 0.5835668 1.28125
vn 0.01122284 -0.147583 0.9887695
vt 0.5938311 1.2341
vn 0.9306641 0.2966309 0.2128906
v -0.03590194 0.05645863 0.1867637
vt 0.4369611 1.505483
vn -0.2770996 -0.1362305 0.9506836
vt 0.406169 1.391209
vn -0.3911133 -0.1256104 0.9116211
v -0.02084814 0.01207028 0.187811
vt 0.4164332 1.28125
vn -0.01122284 -0.147583 0.9887695
vt 0.406169 1.2341
vn -0.9306641 0.2966309 0.2128906
vt 0.5938311 1.28125
vn 0.8833008 -0.4384766 0.1636963
vn -0.8793945 0.3703613 -0.2983398
v 0.04626369 0.07728503 0.1805908
vt 0.5322468 1.628247
vn -0.8920898 0.4121094 -0.1829834
v 0.0407752 0.05430959 0.1850637
vt 0.5938311 1.505483
vn 0.2810059 -0.137085 0.949707
v 0.04513911 0.07769211 0.1873025
vt 0.5630389 1.628247
vn 0.3625488 -0.1291504 0.9228516
vt 0.5117188 1.505483
vn 0.7260742 -0.3098145 -0.6132813
v 0.05068232 0.075524 0.1847896
vt 0.5117188 1.628247
vn 0.628418 -0.2272949 -0.7431641
vn -0.8925781 0.4145508 -0.1746826
v 0.06315748 0.1141405 0.1845356
vt 0.5527813 1.867217
vn -0.8876953 0.4255371 -0.1745605
vt 0.5938311 1.628247
vn 0.3669434 -0.1290283 0.9208984
vn 0.3725586 -0.1143188 0.9204102
vn 0.6230469 -0.2232666 -0.7490234
vn 0.6289063 -0.2080078 -0.7490234
vt 0.406169 1.28125
vn -0.8833008 -0.4384766 0.1636963
vn 0.8793945 0.3703613 -0.2983398
v -0.04626369 0.07728504 0.1805908
vt 0.4677532 1.628247
vn 0.8920898 0.4121094 -0.1829834
v -0.0407752 0.0543096 0.1850637
vt 0.406169 1.505483
vn -0.2810059 -0.137085 0.949707
v -0.04513911 0.07769211 0.1873025
vt 0.4369611 1.628247
vn -0.3625488 -0.1291504 0.9228516
vt 0.4882813 1.505483
vn -0.7260742 -0.3098145 -0.6132813
v -0.05068231 0.07552402 0.1847896
vt 0.4882813 1.628247
vn -0.628418 -0.2272949 -0.7431641
vn 0.8925781 0.4145508 -0.1746826
v -0.06315748 0.1141405 0.1845356
vt 0.4472186 1.867217
vn 0.8876953 0.4255371 -0.1745605
vt 0.406169 1.628247
vn -0.3669434 -0.1290283 0.9208984
vn -0.3725586 -0.1143188 0.9204102
vn -0.6230469 -0.2232666 -0.7490234
vn -0.6289063 -0.2080078 -0.7490234
v -1.421062E-07 -0.03856156 0.1317082
vt 0.6213436 1.95245
vn 0 -0.9980469 0.0585022
v 4.7392E-08 -0.03814392 0.09409676
vt 0.6233234 1.827959
vn 0 -0.9995117 -0.01028442
v 0.01848786 -0.0329961 0.1319611
vt 0.6793905 1.949337
vn 0.5009766 -0.8623047 0.07073975
v 0.01782483 -0.03220171 0.1080664
vt 0.6797394 1.873812
vn 0.5664063 -0.8227539 -0.03494263
v 0.03161269 -0.01961004 0.1327966
vt 0.7366688 1.948148
vn 0.8564453 -0.5136719 0.04052734
v 0.03023951 -0.01809961 0.09411804
vt 0.7401836 1.830307
vn 0.8935547 -0.4484863 -0.01280975
v 0.03634699 -0.0008554274 0.134082
vt 0.7937996 1.951325
vn 0.9975586 0.06384277 -0.01882935
v 0.01734544 -0.03224773 0.07875868
vt 0.6824918 1.781108
vn 0.5302734 -0.8476563 -0.01321411
v 0.03539523 0.0006010935 0.09413859
vt 0.8015339 1.831314
vn 0.9990234 -0.02432251 -0.02890015
v 0.02897455 0.02798934 0.1375954
vt 0.8818716 1.967218
vn 0.7460938 0.6606445 0.07781982
v 0.03071778 -0.01845322 0.07873192
vt 0.7414136 1.782694
vn 0.9077148 -0.4179688 -0.01873779
v 0.03082009 0.01933297 0.1080664
vt 0.8611493 1.875983
vn 0.8847656 0.4645996 -0.03302002
v 0.01640936 -0.03237679 0.03210181
vt 0.6875089 1.634889
vn 0.5776367 -0.8154297 -0.01940918
v -8.187771E-09 -0.03748301 0.04810791
vt 0.6315778 1.682055
vn 0 -0.9995117 -0.01526642
v 0.01814905 0.03407213 0.1080588
vt 0.9220874 1.87969
vn 0.4997559 0.8652344 -0.02619934
v -2.178353E-06 0.04106766 0.1392403
vt 0.9726563 1.988281
vn 0 0.9936523 0.109314
v 4.908848E-07 0.0388996 0.09408245
vt 0.9814582 1.836949
vn 0 0.9995117 0.007514954
v 0.008989038 0.03830164 0.0787628
vt 0.9536287 1.787462
vn 0.3867188 0.921875 -0.003494263
v 0.02448778 0.0278919 0.07875402
vt 0.8953514 1.78645
vn 0.7407227 0.6708984 -0.01509857
v 0.03427549 0.01056344 0.07873405
vt 0.8342797 1.78489
vn 0.9833984 0.1778564 -0.01860046
v 0.01634925 0.03399451 0.03210824
vt 0.926687 1.640679
vn 0.5585938 0.8286133 -0.02436829
v 4.620108E-09 0.03925434 0.06309071
vt 0.9808259 1.737802
vn 0 0.9990234 -0.03741455
v -2.959014E-09 0.03934133 0.03209678
vt 0.9796388 1.640325
vn 0 0.9995117 -0.0120697
v 0.02874385 0.01995146 0.03210183
vt 0.8684107 1.640339
vn 0.8920898 0.4492188 -0.03939819
v 0.03358587 0.0008151805 0.03210991
vt 0.8070596 1.639231
vn 0.9990234 -0.01091003 -0.03329468
v 0.02866923 -0.01822423 0.03210171
vt 0.7457299 1.637371
vn 0.8847656 -0.4641113 -0.02992249
v 0.03229784 0.0008161033 -0.01588056
vt 0.8106525 1.489323
vn 0.9980469 -0.05233765 -0.01641846
v 0.02783852 0.01970534 0.0001168796
vt 0.8699096 1.540306
vn 0.8681641 0.4946289 -0.02815247
v 0.01548538 0.03330161 -0.0158827
vt 0.9272799 1.490424
vn 0.5644531 0.824707 -0.02659607
v 3.285641E-09 0.03819025 0.0001368371
vt 0.9782902 1.540071
vn 0 0.9995117 -0.02842712
v 1.360772E-10 0.03800234 -0.03189012
vt 0.9767213 1.439709
vn 0 0.9995117 -0.02359009
v 0.02737447 -0.01773428 -0.01586625
vt 0.7507217 1.487451
vn 0.9052734 -0.4230957 -0.02693176
v 0.01467119 0.03219366 -0.04784729
vt 0.9273778 1.390106
vn 0.5922852 0.8041992 -0.04284668
v 0.007875358 0.03598618 -0.06383536
vt 0.9516996 1.33919
vn 0.4301758 0.9018555 -0.02740479
v 0.02663864 0.01928566 -0.04786652
vt 0.8718756 1.390391
vn 0.8603516 0.5083008 -0.03140259
v 0.0267485 0.01917434 -0.03185553
vt 0.8712678 1.440309
vn 0.8911133 0.4526367 -0.02236938
v 0.03239361 0.0007341923 -0.03188848
vt 0.8118266 1.439419
vn 0.9995117 -0.005851746 -0.02839661
v 0.02603938 0.01873619 -0.07984278
vt 0.8725959 1.291022
vn 0.8720703 0.4885254 -0.002418518
v 0.00683631 0.03429189 -0.09581911
vt 0.9486536 1.23666
vn 0.3603516 0.9311523 -0.05407715
v 2.290992E-11 0.03577007 -0.07982481
vt 0.97308 1.287248
vn 0 0.9985352 -0.05343628
v 0.02108645 0.02624111 -0.09604711
vt 0.8994271 1.240339
vn 0.7441406 0.6635742 -0.07598877
v 0.03009772 0.0008546847 -0.07983443
vt 0.8152839 1.291011
vn 0.9990234 0.0001952648 -0.03625488
v 0.007182471 0.03219943 -0.1251424
vt 0.9343007 1.141248
vn 0.5083008 0.8427734 -0.175415
v -5.715193E-10 0.03484693 -0.1114299
vt 0.9655011 1.182762
vn 0 0.9970703 -0.07092285
v -9.105484E-10 0.02988957 -0.1375462
vt 0.9387611 1.091932
vn 0 0.9501953 -0.3112793
v 0.009185233 0.02424147 -0.1493556
vt 0.8946022 1.068827
vn 0.574707 0.6699219 -0.4689941
v 0.02857436 0.009674971 -0.09580631
vt 0.844171 1.24253
vn 0.972168 0.2177734 -0.08514404
v 0.02452402 0.009197838 -0.1364887
vt 0.8418281 1.121084
vn 0.8974609 0.3693848 -0.2403564
v 0.01352498 0.007875252 -0.1535369
vt 0.8423849 1.062685
vn 0.7041016 0.1380615 -0.6962891
v 9.531816E-10 0.008341177 -0.1599716
vt 0.8485476 1.018992
vn 0 0.2744141 -0.9614258
v 0.007325665 -0.007006634 -0.1585709
vt 0.796064 1.037975
vn 0.4797363 -0.2386475 -0.8442383
v 0.02469202 -0.007083546 -0.1365384
vt 0.7964365 1.120122
vn 0.9301758 -0.2626953 -0.255127
v 0.01220615 -0.01968057 -0.1465189
vt 0.7561477 1.078583
vn 0.6230469 -0.6025391 -0.4980469
v -5.16912E-10 -0.02279066 -0.1504203
vt 0.7320675 1.047609
vn 0 -0.7924805 -0.609375
v 6.89775E-10 -0.03303885 -0.1267363
vt 0.6825302 1.124691
vn 0 -0.9775391 -0.2093506
v 0.02882359 -0.008211794 -0.09585504
vt 0.7886618 1.241236
vn 0.9663086 -0.239624 -0.08886719
v 0.01442638 -0.02777528 -0.1255022
vt 0.7243922 1.141087
vn 0.6918945 -0.703125 -0.1623535
v 0.007041289 -0.03290808 -0.09579901
vt 0.6844918 1.230601
vn 0.3166504 -0.9477539 -0.02954102
v 0.02013564 -0.02373336 -0.09584823
vt 0.7335434 1.236488
vn 0.7587891 -0.6474609 -0.06103516
v 0.0259902 -0.01693671 -0.0798533
vt 0.7580305 1.288355
vn 0.8964844 -0.4411621 -0.03112793
v 0.01407747 -0.0296461 -0.07983334
vt 0.7040685 1.284096
vn 0.5664063 -0.8227539 -0.03207397
v 7.682678E-10 -0.03483674 -0.07986511
vt 0.6577772 1.279986
vn 0 -0.9995117 -0.02734375
v 0.02627788 -0.01722213 -0.04784412
vt 0.7541368 1.387625
vn 0.8920898 -0.4509277 -0.01322174
v 0.01491068 -0.03087245 -0.047863
vt 0.6987278 1.384753
vn 0.5644531 -0.8237305 -0.04241943
v 5.338884E-10 -0.03552029 -0.04784796
vt 0.6504232 1.381717
vn 0 -0.9990234 -0.03665161
v 0.007637288 -0.03489139 -0.03186236
vt 0.6710587 1.433435
vn 0.3408203 -0.9394531 -0.02845764
v 0.02234583 -0.02546404 -0.03187842
vt 0.7236277 1.43624
vn 0.7714844 -0.6347656 -0.03671265
v 0.01564096 -0.03192406 0.0001096523
vt 0.6918842 1.534894
vn 0.5463867 -0.8369141 -0.01835632
v -6.505065E-10 -0.03617737 -0.01586238
vt 0.6439331 1.482021
vn 0 -0.9995117 0.007583618
v 3.786122E-09 -0.03674031 0.0001230086
vt 0.6407996 1.532011
vn 0 -0.9995117 -0.02035522
vt 0.3766765 1.827959
vt 0.3786564 1.95245
v -0.01848786 -0.0329961 0.1319611
vt 0.3206094 1.949337
vn -0.5009766 -0.8623047 0.07073975
v -0.01782483 -0.03220171 0.1080664
vt 0.3202606 1.873812
vn -0.5664063 -0.8227539 -0.03494263
v -0.03161269 -0.01961004 0.1327966
vt 0.2633311 1.948148
vn -0.8564453 -0.5136719 0.04052734
v -0.03023951 -0.01809961 0.09411804
vt 0.2598164 1.830307
vn -0.8935547 -0.4484863 -0.01280975
v -0.03634699 -0.0008554274 0.134082
vt 0.2062003 1.951325
vn -0.9975586 0.06384277 -0.01882935
v -0.01734544 -0.03224773 0.07875868
vt 0.3175083 1.781108
vn -0.5302734 -0.8476563 -0.01321411
v -0.03539523 0.0006010935 0.09413859
vt 0.1984661 1.831314
vn -0.9990234 -0.02432251 -0.02890015
v -0.02897455 0.02798934 0.1375954
vt 0.1181284 1.967218
vn -0.7460938 0.6606445 0.07781982
v -0.03071778 -0.01845322 0.07873192
vt 0.2585864 1.782694
vn -0.9077148 -0.4179688 -0.01873779
v -0.03082009 0.01933297 0.1080664
vt 0.1388507 1.875983
vn -0.8847656 0.4645996 -0.03302002
v -0.01640936 -0.03237679 0.03210181
vt 0.3124911 1.634889
vn -0.5776367 -0.8154297 -0.01940918
vt 0.3684222 1.682055
v -0.01814905 0.03407213 0.1080588
vt 0.07791264 1.87969
vn -0.4997559 0.8652344 -0.02622986
vt 0.02734375 1.988281
vt 0.01854178 1.836949
v -0.03427549 0.01056344 0.07873405
vt 0.1657203 1.78489
vn -0.9833984 0.1778564 -0.01860046
v -0.02448778 0.0278919 0.07875402
vt 0.1046486 1.78645
vn -0.7407227 0.6708984 -0.01509857
v -0.008989038 0.03830164 0.0787628
vt 0.04637131 1.787462
vn -0.3867188 0.921875 -0.003492355
vt 0.01872703 1.787504
vt 0.01917413 1.737802
v -0.01634925 0.03399451 0.03210824
vt 0.07331303 1.640679
vn -0.5585938 0.8286133 -0.02436829
vt 0.02036121 1.640325
v -0.02874385 0.01995146 0.03210183
vt 0.1315893 1.640339
vn -0.8920898 0.4492188 -0.03939819
v -0.03358587 0.0008151805 0.03210991
vt 0.1929403 1.639231
vn -0.9990234 -0.01091003 -0.03329468
v -0.02783852 0.01970534 0.0001168796
vt 0.1300904 1.540306
vn -0.8681641 0.4946289 -0.02815247
v -0.02866923 -0.01822423 0.03210171
vt 0.2542701 1.637371
vn -0.8847656 -0.4641113 -0.02992249
v -0.03229784 0.0008161033 -0.01588056
vt 0.1893475 1.489323
vn -0.9980469 -0.05233765 -0.01641846
v -0.02737447 -0.01773428 -0.01586625
vt 0.2492783 1.487451
vn -0.9052734 -0.4230957 -0.02693176
v -0.01564096 -0.03192406 0.0001096523
vt 0.3081159 1.534894
vn -0.5463867 -0.8369141 -0.01835632
vt 0.3592003 1.532011
vt 0.356067 1.482021
v -0.03239361 0.0007341923 -0.03188848
vt 0.1881734 1.439419
vn -0.9995117 -0.005851746 -0.02839661
v -0.02234583 -0.02546404 -0.03187842
vt 0.2763723 1.43624
vn -0.7714844 -0.6347656 -0.03671265
v -0.007637288 -0.03489139 -0.03186236
vt 0.3289413 1.433435
vn -0.3408203 -0.9394531 -0.02845764
vt 0.3528689 1.431951
vt 0.3495768 1.381717
v -0.01491068 -0.03087245 -0.047863
vt 0.3012722 1.384753
vn -0.5644531 -0.8237305 -0.04241943
vt 0.3422228 1.279986
v -0.02627788 -0.01722213 -0.04784412
vt 0.2458632 1.387625
vn -0.8920898 -0.4509277 -0.01322174
v -0.01407747 -0.0296461 -0.07983334
vt 0.2959315 1.284096
vn -0.5664063 -0.8227539 -0.03207397
v -0.0259902 -0.01693671 -0.0798533
vt 0.2419694 1.288355
vn -0.8964844 -0.4411621 -0.03112793
v -0.007041289 -0.03290808 -0.09579901
vt 0.3155082 1.230601
vn -0.3166504 -0.9477539 -0.02954102
vt 0.3372583 1.228008
vt 0.3174699 1.124691
v -0.02013564 -0.02373336 -0.09584823
vt 0.2664566 1.236488
vn -0.7587891 -0.6474609 -0.06103516
v -0.01442638 -0.02777528 -0.1255022
vt 0.2756079 1.141087
vn -0.6918945 -0.703125 -0.1623535
v -0.02882359 -0.008211794 -0.09585504
vt 0.2113381 1.241236
vn -0.9663086 -0.239624 -0.08886719
v -0.01220615 -0.01968057 -0.1465189
vt 0.2438522 1.078583
vn -0.6230469 -0.6025391 -0.4980469
vt 0.2679325 1.047609
v -0.02469202 -0.007083546 -0.1365384
vt 0.2035634 1.120122
vn -0.9301758 -0.2626953 -0.255127
v -0.007325665 -0.007006634 -0.1585709
vt 0.203936 1.037975
vn -0.4797363 -0.2386475 -0.8442383
vt 0.2077526 1.018129
vt 0.1514524 1.018992
v -0.01352498 0.007875252 -0.1535369
vt 0.157615 1.062685
vn -0.7041016 0.1380615 -0.6962891
v -0.02452402 0.009197838 -0.1364887
vt 0.1581719 1.121084
vn -0.8974609 0.3693848 -0.2403564
v -0.009185233 0.02424147 -0.1493556
vt 0.1053978 1.068827
vn -0.574707 0.6699219 -0.4689941
vt 0.09084842 1.052067
vt 0.06123886 1.091932
v -0.02857436 0.009674971 -0.09580631
vt 0.1558289 1.24253
vn -0.972168 0.2177734 -0.08514404
v -0.007182471 0.03219943 -0.1251424
vt 0.06569931 1.141248
vn -0.5083008 0.8427734 -0.175415
vt 0.0344989 1.182762
v -0.02108645 0.02624111 -0.09604711
vt 0.100573 1.240339
vn -0.7441406 0.6635742 -0.07598877
v -0.00683631 0.03429189 -0.09581911
vt 0.05134639 1.23666
vn -0.3603516 0.9311523 -0.05407715
vt 0.02953991 1.234944
vt 0.02691993 1.287248
v -0.007875358 0.03598618 -0.06383536
vt 0.04830042 1.33919
vn -0.4301758 0.9018555 -0.02740479
vt 0.02533206 1.338589
vt 0.02327868 1.439709
v -0.02603938 0.01873619 -0.07984278
vt 0.1274041 1.291022
vn -0.8720703 0.4885254 -0.002418518
v -0.03009772 0.0008546847 -0.07983443
vt 0.1847161 1.291011
vn -0.9990234 0.0001952648 -0.03625488
v -0.02663864 0.01928566 -0.04786652
vt 0.1281243 1.390391
vn -0.8603516 0.5083008 -0.03140259
v -0.01467119 0.03219366 -0.04784729
vt 0.07262221 1.390106
vn -0.5922852 0.8041992 -0.04284668
v -0.01548538 0.03330161 -0.0158827
vt 0.07272008 1.490424
vn -0.5644531 0.824707 -0.02659607
vt 0.02170977 1.540071
v -0.0267485 0.01917434 -0.03185553
vt 0.1287322 1.440309
vn -0.8911133 0.4526367 -0.02236938
o pm0339_00_00_body_mesh_shape_lod2_body_b
g polygon_0
usemtl body_b
f 7/5/3 8/6/4 9/7/5
f 10/8/6 11/9/7 8/10/8
f 7/5/9 11/9/7 10/8/6
f 7/5/3 10/8/10 8/6/4
f 9/7/5 8/6/4 12/11/11
f 12/12/12 11/9/13 9/13/14
f 8/10/8 11/9/7 12/12/15
f 13/14/16 14/15/17 15/16/18
f 16/17/19 14/15/20 13/14/21
f 17/18/22 14/15/17 18/19/23
f 19/20/24 18/19/25 20/21/26
f 21/22/27 22/23/28 23/24/29
f 24/25/30 22/26/31 25/27/32
f 24/25/30 25/27/32 23/24/33
f 22/23/28 24/25/34 23/24/29
f 22/23/28 21/22/27 26/28/35
f 21/29/36 25/27/37 26/30/38
f 22/26/31 26/30/39 25/27/32
f 27/31/40 28/32/41 29/33/42
f 27/31/43 30/34/44 28/32/45
f 31/35/46 27/31/40 32/36/47
f 33/37/48 34/38/49 31/35/50
f 15/16/18 16/39/51 35/40/52
f 15/16/18 36/41/53 16/39/51
f 14/15/17 36/41/53 15/16/18
f 17/18/22 36/41/53 14/15/17
f 17/18/22 19/42/54 36/41/53
f 29/33/42 37/43/55 30/44/56
f 38/45/57 29/33/42 30/44/56
f 27/31/40 29/33/42 38/45/57
f 27/31/40 38/45/57 32/36/47
f 32/36/47 38/45/57 33/46/58
f 36/41/53 20/47/59 16/39/51
f 36/41/53 19/42/54 20/47/59
f 16/17/19 20/21/26 14/15/20
f 18/19/25 14/15/20 20/21/26
f 13/14/16 15/16/18 35/40/60
f 13/14/16 35/40/60 39/48/61
f 35/40/52 16/39/51 40/49/62
f 35/40/52 40/49/62 41/50/63
f 16/17/19 13/14/21 40/51/64
f 40/51/64 13/14/21 42/52/65
f 39/48/61 35/40/60 41/50/66
f 41/50/66 43/53/67 39/48/61
f 41/50/63 40/49/62 42/54/68
f 42/54/68 43/53/69 41/50/63
f 42/52/65 13/14/21 39/48/70
f 42/52/65 39/48/70 43/53/71
f 38/45/57 30/44/56 34/55/72
f 33/46/58 38/45/57 34/55/72
f 34/38/49 30/34/44 27/31/43
f 34/38/49 27/31/43 31/35/50
f 29/33/42 28/32/41 37/43/73
f 28/32/41 44/56/74 37/43/73
f 30/44/56 37/43/55 45/57/75
f 37/43/55 46/58/76 45/57/75
f 30/34/44 45/59/77 28/32/45
f 45/59/77 47/60/78 28/32/45
f 37/43/73 44/56/74 46/58/79
f 44/56/74 48/61/80 46/58/79
f 45/57/75 46/58/76 47/62/81
f 46/58/76 48/61/82 47/62/81
f 28/32/45 47/60/78 44/56/83
f 47/60/78 48/61/84 44/56/83
f 49/63/85 50/64/86 51/65/87
f 50/64/86 52/66/88 51/65/87
f 51/65/87 52/66/88 53/67/89
f 52/66/88 54/68/90 53/67/89
f 53/67/89 54/68/90 55/69/91
f 50/64/86 56/70/92 52/66/88
f 54/68/90 57/71/93 55/69/91
f 55/69/91 57/71/93 58/72/94
f 52/66/88 59/73/95 54/68/90
f 59/73/95 57/71/93 54/68/90
f 56/70/92 59/73/95 52/66/88
f 57/71/93 60/74/96 58/72/94
f 50/64/86 61/75/97 56/70/92
f 62/76/98 61/75/97 50/64/86
f 63/77/99 58/72/94 60/74/96
f 63/77/99 64/78/100 58/72/94
f 63/77/99 65/79/101 64/78/100
f 66/80/102 65/79/101 63/77/99
f 67/81/103 63/77/99 60/74/96
f 66/80/102 63/77/99 67/81/103
f 68/82/104 60/74/96 57/71/93
f 67/81/103 60/74/96 68/82/104
f 68/82/104 57/71/93 59/73/95
f 69/83/105 66/80/102 67/81/103
f 70/84/106 66/80/102 69/83/105
f 71/85/107 70/84/106 69/83/105
f 72/86/108 67/81/103 68/82/104
f 69/83/105 67/81/103 72/86/108
f 59/73/95 73/87/109 68/82/104
f 72/86/108 68/82/104 73/87/109
f 74/88/110 73/87/109 59/73/95
f 56/70/92 74/88/110 59/73/95
f 61/75/97 74/88/110 56/70/92
f 75/89/111 72/86/108 73/87/109
f 74/88/110 75/89/111 73/87/109
f 76/90/112 69/83/105 72/86/108
f 76/90/112 72/86/108 75/89/111
f 69/83/105 77/91/113 71/85/107
f 69/83/105 76/90/112 77/91/113
f 71/85/107 77/91/113 78/92/114
f 78/92/114 77/91/113 79/93/115
f 80/94/116 75/89/111 74/88/110
f 61/75/97 80/94/116 74/88/110
f 77/91/113 81/95/117 79/93/115
f 81/95/117 82/96/118 79/93/115
f 77/91/113 83/97/119 81/95/117
f 83/97/119 82/96/118 81/95/117
f 76/90/112 84/98/120 77/91/113
f 84/98/120 83/97/119 77/91/113
f 76/90/112 85/99/121 84/98/120
f 84/98/120 85/99/121 83/97/119
f 75/89/111 85/99/121 76/90/112
f 80/94/116 85/99/121 75/89/111
f 86/100/122 82/96/118 83/97/119
f 83/97/119 85/99/121 86/100/122
f 82/96/118 87/101/123 88/102/124
f 86/100/122 89/103/125 82/96/118
f 89/103/125 87/101/123 82/96/118
f 85/99/121 90/104/126 86/100/122
f 89/103/125 91/105/127 87/101/123
f 91/105/127 92/106/128 87/101/123
f 91/105/127 93/107/129 92/106/128
f 94/108/130 93/107/129 91/105/127
f 89/103/125 94/108/130 91/105/127
f 95/109/131 89/103/125 86/100/122
f 90/104/126 95/109/131 86/100/122
f 96/110/132 94/108/130 89/103/125
f 89/103/125 95/109/131 96/110/132
f 94/108/130 96/110/132 97/111/133
f 94/108/130 97/111/133 98/112/134
f 99/113/135 98/112/134 97/111/133
f 96/110/132 100/114/136 97/111/133
f 99/113/135 97/111/133 100/114/136
f 95/109/131 100/114/136 96/110/132
f 100/114/136 101/115/137 99/113/135
f 99/113/135 101/115/137 102/116/138
f 103/117/139 102/116/138 101/115/137
f 104/118/140 100/114/136 95/109/131
f 104/118/140 95/109/131 90/104/126
f 100/114/136 105/119/141 101/115/137
f 105/119/141 103/117/139 101/115/137
f 100/114/136 104/118/140 105/119/141
f 106/120/142 103/117/139 105/119/141
f 107/121/143 105/119/141 104/118/140
f 106/120/142 105/119/141 107/121/143
f 108/122/144 104/118/140 90/104/126
f 108/122/144 107/121/143 104/118/140
f 85/99/121 108/122/144 90/104/126
f 109/123/145 106/120/142 107/121/143
f 109/123/145 107/121/143 108/122/144
f 110/124/146 106/120/142 109/123/145
f 111/125/147 108/122/144 85/99/121
f 112/126/148 110/124/146 109/123/145
f 112/126/148 109/123/145 108/122/144
f 112/126/148 108/122/144 111/125/147
f 113/127/149 110/124/146 112/126/148
f 113/127/149 112/126/148 114/128/150
f 115/129/151 111/125/147 85/99/121
f 112/126/148 111/125/147 115/129/151
f 114/128/150 112/126/148 115/129/151
f 115/129/151 85/99/121 80/94/116
f 114/128/150 115/129/151 116/130/152
f 116/130/152 115/129/151 80/94/116
f 117/131/153 114/128/150 116/130/152
f 116/130/152 80/94/116 61/75/97
f 117/131/153 116/130/152 118/132/154
f 62/76/98 116/130/152 61/75/97
f 118/132/154 116/130/152 62/76/98
f 50/133/86 49/134/85 119/135/155
f 50/133/86 119/135/155 120/136/156
f 120/136/156 119/135/155 121/137/157
f 120/136/156 121/137/157 122/138/158
f 122/138/158 121/137/157 123/139/159
f 124/140/160 50/133/86 120/136/156
f 122/138/158 123/139/159 125/141/161
f 125/141/161 123/139/159 126/142/162
f 127/143/163 120/136/156 122/138/158
f 122/138/158 125/141/161 127/143/163
f 124/140/160 120/136/156 127/143/163
f 125/141/161 126/142/162 128/144/164
f 129/145/165 50/133/86 124/140/160
f 62/146/98 50/133/86 129/145/165
f 128/144/164 126/142/162 130/147/166
f 126/142/162 64/148/100 130/147/166
f 130/147/166 64/148/100 65/149/101
f 125/141/161 128/144/164 131/150/167
f 127/143/163 125/141/161 131/150/167
f 128/144/164 130/147/166 132/151/168
f 131/150/167 128/144/164 132/151/168
f 130/147/166 65/149/101 133/152/169
f 132/151/168 130/147/166 133/152/169
f 133/152/169 65/149/101 66/153/102
f 133/152/169 66/153/102 70/154/106
f 134/155/170 133/152/169 70/154/106
f 132/151/168 133/152/169 134/155/170
f 134/155/170 70/154/106 71/156/107
f 131/150/167 132/151/168 135/157/171
f 135/157/171 132/151/168 134/155/170
f 136/158/172 131/150/167 135/157/171
f 136/158/172 127/143/163 131/150/167
f 135/157/171 134/155/170 137/159/173
f 138/160/174 127/143/163 136/158/172
f 138/160/174 124/140/160 127/143/163
f 129/145/165 124/140/160 138/160/174
f 136/158/172 135/157/171 139/161/175
f 139/161/175 138/160/174 136/158/172
f 139/161/175 135/157/171 137/159/173
f 140/162/176 129/145/165 138/160/174
f 140/162/176 138/160/174 139/161/175
f 129/145/165 140/162/176 141/163/177
f 129/145/165 141/163/177 62/146/98
f 62/146/98 141/163/177 118/164/154
f 118/164/154 141/163/177 117/165/153
f 140/162/176 139/161/175 142/166/178
f 139/161/175 137/159/173 142/166/178
f 140/162/176 143/167/179 141/163/177
f 140/162/176 142/166/178 143/167/179
f 141/163/177 144/168/180 117/165/153
f 141/163/177 143/167/179 144/168/180
f 117/165/153 144/168/180 114/169/150
f 114/169/150 144/168/180 113/170/149
f 144/168/180 145/171/181 113/170/149
f 143/167/179 145/171/181 144/168/180
f 113/170/149 145/171/181 110/172/146
f 143/167/179 146/173/182 145/171/181
f 143/167/179 142/166/178 146/173/182
f 110/172/146 145/171/181 147/174/183
f 145/171/181 146/173/182 148/175/184
f 147/174/183 145/171/181 148/175/184
f 146/173/182 142/166/178 148/175/184
f 110/172/146 147/174/183 149/176/185
f 106/177/142 110/172/146 149/176/185
f 106/177/142 149/176/185 103/178/139
f 149/176/185 147/174/183 150/179/186
f 147/174/183 148/175/184 150/179/186
f 103/178/139 149/176/185 151/180/187
f 149/176/185 150/179/186 151/180/187
f 150/179/186 148/175/184 152/181/188
f 151/180/187 150/179/186 152/181/188
f 153/182/189 103/178/139 151/180/187
f 153/182/189 102/183/138 103/178/139
f 154/184/190 151/180/187 152/181/188
f 154/184/190 153/182/189 151/180/187
f 102/183/138 153/182/189 155/185/191
f 153/182/189 154/184/190 155/185/191
f 155/185/191 99/186/135 102/183/138
f 99/186/135 155/185/191 98/187/134
f 155/185/191 154/184/190 156/188/192
f 98/187/134 155/185/191 156/188/192
f 156/188/192 154/184/190 157/189/193
f 98/187/134 156/188/192 158/190/194
f 156/188/192 157/189/193 158/190/194
f 158/190/194 94/191/130 98/187/134
f 94/191/130 158/190/194 93/192/129
f 154/184/190 159/193/195 157/189/193
f 152/181/188 159/193/195 154/184/190
f 158/190/194 160/194/196 93/192/129
f 93/192/129 160/194/196 92/195/128
f 161/196/197 158/190/194 157/189/193
f 158/190/194 161/196/197 160/194/196
f 157/189/193 159/193/195 161/196/197
f 162/197/198 92/195/128 160/194/196
f 162/197/198 160/194/196 161/196/197
f 87/198/123 92/195/128 162/197/198
f 88/199/124 87/198/123 162/197/198
f 88/199/124 162/197/198 163/200/199
f 163/200/199 162/197/198 161/196/197
f 163/200/199 82/201/118 88/199/124
f 163/200/199 79/202/115 82/201/118
f 164/203/200 161/196/197 159/193/195
f 163/200/199 161/196/197 164/203/200
f 165/204/201 159/193/195 152/181/188
f 164/203/200 159/193/195 165/204/201
f 148/175/184 165/204/201 152/181/188
f 148/175/184 142/166/178 165/204/201
f 164/203/200 165/204/201 142/166/178
f 166/205/202 163/200/199 164/203/200
f 142/166/178 166/205/202 164/203/200
f 167/206/203 79/202/115 163/200/199
f 167/206/203 163/200/199 166/205/202
f 168/207/204 79/202/115 167/206/203
f 166/205/202 168/207/204 167/206/203
f 168/207/204 78/208/114 79/202/115
f 168/207/204 71/156/107 78/208/114
f 134/155/170 71/156/107 168/207/204
f 137/159/173 134/155/170 168/207/204
f 169/209/205 168/207/204 166/205/202
f 137/159/173 168/207/204 169/209/205
f 142/166/178 169/209/205 166/205/202
f 142/166/178 137/159/173 169/209/205
v -1.119964E-05 -0.02898875 0.1862897
vt 0.713001 0.0589655
vn 0.003707886 -0.8168945 0.5766602
v 2.396864E-06 -0.02961156 0.1695709
vt 0.769999 0.02948421
vn 0 -0.9677734 0.2504883
vt 0.7705619 0.07428002
vn 0.4411621 -0.8764648 0.1920166
vt 0.7763044 0.1065972
vt 0.784465 0.104747
v 0.02487641 -0.01828712 0.1696792
vt 0.7972223 0.1139198
vn 0.8378906 -0.5053711 0.2058105
v 0.02075714 -0.02172207 0.1852263
vt 0.7506633 0.1089466
vn 0.5996094 -0.4504395 0.6606445
vt 0.2294381 0.07428002
vn -0.4411621 -0.8764648 0.1918945
vt 0.230001 0.02948421
vt 0.286999 0.0589655
v -0.01735418 0.006121297 0.1787084
vt 0.2419022 0.1968367
vn -0.5800781 0.4187012 0.6982422
vt 0.2519495 0.18443
vt 0.2587889 0.195882
v -0.02075714 -0.02172207 0.1852263
vt 0.2493367 0.1089466
vn -0.6079102 -0.4519043 0.6518555
vt 0.2236956 0.1065972
vt 0.215535 0.104747
v -0.02487641 -0.01828712 0.1696792
vt 0.2027777 0.1139198
vn -0.8378906 -0.5053711 0.2058105
v 0.01735418 0.006121297 0.1787084
vt 0.7580978 0.1968367
vn 0.5800781 0.4187012 0.6982422
vt 0.7412112 0.195882
vt 0.7480505 0.18443
v -0.002793816 -0.009922875 0.1912872
vt 0.4647638 0.1723375
vn 0.007148743 0.4521484 -0.8916016
v -0.002338697 -0.02140185 0.1901007
vt 0.3822161 0.1574962
v -0.007207818 -0.02087599 0.1856686
vt 0.3996567 0.1092336
vn 0.9399414 -0.3234863 -0.1074219
v 0.002793814 -0.009922875 0.1912872
vt 0.5352362 0.1723375
vn -0.007148743 0.4521484 -0.8916016
vt 0.6177839 0.1574962
v -0.0005944885 -0.01571471 0.1955975
vt 0.5524324 0.1986501
vn -0.6083984 -0.7915039 -0.04864502
v 0.005398155 -0.02000956 0.1758259
vt 0.5458601 0.04679537
vn -0.6303711 -0.5053711 0.5883789
v 0.007207818 -0.02087599 0.1856686
vt 0.6003433 0.1092336
vn -0.8955078 -0.4260254 0.1270752
v 7.76627E-30 -0.009453246 0.1795844
vt 0.5 0.1060219
vn 0 -0.855957 0.5166016
vn 0.6010742 -0.7958984 -0.06646729
v -0.005398155 -0.02000956 0.1758259
vt 0.4541399 0.04679537
vn 0.6303711 -0.5053711 0.5883789
v 8.412979E-31 -0.01544203 0.1769761
vt 0.5 0.7177767
vn 0 0.2441406 -0.9692383
vt 0.5394686 0.7335266
vt 0.4605314 0.7335266
vt 0.5531904 0.6631036
vn 0.1405029 0.9125977 0.3828125
vn 0.6386719 0.7675781 -0.04986572
vn 0 0.9438477 0.3291016
vn -0.6386719 0.7675781 -0.04986572
vt 0.4468097 0.6631036
vn -0.128418 0.9233398 0.3605957
vt 0.8480017 0.09817827
v -6.144051E-07 -0.03579092 0.1548528
vt 0.887739 0.03903663
vn 0 -0.9873047 0.1568604
vt 0.9694248 0.02759361
vt 0.1519983 0.09817827
vt 0.03057516 0.02759361
vt 0.112261 0.03903663
v 9.919031E-10 0.06319106 -0.001087085
vt 0.84113 0.4069355
vn 0.9819336 0.09851074 -0.1586914
v 0.005845579 0.06300705 0.03807768
vt 0.8412865 0.5574228
vn 0.9990234 0.03044128 0.01794434
v 0.004671204 0.04829447 0.01715295
vt 0.7833606 0.4768297
vn 0.9970703 -0.02110291 -0.07244873
v -6.951174E-10 0.1006955 0.02670103
vt 0.9860637 0.5156198
vn 0.9882813 0.1300049 -0.07702637
vn 1.000122 0 0
v 2.226629E-09 0.09051936 0.005820727
vt 0.945767 0.4349672
v 8.911216E-10 0.06323583 0.05502117
vt 0.8411312 0.6243362
vn 0.9448242 0.02444458 0.3256836
v 9.410292E-11 0.09004482 0.04863806
vt 0.9457936 0.5950928
vn 0.9775391 0.1582031 0.1359863
v 0.002519932 0.03519093 0.04505266
vt 0.734375 0.5853744
vn 0.9926758 0.05880737 0.104126
v -6.648703E-11 0.0483345 0.05173787
vt 0.7833606 0.6126928
vn 0.9819336 -0.06045532 0.1774902
vt 0.15887 0.4069355
vn -0.9970703 -0.02110291 -0.07244873
v -0.004671204 0.04829447 0.01715295
vt 0.2166394 0.4768297
v -0.005845579 0.06300705 0.03807768
vt 0.1587135 0.5574228
vn -0.9990234 0.03044128 0.01794434
vt 0.01393628 0.5156198
vn -0.9882813 0.1300049 -0.07702637
vn -0.9819336 0.09851074 -0.1586914
vn -1.000122 0 0
vt 0.05423298 0.4349672
vt 0.05420634 0.5950928
vn -0.9775391 0.1582031 0.1359863
vt 0.1588688 0.6243362
vn -0.9448242 0.02444458 0.3256836
vt 0.2166394 0.6126928
vn -0.9819336 -0.06045532 0.1774902
v -0.002519932 0.03519093 0.04505266
vt 0.265625 0.5853744
vn -0.9926758 0.05880737 0.104126
v -3.137994E-11 -0.04259276 -0.03858176
vt 0.564043 0.6087317
vn 0.9775391 -0.2069092 -0.02496338
v 3.627773E-11 -0.03182701 -0.03424918
vt 0.5117188 0.5926414
vn 0.6455078 0.2849121 -0.7080078
v 0.002394253 -0.03194643 -0.0321134
vt 0.5117187 0.5774115
vn 0.980957 -0.1795654 -0.06750488
v -3.210871E-10 -0.06711636 -0.03754102
vt 0.6843633 0.5986175
v -1.623324E-10 -0.05945092 -0.006547186
vt 0.6463275 0.4522347
v 1.591591E-10 -0.0727277 -0.02286253
vt 0.7135565 0.5332053
v -1.004886E-09 -0.06675983 -0.01066775
vt 0.6844143 0.4684848
v 0.002428844 -0.03194655 -0.01430911
vt 0.5117189 0.4889917
vn 0.9790039 -0.1982422 0.04400635
v 1.269875E-09 -0.04250887 -0.008074131
vt 0.5640428 0.4576715
vn 0.9765625 -0.2131348 0.01942444
vt 0.435957 0.6087317
vn -0.9775391 -0.2069092 -0.02496338
v -0.002394253 -0.03194643 -0.0321134
vt 0.4882813 0.5774115
vn -0.980957 -0.1795654 -0.06750488
v 3.627774E-11 -0.03182701 -0.03424918
vt 0.4882813 0.5926414
vn -0.6455078 0.2849121 -0.7080078
vt 0.3156367 0.5986175
vt 0.2864435 0.5332053
vt 0.3536725 0.4522347
vt 0.3155857 0.4684848
vt 0.4359572 0.4576715
vn -0.9765625 -0.2131348 0.01942444
v -0.002428844 -0.03194655 -0.01430911
vt 0.4882811 0.4889917
vn -0.9790039 -0.1982422 0.04400635
v 1.038236E-09 -0.04252641 -0.08670656
vt 0.5640389 0.4016939
vn 0.9765625 -0.2128906 -0.01925659
v -1.869979E-10 -0.0318277 -0.08264738
vt 0.5117188 0.3856044
vn 0.6430664 0.2714844 -0.715332
v 0.002428943 -0.03194648 -0.08050846
vt 0.5117188 0.3703761
vn 0.9790039 -0.197998 -0.04412842
v -1.488538E-09 -0.06675354 -0.08431248
vt 0.6843556 0.3915957
v 1.426318E-09 -0.05948212 -0.08824629
vt 0.6463205 0.407147
v 1.107663E-09 -0.07270624 -0.07196953
vt 0.7135655 0.3261704
v -2.265776E-09 -0.06712895 -0.05739806
vt 0.684405 0.2614444
v -6.435112E-11 -0.04258361 -0.05627239
vt 0.5640389 0.2506461
vn 0.9775391 -0.2069092 0.02507019
v 0.002394224 -0.03194647 -0.06270405
vt 0.5117188 0.2819628
vn 0.980957 -0.1799316 0.06762695
vt 0.4359611 0.4016939
vn -0.9765625 -0.2128906 -0.01925659
v -0.002428943 -0.03194648 -0.08050846
vt 0.4882813 0.3703761
vn -0.9790039 -0.197998 -0.04412842
vt 0.4882813 0.3856044
vn -0.6430664 0.2714844 -0.715332
vt 0.3156444 0.3915957
vt 0.2864345 0.3261704
vt 0.3536795 0.407147
vt 0.315595 0.2614444
vt 0.4359611 0.2506461
vn -0.9775391 -0.2069092 0.02507019
v -6.435111E-11 -0.04258361 -0.05627239
v -0.002394224 -0.03194647 -0.06270405
vt 0.4882813 0.2819628
vn -0.980957 -0.1799316 0.06762695
v -1.652351E-05 -0.0307662 -0.1115491
vt 0.6354705 0.9859893
vn 0.9638672 -0.1630859 0.2091064
v 7.408638E-05 -0.04396262 -0.1222628
vt 0.5901067 0.9430517
vn 0.9770508 -0.192749 0.08538818
v 0.00436957 -0.02439169 -0.1267923
vt 0.6622612 0.9249718
vn 0.9916992 -0.1193237 0.04452515
v -9.314256E-07 -0.03159548 -0.1891946
vt 0.6358695 0.6808896
vn 0.9829102 -0.1057129 -0.1485596
v 0.00349465 -0.03775193 -0.160032
vt 0.6101792 0.7946667
vn 0.9907227 -0.1254883 -0.04550171
v -2.943751E-06 -0.05173581 -0.161218
vt 0.5583045 0.7934754
vn 0.9672852 -0.2337646 -0.09661865
v -0.0001318737 -0.05240175 -0.1467495
vt 0.5519992 0.8457226
vn 0.9785156 -0.1983643 0.04837036
v 0.003476528 -0.01143132 -0.1777255
vt 0.7131747 0.7244977
vn 0.9985352 -0.01628113 -0.04946899
v 2.241642E-07 -0.0133897 -0.1974414
vt 0.7040271 0.6493127
vn 0.9829102 -0.03811646 -0.1777344
v -4.942372E-06 0.03210014 -0.1103995
vt 0.8828125 0.984375
v 0.003411832 0.02671744 -0.1222476
vt 0.86371 0.9396422
vn 0.9814453 0.1727295 0.07769775
v 1.384704E-05 0.05144722 -0.1342941
vt 0.9590269 0.8920382
v 1.046963E-05 0.05194119 -0.160181
vt 0.9597962 0.7931204
vn 0.9916992 0.1212158 -0.03695679
v 0.004021062 0.01128487 -0.1777176
vt 0.8014874 0.7240659
vn 0.9985352 0.01628113 -0.04946899
v -2.876564E-06 0.03156594 -0.1893724
vt 0.8783035 0.6797744
vn 0.984375 0.1280518 -0.1170044
v 4.643637E-07 0.01340918 -0.1974234
vt 0.8099695 0.6488449
vn 0.9804688 0.03808594 -0.192749
v 0.003378601 1.17659E-05 -0.1802293
vt 0.757295 0.7152325
vt 0.3645295 0.9859893
vn -0.9638672 -0.1717529 0.2033691
v -0.00436957 -0.02439169 -0.1267923
vt 0.3377388 0.9249718
vn -0.9912109 -0.1240234 0.04516602
vt 0.4098933 0.9430517
vn -0.9770508 -0.1940918 0.08734131
vt 0.4416954 0.7934754
vn -0.9667969 -0.2325439 -0.1037598
v -0.00349465 -0.03775193 -0.160032
vt 0.3898208 0.7946667
vn -0.9912109 -0.1239014 -0.04525757
vt 0.3641305 0.6808896
vn -0.9829102 -0.1055908 -0.1485596
vt 0.4440832 0.8455868
vn -0.9824219 -0.1777344 0.05270386
v -0.003476528 -0.01143132 -0.1777255
vt 0.2868253 0.7244977
vt 0.295973 0.6493127
vn -0.9985352 -0.01628113 -0.04946899
vt 0.04097304 0.8920382
v -0.003411832 0.02671744 -0.1222476
vt 0.13629 0.9396422
vt 0.1171875 0.984375
vn -0.9594727 0.2188721 0.1763916
vt 0.04020375 0.7931204
vn -0.9916992 0.1216431 -0.03671265
vt 0.1216965 0.6797744
vn -0.9848633 0.1281738 -0.116394
v -0.004021062 0.01128487 -0.1777176
vt 0.1985126 0.7240659
vn -0.9985352 0.01628113 -0.04946899
vt 0.1900304 0.6488449
vn -0.9804688 0.03793335 -0.1928711
vn -0.9829102 -0.03808594 -0.1777344
v -0.003378601 1.17659E-05 -0.1802293
vt 0.242705 0.7152325
v 1.716935E-10 -0.03182787 -0.01217049
vt 0.5117189 0.4737625
vn 0.6425781 0.2741699 0.7148438
vt 0.4882811 0.4737625
vn -0.6425781 0.2741699 0.7148438
v 7.574882E-11 -0.0318271 -0.06056802
vt 0.5117188 0.2667348
vn 0.6459961 0.282959 0.7084961
v 7.574884E-11 -0.0318271 -0.06056802
vt 0.4882813 0.2667348
vn -0.6459961 0.282959 0.7084961
vn 0 -0.453125 0.8911133
vt 0.734375 0.5925022
vt 0.8324852 0.06076503
vt 0.1675148 0.06076503
vt 0.4272058 0.1855314
vn -0.4169922 0.2758789 -0.8657227
v 0.02623539 -0.008075865 0.1777277
vt 0.774189 0.1460931
vn 0.9052734 0.03488159 0.4223633
v 0.006972963 0.009678435 0.1820225
vt 0.7284501 0.2188914
vn 0.1685791 0.590332 0.7890625
vt 0.736799 0.1762636
v -3.194895E-06 0.006089913 0.1903285
vt 0.6893933 0.2024356
vn 0 0.6318359 0.7744141
v 0.01292198 -0.004380222 0.1945088
vt 0.7117047 0.1551194
vn 0.3950195 0.07250977 0.9155273
v -0.01292198 -0.004380222 0.1945088
vt 0.675216 0.1358076
vn -0.3984375 0.08880615 0.9125977
vt 0.6759173 0.1276733
vn -0.005901337 -0.3278809 0.9443359
v -0.02623539 -0.008075865 0.1777277
vt 0.225811 0.1460931
vn -0.9052734 0.03488159 0.4223633
v -0.006972963 0.009678435 0.1820225
vt 0.2715499 0.2188914
vn -0.1856689 0.597168 0.7797852
vt 0.2903597 0.2306007
vt 0.3106067 0.2024356
vt 0.263201 0.1762636
vt 0.2882953 0.1551194
vt 0.316839 0.1224442
vn 0 -0.5966797 -0.8017578
vt 0.9725385 0.08564055
vt 0.9737272 0.1429188
vt 0.8597085 0.1452006
v 0.03654921 -0.002772107 0.1511285
vt 0.9214053 0.1936463
vn 0.9804688 -0.07818604 0.1787109
vt 0.9705503 0.2000496
vt 0.9546568 0.2881216
v 0.02922628 0.003236822 0.1660708
vt 0.8731219 0.212783
vn 0.8657227 0.03204346 0.4992676
vt 0.8463426 0.1981474
vt 0.8205841 0.2281175
v 0.03049379 0.00558622 0.1640989
vt 0.8800089 0.2167909
vn 0.9306641 0.1834717 0.3156738
v 0.02887636 0.01083631 0.1652628
vt 0.8752018 0.2221247
vn 0.7426758 0.1870117 0.6425781
v 0.0266488 0.01979068 0.1646334
vt 0.8760102 0.2615944
vn 0.7670898 0.5087891 0.3896484
v 0.01066585 0.03053267 0.1695769
vt 0.84517 0.3083614
vn 0.2890625 0.8154297 0.5004883
vt 0.9335938 0.3789063
vt 0.7909362 0.2501721
vt 0.02746153 0.08564055
vt 0.02627276 0.1429188
vt 0.1402915 0.1452006
v -0.03654921 -0.002772107 0.1511285
vt 0.07859467 0.1936463
vn -0.9804688 -0.07818604 0.1787109
vt 0.02944969 0.2000496
vt 0.04534315 0.2881216
v -0.02922628 0.003236822 0.1660708
vt 0.1268781 0.212783
vn -0.8657227 0.03204346 0.4992676
vt 0.1536574 0.1981474
vt 0.1794159 0.2281175
v -0.03049379 0.00558622 0.1640989
vt 0.1199911 0.2167909
vn -0.9306641 0.1834717 0.3156738
v -0.02887636 0.01083631 0.1652628
vt 0.1247982 0.2221247
vn -0.7426758 0.1870117 0.6425781
v -0.0266488 0.01979068 0.1646334
vt 0.1239898 0.2615944
vn -0.7670898 0.5087891 0.3896484
v -0.01066585 0.03053267 0.1695769
vt 0.15483 0.3083614
vn -0.2958984 0.8203125 0.4887695
vt 0.06640625 0.3789063
vt 0.2090638 0.2501721
vt 0.176126 0.3301715
vt 0.2278735 0.2618815
vn 0.9995117 -0.02919006 0.007240295
v 0.005583985 0.01306262 -0.1348271
vt 0.8099749 0.8922985
vn 0.9960938 0.07434082 -0.0362854
vn 0.9882813 0.1501465 0.01901245
v -0.005583985 0.01306262 -0.1348271
vt 0.1900251 0.8922985
vn -0.9995117 -0.02919006 0.007240295
vn -0.9814453 0.1733398 0.07684326
vn -0.9882813 0.1507568 0.01905823
vn -0.9960938 0.07470703 -0.03643799
vt 0.4825312 0.6289283
vn 0 0.9926758 0.1177979
v 8.728335E-11 0.04834976 0.002588289
vt 0.7833603 0.4185677
vn 0 -0.1508789 -0.9882813
v 0.002499858 0.03520148 0.009235081
vt 0.734375 0.4458406
vn 0.9604492 -0.1695557 -0.2199707
v -0.002499858 0.03520148 0.009235081
vt 0.265625 0.4458406
vn -0.9604492 -0.1695557 -0.2199707
vt 0.2166397 0.4185677
vt 0.265625 0.4387143
v 0.003687091 -0.01304871 -0.1348436
vt 0.7065431 0.8928327
v 0.004953051 -8.966793E-05 -0.1594902
vt 0.7576968 0.7955459
v -0.003687091 -0.01304871 -0.1348436
vt 0.2934569 0.8928327
v -0.004953051 -8.966793E-05 -0.1594902
vt 0.2423032 0.7955459
o pm0339_00_00_body_mesh_shape_lod2_body_a
g polygon_0
usemtl body_a
f 170/210/206 171/211/207 7/212/208
f 9/213/14 11/214/13 172/215/209
f 7/212/208 9/213/14 173/216/210
f 11/214/7 7/212/9 172/215/209
f 23/217/211 171/218/207 170/219/206
f 174/220/212 33/221/58 31/222/46
f 175/223/213 21/224/36 23/217/211
f 25/225/37 21/224/36 176/226/214
f 23/217/33 25/225/32 176/226/214
f 177/227/215 18/228/23 19/229/54
f 178/230/216 179/231/216 180/232/217
f 181/233/218 179/234/218 182/235/218
f 181/233/219 183/236/220 184/237/221
f 183/236/220 181/233/219 185/238/222
f 185/238/222 178/230/223 186/239/224
f 186/239/224 178/230/223 180/232/217
f 187/240/225 183/241/225 186/242/225
f 184/243/226 183/241/227 187/240/228
f 186/242/229 180/244/230 187/240/228
f 7/245/208 188/246/231 49/247/85
f 23/248/211 49/249/85 188/250/231
f 189/251/232 190/252/233 191/253/234
f 192/254/235 190/252/233 189/251/232
f 189/251/236 193/255/236 192/254/236
f 194/256/237 190/252/233 195/257/238
f 195/257/238 190/252/233 192/254/235
f 196/258/239 191/253/234 197/259/240
f 191/253/234 190/252/233 197/259/240
f 194/256/237 197/259/240 190/252/233
f 189/260/241 198/261/241 199/262/242
f 199/262/242 192/263/243 189/260/244
f 192/263/245 193/264/245 189/260/245
f 192/263/243 199/262/242 195/265/246
f 195/265/246 199/262/242 194/266/247
f 197/267/248 198/261/241 200/268/249
f 198/261/241 197/267/248 199/262/242
f 199/262/242 197/267/248 194/266/247
f 201/269/250 202/270/251 203/271/252
f 204/272/236 205/273/236 206/274/236
f 206/274/236 205/273/236 207/275/236
f 201/269/250 208/276/253 209/277/254
f 204/272/236 201/269/236 205/273/236
f 201/269/236 209/277/236 205/273/236
f 208/276/253 201/269/250 203/271/252
f 201/278/255 210/279/256 211/280/257
f 204/281/245 206/282/245 205/283/245
f 205/283/245 206/282/245 207/284/245
f 209/285/258 212/286/259 201/278/255
f 205/283/245 201/278/245 204/281/245
f 201/278/245 205/283/245 209/285/245
f 210/279/256 201/278/255 212/286/259
f 213/287/260 214/288/261 215/289/262
f 216/290/236 217/291/236 218/292/236
f 218/292/236 217/291/236 219/293/236
f 220/294/236 219/293/236 217/291/236
f 213/287/236 220/294/236 217/291/236
f 213/287/260 215/289/262 220/294/263
f 221/295/264 220/294/263 215/289/262
f 213/296/265 222/297/266 214/298/267
f 216/299/245 218/300/245 217/301/245
f 217/301/245 218/300/245 219/302/245
f 217/301/245 219/302/245 220/303/245
f 213/296/245 217/301/245 220/303/245
f 213/296/265 220/303/268 222/297/266
f 222/297/266 223/303/268 224/304/269
f 225/305/270 226/306/271 227/307/272
f 228/308/273 229/309/274 230/310/275
f 231/311/276 229/309/274 226/306/271
f 232/312/277 228/308/274 233/313/278
f 234/314/277 235/315/279 236/316/277
f 237/317/280 238/318/281 239/319/282
f 239/319/282 238/318/281 240/320/283
f 240/320/283 241/321/281 233/313/278
f 229/309/274 231/311/276 230/310/275
f 225/322/284 242/323/285 226/324/286
f 230/325/287 243/326/288 228/327/289
f 226/324/286 243/326/288 231/328/290
f 228/327/289 244/329/285 233/330/291
f 236/331/291 245/332/291 234/333/292
f 237/334/293 239/335/294 246/336/295
f 246/336/295 239/335/294 240/337/296
f 233/330/297 247/338/291 240/337/296
f 231/328/290 243/326/288 230/325/287
f 208/276/253 248/339/298 209/277/254
f 212/286/259 209/285/258 248/340/299
f 221/295/264 249/341/300 220/294/263
f 224/304/269 223/303/268 250/342/301
f 197/259/302 200/343/302 196/258/302
f 7/245/208 171/344/207 188/246/231
f 171/345/207 23/248/211 188/250/231
f 179/231/216 178/230/216 182/346/216
f 179/234/218 181/233/218 184/237/303
f 172/215/209 251/347/304 9/213/14
f 177/227/215 19/229/54 251/347/304
f 177/227/215 252/348/305 18/228/23
f 252/348/305 17/349/22 18/228/23
f 253/350/306 17/349/22 252/348/305
f 17/349/22 251/347/304 19/229/54
f 17/349/22 253/350/306 254/351/307
f 251/347/304 17/349/22 254/351/307
f 253/350/306 255/352/308 254/351/307
f 182/353/309 254/351/307 255/352/308
f 173/216/210 251/347/304 254/351/307
f 182/353/309 173/216/210 254/351/307
f 9/213/14 251/347/304 173/216/210
f 256/354/310 176/226/214 21/224/36
f 33/221/58 174/220/212 256/354/310
f 174/220/212 31/222/46 257/355/311
f 252/356/305 257/355/311 253/357/306
f 253/357/306 257/355/311 32/358/47
f 31/222/46 32/358/47 257/355/311
f 32/358/47 255/359/308 253/357/306
f 256/354/310 32/358/47 33/221/58
f 255/359/308 32/358/47 256/354/310
f 255/359/308 256/354/310 175/223/213
f 175/223/213 182/360/309 255/359/308
f 21/224/36 175/223/213 256/354/310
f 185/238/222 186/239/224 183/236/220
f 181/233/219 178/230/223 185/238/222
f 181/233/219 182/235/312 178/230/223
f 7/245/208 49/247/85 51/361/87
f 53/362/89 7/245/208 51/361/87
f 7/245/208 53/362/89 172/363/209
f 53/362/89 258/364/313 172/363/209
f 53/362/89 55/365/91 258/364/313
f 58/366/94 258/364/313 55/365/91
f 259/367/314 172/363/209 258/364/313
f 251/368/304 172/363/209 259/367/314
f 259/367/314 177/369/215 251/368/304
f 260/370/315 259/367/314 258/364/313
f 259/367/314 261/371/316 177/369/215
f 260/370/315 258/364/313 262/372/317
f 262/372/317 261/371/316 260/370/315
f 262/372/317 258/364/313 58/366/94
f 262/372/317 177/369/215 261/371/316
f 263/373/318 262/372/317 58/366/94
f 263/373/318 177/369/215 262/372/317
f 58/366/94 64/374/100 263/373/318
f 177/369/215 263/373/318 252/375/305
f 119/376/155 49/249/85 23/248/211
f 119/376/155 23/248/211 121/377/157
f 176/378/214 121/377/157 23/248/211
f 176/378/214 264/379/319 121/377/157
f 123/380/159 121/377/157 264/379/319
f 123/380/159 264/379/319 126/381/162
f 264/379/319 176/378/214 265/382/320
f 265/382/320 176/378/214 256/383/310
f 174/384/212 265/382/320 256/383/310
f 264/379/319 265/382/320 266/385/321
f 265/382/320 174/384/212 267/386/322
f 266/385/321 268/387/323 264/379/319
f 266/385/321 267/386/322 268/387/323
f 126/381/162 264/379/319 268/387/323
f 268/387/323 267/386/322 174/384/212
f 268/387/323 269/388/324 126/381/162
f 174/384/212 269/388/324 268/387/323
f 269/388/324 64/389/100 126/381/162
f 269/388/324 174/384/212 257/390/311
f 263/391/318 64/389/100 269/388/324
f 269/388/324 257/390/311 252/392/305
f 252/392/305 263/391/318 269/388/324
f 236/316/325 235/315/279 270/393/326
f 237/317/280 236/316/327 270/393/326
f 271/394/328 245/332/329 236/331/330
f 236/331/330 237/334/293 271/394/331
f 170/210/206 173/216/210 182/353/309
f 173/216/210 170/210/206 7/212/208
f 170/219/206 182/360/309 175/223/213
f 170/219/206 175/223/213 23/217/211
f 180/244/230 184/243/226 187/240/228
f 179/395/332 184/243/226 180/244/230
f 272/396/333 189/251/232 191/253/234
f 191/253/234 273/397/334 272/396/333
f 196/258/239 273/397/334 191/253/234
f 274/398/335 272/399/333 273/400/334
f 274/398/335 198/261/241 272/399/333
f 198/261/241 189/260/335 272/399/333
f 198/261/241 274/398/335 200/268/249
f 227/307/272 226/306/271 229/309/274
f 227/307/272 229/309/274 275/401/325
f 229/309/274 228/308/273 232/312/272
f 275/401/325 229/309/274 276/402/272
f 229/309/274 232/312/272 276/402/272
f 270/393/326 275/401/325 276/402/272
f 276/402/272 237/317/280 270/393/326
f 233/313/278 241/321/277 232/312/272
f 276/402/272 232/312/272 241/321/277
f 238/318/281 276/402/272 241/321/277
f 238/318/281 241/321/277 240/320/283
f 276/402/272 238/318/281 237/317/280
f 243/326/288 226/324/286 242/323/285
f 277/403/328 243/326/288 242/323/285
f 243/326/288 244/329/291 228/327/288
f 278/404/291 243/326/288 277/403/328
f 278/404/291 244/329/291 243/326/288
f 271/394/331 278/404/291 277/403/328
f 271/394/331 237/334/293 278/404/291
f 244/329/291 247/338/291 233/330/297
f 244/329/291 278/404/291 247/338/291
f 278/404/291 246/336/295 247/338/291
f 240/337/295 247/338/291 246/336/295
f 237/334/293 246/336/295 278/404/291
