mtllib pm0602_00_00_lod2.mtl
v -0.0001961544 0.04540067 0.1000088
vt 0.5824965 0.838975
vn -0.2231445 -0.05123901 -0.9731445
v 0.004675484 0.04515176 0.09900142
vt 0.5818825 0.8629067
vn -0.4492188 0.0506897 -0.8916016
v 0.002946734 0.04092752 0.09952559
vt 0.5511129 0.8675767
vn -0.4199219 0.3452148 -0.8388672
v -1.270017E-08 0.03688459 0.09790782
vt 0.5089449 0.8817554
vn 0 0.7358398 -0.6767578
v 3.040166E-10 0.04518678 0.0998994
vt 0.5192817 0.8387986
vn 0 0.3061523 -0.9516602
v 3.058066E-08 0.04843651 0.09984452
vt 0.6735193 0.8400776
vn 0 -0.5253906 -0.8505859
v 3.113713E-07 0.05770024 0.0945766
vt 0.6832216 0.8969219
vn 0 -0.9526367 -0.3032227
v 0.002368538 0.05162681 0.09964302
vt 0.6402246 0.8699286
vn -0.1700439 -0.5117188 -0.8417969
v -3.146866E-06 0.04849018 0.09984615
vt 0.6221558 0.8454181
vn -0.2484131 0.0206604 -0.9682617
v 0.006673448 0.04876898 0.09813949
vt 0.6143035 0.8729159
vn -0.6264648 -0.1324463 -0.7675781
v -0.0003058025 0.08160259 -0.003997335
vt 0.602105 0.6112941
vn 0 0.9995117 -0.02934265
v 7.805471E-05 0.08124777 0.004664247
vt 0.6004583 0.575597
vn 0 0.9990234 0.04092407
v 0.0003058025 0.08160259 -0.003997335
vt 0.6036822 0.6109211
vn 0 0.9995117 -0.0287323
v -4.861568E-05 0.08072333 -0.01342331
vt 0.6128774 0.6484017
vn 0 0.9956055 -0.09283447
v 0.00270475 0.07062312 0.04265177
vt 0.6133487 0.4115505
vn 0.6508789 0.7583008 -0.02557373
v 0.000288814 0.07572149 0.03308108
vt 0.5998411 0.4564655
vn 0.9091797 0.4155273 0.007835388
v 3.464718E-06 0.07375082 0.04253202
vt 0.5950417 0.4164963
vn 0.7456055 0.6494141 0.1470947
v 0.001577754 0.0635708 -0.03178262
vt 0.6919227 0.7137725
vn 0.9916992 0.1015015 -0.07574463
v 7.298988E-07 0.06788263 -0.03298929
vt 0.6749206 0.7203009
vn 0.9428711 0.3254395 -0.06878662
v 0.0001261468 0.07083695 -0.02712606
vt 0.6618606 0.6970356
vn 0.9711914 0.2138672 -0.1012573
v 0.0001115386 0.06828807 -0.03865851
vt 0.6776465 0.7429607
vn 0.9941406 0.1044922 -0.02131653
v -9.407999E-05 0.06904214 -0.05428989
vt 0.6751001 0.8044465
vn 0.9897461 0.1402588 -0.01577759
v 0.001823848 0.05495848 -0.05922588
vt 0.7319867 0.8229097
vn 0.9970703 0.05090332 -0.05075073
v 0.0001526726 0.06605916 -0.05956969
vt 0.6888304 0.8236861
vn 0.9848633 0.1453857 -0.09124756
v 0.002344056 0.04595213 -0.07632305
vt 0.7680079 0.8903716
vn 0.9995117 0.01367188 -0.002725601
v 1.049019E-05 0.05706381 -0.08104856
vt 0.7248915 0.9091668
vn 0.9755859 0.2164307 0.02723694
v -0.0002273093 0.0560025 -0.0751745
vt 0.7272278 0.8875495
vn 0.9672852 0.2504883 -0.02580261
v 0.0001951061 0.05722523 -0.06934664
vt 0.7249318 0.8625663
vn 0.9873047 0.1575928 -0.007720947
v -0.0003137002 0.06091168 -0.06320931
vt 0.707118 0.8400722
vn 0.9570313 0.2094727 -0.2003174
v -6.407721E-05 0.06968989 -0.04453298
vt 0.6709233 0.7657914
vn 0.9912109 0.130249 -0.003311157
v 0.001612903 0.06743059 -0.01935852
vt 0.6708736 0.6646078
vn 0.9931641 0.1070557 -0.04614258
v -7.32917E-05 0.07679883 -0.02136398
vt 0.6331858 0.6780535
vn 0.9829102 0.1567383 -0.09399414
v 0.001648672 0.07238393 0.00468598
vt 0.6354511 0.5692321
vn 0.9833984 0.1774902 -0.02632141
vn 0.9897461 0.1361084 -0.03665161
vn 0.9921875 0.1173096 -0.02894592
vn 0.9833984 0.1743164 0.03955078
v -9.847533E-05 0.07994311 0.01317818
vt 0.5975471 0.5404918
vn 0.9833984 0.1743164 0.04711914
v 0.003646038 0.06817917 0.02285035
vt 0.6419222 0.4902316
vn 0.7734375 0.6274414 -0.08868408
v -0.0001902595 0.07769865 0.02339915
vt 0.597422 0.4976119
vn 0.9360352 0.3513184 0.007255554
v 0.0001119215 0.03668999 -0.08827187
vt 0.8023287 0.9360558
vn 0.9794922 -0.1925049 -0.05810547
v -0.0001738348 0.04062712 -0.0933836
vt 0.7879445 0.955837
vn 0.9301758 -0.2785645 -0.2381592
v 0.001864457 0.0459285 -0.09162809
vt 0.7680431 0.9492724
vn 0.9936523 0.003850937 -0.1082153
v 0.0003046278 0.01080385 -0.003997683
vt 0.929606 0.610626
vn 0 -0.9995117 -0.02955627
v -7.333842E-05 0.01114235 0.004662739
vt 0.9353894 0.5756375
vn 0 -0.9990234 0.03903198
v -0.0003046278 0.01080385 -0.003997683
vt 0.9320028 0.6111266
vn 0 -0.9995117 -0.02944946
v -5.74374E-05 0.01167535 -0.01342746
vt 0.9212865 0.6481302
vn 0 -0.9956055 -0.09197998
v -2.837967E-06 0.01814528 0.04252934
vt 0.9403949 0.4172962
vn 0.7451172 -0.65625 0.1173096
v -0.0002973553 0.01637329 0.0330607
vt 0.9345947 0.4567994
vn 0.8891602 -0.4570313 0.0004687309
v 0.002713474 0.02125072 0.04264955
vt 0.9222035 0.412299
vn 0.6401367 -0.7661133 -0.04449463
v -9.485229E-05 0.01257803 0.01318869
vt 0.9364991 0.5405565
vn 0.9667969 -0.2541504 -0.01864624
v 0.003476022 0.02398041 0.02291519
vt 0.8936025 0.4906061
vn 0.7797852 -0.6191406 -0.08959961
v -0.0002102344 0.01435357 0.02339023
vt 0.9341162 0.4975844
vn 0.9321289 -0.3530273 0.07653809
v -8.998623E-05 0.02636305 -0.06013899
vt 0.8472545 0.8275312
vn 0.9921875 -0.09515381 -0.07989502
v 0.002055735 0.04212051 -0.0522675
vt 0.7835622 0.7949007
vn 0.9990234 -0.03762817 -0.02279663
v 5.628726E-05 0.02369272 -0.05455953
vt 0.85666 0.8030981
vn 0.9926758 -0.1026611 -0.05773926
v 1.007817E-05 0.03082495 -0.06338289
vt 0.8285545 0.839733
vn 0.9912109 -0.1052856 -0.07543945
v 0.0001938168 0.03504206 -0.06859876
vt 0.8096985 0.8595716
vn 0.9824219 -0.1845703 -0.02128601
v -0.0001283475 0.02113401 -0.02711609
vt 0.8753902 0.6980894
vn 0.9672852 -0.2333984 -0.09924316
v 0.00157243 0.02203121 -0.01240765
vt 0.8784906 0.6375379
vn 0.9912109 -0.1188354 -0.05645752
v 6.279604E-05 0.01567717 -0.02137939
vt 0.8982463 0.6767548
vn 0.9897461 -0.1071167 -0.09069824
vn 0.9882813 -0.1445313 -0.04837036
v 0.001578038 0.02028327 -0.003298994
vt 0.8913865 0.6014549
vn 0.9819336 -0.1870117 -0.0166626
vn 0.9907227 -0.1326904 -0.004543304
vn 0.987793 -0.1489258 0.03396606
v -0.00157243 0.02203121 -0.01240765
vt 0.1215094 0.6375379
vn -0.9912109 -0.1160278 -0.0562439
vt 0.1017537 0.6767548
vn -0.9873047 -0.1313477 -0.08691406
vt 0.08116549 0.647517
vn -0.9887695 -0.1362305 -0.05410767
vt 0.07039398 0.610626
vn -0.9907227 -0.1326904 -0.00585556
vt 0.06719434 0.5753673
vn -0.9892578 -0.1414795 0.02452087
v -0.001578038 0.02028327 -0.003298994
vt 0.1086135 0.6014549
vn -0.9829102 -0.182373 -0.01951599
v -0.002055735 0.04212051 -0.0522675
vt 0.2164378 0.7949007
vn -0.9985352 -0.03799438 -0.02598572
vt 0.1714436 0.8397325
vn -0.9912109 -0.07373047 -0.1092529
vt 0.1552768 0.8255914
vn -0.9936523 -0.09399414 -0.05993652
v -0.003476022 0.02398041 0.02291519
vt 0.1063984 0.4906061
vn -0.7851563 -0.6118164 -0.09216309
vt 0.06588376 0.4975844
vn -0.9462891 -0.3183594 0.05059814
vt 0.06540531 0.4567994
vn -0.9165039 -0.3991699 0.004512787
vt 0.06637472 0.5401287
vn -0.9702148 -0.2390137 -0.02378845
vt 0.1267127 0.6968786
vn -0.9731445 -0.2130127 -0.08691406
vt 0.1879109 0.8611612
vn -0.9785156 -0.2038574 -0.02874756
v -0.002946734 0.04092752 0.09952559
vt 0.4488871 0.8675767
vn 0.4199219 0.3452148 -0.8388672
v -0.004675484 0.04515176 0.09900142
vt 0.4181175 0.8629067
vn 0.4492188 0.0506897 -0.8916016
v 0.0001961544 0.04540067 0.1000088
vt 0.4175035 0.838975
vn 0.2231445 -0.05123901 -0.9731445
vt 0.140933 0.8042342
vn -0.9921875 -0.1095581 -0.05130005
vt 0.4910551 0.8817554
vt 0.4807183 0.8387986
vt 0.3264807 0.8400776
v -0.002368538 0.05162681 0.09964302
vt 0.3597754 0.8699286
vn 0.1700439 -0.5117188 -0.8417969
vt 0.3167784 0.8969219
v -0.006673448 0.04876898 0.09813949
vt 0.3856965 0.8729159
vn 0.6264648 -0.1324463 -0.7675781
v 3.146866E-06 0.04849018 0.09984615
vt 0.3778442 0.8454181
vn 0.2484131 0.0206604 -0.9682617
v -0.002713474 0.02125072 0.04264955
vt 0.07779644 0.412299
vn -0.6435547 -0.7636719 -0.04177856
vt 0.05960515 0.4172964
vn -0.7431641 -0.6542969 0.1375732
vt 0.4049583 0.4164963
vn -0.7470703 0.6518555 0.1273193
vt 0.4001589 0.4564655
vn -0.8896484 0.4558105 0.01811218
v -0.00270475 0.07062312 0.04265177
vt 0.3866513 0.4115503
vn -0.6474609 0.7612305 -0.02819824
v -0.0008841418 0.0362681 -0.07508443
vt 0.1942068 0.8858694
vn -0.96875 -0.2474365 0.005203247
vt 0.1976713 0.9360558
vn -0.9770508 -0.2049561 -0.05404663
v 3.392768E-05 0.03495951 -0.08104233
vt 0.1889682 0.9090744
vn -0.001838684 -0.9799805 -0.197876
v -0.001577754 0.0635708 -0.03178262
vt 0.3080773 0.7137725
vn -0.9902344 0.1087036 -0.0847168
vt 0.3381394 0.6970356
vn -0.9658203 0.2279053 -0.1207275
vt 0.3250786 0.7203011
vn -0.9428711 0.3259277 -0.06799316
vt 0.3223535 0.7429607
vn -0.9941406 0.1057129 -0.01959229
vt 0.3111696 0.8236861
vn -0.9755859 0.1694336 -0.1365967
v -0.001823848 0.05495848 -0.05922588
vt 0.2680133 0.8229097
vn -0.9970703 0.04196167 -0.05880737
vt 0.323065 0.8038681
vn -0.9907227 0.1303711 -0.02481079
vt 0.2698225 0.8862047
vn -0.9785156 0.2044678 0.01372528
vt 0.2751098 0.9091668
vn -0.9775391 0.2087402 0.003740311
v -0.002344056 0.04595213 -0.07632305
vt 0.2319921 0.8903716
vn -0.9995117 0.01200104 -0.001146317
vt 0.2750682 0.8625663
vn -0.9868164 0.161499 -0.0001844168
vt 0.2903244 0.8377014
vn -0.9775391 0.1541748 -0.1401367
vt 0.3271213 0.7660725
vn -0.9956055 0.08764648 0.03134155
vt 0.2120555 0.955837
vn -0.953125 -0.2453613 -0.1766357
v -0.001864457 0.0459285 -0.09162809
vt 0.2319569 0.9492724
vn -0.9946289 0.003318787 -0.1029053
vt 0.365229 0.6771263
vn -0.9848633 0.1407471 -0.09863281
v -0.001612903 0.06743059 -0.01935852
vt 0.3291264 0.6646078
vn -0.9931641 0.1053467 -0.04803467
vt 0.3855047 0.6478458
vn -0.9907227 0.1292725 -0.03320313
v -0.001648672 0.07238393 0.00468598
vt 0.3645489 0.5692321
vn -0.9838867 0.1741943 -0.02880859
vt 0.3995417 0.575597
vn -0.980957 0.1911621 0.03161621
vt 0.3963178 0.6109211
vn -0.9912109 0.1279297 -0.01739502
vt 0.3997756 0.4974001
vn -0.9467773 0.3203125 0.0294342
vt 0.400345 0.5402806
vn -0.9838867 0.1750488 0.02374268
v -0.003646038 0.06817917 0.02285035
vt 0.358077 0.4902316
vn -0.7758789 0.6240234 -0.0859375
v -1.227733E-32 0.07057296 0.05745747
vt 0.5927664 0.3524479
vn 0 0.9970703 0.07507324
v 0.002977118 0.0641474 0.005033942
vt 0.669855 0.5616685
vn 0.855957 0.496582 -0.1407471
v 0.002297229 0.05501011 -0.02426436
vt 0.7261904 0.6784171
vn 0.8916016 0.4057617 -0.1993408
v 0.002177741 0.04592781 -0.04087339
vt 0.7678466 0.7470616
vn 0.9970703 0.02362061 -0.06604004
v 0.001469683 0.02831011 -0.03179128
vt 0.8436422 0.7136404
vn 0.9946289 -0.09509277 -0.0304718
v 0.002257 0.03692066 -0.02424791
vt 0.8094004 0.6783634
vn 0.9033203 -0.3808594 -0.1960449
v 0.0009610872 0.02434346 -0.03876916
vt 0.856886 0.742671
vn 0.987793 -0.1519775 -0.02737427
v 2.988193E-05 0.02251286 -0.04448724
vt 0.8629976 0.7655696
vn 0.0005912781 -0.9956055 -0.08929443
v -0.0009610872 0.02434346 -0.03876916
vt 0.8595673 0.7431482
vn -0.9873047 -0.1542969 -0.03068542
v -1.32948E-06 0.02404057 -0.03298632
vt 0.8605011 0.7201144
vn 0.005149841 -0.9990234 -0.03720093
v 0.002601302 0.03262811 -0.01146609
vt 0.8348446 0.6270793
vn 0.859375 -0.4755859 -0.1870117
v 0.00333231 0.02733169 0.004952554
vt 0.8656842 0.5618231
vn 0.8486328 -0.5161133 -0.1147461
v 9.291438E-11 0.0211437 0.05747979
vt 0.9429299 0.3535845
vn 0 -0.9946289 0.1033936
vt 0.05706883 0.3535845
v -0.00333231 0.02733169 0.004952554
vt 0.1343169 0.5618235
vn -0.8500977 -0.5126953 -0.1160278
v -0.002601302 0.03262811 -0.01146609
vt 0.1651542 0.6270792
vn -0.859375 -0.4755859 -0.1870117
v -0.002257 0.03692066 -0.02424791
vt 0.1906011 0.6783636
vn -0.9033203 -0.3808594 -0.1960449
v -0.001469683 0.02831011 -0.03179128
vt 0.1563578 0.7136404
vn -0.9951172 -0.09106445 -0.03024292
v -0.002177741 0.04592781 -0.04087339
vt 0.2321533 0.7470645
vn -0.9970703 0.02722168 -0.06549072
vt 0.1394995 0.7201126
vt 0.143114 0.742671
vt 0.1370035 0.7655686
v -0.002297229 0.05501011 -0.02426436
vt 0.2738082 0.6784174
vn -0.8916016 0.4057617 -0.1993408
v -0.002977118 0.0641474 0.005033942
vt 0.3301439 0.5616688
vn -0.855957 0.496582 -0.1407471
vt 0.4072348 0.3524479
v 0.0008841418 0.0362681 -0.07508443
vt 0.8057932 0.8858694
vn 0.9672852 -0.2519531 -0.007850647
vt 0.8110323 0.9090728
vt 0.8087358 0.8872375
vn 0 -0.9824219 -0.1856689
v -9.246807E-07 0.04597674 -0.09990647
vt 0.231984 0.981899
vn 0.01623535 0.1911621 -0.980957
v -0.0005203465 0.05479939 -0.08811494
vt 0.2662038 0.936032
vn -0.9560547 0.2744141 -0.1008911
v 0.004335237 0.03638494 0.09517438
vt 0.5389617 0.8934835
vn -0.5644531 0.7226563 -0.3981934
v 4.895797E-08 0.03426069 0.0911538
vt 0.511902 0.9127427
vn 0 0.9980469 -0.06109619
v 0.00655023 0.03799144 0.0911321
vt 0.5520384 0.9070957
vn -0.8125 0.565918 0.1378174
v 1.890981E-08 0.03448172 0.08723412
vt 0.5195495 0.9344378
vn 0 0.9614258 0.2736816
v 0.009137929 0.04417127 0.09514873
vt 0.5831315 0.8884118
vn -0.9594727 0.1687012 -0.2241211
v 0.002842275 0.03799714 0.08267828
vt 0.5513905 0.9523506
vn -0.6123047 0.5791016 0.5380859
v -2.006464E-08 0.03996446 0.08053622
vt 0.5585486 0.9722608
vn 0 0.4245605 0.9052734
v 0.009006557 0.04616727 0.08641876
vt 0.5956132 0.9209455
vn -0.9301758 -0.02464294 0.3654785
v 0.003954466 0.04606422 0.08035324
vt 0.5950716 0.960476
vn -0.6557617 -0.06228638 0.7519531
v 3.638089E-07 0.04593531 0.07972761
vt 0.5951257 0.9796783
vn 0 0.04428101 0.9985352
v -8.200544E-07 0.05146481 0.08004475
vt 0.6289456 0.9737881
vn 0 -0.4584961 0.8881836
v 0.004708984 0.05581186 0.08648685
vt 0.6472929 0.9290451
vn -0.6591797 -0.7011719 0.2712402
v -7.985577E-07 0.05598583 0.08343688
vt 0.6578932 0.9549751
vn 0 -0.8647461 0.5014648
v 0.0079864 0.05202716 0.09518824
vt 0.6267596 0.8882436
vn -0.8256836 -0.5332031 -0.1828613
vn 0 0.9521484 -0.3049316
v 0.0005203465 0.05479939 -0.08811494
vt 0.7337962 0.936032
vn 0.9560547 0.2739258 -0.1015015
vt 0.7317435 0.9369954
vt 0.768016 0.9818951
v -0.004335237 0.03638494 0.09517438
vt 0.4610383 0.8934835
vn 0.5644531 0.7226563 -0.3981934
vt 0.488098 0.9127427
v -0.00655023 0.03799144 0.0911321
vt 0.4479616 0.9070957
vn 0.8125 0.565918 0.1378174
vt 0.4804505 0.9344378
v -0.009137929 0.04417127 0.09514873
vt 0.4168685 0.8884118
vn 0.9594727 0.1687012 -0.2241211
v -0.002842275 0.03799714 0.08267828
vt 0.4486095 0.9523506
vn 0.6123047 0.5791016 0.5380859
vt 0.4414514 0.9722608
v -0.009006557 0.04616727 0.08641876
vt 0.4043868 0.9209455
vn 0.9301758 -0.02464294 0.3654785
v -0.003954466 0.04606422 0.08035324
vt 0.4049284 0.960476
vn 0.6557617 -0.06222534 0.7519531
vt 0.4048743 0.9796783
vt 0.3710544 0.9737881
v -0.004708984 0.05581186 0.08648685
vt 0.3527071 0.9290451
vn 0.6591797 -0.7011719 0.2712402
vt 0.3421068 0.9549751
v -0.0079864 0.05202716 0.09518824
vt 0.3732404 0.8882436
vn 0.8256836 -0.5332031 -0.1828613
o pm0602_00_00_body_mesh_shape_lod2_body_01
g polygon_0
usemtl body_01
f 1/1/1 2/2/2 3/3/3
f 4/4/4 5/5/5 3/3/3
f 6/6/6 7/7/7 8/8/8
f 1/1/1 9/9/9 10/10/10
f 10/10/10 9/9/9 8/8/8
f 11/11/11 12/12/12 13/13/13
f 13/13/13 14/14/14 11/11/11
f 15/15/15 16/16/16 17/17/17
f 18/18/18 19/19/19 20/20/20
f 21/21/21 19/19/19 18/18/18
f 22/22/22 23/23/23 24/24/24
f 25/25/25 26/26/26 27/27/27
f 27/27/27 28/28/28 25/25/25
f 28/28/28 29/29/29 23/23/23
f 23/23/23 30/30/30 21/21/21
f 22/22/22 30/30/30 23/23/23
f 31/31/31 20/20/20 32/32/32
f 33/33/33 14/14/34 13/13/35
f 12/12/36 34/34/37 33/33/33
f 35/35/38 36/36/39 16/16/16
f 23/23/23 29/29/29 24/24/24
f 34/34/37 36/36/39 33/33/33
f 13/13/35 12/12/36 33/33/33
f 31/31/31 32/32/32 14/14/34
f 37/37/40 38/38/41 39/39/42
f 40/40/43 41/41/44 42/42/45
f 43/43/46 40/40/43 42/42/45
f 44/44/47 45/45/48 46/46/49
f 47/47/50 48/48/51 49/49/52
f 50/50/53 51/51/54 52/52/55
f 53/53/56 54/54/57 51/51/54
f 55/55/58 56/56/59 57/57/60
f 43/43/61 58/58/62 40/40/63
f 58/58/62 47/47/50 41/41/64
f 45/45/48 49/49/52 48/48/51
f 50/50/53 53/53/56 51/51/54
f 58/58/62 41/41/64 40/40/63
f 57/57/60 56/56/59 43/43/61
f 59/59/65 57/60/66 43/61/67
f 42/62/68 41/63/69 60/64/70
f 61/65/71 53/66/72 50/67/73
f 62/68/74 49/69/75 45/70/76
f 41/63/69 47/71/77 60/64/70
f 60/64/70 43/61/67 42/62/68
f 59/59/65 55/72/78 57/60/66
f 54/73/79 53/66/72 61/65/71
f 63/74/80 64/75/81 65/76/82
f 50/67/73 52/77/83 61/65/71
f 49/69/75 62/68/74 47/71/77
f 4/78/4 63/74/80 5/79/5
f 6/80/6 66/81/84 7/82/7
f 65/76/82 67/83/85 68/84/86
f 68/84/86 67/83/85 66/81/84
f 69/85/87 45/70/76 44/86/88
f 17/87/89 16/88/90 70/89/91
f 71/90/92 37/91/93 72/92/94
f 73/93/95 20/94/96 19/95/97
f 73/93/95 19/95/97 21/96/98
f 24/97/99 74/98/100 22/99/101
f 27/100/102 26/101/103 75/102/104
f 27/100/102 75/102/104 28/103/105
f 29/104/106 28/103/105 74/98/100
f 30/105/107 74/98/100 21/96/98
f 38/106/108 37/91/93 76/107/109
f 22/99/101 74/98/100 30/105/107
f 32/108/110 77/109/111 14/110/112
f 20/94/96 77/109/111 32/108/110
f 78/111/113 12/112/114 11/113/115
f 78/111/113 36/114/116 34/115/117
f 14/110/112 78/111/113 11/113/115
f 24/97/99 29/104/106 74/98/100
f 78/111/113 34/115/117 12/112/114
f 16/88/90 36/114/116 79/116/118
f 15/15/15 17/17/17 80/117/119
f 35/35/38 16/16/16 15/15/15
f 36/36/39 35/35/38 33/33/33
f 33/33/33 35/35/38 81/118/120
f 81/118/120 31/31/31 33/33/33
f 31/31/31 14/14/34 33/33/33
f 82/119/121 31/31/31 81/118/120
f 82/119/121 18/18/18 31/31/31
f 18/18/18 20/20/20 31/31/31
f 18/18/18 82/119/121 83/120/122
f 83/120/122 21/21/21 18/18/18
f 23/23/23 21/21/21 83/120/122
f 28/28/28 23/23/23 51/51/54
f 23/23/23 83/120/122 51/51/54
f 84/121/123 51/51/54 83/120/122
f 85/122/124 84/121/123 83/120/122
f 52/52/55 51/51/54 86/123/125
f 86/123/125 51/51/54 84/121/123
f 87/124/126 52/52/55 86/123/125
f 87/124/126 86/123/125 88/125/127
f 86/123/125 89/126/128 88/125/127
f 84/121/123 89/126/128 86/123/125
f 84/121/123 55/55/58 89/126/128
f 84/121/123 85/122/124 56/56/59
f 84/121/123 56/56/59 55/55/58
f 85/122/124 90/127/129 56/56/59
f 90/127/129 91/128/130 56/56/59
f 56/56/59 58/58/62 43/43/61
f 56/56/59 91/128/130 58/58/62
f 58/58/62 91/128/130 47/47/50
f 91/128/130 48/48/51 47/47/50
f 46/46/49 45/45/48 48/48/51
f 46/46/49 92/129/131 44/44/47
f 69/85/87 44/86/88 92/130/131
f 62/68/74 45/70/76 69/85/87
f 47/71/77 62/68/74 93/131/132
f 93/131/132 60/64/70 47/71/77
f 93/131/132 59/59/65 60/64/70
f 59/59/65 43/61/67 60/64/70
f 94/132/133 59/59/65 93/131/132
f 59/59/65 94/132/133 95/133/134
f 96/134/135 59/59/65 95/133/134
f 59/59/65 96/134/135 55/72/78
f 97/135/136 96/134/135 95/133/134
f 96/134/135 89/136/128 55/72/78
f 88/137/127 89/136/128 96/134/135
f 88/137/127 52/77/83 87/138/126
f 88/137/127 96/134/135 61/65/71
f 52/77/83 88/137/127 61/65/71
f 96/134/135 97/135/136 61/65/71
f 61/65/71 74/98/100 28/103/105
f 97/135/136 74/98/100 61/65/71
f 74/98/100 97/135/136 21/96/98
f 21/96/98 97/135/136 73/93/95
f 97/135/136 98/139/137 73/93/95
f 73/93/95 98/139/137 77/109/111
f 73/93/95 77/109/111 20/94/96
f 98/139/137 99/140/138 77/109/111
f 77/109/111 99/140/138 78/111/113
f 77/109/111 78/111/113 14/110/112
f 99/140/138 79/116/118 78/111/113
f 78/111/113 79/116/118 36/114/116
f 70/89/91 16/88/90 79/116/118
f 70/89/91 80/141/119 17/87/89
f 25/25/25 28/28/28 51/51/54
f 54/54/57 25/25/25 51/51/54
f 100/142/139 37/37/40 25/25/25
f 100/142/139 25/25/25 54/54/57
f 71/90/92 54/73/79 75/102/104
f 37/91/93 71/90/92 75/102/104
f 75/102/104 54/73/79 61/65/71
f 28/103/105 75/102/104 61/65/71
f 72/143/94 37/37/40 100/142/139
f 72/143/94 100/142/139 71/144/92
f 71/144/92 100/142/139 54/54/140
f 76/107/109 101/145/141 38/106/108
f 102/146/142 101/145/141 76/107/109
f 75/102/104 102/146/142 76/107/109
f 37/91/93 75/102/104 76/107/109
f 26/101/103 102/146/142 75/102/104
f 3/3/3 103/147/143 4/4/4
f 4/4/4 103/147/143 104/148/144
f 103/147/143 105/149/145 104/148/144
f 104/148/144 105/149/145 106/150/146
f 3/3/3 107/151/147 103/147/143
f 103/147/143 107/151/147 105/149/145
f 105/149/145 108/152/148 106/150/146
f 106/150/146 108/152/148 109/153/149
f 105/149/145 110/154/150 108/152/148
f 105/149/145 107/151/147 110/154/150
f 109/153/149 108/152/148 111/155/151
f 108/152/148 110/154/150 111/155/151
f 109/153/149 111/155/151 112/156/152
f 112/156/152 111/155/151 113/157/153
f 113/157/153 111/155/151 114/158/154
f 114/158/154 111/155/151 110/154/150
f 113/157/153 114/158/154 115/159/155
f 7/7/7 115/159/155 114/158/154
f 110/154/150 116/160/156 114/158/154
f 116/160/156 7/7/7 114/158/154
f 116/160/156 8/8/8 7/7/7
f 107/151/147 116/160/156 110/154/150
f 10/10/10 8/8/8 116/160/156
f 107/151/147 10/10/10 116/160/156
f 2/2/2 10/10/10 107/151/147
f 2/2/2 107/151/147 3/3/3
f 1/1/1 10/10/10 2/2/2
f 26/26/157 117/161/158 102/162/142
f 117/161/158 101/163/141 102/162/142
f 38/38/41 101/163/141 39/39/42
f 39/39/42 101/163/141 117/161/158
f 117/161/158 25/25/25 39/39/42
f 25/25/25 37/37/40 39/39/42
f 26/26/26 25/25/25 117/161/158
f 4/78/4 118/164/159 63/74/80
f 4/78/4 104/165/144 118/164/159
f 104/165/144 119/166/160 118/164/159
f 106/167/146 119/166/160 104/165/144
f 118/164/159 120/168/161 63/74/80
f 118/164/159 119/166/160 120/168/161
f 119/166/160 106/167/146 121/169/162
f 106/167/146 109/170/149 121/169/162
f 121/169/162 122/171/163 119/166/160
f 120/168/161 119/166/160 122/171/163
f 121/169/162 109/170/149 123/172/164
f 123/172/164 122/171/163 121/169/162
f 109/170/149 112/173/152 123/172/164
f 113/174/153 123/172/164 112/173/152
f 113/174/153 124/175/165 123/172/164
f 124/175/165 122/171/163 123/172/164
f 115/176/155 124/175/165 113/174/153
f 124/175/165 115/176/155 7/82/7
f 124/175/165 125/177/166 122/171/163
f 125/177/166 124/175/165 7/82/7
f 66/81/84 125/177/166 7/82/7
f 122/171/163 125/177/166 120/168/161
f 67/83/85 125/177/166 66/81/84
f 125/177/166 67/83/85 120/168/161
f 120/168/161 67/83/85 64/75/81
f 64/75/81 67/83/85 65/76/82
f 63/74/80 120/168/161 64/75/81
v 0.01514436 0.05563379 0.08001068
vt 0.7471792 0.1412698
vn 0.3896484 -0.9086914 0.1490479
v 0.01339843 0.05407215 0.08132841
vt 0.7541469 0.13609
vn 0.4958496 -0.7905273 -0.3588867
v 0.0135227 0.054217 0.07976077
vt 0.7536891 0.1414977
vn 0.6464844 -0.7568359 0.09326172
v 0.01508869 0.05379211 0.08365642
vt 0.7513739 0.1270437
vn 0.4899902 -0.6005859 -0.6313477
v 0.01449973 0.05306619 0.07674253
vt 0.7554358 0.1522113
vn 0.1012573 -0.7597656 0.6420898
v 0.0137824 0.05406697 0.07859121
vt 0.753759 0.1455542
vn 0.3925781 -0.7807617 0.4853516
v 0.0136394 0.03855756 0.08150766
vt 0.78894 0.1356593
vn 0.5600586 0.7421875 -0.3664551
v 0.01529578 0.03679395 0.08026012
vt 0.7966153 0.1405047
vn 0.4431152 0.8881836 0.1192627
v 0.01372726 0.0381889 0.07999299
vt 0.7900787 0.1407034
vn 0.6586914 0.7504883 0.04980469
v 0.01407837 0.03838643 0.07839397
vt 0.7895475 0.1460314
vn 0.2963867 0.8129883 0.5004883
v 0.0145762 0.03931012 0.07699397
vt 0.7868223 0.1508501
vn 0.1287842 0.7670898 0.6279297
vn 0.9311523 0.2895508 0.2208252
vn 0.9086914 0.3933105 0.1365967
v 0.01281537 0.05832362 0.0870244
vt 0.7160996 0.109881
vn 0.7338867 0.6181641 0.2810059
vt 0.7328014 0.01267999
vn 0 0.3210449 0.9467773
vt 0.7317343 0.04942542
vn 0.1276855 0.1999512 0.9711914
v -2.851999E-08 0.05914079 0.09660739
vt 0.6901287 0.04142994
vn 0 0.6088867 0.7929688
vt 0.7467648 0.03363317
vn 0.1981201 -0.01882935 0.9794922
v 0.009437318 0.04601532 0.09788898
vt 0.7699487 0.06999052
vn 0.6274414 -0.03140259 0.777832
vt 0.7788467 0.02879292
vn 0.2121582 0.04092407 0.9760742
v 0.0129775 0.031451 0.08004837
vt 0.8346902 0.1368322
vn 0.71875 -0.6806641 0.1395264
vn 0.909668 -0.3991699 0.1135864
v 0.01549845 0.03841056 0.08367293
vt 0.7913834 0.1270252
vn 0.9106445 -0.314209 0.2666016
v 0.01699052 0.05226478 0.07550039
vt 0.7541904 0.1600515
vn 0.1420898 -0.5498047 0.8227539
v 0.01519665 0.05131629 0.07552133
vt 0.7587141 0.1568545
vn 0.2030029 -0.3579102 0.9111328
v 0.01763086 0.04942128 0.07454434
vt 0.7601702 0.1641605
vn 0.1047974 -0.1495361 0.9829102
v 0.01559695 0.04891084 0.07476084
vt 0.7633175 0.1592803
vn 0.1444092 -0.161499 0.9760742
v 0.01601386 0.04596414 0.07448915
vt 0.7691262 0.1600617
vn 0.008262634 0.001477242 0.9995117
vn 0.4641113 0.5961914 -0.6547852
v 0.01369518 0.0394856 0.08289447
vt 0.7865465 0.1310918
vn 0.5869141 0.5654297 -0.5791016
v 0.01388266 0.04095831 0.08410433
vt 0.782253 0.1270682
vn 0.3625488 0.3745117 -0.8530273
v 0.01402763 0.04338054 0.08506978
vt 0.7756399 0.1239178
vn 0.1739502 0.2971191 -0.9384766
v 0.01560835 0.04596236 0.08616066
vt 0.7696926 0.1169069
vn 0.3327637 0.1102295 -0.9360352
v 0.01412634 0.04597031 0.0854594
vt 0.7698589 0.1225843
vn 0.4274902 0.02575684 -0.9033203
v 0.01397923 0.04885507 0.08520229
vt 0.7642992 0.1231259
vn 0.4294434 -0.1621094 -0.8881836
v 0.01551537 0.04928175 0.08586098
vt 0.7615146 0.1185938
vn 0.4150391 -0.21875 -0.8828125
v 0.01384584 0.05088185 0.08437962
vt 0.7603132 0.1257243
vn 0.4162598 -0.373291 -0.8286133
v 0.01354388 0.05287878 0.08302432
vt 0.7563602 0.1303804
vn 0.5688477 -0.5229492 -0.6342773
vt 0.8061818 0.04913676
vn 0.1433105 -0.1572266 0.9770508
vt 0.8051775 0.0156737
vn 0 -0.2646484 0.9638672
v -1.131519E-09 0.0326368 0.09707769
vt 0.8558414 0.04833549
vn 0 -0.7167969 0.6967773
vn 0.9487305 0.3078613 0.06640625
v 0.0151565 0.05945338 0.06837846
vt 0.7090608 0.1850228
vn 0.7998047 0.5898438 0.1063843
vn 0.9863281 0.1335449 0.09411621
vn 0.9956055 0.00561142 0.09228516
v 0.01530855 0.04577371 0.09013398
vt 0.7700849 0.1008729
vn 0.8706055 -0.1430664 0.4697266
vn 0.972168 0.1320801 0.1917725
v 0.0147294 0.04964519 0.08959566
vt 0.7539691 0.1017282
vn 0.9052734 0.2436523 0.347168
vt 0.2211533 0.02879292
vn -0.2121582 0.04092407 0.9760742
v -0.009437318 0.04601532 0.09788898
vt 0.2300513 0.06999052
vn -0.6274414 -0.03140259 0.777832
vt 0.1938182 0.04913676
vn -0.1433105 -0.1572266 0.9770508
v -0.01514436 0.05563379 0.08001068
vt 0.2528208 0.1412698
vn -0.3896484 -0.9086914 0.1490479
v -0.01339843 0.05407215 0.08132841
vt 0.2458531 0.13609
vn -0.4958496 -0.7905273 -0.3588867
v -0.01508869 0.05379211 0.08365642
vt 0.2486261 0.1270437
vn -0.4899902 -0.6005859 -0.6313477
v -0.0135227 0.054217 0.07976077
vt 0.2463109 0.1414977
vn -0.6464844 -0.7568359 0.09326172
v -0.01449973 0.05306619 0.07674253
vt 0.2445642 0.1522113
vn -0.1012573 -0.7597656 0.6420898
v -0.0137824 0.05406697 0.07859121
vt 0.246241 0.1455542
vn -0.3925781 -0.7807617 0.4853516
v -0.0136394 0.03855756 0.08150766
vt 0.21106 0.1356593
vn -0.5600586 0.7421875 -0.3664551
v -0.01372726 0.0381889 0.07999299
vt 0.2099213 0.1407034
vn -0.6586914 0.7504883 0.04980469
v -0.01529578 0.03679395 0.08026012
vt 0.2033847 0.1405047
vn -0.4431152 0.8881836 0.1192627
v -0.0145762 0.03931012 0.07699397
vt 0.2131777 0.1508501
vn -0.1287842 0.7670898 0.6279297
v -0.01407837 0.03838643 0.07839397
vt 0.2104525 0.1460314
vn -0.2963867 0.8129883 0.5004883
vn -0.9086914 0.3933105 0.1365967
vn -0.9311523 0.2895508 0.2208252
v -0.01281537 0.05832362 0.0870244
vt 0.2839004 0.109881
vn -0.7338867 0.6181641 0.2810059
vt 0.2671986 0.01267999
vt 0.3098713 0.04142994
vt 0.2682657 0.04942542
vn -0.1276855 0.1999512 0.9711914
vt 0.2532352 0.03363317
vn -0.1981201 -0.01882935 0.9794922
v -0.01549845 0.03841056 0.08367293
vt 0.2086166 0.1270252
vn -0.9106445 -0.314209 0.2666016
vn -0.909668 -0.3991699 0.1135864
v -0.0129775 0.031451 0.08004837
vt 0.1653098 0.1368322
vn -0.71875 -0.6806641 0.1395264
v -0.01699052 0.05226478 0.07550039
vt 0.2458096 0.1600515
vn -0.1420898 -0.5498047 0.8227539
v -0.01519665 0.05131629 0.07552133
vt 0.2412859 0.1568545
vn -0.2030029 -0.3579102 0.9111328
v -0.01763086 0.04942128 0.07454434
vt 0.2398298 0.1641605
vn -0.1047974 -0.1495361 0.9829102
v -0.01559695 0.04891084 0.07476084
vt 0.2366825 0.1592803
vn -0.1444092 -0.161499 0.9760742
v -0.01601386 0.04596414 0.07448915
vt 0.2308738 0.1600617
vn -0.008262634 0.001477242 0.9995117
vn -0.4641113 0.5961914 -0.6547852
v -0.01369518 0.0394856 0.08289447
vt 0.2134535 0.1310918
vn -0.5869141 0.5654297 -0.5791016
v -0.01388266 0.04095831 0.08410433
vt 0.217747 0.1270682
vn -0.3625488 0.3745117 -0.8530273
v -0.01402763 0.04338054 0.08506978
vt 0.2243601 0.1239178
vn -0.1739502 0.2971191 -0.9384766
v -0.01560835 0.04596236 0.08616066
vt 0.2303074 0.1169069
vn -0.3327637 0.1102295 -0.9360352
v -0.01412634 0.04597031 0.0854594
vt 0.2301411 0.1225843
vn -0.4274902 0.02575684 -0.9033203
v -0.01397923 0.04885507 0.08520229
vt 0.2357008 0.1231259
vn -0.4294434 -0.1621094 -0.8881836
v -0.01551537 0.04928175 0.08586098
vt 0.2384854 0.1185938
vn -0.4150391 -0.21875 -0.8828125
v -0.01384584 0.05088185 0.08437962
vt 0.2396868 0.1257243
vn -0.4162598 -0.373291 -0.8286133
v -0.01354388 0.05287878 0.08302432
vt 0.2436398 0.1303804
vn -0.5688477 -0.5229492 -0.6342773
vt 0.1441586 0.04833549
vt 0.1948225 0.0156737
vn -0.9487305 0.3078613 0.06640625
v -0.0151565 0.05945338 0.06837846
vt 0.2909392 0.1850228
vn -0.7998047 0.5898438 0.1063843
vn -0.9863281 0.1335449 0.09411621
vn -0.9956055 0.00561142 0.09228516
v -0.01530855 0.04577371 0.09013398
vt 0.2299151 0.1008729
vn -0.8706055 -0.1430664 0.4697266
v -0.0147294 0.04964519 0.08959566
vt 0.2460309 0.1017282
vn -0.9052734 0.2436523 0.347168
vn -0.972168 0.1320801 0.1917725
v 0.01724635 0.0400644 0.07553963
vt 0.7854933 0.1608752
vn 0.9345703 -0.2670898 0.2338867
v 0.01517198 0.04102468 0.07564488
vt 0.7816463 0.1557238
vn 0.2210693 0.3903809 0.8935547
v 0.01775692 0.04307349 0.07453595
vt 0.7765955 0.1649281
vn 0.9858398 0.001844406 0.164917
v 0.01565678 0.04344732 0.07477808
vt 0.7754567 0.1588473
vn 0.147583 0.2025146 0.9677734
v 0.01804825 0.03918662 0.06841406
vt 0.7984594 0.1883949
vn 0.9594727 -0.2705078 0.07818604
v 0.01800665 0.05267276 0.06840982
vt 0.7402143 0.1876369
vn 0.9750977 0.2047119 0.08459473
v 0.01271328 0.03411295 0.08743889
vt 0.8217922 0.109028
vn 0.7832031 -0.4621582 0.4150391
v 0.01953563 0.04595247 0.05774094
vt 0.7689614 0.2318611
vn 0.9995117 0.002569199 0.01649475
v 0.01574781 0.03191235 0.05774908
vt 0.8319255 0.2305633
vn 0.8740234 -0.484375 0.03567505
v 0.01568021 0.0599257 0.05774085
vt 0.7060155 0.2293096
vn 0.8862305 0.4621582 0.01594543
v 0.01965038 0.04595454 0.04265764
vt 0.7683491 0.2949308
vn 0.9985352 0.001851082 -0.05267334
v 0.008597492 0.06650148 0.06838466
vt 0.66786 0.1792647
vn 0.5493164 0.8251953 0.1295166
v 0.008839608 0.06707116 0.05773921
vt 0.6630554 0.2257186
vn 0.5742188 0.8183594 0.01760864
v 0.01563296 0.06036977 0.04265911
vt 0.7039446 0.2937422
vn 0.8339844 0.5478516 -0.05752563
v 2.583195E-10 0.06984919 0.06856538
vt 0.6283817 0.1706292
vn 0 0.987793 0.1533203
vt 0.622092 0.223137
vt 0.6311796 0.2925274
vt 0.6469145 0.3835232
v 0.007356886 0.06303208 0.08728894
vt 0.6874947 0.09908128
vn 0.4833984 0.8193359 0.3078613
v 7.889243E-10 0.06561817 0.08725112
vt 0.6578124 0.08176774
vn 0 0.9594727 0.2814941
v 2.34084E-09 0.06247794 0.09293577
vt 0.6721551 0.06063622
vn 0 0.8120117 0.5834961
v 0.007823036 0.0553842 0.0972706
vt 0.7247462 0.06788671
vn 0.4643555 0.4848633 0.7407227
v 0.01157985 0.05252048 0.09411653
vt 0.7388665 0.08502465
vn 0.7915039 0.2602539 0.5522461
v 0.007682066 0.03733774 0.09769744
vt 0.8139655 0.06702209
vn 0.578125 -0.4294434 0.6933594
v 0.007518439 0.02860352 0.08728593
vt 0.8519191 0.100877
vn 0.4733887 -0.8217773 0.3161621
v 1.564988E-10 0.02648484 0.08711444
vt 0.8824826 0.08396524
vn 0 -0.8964844 0.4423828
v 2.071558E-10 0.02402231 0.08002427
vt 0.8969939 0.1181958
vn 0 -0.9858398 0.1671143
v 0.009032118 0.02452585 0.0577775
vt 0.8749214 0.2275596
vn 0.5615234 -0.8251953 0.05368042
vt 0.9159326 0.2257676
vt 0.9055268 0.2950286
v 0.01571661 0.03140212 0.04264172
vt 0.8327593 0.2948787
vn 0.8349609 -0.5454102 -0.06732178
vt 0.8880838 0.3857322
vt 0.8676317 0.4662106
v 0.01458031 0.03351588 0.02290183
vt 0.8243138 0.3804199
vn 0.8720703 -0.4748535 -0.1141968
v 0.01603428 0.04593894 0.004961158
vt 0.7668456 0.4560987
vn 0.9897461 -0.0002572536 -0.1418457
v 0.01232827 0.03584415 0.005020563
vt 0.8137152 0.4586409
vn 0.8134766 -0.5556641 -0.1699219
v 0.01028265 0.03765233 -0.01165235
vt 0.8027692 0.53089
vn 0.7988281 -0.5341797 -0.2758789
vt 0.8417903 0.5397051
vt 0.814842 0.5949315
vt 0.7651701 0.6609581
v 0.01310108 0.04592835 -0.01162432
vt 0.7662217 0.5278357
vn 0.9604492 -0.001358986 -0.2773438
v 0.01031294 0.05430466 -0.01164859
vt 0.7296259 0.5302753
vn 0.7436523 0.6083984 -0.276123
vt 0.7165383 0.5941555
vt 0.6658896 0.4644144
v 0.01233177 0.05605589 0.00501911
vt 0.7199368 0.4578143
vn 0.8012695 0.5742188 -0.1658936
v 0.01459092 0.05839407 0.02289909
vt 0.7107784 0.3794019
vn 0.8725586 0.4729004 -0.119751
v -0.01724635 0.0400644 0.07553963
vt 0.2145067 0.1608752
vn -0.9345703 -0.2670898 0.2338867
v -0.01517198 0.04102468 0.07564488
vt 0.2183537 0.1557238
vn -0.2210693 0.3903809 0.8935547
v -0.01775692 0.04307349 0.07453595
vt 0.2234045 0.1649281
vn -0.9858398 0.001844406 0.164917
v -0.01565678 0.04344732 0.07477808
vt 0.2245433 0.1588473
vn -0.147583 0.2025146 0.9677734
v -0.01804825 0.03918662 0.06841406
vt 0.2015406 0.1883949
vn -0.9594727 -0.2705078 0.07818604
v -0.01800665 0.05267276 0.06840982
vt 0.2597857 0.1876369
vn -0.9750977 0.2047119 0.08459473
v -0.01271328 0.03411295 0.08743889
vt 0.1782078 0.109028
vn -0.7832031 -0.4621582 0.4150391
v -0.01953563 0.04595247 0.05774094
vt 0.2310386 0.2318611
vn -0.9995117 0.002569199 0.01649475
v -0.01574781 0.03191235 0.05774908
vt 0.1680745 0.2305633
vn -0.8740234 -0.484375 0.03567505
v -0.01568021 0.0599257 0.05774085
vt 0.2939845 0.2293096
vn -0.8862305 0.4621582 0.01594543
v -0.01965038 0.04595454 0.04265764
vt 0.2316509 0.2949308
vn -0.9985352 0.001851082 -0.05267334
v -0.008597492 0.06650148 0.06838466
vt 0.33214 0.1792647
vn -0.5493164 0.8251953 0.1295166
v -0.008839608 0.06707116 0.05773921
vt 0.3369446 0.2257186
vn -0.5742188 0.8183594 0.01760864
v -0.01563296 0.06036977 0.04265911
vt 0.2960554 0.2937422
vn -0.8339844 0.5478516 -0.05752563
vt 0.3716183 0.1706292
vt 0.377908 0.223137
vt 0.3688204 0.2925274
vt 0.3530855 0.3835232
v -0.007356886 0.06303208 0.08728894
vt 0.3125053 0.09908128
vn -0.4833984 0.8193359 0.3078613
vt 0.3421876 0.08176774
vt 0.3278449 0.06063622
v -0.007823036 0.0553842 0.0972706
vt 0.2752538 0.06788671
vn -0.4643555 0.4848633 0.7407227
v -0.01157985 0.05252048 0.09411653
vt 0.2611335 0.08502465
vn -0.7915039 0.2602539 0.5522461
v -0.007682066 0.03733774 0.09769744
vt 0.1860345 0.06702209
vn -0.578125 -0.4294434 0.6933594
v -0.007518439 0.02860352 0.08728593
vt 0.1480809 0.100877
vn -0.4733887 -0.8217773 0.3161621
vt 0.1175174 0.08396524
vt 0.1030061 0.1181958
v -0.009032118 0.02452585 0.0577775
vt 0.1250786 0.2275596
vn -0.5615234 -0.8251953 0.05368042
vt 0.0840674 0.2257676
vt 0.09447324 0.2950286
v -0.01571661 0.03140212 0.04264172
vt 0.1672407 0.2948787
vn -0.8349609 -0.5454102 -0.06732178
vt 0.1119162 0.3857322
vt 0.1323683 0.4662106
v -0.01458031 0.03351588 0.02290183
vt 0.1756862 0.3804199
vn -0.8720703 -0.4748535 -0.1141968
v -0.01603428 0.04593894 0.004961158
vt 0.2331544 0.4560987
vn -0.9897461 -0.0002572536 -0.1418457
v -0.01232827 0.03584415 0.005020563
vt 0.1862848 0.4586409
vn -0.8134766 -0.5556641 -0.1699219
v -0.01028265 0.03765233 -0.01165235
vt 0.1972308 0.53089
vn -0.7988281 -0.5341797 -0.2758789
vt 0.1582097 0.5397051
vt 0.185158 0.5949315
vt 0.2348299 0.6609581
v -0.01310108 0.04592835 -0.01162432
vt 0.2337783 0.5278357
vn -0.9604492 -0.001358986 -0.2773438
v -0.01031294 0.05430466 -0.01164859
vt 0.2703741 0.5302753
vn -0.7436523 0.6083984 -0.276123
vt 0.2834617 0.5941555
vt 0.3341104 0.4644144
v -0.01233177 0.05605589 0.00501911
vt 0.2800632 0.4578143
vn -0.8012695 0.5742188 -0.1658936
v -0.01459092 0.05839407 0.02289909
vt 0.2892216 0.3794019
vn -0.8725586 0.4729004 -0.119751
o pm0602_00_00_body_mesh_shape_lod2_body_00
g polygon_0
usemtl body_00
f 126/178/167 127/179/168 128/180/169
f 129/181/170 127/179/168 126/178/167
f 130/182/171 126/178/167 131/183/172
f 132/184/173 133/185/174 134/186/175
f 135/187/176 133/185/174 136/188/177
f 129/181/178 126/178/179 137/189/180
f 6/190/181 8/191/182 138/192/183
f 9/193/184 139/194/185 8/191/182
f 139/194/185 9/193/184 1/195/186
f 140/196/187 133/185/188 141/197/189
f 131/183/172 126/178/167 128/180/169
f 142/198/190 130/182/171 143/199/191
f 126/178/167 130/182/171 142/198/190
f 144/200/192 143/199/191 145/201/193
f 142/198/190 143/199/191 144/200/192
f 146/202/194 144/200/192 145/201/193
f 134/186/175 133/185/174 135/187/176
f 141/197/195 132/184/173 147/203/196
f 133/185/174 132/184/173 141/197/195
f 141/197/195 147/203/196 148/204/197
f 141/197/195 148/204/197 149/205/198
f 150/206/199 149/205/198 151/207/200
f 141/197/195 149/205/198 150/206/199
f 152/208/201 150/206/199 151/207/200
f 153/209/202 150/206/199 152/208/201
f 154/210/203 153/209/202 152/208/201
f 129/181/170 153/209/202 154/210/203
f 155/211/204 129/181/170 154/210/203
f 127/179/168 129/181/170 155/211/204
f 3/212/205 5/213/206 156/214/207
f 126/178/179 142/198/208 157/215/209
f 142/198/208 144/200/210 157/215/209
f 141/197/189 150/206/211 158/216/212
f 153/209/213 159/217/214 150/206/211
f 153/209/213 129/181/178 159/217/214
f 139/194/185 1/195/186 3/212/205
f 65/218/215 160/219/216 63/220/217
f 161/221/218 162/222/219 163/223/220
f 164/224/221 162/222/219 161/221/218
f 161/221/218 165/225/222 166/226/223
f 167/227/224 168/228/225 169/229/226
f 170/230/227 169/229/226 171/231/228
f 161/221/229 163/223/230 172/232/231
f 6/233/181 138/234/183 66/235/232
f 160/219/216 68/236/233 66/235/232
f 65/218/215 68/236/233 160/219/216
f 173/237/234 169/229/235 174/238/236
f 164/224/221 161/221/218 166/226/223
f 175/239/237 165/225/222 161/221/218
f 176/240/238 165/225/222 175/239/237
f 177/241/239 176/240/238 175/239/237
f 178/242/240 176/240/238 177/241/239
f 177/241/239 179/243/241 178/242/240
f 169/229/226 168/228/225 171/231/228
f 173/237/242 167/227/224 169/229/226
f 180/244/243 167/227/224 173/237/242
f 181/245/244 180/244/243 173/237/242
f 182/246/245 181/245/244 173/237/242
f 183/247/246 182/246/245 173/237/242
f 184/248/247 182/246/245 183/247/246
f 183/247/246 185/249/248 184/248/247
f 186/250/249 185/249/248 183/247/246
f 186/250/249 187/251/250 185/249/248
f 163/223/220 187/251/250 186/250/249
f 163/223/220 188/252/251 187/251/250
f 162/222/219 188/252/251 163/223/220
f 156/253/207 5/254/206 63/220/217
f 175/239/252 161/221/229 189/255/253
f 189/255/253 177/241/254 175/239/252
f 183/247/255 173/237/234 190/256/256
f 183/247/255 191/257/257 186/250/258
f 191/257/257 163/223/230 186/250/258
f 133/185/174 192/258/259 136/188/177
f 136/188/177 192/258/259 193/259/260
f 192/258/259 194/260/261 193/259/260
f 193/259/260 194/260/261 195/261/262
f 194/260/261 146/202/194 195/261/262
f 194/260/261 144/200/192 146/202/194
f 133/185/188 140/196/187 192/258/259
f 192/258/259 196/262/263 194/260/261
f 192/258/259 140/196/187 196/262/263
f 194/260/261 197/263/264 144/200/210
f 196/262/263 197/263/264 194/260/261
f 141/197/189 198/264/265 140/196/187
f 199/265/266 197/263/264 196/262/263
f 196/262/263 140/196/187 200/266/267
f 199/265/266 196/262/263 200/266/267
f 197/263/264 157/215/209 144/200/210
f 201/267/268 197/263/264 199/265/266
f 197/263/264 201/267/268 157/215/209
f 199/265/266 200/266/267 202/268/269
f 202/268/269 201/267/268 199/265/266
f 157/215/209 137/189/180 126/178/179
f 201/267/268 203/269/270 157/215/209
f 203/269/270 137/189/180 157/215/209
f 204/270/271 203/269/270 201/267/268
f 159/217/214 129/181/178 137/189/180
f 205/271/272 204/270/271 201/267/268
f 205/271/272 201/267/268 202/268/269
f 204/270/271 206/272/273 203/269/270
f 80/273/119 206/272/273 204/270/271
f 204/270/271 15/274/15 80/273/119
f 205/271/272 15/274/15 204/270/271
f 205/271/272 35/275/38 15/274/15
f 207/276/274 203/269/270 206/272/273
f 207/276/274 137/189/180 203/269/270
f 208/277/275 207/276/274 206/272/273
f 208/277/275 209/278/276 207/276/274
f 207/276/274 209/278/276 210/279/277
f 137/189/180 207/276/274 210/279/277
f 209/278/276 138/192/183 210/279/277
f 8/191/182 210/279/277 138/192/183
f 211/280/278 137/189/180 210/279/277
f 211/280/278 159/217/214 137/189/180
f 139/194/185 210/279/277 8/191/182
f 211/280/278 210/279/277 139/194/185
f 211/280/278 158/216/212 159/217/214
f 139/194/185 158/216/212 211/280/278
f 150/206/211 159/217/214 158/216/212
f 139/194/185 3/212/205 212/281/279
f 212/281/279 158/216/212 139/194/185
f 158/216/212 198/264/265 141/197/189
f 198/264/265 158/216/212 212/281/279
f 156/214/207 212/281/279 3/212/205
f 198/264/265 212/281/279 213/282/280
f 212/281/279 156/214/207 213/282/280
f 198/264/265 213/282/280 140/196/187
f 213/282/280 156/214/207 214/283/281
f 213/282/280 214/283/281 215/284/282
f 216/285/283 140/196/187 213/282/280
f 213/282/280 215/284/282 216/285/283
f 200/266/267 140/196/187 216/285/283
f 216/285/283 215/284/282 92/286/131
f 46/287/49 216/285/283 92/286/131
f 200/266/267 216/285/283 217/288/284
f 217/288/284 216/285/283 46/287/49
f 48/289/51 217/288/284 46/287/49
f 202/268/269 200/266/267 217/288/284
f 91/290/130 217/288/284 48/289/51
f 218/291/285 202/268/269 217/288/284
f 91/290/130 218/291/285 217/288/284
f 219/292/286 202/268/269 218/291/285
f 220/293/287 218/291/285 91/290/130
f 218/291/285 220/293/287 219/292/286
f 221/294/288 220/293/287 91/290/130
f 221/294/288 91/290/130 90/295/129
f 85/296/124 221/294/288 90/295/129
f 83/297/122 221/294/288 85/296/124
f 222/298/289 220/293/287 221/294/288
f 221/294/288 83/297/122 222/298/289
f 219/292/286 220/293/287 222/298/289
f 222/298/289 83/297/122 223/299/290
f 83/297/122 82/300/121 223/299/290
f 223/299/290 82/300/121 81/301/120
f 223/299/290 81/301/120 35/275/38
f 223/299/290 224/302/291 222/298/289
f 224/302/291 223/299/290 35/275/38
f 222/298/289 224/302/291 219/292/286
f 224/302/291 35/275/38 225/303/292
f 219/292/286 224/302/291 225/303/292
f 219/292/286 225/303/292 202/268/269
f 225/303/292 35/275/38 205/271/272
f 202/268/269 225/303/292 205/271/272
f 169/229/226 170/230/227 226/304/293
f 226/304/293 170/230/227 227/305/294
f 226/304/293 227/305/294 228/306/295
f 228/306/295 227/305/294 229/307/296
f 229/307/296 179/243/241 228/306/295
f 228/306/295 179/243/241 177/241/239
f 226/304/293 174/238/236 169/229/235
f 226/304/293 228/306/295 230/308/297
f 174/238/236 226/304/293 230/308/297
f 228/306/295 177/241/254 231/309/298
f 230/308/297 228/306/295 231/309/298
f 174/238/236 232/310/299 173/237/234
f 230/308/297 231/309/298 233/311/300
f 234/312/301 174/238/236 230/308/297
f 234/312/301 230/308/297 233/311/300
f 231/309/298 177/241/254 189/255/253
f 233/311/300 231/309/298 235/313/302
f 231/309/298 189/255/253 235/313/302
f 236/314/303 234/312/301 233/311/300
f 233/311/300 235/313/302 236/314/303
f 172/232/231 189/255/253 161/221/229
f 189/255/253 237/315/304 235/313/302
f 172/232/231 237/315/304 189/255/253
f 235/313/302 237/315/304 238/316/305
f 163/223/230 191/257/257 172/232/231
f 235/313/302 238/316/305 239/317/306
f 236/314/303 235/313/302 239/317/306
f 237/315/304 206/318/273 238/316/305
f 238/316/305 206/318/273 80/319/119
f 70/320/91 238/316/305 80/319/119
f 239/317/306 238/316/305 70/320/91
f 79/321/118 239/317/306 70/320/91
f 206/318/273 237/315/304 240/322/307
f 240/322/307 237/315/304 172/232/231
f 206/318/273 240/322/307 208/323/275
f 240/322/307 209/324/276 208/323/275
f 241/325/308 209/324/276 240/322/307
f 172/232/231 241/325/308 240/322/307
f 241/325/308 138/234/183 209/324/276
f 241/325/308 66/235/232 138/234/183
f 242/326/309 241/325/308 172/232/231
f 191/257/257 242/326/309 172/232/231
f 66/235/232 241/325/308 160/219/216
f 160/219/216 241/325/308 242/326/309
f 190/256/256 242/326/309 191/257/257
f 160/219/216 242/326/309 190/256/256
f 190/256/256 191/257/257 183/247/255
f 160/219/216 243/327/310 63/220/217
f 190/256/256 243/327/310 160/219/216
f 173/237/234 232/310/299 190/256/256
f 232/310/299 243/327/310 190/256/256
f 243/327/310 156/253/207 63/220/217
f 244/328/311 243/327/310 232/310/299
f 244/328/311 156/253/207 243/327/310
f 174/238/236 244/328/311 232/310/299
f 214/329/281 156/253/207 244/328/311
f 214/329/281 244/328/311 215/330/282
f 174/238/236 245/331/312 244/328/311
f 245/331/312 215/330/282 244/328/311
f 234/312/301 245/331/312 174/238/236
f 92/332/131 215/330/282 245/331/312
f 245/331/312 69/333/87 92/332/131
f 246/334/313 245/331/312 234/312/301
f 246/334/313 69/333/87 245/331/312
f 246/334/313 62/335/74 69/333/87
f 246/334/313 234/312/301 236/314/303
f 93/336/132 62/335/74 246/334/313
f 236/314/303 247/337/314 246/334/313
f 247/337/314 93/336/132 246/334/313
f 248/338/315 247/337/314 236/314/303
f 249/339/316 93/336/132 247/337/314
f 248/338/315 249/339/316 247/337/314
f 249/339/316 250/340/317 93/336/132
f 250/340/317 94/341/133 93/336/132
f 250/340/317 95/342/134 94/341/133
f 97/343/136 95/342/134 250/340/317
f 250/340/317 249/339/316 251/344/318
f 251/344/318 97/343/136 250/340/317
f 251/344/318 249/339/316 248/338/315
f 252/345/319 97/343/136 251/344/318
f 97/343/136 252/345/319 98/346/137
f 98/346/137 252/345/319 99/347/138
f 252/345/319 79/321/118 99/347/138
f 251/344/318 253/348/320 252/345/319
f 252/345/319 253/348/320 79/321/118
f 248/338/315 253/348/320 251/344/318
f 253/348/320 254/349/321 79/321/118
f 254/349/321 253/348/320 248/338/315
f 248/338/315 236/314/303 254/349/321
f 79/321/118 254/349/321 239/317/306
f 254/349/321 236/314/303 239/317/306
v -0.0162468 0.04574388 0.07376266
vt 0.1904706 0.4784995
vn -0.9868164 -0.02876282 0.1577148
v -0.01410325 0.04282784 0.0861339
vt 0.7940492 0.3379918
vn -0.9848633 -0.07836914 0.1522217
v -0.01411714 0.04595473 0.08667722
vt 0.8195523 0.4888157
vn -0.9863281 -0.00261879 0.1627197
v -0.01409542 0.04882469 0.08630794
vt 0.8022404 0.6271982
vn -0.9858398 0.06799316 0.1523438
v -0.01390052 0.05193797 0.08545652
vt 0.7632856 0.7781341
vn -0.9790039 0.1380615 0.149292
v -0.01601543 0.04923696 0.07399764
vt 0.2031311 0.6471801
vn -0.9829102 0.08630371 0.1610107
v -0.01530268 0.05266488 0.0751885
vt 0.2648683 0.8145034
vn -0.9697266 0.1940918 0.1461182
v -0.01427333 0.0548798 0.07705884
vt 0.3612211 0.9274561
vn -0.9384766 0.3093262 0.1500244
v -0.01344035 0.05599361 0.079974
vt 0.5062729 0.9843599
vn -0.9375 0.3122559 0.1523438
v -0.01326324 0.0545999 0.08336588
vt 0.6692072 0.9150517
vn -0.9047852 0.3745117 0.2011719
v -0.01518953 0.0388534 0.07576837
vt 0.2934623 0.1439725
vn -0.9785156 -0.1362305 0.1531982
v -0.01587683 0.04217723 0.07422554
vt 0.2149365 0.3059039
vn -0.9536133 -0.06079102 0.2939453
v -0.01388784 0.0397297 0.08490563
vt 0.737584 0.1870762
vn -0.9790039 -0.1387939 0.1469727
v -0.01423518 0.03703959 0.0775077
vt 0.3834407 0.05043006
vn -0.9267578 -0.3361816 0.1657715
v -0.01347634 0.03638487 0.08015542
vt 0.5154154 0.01512516
vn -0.9165039 -0.359375 0.173584
v -0.01337429 0.03742646 0.08287127
vt 0.6453538 0.06835675
vn -0.918457 -0.3557129 0.1708984
o pm0602_00_00_eye_mesh_shape_lod2_r_eye
g polygon_0
usemtl r_eye
f 255/350/322 256/351/323 257/352/324
f 258/353/325 255/350/322 257/352/324
f 259/354/326 255/350/322 258/353/325
f 259/354/326 260/355/327 255/350/322
f 259/354/326 261/356/328 260/355/327
f 259/354/326 262/357/329 261/356/328
f 263/358/330 262/357/329 259/354/326
f 263/358/330 259/354/326 264/359/331
f 265/360/332 255/350/322 266/361/333
f 267/362/334 255/350/322 265/360/332
f 268/363/335 267/362/334 265/360/332
f 269/364/336 267/362/334 268/363/335
f 269/364/336 270/365/337 267/362/334
f 255/350/322 267/362/334 256/351/323
v 0.01601543 0.04923696 0.07399764
vn 0.9829102 0.08630371 0.1610107
v 0.01530268 0.05266488 0.0751885
vn 0.9697266 0.1940918 0.1461182
v 0.01390052 0.05193797 0.08545652
vn 0.9790039 0.1380615 0.149292
v 0.01326324 0.0545999 0.08336588
vn 0.9047852 0.3745117 0.2011719
v 0.01344035 0.05599361 0.079974
vn 0.9375 0.3122559 0.1523438
v 0.01388784 0.0397297 0.08490563
vn 0.9790039 -0.1387939 0.1469727
v 0.01337429 0.03742646 0.08287127
vn 0.918457 -0.3557129 0.1708984
v 0.01347634 0.03638487 0.08015542
vn 0.9165039 -0.359375 0.173584
v 0.01423518 0.03703959 0.0775077
vn 0.9267578 -0.3361816 0.1657715
v 0.01518953 0.0388534 0.07576837
vn 0.9785156 -0.1362305 0.1531982
v 0.01427333 0.0548798 0.07705884
vn 0.9384766 0.3093262 0.1500244
v 0.0162468 0.04574388 0.07376266
vn 0.9868164 -0.02876282 0.1577148
v 0.01587683 0.04217723 0.07422554
vn 0.9536133 -0.06079102 0.2939453
v 0.01409542 0.04882469 0.08630794
vn 0.9858398 0.06799316 0.1523438
v 0.01410325 0.04282784 0.0861339
vn 0.9848633 -0.07836914 0.1522217
v 0.01411714 0.04595473 0.08667722
vn 0.9863281 -0.00261879 0.1627197
o pm0602_00_00_eye_mesh_shape_lod2_l_eye
g polygon_0
usemtl l_eye
f 271/355/338 272/356/339 273/354/340
f 274/359/341 273/354/340 275/358/342
f 276/362/343 277/365/344 278/364/345
f 276/362/343 279/363/346 280/360/347
f 278/364/345 279/363/346 276/362/343
f 273/354/340 281/357/348 275/358/342
f 272/356/339 281/357/348 273/354/340
f 282/350/349 280/360/347 283/361/350
f 276/362/343 280/360/347 282/350/349
f 282/350/349 271/355/338 273/354/340
f 273/354/340 284/353/351 282/350/349
f 285/351/352 276/362/343 282/350/349
f 286/352/353 285/351/352 282/350/349
f 282/350/349 284/353/351 286/352/353
