mtllib pm0204_00_00_lod1.mtl
v 0.06757329 0.3871064 -0.1339656
vt 0.8729467 0.7642031
vn 0.3530273 -0.8115234 -0.465332
v 0.1538253 0.4204606 -0.114655
vt 0.828125 0.7890625
vn 0.3586426 -0.8237305 -0.4387207
v 0.1290397 0.3829584 -0.08159617
vt 0.828125 0.7595391
vn 0.4060059 -0.7402344 -0.5351563
v 0.1026776 0.4689034 -0.2534456
vt 0.8941033 0.84375
vn 0.3220215 -0.84375 -0.4287109
v -0.1382141 0.387571 0.07039874
vt 0.015625 0.5171143
vn -0.5776367 -0.703125 0.4133301
v -0.1103823 0.3862318 0.1070369
vt 0.0366267 0.5188821
vn -0.489502 -0.6689453 0.559082
v -0.1733351 0.4416354 0.1132852
vt 0.015625 0.5585938
vn -0.4287109 -0.7363281 0.5224609
v -0.09290981 0.415292 0.1501788
vt 0.06148416 0.5384271
vn -0.4331055 -0.65625 0.6171875
v 0.1103823 0.3862318 0.1070369
vt 0.7722527 0.7232761
vn 0.3769531 0.8344727 0.4013672
v 0.02864942 0.389592 0.1583739
vt 0.7198511 0.7322686
vn -0.255127 0.7075195 0.6586914
v 0.04921789 0.3809712 0.1611828
vt 0.7267548 0.7224675
vn 0.4067383 0.8496094 0.3349609
v 0.05688826 0.4278912 0.181753
vt 0.765625 0.1219375
vn -0.7436523 0.1217041 0.6567383
v 6.983169E-07 0.4086339 0.1209102
vt 0.7210319 0.1348649
vn 0 0.4765625 0.8789063
vt 0.737341 0.113961
v 0.09290981 0.415292 0.1501788
vt 0.9385158 0.5384271
vn 0.4331055 -0.65625 0.6171875
v 0.07325554 0.4454927 0.1973507
vt 0.9115568 0.5585938
vn 0.4016113 -0.7451172 0.5317383
vt 0.9101855 0.5429688
vn 0.3144531 -0.7016602 0.6386719
v -0.05688826 0.4278912 0.181753
vt 0.08981454 0.5429688
vn -0.3144531 -0.7016602 0.6386719
v -0.07325554 0.4454927 0.1973507
vt 0.08844316 0.5585938
vn -0.4016113 -0.7451172 0.5317383
v -3.059554E-08 0.3779772 0.09453395
vt 0.08274013 0.7357587
vn 0 0.6347656 -0.7724609
v -0.0844742 0.3789365 0.04033612
vt 0.02343076 0.7304688
vn 0.6860352 0.5883789 -0.427002
v -0.1215541 0.4332432 0.05560503
vt 0.01621968 0.6942835
vn 0.5297852 0.7836914 -0.3225098
vt 0.09375 0.7165015
vn 0 0.7983398 -0.6015625
v -0.08293139 0.3789747 -0.04258788
vt 0.2049862 0.8522744
vn -0.7773438 0.3981934 -0.4865723
vt 0.2047048 0.805453
vn -0.7939453 0.3830566 0.4719238
v 3.296964E-08 0.5982277 0.004349233
vt 0.3368561 0.8244928
vn 0 0.9990234 0.03469849
vt 0.2249349 0.7512285
vn 0 0.3789063 0.925293
vt 0.1651166 0.9827532
vn 0.703125 0.5810547 0.4084473
v -5.959089E-08 0.378879 -0.09468354
vt 0.1080688 0.9840199
vn 0 0.4931641 0.8696289
v 4.599489E-06 0.4099082 -0.1122804
vt 0.1019845 0.9648438
vn 0 0.8261719 0.5629883
vt 0.2248323 0.9050215
vn 0 0.411377 -0.9111328
v -0.1450656 0.3861682 0.05790381
vt 0.078125 0.7622518
vn -0.6445313 -0.7636719 -0.02371216
v -0.1838433 0.4189083 0.0572526
vt 0.078125 0.7902685
vn -0.5424805 -0.8388672 0.03210449
v -0.1411375 0.3866392 -0.06403825
vt 0.01953125 0.7612014
vn -0.5537109 -0.8320313 -0.001504898
vt 0.07739818 0.9442105
vt 0.0711714 0.9819903
vt 0.02863455 0.9819181
v -0.11146 0.4267746 -0.06129667
vt 0.02088904 0.9505048
vn 0.5117188 0.8027344 0.3051758
v 3.682539E-05 0.3305116 -0.1544369
vt 0.5 0.565093
vn 0.0295105 -0.9199219 0.3908691
v -0.05712469 0.3326663 -0.1558186
vt 0.4673418 0.5644502
vn 0.3479004 -0.8222656 0.4494629
v -0.06314028 0.3215858 -0.172006
vt 0.465264 0.5529028
vn -0.001937866 -0.8149414 0.5791016
vt 0.3017369 0.5215561
v -0.05116278 0.3432944 -0.1406329
vt 0.3049108 0.5105238
vn 0.2722168 -0.8349609 0.4775391
v -0.1406451 0.3432713 -0.05884051
vt 0.368323 0.5113845
vn 0.388916 -0.8149414 0.4289551
v -0.1756758 0.3615943 -0.08978559
vt 0.2265625 0.2834323
vn -0.6879883 -0.102356 0.7182617
v -0.2325428 0.289577 -0.1592639
vt 0.1627766 0.2929688
vn -0.7197266 -0.0614624 0.6914063
vt 0.2311876 0.2606307
vn -0.6845703 -0.05215454 0.7265625
vt 0.1160769 0.5432784
vn 0.4377441 -0.8974609 0.05340576
v -0.1496303 0.3413217 -0.01796521
vt 0.1359957 0.5477587
vn 0.5224609 -0.8520508 -0.004394531
v -0.1721237 0.3276766 -0.06289547
vt 0.1132813 0.5625
vn 0.5893555 -0.8076172 -0.006771088
v -0.1495113 0.3399043 0.06869545
vt 0.1796875 0.5485321
vn 0.5561523 -0.828125 -0.06365967
v -0.1367792 0.3467398 0.06202007
vt 0.2019552 0.5439829
vn 0.4274902 -0.8979492 -0.1040649
v -0.1140893 0.3443826 0.09412616
vt 0.2226563 0.5485212
vn 0.3652344 -0.8374023 -0.4057617
vt 0.1992975 0.5525401
v -0.05779973 0.3338077 0.1657633
vt 0.2713661 0.5585938
vn 0.1627197 -0.8071289 -0.5668945
v -0.04233719 0.3465122 0.1431086
vt 0.2685807 0.5418273
vn 0.1211548 -0.8984375 -0.4211426
v -0.04921789 0.3809712 0.1611828
vt 0.3756744 0.03194171
vn -0.4067383 0.8496094 0.3349609
vt 0.3991427 0.01697791
vn -0.972168 0.1300049 -0.1923828
v -0.05934895 0.3639277 0.1939416
vt 0.3962399 0.03948021
vn -0.2685547 0.8007813 0.5351563
vt 0.4715756 0.5742188
vt 0.1761777 0.5405059
vt 0.3481552 0.9818081
vn -0.9150391 0.4023438 0
v -0.1621177 0.314969 -0.02018495
vt 0.348637 0.9642373
v -0.1590767 0.3137215 0.01968705
vt 0.3701174 0.9645005
vt 0.2732452 0.7224675
v -0.02864942 0.389592 0.1583739
vt 0.2801489 0.7322686
vn 0.1867676 0.7416992 0.6435547
vt 0.2277473 0.7232761
vn -0.3769531 0.8344727 0.4013672
vt 0.4733179 0.3157864
vt 0.4679815 0.2951273
vt 0.4845036 0.3203261
v 0.04547935 0.07943294 0.01115931
vt 0.7029266 0.06361473
vn 0.5463867 -0.8125 0.2021484
v 2.904584E-05 0.07929176 0.04701814
vt 0.696662 0.09854519
vn 6.192923E-05 -0.7851563 0.6186523
v -1.900239E-06 0.002628819 0.03244827
vt 0.6528825 0.08437383
vn 0.6225586 -0.1561279 0.7666016
vt 0.2710959 0.08940858
vn -0.7841797 0.02929688 0.6191406
v -0.1745879 0.4929512 -0.1445325
vt 0.203125 0.1006734
vn -0.8574219 -0.03399658 0.5131836
v -0.1538253 0.4204606 -0.114655
vt 0.2382526 0.07135206
vn -0.7949219 0.02554321 0.6054688
vt 0.5854984 0.8984375
vn 0 -0.9995117 0.006790161
v -8.176582E-06 0.002189589 -0.03220571
vt 0.6211782 0.8984375
vn 0 -0.6040039 -0.7963867
v 0.03103439 0.00230172 0.006493537
vt 0.5989883 0.9158498
vn 0.8237305 -0.5634766 0.05511475
v -0.2003062 0.4669619 -0.1879037
vt 0.181697 0.078125
vn -0.5200195 0.3723145 -0.7685547
v -0.1906247 0.5091472 -0.1741391
vt 0.181697 0.1015625
vn -0.5195313 0.3703613 -0.7695313
v -0.09275758 0.5095239 -0.2400438
vt 0.1176206 0.1015625
vn -0.5205078 0.3771973 -0.765625
vn -0.8486328 0.001947403 0.527832
vt 0.1699571 0.8632813
vn 0.2061768 0.8964844 0.3916016
v -0.1379118 0.4960055 -0.1670083
vt 0.1503431 0.8828125
vt 0.1058239 0.8632813
vn 0.3549805 0.8549805 0.3776855
vt 0.171875 0.9508268
v -0.1026776 0.4689034 -0.2534456
vt 0.1176206 0.078125
vn -0.5205078 0.3793945 -0.7641602
v -0.1290397 0.3829584 -0.08159617
vt 0.267811 0.06330365
vn -0.7841797 0.0276947 0.6191406
vn -0.8393555 0.01560974 0.5424805
vn 0.8076172 -0.003000259 -0.5888672
vt 0.015625 0.08761251
vn 0 0.3686523 -0.9291992
vn 0.8120117 0.01756287 -0.5830078
vt 0.221425 0.02319092
vn 0.006778717 0.006546021 0.9995117
v -0.2505007 0.5070298 0.05632653
vt 0.1701935 0.0546875
vn -0.08666992 -0.05511475 0.9946289
v -0.2676871 0.4683154 0.05225753
vt 0.1660995 0.03125
vn -0.09564209 -0.06192017 0.9931641
v -0.2195503 0.492783 0.05730847
vt 0.1875252 0.0528819
vn -0.01498413 -0.007995605 0.9995117
v -0.2614487 0.4674197 -0.06762826
vt 0.1072216 0.03125
vn 0.0552063 0.0484314 -0.9970703
vt 0.02221024 0.04204875
vn 0.0226593 0.05587769 -0.9980469
vt 0.02682859 0.01632899
vn -0.06671143 0.1849365 -0.9804688
v -0.2493849 0.5092897 -0.06474664
vt 0.1113245 0.0546875
vn 0.05627441 0.05239868 -0.996582
vn -0.7783203 -0.6274414 -0.0008502007
vn 0.09191895 0.9941406 -0.05395508
vn -0.7412109 -0.6699219 -0.03356934
vn -0.9111328 0.4118652 -0.0007095337
vt 0.2486162 0.04269165
vn -0.984375 0.1122437 0.1331787
vt 0.2495323 0.01555818
vn -0.4846191 0.828125 0.2807617
v -0.2136348 0.2659787 -0.1406114
vt 0.1637014 0.2734375
vn -0.7260742 -0.0397644 0.6860352
vn -0.4597168 -0.7470703 -0.4794922
vn -0.4611816 -0.7436523 -0.4833984
v -0.1283456 0.2643718 -0.2198951
vt 0.1017628 0.2734375
vn -0.465332 -0.7333984 -0.494873
v -0.1472004 0.290123 -0.2399943
vt 0.1025169 0.2929688
vn -0.4665527 -0.7304688 -0.498291
vn 0.6943359 -0.05130005 -0.7172852
vn 0.6943359 -0.05032349 -0.7172852
vt 0.03748482 0.2608324
vn 0.6938477 -0.04803467 -0.7182617
v -0.05544366 0.3806134 -0.1573785
vt 0.01783419 0.2785044
vn 0.6938477 -0.04769897 -0.7182617
vt 0.2974576 0.6054688
vn -0.4013672 0.7949219 -0.4543457
vt 0.3632813 0.6679688
vn -0.3930664 0.8046875 -0.4443359
vt 0.2929688 0.6891903
vn -0.3554688 0.8208008 -0.4462891
vt 0.3586201 0.6054688
vn -0.4333496 0.7788086 -0.4528809
vt 0.2283226 0.2135895
vn -0.02867126 -0.046875 0.9980469
v -0.1866339 0.3629028 0.06876177
vt 0.2226563 0.2375618
vn -0.03012085 -0.05148315 0.9980469
v -0.2770878 0.2921439 0.06179626
vt 0.1597991 0.2460938
vn -0.0357666 -0.04858398 0.9980469
v -0.2505173 0.267438 0.06162286
vt 0.1597991 0.2265625
vn -0.03659058 -0.04638672 0.9980469
vn -0.6699219 -0.7416992 -0.007141113
vn -0.6806641 -0.7319336 -0.002506256
v -0.2778523 0.2932566 -0.05555481
vt 0.102136 0.2460938
vn -0.6401367 -0.7675781 -0.01977539
v -0.247212 0.2683648 -0.05957204
vt 0.09939712 0.2265625
vn -0.6318359 -0.7744141 -0.02316284
vn -0.09533691 0.01785278 -0.9951172
v -0.1867632 0.3624336 -0.06367686
vt 0.0390625 0.2365344
vn -0.002405167 -0.03189087 -0.9990234
vt 0.046875 0.2170692
vn 0.01239777 -0.01724243 -0.9995117
vn -0.1087036 0.02650452 -0.9936523
vt 0.1755056 0.6171875
vn 0.5957031 -0.8027344 -0.01326752
vt 0.1157293 0.6149384
vn 0.6196289 -0.7841797 0.01091003
vt 0.1753604 0.640625
vn -0.6162109 0.7871094 0.01147461
vt 0.1796875 0.703125
vn -0.5766602 0.8168945 0.003211975
vt 0.1176371 0.640625
vn -0.6098633 0.7919922 0.003602982
v -0.124283 0.2671655 0.2257131
vt 0.171158 0.1796875
vn 0.6938477 -0.03320313 0.7192383
v -0.07619407 0.3637224 0.1837828
vt 0.2325948 0.1917284
vn 0.6787109 -0.0294342 0.7333984
v -0.1431392 0.2932326 0.2453841
vt 0.1710246 0.1992188
vn 0.6967773 -0.03616333 0.7158203
v -0.2116067 0.2683335 0.1455744
vt 0.1097336 0.1796875
vn -0.4692383 -0.7255859 0.5029297
vn -0.4716797 -0.7231445 0.5039063
v -0.2294993 0.29417 0.1662359
vt 0.1097336 0.1992188
vn -0.4685059 -0.7260742 0.5024414
vn -0.4724121 -0.722168 0.5043945
vn -0.7768555 -0.03564453 -0.6279297
v -0.1734373 0.3631325 0.09299102
vt 0.04846406 0.1925121
vn -0.6699219 -0.01960754 -0.7416992
vn -0.7753906 -0.037323 -0.6298828
v -0.1674756 0.3228683 0.08881988
vt 0.06192458 0.1739325
vn -0.7436523 -0.01947021 -0.6679688
vt 0.2034653 0.640625
vn -0.4116211 0.7949219 0.4453125
vt 0.2703824 0.7013817
vn -0.3891602 0.8120117 0.4348145
vt 0.1985902 0.7015954
vn -0.4089355 0.8056641 0.4279785
vt 0.264906 0.640625
vn -0.4101563 0.7890625 0.4570313
vt 0.1992974 0.5696395
vn 0.3952637 -0.8017578 -0.4472656
vt 0.2650502 0.6171875
vn 0.3991699 -0.800293 -0.4467773
vt 0.2034453 0.6171875
vn 0.3989258 -0.7978516 -0.4511719
v 0.1644006 0.07850789 -0.07698268
vt 0.6289063 0.2382812
vn 0.5913086 -0.684082 -0.4260254
v 0.1245145 0.07863387 -0.1312013
vt 0.6679689 0.2382812
v 0.1729506 0.1184805 -0.1248597
vt 0.6484376 0.2727393
vt 0.2304997 0.170212
vn 0.6772461 -0.02600098 0.7348633
vt 0.21875 0.9804618
vn 7.039309E-05 0.2279053 -0.9736328
v -4.114198E-06 0.2433103 -0.1748558
vt 0.21875 0.92858
vn 0 0.590332 -0.8066406
vt 0.2534822 0.9829324
vn -0.4428711 0.2426758 -0.862793
vt 0.3669416 0.5859375
vn 0.3840332 -0.8168945 0.4296875
vt 0.3048782 0.5859375
vn 0.3886719 -0.8149414 0.4289551
v -0.1188599 0.2642033 -0.1251051
vt 0.2874191 0.935489
vn -0.5141602 0.4821777 -0.7089844
vt 0.01953125 0.8417052
vt 0.07622987 0.84375
v -0.2170533 0.4954754 0.01530925
vt 0.05859375 0.8828125
vn 0.4382324 0.8964844 0.06246948
v -0.245322 0.5101309 0.01374242
vt 0.05859375 0.8654999
vt 0.02145153 0.8632813
vt 0.3489469 0.6923364
vn -0.375 0.8422852 -0.3869629
v -0.06757329 0.3871064 -0.1339656
vt 0.3050617 0.693762
vn -0.387207 0.8168945 -0.4272461
vn -0.5317383 -0.7553711 0.3818359
vn -0.5239258 -0.7597656 0.3837891
v 0.1276295 0.1186732 -0.04764673
vt 0.6289063 0.2033514
vn 0.6933594 -0.7182617 0.04891968
v -0.02352203 0.387414 -0.1554473
vt 0.03456116 0.06556922
vn 0.4934082 0.5786133 -0.6489258
v 0.08565699 0.1191602 -0.1059905
vt 0.6679687 0.2033123
vn 0.1802979 -0.9267578 -0.3286133
vt 0.1058967 0.84375
vn -0.3220215 -0.84375 -0.4287109
vt 0.171875 0.7890625
vn -0.3586426 -0.8237305 -0.4387207
vt 0.1699546 0.84375
vn -0.2509766 -0.8813477 -0.4001465
vn -0.1953125 0.3491211 -0.9160156
vt 0.7024602 0.2382813
vn -0.1954346 0.3483887 -0.9165039
vn -0.192749 0.3781738 -0.9052734
vt 0.1270533 0.7642031
vn -0.3530273 -0.8115234 -0.465332
vt 0.171875 0.7595391
vn -0.4060059 -0.7402344 -0.5351563
vt 0.1003697 0.7611709
vn -0.2380371 -0.8325195 -0.500061
vt 0.4616923 0.3813131
vt 0.486007 0.3902754
vt 0.4691671 0.3927247
vt 0.2043002 0.7262944
vn -0.3881836 0.8613281 0.326416
vt 0.3591202 0.6949239
vt 0.1796875 0.7247428
vn -0.8500977 0.2449951 -0.4655762
vt 0.1743629 0.7300091
v 0.04339835 0.1505285 0.2387792
vt 0.8572187 0.3749948
vn -0.859375 -0.2648926 0.4370117
v -1.015713E-05 0.1735294 0.1673974
vt 0.8145795 0.3520598
vn -0.8647461 -0.1298828 0.4841309
v 0.04239101 0.1267052 0.2162358
vt 0.8601784 0.3554688
vn -0.8466797 -0.3459473 0.4033203
vt 0.3770708 0.100478
vn -0.9819336 0.08648682 0.1674805
v -0.06152165 0.3627852 -0.1886159
vt 0.3974832 0.09554356
vn -0.9916992 0.07952881 0.100708
vt 0.4073644 0.1163577
vn -0.9916992 0.06610107 0.1062012
v -0.07396202 0.3013322 -0.2807909
vt 0.4570313 0.08202249
vn -0.9946289 0.04519653 0.09051514
v -0.07211521 0.266713 -0.2487421
vt 0.4570313 0.10546
vn -0.9951172 0.03286743 0.09283447
v 0.1564293 0.1709916 0.1912121
vt 0.9278913 0.3749948
vn 0.9277344 0.07653809 -0.3649902
v 0.1487252 0.1423969 0.1705394
vt 0.9251336 0.3554688
vn 0.9248047 0.02493286 -0.3791504
v 0.128113 0.190923 0.1234555
vt 0.9638761 0.3533061
vn 0.8051758 -0.2766113 0.5239258
vt 0.3961545 0.1194802
vn -0.9458008 0.04360962 0.3215332
v 2.471281E-06 0.2139827 0.1749536
vt 0.8024865 0.3699397
vn -0.8632813 -0.09222412 0.4953613
v -0.08278429 0.2971373 0.2796265
vt 0.4548545 0.05200952
vn -0.9770508 0.1416016 -0.1568604
v -0.08175562 0.2653712 0.2445526
vt 0.4552221 0.02816427
vn -0.9765625 0.1384277 -0.1628418
vt 0.03424203 0.2137039
vn 0.07470703 -0.07116699 -0.9946289
vt 0.01870191 0.2304688
vn 0.05484009 -0.1181641 -0.9912109
vt 0.04479629 0.170629
vn -0.8110352 0.2116699 -0.5449219
vt 0.0281449 0.1890326
vn -0.6342773 0.06762695 -0.7700195
vt 0.2467871 0.2773438
vn -0.6342773 0.08483887 0.7680664
vt 0.2441449 0.231907
vn -0.01773071 -0.03149414 0.9990234
vt 0.2538899 0.1864712
vn 0.6586914 -0.04699707 0.7504883
v 0.1206757 0.2321043 0.1264453
vt 0.5835089 0.8697909
vn 0.9824219 0.1727295 0.0645752
vt 0.5800158 0.8480858
v 0.1448926 0.2250292 0.100776
vt 0.6010831 0.8578902
vn 0.9116211 -0.1517334 0.3815918
vt 0.397508 0.984375
vn -0.8769531 0.2178955 0.4279785
vt 0.3244203 0.9820263
vn -0.7963867 0.2585449 -0.5458984
v -0.1249284 0.2251128 -0.1231443
vt 0.2906217 0.9146249
vn -0.8164063 0.5214844 -0.2474365
vt 0.01953125 0.02620775
vt 0.113354 0.703125
vn -0.5664063 0.8237305 -0.004455566
vt 0.112094 0.7315192
vn -0.4685059 0.8828125 -0.0116806
vt 0.465924 0.4131564
vn -0.003414154 0.8291016 -0.5585938
vt 0.234375 0.1219375
vn 0.7436523 0.1217041 0.6567383
vt 0.262659 0.113961
vt 0.2789681 0.1348649
v -0.1909102 0.524164 0.1405363
vt 0.01777851 0.6171875
vn 0.4084473 0.7607422 -0.5039063
v 0.1746102 0.2262385 0.003447623
vt 0.578125 0.3476563
vn 0.8603516 -0.08782959 0.5014648
v 0.2100149 0.1487752 -0.01740054
vt 0.6257288 0.3320313
vn 0.3886719 -0.06958008 0.918457
v 0.2318549 0.1752742 -0.02331903
vt 0.622935 0.3515625
vn 0.3574219 -0.08685303 0.9296875
vt 0.03210115 0.1411203
vt 0.02884024 0.1133952
vt 0.0703125 0.1248861
vn -0.7431641 0.0597229 -0.6655273
vt 0.02377409 0.1218269
vt 0.2187499 0.1248861
vn 0.7475586 0.1412354 0.6484375
vt 0.1115179 0.1523438
vn -0.7641602 0.04946899 -0.6425781
v -0.2061565 0.4860913 0.1582338
vt 0.1115179 0.1289063
vn -0.7910156 0.03308105 -0.6103516
v -0.1139168 0.4907445 0.2343145
vt 0.08549291 0.5976563
vn -0.3884277 -0.7714844 0.503418
vt 0.01778378 0.5976563
vn -0.3730469 -0.78125 0.500061
vt 0.1792364 0.1289063
vn 0.734375 0.09088135 0.671875
v -0.1011145 0.5274186 0.2155608
vt 0.1793211 0.1523438
vn 0.7338867 0.08813477 0.6733398
vt 0.08541864 0.6171875
vn 0.4038086 0.7548828 -0.5161133
vn -0.5571289 0.5234375 0.644043
vn -0.5571289 0.5239258 0.644043
vn -0.5576172 0.5229492 0.644043
v -0.1359843 0.1798462 -0.09482174
vt 0.296875 0.1995165
vn 0.1966553 0.3327637 -0.921875
v -0.08565699 0.1191602 -0.1059905
vt 0.3320313 0.2033123
vn 0.1953125 0.3491211 -0.9160156
v -0.1729506 0.1184805 -0.1248597
vt 0.2975398 0.2382813
vn 0.1954346 0.3483887 -0.9165039
vt 0.4057751 0.2382813
vn -0.8208008 0.307373 0.480957
v -0.1276295 0.1186732 -0.04764673
vt 0.3710937 0.2033514
vn -0.6933594 -0.7182617 0.04891968
vt 0.4062499 0.1996596
vn -0.9926758 -0.05688477 0.1020508
v -0.1644006 0.07850789 -0.07698268
vt 0.3710938 0.2382812
vn -0.7949219 0.3876953 0.4658203
v 0.1710557 0.2734828 -0.002465322
vt 0.9609375 0.3327241
vn 0.9760742 0.2160645 0
v 0.2385241 0.2188149 0.03035081
vt 0.9088218 0.3359375
vn 0.3745117 -0.09136963 -0.9223633
v 0.2180049 0.1897347 0.02489747
vt 0.9056731 0.317466
vn 0.3757324 -0.09057617 -0.921875
v -0.1695788 0.1860786 0.00632135
vt 0.375 0.74861
vn -0.9243164 -0.314209 0.2149658
v -0.1350228 0.1699927 0.09316265
vt 0.3931137 0.8023421
vn -0.9711914 -0.1696777 0.1644287
v -0.1448926 0.2250292 0.100776
vt 0.3602436 0.808979
vn -0.9116211 -0.1517334 0.3815918
v -0.1296892 0.1198856 0.04463442
vt 0.4215834 0.7717009
vn -0.6630859 -0.7460938 -0.05227661
vt 0.4140625 0.8281249
v -0.08785494 0.1189436 0.1041582
vt 0.4493596 0.8086817
vn -0.1248779 -0.8232422 0.5527344
v -0.128113 0.190923 0.1234555
vt 0.4199842 0.8480858
vn -0.8051758 -0.2766113 0.5234375
vt 0.3989169 0.8578902
v -0.1768909 0.1190297 0.1232428
vt 0.296875 0.140625
vn 0.1951904 0.3681641 0.9086914
vt 0.3320313 0.1759489
vn 0.1951904 0.3679199 0.9086914
vt 0.296875 0.1798552
vn 0.1945801 0.375 0.90625
v -0.1263105 0.07950291 0.1278606
vt 0.3320313 0.140625
vn 0.1960449 0.3574219 0.9125977
vn -0.5913086 -0.684082 0.4260254
vt 0.3515625 0.1054977
v -0.1663842 0.07799398 0.07480159
vt 0.3710938 0.1406251
vt 0.40625 0.1804486
vt 0.3710938 0.1769306
vt 0.4057752 0.140625
vn -0.7988281 0.3676758 -0.4755859
vn 0.5351563 -0.7509766 -0.3859863
vn 0.5380859 -0.7490234 -0.3852539
vn -0.8017578 0.3583984 -0.4775391
v 0.0001924414 0.2023286 -0.1734652
vt 0.5 0.6145841
vn -0.03494263 -0.4147949 -0.9091797
v -0.07902605 0.1809758 -0.1506077
vt 0.4538147 0.6336266
vn -0.5615234 -0.1501465 -0.8134766
v -0.08007333 0.2114913 -0.1528814
vt 0.4491512 0.6167688
vt 0.710099 0.3845264
vn -0.5947266 -0.7661133 -0.2432861
vt 0.765153 0.4140625
vn -0.5888672 -0.7817383 -0.2038574
v 0.1726092 0.1901322 0.1388677
vt 0.6956141 0.4140625
vn -0.6054688 -0.7548828 -0.2509766
v -0.1182181 0.185009 -0.1213428
vt 0.4257813 0.6407348
vt 0.4168505 0.6192586
v -0.04339835 0.1505285 0.2387792
vt 0.4072475 0.4357767
vn -0.1379395 0.7475586 0.6494141
vt 0.4090919 0.4904244
vn 0 0.5161133 0.855957
v -0.1564293 0.1709916 0.1912121
vt 0.3383325 0.4357767
vn -0.1403809 0.753418 0.6416016
vt 0.1339737 0.4056794
vn 0.5800781 -0.7773438 0.2418213
v -0.2100149 0.1487752 -0.01740054
vt 0.1870328 0.4335938
vn 0.5786133 -0.7788086 0.2409668
v -0.1662231 0.1458814 -0.1311982
vt 0.1219484 0.4335938
vn 0.5805664 -0.7768555 0.2426758
vt 0.9414063 0.3164063
vn 0.7573242 0.4802246 -0.4423828
v -0.2318549 0.1752742 -0.02331903
vt 0.1891005 0.4553196
vn -0.5854492 0.7739258 -0.2406006
vt 0.1171875 0.4989184
v -0.1832125 0.1738448 -0.1420746
vt 0.1196181 0.4552906
vn -0.5917969 0.765625 -0.2514648
vt 0.1914063 0.3995876
vn 0.578125 -0.7792969 0.2401123
v -0.1721259 0.26984 0.02073473
vt 0.3699678 0.9395268
vn -0.9760742 0.2160645 0
v -0.117568 0.2760789 0.1248364
vt 0.4317995 0.9430434
vn -0.5424805 0.3813477 0.7480469
v -0.1710557 0.2734828 -0.002465322
vt 0.359375 0.9420744
v -0.141497 0.1935975 -0.1674365
vt 0.3818729 0.2939603
vn -0.9306641 0.08551025 0.3549805
vt 0.4276476 0.3107812
v -0.1463788 0.2241218 -0.1845908
vt 0.3849362 0.3125
vn -0.921875 0.06689453 0.3813477
v -0.03489142 0.1741438 -0.2119454
vt 0.3210062 0.2940582
vn -0.4077148 -0.5244141 -0.7470703
vn -0.416748 -0.4995117 -0.7587891
v -0.03441697 0.2025854 -0.2321592
vt 0.3179957 0.3125
vn -0.4099121 -0.5180664 -0.75
vn -0.418457 -0.494873 -0.7612305
v -0.2180049 0.1897347 0.02489747
vt 0.09432685 0.317466
vn -0.7509766 -0.5888672 0.2971191
v -0.1913951 0.2183528 0.1489028
vt 0.1663094 0.3359375
vn -0.7441406 -0.597168 0.2976074
v -0.2385241 0.2188149 0.03035081
vt 0.09117818 0.3359375
vn -0.7529297 -0.5869141 0.296875
vt 0.306724 0.4358105
vn -0.5571289 0.7958984 0.2359619
vt 0.2428346 0.4819005
vt 0.2324819 0.4358105
vn -0.5722656 0.7875977 0.2261963
vt 0.637292 0.9179843
v 0.1249284 0.2251128 -0.1231443
vt 0.7093783 0.9146249
vn 0.8164063 0.5214844 -0.2474365
vt 0.640625 0.9420744
v -0.1726092 0.1901322 0.1388677
vt 0.1638142 0.317466
vn -0.7421875 -0.6000977 0.2976074
v -0.1206757 0.2321043 0.1264453
vt 0.2015545 0.3159262
vn -0.1279297 0.4785156 0.8686523
vn 0.3146973 -0.07281494 0.9462891
vn 0.3215332 -0.119873 0.9389648
vt 0.5 0.7695313
v -0.04547935 0.07943294 0.01115931
vt 0.4758407 0.750213
vn -0.5458984 -0.8125 0.2023926
vt 0.4224858 0.7155253
vt 0.3873496 0.6844249
vt 0.4502254 0.6782755
vn -0.1340332 -0.8745117 -0.4655762
vt 0.5 0.8567352
vn 0 -0.6611328 0.75
vt 0.4103376 0.6513807
vn -0.6884766 -0.4692383 -0.5522461
v 0.117568 0.2760789 0.1248364
vt 0.6925182 0.4898564
vn 0.5424805 0.3813477 0.7480469
v 0.1913951 0.2183528 0.1489028
vt 0.693276 0.4358105
vn 0.5571289 0.7958984 0.2359619
v 0.1721259 0.26984 0.02073473
vt 0.7571654 0.4819005
vt 0.7797048 0.3320313
vt 0.7984455 0.3159262
vn 0.1279297 0.4785156 0.8686523
vt 0.8336906 0.3359375
vn -0.3146973 -0.07281494 0.9462891
vt 0.289901 0.3845264
vn 0.5947266 -0.7661133 -0.2432861
vt 0.234847 0.4140625
vn 0.5888672 -0.7817383 -0.2038574
v -0.1746102 0.2262385 0.003447623
vt 0.2304688 0.3789063
vn 0.5766602 -0.7949219 -0.1860352
vt 0.2304688 0.4875693
vt 0.3096443 0.3320313
vn -0.7509766 -0.5893555 -0.2963867
vt 0.377065 0.3515625
vn -0.7241211 -0.6352539 -0.267334
vt 0.306434 0.3515625
vn -0.7573242 -0.578125 -0.3032227
vt 0.3742712 0.3320313
vn -0.7158203 -0.6479492 -0.2590332
vn -0.3886719 -0.06958008 0.918457
vt 0.4090087 0.3303212
vt 0.421875 0.3476563
vn -0.8603516 -0.08782959 0.5014648
vt 0.1914063 0.5
vn -0.7573242 0.4802246 -0.4423828
v -0.1487252 0.1423969 0.1705394
vt 0.3401619 0.4140625
vn 0.1796875 -0.7231445 -0.6665039
vt 0.3359375 0.3759544
vn 0.151001 -0.7416992 -0.652832
v -0.04239101 0.1267052 0.2162358
vt 0.405508 0.4140625
vn 0.130249 -0.7543945 -0.6425781
vt 0.4108467 0.3688071
vn 0.1137695 -0.7641602 -0.6342773
vt 0.1398216 0.3554688
vn -0.380127 -0.644043 0.6635742
vt 0.1427813 0.3749948
vn -0.3845215 -0.6352539 0.6694336
vt 0.07486641 0.3554688
vn -0.3967285 -0.6103516 0.6850586
vt 0.07210869 0.3749948
vn -0.3991699 -0.6049805 0.6884766
vt 0.02190173 0.4553431
vn -0.07269287 0.8330078 -0.5483398
vt 0.08735013 0.4553431
vn -0.07421875 0.8393555 -0.5380859
vt 0.02098954 0.4977102
vt 0.02401137 0.4335938
vn 0.074646 -0.8354492 0.5439453
vt 0.0174365 0.4006403
vn 0.074646 -0.828125 0.5546875
vt 0.08520752 0.4335938
vn 0.08996582 -0.8227539 0.5605469
vt 0.3376436 0.488125
vt 0.01953125 0.3701568
vn -0.9824219 0.1727295 0.0645752
vt 0.03612387 0.3533061
vn -0.9277344 0.07653809 -0.3649902
vt 0.1174572 0.3995284
vn 0.5830078 -0.7758789 0.239624
vn 0.317627 -0.09906006 -0.9428711
vt 0.2745116 0.3310102
vn 0.3251953 -0.1645508 -0.9311523
vt 0.262777 0.3490315
vt 0.4212994 0.9838468
vn -0.6274414 0.345459 0.6972656
vt 0.7244145 0.3102253
vn -0.8632813 -0.02122498 -0.503418
v 0.03441697 0.2025854 -0.2321592
vt 0.6820043 0.3125
vn -0.8427734 -0.2163086 -0.4924316
vt 0.7127033 0.2929688
vn -0.8598633 -0.08953857 -0.5019531
v 0.03489142 0.1741438 -0.2119454
vt 0.6789938 0.2940582
vn -0.8085938 -0.3496094 -0.4729004
vt 0.0893445 0.497816
vt 0.3513282 0.7499999
vt 0.5 0.9093817
vt 0.4303904 0.9199885
vt 0.473996 0.984375
vn -0.2332764 0.2047119 0.9501953
vt 0.4149891 0.2929688
vt 0.06070614 0.4088225
vn 0.08435059 -0.7866211 0.6108398
vt 0.08887166 0.4014571
vn 0.1115723 -0.8286133 0.5478516
v 0.04233719 0.3465122 0.1431086
vt 0.526004 0.984375
vn 0.2332764 0.2047119 0.9501953
vt 0.3043859 0.4140625
vn 0.6054688 -0.7548828 -0.2509766
vt 0.3085938 0.3765836
vn 0.5522461 -0.7744141 -0.3076172
vn 0.8408203 -0.2147217 -0.496582
vt 0.2872967 0.2929688
vn 0.8579102 -0.08361816 -0.5063477
vn 0.8051758 -0.3520508 -0.4763184
vt 0.2755855 0.3102253
vn 0.8608398 -0.01309967 -0.5078125
vt 0.2202952 0.3320313
vt 0.3074818 0.4898564
vt 0.362708 0.9179843
vt 0.6914063 0.3765836
vn -0.5522461 -0.7744141 -0.3076172
vn -0.3757324 -0.09057617 -0.921875
vt 0.0390625 0.3327241
vt 0.05859375 0.3164063
vn -0.3745117 -0.09136963 -0.9223633
vn -0.3574219 -0.08685303 0.9296875
vt 0.4164911 0.8697909
vt 0.5682005 0.9430434
v 0.1140893 0.3443826 0.09412616
vt 0.5787006 0.9838468
vn 0.6274414 0.345459 0.6972656
vt 0.1975135 0.3699397
vn 0.8637695 -0.0927124 0.4951172
vn 0.859375 -0.2651367 0.4367676
vt 0.1854205 0.3520598
vn 0.8652344 -0.130249 0.4838867
vn -0.9248047 0.02493286 -0.3791504
vn 0.8466797 -0.3457031 0.4033203
v -0.1245145 0.07863387 -0.1312013
vt 0.3320311 0.2382812
vn 0.192749 0.3781738 -0.9052734
vn 0.5317383 -0.7553711 0.3818359
vn 0.5239258 -0.7597656 0.3837891
vn -0.5913086 -0.684082 -0.4260254
vt 0.3515624 0.2727393
vt 0.4145016 0.8984375
v -0.03103439 0.00230172 0.006493537
vt 0.4010117 0.9158498
vn -0.8237305 -0.5634766 0.05523682
vt 0.3788218 0.8984375
vt 0.303338 0.09854519
vt 0.2970734 0.06361473
vt 0.3471175 0.08437383
vn -0.6220703 -0.1560059 0.7666016
vt 0.9172599 0.7357587
v 0.1215541 0.4332432 0.05560503
vt 0.9837803 0.6942835
vn -0.5297852 0.7836914 -0.3225098
v 0.0844742 0.3789365 0.04033612
vt 0.9765692 0.7304688
vn -0.6860352 0.5883789 -0.427002
vt 0.90625 0.7165015
v 0.08293139 0.3789747 -0.04258788
vt 0.7950138 0.8522744
vn 0.7773438 0.3981934 -0.4865723
vt 0.6631439 0.8244928
vt 0.7952952 0.805453
vn 0.7939453 0.3830566 0.4719238
vt 0.7750651 0.7512285
vt 0.8980155 0.9648438
vt 0.8919312 0.9840199
vt 0.8348834 0.9827532
vn -0.7036133 0.5810547 0.4084473
vt 0.7751677 0.9050215
v 0.1411375 0.3866392 -0.06403825
vt 0.9804688 0.7612014
vn 0.5537109 -0.8320313 -0.001504898
v 0.1838433 0.4189083 0.0572526
vt 0.921875 0.7902685
vn 0.5424805 -0.8388672 0.03210449
v 0.1450656 0.3861682 0.05790381
vt 0.921875 0.7622518
vn 0.6445313 -0.7636719 -0.02371216
vt 0.9288286 0.9819903
vt 0.9226018 0.9442105
vt 0.9713655 0.9819181
vt 0.9825635 0.4006403
vn -0.0748291 -0.828125 0.5551758
v 0.141497 0.1935975 -0.1674365
vt 0.9147925 0.4335938
vn -0.09014893 -0.8227539 0.5605469
v 0.08007333 0.2114913 -0.1528814
vt 0.9392939 0.4088225
vn -0.08453369 -0.7871094 0.6108398
vt 0.9111283 0.4014571
vn -0.1115723 -0.8286133 0.5478516
v 0.11146 0.4267746 -0.06129667
vt 0.979111 0.9505048
vn -0.5117188 0.8027344 0.3051758
v 0.1188599 0.2642033 -0.1251051
vt 0.5723524 0.3107812
vn 0.5141602 0.4821777 -0.7089844
vt 0.5850109 0.2929688
vt 0.6181271 0.2939603
vn 0.9306641 0.08551025 0.3549805
v 0.05712469 0.3326663 -0.1558186
vt 0.5326582 0.5644502
vn -0.3269043 -0.8266602 0.4572754
v 0.05116278 0.3432944 -0.1406329
vt 0.6950892 0.5105238
vn -0.2722168 -0.8349609 0.4775391
vt 0.6982631 0.5215561
v 0.1406451 0.3432713 -0.05884051
vt 0.631677 0.5113845
vn -0.388916 -0.8149414 0.4289551
v 0.1756758 0.3615943 -0.08978559
vt 0.7734375 0.2834323
vn 0.6879883 -0.102356 0.7182617
vt 0.7688124 0.2606307
vn 0.6845703 -0.05215454 0.7265625
v 0.2325428 0.289577 -0.1592639
vt 0.8372234 0.2929688
vn 0.7197266 -0.0614624 0.6914063
v 0.1721237 0.3276766 -0.06289547
vt 0.8867188 0.5625
vn -0.5893555 -0.8076172 -0.006771088
v 0.1496303 0.3413217 -0.01796521
vt 0.8640043 0.5477587
vn -0.5224609 -0.8520508 -0.004394531
vt 0.8839231 0.5432784
vn -0.4377441 -0.8974609 0.05340576
v 0.1495113 0.3399043 0.06869545
vt 0.8203125 0.5485321
vn -0.5561523 -0.828125 -0.06365967
vt 0.8007025 0.5525401
vt 0.7773438 0.5485212
vn -0.3652344 -0.8374023 -0.4057617
v 0.1367792 0.3467398 0.06202007
vt 0.7980448 0.5439829
vn -0.4274902 -0.8979492 -0.1040649
v 0.05779973 0.3338077 0.1657633
vt 0.7286339 0.5585938
vn -0.1807861 -0.8125 -0.5532227
vt 0.7314193 0.5418273
vn -0.1034546 -0.8955078 -0.4316406
v 0.05934895 0.3639277 0.1939416
vt 0.6037601 0.03948021
vn 0.3320313 0.7929688 0.5102539
vt 0.6008573 0.01697791
vn 0.972168 0.1300049 -0.1923828
vt 0.6243256 0.03194171
vt 0.5284244 0.5742188
vt 0.8238223 0.5405059
vt 0.6518448 0.9818081
vn 0.9150391 0.4023438 0
v 0.1590767 0.3137215 0.01968705
vt 0.6298826 0.9645005
v 0.1621177 0.314969 -0.02018495
vt 0.651363 0.9642373
vt 0.5696096 0.9199885
vt 0.5320185 0.2951273
vt 0.5266821 0.3157864
vt 0.5154964 0.3203261
vt 0.7617474 0.07135206
vn 0.7949219 0.02554321 0.6054688
v 0.1745879 0.4929512 -0.1445325
vt 0.796875 0.1006734
vn 0.8574219 -0.03399658 0.5131836
vt 0.7289041 0.08940858
vn 0.7841797 0.02929688 0.6191406
v 0.1906247 0.5091472 -0.1741391
vt 0.818303 0.1015625
vn 0.5195313 0.3703613 -0.7695313
v 0.2003062 0.4669619 -0.1879037
vt 0.818303 0.078125
vn 0.5200195 0.3723145 -0.7685547
v 0.09275758 0.5095239 -0.2400438
vt 0.8823794 0.1015625
vn 0.5205078 0.3771973 -0.765625
vn 0.8486328 0.001947403 0.527832
vt 0.8300428 0.8632813
vn -0.2061768 0.8964844 0.3916016
vt 0.8941761 0.8632813
vn -0.3549805 0.8549805 0.3776855
v 0.1379118 0.4960055 -0.1670083
vt 0.8496569 0.8828125
vt 0.6397564 0.808979
v 0.1695788 0.1860786 0.00632135
vt 0.625 0.74861
vn 0.9243164 -0.314209 0.2149658
vt 0.6486718 0.7499999
vt 0.828125 0.9508268
vt 0.8823794 0.078125
vn 0.5205078 0.3793945 -0.7641602
vt 0.732189 0.06330365
vn 0.7841797 0.0276947 0.6191406
vn 0.8393555 0.01560974 0.5424805
vn -0.8120117 0.01756287 -0.5830078
vt 0.984375 0.08761251
vn -0.8081055 -0.003017426 -0.5888672
vt 0.778575 0.02319092
vn -0.006778717 0.006546021 0.9995117
v 0.2676871 0.4683154 0.05225753
vt 0.8339005 0.03125
vn 0.09564209 -0.06192017 0.9931641
v 0.2505007 0.5070298 0.05632653
vt 0.8298065 0.0546875
vn 0.08666992 -0.05511475 0.9946289
v 0.2195503 0.492783 0.05730847
vt 0.8124748 0.0528819
vn 0.01498413 -0.007995605 0.9995117
vt 0.9777898 0.04204875
vn -0.0226593 0.05587769 -0.9980469
v 0.2614487 0.4674197 -0.06762826
vt 0.8927784 0.03125
vn -0.0552063 0.0484314 -0.9970703
vt 0.9731714 0.01632899
vn 0.06671143 0.1849365 -0.9804688
v 0.2493849 0.5092897 -0.06474664
vt 0.8886755 0.0546875
vn -0.05627441 0.05239868 -0.996582
vn 0.7783203 -0.6274414 -0.0008502007
vn 0.7412109 -0.6699219 -0.03356934
vn -0.09191895 0.9941406 -0.05395508
vt 0.9106555 0.497816
v 0.1463788 0.2241218 -0.1845908
vt 0.9126499 0.4553431
vn 0.07421875 0.8393555 -0.5380859
vt 0.9790105 0.4977102
vn 0.9135742 0.4057617 -0.0008478165
vt 0.7513838 0.04269165
vn 0.984375 0.1122437 0.1331787
vt 0.7504677 0.01555818
vn 0.4846191 0.828125 0.2807617
v 0.2136348 0.2659787 -0.1406114
vt 0.8362986 0.2734375
vn 0.7260742 -0.0397644 0.6860352
vn 0.4597168 -0.7470703 -0.4794922
v 0.1283456 0.2643718 -0.2198951
vt 0.8982372 0.2734375
vn 0.465332 -0.7333984 -0.494873
vn 0.4611816 -0.7436523 -0.4833984
v 0.1472004 0.290123 -0.2399943
vt 0.8974831 0.2929688
vn 0.4665527 -0.7304688 -0.498291
vt 0.9625152 0.2608324
vn -0.6938477 -0.04803467 -0.7182617
vn -0.6943359 -0.05032349 -0.7172852
vn -0.6943359 -0.05130005 -0.7172852
v 0.05544366 0.3806134 -0.1573785
vt 0.9821658 0.2785044
vn -0.6938477 -0.04769897 -0.7182617
vt 0.6367188 0.6679688
vn 0.3930664 0.8046875 -0.4443359
vt 0.7025424 0.6054688
vn 0.4013672 0.7949219 -0.4543457
vt 0.7070313 0.6891903
vn 0.3554688 0.8208008 -0.4462891
vt 0.6413799 0.6054688
vn 0.4333496 0.7788086 -0.4528809
v 0.1866339 0.3629028 0.06876177
vt 0.7773438 0.2375618
vn 0.03012085 -0.05148315 0.9980469
vt 0.7716774 0.2135895
vn 0.02867126 -0.046875 0.9980469
v 0.2770878 0.2921439 0.06179626
vt 0.8402009 0.2460938
vn 0.0357666 -0.04858398 0.9980469
v 0.2505173 0.267438 0.06162286
vt 0.8402009 0.2265625
vn 0.03659058 -0.04638672 0.9980469
vn 0.6806641 -0.7319336 -0.002506256
vn 0.6699219 -0.7416992 -0.007141113
v 0.2778523 0.2932566 -0.05555481
vt 0.897864 0.2460938
vn 0.6401367 -0.7675781 -0.01977539
v 0.247212 0.2683648 -0.05957204
vt 0.9006029 0.2265625
vn 0.6318359 -0.7744141 -0.02316284
vn 0.09533691 0.01785278 -0.9951172
v 0.1867632 0.3624336 -0.06367686
vt 0.9609375 0.2365344
vn 0.002405167 -0.03189087 -0.9990234
vn 0.1087036 0.02650452 -0.9936523
vt 0.953125 0.2170692
vn -0.01239777 -0.01724243 -0.9995117
vt 0.8842707 0.6149384
vn -0.6196289 -0.7841797 0.01091003
vt 0.8244944 0.6171875
vn -0.5957031 -0.8027344 -0.01326752
vt 0.8246396 0.640625
vn 0.6162109 0.7871094 0.01147461
vt 0.8823629 0.640625
vn 0.6098633 0.7919922 0.003602982
vt 0.8203125 0.703125
vn 0.5766602 0.8168945 0.003211975
v 0.07619407 0.3637224 0.1837828
vt 0.7674052 0.1917284
vn -0.6787109 -0.0294342 0.7333984
v 0.124283 0.2671655 0.2257131
vt 0.828842 0.1796875
vn -0.6938477 -0.03320313 0.7192383
v 0.1431392 0.2932326 0.2453841
vt 0.8289754 0.1992188
vn -0.6967773 -0.03616333 0.7158203
vn 0.4716797 -0.7231445 0.5039063
v 0.2116067 0.2683335 0.1455744
vt 0.8902664 0.1796875
vn 0.4692383 -0.7255859 0.5029297
v 0.2294993 0.29417 0.1662359
vt 0.8902664 0.1992188
vn 0.4685059 -0.7260742 0.5024414
vn 0.4724121 -0.722168 0.5043945
vn 0.7753906 -0.037323 -0.6298828
v 0.1734373 0.3631325 0.09299102
vt 0.9515359 0.1925121
vn 0.6699219 -0.01960754 -0.7416992
vn 0.7768555 -0.03564453 -0.6279297
v 0.1674756 0.3228683 0.08881988
vt 0.9380754 0.1739325
vn 0.7436523 -0.01947021 -0.6679688
vt 0.7296176 0.7013817
vn 0.3891602 0.8120117 0.4348145
vt 0.7965347 0.640625
vn 0.4116211 0.7949219 0.4453125
vt 0.8014098 0.7015954
vn 0.4089355 0.8056641 0.4279785
vt 0.735094 0.640625
vn 0.4101563 0.7890625 0.4570313
vt 0.8007026 0.5696395
vn -0.3952637 -0.8017578 -0.4472656
vt 0.7349498 0.6171875
vn -0.3991699 -0.800293 -0.4467773
vt 0.7965547 0.6171875
vn -0.3989258 -0.7978516 -0.4511719
vt 0.7695003 0.170212
vn -0.6772461 -0.02600098 0.7348633
vt 0.78125 0.9804618
vt 0.7465178 0.9829324
vn 0.4431152 0.2426758 -0.862793
vt 0.78125 0.92858
vt 0.6755797 0.9820263
vn 0.7963867 0.2585449 -0.5458984
vt 0.6330584 0.5859375
vn -0.3840332 -0.8168945 0.4296875
vt 0.6951218 0.5859375
vn -0.3886719 -0.8149414 0.4289551
vt 0.602492 0.984375
vn 0.8769531 0.2178955 0.4279785
vt 0.7125809 0.935489
vt 0.9237701 0.84375
vt 0.9804688 0.8417052
v 0.2170533 0.4954754 0.01530925
vt 0.9414063 0.8828125
vn -0.4382324 0.8964844 0.06246948
vt 0.9785485 0.8632813
v 0.245322 0.5101309 0.01374242
vt 0.9414063 0.8654999
vt 0.6510531 0.6923364
vn 0.375 0.8422852 -0.3869629
vt 0.6949383 0.693762
vn 0.387207 0.8168945 -0.4272461
v 0.02352203 0.387414 -0.1554473
vt 0.9654388 0.06556922
vn -0.6132813 0.4787598 -0.6274414
vt 0.8300453 0.84375
vn 0.2509766 -0.8813477 -0.4001465
vt 0.8996303 0.7611709
vn 0.2380371 -0.8325195 -0.500061
vt 0.5383077 0.3813131
vt 0.5308329 0.3927247
vt 0.513993 0.3902754
v 0.1382141 0.387571 0.07039874
vt 0.7956998 0.7262944
vn 0.3881836 0.8613281 0.326416
v 0.1662231 0.1458814 -0.1311982
vt 0.6903557 0.3320313
vn -0.3251953 -0.1645508 -0.9311523
v 0.1182181 0.185009 -0.1213428
vt 0.7254884 0.3310102
vn 0.5615234 -0.1501465 -0.8134766
v 0.1832125 0.1738448 -0.1420746
vt 0.693566 0.3515625
vn -0.317627 -0.09906006 -0.9428711
vt 0.737223 0.3490315
vt 0.8825428 0.3995284
vn -0.5830078 -0.7758789 0.239624
vt 0.8780516 0.4335938
vn -0.5805664 -0.7768555 0.2426758
v 0.1359843 0.1798462 -0.09482174
vt 0.8660263 0.4056794
vn -0.5800781 -0.7773438 0.2418213
vt 0.6408798 0.6949239
vt 0.8256371 0.7300091
vt 0.8203125 0.7247428
vn 0.8500977 0.2449951 -0.4655762
v 0.06314028 0.3215858 -0.172006
vt 0.5926356 0.1163577
vn 0.9916992 0.06610107 0.1062012
v 0.06152164 0.3627852 -0.1886159
vt 0.6025168 0.09554356
vn 0.9916992 0.07952881 0.100708
vt 0.6229292 0.100478
vn 0.9819336 0.08648682 0.1674805
v 0.07396202 0.3013322 -0.2807909
vt 0.5429688 0.08202249
vn 0.9946289 0.04519653 0.09051514
v 0.07211521 0.266713 -0.2487421
vt 0.5429688 0.10546
vn 0.9951172 0.03286743 0.09283447
vt 0.6038455 0.1194802
vn 0.9458008 0.04360962 0.3215332
v 0.08278429 0.2971373 0.2796265
vt 0.5451455 0.05200952
vn 0.9770508 0.1416016 -0.1568604
v 0.08175562 0.2653712 0.2445526
vt 0.5447779 0.02816427
vn 0.9765625 0.1384277 -0.1628418
vt 0.9804688 0.3701568
vt 0.6623564 0.488125
vt 0.5909081 0.4904244
vt 0.6616675 0.4357767
vn 0.1403809 0.753418 0.6416016
vt 0.965758 0.2137039
vn -0.07470703 -0.07116699 -0.9946289
vt 0.9812981 0.2304688
vn -0.05484009 -0.1181641 -0.9912109
vt 0.9718551 0.1890326
vn 0.6342773 0.06762695 -0.7700195
vt 0.9552037 0.170629
vn 0.8110352 0.2116699 -0.5449219
vt 0.7532129 0.2773438
vn 0.6342773 0.08483887 0.7680664
vt 0.7558551 0.231907
vn 0.01773071 -0.03149414 0.9990234
vt 0.7461101 0.1864712
vn -0.6586914 -0.04699707 0.7504883
vt 0.9804688 0.02620775
vt 0.886646 0.703125
vn 0.5664063 0.8237305 -0.004455566
vt 0.887906 0.7315192
vn 0.4685059 0.8828125 -0.0116806
vt 0.534076 0.4131564
vn 0.003917694 0.8300781 -0.5571289
v 0.1909102 0.524164 0.1405363
vt 0.9822215 0.6171875
vn -0.4084473 0.7607422 -0.5039063
vt 0.9678988 0.1411203
vt 0.9711598 0.1133952
vt 0.9762259 0.1218269
v 0.1733351 0.4416354 0.1132852
vt 0.9296875 0.1248861
vn 0.7431641 0.0597229 -0.6655273
vt 0.9633733 0.5188821
vn 0.489502 -0.6689453 0.559082
vt 0.984375 0.5585938
vn 0.4287109 -0.7363281 0.5224609
vt 0.984375 0.5171143
vn 0.5776367 -0.703125 0.4133301
vt 0.7812501 0.1248861
vn -0.7475586 0.1412354 0.6484375
vt 0.8884821 0.1523438
vn 0.7641602 0.04946899 -0.6425781
v 0.2061565 0.4860913 0.1582338
vt 0.8884821 0.1289063
vn 0.7910156 0.03308105 -0.6103516
vt 0.9822162 0.5976563
vn 0.3730469 -0.78125 0.500061
v 0.1139168 0.4907445 0.2343145
vt 0.9145071 0.5976563
vn 0.3884277 -0.7714844 0.503418
vt 0.8207636 0.1289063
vn -0.734375 0.09088135 0.671875
v 0.1011145 0.5274186 0.2155608
vt 0.8206789 0.1523438
vn -0.7338867 0.08813477 0.6733398
vt 0.9759886 0.4335938
vn -0.0748291 -0.8354492 0.5444336
vt 0.9145814 0.6171875
vn -0.4038086 0.7548828 -0.5161133
vn 0.5571289 0.5234375 0.644043
vn 0.5576172 0.5229492 0.644043
vn 0.5571289 0.5239258 0.644043
vt 0.9780983 0.4553431
vn 0.07269287 0.8330078 -0.5483398
vt 0.703125 0.1995165
vn -0.1966553 0.3327637 -0.921875
vt 0.5937501 0.1996596
vn 0.9926758 -0.05688477 0.1020508
vt 0.5942249 0.2382813
vn 0.8208008 0.307373 0.480957
vn 0.7949219 0.3876953 0.4658203
v 0.1350228 0.1699927 0.09316265
vt 0.6068863 0.8023421
vn 0.9711914 -0.1696777 0.1644287
v 0.1296892 0.1198856 0.04463442
vt 0.5784166 0.7717009
vn 0.6630859 -0.7460938 -0.05227661
v 0.08785494 0.1189436 0.1041582
vt 0.5506404 0.8086817
vn 0.1248779 -0.8232422 0.5527344
vt 0.5859375 0.8281249
vt 0.6679688 0.1759489
vn -0.1951904 0.3679199 0.9086914
v 0.1768909 0.1190297 0.1232428
vt 0.703125 0.140625
vn -0.1951904 0.3681641 0.9086914
vt 0.703125 0.1798552
vn -0.1945801 0.375 0.90625
v 0.1263105 0.07950291 0.1278606
vt 0.6679688 0.140625
vn -0.1960449 0.3574219 0.9125977
vn 0.5913086 -0.684082 0.4260254
v 0.1663842 0.07799398 0.07480159
vt 0.6289063 0.1406251
vt 0.6484375 0.1054977
vt 0.59375 0.1804486
vt 0.5942248 0.140625
vn 0.7988281 0.3676758 -0.4755859
vt 0.6289063 0.1769306
vn -0.5351563 -0.7509766 -0.3859863
vn -0.5380859 -0.7490234 -0.3852539
vn 0.8017578 0.3583984 -0.4775391
vt 0.5508488 0.6167688
v 0.07902605 0.1809758 -0.1506077
vt 0.5461853 0.6336266
vt 0.5742188 0.6407348
vt 0.5831495 0.6192586
vt 0.5927525 0.4357767
vn 0.1379395 0.7475586 0.6494141
vt 0.8129672 0.4335938
vn -0.5786133 -0.7788086 0.2409668
vt 0.8803819 0.4552906
vn 0.5917969 0.765625 -0.2514648
vt 0.8828125 0.4989184
vt 0.8108995 0.4553196
vn 0.5854492 0.7739258 -0.2406006
vt 0.8085938 0.3995876
vn -0.578125 -0.7792969 0.2401123
vt 0.6300322 0.9395268
vn 0.3967285 -0.6103516 0.6850586
vn 0.3991699 -0.6049805 0.6884766
vn 0.3845215 -0.6352539 0.6694336
vt 0.6150638 0.3125
vn 0.921875 0.06689453 0.3813477
vn 0.4077148 -0.5244141 -0.7470703
vn 0.4099121 -0.5180664 -0.75
vn 0.416748 -0.4995117 -0.7587891
vn 0.418457 -0.494873 -0.7612305
vn 0.7441406 -0.597168 0.2976074
vn 0.7509766 -0.5888672 0.2971191
vn 0.7529297 -0.5869141 0.296875
vt 0.7675181 0.4358105
vn 0.5722656 0.7875977 0.2261963
vt 0.8361858 0.317466
vn 0.7421875 -0.6000977 0.2976074
vn -0.3215332 -0.119873 0.9389648
vt 0.5241593 0.750213
vn 0.380127 -0.644043 0.6635742
vt 0.6126504 0.6844249
vt 0.5775142 0.7155253
vt 0.5497746 0.6782755
vt 0.6640625 0.3759544
vn -0.151001 -0.7416992 -0.652832
vt 0.594492 0.4140625
vn -0.130127 -0.7543945 -0.6425781
vt 0.5891533 0.3688071
vn -0.1137085 -0.7641602 -0.6342773
vt 0.5896624 0.6513807
vn 0.6884766 -0.4692383 -0.5522461
vt 0.6598381 0.4140625
vn -0.1796875 -0.7231445 -0.6665039
vt 0.7695313 0.3789063
vn -0.5766602 -0.7949219 -0.1860352
vt 0.7695313 0.4875693
vn 0.7241211 -0.6352539 -0.267334
vn 0.7509766 -0.5893555 -0.2963867
vn 0.7573242 -0.578125 -0.3032227
vn 0.7158203 -0.6479492 -0.2590332
vt 0.5909913 0.3303212
vt 0.8085938 0.5
vt 0.07811153 0.8828125
vt 0.07811153 0.8654999
vt 0.9218885 0.8828125
vt 0.171875 0.8828125
vn 0 -0.6791992 -0.7333984
vn 0 -0.7407227 0.6708984
v 0.03255295 0.1196356 -0.1337769
vt 0.5175695 0.6666101
vn 0.04049683 -0.7216797 -0.6904297
v -1.359874E-06 0.07887097 -0.04633376
vt 0.5 0.7185975
vn -0.0239563 -0.7885742 -0.6137695
vt 0.828125 0.8828125
vt 0.9218885 0.8654999
vt 0.6566936 0.06113034
v 0.03499667 0.07938144 -0.03104046
vt 0.7018875 0.03772777
vn 0.5024414 -0.765625 -0.4003906
vt 0.6528826 0.02913862
vt 0.6972736 0.015625
vt 0.3027264 0.015625
vt 0.3471174 0.02913862
v -0.03499667 0.07938144 -0.03104046
vt 0.2981125 0.03772777
vn -0.5024414 -0.765625 -0.4003906
vt 0.3433064 0.06113034
vt 0.534736 0.5529028
vn 0 -0.8149414 0.5791016
vt 0.4588324 0.5039063
vn 0 -0.8129883 0.581543
vt 0.5411676 0.5039063
vt 0.5187316 0.7272458
vt 0.4812684 0.7272458
vt 0.5 0.3421004
vt 0.5450225 0.2364958
vn 0 0.7885742 0.6147461
vt 0.4549775 0.2364958
vt 0.5 0.3632813
vt 0.5410115 0.4726563
vn 0 0.8320313 -0.5546875
vt 0.4589885 0.4726563
vt 0.4768474 0.1328169
vt 0.5231526 0.1328169
vt 0.4681747 0.1491629
vt 0.5318253 0.1491629
vt 0.5446697 0.2052256
vn 0 -0.7548828 -0.6557617
vt 0.4553303 0.2052256
o pm0204_00_00_body_mesh_shape_lod1_body
g polygon_0
usemtl body
f 1/1/1 2/2/2 3/3/3
f 4/4/4 2/2/2 1/1/1
f 5/5/5 6/6/6 7/7/7
f 7/7/7 6/6/6 8/8/8
f 9/9/9 10/10/10 11/11/11
f 12/12/12 13/13/13 10/14/10
f 14/15/14 15/16/15 12/17/16
f 8/8/8 16/18/17 17/19/18
f 18/20/19 19/21/20 20/22/21
f 13/23/22 18/20/19 20/22/21
f 21/24/23 19/25/24 22/26/25
f 18/27/26 22/26/25 19/25/24
f 21/28/27 23/29/28 24/30/29
f 23/31/30 21/24/23 22/26/25
f 25/32/31 26/33/32 27/34/33
f 20/35/21 19/36/20 21/37/27
f 20/35/21 21/37/27 28/38/34
f 29/39/35 30/40/36 31/41/37
f 30/42/36 32/43/38 33/44/39
f 34/45/40 35/46/41 33/47/42
f 33/48/43 36/49/44 37/50/45
f 37/50/45 36/49/44 38/51/46
f 39/52/47 40/53/48 38/54/46
f 41/55/49 40/53/48 42/56/50
f 43/57/51 41/58/52 44/59/53
f 30/40/36 29/39/35 32/60/38
f 38/51/46 36/49/44 39/61/47
f 36/62/54 45/63/54 46/64/54
f 43/65/51 47/66/55 6/67/56
f 43/68/51 44/69/53 47/70/55
f 48/71/57 49/72/58 50/73/59
f 28/74/60 51/75/61 52/76/62
f 50/77/63 53/78/64 54/79/65
f 55/80/66 56/81/67 57/82/68
f 52/76/62 51/75/61 56/81/69
f 56/83/70 58/84/70 57/85/71
f 58/84/70 24/30/29 57/85/71
f 28/86/34 24/30/29 58/84/70
f 59/87/72 55/80/66 57/82/68
f 52/76/62 60/88/73 28/74/60
f 52/76/62 56/81/69 55/80/74
f 57/82/75 24/89/76 59/87/77
f 26/90/78 61/91/79 62/92/80
f 26/90/78 63/93/81 61/91/79
f 64/94/82 28/95/83 27/96/84
f 65/97/85 28/95/83 64/94/82
f 62/92/86 65/97/87 64/94/88
f 62/92/86 61/91/89 65/97/87
f 20/98/90 63/93/81 26/90/78
f 20/98/90 26/90/78 25/99/91
f 33/47/42 35/46/41 66/100/92
f 66/100/93 35/46/94 67/101/95
f 67/101/95 35/46/94 68/102/96
f 67/101/97 68/102/98 30/103/99
f 30/103/99 68/102/98 69/104/100
f 68/105/101 34/106/102 69/107/103
f 35/108/104 34/106/102 68/105/101
f 38/109/105 70/110/106 71/111/107
f 38/109/105 71/111/107 72/112/108
f 72/112/109 71/111/110 73/113/111
f 72/112/109 73/113/111 74/114/112
f 74/114/113 75/115/114 37/116/115
f 73/113/116 75/115/114 74/114/113
f 72/117/117 74/118/118 37/50/45
f 38/51/46 72/117/117 37/50/45
f 71/119/119 70/120/120 73/121/121
f 76/122/122 77/123/123 78/124/124
f 79/125/125 78/124/126 80/126/127
f 76/122/128 78/124/126 79/125/125
f 80/126/129 81/127/130 79/125/131
f 79/125/131 81/127/130 82/128/132
f 80/129/133 77/130/134 81/131/135
f 78/132/136 77/130/134 80/129/133
f 40/53/48 41/55/49 82/133/137
f 41/55/49 76/134/138 79/135/139
f 83/136/140 84/137/140 85/138/140
f 41/55/49 79/135/139 82/133/137
f 41/139/141 77/123/123 76/122/122
f 29/140/142 86/141/143 32/142/144
f 33/44/39 66/143/145 67/144/146
f 86/141/143 87/145/147 32/142/144
f 64/146/88 27/34/33 62/147/86
f 20/35/21 28/38/34 88/148/148
f 89/149/148 28/38/34 65/150/87
f 24/30/29 28/86/34 21/28/27
f 60/151/149 90/152/150 69/107/103
f 84/137/151 83/136/152 91/153/153
f 59/87/77 24/89/76 92/154/154
f 93/155/155 84/137/151 91/153/153
f 59/156/156 52/157/157 55/158/158
f 93/155/159 85/159/160 84/137/161
f 90/160/162 52/157/157 59/156/156
f 60/161/163 52/157/157 90/160/162
f 92/162/164 90/160/162 59/156/156
f 26/33/32 62/147/86 27/34/33
f 40/53/48 82/133/137 38/54/46
f 90/163/150 92/164/154 69/165/103
f 81/131/135 6/67/56 5/166/165
f 77/130/134 6/67/56 81/131/135
f 43/65/51 6/67/56 77/130/134
f 34/106/102 60/151/149 69/107/103
f 27/167/84 60/151/149 34/106/102
f 5/168/166 25/169/91 70/120/120
f 94/170/167 95/171/168 96/172/169
f 69/173/170 97/174/171 31/175/172
f 98/176/173 31/175/172 97/174/171
f 98/176/173 99/177/174 31/175/172
f 100/178/175 101/179/176 102/180/177
f 69/173/170 31/175/172 30/181/178
f 103/182/179 95/171/168 94/170/167
f 104/183/180 44/59/53 105/184/181
f 44/59/53 41/58/52 105/184/181
f 33/185/182 75/115/114 27/186/183
f 37/116/115 75/115/114 33/185/182
f 38/187/184 82/128/132 5/188/185
f 82/128/132 81/127/130 5/188/185
f 34/45/40 33/47/42 27/189/186
f 5/190/187 70/110/106 38/109/105
f 77/123/123 41/139/141 43/191/188
f 33/44/39 67/144/146 30/42/36
f 106/192/189 102/193/177 107/194/190
f 39/195/191 36/62/54 46/64/54
f 45/63/54 36/62/54 33/196/192
f 33/196/192 87/145/147 108/197/193
f 32/142/144 87/145/147 33/196/192
f 27/96/84 28/95/83 60/198/149
f 75/199/194 25/169/91 27/200/195
f 97/201/196 69/165/103 92/164/154
f 16/202/197 47/203/55 13/204/13
f 20/22/21 109/205/198 13/23/22
f 110/206/199 111/207/200 112/208/201
f 20/209/90 5/210/166 7/211/202
f 25/212/91 5/210/166 20/209/90
f 16/202/197 13/204/13 17/213/203
f 109/214/204 20/209/90 7/211/202
f 113/215/205 109/214/204 7/211/202
f 114/216/206 113/217/207 7/7/7
f 114/218/208 17/213/203 13/204/13
f 114/218/208 13/204/13 115/219/209
f 115/220/210 13/23/22 109/205/198
f 114/218/211 115/219/212 109/214/213
f 113/215/213 114/218/211 109/214/213
f 116/221/214 117/222/215 118/223/216
f 118/224/217 119/225/218 116/226/219
f 120/227/220 119/225/218 118/224/217
f 121/228/221 122/229/222 123/230/223
f 124/231/224 125/232/225 126/233/226
f 124/231/224 127/234/227 125/232/225
f 125/235/225 128/236/228 129/237/229
f 129/237/229 126/238/226 125/235/225
f 130/239/230 128/240/231 125/241/232
f 128/240/231 130/239/230 131/242/233
f 131/242/234 130/243/234 132/244/234
f 125/245/225 127/246/227 130/247/235
f 131/242/236 127/246/227 128/240/228
f 132/244/237 127/246/227 131/242/236
f 132/244/238 130/247/235 127/246/227
f 133/248/239 134/249/240 135/250/240
f 107/251/241 123/252/242 136/253/243
f 135/250/240 137/254/240 108/255/240
f 134/249/240 137/254/240 135/250/240
f 138/256/244 103/257/245 139/258/246
f 116/259/247 140/260/248 141/261/249
f 123/230/223 110/262/250 121/228/221
f 142/263/251 108/264/193 143/265/252
f 124/266/253 140/260/248 116/259/247
f 144/267/254 39/195/191 46/64/254
f 145/268/255 39/195/191 144/267/254
f 46/64/254 45/63/254 146/269/254
f 147/270/256 87/271/147 148/272/257
f 149/273/258 147/270/259 150/274/260
f 147/270/259 148/272/261 150/274/260
f 151/275/262 152/276/263 153/277/264
f 152/278/265 144/279/254 153/280/266
f 110/281/250 154/282/267 121/283/221
f 155/284/268 152/276/263 151/275/262
f 156/285/269 152/276/270 155/284/271
f 49/286/58 128/236/228 157/287/272
f 119/288/218 124/231/224 116/289/219
f 117/290/273 137/254/240 134/249/240
f 129/237/229 128/236/228 95/291/274
f 116/292/275 137/254/240 117/290/273
f 158/293/276 159/294/277 160/295/221
f 158/296/276 106/297/278 159/298/279
f 146/269/254 144/267/254 46/64/254
f 126/299/280 151/300/281 161/301/282
f 153/280/266 144/279/254 146/302/254
f 141/303/283 142/304/284 143/305/285
f 140/306/286 142/304/284 141/303/283
f 140/306/287 124/307/224 161/308/288
f 161/309/289 108/264/193 142/263/251
f 162/310/290 129/311/291 163/312/292
f 163/312/292 129/311/291 95/313/293
f 163/314/294 138/315/295 162/316/296
f 162/316/296 138/315/295 139/317/297
f 150/318/298 148/319/299 86/320/143
f 149/321/300 133/322/301 147/323/302
f 156/324/269 139/258/246 103/257/245
f 156/325/303 129/326/229 139/317/304
f 116/259/247 141/261/249 137/327/305
f 143/305/306 137/328/240 141/303/307
f 108/329/240 137/328/240 143/305/306
f 39/195/191 145/268/255 40/330/308
f 108/197/193 45/63/254 33/196/192
f 86/331/309 164/332/310 133/333/311
f 133/333/311 164/332/310 165/334/312
f 146/269/254 45/63/254 108/197/193
f 87/335/147 86/320/143 148/319/299
f 161/336/288 124/231/224 126/233/226
f 103/337/245 145/268/255 156/338/269
f 42/339/313 145/268/255 103/337/245
f 147/270/256 108/340/193 87/271/147
f 135/341/314 147/323/302 133/322/301
f 108/342/315 147/323/302 135/341/314
f 42/339/313 103/337/245 166/343/316
f 42/339/313 40/330/308 145/268/255
f 155/344/317 126/299/280 156/345/318
f 150/274/319 133/346/320 149/273/321
f 86/347/322 133/346/320 150/274/319
f 152/276/270 156/285/269 145/348/255
f 144/279/254 152/278/265 145/349/255
f 108/197/193 161/350/289 146/269/254
f 136/253/243 106/351/323 107/251/241
f 151/275/324 146/352/254 161/353/289
f 151/300/281 126/299/280 155/344/317
f 146/352/254 151/275/324 153/277/325
f 161/308/288 142/304/326 140/306/287
f 126/238/226 129/237/229 156/354/303
f 158/355/276 167/356/327 166/343/316
f 103/357/328 138/315/329 95/358/330
f 139/317/304 129/326/229 162/316/331
f 138/315/329 163/314/332 95/358/330
f 168/359/333 118/223/216 117/222/215
f 117/222/273 119/225/218 168/359/334
f 119/225/218 120/227/335 168/359/334
f 120/227/336 118/360/336 168/359/336
f 50/361/63 169/362/337 53/363/64
f 49/364/58 157/365/272 50/366/338
f 18/367/19 170/368/339 171/369/340
f 170/368/339 18/367/19 13/370/22
f 172/371/341 22/372/25 171/373/342
f 18/374/26 171/373/342 22/372/25
f 24/375/29 23/376/28 172/377/343
f 22/372/25 172/371/341 23/378/30
f 173/379/344 174/380/345 175/381/346
f 171/382/340 170/383/339 172/384/343
f 133/385/347 176/386/348 177/387/349
f 177/387/349 176/386/348 154/388/350
f 172/384/343 170/383/339 178/389/351
f 179/390/352 154/391/267 176/392/353
f 29/39/35 31/41/37 180/393/354
f 181/394/355 180/395/354 182/396/356
f 183/397/357 182/398/358 184/399/359
f 185/400/360 186/401/361 182/402/362
f 185/400/360 187/403/363 186/401/361
f 187/404/363 167/405/364 188/406/365
f 167/405/364 189/407/366 166/408/367
f 190/409/368 189/410/369 11/411/11
f 103/337/245 158/355/276 166/343/316
f 29/39/35 180/393/354 181/412/355
f 188/413/365 186/401/361 187/403/363
f 186/414/370 191/415/370 192/416/370
f 158/355/276 103/337/245 106/417/278
f 190/418/368 11/419/11 10/420/10
f 2/421/371 193/422/372 178/423/373
f 194/424/374 195/425/375 196/426/376
f 193/422/372 2/421/371 194/424/377
f 194/427/378 196/428/379 197/429/378
f 196/428/379 24/375/29 197/429/378
f 107/430/190 198/431/380 110/432/199
f 178/433/351 197/429/378 24/375/29
f 195/425/375 4/434/381 196/426/376
f 3/435/382 2/421/371 178/423/373
f 2/421/371 195/425/383 194/424/377
f 4/434/384 24/436/76 196/426/385
f 174/437/386 199/438/387 200/439/388
f 201/440/389 174/437/386 200/439/388
f 178/441/390 202/442/391 173/443/392
f 202/442/391 178/441/390 203/444/393
f 199/438/394 202/442/395 203/444/396
f 179/445/352 204/446/397 86/447/143
f 200/439/398 199/438/394 203/444/396
f 174/437/386 201/440/389 170/448/399
f 175/449/400 174/437/386 170/448/399
f 182/398/358 205/450/401 184/399/359
f 205/450/402 206/451/403 184/399/404
f 184/399/404 206/451/403 207/452/405
f 180/453/406 207/452/407 206/451/408
f 207/452/407 180/453/406 208/454/409
f 183/455/410 207/456/411 208/457/412
f 184/458/413 207/456/411 183/455/410
f 209/459/414 187/460/415 210/461/416
f 187/460/415 211/462/417 210/461/416
f 210/461/418 211/462/419 212/463/420
f 213/464/421 212/463/420 211/462/419
f 213/464/422 214/465/423 212/463/424
f 185/466/425 214/465/423 213/464/422
f 185/400/360 213/467/426 211/468/427
f 187/403/363 185/400/360 211/468/427
f 210/469/428 212/470/429 209/471/430
f 215/472/431 216/473/432 217/474/433
f 217/474/434 218/475/435 219/476/436
f 216/473/437 218/475/435 217/474/434
f 218/475/438 220/477/439 219/476/440
f 221/478/441 220/477/439 218/475/438
f 215/479/442 219/480/443 220/481/444
f 217/482/445 219/480/443 215/479/442
f 221/483/446 189/407/366 167/405/364
f 216/484/447 189/407/366 218/485/448
f 221/483/446 218/485/448 189/407/366
f 189/486/449 216/473/432 215/472/431
f 29/487/142 181/488/450 86/489/143
f 121/283/221 154/282/267 192/416/221
f 192/416/221 154/282/267 182/490/451
f 205/491/452 182/396/356 206/492/453
f 158/355/276 188/493/454 167/356/327
f 86/489/143 181/488/450 179/494/352
f 199/495/394 173/379/344 202/496/395
f 170/383/339 222/497/455 178/389/351
f 203/498/396 178/389/351 223/499/455
f 24/375/29 172/377/343 178/433/351
f 3/500/456 208/457/412 1/501/457
f 24/436/76 4/434/384 224/502/458
f 4/4/4 195/503/459 2/2/2
f 224/504/460 4/4/4 1/1/1
f 199/495/394 174/380/345 173/379/344
f 187/404/363 221/483/446 167/405/364
f 1/505/457 208/506/412 224/507/458
f 225/508/461 9/9/9 220/481/444
f 215/479/442 9/9/9 11/11/11
f 226/509/462 227/510/463 228/511/464
f 228/511/464 227/510/463 154/512/463
f 227/513/465 226/514/466 229/515/467
f 220/481/444 9/9/9 215/479/442
f 208/457/412 3/500/456 183/455/410
f 183/455/410 3/500/456 173/516/392
f 209/471/430 175/517/400 225/518/468
f 230/519/469 231/520/470 208/521/471
f 231/520/470 230/519/469 232/522/472
f 232/522/472 230/519/469 233/523/473
f 208/521/471 180/524/474 230/519/469
f 234/525/475 235/526/476 190/409/368
f 190/409/368 235/526/476 189/410/369
f 106/527/189 100/178/175 102/180/177
f 106/528/278 103/529/245 100/530/477
f 182/531/478 214/465/423 185/466/425
f 173/532/479 214/465/423 182/531/478
f 225/533/480 221/478/441 187/534/481
f 225/533/480 220/477/439 221/478/441
f 173/535/482 182/398/358 183/397/357
f 225/536/483 187/460/415 209/459/414
f 11/537/484 189/486/449 215/472/431
f 182/396/356 180/395/354 206/492/453
f 191/415/370 186/414/370 188/493/454
f 182/490/451 186/414/370 192/416/370
f 179/494/352 182/490/451 154/282/267
f 181/488/450 182/490/451 179/494/352
f 3/538/456 178/441/390 173/443/392
f 175/517/400 214/539/485 173/540/486
f 208/506/412 231/541/487 224/507/458
f 13/370/22 236/542/488 170/368/339
f 170/543/399 225/544/468 175/545/400
f 237/546/489 225/544/468 170/543/399
f 9/547/490 237/548/491 14/15/14
f 225/549/492 237/548/491 9/547/490
f 13/13/13 12/12/12 15/550/493
f 236/551/494 237/546/489 170/543/399
f 236/551/494 238/552/495 237/546/489
f 237/548/491 238/553/496 239/554/497
f 15/550/493 239/555/498 13/13/13
f 13/13/13 239/555/498 240/556/499
f 133/385/347 165/557/500 176/386/348
f 236/542/488 13/370/22 240/558/501
f 239/555/502 236/551/503 240/556/504
f 86/447/143 204/446/397 164/559/505
f 239/555/502 238/552/503 236/551/503
f 229/560/506 85/159/160 93/155/159
f 229/561/507 91/153/153 85/562/508
f 83/136/509 85/562/508 91/153/153
f 198/431/380 107/430/190 241/563/510
f 198/431/380 241/563/510 242/564/511
f 102/193/177 243/565/512 241/566/510
f 241/566/510 107/194/190 102/193/177
f 243/567/513 244/568/514 241/569/515
f 245/570/516 244/568/514 243/567/513
f 245/570/517 246/571/517 244/572/517
f 241/573/510 244/574/518 242/575/511
f 245/570/519 242/575/511 246/571/520
f 243/567/512 242/575/511 245/570/519
f 244/574/518 246/571/521 242/575/511
f 177/576/463 247/577/463 133/248/239
f 177/576/463 227/578/463 247/577/463
f 154/579/463 227/578/463 177/576/463
f 100/530/477 103/529/245 94/580/522
f 111/581/523 229/515/467 226/514/466
f 228/582/524 154/583/267 112/584/525
f 198/585/526 229/515/467 111/581/523
f 188/493/454 160/586/221 191/415/221
f 101/179/527 100/178/528 94/170/529
f 158/355/276 160/586/221 188/493/454
f 192/416/221 191/415/221 121/283/221
f 204/587/530 179/390/352 176/392/353
f 165/334/531 164/332/532 176/392/533
f 164/332/532 204/587/534 176/392/533
f 159/298/535 123/230/536 122/229/537
f 159/294/277 122/588/538 160/295/221
f 159/298/535 136/589/539 123/230/536
f 106/297/278 136/589/540 159/298/279
f 49/286/58 48/590/57 243/565/512
f 96/172/541 101/179/527 94/170/529
f 229/591/507 198/431/380 91/592/153
f 227/578/463 93/593/155 247/577/463
f 102/594/542 96/595/543 95/596/544
f 95/291/274 243/565/512 102/193/177
f 229/597/545 93/593/155 227/578/463
f 101/598/546 96/595/543 102/594/542
f 191/415/221 160/586/221 121/283/221
f 110/599/547 123/252/242 107/251/241
f 160/295/221 122/588/538 121/600/221
f 112/208/548 226/509/549 228/511/550
f 111/207/551 226/509/549 112/208/548
f 110/206/199 198/601/380 111/207/200
f 112/584/525 154/583/267 110/602/250
f 63/603/148 20/35/21 88/148/148
f 89/149/148 63/603/148 88/148/148
f 88/148/148 28/38/34 89/149/148
f 61/604/148 63/603/148 89/149/148
f 65/150/87 61/604/89 89/149/148
f 201/605/455 222/497/455 170/383/339
f 201/605/455 223/499/455 222/497/455
f 223/499/455 178/389/351 222/497/455
f 7/7/7 8/8/8 17/19/18
f 17/19/18 114/216/206 7/7/7
f 56/83/70 51/606/70 58/84/70
f 51/606/70 28/86/34 58/84/70
f 99/177/552 232/522/552 233/523/552
f 232/522/552 99/177/552 98/176/552
f 73/121/121 70/120/120 75/199/194
f 70/120/120 25/169/91 75/199/194
f 234/525/553 104/183/553 235/526/553
f 104/183/553 105/184/553 235/526/553
f 248/607/554 134/249/240 133/248/239
f 117/290/273 134/249/240 248/607/554
f 95/291/274 128/236/228 243/565/512
f 49/286/58 243/565/512 128/236/228
f 117/290/273 248/607/554 249/608/555
f 249/608/555 248/607/554 93/593/155
f 193/609/378 194/427/378 197/429/378
f 193/609/378 197/429/378 178/433/351
f 200/610/455 223/499/455 201/605/455
f 223/499/455 200/610/455 203/498/396
f 209/471/430 212/470/429 214/539/485
f 214/539/485 175/517/400 209/471/430
f 14/15/14 237/548/491 15/16/15
f 239/554/497 15/16/15 237/548/491
f 247/577/463 248/607/554 133/248/239
f 93/593/155 248/607/554 247/577/463
f 48/71/57 50/73/59 54/611/65
f 250/612/556 48/71/57 54/611/65
f 250/612/556 54/611/65 53/613/64
f 249/614/555 250/612/556 53/613/64
f 249/615/555 53/616/64 251/617/557
f 251/617/557 53/616/64 169/618/337
f 251/617/557 169/618/337 157/365/272
f 50/366/338 157/365/272 169/618/337
f 180/393/354 31/41/37 230/619/558
f 31/41/37 99/620/559 230/619/558
f 230/619/558 99/620/559 233/621/559
f 249/608/555 93/593/155 250/622/556
f 251/623/557 117/290/273 249/608/555
f 250/622/556 93/593/155 91/592/153
f 250/622/556 91/592/153 48/590/57
f 242/564/511 48/590/57 91/592/153
f 198/431/380 242/564/511 91/592/153
f 48/590/57 242/564/511 243/565/512
f 251/623/557 119/288/218 117/290/273
f 157/287/272 119/288/218 251/623/557
f 157/287/272 127/234/227 119/288/218
f 124/231/224 119/288/218 127/234/227
f 157/287/272 128/236/228 127/234/227
f 13/624/13 47/70/55 10/420/10
f 47/70/55 190/418/368 10/420/10
f 44/69/53 190/418/368 47/70/55
f 190/418/368 44/69/53 234/625/560
f 234/625/560 44/69/53 104/626/560
f 224/507/458 92/164/154 24/627/76
f 231/541/487 92/164/154 224/507/458
f 97/201/196 92/164/154 231/541/487
f 232/628/561 97/201/196 231/541/487
f 97/201/196 232/628/561 98/629/561
f 42/630/50 166/631/367 41/632/49
f 41/632/49 166/631/367 189/633/366
f 235/634/562 41/632/49 189/633/366
f 41/632/49 235/634/562 105/635/562
vt 0.2508293 0.6488124
vt 0.7031249 0.3386748
vn 0.354248 -0.6821289 0.6391602
vt 0.02874409 0.3436058
vt 0.6204221 0.7574713
o pm0204_00_00_body_mesh_shape_lod1_l_eye
g polygon_0
usemtl l_eye
f 14/636/14 10/637/563 9/638/490
f 10/637/563 14/636/14 12/639/16
vt 0.02874394 0.3436058
vt 0.703125 0.3386748
vn -0.354248 -0.6821289 0.6391602
vt 0.2508292 0.6488124
vt 0.6204224 0.7574713
o pm0204_00_00_body_mesh_shape_lod1_r_eye
g polygon_0
usemtl r_eye
f 6/640/6 47/641/564 8/642/8
f 8/642/8 47/641/564 16/643/17
