mtllib pm0550_12_00_lod2.mtl
v 0.06482446 0.4004871 0.2909215
vt 0.7109797 0.2561349
vn 0.753418 0.3127441 0.578125
v 0.04580216 0.401875 0.311459
vt 0.8379016 0.2999279
vn 0.7133789 0.2810059 0.6416016
v 0.04536839 0.3926256 0.315991
vt 0.86752 0.2604309
v 0.04623593 0.4111242 0.3069269
vt 0.8082796 0.3394291
vn 0.7138672 0.2856445 0.6391602
v 0.0495688 0.4313596 0.2940687
vt 0.725928 0.4211041
vn 0.7612305 0.3225098 0.5625
v 0.07618359 0.4104882 0.2689447
vt 0.5846902 0.2766826
vn 0.784668 0.3486328 0.5117188
v 0.05336564 0.4514406 0.2763155
vt 0.6235164 0.5008854
vn 0.7871094 0.3469238 0.5092773
v 0.05783167 0.4693257 0.2562346
vt 0.5122448 0.5695277
vn 0.8198242 0.3530273 0.4501953
v 0.06228723 0.4862934 0.2341129
vt 0.3932792 0.6340816
vn 0.8188477 0.3845215 0.4257813
v 0.08374231 0.4234262 0.2472955
vt 0.4651594 0.3175
vn 0.7895508 0.3718262 0.4875488
v 0.08686372 0.4373393 0.230425
vt 0.3740467 0.3715954
vn 0.8100586 0.3728027 0.4516602
v 0.08748783 0.4519366 0.2167854
vt 0.3011214 0.4337838
vn 0.8217773 0.3869629 0.4172363
v 0.06621134 0.5010489 0.2111746
vt 0.2736985 0.6901397
vn 0.8339844 0.4060059 0.3728027
v 0.08454546 0.4682668 0.2046559
vt 0.2395532 0.5107117
vn 0.8476563 0.4064941 0.3400879
v 0.07961494 0.4865574 0.1949215
vt 0.1904835 0.6002065
vn 0.8486328 0.4091797 0.3347168
v 0.0751529 0.500966 0.1884194
vt 0.1580228 0.6718744
vn 0.8476563 0.4138184 0.331543
v 0.07012957 0.5157073 0.1827979
vt 0.1300962 0.7460698
vn 0.847168 0.4150391 0.3312988
o pm0550_12_00_eye_mesh_shape_lod2_l_eye
g polygon_0
usemtl l_eye
f 1/1/1 2/2/2 3/3/2
f 2/2/2 1/1/1 4/4/3
f 4/4/3 1/1/1 5/5/4
f 1/1/1 6/6/5 5/5/4
f 5/5/4 6/6/5 7/7/6
f 6/6/5 8/8/7 7/7/6
f 9/9/8 8/8/7 6/6/5
f 9/9/8 6/6/5 10/10/9
f 9/9/8 10/10/9 11/11/10
f 12/12/11 9/9/8 11/11/10
f 13/13/12 9/9/8 12/12/11
f 14/14/13 13/13/12 12/12/11
f 15/15/14 13/13/12 14/14/13
f 16/16/15 13/13/12 15/15/14
f 17/17/16 13/13/12 16/16/15
v -0.04580216 0.401875 0.311459
vt 0.8379018 0.2999285
vn -0.7133789 0.2810059 0.6416016
v -0.06482446 0.4004871 0.2909215
vt 0.7109799 0.2561352
vn -0.753418 0.3127441 0.578125
v -0.04536839 0.3926256 0.315991
vt 0.8675203 0.2604312
v -0.04623593 0.4111242 0.3069269
vt 0.8082799 0.3394294
vn -0.7138672 0.2856445 0.6391602
v -0.0495688 0.4313596 0.2940687
vt 0.7259282 0.4211044
vn -0.7612305 0.3225098 0.5625
v -0.07618359 0.4104882 0.2689447
vt 0.5846905 0.2766828
vn -0.784668 0.3486328 0.5117188
v -0.05336564 0.4514406 0.2763155
vt 0.6235166 0.5008855
vn -0.7871094 0.3469238 0.5092773
v -0.05783167 0.4693257 0.2562346
vt 0.5122449 0.5695276
vn -0.8198242 0.3530273 0.4501953
v -0.06228723 0.4862934 0.2341129
vt 0.393279 0.6340814
vn -0.8188477 0.3845215 0.4257813
v -0.08374231 0.4234262 0.2472955
vt 0.4651599 0.3174999
vn -0.7895508 0.3718262 0.4875488
v -0.08686372 0.4373393 0.230425
vt 0.374047 0.3715953
vn -0.8100586 0.3728027 0.4516602
v -0.08748783 0.4519366 0.2167854
vt 0.3011215 0.4337837
vn -0.8217773 0.3869629 0.4172363
v -0.06621134 0.5010489 0.2111746
vt 0.2736983 0.6901396
vn -0.8339844 0.4060059 0.3728027
v -0.08454546 0.4682668 0.2046559
vt 0.2395532 0.5107116
vn -0.8476563 0.4064941 0.3400879
v -0.07961494 0.4865574 0.1949215
vt 0.1904835 0.6002063
vn -0.8486328 0.4091797 0.3347168
v -0.0751529 0.500966 0.1884194
vt 0.1580227 0.6718742
vn -0.8476563 0.4138184 0.331543
v -0.07012957 0.5157073 0.1827979
vt 0.130096 0.7460696
vn -0.847168 0.4150391 0.3312988
o pm0550_12_00_eye_mesh_shape_lod2_r_eye
g polygon_0
usemtl r_eye
f 18/18/17 19/19/18 20/20/17
f 21/21/19 19/19/18 18/18/17
f 21/21/19 22/22/20 19/19/18
f 22/22/20 23/23/21 19/19/18
f 24/24/22 23/23/21 22/22/20
f 23/23/21 24/24/22 25/25/23
f 23/23/21 25/25/23 26/26/24
f 27/27/25 23/23/21 26/26/24
f 28/28/26 27/27/25 26/26/24
f 26/26/24 29/29/27 28/28/26
f 30/30/28 29/29/27 26/26/24
f 30/30/28 31/31/29 29/29/27
f 32/32/30 31/31/29 30/30/28
f 33/33/31 32/32/30 30/30/28
f 33/33/31 30/30/28 34/34/32
v 0.135332 0.3402083 0.1873775
vt 0.5144682 0.7195038
vn 0.6044922 -0.7055664 0.3693848
v 0.152623 0.3460835 0.1188106
vt 0.5832341 0.7195349
vn 0.9887695 0.09082031 0.1184082
v 0.1622346 0.2993089 0.1536481
vt 0.5458394 0.7624764
vn 0.9941406 -0.09350586 0.04501343
v -0.1622346 0.2993089 0.1536481
vt 0.4541606 0.7624764
vn -0.9941406 -0.09350586 0.04501343
v -0.152623 0.3460835 0.1188106
vt 0.4167659 0.7195349
vn -0.9887695 0.09082031 0.1184082
v -0.135332 0.3402083 0.1873775
vt 0.4855318 0.7195038
vn -0.6044922 -0.7055664 0.3693848
v 0.02538177 0.3536536 -0.365798
vt 0.8694767 0.590992
vn 0.9946289 -0.009689331 -0.1028442
v 0.03365631 0.3538283 -0.3395562
vt 0.8543456 0.5848072
vn 0.8735352 0.06988525 -0.4812012
v 0.01704345 0.2968177 -0.3653211
vt 0.8847713 0.5597681
vn 0.9423828 -0.2722168 -0.1933594
v 0.04382965 0.2643744 -0.2802275
vt 0.8423696 0.520501
vn 0.6855469 -0.5756836 -0.4453125
v 3.843619E-31 0.2833504 -0.3645989
vt 0.8936629 0.5493975
vn 0 -0.9956055 -0.09155273
v 1.479917E-31 0.2466778 -0.2784814
vt 0.862991 0.501927
vn 0 -0.9008789 -0.4331055
v 0.04026657 0.2075467 -0.1785185
vt 0.808929 0.4593471
vn 0.3981934 -0.8427734 -0.3613281
v 0.1156183 0.2501694 -0.1409957
vt 0.7592091 0.4823289
vn 0.8344727 -0.4042969 -0.373291
v -2.42013E-31 0.1881559 -0.1401513
vt 0.8118061 0.4246137
vn 0 -0.9760742 -0.2161865
v 0.1033505 0.1986878 -0.06111689
vt 0.7354591 0.4331636
vn 0.4460449 -0.8764648 -0.1806641
v 3.140849E-33 0.1660184 -0.00127644
vt 0.7501808 0.36113
vn 0 -0.9936523 -0.1083984
v 1.420319E-32 0.1573617 0.1094492
vt 0.697214 0.3189716
vn 0 -0.9995117 0.01965332
v 0.1185718 0.1892217 0.1094872
vt 0.6516517 0.3781267
vn 0.4077148 -0.9125977 0.009529114
v 0.1449141 0.2289552 -0.001047951
vt 0.6908263 0.4358861
vn 0.9008789 -0.4221191 -0.09924316
v 0.1462813 0.2246222 0.1082664
vt 0.6372638 0.401391
vn 0.9125977 -0.4040527 0.05834961
v 0.1571471 0.2960769 0.1117036
vt 0.6125814 0.4391922
vn 0.9980469 -0.06063843 -0.003879547
v 0.1592029 0.3454028 -0.0009756859
vt 0.6592965 0.4965103
vn 0.9868164 0.1500244 -0.05541992
vt 0.5950624 0.4643567
v 0.1014421 0.5396899 -0.001014109
vt 0.6118277 0.6059091
vn 0.8808594 0.4716797 -0.0369873
v 0.09471023 0.5372299 0.1270933
vt 0.5411659 0.5743279
vn 0.9282227 0.359375 0.09307861
v 0.1230457 0.4678499 -0.06124602
vt 0.6624994 0.5796356
vn 0.9472656 0.2624512 -0.1821289
v 0.08898804 0.4868371 -0.140077
vt 0.7032377 0.6131009
vn 0.8393555 0.4052734 -0.3608398
v 0.1005655 0.3700357 -0.216214
vt 0.7726812 0.5640941
vn 0.9326172 0.1333008 -0.3344727
v 0.06004883 0.3862465 -0.278957
vt 0.8097687 0.5897517
vn 0.8217773 0.3393555 -0.4570313
v -0.01704345 0.2968177 -0.3653211
vt 0.1152287 0.5597681
vn -0.9423828 -0.2722168 -0.1933594
v -0.03365631 0.3538283 -0.3395562
vt 0.1456544 0.5848072
vn -0.8735352 0.06988525 -0.4812012
v -0.02538177 0.3536536 -0.365798
vt 0.1305233 0.590992
vn -0.9946289 -0.009689331 -0.1028442
vt 0.1063371 0.5493975
v -0.04382965 0.2643744 -0.2802275
vt 0.1576304 0.520501
vn -0.6855469 -0.5756836 -0.4453125
vt 0.137009 0.501927
v -0.04026657 0.2075467 -0.1785185
vt 0.191071 0.4593471
vn -0.3981934 -0.8427734 -0.3613281
vt 0.1881939 0.4246137
v -0.1156183 0.2501694 -0.1409957
vt 0.2407909 0.4823289
vn -0.8344727 -0.4042969 -0.373291
v -0.1033505 0.1986878 -0.06111689
vt 0.2645409 0.4331636
vn -0.4460449 -0.8764648 -0.1806641
vt 0.2498192 0.36113
vt 0.302786 0.3189716
v -0.1185718 0.1892217 0.1094872
vt 0.3483483 0.3781267
vn -0.4077148 -0.9125977 0.009529114
v -0.1449141 0.2289552 -0.001047951
vt 0.3091737 0.4358861
vn -0.9008789 -0.4221191 -0.09924316
v -0.1462813 0.2246222 0.1082664
vt 0.3627362 0.401391
vn -0.9125977 -0.4040527 0.05834961
v -0.1571471 0.2960769 0.1117036
vt 0.3874186 0.4391922
vn -0.9980469 -0.06063843 -0.003879547
v -0.1592029 0.3454028 -0.0009756859
vt 0.3407035 0.4965103
vn -0.9868164 0.1500244 -0.05541992
vt 0.4049376 0.4643567
v -0.1014421 0.5396899 -0.001014109
vt 0.3881723 0.6059091
vn -0.8808594 0.4716797 -0.0369873
v -0.09471023 0.5372299 0.1270933
vt 0.4588341 0.5743279
vn -0.9282227 0.359375 0.09307861
v -0.08898804 0.4868371 -0.140077
vt 0.2967623 0.6131009
vn -0.8393555 0.4052734 -0.3608398
v -0.1230457 0.4678499 -0.06124602
vt 0.3375006 0.5796356
vn -0.9472656 0.2624512 -0.1821289
v -0.1005655 0.3700357 -0.216214
vt 0.2273188 0.5640941
vn -0.9326172 0.1333008 -0.3344727
v -0.06004883 0.3862465 -0.278957
vt 0.1902313 0.5897517
vn -0.8217773 0.3393555 -0.4570313
v 2.288818E-06 0.3837762 0.351332
vt 0.953195 0.04141539
vn 0 -0.7822266 0.6225586
v 0.05910202 0.3766891 0.3228245
vt 0.9865055 0.07095671
vn 0.1850586 -0.8754883 0.4462891
v 0.06142441 0.4033308 0.317221
vt 0.9745159 0.08535963
vn 0.5585938 0.3393555 0.7563477
v -3.051757E-07 0.46581 0.3218707
vt 0.9159385 0.08712471
vn 0 0.5356445 0.8442383
v 0.07346664 0.4781493 0.2593906
vt 0.9476035 0.1445101
vn 0.5449219 0.5327148 0.6469727
v 2.058434E-32 0.5418421 0.2593904
vt 0.8818973 0.1442879
vn 0 0.7001953 0.7133789
v 0.05759659 0.5690216 0.1845005
vt 0.8984091 0.2072348
vn 0.5771484 0.671875 0.4638672
v 0.07736374 0.502075 0.2130636
vt 0.9382185 0.1803797
vn 0.8828125 0.3781738 0.2768555
v 0.07968719 0.5096744 0.1990092
vt 0.9341626 0.2010261
vn 0.8515625 0.3994141 0.3381348
v 2.058434E-32 0.5944051 0.1815644
vt 0.8574597 0.2035038
vn 0 0.8984375 0.4382324
vt 0.9318671 0.2442881
v 0.06238998 0.5883381 0.1269469
vt 0.8924758 0.2458467
vn 0.6464844 0.7539063 0.1137085
v 2.058434E-32 0.6252189 0.09076481
vt 0.8432314 0.2684023
vn 0 0.9941406 0.1070557
vt 0.9322026 0.3329184
v 8.186819E-33 0.625106 -0.0009142155
vt 0.84255 0.3307564
vn 0 0.9980469 -0.06152344
v 0.03486069 0.6011752 -0.06113043
vt 0.8702128 0.3709108
vn 0.5644531 0.7949219 -0.2209473
v -3.320069E-31 0.5715421 -0.1412665
vt 0.8642662 0.4315669
vn 0 0.8017578 -0.5966797
v 0.0554779 0.5419909 -0.1407949
vt 0.905324 0.4277889
vn 0.612793 0.6362305 -0.4685059
vt 0.9478666 0.4337903
v 3.251114E-31 0.4023954 -0.338899
vt 0.9355818 0.5908948
vn 0 0.8920898 -0.4516602
v 0.03688614 0.4285518 -0.2792466
vt 0.9446623 0.5420899
vn 0.6660156 0.5336914 -0.5205078
vt 0.9766074 0.5476798
v 0.01584641 0.3858264 -0.365322
vt 0.9522896 0.6094497
vn 0.9067383 0.4165039 -0.0635376
vt 0.9802682 0.5958157
vt 0.9752593 0.6127769
v 4.851022E-31 0.4466057 -0.4517207
vt 0.905892 0.6644215
vn 0 0.9501953 0.3110352
v 0.0223146 0.3759778 -0.4521164
vt 0.9550167 0.6686124
vn 0.996582 0.01448059 -0.07629395
v 6.127677E-31 0.4935064 -0.5706011
vt 0.8715572 0.7435535
vn 0 0.762207 -0.6464844
v 6.421672E-31 0.414483 -0.5979775
vt 0.9205798 0.7632775
vn 0 0.008392334 -0.9995117
v -0.08418015 0.3176832 0.07485694
vt 0.4410804 0.3212728
vn -0.08709717 -0.9526367 0.2900391
vt 0.4037386 0.2883601
v -0.1099576 0.3230845 0.1437987
vt 0.4316595 0.2783254
vn 0.1170044 0.9892578 -0.08752441
v -0.1376064 0.3404208 0.1695548
vt 0.4149691 0.2605527
vn -0.8686523 0.4436035 0.2194824
v -0.09138977 0.3422221 0.2382378
vt 0.4463222 0.2233692
vn 0.1484375 0.9467773 -0.2849121
v -0.08577331 0.3837898 0.3274246
vt 0.4517057 0.166788
vn -0.8442383 0.3679199 0.388916
v -0.05302932 0.3608693 0.2898497
vt 0.4685465 0.1914245
vn -0.03549194 0.953125 -0.2995605
v 0 0.4068856 0.3639704
vt 0.5 0.1423864
vn 0 0.7802734 0.6245117
v 0.05302932 0.3608693 0.2898497
vt 0.5314535 0.1914245
vn 0.03549194 0.953125 -0.2995605
v 0.08577331 0.3837898 0.3274246
vt 0.5482943 0.166788
vn 0.8442383 0.3679199 0.388916
v 0.09138977 0.3422221 0.2382378
vt 0.5536778 0.2233692
vn -0.1484375 0.9467773 -0.2849121
v 0.1376064 0.3404208 0.1695548
vt 0.5850309 0.2605527
vn 0.8686523 0.4436035 0.2194824
v 0.1099576 0.3230845 0.1437987
vt 0.5683405 0.2783254
vn -0.1170044 0.9892578 -0.08752441
vt 0.5962614 0.2883601
v 0.08418015 0.3176832 0.07485694
vt 0.5589196 0.3212728
vn 0.05862427 -0.9614258 0.2668457
v -0.06142441 0.4033308 0.317221
vt 0.02548409 0.08535963
vn -0.5585938 0.3393555 0.7563477
v -0.05910202 0.3766891 0.3228245
vt 0.01349449 0.07095671
vn -0.1850586 -0.8754883 0.4462891
vt 0.04680502 0.04141539
vt 0.0840615 0.08712471
v -0.07346664 0.4781493 0.2593906
vt 0.05239654 0.1445101
vn -0.5449219 0.5327148 0.6469727
vt 0.1181027 0.1442879
v -0.05759659 0.5690216 0.1845005
vt 0.1015909 0.2072348
vn -0.5771484 0.671875 0.4638672
v -0.07736374 0.502075 0.2130636
vt 0.06178153 0.1803797
vn -0.8828125 0.3781738 0.2768555
v -0.07968719 0.5096744 0.1990092
vt 0.06583738 0.2010261
vn -0.8515625 0.3994141 0.3381348
vt 0.1425403 0.2035038
vt 0.06813288 0.2442881
v -0.06238998 0.5883381 0.1269469
vt 0.1075242 0.2458467
vn -0.6464844 0.7539063 0.1137085
vt 0.1567686 0.2684023
vt 0.06779736 0.3329184
vt 0.15745 0.3307564
v -0.03486069 0.6011752 -0.06113043
vt 0.1297872 0.3709108
vn -0.5644531 0.7949219 -0.2209473
vt 0.1357338 0.4315669
v -0.0554779 0.5419909 -0.1407949
vt 0.09467602 0.4277889
vn -0.612793 0.6362305 -0.4685059
vt 0.05213344 0.4337903
vt 0.0644182 0.5908948
v -0.03688614 0.4285518 -0.2792466
vt 0.05533767 0.5420899
vn -0.6660156 0.5336914 -0.5205078
vt 0.02339256 0.5476798
v -0.01584641 0.3858264 -0.365322
vt 0.04771042 0.6094497
vn -0.9067383 0.4165039 -0.0635376
vt 0.01973176 0.5958157
vt 0.0247407 0.6127769
vt 0.09410799 0.6644215
v -0.0223146 0.3759778 -0.4521164
vt 0.04498327 0.6686124
vn -0.996582 0.01448059 -0.07629395
vt 0.1284428 0.7435535
vt 0.07942021 0.7632775
vt 0.971051 0.228658
v 0.05959244 0.4080388 0.3056759
vt 0.9777738 0.2331244
vn 0.5444336 0.8027344 0.2410889
v 0.0597969 0.4124011 0.3035384
vt 0.9789163 0.2352383
vn 0.9648438 -0.1502686 -0.2143555
v 0.06015625 0.4200619 0.2997845
vt 0.9805507 0.2390998
vn 0.6064453 -0.5507813 -0.5727539
v 0.06660769 0.4380206 0.2889057
vt 0.9833023 0.2499934
vn 0.8818359 -0.3696289 -0.2919922
vt 0.956882 0.2853823
v 0.0684002 0.456501 0.2732796
vt 0.9851529 0.2638876
vn 0.769043 -0.4626465 -0.4404297
v 0.07209723 0.4730808 0.2550022
vt 0.9849611 0.2789198
vn 0.9711914 -0.2351074 -0.03152466
v 0.07496818 0.4889165 0.2339536
vt 0.9833537 0.2957923
vn 0.9648438 -0.2558594 -0.0513916
vt 0.9806796 0.3125138
v 6.075058E-31 0.1948077 -0.5657013
vt 0.5670505 0.03134894
vn 0 -0.6108398 -0.7915039
vt 0.7072751 0.0170188
vt 0.6782266 0.1077147
v 4.843736E-31 0.2371948 -0.4510422
vt 0.5891896 0.1035953
vn 0 -0.9902344 0.137207
vt 0.6241215 0.1603498
vt 0.609421 0.1608642
vt 0.6616517 0.162201
v 0 0.2892462 0.4045559
vt 0.8107623 0.9760733
vn 0 -0.236084 0.9716797
v 0.08407181 0.2785326 0.3720372
vt 0.7570563 0.974791
vn 0.7597656 -0.1844482 0.6230469
vt 0.8100073 0.9017719
vt 0.7540928 0.9081606
v 0.1574545 0.2651602 0.135401
vt 0.6138176 0.9357815
vn 0.965332 -0.09484863 0.2429199
vt 0.6496419 0.8984739
vt 0.6193513 0.8915104
vt 0.6066461 0.9135637
v 0.1107675 0.2111769 0.2252361
vt 0.6588626 0.9873064
vn 0.765625 -0.5546875 0.3254395
vt 0.5921445 0.9552504
vt 0.5876683 0.9813604
v -0.0597969 0.4124011 0.3035384
vt 0.02108362 0.2352382
vn -0.9648438 -0.1502686 -0.2143555
v -0.05959244 0.4080388 0.3056759
vt 0.02222612 0.2331243
vn -0.5444336 0.8027344 0.2410889
vt 0.02894894 0.2286578
v -0.06015625 0.4200619 0.2997845
vt 0.01944927 0.2390997
vn -0.6064453 -0.5507813 -0.5727539
v -0.06660769 0.4380206 0.2889057
vt 0.01669768 0.2499934
vn -0.8818359 -0.3696289 -0.2919922
vt 0.04311804 0.2853823
v -0.0684002 0.456501 0.2732796
vt 0.01484706 0.2638876
vn -0.769043 -0.4626465 -0.4404297
v -0.07209723 0.4730808 0.2550022
vt 0.01503889 0.2789198
vn -0.9711914 -0.2351074 -0.03152466
v -0.07496818 0.4889165 0.2339536
vt 0.01664628 0.2957923
vn -0.9648438 -0.2558594 -0.0513916
vt 0.01932041 0.3125138
vt 0.3217734 0.1077147
vt 0.2927249 0.0170188
vt 0.4329495 0.03134894
vt 0.4108104 0.1035953
vt 0.3758785 0.1603498
vt 0.3383483 0.162201
vt 0.390579 0.1608642
vt 0.1899927 0.9017719
v -0.08407181 0.2785326 0.3720372
vt 0.2429437 0.974791
vn -0.7597656 -0.1844482 0.6230469
vt 0.1892377 0.9760733
vt 0.2459072 0.9081606
v -0.1574545 0.2651602 0.135401
vt 0.3861824 0.9357815
vn -0.965332 -0.09484863 0.2429199
vt 0.3503581 0.8984739
vt 0.3806487 0.8915104
vt 0.3933539 0.9135637
v -0.1107675 0.2111769 0.2252361
vt 0.3411374 0.9873064
vn -0.765625 -0.5546875 0.3254395
vt 0.4078555 0.9552504
vt 0.4123317 0.9813604
vt 0.674046 0.2276724
vt 0.6704323 0.221301
v 0.06504685 0.4104084 0.2984228
vt 0.6794174 0.2289349
vn -0.07879639 0.9375 0.3378906
v 0.07246179 0.4152362 0.2870654
vt 0.6878192 0.2312601
vn 0.6826172 0.5507813 0.4799805
vt 0.6649979 0.2056226
v 0.1073622 0.3649461 0.2682359
vt 0.7075847 0.1951665
vn 0.6708984 -0.5478516 0.4985352
v 0.1070869 0.4142338 0.2386162
vt 0.7248162 0.2240568
vn 0.8588867 0.2980957 0.4152832
v 0.08433349 0.4233982 0.2667794
vt 0.7016195 0.2372245
vn 0.7895508 0.2731934 0.5488281
v 0.09213333 0.4341572 0.2474219
vt 0.7142646 0.24419
vn 0.7861328 0.3720703 0.4931641
v 0.09478042 0.4459557 0.2331158
vt 0.7231392 0.2511536
vn 0.8037109 0.3896484 0.4489746
v 0.0949382 0.4602297 0.2202109
vt 0.7309816 0.2592891
vn 0.7329102 0.411377 0.5410156
v 0.1288725 0.4185168 0.1832271
vt 0.7604326 0.2242503
vn 0.9482422 0.2722168 0.1612549
vt 0.7570034 0.1756814
vt 0.779636 0.1517666
vt 0.8015585 0.1789912
vt 0.7896928 0.2996696
v 0.09272995 0.4931674 0.1984277
vt 0.7467529 0.2744919
vn 0.8696289 0.3911133 0.2995605
v 0.09209183 0.4747636 0.2099457
vt 0.7369159 0.2676142
vn -0.2087402 0.5239258 0.8256836
v 0.08733642 0.4917442 0.201273
vt 0.7421838 0.2772589
vn 0.3041992 0.4853516 0.8193359
v 0.08351379 0.5038314 0.196
vt 0.7453708 0.2840151
vn 0.2678223 0.4279785 0.862793
v 0.08058975 0.5124119 0.1927282
vt 0.7473682 0.2888899
vn 0.7348633 0.5644531 0.3747559
vt 0.7533322 0.2909068
vt 0.3295677 0.221301
vt 0.325954 0.2276724
v -0.06504685 0.4104084 0.2984228
vt 0.3205827 0.2289349
vn 0.07879639 0.9375 0.3378906
v -0.07246179 0.4152362 0.2870654
vt 0.3121808 0.2312601
vn -0.6826172 0.5507813 0.4799805
v -0.1073622 0.3649461 0.2682359
vt 0.2924153 0.1951665
vn -0.6708984 -0.5478516 0.4985352
vt 0.3350021 0.2056226
v -0.1070869 0.4142338 0.2386162
vt 0.2751838 0.2240568
vn -0.8588867 0.2980957 0.4152832
v -0.08433349 0.4233982 0.2667794
vt 0.2983805 0.2372245
vn -0.7895508 0.2731934 0.5488281
v -0.09213333 0.4341572 0.2474219
vt 0.2857354 0.24419
vn -0.7861328 0.3720703 0.4931641
v -0.09478042 0.4459557 0.2331158
vt 0.2768609 0.2511536
vn -0.8037109 0.3896484 0.4489746
v -0.0949382 0.4602297 0.2202109
vt 0.2690184 0.2592891
vn -0.7329102 0.411377 0.5410156
v -0.1288725 0.4185168 0.1832271
vt 0.2395674 0.2242502
vn -0.9482422 0.2722168 0.1612549
vt 0.2429966 0.1756814
vt 0.220364 0.1517667
vt 0.1984415 0.1789912
vt 0.2103073 0.2996696
v -0.09272995 0.4931674 0.1984277
vt 0.2532472 0.2744919
vn -0.8696289 0.3911133 0.2995605
v -0.09209183 0.4747636 0.2099457
vt 0.2630841 0.2676142
vn 0.2087402 0.5239258 0.8256836
v -0.08733642 0.4917442 0.201273
vt 0.2578162 0.2772589
vn -0.3041992 0.4853516 0.8193359
v -0.08351379 0.5038314 0.196
vt 0.2546292 0.2840151
vn -0.2678223 0.4279785 0.862793
v -0.08058975 0.5124119 0.1927282
vt 0.2526318 0.2888899
vn -0.7348633 0.5644531 0.3747559
vt 0.2466678 0.2909068
vt 0.5353834 0.1131465
v 0.08517807 0.3373057 0.1455026
vt 0.5341974 0.08032334
vn 0.170166 0.9575195 -0.2322998
vt 0.5451518 0.08250326
vt 0.5389778 0.03943187
v 2.058434E-32 0.3124558 0.0488059
vt 0.5 0.1244363
vn -0.01641846 -0.9956055 0.08898926
vt 0.522266 0.01758546
v 0 0.3615095 0.2036017
vt 0.5 0.05216479
vn 0 0.9853516 -0.1687012
vt 0.477734 0.0175854
v -0.08517807 0.3373057 0.1455026
vt 0.4658026 0.08032334
vn -0.170166 0.9575195 -0.2322998
vt 0.4646166 0.1131465
vt 0.4610222 0.03943181
vt 0.4548482 0.08250332
vt 0.5751618 0.7928401
vt 0.5693747 0.8652253
v 0.05830978 0.185589 0.2324453
vt 0.5346288 0.8644292
vn 0.239624 -0.9267578 0.2888184
vt 0.5 0.7883656
vt 0.5510302 0.9654766
v -0.05830978 0.185589 0.2324453
vt 0.4653712 0.8644292
vn -0.239624 -0.9267578 0.2888184
vt 0.4248382 0.7928401
vt 0.4306253 0.8652253
vt 0.4489698 0.9654766
v 2.058434E-33 0.2006509 0.2934662
vt 0.5 0.9016431
vn 0 -0.8666992 0.4980469
vt 0.5 0.9859563
v 0.07426758 0.3515089 0.2066489
vt 0.5465094 0.4303133
vn 0.00497818 -0.9731445 0.2286377
vt 0.5639416 0.4681419
vt 0.5359772 0.5036139
vt 0.5831676 0.4178309
vt 0.5928219 0.375643
vt 0.5 0.5197914
vt 0.5530431 0.345614
v -0.07426758 0.3515089 0.2066489
vt 0.4534906 0.4303133
vn -0.005226135 -0.9741211 0.2255859
vt 0.4640228 0.5036139
vt 0.5 0.3303892
vt 0.4360584 0.4681419
vt 0.4469569 0.345614
vt 0.4168324 0.4178309
vt 0.4071781 0.375643
o pm0550_12_00_body_mesh_shape_lod2_body_00
g polygon_0
usemtl body_00
f 35/35/33 36/36/34 37/37/35
f 38/38/36 39/39/37 40/40/38
f 41/41/39 42/42/40 43/43/41
f 44/44/42 45/45/43 43/43/41
f 46/46/44 45/45/43 44/44/42
f 47/47/45 46/46/44 44/44/42
f 47/47/45 44/44/42 48/48/46
f 47/47/45 49/49/47 46/46/44
f 48/48/46 50/50/48 47/47/45
f 50/50/48 49/49/47 47/47/45
f 50/50/48 51/51/49 49/49/47
f 52/52/50 51/51/49 50/50/48
f 53/53/51 52/52/50 50/50/48
f 54/54/52 50/50/48 48/48/46
f 54/54/52 53/53/51 50/50/48
f 55/55/53 53/53/51 54/54/52
f 56/56/54 55/55/53 54/54/52
f 56/56/54 54/54/52 57/57/55
f 56/56/54 57/57/55 36/58/34
f 57/57/55 58/59/56 36/58/34
f 36/58/34 58/59/56 59/60/57
f 58/59/56 60/61/58 61/62/59
f 61/62/59 60/61/58 62/63/60
f 61/62/59 62/63/60 63/64/61
f 64/65/62 65/66/63 66/67/64
f 45/68/43 67/69/65 64/65/62
f 46/70/44 67/69/65 45/68/43
f 67/69/65 46/70/44 68/71/66
f 49/72/47 68/71/66 46/70/44
f 69/73/67 67/69/65 68/71/66
f 70/74/68 68/71/66 49/72/47
f 70/74/68 69/73/67 68/71/66
f 51/75/49 70/74/68 49/72/47
f 52/76/50 70/74/68 51/75/49
f 70/74/68 52/76/50 71/77/69
f 72/78/70 69/73/67 70/74/68
f 71/77/69 72/78/70 70/74/68
f 73/79/71 72/78/70 71/77/69
f 73/79/71 74/80/72 72/78/70
f 74/80/72 75/81/73 72/78/70
f 39/82/37 75/81/73 74/80/72
f 39/82/37 76/83/74 75/81/73
f 77/84/75 76/83/74 39/82/37
f 76/83/74 78/85/76 79/86/77
f 79/86/77 78/85/76 80/87/78
f 81/88/79 80/87/78 78/85/76
f 82/89/80 83/90/81 84/91/82
f 82/89/80 84/91/82 85/92/83
f 85/92/83 84/91/82 86/93/84
f 87/94/85 85/92/83 86/93/84
f 87/94/85 86/93/84 88/95/86
f 86/93/84 89/96/87 88/95/86
f 90/97/88 88/95/86 89/96/87
f 91/98/89 87/94/85 88/95/86
f 90/97/88 59/99/57 88/95/86
f 88/95/86 92/100/90 91/98/89
f 88/95/86 59/99/57 92/100/90
f 93/101/91 91/98/89 92/100/90
f 59/99/57 58/102/56 92/100/90
f 94/103/92 93/101/91 92/100/90
f 92/100/90 95/104/93 94/103/92
f 92/100/90 58/102/56 95/104/93
f 95/104/93 96/105/94 94/103/92
f 95/104/93 58/102/56 97/106/95
f 97/106/95 96/105/94 95/104/93
f 97/106/95 58/102/56 61/107/59
f 96/105/94 97/106/95 98/108/96
f 61/107/59 99/109/97 97/106/95
f 97/106/95 99/109/97 98/108/96
f 63/110/61 99/109/97 61/107/59
f 100/111/98 98/108/96 99/109/97
f 63/110/61 100/111/98 99/109/97
f 42/112/40 100/111/98 63/110/61
f 42/112/40 41/113/39 100/111/98
f 101/114/99 98/108/96 100/111/98
f 41/113/39 102/115/100 100/111/98
f 101/114/99 100/111/98 102/115/100
f 102/115/100 103/116/101 101/114/99
f 103/116/101 102/115/100 104/117/102
f 105/118/103 39/119/37 106/120/104
f 107/121/105 106/120/104 39/119/37
f 108/122/106 106/120/104 107/121/105
f 108/122/106 107/121/105 109/123/107
f 110/124/108 108/122/106 109/123/107
f 111/125/109 110/124/108 109/123/107
f 112/126/110 110/124/108 111/125/109
f 113/127/111 112/126/110 111/125/109
f 114/128/112 112/126/110 113/127/111
f 113/127/111 115/129/113 114/128/112
f 116/130/114 114/128/112 115/129/113
f 116/130/114 115/129/113 36/131/34
f 116/130/114 36/131/34 117/132/115
f 118/133/116 119/134/117 82/135/80
f 118/133/116 82/135/80 85/136/83
f 85/136/83 120/137/118 118/133/116
f 87/138/85 120/137/118 85/136/83
f 121/139/119 120/137/118 87/138/85
f 121/139/119 122/140/120 120/137/118
f 123/141/121 122/140/120 121/139/119
f 91/142/89 121/139/119 87/138/85
f 123/141/121 121/139/119 77/143/75
f 121/139/119 91/142/89 124/144/122
f 121/139/119 124/144/122 77/143/75
f 124/144/122 91/142/89 93/145/91
f 77/143/75 124/144/122 76/146/74
f 94/147/92 124/144/122 93/145/91
f 125/148/123 124/144/122 94/147/92
f 76/146/74 124/144/122 125/148/123
f 96/149/94 125/148/123 94/147/92
f 125/148/123 126/150/124 76/146/74
f 126/150/124 125/148/123 96/149/94
f 78/151/76 76/146/74 126/150/124
f 98/152/96 126/150/124 96/149/94
f 126/150/124 127/153/125 78/151/76
f 126/150/124 98/152/96 127/153/125
f 81/154/79 78/151/76 127/153/125
f 128/155/126 127/153/125 98/152/96
f 128/155/126 81/154/79 127/153/125
f 65/156/63 81/154/79 128/155/126
f 128/155/126 66/157/64 65/156/63
f 98/152/96 101/158/99 128/155/126
f 66/157/64 128/155/126 129/159/127
f 101/158/99 129/159/127 128/155/126
f 129/159/127 101/158/99 103/160/101
f 104/161/102 129/159/127 103/160/101
f 84/162/82 130/163/128 131/164/129
f 84/162/82 131/164/129 132/165/130
f 84/162/82 132/165/130 133/166/131
f 133/166/131 86/167/84 84/162/82
f 86/167/84 133/166/131 134/168/132
f 135/169/133 86/167/84 134/168/132
f 136/170/134 86/167/84 135/169/133
f 89/171/87 86/167/84 136/170/134
f 137/172/135 104/173/102 102/174/100
f 137/172/135 102/174/100 138/175/136
f 138/175/136 102/174/100 43/176/41
f 45/177/43 138/175/136 43/176/41
f 43/176/41 102/174/100 41/178/39
f 139/179/137 140/180/138 111/181/109
f 113/182/111 111/181/109 140/180/138
f 113/182/111 140/180/138 141/183/139
f 141/183/139 115/184/113 113/182/111
f 141/183/139 36/185/34 115/184/113
f 56/186/54 36/185/34 141/183/139
f 141/183/139 140/180/138 142/187/140
f 55/188/53 56/186/54 141/183/139
f 55/188/53 141/183/139 142/187/140
f 142/187/140 53/189/51 55/188/53
f 143/190/141 144/191/142 118/192/116
f 145/193/143 143/190/141 118/192/116
f 146/194/144 145/193/143 118/192/116
f 118/192/116 120/195/118 146/194/144
f 147/196/145 146/194/144 120/195/118
f 120/195/118 148/197/146 147/196/145
f 120/195/118 149/198/147 148/197/146
f 120/195/118 122/199/120 149/198/147
f 129/200/127 104/201/102 137/202/135
f 137/202/135 138/203/136 129/200/127
f 138/203/136 64/204/62 129/200/127
f 129/200/127 64/204/62 66/205/64
f 138/203/136 45/206/43 64/204/62
f 111/207/109 150/208/148 139/209/137
f 111/207/109 109/210/107 150/208/148
f 109/210/107 151/211/149 150/208/148
f 109/210/107 107/212/105 151/211/149
f 39/213/37 151/211/149 107/212/105
f 151/211/149 39/213/37 74/214/72
f 151/211/149 152/215/150 150/208/148
f 74/214/72 73/216/71 151/211/149
f 73/216/71 152/215/150 151/211/149
f 73/216/71 71/217/69 152/215/150
f 130/218/128 84/219/82 153/220/151
f 153/220/151 84/219/82 154/221/152
f 83/222/81 155/223/153 84/219/82
f 84/219/82 156/224/154 154/221/152
f 156/224/154 84/219/82 155/223/153
f 154/221/152 156/224/154 157/225/155
f 156/224/154 158/226/156 157/225/155
f 159/227/157 158/226/156 156/224/154
f 159/227/157 156/224/154 160/228/158
f 156/224/154 155/223/153 161/229/159
f 35/230/33 161/229/159 155/223/153
f 35/230/33 37/231/35 161/229/159
f 37/231/35 36/232/34 161/229/159
f 161/229/159 36/232/34 59/233/57
f 156/224/154 162/234/160 160/228/158
f 162/234/160 156/224/154 161/229/159
f 59/233/57 162/234/160 161/229/159
f 162/234/160 163/235/161 160/228/158
f 162/234/160 164/236/162 163/235/161
f 162/234/160 165/237/163 164/236/162
f 162/234/160 166/238/164 165/237/163
f 59/233/57 166/238/164 162/234/160
f 166/238/164 59/233/57 90/239/88
f 118/240/116 144/241/142 167/242/165
f 168/243/166 118/240/116 167/242/165
f 169/244/167 119/245/117 118/240/116
f 118/240/116 168/243/166 170/246/168
f 169/244/167 118/240/116 170/246/168
f 170/246/168 168/243/166 171/247/169
f 170/246/168 171/247/169 172/248/170
f 173/249/171 170/246/168 172/248/170
f 174/250/172 170/246/168 173/249/171
f 169/244/167 170/246/168 175/251/173
f 40/252/38 169/244/167 175/251/173
f 38/253/36 40/252/38 175/251/173
f 38/253/36 175/251/173 39/254/37
f 175/251/173 77/255/75 39/254/37
f 176/256/174 170/246/168 174/250/172
f 175/251/173 170/246/168 176/256/174
f 77/255/75 175/251/173 176/256/174
f 174/250/172 177/257/175 176/256/174
f 177/257/175 178/258/176 176/256/174
f 178/258/176 179/259/177 176/256/174
f 179/259/177 180/260/178 176/256/174
f 180/260/178 77/255/75 176/256/174
f 77/255/75 180/260/178 123/261/121
f 117/262/115 181/263/179 116/264/114
f 116/264/114 181/263/179 114/265/112
f 117/262/115 182/266/180 181/263/179
f 114/265/112 181/263/179 112/267/110
f 112/267/110 181/263/179 183/268/181
f 183/268/181 181/263/179 182/266/180
f 112/267/110 183/268/181 110/269/108
f 182/266/180 184/270/182 183/268/181
f 183/268/181 184/270/182 110/269/108
f 105/271/103 184/270/182 182/266/180
f 110/269/108 184/270/182 108/272/106
f 106/273/104 184/270/182 105/271/103
f 108/272/106 184/270/182 106/273/104
f 53/274/51 142/275/140 185/276/183
f 185/276/183 52/277/50 53/274/51
f 142/275/140 140/278/138 185/276/183
f 186/279/184 52/277/50 185/276/183
f 52/277/50 186/279/184 71/280/69
f 186/279/184 152/281/150 71/280/69
f 186/279/184 150/282/148 152/281/150
f 185/276/183 140/278/138 187/283/185
f 187/283/185 186/279/184 185/276/183
f 150/282/148 186/279/184 187/283/185
f 140/278/138 139/284/137 187/283/185
f 139/284/137 150/282/148 187/283/185
f 188/285/186 155/286/153 83/287/81
f 188/285/186 35/288/33 155/286/153
f 188/285/186 36/289/34 35/288/33
f 83/287/81 82/290/80 188/285/186
f 188/285/186 117/291/115 36/289/34
f 188/285/186 82/290/80 189/292/187
f 189/292/187 117/291/115 188/285/186
f 82/290/80 119/293/117 189/292/187
f 117/291/115 189/292/187 182/294/180
f 169/295/167 189/292/187 119/293/117
f 182/294/180 189/292/187 105/296/103
f 189/292/187 169/295/167 40/297/38
f 39/298/37 105/296/103 189/292/187
f 189/292/187 40/297/38 39/298/37
v -0.1056335 0.3242619 0.2363744
vt 0.3349692 0.2948807
vn 0.06835938 -0.9936523 0.08630371
v -0.1182664 0.3562627 0.2194456
vt 0.3393753 0.3259338
vn -0.9287109 -0.3703613 -0.006969452
v -0.1114412 0.3562693 0.2167018
vt 0.3333583 0.3259351
vn 0.6069336 -0.3330078 -0.7211914
v -0.09691894 0.3642448 0.2503808
vt 0.3325946 0.2584418
vn 0.9047852 -0.3022461 0.2998047
v -0.103744 0.3642382 0.2531247
vt 0.3386116 0.2584412
vn -0.4467773 -0.3276367 0.8320313
vt 0.3349688 0.2921984
v -0.08015198 0.3327181 0.27645
vt 0.3816921 0.2975023
vn 0.1325684 -0.984375 0.1152954
v -0.09887161 0.3674187 0.2616493
vt 0.3853965 0.3238061
vn -0.8950195 -0.3972168 0.2006836
v -0.09281906 0.3674255 0.25703
vt 0.380594 0.3238064
vn 0.3820801 -0.3408203 -0.8583984
v -0.06829056 0.3776101 0.2891845
vt 0.3805923 0.2661952
vn 0.9599609 -0.2717285 0.06439209
v -0.07434311 0.3776033 0.2938038
vt 0.3853949 0.2661951
vn -0.2246094 -0.3259277 0.9179688
vt 0.3816921 0.2953614
v -0.06843918 0.3775659 0.2996046
vt 0.3621029 0.3381428
vn -0.890625 -0.298584 0.3422852
v -0.06349182 0.3775727 0.2938043
vt 0.3562553 0.3381428
vn 0.230957 -0.3613281 -0.9033203
v -0.04908905 0.3363552 0.3139794
vt 0.3608872 0.3015432
vn 0.1173706 -0.9848633 0.1240234
vt 0.3608873 0.2989365
v -0.0327034 0.3878453 0.320078
vt 0.3562577 0.2588038
vn 0.9433594 -0.2790527 -0.1773682
v -0.03765091 0.3878385 0.3258783
vt 0.3621053 0.2588041
vn -0.01476288 -0.2219238 0.9746094
v -0.1037746 0.3480327 0.2464116
vt 0.4833324 0.6863261
vn -0.4592285 0.5546875 0.6933594
v -0.09829269 0.3444805 0.2451688
vt 0.4786316 0.6863246
vn 0.996582 0.07775879 -0.01225281
v -0.1016084 0.3829946 0.2198654
vt 0.4917768 0.6564268
vn 0.3222656 0.8803711 -0.347168
vt 0.4917779 0.6543314
v -0.1120158 0.3345879 0.2129145
vt 0.4786564 0.6225102
vn 0.6826172 -0.04211426 -0.7290039
v -0.1174977 0.3381401 0.2141573
vt 0.4833565 0.622512
vn -0.8061523 0.3464355 -0.4787598
v -0.08018386 0.3602314 0.284458
vt 0.4538474 0.6849616
vn -0.1889648 0.6450195 0.7402344
v -0.07521896 0.3562554 0.2823009
vt 0.4491383 0.6849635
vn 0.9677734 0.1084595 -0.2253418
v -0.08638962 0.3947059 0.2528298
vt 0.4642125 0.6544563
vn 0.3046875 0.809082 -0.5014648
vt 0.464239 0.6523696
v -0.09533218 0.347873 0.2529354
vt 0.4494369 0.6223971
vn 0.6069336 -0.1176758 -0.7856445
v -0.0990776 0.351849 0.2551097
vt 0.4535306 0.6228762
vn -0.9443359 0.2697754 -0.1861572
v -0.043927 0.3720582 0.3164915
vt 0.4826831 0.3004935
vn -0.1768799 0.5371094 0.8242188
v -0.03979935 0.3680415 0.3128227
vt 0.4778777 0.3004931
vn 0.8759766 -0.01197815 -0.4819336
v -0.05101501 0.408162 0.2914476
vt 0.4911766 0.2703471
vn 0.3071289 0.7578125 -0.5751953
vt 0.4908767 0.2682564
v -0.06776459 0.3629818 0.2898574
vt 0.4789591 0.237519
vn 0.2253418 -0.04928589 -0.9726563
v -0.07189224 0.3622939 0.2935263
vt 0.4818563 0.2348842
vn -0.862793 0.40625 0.2995605
v 0.05101501 0.408162 0.2914476
vt 0.5091233 0.2682564
vn -0.3071289 0.7578125 -0.5751953
v 0.07189224 0.3622939 0.2935263
vt 0.5181437 0.2348842
vn 0.862793 0.40625 0.2995605
v 0.06776459 0.3629818 0.2898574
vt 0.5210409 0.237519
vn -0.2253418 -0.04928589 -0.9726563
vt 0.5088234 0.2703471
v 0.03979935 0.3680415 0.3128227
vt 0.5221223 0.3004931
vn -0.8759766 -0.01197815 -0.4819336
v 0.043927 0.3720582 0.3164915
vt 0.5173169 0.3004935
vn 0.1768799 0.5371094 0.8242188
v 0.08638962 0.3947059 0.2528298
vt 0.535761 0.6523696
vn -0.3046875 0.809082 -0.5014648
v 0.0990776 0.351849 0.2551097
vt 0.5464694 0.6228762
vn 0.9443359 0.2697754 -0.1861572
v 0.09533218 0.347873 0.2529354
vt 0.5505631 0.6223971
vn -0.6069336 -0.1176758 -0.7856445
vt 0.5357875 0.6544563
v 0.07521896 0.3562554 0.2823009
vt 0.5508617 0.6849635
vn -0.9677734 0.1084595 -0.2253418
v 0.08018386 0.3602314 0.284458
vt 0.5461526 0.6849616
vn 0.1889648 0.6450195 0.7402344
v 0.1016084 0.3829946 0.2198654
vt 0.5082221 0.6543314
vn -0.3222656 0.8803711 -0.347168
v 0.1174977 0.3381401 0.2141573
vt 0.5166435 0.622512
vn 0.8061523 0.3464355 -0.4787598
v 0.1120158 0.3345879 0.2129145
vt 0.5213436 0.6225102
vn -0.6826172 -0.04211426 -0.7290039
vt 0.5082232 0.6564268
v 0.09829269 0.3444805 0.2451688
vt 0.5213684 0.6863246
vn -0.996582 0.07775879 -0.01225281
v 0.1037746 0.3480327 0.2464116
vt 0.5166676 0.6863261
vn 0.4592285 0.5546875 0.6933594
v 0.04908905 0.3363552 0.3139794
vt 0.6391127 0.2989365
vn -0.1173706 -0.9848633 0.1240234
v 0.03765091 0.3878385 0.3258783
vt 0.6378947 0.2588041
vn 0.01476288 -0.2219238 0.9746094
v 0.0327034 0.3878453 0.320078
vt 0.6437423 0.2588038
vn -0.9433594 -0.2790527 -0.1773682
vt 0.6391128 0.3015432
v 0.06349182 0.3775727 0.2938043
vt 0.6437447 0.3381428
vn -0.230957 -0.3613281 -0.9033203
v 0.06843918 0.3775659 0.2996046
vt 0.6378971 0.3381428
vn 0.890625 -0.298584 0.3422852
v 0.08015198 0.3327181 0.27645
vt 0.6183079 0.2953614
vn -0.1325684 -0.984375 0.1152954
v 0.07434311 0.3776033 0.2938038
vt 0.6146051 0.2661951
vn 0.2246094 -0.3259277 0.9179688
v 0.06829056 0.3776101 0.2891845
vt 0.6194077 0.2661952
vn -0.9599609 -0.2717285 0.06439209
vt 0.6183079 0.2975023
v 0.09281906 0.3674255 0.25703
vt 0.619406 0.3238064
vn -0.3820801 -0.3408203 -0.8583984
v 0.09887161 0.3674187 0.2616493
vt 0.6146035 0.3238061
vn 0.8950195 -0.3972168 0.2006836
v 0.1056335 0.3242619 0.2363744
vt 0.6650312 0.2921984
vn -0.06835938 -0.9936523 0.08630371
v 0.103744 0.3642382 0.2531247
vt 0.6613884 0.2584412
vn 0.4467773 -0.3276367 0.8320313
v 0.09691894 0.3642448 0.2503808
vt 0.6674054 0.2584418
vn -0.9047852 -0.3022461 0.2998047
vt 0.6650308 0.2948807
v 0.1114412 0.3562693 0.2167018
vt 0.6666417 0.3259351
vn -0.6069336 -0.3330078 -0.7211914
v 0.1182664 0.3562627 0.2194456
vt 0.6606247 0.3259338
vn 0.9287109 -0.3703613 -0.006969452
vt 0.1470783 0.1382129
vt 0.1338254 0.1142836
v -0.1007675 0.3614171 0.233404
vt 0.1482525 0.1112334
vn 0.9272461 -0.1488037 -0.3425293
vt 0.1609176 0.1103135
vt 0.1501415 0.08587819
vt 0.13646 0.05835831
v -0.1128575 0.3614039 0.238181
vt 0.1489891 0.05909014
vn -0.8774414 -0.1920166 0.4389648
vt 0.1629717 0.06196225
vt 0.2526493 0.1139094
v -0.07752838 0.3725212 0.2707976
vt 0.2662657 0.1118555
vn 0.8193359 -0.1330566 -0.5571289
vt 0.2651575 0.1379519
vt 0.279956 0.1103742
vt 0.190552 0.08604854
vt 0.1762788 0.05924809
v -0.0890831 0.3725076 0.2794564
vt 0.1894863 0.06047618
vn -0.7324219 -0.2132568 0.6459961
vt 0.2024379 0.06251949
vt 0.2195924 0.05963635
v -0.04562393 0.3827125 0.304041
vt 0.2325897 0.05909753
vn 0.6875 -0.2009277 -0.6972656
vt 0.2281128 0.08780992
vt 0.2455934 0.05945063
vt 0.2764113 0.08817554
vt 0.2629467 0.05921298
v -0.0555188 0.3826988 0.3156416
vt 0.2754029 0.06055796
vn -0.6074219 -0.1124878 0.7861328
vt 0.2877963 0.06239498
vt 0.08659852 0.03929734
vt 0.07544172 0.01084411
v -0.1024133 0.3377581 0.2284201
vt 0.08758676 0.00888133
vn 0.9213867 -0.08789063 -0.3781738
vt 0.09988958 0.008966208
vt 0.02651203 0.186227
vt 0.01071364 0.157123
v -0.1133772 0.3448625 0.2309059
vt 0.02347708 0.1578001
vn -0.8989258 0.3525391 0.2592773
vt 0.03625447 0.1574874
vt 0.1316313 0.03935206
vt 0.118321 0.009230256
v -0.08279312 0.3500762 0.2665397
vt 0.1306298 0.008411765
vn 0.8369141 -0.09771729 -0.5375977
vt 0.1429343 0.009891272
vt 0.1721185 0.03812015
vt 0.1612679 0.009394407
v -0.09272293 0.3580283 0.2708537
vt 0.1736584 0.009787321
vn -0.8237305 0.3579102 0.4387207
vt 0.1864208 0.009040833
vt 0.2168634 0.04197693
vt 0.2055829 0.0147171
v -0.05171829 0.3564643 0.2995057
vt 0.2178074 0.009034872
vn 0.6381836 -0.1269531 -0.7587891
vt 0.2292511 0.014189
vt 0.2610874 0.04051995
vt 0.2472226 0.009000063
v -0.05997345 0.3668322 0.3068432
vt 0.2597738 0.00984478
vn -0.6733398 0.3815918 0.6328125
vt 0.2727687 0.01249266
vt 0.7389126 0.04051995
vt 0.7272313 0.01249266
v 0.05997345 0.3668322 0.3068432
vt 0.7402262 0.00984478
vn 0.6733398 0.3815918 0.6328125
vt 0.7527774 0.009000063
vt 0.7831366 0.04197693
vt 0.7707489 0.014189
v 0.05171829 0.3564643 0.2995057
vt 0.7821926 0.009034872
vn -0.6381836 -0.1269531 -0.7587891
vt 0.7944171 0.0147171
vt 0.8278815 0.03812015
vt 0.8135792 0.009040833
v 0.09272293 0.3580283 0.2708537
vt 0.8263416 0.009787321
vn 0.8237305 0.3579102 0.4387207
vt 0.8387321 0.009394407
vt 0.8683687 0.03935206
vt 0.8570657 0.009891272
v 0.08279312 0.3500762 0.2665397
vt 0.8693702 0.008411765
vn -0.8369141 -0.09771729 -0.5375977
vt 0.881679 0.009230256
vt 0.973488 0.186227
vt 0.9637455 0.1574874
v 0.1133772 0.3448625 0.2309059
vt 0.9765229 0.1578001
vn 0.8989258 0.3525391 0.2592773
vt 0.9892864 0.157123
vt 0.9134015 0.03929734
vt 0.9001104 0.008966208
v 0.1024133 0.3377581 0.2284201
vt 0.9124132 0.00888133
vn -0.9213867 -0.08789063 -0.3781738
vt 0.9245583 0.01084411
vt 0.7235887 0.08817554
vt 0.7122037 0.06239498
v 0.0555188 0.3826988 0.3156416
vt 0.7245971 0.06055802
vn 0.6074219 -0.1124878 0.7861328
vt 0.7370533 0.05921298
vt 0.7718872 0.08780986
vt 0.7544066 0.05945057
v 0.04562393 0.3827125 0.304041
vt 0.7674103 0.05909747
vn -0.6875 -0.2009277 -0.6972656
vt 0.7804076 0.05963635
vt 0.809448 0.08604854
vt 0.7975621 0.06251949
v 0.0890831 0.3725076 0.2794564
vt 0.8105137 0.06047618
vn 0.7324219 -0.2132568 0.6459961
vt 0.8237212 0.05924809
vt 0.7348425 0.1379519
vt 0.720044 0.1103742
v 0.07752838 0.3725212 0.2707976
vt 0.7337343 0.1118554
vn -0.8193359 -0.1330566 -0.5571289
vt 0.7473507 0.1139094
vt 0.8498585 0.08587819
vt 0.8370283 0.06196225
v 0.1128575 0.3614039 0.238181
vt 0.8510109 0.05909014
vn 0.8774414 -0.1920166 0.4389648
vt 0.86354 0.05835831
vt 0.8529217 0.1382129
vt 0.8390824 0.1103135
v 0.1007675 0.3614171 0.233404
vt 0.8517475 0.1112334
vn -0.9272461 -0.1488037 -0.3425293
vt 0.8661746 0.1142836
v -3.046583E-31 0.5670848 -0.1312227
vt 0.9653907 0.8921323
vn 0 -0.3625488 -0.9316406
v 4.316644E-32 0.6463751 -0.1620693
vt 0.9872574 0.9279529
vn 0 0.980957 -0.1921387
v 0.01139008 0.5729132 -0.1200649
vt 0.9585068 0.8972178
vn 0.9692383 0.06860352 -0.2352295
v -2.372422E-31 0.6396744 -0.104099
vt 0.9572353 0.9341126
vn 0 0.7402344 -0.671875
v 0.01513947 0.5872445 -0.08135214
vt 0.941291 0.908067
vn 0.9638672 0.2049561 -0.1690674
v 0.0177092 0.6011835 -0.04976218
vt 0.9270784 0.9158087
vn 0.9702148 0.1688232 -0.1724854
v 0.01680405 0.6456119 -0.01422061
vt 0.9073613 0.9375319
vn 0.9760742 0.2156982 0.003265381
v 7.269675E-31 0.6812543 -0.1010475
vt 0.95425 0.9557414
vn 0 0.1629639 -0.9863281
v 0.01978439 0.6066521 -0.01224496
vt 0.9095424 0.9169847
vn 0.996582 0.07476807 -0.0289917
v 1.556278E-30 0.7416447 -0.08831542
vt 0.9468001 0.9862711
vn 0 0.4719238 -0.8813477
v 1.811359E-31 0.6572005 -0.01632172
vt 0.9075437 0.9477855
vn 0 0.9086914 0.4169922
v 0.01928283 0.6106012 0.03258147
vt 0.8889254 0.9136267
vn 0.9887695 0.145752 0.01701355
v 7.09308E-31 0.7007508 0.00158699
vt 0.8898479 0.9626998
vn 0 0.793457 -0.6079102
v 0.008380432 0.6981818 0.053472
vt 0.8650395 0.9518414
vn 0.9663086 0.2290039 0.1172485
v 1.521873E-30 0.7555763 0.02867319
vt 0.8667021 0.9835804
vn 0 0.6801758 -0.7329102
v -0.008380432 0.6981818 0.053472
vt 0.8614287 0.9521487
vn -0.9663086 0.2290039 0.1172485
v 0.01583862 0.6161724 0.07479319
vt 0.8689613 0.90931
vn 0.9824219 0.1696777 0.07434082
v 8.820242E-32 0.6527697 0.07848694
vt 0.8567567 0.9268533
vn 0 0.8876953 0.4594727
v 1.050911E-31 0.6876431 0.1187384
vt 0.8298311 0.9257567
vn 0 0.9443359 0.3283691
v 0.01524933 0.6131284 0.1030744
vt 0.8586838 0.9005799
vn 0.9399414 0.1258545 0.3164063
v 2.058434E-32 0.6131285 0.1154732
vt 0.8506389 0.8949933
vn 0 -0.04376221 0.9990234
v -0.01139008 0.5729132 -0.1200649
vt 0.04149324 0.8972178
vn -0.9692383 0.06860352 -0.2352295
vt 0.01274264 0.9279529
vt 0.03460932 0.8921323
vt 0.04276466 0.9341126
v -0.01513947 0.5872445 -0.08135214
vt 0.05870897 0.908067
vn -0.9638672 0.2049561 -0.1690674
v -0.0177092 0.6011835 -0.04976218
vt 0.07292157 0.9158087
vn -0.9702148 0.1688232 -0.1724854
v -0.01680405 0.6456119 -0.01422061
vt 0.09263873 0.9375319
vn -0.9760742 0.2156982 0.003265381
vt 0.04575002 0.9557414
v -0.01978439 0.6066521 -0.01224496
vt 0.09045762 0.9169847
vn -0.996582 0.07476807 -0.0289917
vt 0.05319995 0.9862711
vt 0.09245628 0.9477855
v -0.01928283 0.6106012 0.03258147
vt 0.1110746 0.9136267
vn -0.9887695 0.145752 0.01701355
vt 0.1101521 0.9626998
vt 0.1349605 0.9518414
vt 0.1332979 0.9835804
v -0.01583862 0.6161724 0.07479319
vt 0.1310387 0.90931
vn -0.9824219 0.1696777 0.07434082
vt 0.1432433 0.9268533
vt 0.1701689 0.9257567
v -0.01524933 0.6131284 0.1030744
vt 0.1413162 0.9005799
vn -0.9399414 0.1258545 0.3164063
vt 0.1493611 0.8949933
v 0.4010521 0.4181513 0.07597453
vt 0.6892756 0.8303217
vn 0.1595459 -0.04467773 -0.9858398
v 0.2877882 0.4628789 0.07700236
vt 0.7340892 0.8765864
vn -0.1182861 0.248291 -0.9609375
v 0.5419698 0.5322664 0.07949417
vt 0.6005647 0.8579078
vn 0.06378174 0.05413818 -0.9960938
v 0.2211632 0.4309236 0.08107649
vt 0.7716552 0.8764564
vn -0.7509766 0.6347656 0.1804199
v 0.3201794 0.3394826 0.06862031
vt 0.7450341 0.8116765
vn -0.00460434 -0.03210449 -0.9990234
v 0.379715 0.3307492 0.0803441
vt 0.7175029 0.7934515
vn 0.2113037 -0.2446289 0.9458008
v 0.1491246 0.3584174 0.07859087
vt 0.8200178 0.8584473
vn -0.5727539 0.3901367 -0.7207031
v 0.2748112 0.3289097 0.08336657
vt 0.7691063 0.8156517
vn -0.06726074 -0.2049561 0.9760742
v -0.2877882 0.4628789 0.07700236
vt 0.2659108 0.8765864
vn 0.1182861 0.248291 -0.9609375
v -0.401052 0.4181513 0.07597453
vt 0.3107244 0.8303217
vn -0.1595459 -0.04467773 -0.9858398
v -0.5419696 0.5322664 0.07949417
vt 0.3994353 0.8579078
vn -0.06378174 0.05413818 -0.9960938
v -0.2211632 0.4309236 0.08107649
vt 0.2283448 0.8764564
vn 0.7509766 0.6347656 0.1804199
v -0.3201794 0.3394826 0.06862031
vt 0.2549659 0.8116765
vn 0.00460434 -0.03210449 -0.9990234
v -0.379715 0.3307492 0.0803441
vt 0.2824971 0.7934515
vn -0.2113037 -0.2446289 0.9458008
v -0.1491246 0.3584174 0.07859087
vt 0.1799822 0.8584473
vn 0.5727539 0.3901367 -0.7207031
v -0.2748112 0.3289097 0.08336657
vt 0.2308937 0.8156517
vn 0.06726074 -0.2049561 0.9760742
v 0.1495921 0.2867475 -0.06139567
vt 0.7058296 0.4812673
vn 0.9716797 -0.01873779 -0.2344971
v 0.0726712 0.3312999 -0.2800248
vt 0.8196315 0.5580785
vn 0.8823242 -0.1540527 -0.4440918
vt 0.05320066 0.8160429
vt 0.07732201 0.87458
vt 0.01241428 0.8510216
v -0.3755353 0.4564377 0.09189032
vt 0.1372186 0.809867
vn 0.002397537 0.09185791 0.9956055
vt 0.08983636 0.8024533
vt 0.1356768 0.8778272
vt 0.2274957 0.7742372
vt 0.14994 0.8317419
vt 0.922678 0.87458
vt 0.9467993 0.8160429
vt 0.9875857 0.8510216
v 0.3755353 0.4564377 0.09189032
vt 0.8627814 0.809867
vn -0.002397537 0.09185791 0.9956055
vt 0.8643232 0.8778272
vt 0.9101636 0.8024533
vt 0.85006 0.8317419
vt 0.7725043 0.7742372
v -0.1495921 0.2867475 -0.06139567
vt 0.2941704 0.4812673
vn -0.9716797 -0.01873779 -0.2344971
v -0.0726712 0.3312999 -0.2800248
vt 0.1803685 0.5580785
vn -0.8823242 -0.1540527 -0.4440918
v 5.549198E-31 0.6656528 -0.5115959
vt 0.1007457 0.6083881
vn 0 0.9736328 -0.2276611
v -0.01035736 0.5622474 -0.2921818
vt 0.1896627 0.6879817
vn -0.9995117 0.007369995 -0.02622986
v 2.49522E-31 0.6611114 -0.3881896
vt 0.1262031 0.6632493
vn 0 0.9975586 0.06811523
v 6.204183E-32 0.6381846 -0.2783593
vt 0.1567913 0.7090222
vn 0 0.9516602 0.3059082
v 2.499006E-31 0.6117061 -0.4368882
vt 0.1399589 0.6310784
vn 0 -0.7128906 -0.7006836
v -2.92368E-32 0.5961323 -0.1953295
vt 0.1909824 0.7394412
vn 0 0.8081055 0.5883789
v 2.994643E-31 0.4782474 -0.3722217
vt 0.2134368 0.6355398
vn 0 -0.6806641 -0.7319336
v -3.31225E-31 0.5526485 -0.1453993
vt 0.2194629 0.7552069
vn 0 0.875 0.4836426
v 1.091041E-31 0.4269739 -0.2674707
vt 0.2565256 0.673377
vn 0 -0.8354492 -0.5493164
v -0.01262253 0.5073678 -0.1971894
vt 0.2319986 0.72145
vn -0.9990234 0.03604126 -0.002996445
v 1.796485E-31 0.2717653 -0.2788638
vt 0.2745146 0.6744354
vn 0 0.5361328 -0.84375
v -0.00963272 0.1172598 -0.2558888
vt 0.3589551 0.7043405
vn -0.9990234 -0.02870178 -0.02462769
v -0.01148956 0.2206023 -0.1789111
vt 0.30108 0.7326027
vn -0.9995117 -0.02194214 0.005344391
v -2.371704E-31 0.1895855 -0.1134422
vt 0.3173108 0.7704934
vn 0 -0.6542969 0.7558594
v 4.752342E-31 0.2160798 -0.3273723
vt 0.3078584 0.6504384
vn 0 0.4929199 -0.8696289
v -3.689697E-32 0.1503986 -0.1418136
vt 0.3391609 0.755807
vn 0 -0.6171875 0.7861328
v 6.031917E-31 0.1275497 -0.3132206
vt 0.3558083 0.6607488
vn 0 0.166626 -0.9858398
v 3.091703E-31 0.08658874 -0.2031894
vt 0.3751925 0.7239195
vn 0 -0.7553711 0.6547852
v 7.591638E-31 0.01788056 -0.3623507
vt 0.4181395 0.6400582
vn 0 -0.5654297 -0.8242188
v 4.875693E-31 0.03845318 -0.2787107
vt 0.4037337 0.6846483
vn 0 -0.9467773 0.3215332
v 0.00963272 0.1172598 -0.2558888
vt 0.6410449 0.7043405
vn 0.9990234 -0.02870178 -0.02462769
vt 0.6248075 0.7239195
vt 0.5962663 0.6846483
vt 0.5818605 0.6400582
vt 0.6608391 0.755807
vt 0.6441917 0.6607488
vt 0.6826892 0.7704934
vt 0.6921416 0.6504384
v 0.01148956 0.2206023 -0.1789111
vt 0.69892 0.7326027
vn 0.9995117 -0.02194214 0.005344391
vt 0.7254854 0.6744354
v 0.01035736 0.5622474 -0.2921818
vt 0.8103373 0.6879818
vn 0.9995117 0.007369995 -0.02622986
vt 0.7434744 0.673377
vt 0.7865632 0.6355398
vt 0.8600411 0.6310784
v 0.01262253 0.5073678 -0.1971894
vt 0.7680014 0.72145
vn 0.9990234 0.03604126 -0.002996445
vt 0.8992543 0.6083881
vt 0.7805371 0.7552069
vt 0.8737969 0.6632493
vt 0.8090176 0.7394412
vt 0.8432087 0.7090222
o pm0550_12_00_body_mesh_shape_lod2_body_01
g polygon_0
usemtl body_01
f 190/299/188 191/300/189 192/301/190
f 193/302/191 194/303/192 190/304/188
f 195/305/193 196/306/194 197/307/195
f 198/308/196 199/309/197 195/310/193
f 200/311/198 201/312/199 202/313/200
f 202/314/200 203/315/201 204/316/202
f 205/317/203 206/318/204 207/319/205
f 207/320/205 208/321/206 209/322/207
f 210/323/208 211/324/209 212/325/210
f 212/326/210 213/327/211 214/328/212
f 215/329/213 216/330/214 217/331/215
f 217/332/215 218/333/216 219/334/217
f 220/335/218 221/336/219 222/337/220
f 220/338/218 223/339/221 224/340/222
f 225/341/223 226/342/224 227/343/225
f 225/344/223 228/345/226 229/346/227
f 230/347/228 231/348/229 232/349/230
f 230/350/228 233/351/231 234/352/232
f 235/353/233 236/354/234 237/355/235
f 235/356/233 238/357/236 239/358/237
f 240/359/238 241/360/239 242/361/240
f 240/362/238 243/363/241 244/364/242
f 245/365/243 246/366/244 247/367/245
f 245/368/243 248/369/246 249/370/247
f 190/371/188 192/372/190 250/373/248
f 250/373/248 193/374/191 190/371/188
f 190/375/188 194/376/192 251/377/249
f 251/377/249 191/378/189 190/375/188
f 197/379/195 252/380/250 195/381/193
f 252/380/250 198/382/196 195/381/193
f 195/383/193 199/384/197 253/385/251
f 253/385/251 196/386/194 195/383/193
f 201/387/199 254/388/252 202/389/200
f 254/388/252 203/390/201 202/389/200
f 202/391/200 204/392/202 255/393/253
f 202/391/200 255/393/253 200/394/198
f 207/395/205 206/396/204 256/397/254
f 256/397/254 208/398/206 207/395/205
f 207/399/205 209/400/207 257/401/255
f 207/399/205 257/401/255 205/402/203
f 212/403/210 211/404/209 258/405/256
f 258/405/256 213/406/211 212/403/210
f 212/407/210 214/408/212 259/409/257
f 259/409/257 210/410/208 212/407/210
f 217/411/215 216/412/214 260/413/258
f 260/413/258 218/414/216 217/411/215
f 217/415/215 219/416/217 261/417/259
f 261/417/259 215/418/213 217/415/215
f 220/419/218 224/420/222 262/421/260
f 220/419/218 262/421/260 221/422/219
f 220/423/218 222/424/220 263/425/261
f 220/423/218 263/425/261 223/426/221
f 225/427/223 229/428/227 264/429/262
f 225/427/223 264/429/262 226/430/224
f 225/431/223 227/432/225 265/433/263
f 225/431/223 265/433/263 228/434/226
f 230/435/228 234/436/232 266/437/264
f 230/435/228 266/437/264 231/438/229
f 230/439/228 232/440/230 267/441/265
f 230/439/228 267/441/265 233/442/231
f 235/443/233 239/444/237 268/445/266
f 235/443/233 268/445/266 236/446/234
f 235/447/233 237/448/235 269/449/267
f 235/447/233 269/449/267 238/450/236
f 240/451/238 244/452/242 270/453/268
f 240/451/238 270/453/268 241/454/239
f 240/455/238 242/456/240 271/457/269
f 240/455/238 271/457/269 243/458/241
f 245/459/243 249/460/247 272/461/270
f 245/459/243 272/461/270 246/462/244
f 245/463/243 247/464/245 273/465/271
f 245/463/243 273/465/271 248/466/246
f 274/467/272 275/468/273 276/469/274
f 277/470/275 276/469/274 275/468/273
f 278/471/276 276/469/274 277/470/275
f 278/471/276 277/470/275 279/472/277
f 280/473/278 279/472/277 277/470/275
f 280/473/278 277/470/275 281/474/279
f 282/475/280 279/472/277 280/473/278
f 283/476/281 280/473/278 281/474/279
f 283/476/281 284/477/282 280/473/278
f 282/475/280 280/473/278 285/478/283
f 284/477/282 286/479/284 280/473/278
f 280/473/278 286/479/284 285/478/283
f 285/478/283 286/479/284 287/480/285
f 286/479/284 288/481/286 287/480/285
f 288/481/286 289/482/287 287/480/285
f 290/483/288 285/478/283 287/480/285
f 289/482/287 291/484/289 287/480/285
f 287/480/285 291/484/289 290/483/288
f 291/484/289 292/485/290 290/483/288
f 290/483/288 292/485/290 293/486/291
f 292/485/290 294/487/292 293/486/291
f 295/488/293 275/489/273 274/490/272
f 277/491/275 275/489/273 295/488/293
f 277/491/275 295/488/293 296/492/294
f 297/493/295 277/491/275 296/492/294
f 297/493/295 298/494/296 277/491/275
f 298/494/296 281/495/279 277/491/275
f 299/496/297 298/494/296 297/493/295
f 298/494/296 283/497/281 281/495/279
f 284/498/282 283/497/281 298/494/296
f 300/499/298 298/494/296 299/496/297
f 298/494/296 286/500/284 284/498/282
f 300/499/298 286/500/284 298/494/296
f 289/501/287 286/500/284 300/499/298
f 289/501/287 288/502/286 286/500/284
f 301/503/299 289/501/287 300/499/298
f 291/504/289 289/501/287 301/503/299
f 301/503/299 292/505/290 291/504/289
f 302/506/300 292/505/290 301/503/299
f 294/507/292 292/505/290 302/506/300
f 303/508/301 304/509/302 305/510/303
f 306/511/304 304/509/302 303/508/301
f 307/512/305 306/511/304 303/508/301
f 308/513/306 307/512/305 303/508/301
f 309/514/307 306/511/304 307/512/305
f 308/513/306 310/515/308 307/512/305
f 309/514/307 307/512/305 310/515/308
f 311/516/309 312/517/310 313/518/311
f 312/517/310 311/516/309 314/519/312
f 312/517/310 314/519/312 315/520/313
f 315/520/313 316/521/314 312/517/310
f 315/520/313 314/519/312 317/522/315
f 318/523/316 316/521/314 315/520/313
f 315/520/313 317/522/315 318/523/316
f 57/57/55 60/61/58 58/59/56
f 319/524/317 60/61/58 57/57/55
f 54/54/52 319/524/317 57/57/55
f 319/524/317 62/63/60 60/61/58
f 48/48/46 319/524/317 54/54/52
f 62/63/60 319/524/317 48/48/46
f 320/525/318 62/63/60 48/48/46
f 63/64/61 62/63/60 320/525/318
f 44/44/42 320/525/318 48/48/46
f 63/64/61 320/525/318 42/42/40
f 44/44/42 43/43/41 320/525/318
f 42/42/40 320/525/318 43/43/41
f 314/526/312 318/527/316 317/528/315
f 321/529/319 318/527/316 314/526/312
f 314/526/312 311/530/309 321/529/319
f 316/531/314 318/527/316 321/529/319
f 321/529/319 311/530/309 313/532/311
f 312/533/310 316/531/314 321/529/319
f 313/532/311 312/533/310 321/529/319
f 310/534/308 306/535/304 309/536/307
f 322/537/320 306/535/304 310/534/308
f 310/534/308 308/538/306 322/537/320
f 306/535/304 322/537/320 304/539/302
f 303/540/301 322/537/320 308/538/306
f 304/539/302 322/537/320 305/541/303
f 305/541/303 322/537/320 303/540/301
f 79/86/77 75/81/73 76/83/74
f 323/542/321 75/81/73 79/86/77
f 75/81/73 323/542/321 72/78/70
f 80/87/78 323/542/321 79/86/77
f 72/78/70 323/542/321 69/73/67
f 69/73/67 323/542/321 80/87/78
f 69/73/67 80/87/78 324/543/322
f 324/543/322 80/87/78 81/88/79
f 324/543/322 67/69/65 69/73/67
f 65/66/63 324/543/322 81/88/79
f 64/65/62 67/69/65 324/543/322
f 64/65/62 324/543/322 65/66/63
f 325/544/323 326/545/324 327/546/325
f 326/545/324 328/547/326 327/546/325
f 326/545/324 325/544/323 329/548/327
f 330/549/328 328/547/326 326/545/324
f 331/550/329 326/545/324 329/548/327
f 326/545/324 332/551/330 330/549/328
f 331/550/329 333/552/331 326/545/324
f 332/551/330 326/545/324 334/553/332
f 326/545/324 333/552/331 334/553/332
f 335/554/333 336/555/334 337/556/335
f 336/555/334 338/557/336 337/556/335
f 336/555/334 335/554/333 339/558/337
f 338/557/336 336/555/334 340/559/338
f 341/560/339 336/555/334 339/558/337
f 342/561/340 340/559/338 336/555/334
f 336/555/334 341/560/339 343/562/341
f 344/563/342 342/561/340 336/555/334
f 344/563/342 336/555/334 343/562/341
f 345/564/343 342/565/340 344/566/342
f 343/567/341 345/564/343 344/566/342
f 342/565/340 345/564/343 340/568/338
f 341/569/339 345/564/343 343/567/341
f 345/564/343 338/570/336 340/568/338
f 339/571/337 345/564/343 341/569/339
f 338/570/336 345/564/343 346/572/344
f 339/571/337 335/573/333 345/564/343
f 345/564/343 335/573/333 346/572/344
f 347/574/345 333/575/331 331/576/329
f 331/576/329 329/577/327 347/574/345
f 348/578/346 333/575/331 347/574/345
f 325/579/323 347/574/345 329/577/327
f 347/574/345 332/580/330 348/578/346
f 347/574/345 325/579/323 327/581/325
f 332/580/330 347/574/345 330/582/328
f 328/583/326 347/574/345 327/581/325
f 347/574/345 328/583/326 330/582/328
