mtllib pm0550_12_00_lod1.mtl
v 0.06888666 0.4044392 0.2909215
vt 0.7109797 0.2561349
vn 0.753418 0.3127441 0.578125
v 0.04986436 0.4058271 0.311459
vt 0.8379016 0.2999279
vn 0.7133789 0.2810059 0.6416016
v 0.04943059 0.3965777 0.315991
vt 0.86752 0.2604309
v 0.05029813 0.4150764 0.3069269
vt 0.8082796 0.3394291
vn 0.7138672 0.2856445 0.6391602
v 0.053631 0.4353117 0.2940687
vt 0.725928 0.4211041
vn 0.7612305 0.3225098 0.5625
v 0.08024579 0.4144403 0.2689447
vt 0.5846902 0.2766826
vn 0.784668 0.3486328 0.5117188
v 0.05742784 0.4553927 0.2763155
vt 0.6235164 0.5008854
vn 0.7871094 0.3469238 0.5092773
v 0.06189388 0.4732778 0.2562346
vt 0.5122448 0.5695277
vn 0.8198242 0.3530273 0.4501953
v 0.06634943 0.4902456 0.2341129
vt 0.3932792 0.6340816
vn 0.8188477 0.3845215 0.4257813
v 0.0878045 0.4273783 0.2472955
vt 0.4651594 0.3175
vn 0.7895508 0.3718262 0.4875488
v 0.09092591 0.4412915 0.230425
vt 0.3740467 0.3715954
vn 0.8100586 0.3728027 0.4516602
v 0.09155002 0.4558887 0.2167854
vt 0.3011214 0.4337838
vn 0.8217773 0.3869629 0.4172363
v 0.07027353 0.505001 0.2111746
vt 0.2736985 0.6901397
vn 0.8339844 0.4060059 0.3728027
v 0.08860765 0.472219 0.2046559
vt 0.2395532 0.5107117
vn 0.8476563 0.4064941 0.3400879
v 0.08367714 0.4905095 0.1949215
vt 0.1904835 0.6002065
vn 0.8486328 0.4091797 0.3347168
v 0.0792151 0.5049182 0.1884194
vt 0.1580228 0.6718744
vn 0.8476563 0.4138184 0.331543
v 0.07419176 0.5196594 0.1827979
vt 0.1300962 0.7460698
vn 0.847168 0.4150391 0.3312988
o pm0550_12_00_eye_mesh_shape_lod1_l_eye
g polygon_0
usemtl l_eye
f 1/1/1 2/2/2 3/3/2
f 2/2/2 1/1/1 4/4/3
f 4/4/3 1/1/1 5/5/4
f 1/1/1 6/6/5 5/5/4
f 5/5/4 6/6/5 7/7/6
f 6/6/5 8/8/7 7/7/6
f 9/9/8 8/8/7 6/6/5
f 9/9/8 6/6/5 10/10/9
f 9/9/8 10/10/9 11/11/10
f 12/12/11 9/9/8 11/11/10
f 13/13/12 9/9/8 12/12/11
f 14/14/13 13/13/12 12/12/11
f 15/15/14 13/13/12 14/14/13
f 16/16/15 13/13/12 15/15/14
f 17/17/16 13/13/12 16/16/15
v -0.04986436 0.4058271 0.311459
vt 0.8379018 0.2999285
vn -0.7133789 0.2810059 0.6416016
v -0.06888666 0.4044392 0.2909215
vt 0.7109799 0.2561352
vn -0.753418 0.3127441 0.578125
v -0.04943059 0.3965777 0.315991
vt 0.8675203 0.2604312
v -0.05029813 0.4150764 0.3069269
vt 0.8082799 0.3394294
vn -0.7138672 0.2856445 0.6391602
v -0.053631 0.4353117 0.2940687
vt 0.7259282 0.4211044
vn -0.7612305 0.3225098 0.5625
v -0.08024579 0.4144403 0.2689447
vt 0.5846905 0.2766828
vn -0.784668 0.3486328 0.5117188
v -0.05742784 0.4553927 0.2763155
vt 0.6235166 0.5008855
vn -0.7871094 0.3469238 0.5092773
v -0.06189388 0.4732778 0.2562346
vt 0.5122449 0.5695276
vn -0.8198242 0.3530273 0.4501953
v -0.06634943 0.4902456 0.2341129
vt 0.393279 0.6340814
vn -0.8188477 0.3845215 0.4257813
v -0.0878045 0.4273783 0.2472955
vt 0.4651599 0.3174999
vn -0.7895508 0.3718262 0.4875488
v -0.09092591 0.4412915 0.230425
vt 0.374047 0.3715953
vn -0.8100586 0.3728027 0.4516602
v -0.09155002 0.4558887 0.2167854
vt 0.3011215 0.4337837
vn -0.8217773 0.3869629 0.4172363
v -0.07027353 0.505001 0.2111746
vt 0.2736983 0.6901396
vn -0.8339844 0.4060059 0.3728027
v -0.08860765 0.472219 0.2046559
vt 0.2395532 0.5107116
vn -0.8476563 0.4064941 0.3400879
v -0.08367714 0.4905095 0.1949215
vt 0.1904835 0.6002063
vn -0.8486328 0.4091797 0.3347168
v -0.0792151 0.5049182 0.1884194
vt 0.1580227 0.6718742
vn -0.8476563 0.4138184 0.331543
v -0.07419176 0.5196594 0.1827979
vt 0.130096 0.7460696
vn -0.847168 0.4150391 0.3312988
o pm0550_12_00_eye_mesh_shape_lod1_r_eye
g polygon_0
usemtl r_eye
f 18/18/17 19/19/18 20/20/17
f 21/21/19 19/19/18 18/18/17
f 21/21/19 22/22/20 19/19/18
f 22/22/20 23/23/21 19/19/18
f 24/24/22 23/23/21 22/22/20
f 23/23/21 24/24/22 25/25/23
f 23/23/21 25/25/23 26/26/24
f 27/27/25 23/23/21 26/26/24
f 28/28/26 27/27/25 26/26/24
f 26/26/24 29/29/27 28/28/26
f 30/30/28 29/29/27 26/26/24
f 30/30/28 31/31/29 29/29/27
f 32/32/30 31/31/29 30/30/28
f 33/33/31 32/32/30 30/30/28
f 33/33/31 30/30/28 34/34/32
v 0.1337818 0.3409373 0.1864148
vt 0.5144682 0.7195038
vn -0.2210693 -0.9697266 0.1003418
v 0.1487991 0.345711 0.117705
vt 0.5832341 0.7195349
vn -0.5170898 -0.7280273 -0.4489746
v 0.1473239 0.2994035 0.1535214
vt 0.5458394 0.7624764
vn -0.3820801 -0.8994141 -0.2109375
v -0.1473239 0.2994035 0.1535214
vt 0.4541606 0.7624764
vn 0.3820801 -0.8994141 -0.2109375
v -0.1487991 0.345711 0.117705
vt 0.4167659 0.7195349
vn 0.5170898 -0.7280273 -0.4489746
v -0.1337818 0.3409373 0.1864148
vt 0.4855318 0.7195038
vn 0.2210693 -0.9697266 0.1003418
v 0.0805898 0.5124119 0.1927282
vt 0.9753984 0.3304318
vn 0.5053711 0.3720703 0.777832
v 0.0834401 0.5210442 0.1867012
vt 0.9693399 0.3361088
vn 0.8320313 0.449707 0.3244629
v 0.07968722 0.5096744 0.1990092
vt 0.9772248 0.3240451
vn 0.9394531 -0.340332 -0.02793884
v 0.07736371 0.502075 0.2130636
vt 0.9806796 0.3125138
vn 0.8037109 0.4399414 0.3999023
v 0.07549464 0.4916601 0.2354905
vt 0.9801486 0.2955306
vn 0.8115234 0.4492188 0.373291
v 0.07427679 0.4889165 0.2339536
vt 0.9833537 0.2957923
vn 0.9277344 -0.361084 -0.09039307
v 0.07016126 0.4730808 0.2550022
vt 0.9849611 0.2789198
vn 0.9101563 -0.3933105 -0.1265869
v 0.06665602 0.4583887 0.2753808
vt 0.9804564 0.2643011
vn 0.9692383 -0.2327881 -0.07757568
v 0.06610686 0.456501 0.2732796
vt 0.9851529 0.2638876
vn 0.9741211 -0.2160645 -0.06054688
v 0.07089447 0.4764067 0.2571706
vt 0.956882 0.2853823
vn 0.7905273 0.3945313 0.4680176
v 0.06451882 0.4380206 0.2889057
vt 0.9833023 0.2499934
vn 0.9477539 0.05389404 0.314209
v 0.06715999 0.4595207 0.2772939
vt 0.9568086 0.2687336
vn 0.6401367 0.4216309 0.6416016
v 0.05967972 0.4199879 0.3063156
vt 0.9646646 0.2386615
vn 0.6982422 0.3273926 0.6362305
v 0.06207008 0.4200619 0.2997845
vt 0.9805507 0.2390998
vn 0.9375 0.05389404 0.3435059
v 0.05959236 0.4080388 0.3056759
vt 0.9777738 0.2331244
vn 0.9311523 0.2907715 0.2198486
v 0.05950649 0.4026717 0.315069
vt 0.971051 0.228658
vn 0.7001953 0.2172852 0.6791992
v -0.0834401 0.5210442 0.1867012
vt 0.03066006 0.3361089
vn -0.8320313 0.449707 0.3244629
v -0.0805898 0.5124119 0.1927282
vt 0.02460156 0.3304319
vn -0.5053711 0.3720703 0.777832
v -0.07968722 0.5096744 0.1990092
vt 0.02277517 0.3240452
vn -0.9394531 -0.340332 -0.02793884
v -0.07736371 0.502075 0.2130636
vt 0.01932041 0.3125138
vn -0.8037109 0.4399414 0.3999023
v -0.07549464 0.4916601 0.2354905
vt 0.01985137 0.2955306
vn -0.8115234 0.4492188 0.373291
v -0.07427679 0.4889165 0.2339536
vt 0.01664628 0.2957923
vn -0.9277344 -0.361084 -0.09039307
v -0.07016126 0.4730808 0.2550022
vt 0.01503889 0.2789198
vn -0.9101563 -0.3933105 -0.1265869
v -0.06665602 0.4583887 0.2753808
vt 0.01954359 0.264301
vn -0.9692383 -0.2327881 -0.07757568
v -0.06610686 0.456501 0.2732796
vt 0.01484706 0.2638876
vn -0.9741211 -0.2160645 -0.06054688
v -0.07089447 0.4764067 0.2571706
vt 0.04311804 0.2853823
vn -0.7905273 0.3945313 0.4680176
v -0.06451882 0.4380206 0.2889057
vt 0.01669768 0.2499934
vn -0.9477539 0.05389404 0.314209
v -0.06715999 0.4595207 0.2772939
vt 0.04319141 0.2687336
vn -0.6401367 0.4216309 0.6416016
v -0.05967972 0.4199879 0.3063156
vt 0.03533544 0.2386615
vn -0.6982422 0.3273926 0.6362305
v -0.06207008 0.4200619 0.2997845
vt 0.01944927 0.2390997
vn -0.9375 0.05389404 0.3435059
v -0.05959236 0.4080388 0.3056759
vt 0.02222612 0.2331243
vn -0.9311523 0.2907715 0.2198486
v -0.05950649 0.4026717 0.315069
vt 0.02894894 0.2286578
vn -0.7001953 0.2172852 0.6791992
v 0.02424973 0.3538921 -0.3655993
vt 0.8694767 0.590992
vn 0.987793 0.1040649 -0.1154785
v 0.03451669 0.3538907 -0.3399654
vt 0.8543456 0.5848072
vn 0.8959961 0.1004639 -0.4318848
v 0.02433614 0.3180916 -0.3655271
vt 0.877525 0.5714064
vn 0.9921875 -0.08032227 -0.09466553
v 0.02959656 0.3041293 -0.3399361
vt 0.8669978 0.5570661
vn 0.8188477 -0.3803711 -0.4289551
v 0.01678023 0.2959961 -0.3655111
vt 0.8847713 0.5597681
vn 0.8647461 -0.4973145 0.06323242
v 3.673741E-10 0.2790053 -0.339836
vt 0.8823485 0.539268
vn 0 -0.8881836 -0.4589844
v -2.397526E-10 0.2798748 -0.3654716
vt 0.8936629 0.5493975
vn 0 -0.9370117 0.3483887
v 0.03152272 0.2794891 -0.3094019
vt 0.8570981 0.5354626
vn 0.5766602 -0.652832 -0.4902344
v 4.852238E-11 0.2443194 -0.279382
vt 0.862991 0.501927
vn 0 -0.8852539 -0.4643555
v 0.04205731 0.2649694 -0.27906
vt 0.8423696 0.520501
vn 0.5136719 -0.7207031 -0.4650879
v 0.05809594 0.2887675 -0.2787044
vt 0.8325016 0.5342968
vn 0.7958984 -0.3713379 -0.4772949
v 0.08699585 0.2699446 -0.215047
vt 0.7979234 0.5097222
vn 0.8461914 -0.3405762 -0.4094238
v 0.03913483 0.2095832 -0.1775865
vt 0.808929 0.4593471
vn 0.2905273 -0.8803711 -0.3742676
v 4.259129E-10 0.2065426 -0.1773169
vt 0.8270246 0.4450836
vn 0 -0.9365234 -0.3500977
v 0.06396283 0.2414803 -0.2149205
vt 0.8106858 0.4923267
vn 0.5678711 -0.7099609 -0.4155273
v 1.469756E-09 0.1919986 -0.1393676
vt 0.8118061 0.4246137
vn 0 -0.9667969 -0.2543945
v 0.08474306 0.2194185 -0.1393694
vt 0.7738287 0.4620314
vn 0.5986328 -0.7348633 -0.317627
v 0.1125151 0.2519822 -0.1393557
vt 0.7592091 0.4823289
vn 0.831543 -0.4453125 -0.3310547
v 0.04364843 0.1963494 -0.1393676
vt 0.792284 0.4415207
vn 0.293457 -0.9165039 -0.2705078
v 0.05230597 0.1789837 -0.06051755
vt 0.7561276 0.4088995
vn 0.2531738 -0.9458008 -0.2027588
v 1.184851E-09 0.1760581 -0.06051752
vt 0.7778211 0.3869528
vn 0 -0.9838867 -0.1762695
v 4.099749E-09 0.1671684 -0.0008693474
vt 0.7501808 0.36113
vn 0 -0.9946289 -0.1002197
v 0.1017822 0.2022323 -0.06051757
vt 0.7354591 0.4331636
vn 0.5610352 -0.7900391 -0.2451172
v 0.1329685 0.2366721 -0.06051849
vt 0.7199471 0.4551576
vn 0.8583984 -0.4465332 -0.251709
v 0.05657058 0.1704396 -0.0008632714
vt 0.7279019 0.3861846
vn 0.2446289 -0.9643555 -0.09875488
v 2.931476E-09 0.1587494 0.1095088
vt 0.697214 0.3189716
vn 0 -0.9970703 0.07305908
v 0.05929843 0.1636727 0.109537
vt 0.6751016 0.3468035
vn 0.2570801 -0.9633789 0.07287598
v 0.117738 0.1905544 0.1095044
vt 0.6516517 0.3781267
vn 0.5688477 -0.8183594 0.07440186
v 0.1108395 0.1945943 -0.0008494935
vt 0.70614 0.4133636
vn 0.5644531 -0.8178711 -0.1074829
v 0.1419835 0.2295329 -0.0008516635
vt 0.6908263 0.4358861
vn 0.8598633 -0.4960938 -0.1191406
v 0.1466095 0.2244407 0.1082352
vt 0.6372638 0.401391
vn 0.8530273 -0.5170898 0.06512451
v 0.1564267 0.2657313 0.08456173
vt 0.6360593 0.4308506
vn 0.9755859 -0.2178955 -0.02528381
v 0.1550381 0.2647087 0.1081754
vt 0.6243487 0.4231025
vn 0.9916992 -0.117981 0.04727173
v 0.1569426 0.2713425 0.04401812
vt 0.6553026 0.4454586
vn 0.987793 -0.1459961 -0.0536499
v 0.1534387 0.2779069 -0.0007655239
vt 0.6767291 0.4611523
vn 0.9838867 -0.1257324 -0.1259766
v 0.1593119 0.2979907 0.09145179
vt 0.6233731 0.4465042
vn 0.9975586 -0.02290344 0.05892944
v 0.1530667 0.2964457 0.1116579
vt 0.6125814 0.4391922
vn 0.9829102 0.07922363 0.1641846
v 0.1479279 0.3374082 0.1193856
vt 0.5963066 0.459162
vn 0.9521484 0.09143066 0.2905273
v 0.1607596 0.3494686 0.04404368
vt 0.6346115 0.4868385
vn 0.9858398 0.1643066 -0.02095032
v 0.1567219 0.3453491 -0.0008810864
vt 0.6592965 0.4965103
vn 0.9838867 0.1334229 -0.116394
v 0.1570334 0.3402479 0.1109937
vt 0.6019138 0.4643851
vn 0.9848633 -0.005210876 0.1713867
v 0.1259613 0.4787275 -0.0008692841
vt 0.6268814 0.5702922
vn 0.9501953 0.2932129 -0.1011963
vt 0.5950624 0.4643567
v 0.1415095 0.3421028 0.1213266
vt 0.5928681 0.4628038
vn 0.1061401 -0.9555664 0.2741699
v 0.1553711 0.3594193 0.1169173
vt 0.5934775 0.472969
vn 0.9702148 0.2148438 0.1082153
v 0.1259422 0.4854051 0.04408818
vt 0.600845 0.562641
vn 0.9467773 0.3195801 0.03613281
v 0.1186638 0.4833671 0.1260349
vt 0.556224 0.5424303
vn 0.9282227 0.3388672 0.1505127
v 0.09254429 0.5364355 0.1269176
vt 0.5411659 0.5743279
vn 0.8662109 0.4736328 0.1564941
v 0.0983872 0.5423285 0.04410279
vt 0.5859406 0.59674
vn 0.8530273 0.5195313 0.04260254
v 0.0985284 0.5383872 -0.0008670712
vt 0.6118277 0.6059091
vn 0.8691406 0.4807129 -0.1140747
v 0.09398319 0.5259239 -0.06088956
vt 0.6485613 0.6147389
vn 0.824707 0.512207 -0.2373047
v 0.1205205 0.4673605 -0.06072262
vt 0.6624994 0.5796356
vn 0.9384766 0.2900391 -0.1867676
v 0.08884674 0.4864721 -0.1396392
vt 0.7032377 0.6131009
vn 0.8364258 0.4174805 -0.3547363
v 0.1063121 0.4392273 -0.1393791
vt 0.7136233 0.5849457
vn 0.8920898 0.310791 -0.3276367
v 0.07527094 0.4338692 -0.2150964
vt 0.7606 0.6027597
vn 0.8222656 0.3671875 -0.4345703
v 0.09770628 0.3698239 -0.2153227
vt 0.7726812 0.5640941
vn 0.9179688 0.1239624 -0.3764648
v 0.06017242 0.3861825 -0.2790169
vt 0.8097687 0.5897517
vn 0.8295898 0.3054199 -0.467041
v 3.183913E-09 0.4057408 0.3621275
vt 0.8100073 0.9017719
vn 0 0.7314453 0.6816406
v 4.435614E-09 0.2886346 0.4058458
vt 0.8107623 0.9760733
vn 0 -0.0692749 0.9975586
v 0.04978382 0.3933353 0.3470114
vt 0.7783194 0.9058562
vn 0.4182129 0.6416016 0.6420898
v 0.08294128 0.2802346 0.3722478
vt 0.7570563 0.974791
vn 0.5327148 -0.001919746 0.8457031
v 0.08399557 0.3832587 0.3270985
vt 0.7540928 0.9081606
vn 0.6567383 0.6723633 0.3408203
v 0.1093862 0.3181784 0.3076801
vt 0.7251409 0.9403167
vn 0.9150391 0.1556396 0.3710938
v 0.1237716 0.355435 0.2360177
vt 0.6915532 0.9041733
vn 0.7895508 0.6098633 0.06005859
v 0.1043258 0.2891321 0.3199461
vt 0.7271504 0.9591905
vn 0.9355469 -0.12854 0.3283691
v 0.09279763 0.2587623 0.3347375
vt 0.731737 0.9801616
vn 0.6796875 -0.5844727 0.4421387
v 0.1013815 0.2324637 0.2790233
vt 0.694298 0.9856554
vn 0.7016602 -0.5898438 0.3991699
v 0.1289371 0.2995251 0.2558814
vt 0.6903962 0.9398453
vn 0.9648438 0.04492188 0.2583008
v 0.1334569 0.2455379 0.2176923
vt 0.6585571 0.9627982
vn 0.9155273 -0.3161621 0.2473145
v 0.109414 0.2125961 0.2247274
vt 0.6588626 0.9873064
vn 0.5961914 -0.7666016 0.2382813
vt 0.5876683 0.9813604
vt 0.5921445 0.9552504
v 0.154808 0.2650076 0.134852
vt 0.6138176 0.9357815
vn 0.9829102 -0.0682373 0.1682129
v 0.1440182 0.3378513 0.1420757
vt 0.6327069 0.8951491
vn 0.8510742 0.5087891 0.1250152
vt 0.5985401 0.9313651
vt 0.6193513 0.8915104
vt 0.6066461 0.9135637
v -0.06017242 0.3861825 -0.2790169
vt 0.1902313 0.5897517
vn -0.8295898 0.3054199 -0.467041
v -0.09770628 0.3698239 -0.2153227
vt 0.2273188 0.5640941
vn -0.9179688 0.1239624 -0.3764648
v -0.07527094 0.4338692 -0.2150964
vt 0.2394 0.6027597
vn -0.8222656 0.3671875 -0.4345703
v -0.1063121 0.4392273 -0.1393791
vt 0.2863767 0.5849457
vn -0.8920898 0.310791 -0.3276367
v -0.08884674 0.4864721 -0.1396392
vt 0.2967623 0.6131009
vn -0.8364258 0.4174805 -0.3547363
v -0.1205205 0.4673605 -0.06072262
vt 0.3375006 0.5796356
vn -0.9384766 0.2900391 -0.1867676
v -0.09398319 0.5259239 -0.06088956
vt 0.3514387 0.6147389
vn -0.824707 0.512207 -0.2373047
v -0.1259613 0.4787275 -0.0008692841
vt 0.3731186 0.5702922
vn -0.9501953 0.2932129 -0.1011963
v -0.0985284 0.5383872 -0.0008670712
vt 0.3881723 0.6059091
vn -0.8691406 0.4807129 -0.1140747
v -0.1259422 0.4854051 0.04408818
vt 0.399155 0.562641
vn -0.9467773 0.3195801 0.03613281
v -0.0983872 0.5423285 0.04410279
vt 0.4140594 0.59674
vn -0.8530273 0.5195313 0.04260254
v -0.09254429 0.5364355 0.1269176
vt 0.4588341 0.5743279
vn -0.8662109 0.4736328 0.1564941
v -0.1186638 0.4833671 0.1260349
vt 0.443776 0.5424303
vn -0.9282227 0.3388672 0.1505127
v -0.1553711 0.3594193 0.1169173
vt 0.4065225 0.472969
vn -0.9702148 0.2148438 0.1082153
v -0.1607596 0.3494686 0.04404368
vt 0.3653885 0.4868385
vn -0.9858398 0.1643066 -0.02095032
v -0.1567219 0.3453491 -0.0008810864
vt 0.3407035 0.4965103
vn -0.9838867 0.1334229 -0.116394
v -0.1534387 0.2779069 -0.0007655239
vt 0.3232709 0.4611523
vn -0.9838867 -0.1257324 -0.1259766
v -0.1570334 0.3402479 0.1109937
vt 0.3980862 0.4643851
vn -0.9848633 -0.005210876 0.1713867
vt 0.4049376 0.4643567
v -0.1569426 0.2713425 0.04401812
vt 0.3446974 0.4454586
vn -0.987793 -0.1459961 -0.0536499
v -0.1479279 0.3374082 0.1193856
vt 0.4036934 0.459162
vn -0.9521484 0.09143066 0.2905273
v -0.1415095 0.3421028 0.1213266
vt 0.4071319 0.4628038
vn -0.1061401 -0.9555664 0.2741699
v -0.1419835 0.2295329 -0.0008516635
vt 0.3091737 0.4358861
vn -0.8598633 -0.4960938 -0.1191406
v -0.1593119 0.2979907 0.09145179
vt 0.3766269 0.4465042
vn -0.9975586 -0.02290344 0.05892944
v -0.1530667 0.2964457 0.1116579
vt 0.3874186 0.4391922
vn -0.9829102 0.07922363 0.1641846
v -0.1550381 0.2647087 0.1081754
vt 0.3756513 0.4231025
vn -0.9916992 -0.117981 0.04727173
v -0.1564267 0.2657313 0.08456173
vt 0.3639407 0.4308506
vn -0.9755859 -0.2178955 -0.02528381
v -0.1466095 0.2244407 0.1082352
vt 0.3627362 0.401391
vn -0.8530273 -0.5170898 0.06512451
v -0.117738 0.1905544 0.1095044
vt 0.3483483 0.3781267
vn -0.5688477 -0.8183594 0.07440186
v -0.1108395 0.1945943 -0.0008494935
vt 0.29386 0.4133636
vn -0.5644531 -0.8178711 -0.1074829
v -0.1329685 0.2366721 -0.06051849
vt 0.2800529 0.4551576
vn -0.8583984 -0.4465332 -0.251709
v -0.05657058 0.1704396 -0.0008632714
vt 0.2720981 0.3861846
vn -0.2446289 -0.9643555 -0.09875488
v -0.05929843 0.1636727 0.109537
vt 0.3248984 0.3468035
vn -0.2570801 -0.9633789 0.07287598
vt 0.302786 0.3189716
vt 0.2498192 0.36113
v -0.1017822 0.2022323 -0.06051757
vt 0.2645409 0.4331636
vn -0.5610352 -0.7900391 -0.2451172
v -0.1125151 0.2519822 -0.1393557
vt 0.2407909 0.4823289
vn -0.831543 -0.4453125 -0.3310547
v -0.05230597 0.1789837 -0.06051755
vt 0.2438724 0.4088995
vn -0.2531738 -0.9458008 -0.2027588
vt 0.2221789 0.3869528
vt 0.1881939 0.4246137
v -0.08474306 0.2194185 -0.1393694
vt 0.2261713 0.4620314
vn -0.5986328 -0.7348633 -0.317627
v -0.08699585 0.2699446 -0.215047
vt 0.2020766 0.5097222
vn -0.8461914 -0.3405762 -0.4094238
v -0.04364843 0.1963494 -0.1393676
vt 0.207716 0.4415207
vn -0.293457 -0.9165039 -0.2705078
v -0.03913483 0.2095832 -0.1775865
vt 0.191071 0.4593471
vn -0.2905273 -0.8803711 -0.3742676
vt 0.1729754 0.4450836
vt 0.137009 0.501927
v -0.06396283 0.2414803 -0.2149205
vt 0.1893142 0.4923267
vn -0.5678711 -0.7099609 -0.4155273
v -0.04205731 0.2649694 -0.27906
vt 0.1576304 0.520501
vn -0.5136719 -0.7207031 -0.4650879
v -0.05809594 0.2887675 -0.2787044
vt 0.1674984 0.5342968
vn -0.7958984 -0.3713379 -0.4772949
v -0.03152272 0.2794891 -0.3094019
vt 0.1429019 0.5354626
vn -0.5766602 -0.652832 -0.4902344
vt 0.1176515 0.539268
v -0.02959656 0.3041293 -0.3399361
vt 0.1330022 0.5570661
vn -0.8188477 -0.3803711 -0.4289551
vt 0.1063371 0.5493975
v -0.01678023 0.2959961 -0.3655111
vt 0.1152287 0.5597681
vn -0.8647461 -0.4973145 0.06323242
v -0.02433614 0.3180916 -0.3655271
vt 0.122475 0.5714064
vn -0.9921875 -0.08032227 -0.09466553
v -0.03451669 0.3538907 -0.3399654
vt 0.1456544 0.5848072
vn -0.8959961 0.1004639 -0.4318848
v -0.02424973 0.3538921 -0.3655993
vt 0.1305233 0.590992
vn -0.987793 0.1040649 -0.1154785
v -0.04978382 0.3933353 0.3470114
vt 0.2216806 0.9058562
vn -0.4182129 0.6416016 0.6420898
vt 0.1892377 0.9760733
vt 0.1899927 0.9017719
v -0.08294128 0.2802346 0.3722478
vt 0.2429437 0.974791
vn -0.5327148 -0.001919746 0.8457031
v -0.08399557 0.3832587 0.3270985
vt 0.2459072 0.9081606
vn -0.6567383 0.6723633 0.3408203
v -0.1093862 0.3181784 0.3076801
vt 0.2748591 0.9403167
vn -0.9150391 0.1556396 0.3710938
v -0.1237716 0.355435 0.2360177
vt 0.3084468 0.9041733
vn -0.7895508 0.6098633 0.06005859
v -0.1043258 0.2891321 0.3199461
vt 0.2728496 0.9591905
vn -0.9355469 -0.12854 0.3283691
v -0.09279763 0.2587623 0.3347375
vt 0.268263 0.9801616
vn -0.6796875 -0.5844727 0.4421387
v -0.1013815 0.2324637 0.2790233
vt 0.305702 0.9856554
vn -0.7016602 -0.5898438 0.3991699
v -0.1289371 0.2995251 0.2558814
vt 0.3096038 0.9398453
vn -0.9648438 0.04492188 0.2583008
v -0.1334569 0.2455379 0.2176923
vt 0.3414429 0.9627982
vn -0.9155273 -0.3161621 0.2473145
v -0.109414 0.2125961 0.2247274
vt 0.3411374 0.9873064
vn -0.5961914 -0.7666016 0.2382813
vt 0.4123317 0.9813604
vt 0.4078555 0.9552504
v -0.154808 0.2650076 0.134852
vt 0.3861824 0.9357815
vn -0.9829102 -0.0682373 0.1682129
v -0.1440182 0.3378513 0.1420757
vt 0.3672931 0.8951491
vn -0.8510742 0.5087891 0.1250152
vt 0.4014599 0.9313651
vt 0.3806487 0.8915104
vt 0.3933539 0.9135637
v 0.08608461 0.3180475 0.07352276
vt 0.5589196 0.3212728
vn 0.06124878 -0.9541016 0.2924805
v 0.1048532 0.3163629 0.1091483
vt 0.5660601 0.2985406
vn -0.09173584 0.9887695 -0.116333
vt 0.5922801 0.2899061
v 0.1101253 0.3232395 0.1437197
vt 0.5683405 0.2783254
vn -0.1015625 0.9760742 -0.1901855
vt 0.5907876 0.2762837
vt 0.5962614 0.2883601
v 0.09157665 0.3420827 0.238402
vt 0.5536778 0.2233692
vn 0.04464722 0.9692383 -0.2408447
vt 0.5731514 0.2214346
v 0.05359686 0.3616567 0.2899113
vt 0.5314535 0.1914245
vn 0.02420044 0.9667969 -0.2539063
vt 0.5482943 0.166788
vt 0.5287263 0.1540796
vt 0.5 0.1423864
v -1.017007E-09 0.3649437 0.3039825
vt 0.5 0.1834671
vn 0 0.9492188 -0.314209
v -0.05359686 0.3616567 0.2899113
vt 0.4685465 0.1914245
vn -0.02420044 0.9667969 -0.2539063
vt 0.4712737 0.1540796
vt 0.4517057 0.166788
vt 0.4268486 0.2214346
v -0.09157665 0.3420827 0.238402
vt 0.4463222 0.2233692
vn -0.04464722 0.9692383 -0.2408447
vt 0.4092124 0.2762837
v -0.1101253 0.3232395 0.1437197
vt 0.4316595 0.2783254
vn 0.1015625 0.9760742 -0.1901855
vt 0.4077199 0.2899061
vt 0.4037386 0.2883601
v -0.1048532 0.3163629 0.1091483
vt 0.4339399 0.2985406
vn 0.09173584 0.9887695 -0.116333
v -0.08608461 0.3180475 0.07352276
vt 0.4410804 0.3212728
vn -0.08984375 -0.9423828 0.3208008
v -1.335461E-10 0.490114 -0.5727078
vt 0.8715572 0.7435535
vn 0 0.6508789 -0.7587891
v 0.01583955 0.4030096 -0.5528052
vt 0.9315947 0.7345971
vn 0.9892578 0.05419922 -0.1346436
v -1.080105E-09 0.4149118 -0.5963747
vt 0.9205798 0.7632775
vn 0 0.1210938 -0.9921875
v -4.548998E-11 0.4932122 -0.5551335
vt 0.8703506 0.7320729
vn 0 0.9995117 -0.002449036
v 0.01449322 0.4173392 -0.452029
vt 0.9272057 0.6664004
vn 0.9692383 0.2402344 0.05081177
v 0.01912573 0.3758853 -0.4521299
vt 0.9550167 0.6686124
vn 0.9985352 0.03567505 -0.02865601
v -3.755371E-10 0.4459475 -0.4520136
vt 0.905892 0.6644215
vn 0 0.9228516 0.3845215
v 0.0167772 0.3872012 -0.3655896
vt 0.9522896 0.6094497
vn 0.9277344 0.371582 0.02354431
vt 0.9752593 0.6127769
v -2.168947E-10 0.4029632 -0.3654767
vt 0.9369063 0.6075548
vn 0 0.9516602 0.3061523
v 0.02249808 0.3912884 -0.3397862
vt 0.9539132 0.5907518
vn 0.7758789 0.4763184 -0.4130859
vt 0.9802682 0.5958157
v 9.256098E-11 0.4065967 -0.3397484
vt 0.9355818 0.5908948
vn 0 0.871582 -0.4899902
v 0.0474226 0.3700598 -0.3095721
vt 0.9778283 0.5720252
vn 0.8461914 0.2154541 -0.4870605
v 0.02940167 0.4097773 -0.3093712
vt 0.9492562 0.5663097
vn 0.625 0.5947266 -0.5048828
v -1.33092E-09 0.4489951 -0.2795885
vt 0.9168193 0.545348
vn 0 0.7416992 -0.6704102
vt 0.9766074 0.5476798
v 0.03630867 0.4281799 -0.2788751
vt 0.9446623 0.5420899
vn 0.6245117 0.5527344 -0.5507813
vt 0.9634628 0.4949523
v 0.04701053 0.483126 -0.2154139
vt 0.9261193 0.4881271
vn 0.6083984 0.5693359 -0.5517578
v 4.550989E-09 0.5116765 -0.2162227
vt 0.8894684 0.4916363
vn 0 0.7529297 -0.6577148
vt 0.9478666 0.4337903
v 0.055417 0.5417503 -0.1402572
vt 0.905324 0.4277889
vn 0.6289063 0.6494141 -0.4265137
v 3.070496E-09 0.5693352 -0.1401984
vt 0.8642662 0.4315669
vn 0 0.8354492 -0.5488281
vt 0.9343123 0.3749902
v 0.03370506 0.5996428 -0.06112868
vt 0.8702128 0.3709108
vn 0.5644531 0.7685547 -0.300293
v 5.638606E-10 0.6084042 -0.06043405
vt 0.8475096 0.3728104
vn 0 0.934082 -0.3562012
v 4.621014E-10 0.6236128 -0.0007112913
vt 0.84255 0.3307564
vn 0 0.9956055 -0.09326172
v 0.06416958 0.5918444 -0.0009367314
vt 0.889953 0.3306987
vn 0.6708984 0.7333984 -0.1044922
vt 0.9322026 0.3329184
vt 0.9312298 0.3017991
v 0.03393434 0.6133044 0.09009337
vt 0.866643 0.2698022
vn 0.4953613 0.8657227 0.06854248
v -2.548268E-09 0.6237866 0.09024543
vt 0.8432314 0.2684023
vn 0 0.9916992 0.1265869
v 0.0615612 0.5863211 0.1268897
vt 0.8924758 0.2458467
vn 0.7373047 0.6591797 0.1448975
vt 0.9318671 0.2442881
v 0.03043634 0.5946985 0.1582222
vt 0.873351 0.2232449
vn 0.3447266 0.8793945 0.3273926
v -2.620696E-09 0.5939406 0.1814552
vt 0.8574597 0.2035038
vn 0 0.8671875 0.4973145
v 0.05709625 0.5688912 0.1839511
vt 0.8984091 0.2072348
vn 0.5991211 0.6757813 0.4287109
vt 0.9341626 0.2010261
v -6.893917E-11 0.5411671 0.2583685
vt 0.8818973 0.1442879
vn 0 0.7836914 0.6206055
vt 0.9382185 0.1803797
v 0.04596929 0.5232454 0.2548289
vt 0.913147 0.1532224
vn 0.527832 0.6015625 0.5991211
vt 0.9425266 0.1625925
vt 0.9476035 0.1445101
v 5.60449E-09 0.5054818 0.2917383
vt 0.8978398 0.1155301
vn 0 0.5957031 0.8027344
vt 0.9530372 0.1271836
v 0.0320869 0.4293857 0.3297103
vt 0.9478737 0.08033383
vn 0.4265137 0.4094238 0.8061523
vt 0.9669473 0.09616816
v -5.141958E-08 0.430852 0.3369326
vt 0.9313186 0.06645679
vn 0 0.4250488 0.9047852
vt 0.9745159 0.08535963
v 0.02693784 0.382206 0.3433546
vt 0.9669964 0.05375671
vn 0.3728027 -0.03204346 0.9272461
v -3.129405E-08 0.3838849 0.3480661
vt 0.953195 0.04141539
vn 0 -0.9370117 0.3481445
v 0.05908083 0.376779 0.3226716
vt 0.9865055 0.07095671
vn 0.1600342 -0.9067383 0.3894043
vt 0.07942021 0.7632775
v -0.01583955 0.4030096 -0.5528052
vt 0.06840527 0.7345971
vn -0.9892578 0.05419922 -0.1346436
vt 0.1284428 0.7435535
vt 0.1296494 0.7320729
v -0.01449322 0.4173392 -0.452029
vt 0.07279432 0.6664004
vn -0.9692383 0.2402344 0.05081177
vt 0.09410799 0.6644215
v -0.01912573 0.3758853 -0.4521299
vt 0.04498327 0.6686124
vn -0.9985352 0.03567505 -0.02865601
v -0.0167772 0.3872012 -0.3655896
vt 0.04771042 0.6094497
vn -0.9277344 0.371582 0.02354431
vt 0.06309366 0.6075548
vt 0.0247407 0.6127769
v -0.02249808 0.3912884 -0.3397862
vt 0.04608679 0.5907518
vn -0.7758789 0.4763184 -0.4130859
vt 0.01973176 0.5958157
vt 0.0644182 0.5908948
v -0.0474226 0.3700598 -0.3095721
vt 0.02217174 0.5720252
vn -0.8461914 0.2154541 -0.4870605
v -0.02940167 0.4097773 -0.3093712
vt 0.05074382 0.5663097
vn -0.625 0.5947266 -0.5048828
vt 0.08318067 0.545348
vt 0.02339256 0.5476798
v -0.03630867 0.4281799 -0.2788751
vt 0.05533767 0.5420899
vn -0.6245117 0.5527344 -0.5507813
vt 0.03653717 0.4949523
v -0.04701053 0.483126 -0.2154139
vt 0.07388067 0.4881271
vn -0.6083984 0.5693359 -0.5517578
vt 0.1105316 0.4916363
vt 0.05213344 0.4337903
v -0.055417 0.5417503 -0.1402572
vt 0.09467602 0.4277889
vn -0.6289063 0.6494141 -0.4265137
vt 0.1357338 0.4315669
vt 0.06568766 0.3749902
v -0.03370506 0.5996428 -0.06112868
vt 0.1297872 0.3709108
vn -0.5644531 0.7685547 -0.300293
vt 0.1524904 0.3728104
vt 0.15745 0.3307564
v -0.06416958 0.5918444 -0.0009367314
vt 0.110047 0.3306987
vn -0.6708984 0.7333984 -0.1044922
vt 0.06779736 0.3329184
vt 0.06877017 0.3017991
v -0.03393434 0.6133044 0.09009337
vt 0.133357 0.2698022
vn -0.4953613 0.8657227 0.06854248
vt 0.1567686 0.2684023
v -0.0615612 0.5863211 0.1268897
vt 0.1075242 0.2458467
vn -0.7373047 0.6591797 0.1448975
vt 0.06813288 0.2442881
v -0.03043634 0.5946985 0.1582222
vt 0.126649 0.2232449
vn -0.3447266 0.8793945 0.3273926
vt 0.1425403 0.2035038
v -0.05709625 0.5688912 0.1839511
vt 0.1015909 0.2072348
vn -0.5991211 0.6757813 0.4287109
vt 0.06583738 0.2010261
vt 0.1181027 0.1442879
vt 0.06178153 0.1803797
v -0.04596929 0.5232454 0.2548289
vt 0.08685303 0.1532224
vn -0.527832 0.6015625 0.5991211
vt 0.05747336 0.1625925
vt 0.05239654 0.1445101
vt 0.1021602 0.1155301
vt 0.0469628 0.1271836
v -0.0320869 0.4293857 0.3297103
vt 0.05212635 0.08033383
vn -0.4265137 0.4094238 0.8061523
vt 0.03305274 0.09616816
vt 0.06868142 0.06645679
vt 0.02548409 0.08535963
v -0.02693784 0.382206 0.3433546
vt 0.03300357 0.05375671
vn -0.3728027 -0.03204346 0.9272461
vt 0.04680502 0.04141539
v -0.05908083 0.376779 0.3226716
vt 0.01349449 0.07095671
vn -0.1600342 -0.9067383 0.3894043
vt 0.5878872 0.3774147
vt 0.5928219 0.375643
vt 0.5831676 0.4178309
v 0.07526623 0.3516725 0.2060513
vt 0.5465094 0.4303133
vn -0.001968384 -0.9731445 0.2293701
v 0.1072015 0.3649145 0.2682177
vt 0.5639416 0.4681419
vn 0.7011719 -0.5053711 0.5019531
vt 0.5530431 0.345614
vt 0.5359772 0.5036139
vt 0.5163161 0.5165268
vt 0.5 0.5197914
v -0.07526623 0.3516725 0.2060513
vt 0.4534906 0.4303133
vn 0.002252579 -0.9736328 0.2271729
v 4.116868E-32 0.3124558 0.0488059
vt 0.5 0.3303892
vn -0.002941132 -0.9824219 0.1861572
vt 0.4469569 0.345614
vt 0.4121128 0.3774147
vt 0.4836839 0.5165268
vt 0.4640228 0.5036139
v -0.1072015 0.3649145 0.2682177
vt 0.4360584 0.4681419
vn -0.7011719 -0.5053711 0.5019531
vt 0.4168324 0.4178309
vt 0.4071781 0.375643
vt 0.6782266 0.1077147
vt 0.6616517 0.162201
vt 0.6389751 0.1611773
v 0.01860888 0.2884169 -0.4520659
vt 0.6226492 0.1050383
vn 0.9936523 -0.1079102 -0.02500916
vt 0.6241215 0.1603498
vt 0.6985313 0.04461873
vt 0.609421 0.1608642
v -5.889889E-10 0.2389164 -0.4517865
vt 0.5891896 0.1035953
vn 0 -0.9458008 0.3244629
v -3.938914E-10 0.2952523 -0.5938645
vt 0.6312649 0.01514131
vn 0 -0.2578125 -0.9658203
vt 0.7072751 0.0170188
v -2.180676E-09 0.195862 -0.5624444
vt 0.5670505 0.03134894
vn 0 -0.4104004 -0.9116211
v 0.01283803 0.2464782 -0.5119492
vt 0.5978299 0.0654484
vn 0.9902344 -0.1173096 -0.07415771
v -1.060655E-10 0.1916826 -0.5460718
vt 0.5635851 0.04130471
vn 0 -0.9746094 0.2235107
vt 0.5751618 0.7928401
vt 0.5693747 0.8652253
vt 0.5364739 0.7892355
v 0.05734725 0.1884781 0.2314319
vt 0.5346288 0.8644292
vn 0.270752 -0.9291992 0.2507324
vt 0.5646818 0.9015061
vt 0.5 0.7883656
v 0.05556731 0.2119945 0.287713
vt 0.5338117 0.9011821
vn 0.2841797 -0.8569336 0.4294434
vt 0.5586549 0.9400749
v -1.101839E-09 0.1819629 0.2335494
vt 0.5 0.864367
vn 0 -0.9697266 0.2438965
v 0.05311695 0.247206 0.345946
vt 0.5325485 0.9423711
vn 0.1640625 -0.7885742 0.5922852
vt 0.5510302 0.9654766
vt 0.5 0.9859563
v 3.636559E-09 0.2030436 0.2924177
vt 0.5 0.9016431
vn 0 -0.8754883 0.4829102
v -0.05311695 0.247206 0.345946
vt 0.4674515 0.9423711
vn -0.1640625 -0.7885742 0.5922852
vt 0.4489698 0.9654766
vt 0.4413451 0.9400749
v -0.05556731 0.2119945 0.287713
vt 0.4661883 0.9011821
vn -0.2841797 -0.8569336 0.4294434
vt 0.4353182 0.9015061
v -0.05734725 0.1884781 0.2314319
vt 0.4653712 0.8644292
vn -0.270752 -0.9291992 0.2507324
vt 0.4306253 0.8652253
vt 0.4635261 0.7892355
vt 0.4248382 0.7928401
vt 0.3610249 0.1611773
vt 0.3383483 0.162201
vt 0.3217734 0.1077147
v -0.01860888 0.2884169 -0.4520659
vt 0.3773508 0.1050383
vn -0.9936523 -0.1079102 -0.02500916
vt 0.3758785 0.1603498
vt 0.3014687 0.04461873
vt 0.4108104 0.1035953
vt 0.390579 0.1608642
vt 0.3687351 0.01514131
vt 0.2927249 0.0170188
vt 0.4329495 0.03134894
v -0.01283803 0.2464782 -0.5119492
vt 0.4021701 0.0654484
vn -0.9902344 -0.1173096 -0.07415771
vt 0.4364149 0.04130471
vt 0.674046 0.2276724
vt 0.6704323 0.221301
v 0.06387689 0.4104084 0.2984228
vt 0.6794174 0.2289349
vn 0.251709 0.8505859 0.4614258
v 0.07226628 0.4141189 0.2870654
vt 0.6878192 0.2312601
vn 0.1414795 0.8901367 0.4321289
v 0.08907047 0.4200135 0.2694897
vt 0.7032139 0.2306286
vn 0.8383789 0.2817383 0.4655762
v 0.08433355 0.4233982 0.2667794
vt 0.7016195 0.2372245
vn 0.2634277 0.7998047 0.5385742
v 0.09213335 0.4341572 0.2474219
vt 0.7142646 0.24419
vn -0.2346191 0.8300781 0.5053711
vt 0.6649979 0.2056226
vt 0.7075847 0.1951665
v 0.09898788 0.4455274 0.2323282
vt 0.7265335 0.2466739
vn 0.8813477 0.2836914 0.3774414
v 0.09478042 0.4459557 0.2331158
vt 0.7231392 0.2511536
vn 0.1994629 0.7001953 0.6850586
v 0.09493817 0.4602297 0.2202109
vt 0.7309816 0.2592891
vn 0.07165527 0.6416016 0.7631836
v 0.1272717 0.4185813 0.1830803
vt 0.7604326 0.2242503
vn 0.9301758 0.2592773 0.2580566
v 0.09664281 0.4752082 0.2075285
vt 0.7411966 0.2645073
vn 0.8652344 0.3535156 0.3544922
v 0.09209184 0.4747636 0.2099457
vt 0.7369159 0.2676142
vn 0.3505859 0.5463867 0.7602539
v 0.08733647 0.4917442 0.201273
vt 0.7421838 0.2772589
vn 0.2790527 0.4672852 0.8383789
v 0.09308584 0.4932836 0.1985704
vt 0.7467529 0.2744919
vn 0.878418 0.3845215 0.2824707
v 0.08351374 0.5038314 0.196
vt 0.7453708 0.2840151
vn 0.2277832 0.4206543 0.8779297
vt 0.7473682 0.2888899
vt 0.7533322 0.2909068
vt 0.7896928 0.2996696
vt 0.7931104 0.2644901
vt 0.8018557 0.1871988
vt 0.779636 0.1517666
vt 0.8015585 0.1789912
v 0.1427178 0.3451195 0.1802998
vt 0.7629497 0.1791903
vn 0.9487305 0.09899902 0.3000488
vt 0.7570034 0.1756814
vt 0.3295677 0.221301
vt 0.325954 0.2276724
v -0.06387689 0.4104084 0.2984228
vt 0.3205827 0.2289349
vn -0.251709 0.8505859 0.4614258
v -0.07226628 0.4141189 0.2870654
vt 0.3121808 0.2312601
vn -0.1414795 0.8901367 0.4321289
v -0.08907047 0.4200135 0.2694897
vt 0.2967861 0.2306286
vn -0.8383789 0.2817383 0.4655762
v -0.08433355 0.4233982 0.2667794
vt 0.2983805 0.2372245
vn -0.2634277 0.7998047 0.5385742
v -0.09213335 0.4341572 0.2474219
vt 0.2857354 0.24419
vn 0.2346191 0.8300781 0.5053711
vt 0.2924153 0.1951665
vt 0.3350021 0.2056226
v -0.09898788 0.4455274 0.2323282
vt 0.2734665 0.2466739
vn -0.8813477 0.2836914 0.3774414
v -0.09478042 0.4459557 0.2331158
vt 0.2768609 0.2511536
vn -0.1994629 0.7001953 0.6850586
v -0.09493817 0.4602297 0.2202109
vt 0.2690184 0.2592891
vn -0.07165527 0.6416016 0.7631836
v -0.1272717 0.4185813 0.1830803
vt 0.2395674 0.2242502
vn -0.9301758 0.2592773 0.2580566
v -0.09664281 0.4752082 0.2075285
vt 0.2588034 0.2645073
vn -0.8652344 0.3535156 0.3544922
v -0.09209184 0.4747636 0.2099457
vt 0.2630841 0.2676142
vn -0.3505859 0.5463867 0.7602539
v -0.08733647 0.4917442 0.201273
vt 0.2578162 0.2772589
vn -0.2790527 0.4672852 0.8383789
v -0.09308584 0.4932836 0.1985704
vt 0.2532472 0.2744919
vn -0.878418 0.3845215 0.2824707
v -0.08351374 0.5038314 0.196
vt 0.2546292 0.2840151
vn -0.2277832 0.4206543 0.8779297
vt 0.2526318 0.2888899
vt 0.2466678 0.2909068
vt 0.2103073 0.2996696
vt 0.2068896 0.2644901
vt 0.1981443 0.1871988
vt 0.1984415 0.1789912
vt 0.220364 0.1517667
v -0.1427178 0.3451195 0.1802998
vt 0.2370503 0.1791904
vn -0.9487305 0.09899902 0.3000488
vt 0.2429966 0.1756814
vt 0.5451518 0.08250326
v 0.08517803 0.3373057 0.1455026
vt 0.5341974 0.08032334
vn 0.2336426 0.9453125 -0.2254639
vt 0.5389778 0.03943187
vt 0.522266 0.01758546
vt 0.5430033 0.09796304
v 0 0.3615095 0.2036017
vt 0.5 0.05216479
vn 0 0.9892578 -0.1455078
vt 0.5 0.01210159
vt 0.477734 0.0175854
v 3.74635E-32 0.3308672 0.09498264
vt 0.5 0.1038087
vn 0 0.9414063 -0.3369141
vt 0.5353834 0.1131465
vt 0.5 0.1244363
vt 0.4646166 0.1131465
vt 0.4569967 0.09796309
v 2.552458E-32 0.340582 0.1214411
vt 0.5 0.0909248
vn 0 0.9604492 -0.277832
v -0.08517803 0.3373057 0.1455026
vt 0.4658026 0.08032334
vn -0.2336426 0.9453125 -0.2254639
vt 0.4610222 0.03943181
vt 0.4548482 0.08250332
o pm0550_12_00_body_mesh_shape_lod1_body_00
g polygon_0
usemtl body_00
f 35/35/33 36/36/34 37/37/35
f 38/38/36 39/39/37 40/40/38
f 41/41/39 42/42/40 43/43/41
f 42/42/40 44/44/42 43/43/41
f 44/44/42 45/45/43 46/46/44
f 46/46/44 45/45/43 47/47/45
f 45/45/43 48/48/46 47/47/45
f 47/47/45 48/48/46 49/49/47
f 45/45/43 50/50/48 48/48/46
f 48/48/46 51/51/49 49/49/47
f 48/48/46 50/50/48 52/52/50
f 48/48/46 52/52/50 51/51/49
f 51/51/49 52/52/50 53/53/51
f 53/53/51 54/54/52 51/51/49
f 53/53/51 55/55/53 54/54/52
f 56/56/54 55/55/53 53/53/51
f 57/57/55 58/58/56 59/59/57
f 59/59/57 60/60/58 57/57/55
f 61/61/59 60/60/58 62/62/60
f 61/61/59 62/62/60 63/63/61
f 61/61/59 63/63/61 64/64/62
f 64/64/62 63/63/61 65/65/63
f 64/64/62 66/66/64 61/61/59
f 65/65/63 67/67/65 64/64/62
f 68/68/66 66/66/64 64/64/62
f 67/67/65 68/68/66 64/64/62
f 69/69/67 68/68/66 67/67/65
f 67/67/65 70/70/68 69/69/67
f 70/70/68 71/71/69 69/69/67
f 69/69/67 71/71/69 72/72/70
f 73/73/71 74/74/72 75/75/73
f 75/75/73 74/74/72 76/76/74
f 77/77/75 75/75/73 76/76/74
f 78/78/76 77/77/75 76/76/74
f 79/79/77 77/77/75 78/78/76
f 80/80/78 78/78/76 76/76/74
f 81/81/79 78/78/76 80/80/78
f 82/82/80 81/81/79 80/80/78
f 82/82/80 80/80/78 83/83/81
f 84/84/82 82/82/80 83/83/81
f 85/85/83 81/81/79 82/82/80
f 86/86/84 81/81/79 85/85/83
f 87/87/85 82/82/80 84/84/82
f 82/82/80 87/87/85 85/85/83
f 85/85/83 88/88/86 86/86/84
f 89/89/87 87/87/85 84/84/82
f 85/85/83 87/87/85 89/89/87
f 90/90/88 89/89/87 84/84/82
f 91/91/89 88/88/86 85/85/83
f 85/85/83 89/89/87 91/91/89
f 92/92/90 88/88/86 91/91/89
f 91/91/89 89/89/87 92/92/90
f 92/92/90 93/93/91 88/88/86
f 92/92/90 94/94/92 93/93/91
f 90/90/88 95/95/93 89/89/87
f 92/92/90 89/89/87 95/95/93
f 96/96/94 95/95/93 90/90/88
f 97/97/95 94/94/92 92/92/90
f 92/92/90 95/95/93 97/97/95
f 98/98/96 94/94/92 97/97/95
f 99/99/97 98/98/96 97/97/95
f 97/97/95 100/100/98 99/99/97
f 96/96/94 101/101/99 95/95/93
f 97/97/95 95/95/93 101/101/99
f 101/101/99 100/100/98 97/97/95
f 102/102/100 101/101/99 96/96/94
f 102/102/100 100/100/98 101/101/99
f 103/103/101 100/100/98 102/102/100
f 104/104/102 103/103/101 102/102/100
f 105/105/103 103/103/101 104/104/102
f 102/102/100 106/106/104 104/104/102
f 106/106/104 102/102/100 107/107/105
f 104/104/102 108/108/106 105/105/103
f 106/106/104 108/108/106 104/104/102
f 105/105/103 108/108/106 109/109/107
f 110/110/108 109/109/107 108/108/106
f 106/106/104 107/107/105 111/111/109
f 106/106/104 111/111/109 108/108/106
f 111/111/109 107/107/105 112/112/110
f 110/110/108 108/108/106 113/113/111
f 108/108/106 111/111/109 113/113/111
f 112/112/110 114/114/112 111/111/109
f 113/113/111 36/115/34 110/110/108
f 110/110/108 36/115/34 115/116/113
f 116/117/114 36/115/34 113/113/111
f 113/113/111 111/111/109 116/117/114
f 111/111/109 117/118/115 116/117/114
f 111/111/109 114/114/112 117/118/115
f 116/117/114 117/118/115 118/119/116
f 118/119/116 117/118/115 119/120/117
f 117/118/115 120/121/118 119/120/117
f 117/118/115 121/122/119 120/121/118
f 114/114/112 121/122/119 117/118/115
f 121/122/119 114/114/112 122/123/120
f 122/123/120 114/114/112 123/124/121
f 122/123/120 123/124/121 124/125/122
f 124/125/122 123/124/121 125/126/123
f 125/126/123 126/127/124 124/125/122
f 127/128/125 126/127/124 125/126/123
f 126/127/124 127/128/125 128/129/126
f 129/130/127 130/131/128 131/132/129
f 130/131/128 132/133/130 131/132/129
f 133/134/131 131/132/129 132/133/130
f 132/133/130 134/135/132 133/134/131
f 135/136/133 133/134/131 134/135/132
f 134/135/132 132/133/130 136/137/134
f 136/137/134 132/133/130 137/138/135
f 138/139/136 136/137/134 137/138/135
f 135/136/133 134/135/132 139/140/137
f 140/141/138 136/137/134 138/139/136
f 140/141/138 134/135/132 136/137/134
f 139/140/137 134/135/132 140/141/138
f 141/142/139 140/141/138 138/139/136
f 141/142/139 100/143/98 140/141/138
f 140/141/138 100/143/98 103/144/101
f 139/140/137 142/145/140 135/136/133
f 140/141/138 142/145/140 139/140/137
f 103/144/101 142/145/140 140/141/138
f 142/145/140 143/146/141 135/136/133
f 103/144/101 105/147/103 142/145/140
f 142/145/140 110/148/108 143/146/141
f 105/147/103 109/149/107 142/145/140
f 109/149/107 110/148/108 142/145/140
f 144/150/142 145/151/143 146/152/144
f 145/151/143 147/153/145 146/152/144
f 146/152/144 147/153/145 148/154/146
f 149/155/147 148/154/146 147/153/145
f 150/156/148 148/154/146 149/155/147
f 151/157/149 150/156/148 149/155/147
f 152/158/150 150/156/148 151/157/149
f 151/157/149 153/159/151 152/158/150
f 152/158/150 153/159/151 154/160/152
f 155/161/153 154/160/152 153/159/151
f 155/161/153 153/159/151 156/162/154
f 156/162/154 153/159/151 157/163/155
f 153/159/151 151/157/149 158/164/156
f 157/163/155 153/159/151 158/164/156
f 158/164/156 151/157/149 159/165/157
f 160/166/158 158/164/156 159/165/157
f 157/163/155 158/164/156 161/167/159
f 157/163/155 161/167/159 39/168/37
f 162/169/160 158/164/156 160/166/158
f 39/168/37 161/167/159 163/170/161
f 39/168/37 163/170/161 164/171/162
f 165/172/163 162/169/160 160/166/158
f 161/167/159 166/173/164 163/170/161
f 161/167/159 158/164/156 166/173/164
f 166/173/164 158/164/156 162/169/160
f 166/173/164 167/174/165 163/170/161
f 167/174/165 166/173/164 168/175/166
f 162/169/160 169/176/167 166/173/164
f 168/175/166 166/173/164 169/176/167
f 162/169/160 165/172/163 169/176/167
f 168/175/166 169/176/167 170/177/168
f 170/177/168 169/176/167 165/172/163
f 170/177/168 165/172/163 171/178/169
f 171/178/169 165/172/163 172/179/170
f 165/172/163 173/180/171 172/179/170
f 174/181/172 171/178/169 172/179/170
f 175/182/173 171/178/169 174/181/172
f 174/181/172 98/183/96 175/182/173
f 98/183/96 174/181/172 94/184/92
f 172/179/170 173/180/171 176/185/174
f 176/185/174 174/181/172 172/179/170
f 173/180/171 177/186/175 176/185/174
f 174/181/172 178/187/176 94/184/92
f 178/187/176 174/181/172 176/185/174
f 94/184/92 178/187/176 93/188/91
f 93/188/91 178/187/176 88/189/86
f 176/185/174 177/186/175 179/190/177
f 179/190/177 178/187/176 176/185/174
f 180/191/178 179/190/177 177/186/175
f 178/187/176 181/192/179 88/189/86
f 181/192/179 178/187/176 179/190/177
f 181/192/179 182/193/180 88/189/86
f 182/193/180 181/192/179 179/190/177
f 88/189/86 182/193/180 86/194/84
f 182/193/180 81/195/79 86/194/84
f 180/191/178 183/196/181 179/190/177
f 183/196/181 182/193/180 179/190/177
f 180/191/178 184/197/182 183/196/181
f 183/196/181 184/197/182 182/193/180
f 184/197/182 81/195/79 182/193/180
f 185/198/183 184/197/182 180/191/178
f 184/197/182 185/198/183 186/199/184
f 81/195/79 184/197/182 186/199/184
f 81/195/79 186/199/184 78/200/76
f 78/200/76 186/199/184 187/201/185
f 79/202/77 78/200/76 188/203/186
f 188/203/186 78/200/76 187/201/185
f 188/203/186 187/201/185 189/204/187
f 187/201/185 190/205/188 189/204/187
f 189/204/187 190/205/188 191/206/189
f 192/207/190 130/208/128 129/209/127
f 192/207/190 193/210/191 130/208/128
f 192/207/190 194/211/192 193/210/191
f 193/210/191 194/211/192 195/212/193
f 194/211/192 196/213/194 195/212/193
f 195/212/193 197/214/195 193/210/191
f 197/214/195 198/215/196 193/210/191
f 197/214/195 199/216/197 198/215/196
f 196/213/194 200/217/198 195/212/193
f 201/218/199 199/216/197 197/214/195
f 195/212/193 201/218/199 197/214/195
f 200/217/198 201/218/199 195/212/193
f 201/218/199 202/219/200 199/216/197
f 201/218/199 171/220/169 202/219/200
f 170/221/168 171/220/169 201/218/199
f 196/213/194 203/222/201 200/217/198
f 203/222/201 201/218/199 200/217/198
f 170/221/168 201/218/199 203/222/201
f 196/213/194 204/223/202 203/222/201
f 168/224/166 170/221/168 203/222/201
f 204/223/202 163/225/161 203/222/201
f 168/224/166 203/222/201 167/226/165
f 203/222/201 163/225/161 167/226/165
f 205/227/203 206/228/204 115/229/113
f 207/230/205 115/229/113 206/228/204
f 207/230/205 143/231/141 115/229/113
f 115/229/113 143/231/141 110/232/108
f 207/230/205 208/233/206 143/231/141
f 135/234/133 143/231/141 208/233/206
f 208/233/206 209/235/207 135/234/133
f 209/235/207 133/236/131 135/234/133
f 133/236/131 209/235/207 131/237/129
f 209/235/207 129/238/127 131/237/129
f 209/235/207 210/239/208 129/238/127
f 210/239/208 211/240/209 129/238/127
f 211/240/209 192/241/190 129/238/127
f 192/241/190 211/240/209 194/242/192
f 211/240/209 196/243/194 194/242/192
f 211/240/209 212/244/210 196/243/194
f 212/244/210 204/245/202 196/243/194
f 212/244/210 213/246/211 204/245/202
f 213/246/211 164/247/162 204/245/202
f 204/245/202 164/247/162 163/248/161
f 214/249/212 164/247/162 213/246/211
f 215/250/213 164/247/162 214/249/212
f 216/251/214 217/252/215 218/253/216
f 216/251/214 219/254/217 217/252/215
f 219/254/217 220/255/218 217/252/215
f 217/252/215 220/255/218 221/256/219
f 220/255/218 219/254/217 222/257/220
f 220/255/218 223/258/221 221/256/219
f 222/257/220 223/258/221 220/255/218
f 73/259/71 221/256/219 223/258/221
f 222/257/220 224/260/222 223/258/221
f 225/261/223 73/259/71 223/258/221
f 224/260/222 225/261/223 223/258/221
f 74/262/72 73/259/71 225/261/223
f 226/263/224 225/261/223 224/260/222
f 74/262/72 225/261/223 227/264/225
f 225/261/223 226/263/224 228/265/226
f 227/264/225 225/261/223 228/265/226
f 228/265/226 226/263/224 229/266/227
f 227/264/225 228/265/226 128/267/126
f 128/267/126 228/265/226 230/268/228
f 228/265/226 229/266/227 230/268/228
f 128/267/126 230/268/228 126/269/124
f 229/266/227 231/270/229 230/268/228
f 126/269/124 230/268/228 231/270/229
f 232/271/230 231/270/229 229/266/227
f 126/269/124 231/270/229 124/272/122
f 232/271/230 233/273/231 231/270/229
f 124/272/122 231/270/229 233/273/231
f 234/274/232 233/273/231 232/271/230
f 233/273/231 122/275/120 124/272/122
f 233/273/231 234/274/232 235/276/233
f 235/276/233 122/275/120 233/273/231
f 235/276/233 234/274/232 236/277/234
f 235/276/233 236/277/234 237/278/235
f 235/276/233 238/279/236 122/275/120
f 237/278/235 238/279/236 235/276/233
f 238/279/236 121/280/119 122/275/120
f 121/280/119 238/279/236 120/281/118
f 239/282/237 238/279/236 237/278/235
f 237/278/235 240/283/238 239/282/237
f 241/284/239 120/281/118 238/279/236
f 241/284/239 238/279/236 239/282/237
f 119/285/117 120/281/118 241/284/239
f 239/282/237 240/283/238 242/286/240
f 242/286/240 241/284/239 239/282/237
f 240/283/238 243/287/241 242/286/240
f 244/288/242 119/285/117 241/284/239
f 244/288/242 241/284/239 242/286/240
f 244/288/242 242/286/240 243/287/241
f 42/289/40 119/285/117 244/288/242
f 243/287/241 245/290/243 244/288/242
f 42/289/40 244/288/242 44/291/42
f 245/290/243 246/292/244 244/288/242
f 246/292/244 44/291/42 244/288/242
f 45/293/43 44/291/42 246/292/244
f 246/292/244 50/294/48 45/293/43
f 245/290/243 247/295/245 246/292/244
f 52/296/50 50/294/48 246/292/244
f 246/292/244 247/295/245 248/297/246
f 246/292/244 248/297/246 52/296/50
f 248/297/246 53/298/51 52/296/50
f 247/295/245 249/299/247 248/297/246
f 248/297/246 56/300/54 53/298/51
f 249/299/247 250/301/248 248/297/246
f 250/301/248 56/300/54 248/297/246
f 249/299/247 251/302/249 250/301/248
f 250/301/248 252/303/250 56/300/54
f 218/304/216 253/305/251 216/306/214
f 253/305/251 219/307/217 216/306/214
f 219/307/217 253/305/251 254/308/252
f 254/308/252 222/309/220 219/307/217
f 254/308/252 253/305/251 255/310/253
f 222/309/220 254/308/252 256/311/254
f 254/308/252 255/310/253 256/311/254
f 224/312/222 222/309/220 256/311/254
f 191/313/189 256/311/254 255/310/253
f 256/311/254 257/314/255 224/312/222
f 256/311/254 191/313/189 257/314/255
f 257/314/255 191/313/189 190/315/188
f 224/312/222 257/314/255 226/316/224
f 190/315/188 258/317/256 257/314/255
f 257/314/255 259/318/257 226/316/224
f 257/314/255 258/317/256 259/318/257
f 226/316/224 259/318/257 229/319/227
f 258/317/256 144/320/142 259/318/257
f 259/318/257 144/320/142 260/321/258
f 259/318/257 260/321/258 229/319/227
f 144/320/142 146/322/144 260/321/258
f 260/321/258 261/323/259 229/319/227
f 261/323/259 260/321/258 146/322/144
f 229/319/227 261/323/259 232/324/230
f 148/325/146 261/323/259 146/322/144
f 261/323/259 262/326/260 232/324/230
f 262/326/260 261/323/259 148/325/146
f 232/324/230 262/326/260 234/327/232
f 148/325/146 150/328/148 262/326/260
f 262/326/260 263/329/261 234/327/232
f 263/329/261 262/326/260 150/328/148
f 234/327/232 263/329/261 236/330/234
f 263/329/261 237/331/235 236/330/234
f 264/332/262 263/329/261 150/328/148
f 237/331/235 263/329/261 264/332/262
f 264/332/262 150/328/148 152/333/150
f 152/333/150 154/334/152 264/332/262
f 264/332/262 265/335/263 237/331/235
f 237/331/235 265/335/263 240/336/238
f 154/334/152 266/337/264 264/332/262
f 266/337/264 265/335/263 264/332/262
f 155/338/153 266/337/264 154/334/152
f 267/339/265 240/336/238 265/335/263
f 266/337/264 267/339/265 265/335/263
f 267/339/265 243/340/241 240/336/238
f 268/341/266 266/337/264 155/338/153
f 267/339/265 266/337/264 268/341/266
f 268/341/266 243/340/241 267/339/265
f 57/342/55 268/341/266 155/338/153
f 243/340/241 268/341/266 245/343/243
f 57/342/55 60/344/58 268/341/266
f 268/341/266 269/345/267 245/343/243
f 268/341/266 60/344/58 269/345/267
f 269/345/267 60/344/58 61/346/59
f 269/345/267 61/346/59 66/347/64
f 245/343/243 269/345/267 247/348/245
f 68/349/66 269/345/267 66/347/64
f 247/348/245 269/345/267 270/350/268
f 270/350/268 269/345/267 68/349/66
f 270/350/268 68/349/66 69/351/67
f 270/350/268 249/352/247 247/348/245
f 270/350/268 69/351/67 72/353/70
f 271/354/269 249/352/247 270/350/268
f 72/353/70 271/354/269 270/350/268
f 249/352/247 271/354/269 251/355/249
f 72/353/70 272/356/270 271/354/269
f 115/357/113 36/358/34 35/359/33
f 273/360/271 115/357/113 35/359/33
f 273/360/271 35/359/33 274/361/272
f 273/360/271 205/362/203 115/357/113
f 273/360/271 274/361/272 252/363/250
f 250/364/248 251/365/249 252/363/250
f 252/363/250 251/365/249 273/360/271
f 275/366/273 205/362/203 273/360/271
f 273/360/271 251/365/249 275/366/273
f 205/362/203 275/366/273 276/367/274
f 276/367/274 275/366/273 215/368/213
f 164/369/162 215/368/213 275/366/273
f 271/370/269 272/371/270 251/365/249
f 251/365/249 272/371/270 275/366/273
f 277/372/275 275/366/273 272/371/270
f 275/366/273 277/372/275 40/373/38
f 275/366/273 40/373/38 164/369/162
f 40/373/38 39/374/37 164/369/162
f 221/375/219 73/376/71 75/377/73
f 278/378/276 221/375/219 75/377/73
f 77/379/75 278/378/276 75/377/73
f 278/378/276 217/380/215 221/375/219
f 79/381/77 279/382/277 77/379/75
f 279/382/277 278/378/276 77/379/75
f 217/380/215 280/383/278 218/384/216
f 281/385/279 280/383/278 217/380/215
f 279/382/277 282/386/280 278/378/276
f 282/386/280 217/380/215 278/378/276
f 217/380/215 282/386/280 281/385/279
f 283/387/281 282/386/280 279/382/277
f 283/387/281 281/385/279 282/386/280
f 100/388/98 141/389/139 99/390/97
f 99/390/97 141/389/139 284/391/282
f 141/389/139 138/392/136 284/391/282
f 284/391/282 98/393/96 99/390/97
f 284/391/282 138/392/136 285/394/283
f 138/392/136 137/395/135 285/394/283
f 286/396/284 98/393/96 284/391/282
f 285/394/283 286/396/284 284/391/282
f 285/394/283 137/395/135 287/397/285
f 137/395/135 132/398/130 287/397/285
f 132/398/130 130/399/128 287/397/285
f 287/397/285 288/400/286 285/394/283
f 130/399/128 288/400/286 287/397/285
f 288/400/286 286/396/284 285/394/283
f 289/401/287 288/400/286 130/399/128
f 130/399/128 193/402/191 289/401/287
f 289/401/287 193/402/191 198/403/196
f 290/404/288 288/400/286 289/401/287
f 198/403/196 290/404/288 289/401/287
f 288/400/286 290/404/288 286/396/284
f 199/405/197 290/404/288 198/403/196
f 286/396/284 290/404/288 291/406/289
f 290/404/288 199/405/197 291/406/289
f 286/396/284 291/406/289 98/393/96
f 291/406/289 199/405/197 202/407/200
f 98/393/96 291/406/289 175/408/173
f 291/406/289 202/407/200 175/408/173
f 175/408/173 202/407/200 171/409/169
f 189/410/187 191/411/189 255/412/253
f 189/410/187 255/412/253 292/413/290
f 292/413/290 188/414/186 189/410/187
f 255/412/253 253/415/251 292/413/290
f 279/416/277 79/417/77 188/414/186
f 279/416/277 188/414/186 292/413/290
f 280/418/278 253/415/251 218/419/216
f 253/415/251 280/418/278 281/420/279
f 293/421/291 279/416/277 292/413/290
f 292/413/290 253/415/251 293/421/291
f 293/421/291 253/415/251 281/420/279
f 283/422/281 279/416/277 293/421/291
f 293/421/291 281/420/279 283/422/281
f 55/423/53 56/424/54 294/425/292
f 294/425/292 56/424/54 295/426/293
f 56/424/54 296/427/294 295/426/293
f 295/426/293 296/427/294 297/428/295
f 296/427/294 298/429/296 297/428/295
f 252/430/250 274/431/272 56/424/54
f 296/427/294 56/424/54 274/431/272
f 299/432/297 298/429/296 296/427/294
f 300/433/298 298/429/296 299/432/297
f 300/433/298 299/432/297 301/434/299
f 296/427/294 274/431/272 302/435/300
f 302/435/300 299/432/297 296/427/294
f 299/432/297 303/436/301 301/434/299
f 303/436/301 299/432/297 302/435/300
f 303/436/301 304/437/302 301/434/299
f 303/436/301 305/438/303 304/437/302
f 306/439/304 305/438/303 303/436/301
f 306/439/304 303/436/301 302/435/300
f 306/439/304 307/440/305 305/438/303
f 306/439/304 41/441/39 307/440/305
f 42/442/40 41/441/39 306/439/304
f 42/442/40 306/439/304 119/443/117
f 118/444/116 119/443/117 306/439/304
f 118/444/116 306/439/304 302/435/300
f 302/435/300 116/445/114 118/444/116
f 116/445/114 37/446/35 36/447/34
f 308/448/306 116/445/114 302/435/300
f 37/446/35 116/445/114 308/448/306
f 308/448/306 302/435/300 274/431/272
f 35/449/33 37/446/35 308/448/306
f 35/449/33 308/448/306 274/431/272
f 72/450/70 71/451/69 309/452/307
f 310/453/308 72/450/70 309/452/307
f 72/450/70 310/453/308 311/454/309
f 311/454/309 310/453/308 312/455/310
f 311/454/309 312/455/310 313/456/311
f 277/457/275 272/458/270 72/450/70
f 277/457/275 72/450/70 311/454/309
f 313/456/311 314/459/312 311/454/309
f 315/460/313 314/459/312 313/456/311
f 316/461/314 314/459/312 315/460/313
f 277/457/275 311/454/309 317/462/315
f 311/454/309 314/459/312 317/462/315
f 318/463/316 314/459/312 316/461/314
f 317/462/315 314/459/312 318/463/316
f 316/461/314 319/464/317 318/463/316
f 319/464/317 320/465/318 318/463/316
f 318/463/316 320/465/318 321/466/319
f 317/462/315 318/463/316 321/466/319
f 320/465/318 322/467/320 321/466/319
f 322/467/320 58/468/56 321/466/319
f 321/466/319 58/468/56 57/469/55
f 155/470/153 321/466/319 57/469/55
f 156/471/154 321/466/319 155/470/153
f 156/471/154 317/462/315 321/466/319
f 317/462/315 156/471/154 157/472/155
f 39/473/37 38/474/36 157/472/155
f 317/462/315 157/472/155 323/475/321
f 38/474/36 323/475/321 157/472/155
f 323/475/321 277/457/275 317/462/315
f 38/474/36 40/476/38 323/475/321
f 40/476/38 277/457/275 323/475/321
f 207/477/205 324/478/322 208/479/206
f 208/479/206 324/478/322 209/480/207
f 206/481/204 324/478/322 207/477/205
f 209/480/207 324/478/322 325/482/323
f 209/480/207 325/482/323 210/483/208
f 210/483/208 325/482/323 211/484/209
f 206/481/204 326/485/324 324/478/322
f 205/486/203 326/485/324 206/481/204
f 276/487/274 326/485/324 205/486/203
f 276/487/274 215/488/213 326/485/324
f 326/485/324 215/488/213 214/489/212
f 325/482/323 324/478/322 327/490/325
f 324/478/322 326/485/324 327/490/325
f 327/490/325 328/491/326 325/482/323
f 326/485/324 328/491/326 327/490/325
f 325/482/323 328/491/326 211/484/209
f 214/489/212 328/491/326 326/485/324
f 211/484/209 328/491/326 212/492/210
f 213/493/211 328/491/326 214/489/212
f 212/492/210 328/491/326 213/493/211
v -0.1056335 0.3242619 0.2363744
vt 0.3349692 0.2948807
vn -0.1233521 -0.8989258 -0.420166
v -0.1182664 0.3562627 0.2194456
vt 0.3393753 0.3259338
vn -0.9287109 -0.3703613 -0.006965637
v -0.1114413 0.3562693 0.2167018
vt 0.3333583 0.3259351
vn 0.6069336 -0.3330078 -0.7211914
v -0.09691896 0.3642448 0.2503808
vt 0.3325946 0.2584418
vn 0.9257813 -0.2563477 0.2770996
v -0.1037441 0.3642382 0.2531247
vt 0.3386116 0.2584412
vn -0.4770508 -0.284668 0.8310547
v -0.1044517 0.3250993 0.2393163
vt 0.3349688 0.2921984
vn 0.2580566 -0.706543 0.6586914
v -0.08015191 0.3327181 0.27645
vt 0.3816921 0.2975023
vn -0.2467041 -0.887207 -0.3886719
v -0.09887164 0.3674187 0.2616493
vt 0.3853965 0.3238061
vn -0.8950195 -0.3972168 0.2006836
v -0.09281903 0.3674255 0.25703
vt 0.380594 0.3238064
vn 0.3820801 -0.3408203 -0.8583984
v -0.06829049 0.3776101 0.2891845
vt 0.3805923 0.2661952
vn 0.9731445 -0.2259521 0.03521729
v -0.0743431 0.3776033 0.2938038
vt 0.3853949 0.2661951
vn -0.2561035 -0.2866211 0.9228516
v -0.07815566 0.333547 0.2790669
vt 0.3816921 0.2953614
vn 0.4504395 -0.6733398 0.5854492
v -0.06843925 0.3775659 0.2996046
vt 0.3621029 0.3381428
vn -0.890625 -0.298584 0.3422852
v -0.06349176 0.3775727 0.2938043
vt 0.3562553 0.3381428
vn 0.230957 -0.3613281 -0.9033203
v -0.04908905 0.3363552 0.3139794
vt 0.3608872 0.3015432
vn -0.4094238 -0.8496094 -0.3310547
v -0.04658335 0.3371912 0.3161177
vt 0.3608873 0.2989365
vn 0.5888672 -0.6254883 0.5112305
v -0.03270344 0.3878453 0.320078
vt 0.3562577 0.2588038
vn 0.9477539 -0.2438965 -0.2032471
v -0.03765092 0.3878385 0.3258783
vt 0.3621053 0.2588041
vn -0.04095459 -0.1820068 0.9824219
v -0.1037746 0.3480327 0.2464116
vt 0.4833324 0.6863261
vn -0.4592285 0.5546875 0.6933594
v -0.09829273 0.3444805 0.2451688
vt 0.4786316 0.6863246
vn 0.996582 0.07775879 -0.01225281
v -0.1016085 0.3829946 0.2198654
vt 0.4917768 0.6564268
vn 0.4853516 0.8051758 0.3400879
v -0.1027254 0.3821895 0.2172403
vt 0.4917779 0.6543314
vn 0.04718018 0.4882813 -0.8710938
v -0.1120158 0.3345879 0.2129145
vt 0.4786564 0.6225102
vn 0.6904297 -0.06933594 -0.7197266
v -0.1174978 0.3381401 0.2141573
vt 0.4833565 0.622512
vn -0.8398438 0.3127441 -0.4428711
v -0.08018382 0.3602314 0.284458
vt 0.4538474 0.6849616
vn -0.2288818 0.6044922 0.7626953
v -0.07521892 0.3562554 0.2823009
vt 0.4491383 0.6849635
vn 0.9707031 0.08129883 -0.2242432
v -0.08475264 0.3953881 0.2552197
vt 0.4642125 0.6544563
vn 0.5898438 0.7875977 0.1755371
v -0.08638957 0.3947059 0.2528298
vt 0.464239 0.6523696
vn -0.09234619 0.4072266 -0.9082031
v -0.09533226 0.347873 0.2529354
vt 0.4494369 0.6223971
vn 0.6069336 -0.1176758 -0.7856445
v -0.09907761 0.351849 0.2551097
vt 0.4535306 0.6228762
vn -0.9443359 0.2697754 -0.1861572
v -0.04392703 0.3720582 0.3164915
vt 0.4826831 0.3004935
vn -0.1768799 0.5371094 0.8242188
v -0.0397994 0.3680415 0.3128227
vt 0.4778777 0.3004931
vn 0.8759766 -0.01197815 -0.4819336
v -0.05101496 0.408162 0.2914476
vt 0.4911766 0.2703471
vn 0.7143555 0.6992188 -0.01169586
v -0.05295499 0.4074233 0.2892801
vt 0.4908767 0.2682564
vn -0.2351074 0.4667969 -0.8520508
v -0.06776464 0.3629818 0.2898574
vt 0.4789591 0.237519
vn 0.2216797 -0.08648682 -0.9711914
v -0.07189228 0.3622939 0.2935263
vt 0.4818563 0.2348842
vn -0.862793 0.3920898 0.3181152
v 0.05295499 0.4074233 0.2892801
vt 0.5091233 0.2682564
vn 0.2351074 0.4667969 -0.8520508
v 0.07189228 0.3622939 0.2935263
vt 0.5181437 0.2348842
vn 0.862793 0.3920898 0.3181152
v 0.06776464 0.3629818 0.2898574
vt 0.5210409 0.237519
vn -0.2216797 -0.08648682 -0.9711914
v 0.05101496 0.408162 0.2914476
vt 0.5088234 0.2703471
vn -0.7143555 0.6992188 -0.01169586
v 0.0397994 0.3680415 0.3128227
vt 0.5221223 0.3004931
vn -0.8759766 -0.01197815 -0.4819336
v 0.04392703 0.3720582 0.3164915
vt 0.5173169 0.3004935
vn 0.1768799 0.5371094 0.8242188
v 0.08638957 0.3947059 0.2528298
vt 0.535761 0.6523696
vn 0.09234619 0.4072266 -0.9082031
v 0.09907761 0.351849 0.2551097
vt 0.5464694 0.6228762
vn 0.9443359 0.2697754 -0.1861572
v 0.09533226 0.347873 0.2529354
vt 0.5505631 0.6223971
vn -0.6069336 -0.1176758 -0.7856445
v 0.08475264 0.3953881 0.2552197
vt 0.5357875 0.6544563
vn -0.5898438 0.7875977 0.1755371
v 0.07521892 0.3562554 0.2823009
vt 0.5508617 0.6849635
vn -0.9707031 0.08129883 -0.2242432
v 0.08018382 0.3602314 0.284458
vt 0.5461526 0.6849616
vn 0.2288818 0.6044922 0.7626953
v 0.1027254 0.3821895 0.2172403
vt 0.5082221 0.6543314
vn -0.04718018 0.4882813 -0.8710938
v 0.1174978 0.3381401 0.2141573
vt 0.5166435 0.622512
vn 0.8398438 0.3127441 -0.4428711
v 0.1120158 0.3345879 0.2129145
vt 0.5213436 0.6225102
vn -0.6904297 -0.06933594 -0.7197266
v 0.1016085 0.3829946 0.2198654
vt 0.5082232 0.6564268
vn -0.4853516 0.8051758 0.3400879
v 0.09829273 0.3444805 0.2451688
vt 0.5213684 0.6863246
vn -0.996582 0.07775879 -0.01225281
v 0.1037746 0.3480327 0.2464116
vt 0.5166676 0.6863261
vn 0.4592285 0.5546875 0.6933594
v 0.04658335 0.3371912 0.3161177
vt 0.6391127 0.2989365
vn -0.5888672 -0.6254883 0.5112305
v 0.03765092 0.3878385 0.3258783
vt 0.6378947 0.2588041
vn 0.04095459 -0.1820068 0.9824219
v 0.03270344 0.3878453 0.320078
vt 0.6437423 0.2588038
vn -0.9477539 -0.2438965 -0.2032471
v 0.04908905 0.3363552 0.3139794
vt 0.6391128 0.3015432
vn 0.4094238 -0.8496094 -0.3310547
v 0.06349176 0.3775727 0.2938043
vt 0.6437447 0.3381428
vn -0.230957 -0.3613281 -0.9033203
v 0.06843925 0.3775659 0.2996046
vt 0.6378971 0.3381428
vn 0.890625 -0.298584 0.3422852
v 0.07815566 0.333547 0.2790669
vt 0.6183079 0.2953614
vn -0.4504395 -0.6733398 0.5854492
v 0.0743431 0.3776033 0.2938038
vt 0.6146051 0.2661951
vn 0.2561035 -0.2866211 0.9228516
v 0.06829049 0.3776101 0.2891845
vt 0.6194077 0.2661952
vn -0.9731445 -0.2259521 0.03521729
v 0.08015191 0.3327181 0.27645
vt 0.6183079 0.2975023
vn 0.2467041 -0.887207 -0.3886719
v 0.09281903 0.3674255 0.25703
vt 0.619406 0.3238064
vn -0.3820801 -0.3408203 -0.8583984
v 0.09887164 0.3674187 0.2616493
vt 0.6146035 0.3238061
vn 0.8950195 -0.3972168 0.2006836
v 0.1044517 0.3250993 0.2393163
vt 0.6650312 0.2921984
vn -0.2580566 -0.706543 0.6586914
v 0.1037441 0.3642382 0.2531247
vt 0.6613884 0.2584412
vn 0.4770508 -0.284668 0.8310547
v 0.09691896 0.3642448 0.2503808
vt 0.6674054 0.2584418
vn -0.9257813 -0.2563477 0.2770996
v 0.1056335 0.3242619 0.2363744
vt 0.6650308 0.2948807
vn 0.1233521 -0.8989258 -0.420166
v 0.1114413 0.3562693 0.2167018
vt 0.6666417 0.3259351
vn -0.6069336 -0.3330078 -0.7211914
v 0.1182664 0.3562627 0.2194456
vt 0.6606247 0.3259338
vn 0.9287109 -0.3703613 -0.006965637
vt 0.1470783 0.1382129
vt 0.1338254 0.1142836
v -0.1007675 0.3614171 0.233404
vt 0.1482525 0.1112334
vn 0.9262695 -0.1428223 -0.3483887
vt 0.1494369 0.1377717
vt 0.1609176 0.1103135
vt 0.1478222 0.08545333
vt 0.13646 0.05835831
v -0.1128574 0.3614039 0.238181
vt 0.1489891 0.05909014
vn -0.8803711 -0.1860352 0.4353027
vt 0.1501415 0.08587819
vt 0.1629717 0.06196225
vt 0.1884104 0.08578229
vt 0.1762788 0.05924809
v -0.08908311 0.3725076 0.2794564
vt 0.1894863 0.06047618
vn -0.7368164 -0.2075195 0.6430664
vt 0.190552 0.08604854
vt 0.2024379 0.06251949
vt 0.2743888 0.08791661
vt 0.2629467 0.05921298
v -0.05551881 0.3826988 0.3156416
vt 0.2754029 0.06055796
vn -0.6123047 -0.105896 0.7832031
vt 0.2764113 0.08817554
vt 0.2877963 0.06239498
vt 0.08659852 0.03929734
vt 0.07544172 0.01084411
v -0.1024133 0.3377581 0.2284201
vt 0.08758676 0.00888133
vn 0.9228516 -0.09259033 -0.3735352
vt 0.088588 0.03914452
vt 0.09988958 0.008966208
vt 0.02443326 0.1861974
vt 0.01071364 0.157123
v -0.1133772 0.3448625 0.2309059
vt 0.02347708 0.1578001
vn -0.8994141 0.347168 0.2653809
vt 0.02651203 0.186227
vt 0.03625447 0.1574874
vt 0.129628 0.03929818
vt 0.118321 0.009230256
v -0.08279315 0.3500762 0.2665397
vt 0.1306298 0.008411765
vn 0.8354492 -0.1035767 -0.5390625
vt 0.1316313 0.03935206
vt 0.1429343 0.009891272
vt 0.1721185 0.03812015
vt 0.1612679 0.009394407
v -0.09272297 0.3580283 0.2708537
vt 0.1736584 0.009787321
vn -0.8276367 0.3505859 0.4377441
vt 0.174192 0.03810275
vt 0.1864208 0.009040833
vt 0.2168634 0.04197693
vt 0.2055829 0.0147171
v -0.05171822 0.3564643 0.2995057
vt 0.2178074 0.009034872
vn 0.6416016 -0.137085 -0.7543945
vt 0.2187705 0.04193377
vt 0.2292511 0.014189
vt 0.2590263 0.04047513
vt 0.2472226 0.009000063
v -0.05997347 0.3668322 0.3068432
vt 0.2597738 0.00984478
vn -0.6713867 0.3818359 0.6342773
vt 0.2610874 0.04051995
vt 0.2727687 0.01249266
vt 0.7389126 0.04051995
vt 0.7272313 0.01249266
v 0.05997347 0.3668322 0.3068432
vt 0.7402262 0.00984478
vn 0.6713867 0.3818359 0.6342773
vt 0.7409737 0.04047513
vt 0.7527774 0.009000063
vt 0.7812295 0.04193377
vt 0.7707489 0.014189
v 0.05171822 0.3564643 0.2995057
vt 0.7821926 0.009034872
vn -0.6416016 -0.137085 -0.7543945
vt 0.7831366 0.04197693
vt 0.7944171 0.0147171
vt 0.825808 0.03810275
vt 0.8135792 0.009040833
v 0.09272297 0.3580283 0.2708537
vt 0.8263416 0.009787321
vn 0.8276367 0.3505859 0.4377441
vt 0.8278815 0.03812015
vt 0.8387321 0.009394407
vt 0.8683687 0.03935206
vt 0.8570657 0.009891272
v 0.08279315 0.3500762 0.2665397
vt 0.8693702 0.008411765
vn -0.8354492 -0.1035767 -0.5390625
vt 0.870372 0.03929818
vt 0.881679 0.009230256
vt 0.973488 0.186227
vt 0.9637455 0.1574874
v 0.1133772 0.3448625 0.2309059
vt 0.9765229 0.1578001
vn 0.8994141 0.347168 0.2653809
vt 0.9755667 0.1861974
vt 0.9892864 0.157123
vt 0.911412 0.03914452
vt 0.9001104 0.008966208
v 0.1024133 0.3377581 0.2284201
vt 0.9124132 0.00888133
vn -0.9228516 -0.09259033 -0.3735352
vt 0.9134015 0.03929734
vt 0.9245583 0.01084411
vt 0.7235887 0.08817554
vt 0.7122037 0.06239498
v 0.05551881 0.3826988 0.3156416
vt 0.7245971 0.06055802
vn 0.6123047 -0.105896 0.7832031
vt 0.7256112 0.08791655
vt 0.7370533 0.05921298
vt 0.769771 0.08779478
vt 0.7544066 0.05945057
v 0.04562385 0.3827125 0.304041
vt 0.7674103 0.05909747
vn -0.6845703 -0.1945801 -0.7021484
vt 0.7718872 0.08780986
vt 0.7804076 0.05963635
vt 0.809448 0.08604854
vt 0.7975621 0.06251949
v 0.08908311 0.3725076 0.2794564
vt 0.8105137 0.06047618
vn 0.7368164 -0.2075195 0.6430664
vt 0.8115896 0.08578229
vt 0.8237212 0.05924809
vt 0.7326201 0.1376643
vt 0.720044 0.1103742
v 0.07752845 0.3725212 0.2707976
vt 0.7337343 0.1118554
vn -0.8164063 -0.1254883 -0.5629883
vt 0.7348425 0.1379519
vt 0.7473507 0.1139094
vt 0.8498585 0.08587819
vt 0.8370283 0.06196225
v 0.1128574 0.3614039 0.238181
vt 0.8510109 0.05909014
vn 0.8803711 -0.1860352 0.4353027
vt 0.8521778 0.08545333
vt 0.86354 0.05835831
vt 0.8505631 0.1377717
vt 0.8390824 0.1103135
v 0.1007675 0.3614171 0.233404
vt 0.8517475 0.1112334
vn -0.9262695 -0.1428223 -0.3483887
vt 0.8529217 0.1382129
vt 0.8661746 0.1142836
vt 0.2526493 0.1139094
v -0.07752845 0.3725212 0.2707976
vt 0.2662657 0.1118555
vn 0.8164063 -0.1254883 -0.5629883
vt 0.2651575 0.1379519
vt 0.2673799 0.1376643
vt 0.279956 0.1103742
vt 0.2195924 0.05963635
v -0.04562385 0.3827125 0.304041
vt 0.2325897 0.05909753
vn 0.6845703 -0.1945801 -0.7021484
vt 0.2281128 0.08780992
vt 0.230229 0.08779478
vt 0.2455934 0.05945063
v -6.624499E-31 0.5526485 -0.1453993
vt 0.2194629 0.7552069
vn 0 0.7539063 0.6567383
v -5.84736E-32 0.5961323 -0.1953295
vt 0.1909824 0.7394412
vn 0 0.8540039 0.5200195
v -0.01295293 0.5434419 -0.1610674
vt 0.2221255 0.7445635
vn -0.9628906 0.2174072 0.1569824
v -0.01089823 0.5814244 -0.2082156
vt 0.196205 0.7299452
vn -0.9868164 0.1444092 0.07049561
v -0.01302446 0.5165495 -0.1929735
vt 0.2286014 0.725062
vn -0.9995117 0.02810669 0.003868103
v 1.240837E-31 0.6381846 -0.2783593
vt 0.1567913 0.7090222
vn 0 0.9472656 0.3203125
v -0.01419769 0.5040567 -0.2618746
vt 0.2217262 0.691263
vn -0.9995117 -0.002283096 -0.01519775
v -0.01339047 0.4789306 -0.2267802
vt 0.2395834 0.7027212
vn -0.9995117 -0.02513123 0.004993439
v -0.01137707 0.4448477 -0.2567463
vt 0.2496512 0.6827813
vn -0.9780273 -0.1715088 -0.1183472
v -0.009864998 0.6205267 -0.2847119
vt 0.1644595 0.7022591
vn -0.9916992 0.1228027 0.02224731
v -0.009056067 0.4759442 -0.3151068
vt 0.2247289 0.661759
vn -0.9755859 -0.1711426 -0.1352539
v 2.182081E-31 0.4269739 -0.2674707
vt 0.2565256 0.673377
vn 0 -0.8647461 -0.5014648
v -1.062938E-10 0.4782474 -0.3722217
vt 0.2134368 0.6355398
vn 0 -0.7202148 -0.6933594
v -0.01345789 0.527673 -0.3044862
vt 0.2030959 0.6762009
vn -0.9985352 -0.001613617 -0.04434204
v -0.009224412 0.5511339 -0.3766563
vt 0.178993 0.6475149
vn -0.9926758 -0.03442383 -0.1137695
v 6.095111E-31 0.5511612 -0.3904993
vt 0.1764701 0.6400029
vn 0 -0.4750977 -0.8798828
v 5.585952E-10 0.6117061 -0.4368882
vt 0.1399589 0.6310784
vn 0 -0.5136719 -0.8574219
v -0.007851303 0.6444972 -0.3793388
vt 0.1359742 0.6638635
vn -0.9941406 0.1010742 -0.03317261
v 2.179004E-10 0.6656528 -0.5115959
vt 0.1007457 0.6083881
vn 0 -0.5976563 -0.8012695
v 4.990439E-31 0.6611114 -0.3881896
vt 0.1262031 0.6632493
vn 0 0.9960938 0.08618164
v 0.1455473 0.2864162 -0.06042945
vt 0.7058296 0.4812673
vn 0.9663086 -0.1507568 -0.2076416
v 0.1265919 0.2972352 -0.1400543
vt 0.7462794 0.5066016
vn 0.9418945 -0.09143066 -0.3220215
v 0.1495585 0.3422701 -0.06084844
vt 0.6918746 0.5103164
vn 0.9741211 0.1143799 -0.1938477
v 0.1217763 0.3918428 -0.1396057
vt 0.7239074 0.5574764
vn 0.9443359 0.1677246 -0.2814941
v 0.07244535 0.3317901 -0.2796645
vt 0.8196315 0.5580785
vn 0.8935547 -0.03686523 -0.4467773
vt 0.8323203 0.5872909
v 0.05134612 0.3162865 -0.3096082
vt 0.8433514 0.556622
vn 0.8388672 -0.1663818 -0.5175781
v -0.1455473 0.2864162 -0.06042945
vt 0.2941704 0.4812673
vn -0.9663086 -0.1507568 -0.2076416
v -0.1265919 0.2972352 -0.1400543
vt 0.2537206 0.5066016
vn -0.9418945 -0.09143066 -0.3220215
v -0.1495585 0.3422701 -0.06084844
vt 0.3081254 0.5103164
vn -0.9741211 0.1143799 -0.1938477
v -0.1217763 0.3918428 -0.1396057
vt 0.2760926 0.5574764
vn -0.9443359 0.1677246 -0.2814941
v -0.07244535 0.3317901 -0.2796645
vt 0.1803685 0.5580785
vn -0.8935547 -0.03686523 -0.4467773
vt 0.1676797 0.5872909
v -0.05134612 0.3162865 -0.3096082
vt 0.1566486 0.556622
vn -0.8388672 -0.1663818 -0.5175781
v 0.01295293 0.5434419 -0.1610674
vt 0.7778745 0.7445635
vn 0.9628906 0.2174072 0.1569824
vt 0.8090176 0.7394412
vt 0.7805371 0.7552069
v 0.01089823 0.5814244 -0.2082156
vt 0.803795 0.7299452
vn 0.9868164 0.1444092 0.07049561
v 0.01302446 0.5165495 -0.1929735
vt 0.7713986 0.725062
vn 0.9995117 0.02810669 0.003868103
vt 0.8432087 0.7090222
v 0.01419769 0.5040567 -0.2618746
vt 0.7782738 0.691263
vn 0.9995117 -0.002283096 -0.01519775
v 0.01339047 0.4789306 -0.2267802
vt 0.7604166 0.7027212
vn 0.9995117 -0.02513123 0.004993439
v 0.01137707 0.4448477 -0.2567463
vt 0.7503488 0.6827813
vn 0.9780273 -0.1715088 -0.1183472
v 0.009864998 0.6205267 -0.2847119
vt 0.8355405 0.7022591
vn 0.9916992 0.1228027 0.02224731
v 0.009056067 0.4759442 -0.3151068
vt 0.7752711 0.661759
vn 0.9755859 -0.1711426 -0.1352539
vt 0.7434744 0.673377
vt 0.7865632 0.6355398
v 0.01345789 0.527673 -0.3044862
vt 0.7969041 0.6762009
vn 0.9985352 -0.001613617 -0.04434204
v 0.009224412 0.5511339 -0.3766563
vt 0.821007 0.6475149
vn 0.9926758 -0.03442383 -0.1137695
vt 0.8235299 0.6400029
vt 0.8600411 0.6310784
v 0.007851303 0.6444972 -0.3793388
vt 0.8640258 0.6638635
vn 0.9941406 0.1010742 -0.03317261
vt 0.8992543 0.6083881
vt 0.8737969 0.6632493
v -4.743408E-31 0.1895855 -0.1134422
vt 0.3173108 0.7704934
vn 0 -0.5864258 0.8095703
v -0.01093462 0.1980032 -0.1275447
vt 0.3119778 0.76118
vn -0.9707031 -0.1376953 0.1967773
v -7.379394E-32 0.1503986 -0.1418136
vt 0.3391609 0.755807
vn 0 -0.6806641 0.7324219
v -0.01116239 0.1592173 -0.1551046
vt 0.333661 0.7471603
vn -0.9882813 -0.1051636 0.1101074
v -0.01127643 0.211609 -0.1626929
vt 0.3054565 0.7416896
vn -0.9995117 -0.0008554459 0.009117126
v -0.01180371 0.2364915 -0.2186865
vt 0.2934924 0.7105491
vn -0.9995117 -0.002555847 0.008354187
v -0.008746401 0.1059022 -0.2115116
vt 0.3642258 0.7181963
vn -0.9804688 -0.1634521 0.1088867
v 6.183405E-31 0.08658874 -0.2031894
vt 0.3751925 0.7239195
vn 0 -0.7792969 0.6259766
v -0.01252486 0.2100184 -0.3138523
vt 0.3106164 0.6601741
vn -0.984375 0.03265381 -0.1721191
v -0.01254866 0.2623524 -0.2698652
vt 0.28089 0.6819311
vn -0.9873047 0.1005249 -0.1201172
v 3.592969E-31 0.2717653 -0.2788638
vt 0.2745146 0.6744354
vn 0 0.6455078 -0.7631836
v -1.043203E-10 0.2160798 -0.3273723
vt 0.3078584 0.6504384
vn 0 0.3486328 -0.9370117
v 1.098248E-30 0.1634777 -0.3110204
vt 0.3362898 0.6605377
vn 0 -0.137207 -0.9902344
v -0.01202315 0.1425377 -0.2298821
vt 0.3448783 0.7070922
vn -0.9995117 -0.02851868 -0.000212431
v -0.009136486 0.1671441 -0.2994908
vt 0.3336074 0.6683623
vn -0.9853516 -0.06762695 -0.1536865
v -0.008090204 0.09614711 -0.3015254
vt 0.3724413 0.6694351
vn -0.9931641 -0.007202148 -0.1144409
v 1.312904E-30 0.0916217 -0.3154207
vt 0.3753268 0.6609599
vn 0 0.3095703 -0.9506836
v -0.007453462 0.05904541 -0.277599
vt 0.3917686 0.6840537
vn -0.987793 -0.1408691 0.0619812
v 9.751386E-31 0.03845318 -0.2787107
vt 0.4037337 0.6846483
vn 0 -0.9165039 0.3996582
v -0.005877776 0.03797554 -0.3332085
vt 0.4055434 0.6550705
vn -0.9902344 -0.0871582 -0.1043701
v 1.518328E-30 0.01788056 -0.3623507
vt 0.4181395 0.6400582
vn 0 -0.4799805 -0.8769531
vt 0.6608391 0.755807
v 0.01093462 0.1980032 -0.1275447
vt 0.6880222 0.76118
vn 0.9707031 -0.1376953 0.1967773
vt 0.6826892 0.7704934
v 0.01116239 0.1592173 -0.1551046
vt 0.666339 0.7471603
vn 0.9882813 -0.1051636 0.1101074
v 0.01127643 0.211609 -0.1626929
vt 0.6945435 0.7416896
vn 0.9995117 -0.0008554459 0.009117126
v 0.01180371 0.2364915 -0.2186865
vt 0.7065076 0.7105491
vn 0.9995117 -0.002555847 0.008354187
v 0.008746401 0.1059022 -0.2115116
vt 0.6357742 0.7181963
vn 0.9804688 -0.1634521 0.1088867
vt 0.6248075 0.7239195
v 0.01252486 0.2100184 -0.3138523
vt 0.6893836 0.6601741
vn 0.984375 0.03265381 -0.1721191
v 0.01254866 0.2623524 -0.2698652
vt 0.71911 0.6819311
vn 0.9873047 0.1005249 -0.1201172
vt 0.7254854 0.6744354
vt 0.6921416 0.6504384
vt 0.6637102 0.6605377
v 0.01202315 0.1425377 -0.2298821
vt 0.6551217 0.7070922
vn 0.9995117 -0.02851868 -0.000212431
v 0.009136486 0.1671441 -0.2994908
vt 0.6663926 0.6683623
vn 0.9853516 -0.06762695 -0.1536865
v 0.008090204 0.09614711 -0.3015254
vt 0.6275587 0.6694351
vn 0.9931641 -0.007202148 -0.1144409
vt 0.6246732 0.6609599
v 0.007453462 0.05904541 -0.277599
vt 0.6082314 0.6840537
vn 0.987793 -0.1408691 0.0619812
vt 0.5962663 0.6846483
v 0.005877776 0.03797554 -0.3332085
vt 0.5944566 0.6550705
vn 0.9902344 -0.0871582 -0.1043701
vt 0.5818605 0.6400582
v -0.01139004 0.5729132 -0.1200649
vt 0.04149324 0.8972178
vn -0.965332 -0.05953979 -0.2536621
v -0.008936683 0.6062349 -0.1372247
vt 0.03005904 0.9121445
vn -0.9506836 -0.01882935 -0.3093262
v -6.093167E-31 0.5670848 -0.1312227
vt 0.03460932 0.8921323
vn 0 -0.3823242 -0.9238281
v -1.169083E-09 0.6462222 -0.1618282
vt 0.01274264 0.9279529
vn 0 0.5976563 -0.8012695
v -0.01513941 0.5872445 -0.08135214
vt 0.05870897 0.908067
vn -0.9936523 0.04815674 -0.09936523
v -0.01124522 0.6289049 -0.09726159
vt 0.04788738 0.9284328
vn -0.9794922 0.1453857 -0.1386719
v 1.171739E-10 0.6367895 -0.1015529
vt 0.04276466 0.9341126
v -0.01770918 0.6011835 -0.04976218
vt 0.07292157 0.9158087
vn -0.9941406 0.07818604 -0.07159424
v -0.00684407 0.6822349 -0.09357252
vt 0.0504027 0.9559892
vn -0.9438477 0.1110229 -0.3100586
v -8.035535E-11 0.6808674 -0.09958144
vt 0.04575002 0.9557414
vn 0 0.1225586 -0.9921875
v -4.006964E-10 0.7416172 -0.08738049
vt 0.05319995 0.9862711
vn 0 0.9853516 -0.1704102
v -0.01439929 0.6392193 -0.05887458
vt 0.06833774 0.9343029
vn -0.9931641 0.09765625 -0.0579834
v -0.008949909 0.6851422 -0.07283287
vt 0.06092197 0.9574832
vn -0.9907227 0.1304932 -0.03134155
v -0.007455877 0.6880463 -0.0495472
vt 0.07265329 0.9591838
vn -0.9448242 0.267334 0.1889648
v 2.64992E-30 0.6897377 -0.04274973
vt 0.07713777 0.9617522
vn 0 0.640625 0.7670898
v 3.621004E-31 0.6571528 -0.01641225
vt 0.09245628 0.9477855
vn 0 0.9868164 -0.1602783
v -0.01483912 0.6454538 -0.01373764
vt 0.09263873 0.9375319
vn -0.9814453 0.1877441 -0.03610229
v -0.01978444 0.6066521 -0.01224496
vt 0.09045762 0.9169847
vn -0.9912109 0.1250152 -0.03494263
v -0.01928287 0.6106012 0.03258147
vt 0.1110746 0.9136267
vn -0.9926758 0.1149292 0.02540588
v -0.007250757 0.6988525 0.007331027
vt 0.1130946 0.9599578
vn -0.972168 0.1889648 -0.1378174
v 1.410265E-30 0.6996627 0.002990896
vt 0.1101521 0.9626998
vn 0 0.4169922 -0.9086914
v -2.528332E-10 0.7554998 0.02872997
vt 0.1332979 0.9835804
vn 0 0.9995117 0.01010895
v -0.01547881 0.6449528 0.03181792
vt 0.1157765 0.9300851
vn -0.9907227 0.1292725 0.02835083
v -0.01583859 0.6161724 0.07479319
vt 0.1310387 0.90931
vn -0.9887695 0.1328125 0.06335449
v -0.007150137 0.697996 0.05338205
vt 0.1349605 0.9518414
vn -0.9682617 0.189209 0.1622314
v 1.196898E-30 0.698512 0.0563652
vt 0.1385713 0.9521487
vn 0 0.4262695 0.9042969
v 7.39958E-11 0.6511229 0.07802334
vt 0.1432433 0.9268533
vn 0 0.9638672 0.2661133
v -0.01204955 0.6413499 0.0773724
vt 0.1379704 0.9204645
vn -0.9711914 0.2213135 0.08721924
v -0.01524938 0.6131284 0.1030744
vt 0.1413162 0.9005799
vn -0.9521484 0.07580566 0.2944336
v -3.364237E-10 0.687236 0.1176618
vt 0.1701689 0.9257567
vn 0 0.9990234 -0.03494263
v -0.01117738 0.6377009 0.1096958
vt 0.1507879 0.9088027
vn -0.9140625 0.09222412 0.394043
v 4.116868E-32 0.6131285 0.1154732
vt 0.1493611 0.8949933
vn 0 -0.1137695 0.9931641
v 1.323582E-10 0.6842325 0.1221824
vt 0.1709815 0.9230615
vn 0 0.2493896 0.9682617
vt 0.8290185 0.9230615
vt 0.8506389 0.8949933
v 0.01117738 0.6377009 0.1096958
vt 0.8492121 0.9088027
vn 0.9140625 0.09222412 0.394043
v 0.01524938 0.6131284 0.1030744
vt 0.8586838 0.9005799
vn 0.9521484 0.07580566 0.2944336
vt 0.8298311 0.9257567
v 0.01204955 0.6413499 0.0773724
vt 0.8620296 0.9204645
vn 0.9711914 0.2213135 0.08721924
v 0.01583859 0.6161724 0.07479319
vt 0.8689613 0.90931
vn 0.9887695 0.1328125 0.06335449
vt 0.8567567 0.9268533
v 0.01547881 0.6449528 0.03181792
vt 0.8842235 0.9300851
vn 0.9907227 0.1292725 0.02835083
v 0.01928287 0.6106012 0.03258147
vt 0.8889254 0.9136267
vn 0.9926758 0.1149292 0.02540588
v 0.007150137 0.697996 0.05338205
vt 0.8650395 0.9518414
vn 0.9682617 0.189209 0.1622314
vt 0.8614287 0.9521487
vt 0.8667021 0.9835804
v 0.007250757 0.6988525 0.007331027
vt 0.8869054 0.9599578
vn 0.972168 0.1889648 -0.1378174
vt 0.8898479 0.9626998
vt 0.9075437 0.9477855
v 0.01483912 0.6454538 -0.01373764
vt 0.9073613 0.9375319
vn 0.9814453 0.1877441 -0.03610229
v 0.01978444 0.6066521 -0.01224496
vt 0.9095424 0.9169847
vn 0.9912109 0.1250152 -0.03494263
v 0.01770918 0.6011835 -0.04976218
vt 0.9270784 0.9158087
vn 0.9941406 0.07818604 -0.07159424
v 0.007455877 0.6880463 -0.0495472
vt 0.9273467 0.9591838
vn 0.9448242 0.267334 0.1889648
vt 0.9228622 0.9617522
vt 0.9468001 0.9862711
v 0.01439929 0.6392193 -0.05887458
vt 0.9316623 0.9343029
vn 0.9931641 0.09765625 -0.0579834
v 0.008949909 0.6851422 -0.07283287
vt 0.939078 0.9574832
vn 0.9907227 0.1304932 -0.03134155
v 0.00684407 0.6822349 -0.09357252
vt 0.9495973 0.9559892
vn 0.9438477 0.1110229 -0.3100586
vt 0.95425 0.9557414
vt 0.9572353 0.9341126
v 0.01124522 0.6289049 -0.09726159
vt 0.9521126 0.9284328
vn 0.9794922 0.1453857 -0.1386719
v 0.01513941 0.5872445 -0.08135214
vt 0.941291 0.908067
vn 0.9936523 0.04815674 -0.09936523
vt 0.9872574 0.9279529
v 0.008936683 0.6062349 -0.1372247
vt 0.969941 0.9121445
vn 0.9506836 -0.01882935 -0.3093262
v 0.01139004 0.5729132 -0.1200649
vt 0.9585068 0.8972178
vn 0.965332 -0.05953979 -0.2536621
vt 0.9653907 0.8921323
v -0.3231758 0.3292889 0.07974407
vt 0.2535303 0.805087
vn -0.01086426 -0.9995117 -0.001009941
v -0.3838609 0.3310001 0.07959025
vt 0.2824971 0.7934515
vn -0.9926758 -0.1196289 0.001296043
v -0.3206051 0.3398228 0.07185292
vt 0.2549659 0.8116765
vn -0.0340271 -0.05361938 -0.9975586
v -0.3789093 0.3707836 0.07997106
vt 0.2897179 0.8131968
vn -0.5996094 -0.2705078 0.7529297
v -0.2750078 0.3300994 0.07974837
vt 0.2308937 0.8156517
vn 0.01972961 -0.9995117 -0.000484705
v -0.3823849 0.4158523 0.07341879
vt 0.3007662 0.834126
vn -0.05712891 -0.02716064 -0.9975586
v -0.4019385 0.4174823 0.07986496
vt 0.3107244 0.8303217
vn -0.3762207 -0.3249512 0.8671875
v -0.464887 0.4709849 0.07928588
vt 0.3515906 0.8433472
vn -0.6455078 -0.7548828 0.1130371
v -0.2728142 0.3394487 0.07151608
vt 0.2325208 0.8218282
vn -0.01197052 -0.09912109 -0.9946289
v -0.4287807 0.4951712 0.07352598
vt 0.3389151 0.8626448
vn 0.002134323 0.1921387 -0.980957
v -0.5423135 0.5309616 0.08031512
vt 0.3994353 0.8579078
vn -0.3459473 0.02867126 0.9375
v -0.3589993 0.4841513 0.08175708
vt 0.3039251 0.8721681
vn 0.08917236 0.4067383 0.9086914
v -0.3480091 0.4732154 0.07277844
vt 0.2963964 0.8683081
vn 0.01041412 0.09002686 -0.9956055
v -0.2882085 0.460225 0.07956068
vt 0.2659108 0.8765864
vn 0.3537598 0.9287109 -0.107666
v -0.2280944 0.4234627 0.06992164
vt 0.2301852 0.8704981
vn 0.03216553 0.08795166 -0.9951172
v -0.2227826 0.4276096 0.07974407
vt 0.2283448 0.8764564
vn 0.5302734 0.847168 -0.006858826
v -0.1848863 0.3972794 0.0796876
vt 0.2036486 0.87084
vn 0.6894531 0.7236328 -0.008018494
v -0.2287166 0.3409677 0.07038293
vt 0.2123907 0.8324231
vn 0.00236702 -0.1821289 -0.9829102
v -0.1891289 0.3429975 0.07971016
vt 0.1925277 0.8402979
vn 0.2802734 -0.9594727 0.001346588
v -0.1636458 0.3616684 0.06821558
vt 0.1881429 0.8561329
vn 0.164917 -0.02838135 -0.9858398
v -0.1515543 0.3612568 0.07974435
vt 0.1799822 0.8584473
vn 0.9995117 0.02935791 -0.002182007
vt 0.1852437 0.8046664
vt 0.14994 0.8317419
v -0.3765473 0.4561396 0.08932185
vt 0.1372186 0.809867
vn -0.02757263 0.05966187 0.9975586
vt 0.2274957 0.7742372
vt 0.1355611 0.8560103
vt 0.1286001 0.7933836
v -0.3206099 0.3397956 0.08856028
vt 0.1022721 0.8699
vn -0.04458618 -0.07421875 0.9960938
vt 0.1356768 0.8778272
vt 0.1032247 0.8768374
vt 0.07732201 0.87458
v -0.2280341 0.4236895 0.09202766
vt 0.0570702 0.8211085
vn 0.03933716 0.07965088 0.9956055
vt 0.08983636 0.8024533
vt 0.05320066 0.8160429
vt 0.03102535 0.8302854
v -0.2728291 0.3394315 0.08829315
vt 0.07673526 0.8679675
vn -0.004417419 -0.1286621 0.9912109
v -0.2287074 0.3409876 0.08955584
vt 0.05333346 0.8647882
vn 0.01108551 -0.2097168 0.9775391
vt 0.03136045 0.8636481
v -0.1636615 0.3617344 0.09108967
vt 0.02117687 0.8501921
vn 0.1811523 -0.04244995 0.9824219
vt 0.01241428 0.8510216
v 0.3231758 0.3292889 0.07974407
vt 0.8967753 0.8768374
vn 0.01086426 -0.9995117 -0.001008987
v 0.3838609 0.3310001 0.07959025
vt 0.8643232 0.8778272
vn 0.9926758 -0.1196289 0.001293182
v 0.3206099 0.3397956 0.08856028
vt 0.8977279 0.8699
vn 0.04458618 -0.07421875 0.9960938
v 0.3789093 0.3707836 0.07997106
vt 0.8644389 0.8560103
vn 0.5996094 -0.2705078 0.7529297
v 0.2750078 0.3300994 0.07974837
vt 0.922678 0.87458
vn -0.01972961 -0.9995117 -0.0004842281
v 0.3765473 0.4561396 0.08932185
vt 0.8627814 0.809867
vn 0.02757263 0.05966187 0.9975586
v 0.4019385 0.4174823 0.07986496
vt 0.85006 0.8317419
vn 0.3762207 -0.3249512 0.8671875
v 0.464887 0.4709849 0.07928588
vt 0.8147563 0.8046664
vn 0.6455078 -0.7548828 0.1130371
v 0.5423135 0.5309615 0.08031512
vt 0.7725043 0.7742372
vn 0.3459473 0.02867126 0.9375
v 0.3589993 0.4841513 0.08175708
vt 0.8713999 0.7933836
vn -0.08917236 0.4067383 0.9086914
v 0.2280341 0.4236895 0.09202766
vt 0.9429298 0.8211085
vn -0.03933716 0.07965088 0.9956055
v 0.2882085 0.460225 0.07956068
vt 0.9101636 0.8024533
vn -0.3537598 0.9287109 -0.107666
v 0.2227826 0.4276096 0.07974407
vt 0.9467993 0.8160429
vn -0.5302734 0.847168 -0.006858826
v 0.1848863 0.3972794 0.0796876
vt 0.9689746 0.8302854
vn -0.6894531 0.7236328 -0.008018494
v 0.2728291 0.3394315 0.08829315
vt 0.9232647 0.8679675
vn 0.004417419 -0.1286621 0.9912109
v 0.2287074 0.3409876 0.08955584
vt 0.9466665 0.8647882
vn -0.01108551 -0.2097168 0.9775391
v 0.1891289 0.3429975 0.07971016
vt 0.9686396 0.8636481
vn -0.2802734 -0.9594727 0.001346588
v 0.1636615 0.3617344 0.09108967
vt 0.9788231 0.8501921
vn -0.1811523 -0.04244995 0.9824219
v 0.1515543 0.3612568 0.07974435
vt 0.9875857 0.8510216
vn -0.9995117 0.02935791 -0.002182007
vt 0.7175029 0.7934515
vt 0.7464697 0.805087
v 0.3206051 0.3398228 0.07185292
vt 0.7450341 0.8116765
vn 0.0340271 -0.05361938 -0.9975586
vt 0.7102821 0.8131968
vt 0.7691063 0.8156517
v 0.3823849 0.4158523 0.07341879
vt 0.6992338 0.834126
vn 0.05712891 -0.02716064 -0.9975586
vt 0.6892756 0.8303217
vt 0.6484094 0.8433472
v 0.2728142 0.3394487 0.07151608
vt 0.7674792 0.8218282
vn 0.01197052 -0.09912109 -0.9946289
v 0.4287807 0.4951712 0.07352598
vt 0.6610849 0.8626448
vn -0.002134323 0.1921387 -0.980957
vt 0.6005647 0.8579078
vt 0.6960749 0.8721681
v 0.3480091 0.4732154 0.07277844
vt 0.7036036 0.8683081
vn -0.01041412 0.09002686 -0.9956055
vt 0.7340892 0.8765864
v 0.2280944 0.4234627 0.06992164
vt 0.7698148 0.8704981
vn -0.03216553 0.08795166 -0.9951172
vt 0.7716552 0.8764564
vt 0.7963514 0.87084
v 0.2287166 0.3409677 0.07038293
vt 0.7876093 0.8324231
vn -0.00236702 -0.1821289 -0.9829102
vt 0.8074723 0.8402979
v 0.1636458 0.3616684 0.06821558
vt 0.8118571 0.8561329
vn -0.164917 -0.02838135 -0.9858398
vt 0.8200178 0.8584473
o pm0550_12_00_body_mesh_shape_lod1_body_01
g polygon_0
usemtl body_01
f 329/494/327 330/495/328 331/496/329
f 332/497/330 333/498/331 334/499/332
f 335/500/333 336/501/334 337/502/335
f 338/503/336 339/504/337 340/505/338
f 341/506/339 342/507/340 343/508/341
f 344/509/342 345/510/343 346/511/344
f 347/512/345 348/513/346 349/514/347
f 350/515/348 351/516/349 352/517/350
f 353/518/351 354/519/352 355/520/353
f 356/521/354 357/522/355 358/523/356
f 359/524/357 360/525/358 361/526/359
f 362/527/360 363/528/361 364/529/362
f 365/530/363 366/531/364 367/532/365
f 368/533/366 369/534/367 370/535/368
f 371/536/369 372/537/370 373/538/371
f 374/539/372 375/540/373 376/541/374
f 377/542/375 378/543/376 379/544/377
f 380/545/378 381/546/379 382/547/380
f 383/548/381 384/549/382 385/550/383
f 386/551/384 387/552/385 388/553/386
f 389/554/387 390/555/388 391/556/389
f 392/557/390 393/558/391 394/559/392
f 395/560/393 396/561/394 397/562/395
f 398/563/396 399/564/397 400/565/398
f 329/566/327 331/567/329 401/568/399
f 329/566/327 401/568/399 334/569/332
f 401/568/399 332/570/330 334/569/332
f 334/571/332 333/572/331 402/573/400
f 329/574/327 334/571/332 402/573/400
f 402/573/400 330/575/328 329/574/327
f 340/576/338 339/577/337 403/578/401
f 340/576/338 403/578/401 335/579/333
f 403/578/401 336/580/334 335/579/333
f 344/581/342 346/582/344 404/583/402
f 343/584/341 344/581/342 404/583/402
f 343/584/341 404/583/402 341/585/339
f 349/586/347 348/587/346 405/588/403
f 349/586/347 405/588/403 350/589/348
f 405/588/403 351/590/349 350/589/348
f 350/591/348 352/592/350 406/593/404
f 349/594/347 350/591/348 406/593/404
f 349/594/347 406/593/404 347/595/345
f 355/596/353 354/597/352 407/598/405
f 356/599/354 355/596/353 407/598/405
f 407/598/405 357/600/355 356/599/354
f 356/601/354 358/602/356 408/603/406
f 355/604/353 356/601/354 408/603/406
f 408/603/406 353/605/351 355/604/353
f 361/606/359 360/607/358 409/608/407
f 361/606/359 409/608/407 362/609/360
f 409/608/407 363/610/361 362/609/360
f 362/611/360 364/612/362 410/613/408
f 361/614/359 362/611/360 410/613/408
f 410/613/408 359/615/357 361/614/359
f 368/616/366 370/617/368 411/618/409
f 368/616/366 411/618/409 365/619/363
f 365/619/363 411/618/409 366/620/364
f 365/621/363 367/622/365 412/623/410
f 368/624/366 365/621/363 412/623/410
f 368/624/366 412/623/410 369/625/367
f 374/626/372 376/627/374 413/628/411
f 374/626/372 413/628/411 371/629/369
f 371/629/369 413/628/411 372/630/370
f 371/631/369 373/632/371 414/633/412
f 371/631/369 414/633/412 374/634/372
f 374/634/372 414/633/412 375/635/373
f 380/636/378 382/637/380 415/638/413
f 380/636/378 415/638/413 377/639/375
f 377/639/375 415/638/413 378/640/376
f 377/641/375 379/642/377 416/643/414
f 380/644/378 377/641/375 416/643/414
f 380/644/378 416/643/414 381/645/379
f 386/646/384 388/647/386 417/648/415
f 386/646/384 417/648/415 383/649/381
f 383/649/381 417/648/415 384/650/382
f 383/651/381 385/652/383 418/653/416
f 386/654/384 383/651/381 418/653/416
f 386/654/384 418/653/416 387/655/385
f 392/656/390 394/657/392 419/658/417
f 389/659/387 392/656/390 419/658/417
f 389/659/387 419/658/417 390/660/388
f 389/661/387 391/662/389 420/663/418
f 392/664/390 389/661/387 420/663/418
f 392/664/390 420/663/418 393/665/391
f 398/666/396 400/667/398 421/668/419
f 398/666/396 421/668/419 395/669/393
f 395/669/393 421/668/419 396/670/394
f 395/671/393 397/672/395 422/673/420
f 398/674/396 395/671/393 422/673/420
f 398/674/396 422/673/420 399/675/397
f 337/676/335 423/677/421 335/678/333
f 335/678/333 423/677/421 340/679/338
f 423/677/421 338/680/336 340/679/338
f 342/681/340 424/682/422 343/683/341
f 343/683/341 424/682/422 344/684/342
f 424/682/422 345/685/343 344/684/342
f 425/686/423 426/687/424 427/688/425
f 427/688/425 426/687/424 428/689/426
f 427/688/425 428/689/426 429/690/427
f 426/687/424 430/691/428 428/689/426
f 431/692/429 429/690/427 428/689/426
f 432/693/430 429/690/427 431/692/429
f 432/693/430 431/692/429 433/694/431
f 428/689/426 430/691/428 434/695/432
f 433/694/431 431/692/429 435/696/433
f 435/696/433 436/697/434 433/694/431
f 437/698/435 436/697/434 435/696/433
f 431/692/429 428/689/426 438/699/436
f 435/696/433 431/692/429 438/699/436
f 435/696/433 438/699/436 437/698/435
f 438/699/436 428/689/426 434/695/432
f 437/698/435 438/699/436 439/700/437
f 438/699/436 434/695/432 439/700/437
f 440/701/438 437/698/435 439/700/437
f 441/702/439 440/701/438 439/700/437
f 439/700/437 434/695/432 442/703/440
f 439/700/437 442/703/440 441/702/439
f 434/695/432 430/691/428 442/703/440
f 441/702/439 442/703/440 443/704/441
f 442/703/440 430/691/428 444/705/442
f 442/703/440 444/705/442 443/704/441
f 96/96/94 107/107/105 102/102/100
f 445/706/443 107/107/105 96/96/94
f 90/90/88 445/706/443 96/96/94
f 107/107/105 445/706/443 112/112/110
f 446/707/444 445/706/443 90/90/88
f 84/84/82 446/707/444 90/90/88
f 112/112/110 445/706/443 447/708/445
f 445/706/443 446/707/444 447/708/445
f 112/112/110 123/124/121 114/114/112
f 447/708/445 123/124/121 112/112/110
f 447/708/445 448/709/446 123/124/121
f 446/707/444 448/709/446 447/708/445
f 125/126/123 123/124/121 448/709/446
f 127/128/125 125/126/123 448/709/446
f 446/707/444 127/128/125 448/709/446
f 127/128/125 446/707/444 449/710/447
f 449/710/447 446/707/444 84/84/82
f 128/129/126 127/128/125 449/710/447
f 83/83/81 449/710/447 84/84/82
f 449/710/447 227/711/225 128/129/126
f 83/83/81 450/712/448 449/710/447
f 450/712/448 227/711/225 449/710/447
f 80/80/78 450/712/448 83/83/81
f 227/711/225 450/712/448 74/74/72
f 80/80/78 76/76/74 450/712/448
f 74/74/72 450/712/448 76/76/74
f 165/172/163 160/166/158 173/180/171
f 173/180/171 160/166/158 451/713/449
f 173/180/171 451/713/449 177/186/175
f 159/165/157 451/713/449 160/166/158
f 177/186/175 451/713/449 452/714/450
f 177/186/175 452/714/450 180/191/178
f 453/715/451 451/713/449 159/165/157
f 453/715/451 452/714/450 451/713/449
f 149/155/147 159/165/157 151/157/149
f 453/715/451 159/165/157 149/155/147
f 454/716/452 453/715/451 149/155/147
f 452/714/450 453/715/451 454/716/452
f 149/155/147 147/153/145 454/716/452
f 145/151/143 454/716/452 147/153/145
f 145/151/143 452/714/450 454/716/452
f 455/717/453 452/714/450 145/151/143
f 180/191/178 452/714/450 455/717/453
f 455/717/453 145/151/143 144/150/142
f 455/717/453 185/198/183 180/191/178
f 258/718/256 455/717/453 144/150/142
f 456/719/454 185/198/183 455/717/453
f 456/719/454 455/717/453 258/718/256
f 186/199/184 185/198/183 456/719/454
f 190/205/188 456/719/454 258/718/256
f 187/201/185 186/199/184 456/719/454
f 187/201/185 456/719/454 190/205/188
f 457/720/455 426/721/424 425/722/423
f 458/723/456 426/721/424 457/720/455
f 459/724/457 458/723/456 457/720/455
f 458/723/456 430/725/428 426/721/424
f 459/724/457 460/726/458 458/723/456
f 461/727/459 460/726/458 459/724/457
f 462/728/460 460/726/458 461/727/459
f 463/729/461 430/725/428 458/723/456
f 462/728/460 464/730/462 460/726/458
f 462/728/460 436/731/434 464/730/462
f 464/730/462 436/731/434 437/732/435
f 460/726/458 465/733/463 458/723/456
f 460/726/458 464/730/462 465/733/463
f 464/730/462 437/732/435 465/733/463
f 458/723/456 465/733/463 463/729/461
f 465/733/463 437/732/435 466/734/464
f 465/733/463 466/734/464 463/729/461
f 437/732/435 440/735/438 466/734/464
f 440/735/438 441/736/439 466/734/464
f 463/729/461 466/734/464 467/737/465
f 467/737/465 466/734/464 441/736/439
f 463/729/461 467/737/465 430/725/428
f 467/737/465 441/736/439 443/738/441
f 430/725/428 467/737/465 444/739/442
f 467/737/465 443/738/441 444/739/442
f 468/740/466 469/741/467 470/742/468
f 470/742/468 469/741/467 471/743/469
f 472/744/470 471/743/469 469/741/467
f 473/745/471 471/743/469 472/744/470
f 474/746/472 470/742/468 471/743/469
f 475/747/473 470/742/468 474/746/472
f 476/748/474 471/743/469 473/745/471
f 477/749/475 476/748/474 473/745/471
f 476/748/474 477/749/475 478/750/476
f 479/751/477 476/748/474 478/750/476
f 480/752/478 476/748/474 479/751/477
f 471/743/469 476/748/474 481/753/479
f 474/746/472 471/743/469 481/753/479
f 482/754/480 476/748/474 480/752/478
f 482/754/480 481/753/479 476/748/474
f 482/754/480 480/752/478 483/755/481
f 483/755/481 481/753/479 482/754/480
f 483/755/481 474/746/472 481/753/479
f 483/755/481 480/752/478 484/756/482
f 485/757/483 475/747/473 474/746/472
f 485/757/483 474/746/472 483/755/481
f 486/758/484 475/747/473 485/757/483
f 483/755/481 484/756/482 487/759/485
f 485/757/483 483/755/481 487/759/485
f 485/757/483 487/759/485 486/758/484
f 487/759/485 484/756/482 488/760/486
f 486/758/484 487/759/485 488/760/486
f 470/761/468 489/762/487 468/763/466
f 490/764/488 489/762/487 470/761/468
f 489/762/487 490/764/488 491/765/489
f 491/765/489 490/764/488 492/766/490
f 470/761/468 493/767/491 490/764/488
f 475/768/473 493/767/491 470/761/468
f 492/766/490 490/764/488 494/769/492
f 492/766/490 494/769/492 495/770/493
f 478/771/476 495/770/493 494/769/492
f 478/771/476 494/769/492 479/772/477
f 479/772/477 494/769/492 480/773/478
f 496/774/494 494/769/492 490/764/488
f 493/767/491 496/774/494 490/764/488
f 480/773/478 494/769/492 497/775/495
f 496/774/494 497/775/495 494/769/492
f 497/775/495 498/776/496 480/773/478
f 498/776/496 497/775/495 496/774/494
f 493/767/491 498/776/496 496/774/494
f 480/773/478 498/776/496 484/777/482
f 493/767/491 475/768/473 499/778/497
f 499/778/497 498/776/496 493/767/491
f 499/778/497 475/768/473 486/779/484
f 498/776/496 500/780/498 484/777/482
f 498/776/496 499/778/497 500/780/498
f 486/779/484 500/780/498 499/778/497
f 484/777/482 500/780/498 488/781/486
f 488/781/486 500/780/498 486/779/484
f 501/782/499 502/783/500 503/784/501
f 502/783/500 504/785/502 503/784/501
f 505/786/503 502/783/500 501/782/499
f 506/787/504 504/785/502 502/783/500
f 506/787/504 502/783/500 505/786/503
f 504/785/502 506/787/504 507/788/232
f 508/789/505 506/787/504 505/786/503
f 506/787/504 509/790/506 507/788/232
f 507/788/232 509/790/506 510/791/507
f 509/790/506 511/792/508 510/791/507
f 512/793/509 506/787/504 508/789/505
f 512/793/509 509/790/506 506/787/504
f 513/794/510 511/792/508 509/790/506
f 513/794/510 509/790/506 512/793/509
f 514/795/511 511/792/508 513/794/510
f 512/793/509 514/795/511 513/794/510
f 515/796/512 511/792/508 514/795/511
f 515/796/512 514/795/511 516/797/513
f 508/789/505 517/798/514 512/793/509
f 517/798/514 514/795/511 512/793/509
f 516/797/513 514/795/511 517/798/514
f 518/799/515 517/798/514 508/789/505
f 519/800/516 517/798/514 518/799/515
f 517/798/514 520/801/517 516/797/513
f 516/797/513 520/801/517 521/802/518
f 520/801/517 522/803/519 521/802/518
f 523/804/520 517/798/514 519/800/516
f 523/804/520 520/801/517 517/798/514
f 524/805/521 523/804/520 519/800/516
f 525/806/522 522/803/519 520/801/517
f 525/806/522 520/801/517 523/804/520
f 526/807/523 522/803/519 525/806/522
f 526/807/523 525/806/522 527/808/524
f 528/809/525 523/804/520 524/805/521
f 528/809/525 525/806/522 523/804/520
f 527/808/524 525/806/522 528/809/525
f 529/810/526 528/809/525 524/805/521
f 528/809/525 530/811/527 527/808/524
f 531/812/528 528/809/525 529/810/526
f 531/812/528 530/811/527 528/809/525
f 532/813/529 531/812/528 529/810/526
f 533/814/530 530/811/527 531/812/528
f 532/813/529 533/814/530 531/812/528
f 533/815/530 532/816/529 534/817/531
f 534/817/531 532/816/529 535/818/532
f 534/817/531 530/819/527 533/815/530
f 535/818/532 536/820/533 534/817/531
f 536/820/533 530/819/527 534/817/531
f 537/821/534 536/820/533 535/818/532
f 527/822/524 530/819/527 536/820/533
f 537/821/534 538/823/535 536/820/533
f 539/824/536 538/823/535 537/821/534
f 540/825/537 527/822/524 536/820/533
f 536/820/533 538/823/535 540/825/537
f 526/826/523 527/822/524 540/825/537
f 522/827/519 526/826/523 540/825/537
f 541/828/538 522/827/519 540/825/537
f 538/823/535 541/828/538 540/825/537
f 521/829/518 522/827/519 541/828/538
f 521/829/518 541/828/538 516/830/513
f 542/831/539 541/828/538 538/823/535
f 516/830/513 541/828/538 542/831/539
f 539/824/536 542/831/539 538/823/535
f 543/832/540 542/831/539 539/824/536
f 543/832/540 544/833/541 542/831/539
f 545/834/542 516/830/513 542/831/539
f 515/835/512 516/830/513 545/834/542
f 511/836/508 515/835/512 545/834/542
f 542/831/539 544/833/541 546/837/543
f 542/831/539 546/837/543 545/834/542
f 545/834/542 547/838/544 511/836/508
f 545/834/542 546/837/543 547/838/544
f 511/836/508 547/838/544 548/839/545
f 547/838/544 546/837/543 548/839/545
f 510/840/507 511/836/508 548/839/545
f 510/840/507 548/839/545 507/841/232
f 544/833/541 549/842/546 546/837/543
f 548/839/545 546/837/543 549/842/546
f 507/841/232 548/839/545 549/842/546
f 550/843/547 549/842/546 544/833/541
f 504/844/502 507/841/232 549/842/546
f 550/843/547 551/845/548 549/842/546
f 549/842/546 551/845/548 504/844/502
f 552/846/549 551/845/548 550/843/547
f 503/847/501 504/844/502 551/845/548
f 503/847/501 551/845/548 552/846/549
f 553/848/550 554/849/551 555/850/552
f 556/851/553 555/850/552 554/849/551
f 555/850/552 557/852/554 553/848/550
f 555/850/552 556/851/553 558/853/555
f 559/854/556 558/853/555 556/851/553
f 559/854/556 560/855/557 558/853/555
f 561/856/558 557/852/554 555/850/552
f 560/855/557 562/857/559 558/853/555
f 562/857/559 560/855/557 563/858/560
f 564/859/561 562/857/559 563/858/560
f 565/860/562 562/857/559 564/859/561
f 562/857/559 565/860/562 558/853/555
f 566/861/563 565/860/562 564/859/561
f 558/853/555 567/862/564 555/850/552
f 558/853/555 565/860/562 567/862/564
f 567/862/564 565/860/562 566/861/563
f 555/850/552 567/862/564 561/856/558
f 568/863/565 567/862/564 566/861/563
f 569/864/566 567/862/564 568/863/565
f 557/852/554 561/856/558 570/865/567
f 561/856/558 567/862/564 570/865/567
f 570/865/567 571/866/568 557/852/554
f 569/864/566 572/867/569 567/862/564
f 570/865/567 567/862/564 572/867/569
f 572/867/569 571/866/568 570/865/567
f 573/868/570 572/867/569 569/864/566
f 571/866/568 572/867/569 573/868/570
f 560/869/557 559/870/556 574/871/571
f 563/872/560 560/869/557 574/871/571
f 559/870/556 556/873/553 574/871/571
f 574/871/571 564/874/561 563/872/560
f 556/873/553 575/875/572 574/871/571
f 575/875/572 556/873/553 554/876/551
f 554/876/551 553/877/550 575/875/572
f 553/877/550 557/878/554 575/875/572
f 564/874/561 574/871/571 576/879/573
f 574/871/571 575/875/572 576/879/573
f 576/879/573 566/880/563 564/874/561
f 576/879/573 568/881/565 566/880/563
f 569/882/566 568/881/565 576/879/573
f 575/875/572 557/878/554 577/883/574
f 576/879/573 575/875/572 577/883/574
f 577/883/574 557/878/554 578/884/575
f 576/879/573 577/883/574 578/884/575
f 571/885/568 578/884/575 557/878/554
f 579/886/576 569/882/566 576/879/573
f 576/879/573 578/884/575 579/886/576
f 579/886/576 578/884/575 571/885/568
f 573/887/570 569/882/566 579/886/576
f 573/887/570 579/886/576 571/885/568
f 580/888/577 581/889/578 582/890/579
f 583/891/580 582/890/579 581/889/578
f 580/888/577 582/890/579 584/892/581
f 582/890/579 583/891/580 585/893/582
f 586/894/583 585/893/582 583/891/580
f 587/895/584 585/893/582 586/894/583
f 588/896/585 585/893/582 587/895/584
f 589/897/586 585/893/582 588/896/585
f 585/893/582 589/897/586 590/898/587
f 585/893/582 590/898/587 582/890/579
f 590/898/587 589/897/586 591/899/588
f 592/900/589 590/898/587 591/899/588
f 593/901/590 590/898/587 592/900/589
f 584/892/581 582/890/579 594/902/591
f 582/890/579 590/898/587 594/902/591
f 584/892/581 594/902/591 595/903/592
f 590/898/587 595/903/592 594/902/591
f 595/903/592 596/904/593 584/892/581
f 593/901/590 597/905/594 590/898/587
f 595/903/592 590/898/587 597/905/594
f 597/905/594 596/904/593 595/903/592
f 598/906/595 597/905/594 593/901/590
f 596/904/593 597/905/594 598/906/595
f 581/907/578 580/908/577 599/909/596
f 599/909/596 583/910/580 581/907/578
f 584/911/581 599/909/596 580/908/577
f 583/910/580 599/909/596 600/912/597
f 586/913/583 583/910/580 600/912/597
f 587/914/584 586/913/583 600/912/597
f 601/915/598 599/909/596 584/911/581
f 602/916/599 587/914/584 600/912/597
f 602/916/599 588/917/585 587/914/584
f 602/916/599 589/918/586 588/917/585
f 603/919/600 589/918/586 602/916/599
f 600/912/597 603/919/600 602/916/599
f 589/918/586 603/919/600 591/920/588
f 599/909/596 604/921/601 600/912/597
f 604/921/601 603/919/600 600/912/597
f 591/920/588 603/919/600 604/921/601
f 601/915/598 604/921/601 599/909/596
f 604/921/601 592/922/589 591/920/588
f 593/923/590 592/922/589 604/921/601
f 601/915/598 584/911/581 605/924/602
f 605/924/602 604/921/601 601/915/598
f 596/925/593 605/924/602 584/911/581
f 606/926/603 593/923/590 604/921/601
f 606/926/603 604/921/601 605/924/602
f 606/926/603 605/924/602 596/925/593
f 598/927/595 593/923/590 606/926/603
f 598/927/595 606/926/603 596/925/593
