mtllib pm0550_11_00_lod1.mtl
v 0.05306632 0.4417129 0.2883788
vt 0.757004 0.5177588
vn 0.7587891 0.3330078 0.559082
v 0.06018911 0.4229371 0.2898969
vt 0.7507685 0.4198686
vn 0.7875977 0.3037109 0.5351563
v 0.05531858 0.4549987 0.2774116
vt 0.7018588 0.5819243
vn 0.7827148 0.3371582 0.5229492
v 0.08704843 0.42575 0.2487014
vt 0.5120705 0.4169298
vn 0.8466797 0.3054199 0.4355469
v 0.07249156 0.3962528 0.285358
vt 0.7083561 0.2813489
vn 0.8095703 0.2561035 0.5273438
v 0.05918721 0.4708339 0.260636
vt 0.617424 0.6587607
vn 0.7998047 0.3688965 0.4731445
v 0.08619526 0.3789372 0.2714963
vt 0.6209363 0.1892383
vn 0.8378906 0.2263184 0.4960938
v 0.0633173 0.4876511 0.2391049
vt 0.5116491 0.7422746
vn 0.8256836 0.3808594 0.4150391
v 0.09854701 0.3731808 0.2520835
vt 0.510457 0.1555159
vn 0.8759766 0.2192383 0.4294434
v 0.1058781 0.380132 0.2307961
vt 0.4005077 0.1883215
vn 0.8984375 0.2227783 0.3771973
v 0.109005 0.398694 0.2120728
vt 0.309045 0.2797952
vn 0.9003906 0.2427979 0.3603516
v 0.105988 0.4255863 0.1998531
vt 0.2578808 0.4151435
vn 0.8930664 0.2878418 0.3452148
v 0.09766515 0.4572046 0.1932723
vt 0.2422611 0.5769487
vn 0.8662109 0.3442383 0.3613281
v 0.06713019 0.5029613 0.2166028
vt 0.4025535 0.8198814
vn 0.8383789 0.3828125 0.3876953
v 0.0853826 0.4877593 0.1919225
vt 0.2580447 0.7367441
vn 0.84375 0.3762207 0.3818359
v 0.07029084 0.5133813 0.1976175
vt 0.3109987 0.8741974
vn 0.8354492 0.4108887 0.364502
o pm0550_11_00_eye_mesh_shape_lod1_l_eye
g polygon_0
usemtl l_eye
f 1/1/1 2/2/2 3/3/3
f 3/3/3 2/2/2 4/4/4
f 2/2/2 5/5/5 4/4/4
f 4/4/4 6/6/6 3/3/3
f 7/7/7 4/4/4 5/5/5
f 8/8/8 6/6/6 4/4/4
f 9/9/9 4/4/4 7/7/7
f 10/10/10 4/4/4 9/9/9
f 10/10/10 11/11/11 4/4/4
f 11/11/11 12/12/12 4/4/4
f 12/12/12 13/13/13 4/4/4
f 8/8/8 4/4/4 14/14/14
f 15/15/15 4/4/4 13/13/13
f 14/14/14 4/4/4 15/15/15
f 16/16/16 14/14/14 15/15/15
v -0.07029084 0.5133813 0.1976175
vt 0.3109988 0.8741973
vn -0.8354492 0.4108887 0.364502
v -0.0853826 0.4877593 0.1919225
vt 0.2580447 0.7367439
vn -0.84375 0.3762207 0.3818359
v -0.06713019 0.5029613 0.2166028
vn -0.8383789 0.3828125 0.3876953
v -0.08704843 0.42575 0.2487014
vt 0.5120705 0.4169296
vn -0.8466797 0.3054199 0.4355469
v -0.09766515 0.4572046 0.1932723
vt 0.2422611 0.5769485
vn -0.8662109 0.3442383 0.3613281
v -0.105988 0.4255863 0.1998531
vt 0.2578809 0.4151434
vn -0.8930664 0.2878418 0.3452148
v -0.109005 0.398694 0.2120728
vn -0.9003906 0.2427979 0.3603516
v -0.1058781 0.380132 0.2307961
vt 0.4005078 0.1883216
vn -0.8984375 0.2227783 0.3771973
v -0.09854701 0.3731808 0.2520835
vt 0.5104571 0.1555158
vn -0.8759766 0.2192383 0.4294434
v -0.08619526 0.3789372 0.2714963
vt 0.6209365 0.1892383
vn -0.8378906 0.2263184 0.4960938
v -0.07249156 0.3962528 0.285358
vn -0.8095703 0.2561035 0.5273438
v -0.0633173 0.4876511 0.2391049
vn -0.8256836 0.3808594 0.4150391
v -0.06018911 0.4229371 0.2898969
vt 0.7507687 0.4198686
vn -0.7875977 0.3037109 0.5351563
v -0.05306632 0.4417129 0.2883788
vt 0.7570041 0.5177588
vn -0.7587891 0.3330078 0.559082
v -0.05531858 0.4549987 0.2774116
vt 0.7018589 0.5819242
vn -0.7827148 0.3371582 0.5229492
v -0.05918721 0.4708339 0.260636
vt 0.6174239 0.6587607
vn -0.7998047 0.3688965 0.4731445
o pm0550_11_00_eye_mesh_shape_lod1_r_eye
g polygon_0
usemtl r_eye
f 17/17/17 18/18/18 19/14/19
f 19/14/19 18/18/18 20/19/20
f 20/19/20 18/18/18 21/20/21
f 20/19/20 21/20/21 22/21/22
f 23/11/23 20/19/20 22/21/22
f 24/22/24 20/19/20 23/11/23
f 25/23/25 20/19/20 24/22/24
f 26/24/26 20/19/20 25/23/25
f 27/5/27 20/19/20 26/24/26
f 28/8/28 19/14/19 20/19/20
f 29/25/29 20/19/20 27/5/27
f 29/25/29 30/26/30 31/27/31
f 31/27/31 20/19/20 29/25/29
f 32/28/32 20/19/20 31/27/31
f 28/8/28 20/19/20 32/28/32
v 0.1336953 0.3412451 0.1862965
vt 0.5144682 0.7195038
vn -0.2375488 -0.9672852 0.0848999
v 0.1487909 0.3457036 0.1176941
vt 0.5832341 0.7195349
vn -0.4931641 -0.7314453 -0.4702148
v 0.1473412 0.2993093 0.1535394
vt 0.5458394 0.7624764
vn -0.3359375 -0.925293 -0.1740723
v 0.05295499 0.4074263 0.2892851
vt 0.5091238 0.2682555
vn 0.2351074 0.4667969 -0.8520508
v 0.07189231 0.3622968 0.2935312
vt 0.5181437 0.2348842
vn 0.862793 0.3920898 0.3181152
v 0.06776464 0.3629847 0.2898624
vt 0.5210409 0.237519
vn -0.2216797 -0.08648682 -0.9711914
v 0.05101496 0.408165 0.2914526
vt 0.5088235 0.2703474
vn -0.7143555 0.6992188 -0.01169586
v 0.0397994 0.3680444 0.3128277
vt 0.5221223 0.3004931
vn -0.8759766 -0.01197815 -0.4819336
v 0.04392703 0.3720612 0.3164965
vt 0.5173169 0.3004935
vn 0.1768799 0.5371094 0.8242188
v 0.08638957 0.3947089 0.2528348
vt 0.5357614 0.6523686
vn -0.3046875 0.809082 -0.5014648
v 0.09907761 0.3518519 0.2551145
vt 0.5464694 0.6228762
vn 0.9443359 0.2697754 -0.1861572
v 0.09533226 0.347876 0.2529404
vt 0.5505631 0.6223971
vn -0.6069336 -0.1176758 -0.7856445
vt 0.5357876 0.6544566
v 0.07521892 0.3562583 0.2823059
vt 0.5508617 0.6849635
vn -0.9677734 0.1084595 -0.2253418
v 0.08018382 0.3602344 0.284463
vt 0.5461526 0.6849616
vn 0.1889648 0.6450195 0.7402344
v 0.1016085 0.3829975 0.2198704
vt 0.5082223 0.6543307
vn -0.3222656 0.8803711 -0.347168
v 0.1174978 0.3381431 0.2141623
vt 0.5166435 0.622512
vn 0.8061523 0.3464355 -0.4787598
v 0.1120158 0.3345909 0.2129195
vt 0.5213436 0.6225102
vn -0.6826172 -0.04211426 -0.7290039
vt 0.5082232 0.6564271
v 0.09829273 0.3444834 0.2451738
vt 0.5213684 0.6863246
vn -0.996582 0.07775879 -0.01225281
v 0.1037746 0.3480357 0.2464166
vt 0.5166676 0.6863261
vn 0.4592285 0.5546875 0.6933594
v 0.04908905 0.3363551 0.3139794
vt 0.6391127 0.2989365
vn -0.1173706 -0.9848633 0.1240845
v 0.03765092 0.3878385 0.3258783
vt 0.6378947 0.2588041
vn 0.01476288 -0.2219238 0.9746094
v 0.03270344 0.3878452 0.320078
vt 0.6437423 0.2588038
vn -0.9433594 -0.2790527 -0.1773682
vt 0.6391128 0.3015432
v 0.06349176 0.3775727 0.2938043
vt 0.6437447 0.3381428
vn -0.230957 -0.3613281 -0.9033203
v 0.06843925 0.3775659 0.2996046
vt 0.6378971 0.3381426
vn 0.890625 -0.298584 0.3422852
v 0.07815566 0.3335469 0.2790669
vt 0.6183079 0.2953614
vn -0.4504395 -0.6733398 0.5854492
v 0.0743431 0.3776033 0.2938038
vt 0.6146051 0.2661952
vn 0.2561035 -0.2866211 0.9228516
v 0.06829049 0.3776101 0.2891845
vt 0.6194077 0.2661952
vn -0.9731445 -0.2259521 0.03521729
v 0.08015191 0.3327181 0.27645
vt 0.6183079 0.2975023
vn 0.2467041 -0.887207 -0.3886719
v 0.09281903 0.3674255 0.25703
vt 0.619406 0.3238063
vn -0.3820801 -0.3408203 -0.8583984
v 0.09887164 0.3674186 0.2616493
vt 0.6146035 0.323806
vn 0.8950195 -0.3972168 0.2006836
v 0.1044517 0.3250992 0.2393163
vt 0.6650312 0.2921984
vn -0.2580566 -0.706543 0.6586914
v 0.1037441 0.3642382 0.2531247
vt 0.6613884 0.2584412
vn 0.4770508 -0.284668 0.8310547
v 0.09691896 0.3642447 0.2503808
vt 0.6674054 0.2584418
vn -0.9257813 -0.2563477 0.2770996
v 0.1056335 0.3242618 0.2363744
vt 0.6650308 0.2948807
vn 0.1233521 -0.8989258 -0.420166
v 0.1114413 0.3562693 0.2167018
vt 0.6666417 0.325935
vn -0.6069336 -0.3330078 -0.7211914
v 0.1182664 0.3562627 0.2194456
vt 0.6606247 0.3259338
vn 0.9287109 -0.3703613 -0.006965637
v -0.1056335 0.3242618 0.2363744
vt 0.3349692 0.2948807
vn -0.1233521 -0.8989258 -0.420166
v -0.1182664 0.3562627 0.2194456
vt 0.3393753 0.3259338
vn -0.9287109 -0.3703613 -0.006965637
v -0.1114413 0.3562693 0.2167018
vt 0.3333583 0.325935
vn 0.6069336 -0.3330078 -0.7211914
v -0.09691896 0.3642447 0.2503808
vt 0.3325946 0.2584418
vn 0.9257813 -0.2563477 0.2770996
v -0.1037441 0.3642382 0.2531247
vt 0.3386116 0.2584412
vn -0.4770508 -0.284668 0.8310547
v -0.1044517 0.3250992 0.2393163
vt 0.3349688 0.2921984
vn 0.2580566 -0.706543 0.6586914
v -0.08015191 0.3327181 0.27645
vt 0.3816921 0.2975023
vn -0.2467041 -0.887207 -0.3886719
v -0.09887164 0.3674186 0.2616493
vt 0.3853965 0.323806
vn -0.8950195 -0.3972168 0.2006836
v -0.09281903 0.3674255 0.25703
vt 0.380594 0.3238063
vn 0.3820801 -0.3408203 -0.8583984
v -0.06829049 0.3776101 0.2891845
vt 0.3805923 0.2661952
vn 0.9731445 -0.2259521 0.03521729
v -0.0743431 0.3776033 0.2938038
vt 0.3853949 0.2661952
vn -0.2561035 -0.2866211 0.9228516
v -0.07815566 0.3335469 0.2790669
vt 0.3816921 0.2953614
vn 0.4504395 -0.6733398 0.5854492
v -0.06843925 0.3775659 0.2996046
vt 0.3621029 0.3381426
vn -0.890625 -0.298584 0.3422852
v -0.06349176 0.3775727 0.2938043
vt 0.3562553 0.3381428
vn 0.230957 -0.3613281 -0.9033203
v -0.04908905 0.3363551 0.3139794
vt 0.3608872 0.3015432
vn 0.1173706 -0.9848633 0.1240845
vt 0.3608873 0.2989365
v -0.03270344 0.3878452 0.320078
vt 0.3562577 0.2588038
vn 0.9433594 -0.2790527 -0.1773682
v -0.03765092 0.3878385 0.3258783
vt 0.3621053 0.2588041
vn -0.01476288 -0.2219238 0.9746094
v -0.1037746 0.3480357 0.2464166
vt 0.4833324 0.6863261
vn -0.4592285 0.5546875 0.6933594
v -0.09829273 0.3444834 0.2451738
vt 0.4786316 0.6863246
vn 0.996582 0.07775879 -0.01225281
v -0.1016085 0.3829975 0.2198704
vt 0.4917768 0.6564271
vn 0.3222656 0.8803711 -0.347168
vt 0.4917777 0.6543307
v -0.1120158 0.3345909 0.2129195
vt 0.4786564 0.6225102
vn 0.6826172 -0.04211426 -0.7290039
v -0.1174978 0.3381431 0.2141623
vt 0.4833565 0.622512
vn -0.8061523 0.3464355 -0.4787598
v -0.08018382 0.3602344 0.284463
vt 0.4538474 0.6849616
vn -0.1889648 0.6450195 0.7402344
v -0.07521892 0.3562583 0.2823059
vt 0.4491383 0.6849635
vn 0.9677734 0.1084595 -0.2253418
v -0.08638957 0.3947089 0.2528348
vt 0.4642124 0.6544566
vn 0.3046875 0.809082 -0.5014648
vt 0.4642386 0.6523686
v -0.09533226 0.347876 0.2529404
vt 0.4494369 0.6223971
vn 0.6069336 -0.1176758 -0.7856445
v -0.09907761 0.3518519 0.2551145
vt 0.4535306 0.6228762
vn -0.9443359 0.2697754 -0.1861572
v -0.04392703 0.3720612 0.3164965
vt 0.4826831 0.3004935
vn -0.1768799 0.5371094 0.8242188
v -0.0397994 0.3680444 0.3128277
vt 0.4778777 0.3004931
vn 0.8759766 -0.01197815 -0.4819336
v -0.05101496 0.408165 0.2914526
vt 0.4911765 0.2703474
vn 0.7143555 0.6992188 -0.01169586
v -0.05295499 0.4074263 0.2892851
vt 0.4908762 0.2682555
vn -0.2351074 0.4667969 -0.8520508
v -0.06776464 0.3629847 0.2898624
vt 0.4789591 0.237519
vn 0.2216797 -0.08648682 -0.9711914
v -0.07189231 0.3622968 0.2935312
vt 0.4818563 0.2348842
vn -0.862793 0.3920898 0.3181152
v -0.1473412 0.2993093 0.1535394
vt 0.4541606 0.7624764
vn 0.3359375 -0.925293 -0.1740723
v -0.1487909 0.3457036 0.1176941
vt 0.4167659 0.7195349
vn 0.4931641 -0.7314453 -0.4702148
v -0.1336953 0.3412451 0.1862965
vt 0.4855318 0.7195038
vn 0.2375488 -0.9672852 0.0848999
vt 0.8278812 0.03811985
vt 0.8135792 0.009040892
v 0.09272297 0.3580313 0.2708587
vt 0.8263415 0.009787321
vn 0.8237305 0.3579102 0.4387207
vt 0.8387319 0.009394407
vt 0.8683689 0.03935176
vt 0.8570659 0.009891272
v 0.08279315 0.3500791 0.2665446
vt 0.8693703 0.008411765
vn -0.8369141 -0.09777832 -0.5375977
vt 0.881679 0.009230256
vt 0.9734879 0.1862266
vt 0.9637455 0.1574874
v 0.1133772 0.3448655 0.2309109
vt 0.9765226 0.1578001
vn 0.8989258 0.3525391 0.2592773
vt 0.9892862 0.157123
vt 0.9134017 0.03929687
vt 0.9001107 0.008966208
v 0.1024133 0.337761 0.2284252
vt 0.9124134 0.00888133
vn -0.9213867 -0.08789063 -0.3781738
vt 0.9245583 0.01084411
vt 0.7235887 0.08817554
vt 0.7122037 0.06239504
v 0.05551881 0.3826988 0.3156416
vt 0.7245971 0.06055802
vn 0.6074219 -0.1124878 0.7861328
vt 0.7370533 0.05921298
vt 0.7718872 0.08780986
vt 0.7544066 0.05945063
v 0.04562385 0.3827124 0.304041
vt 0.7674103 0.05909753
vn -0.6875 -0.2009277 -0.6972656
vt 0.7804076 0.05963641
vt 0.2195924 0.05963641
v -0.04562385 0.3827124 0.304041
vt 0.2325897 0.05909753
vn 0.6875 -0.2009277 -0.6972656
vt 0.2281128 0.08780992
vt 0.2455934 0.05945063
vt 0.2764113 0.08817554
vt 0.2629467 0.05921304
v -0.05551881 0.3826988 0.3156416
vt 0.2754029 0.06055802
vn -0.6074219 -0.1124878 0.7861328
vt 0.2877963 0.06239498
vt 0.08659834 0.03929687
vt 0.07544172 0.01084411
v -0.1024133 0.337761 0.2284252
vt 0.08758658 0.00888133
vn 0.9213867 -0.08789063 -0.3781738
vt 0.09988934 0.008966208
vt 0.02651215 0.1862266
vt 0.01071382 0.157123
v -0.1133772 0.3448655 0.2309109
vt 0.02347738 0.1578001
vn -0.8989258 0.3525391 0.2592773
vt 0.03625447 0.1574874
vt 0.1316311 0.03935182
vt 0.118321 0.009230256
v -0.08279315 0.3500791 0.2665446
vt 0.1306297 0.008411765
vn 0.8369141 -0.09777832 -0.5375977
vt 0.1429341 0.009891272
vt 0.1721188 0.03811985
vt 0.1612681 0.009394407
v -0.09272297 0.3580313 0.2708587
vt 0.1736585 0.009787321
vn -0.8237305 0.3579102 0.4387207
vt 0.1864208 0.009040892
vt 0.7389125 0.04051965
vt 0.7272313 0.01249266
v 0.05997347 0.3668351 0.3068482
vt 0.7402261 0.00984478
vn 0.6713867 0.3818359 0.6342773
vt 0.7409735 0.04047483
vt 0.7527773 0.009000063
vt 0.7812296 0.04193354
vt 0.770749 0.01418895
v 0.05171822 0.3564672 0.2995107
vt 0.7821926 0.009034872
vn -0.6416016 -0.137085 -0.7543945
vt 0.7831368 0.04197633
vt 0.7944171 0.0147171
vt 0.809448 0.08604854
vt 0.7975621 0.06251949
v 0.08908311 0.3725075 0.2794564
vt 0.8105137 0.06047624
vn 0.7368164 -0.2075195 0.6430664
vt 0.8115896 0.08578229
vt 0.8237212 0.05924809
vt 0.7326201 0.1376643
vt 0.720044 0.1103742
v 0.07752845 0.3725212 0.2707976
vt 0.7337343 0.1118555
vn -0.8164063 -0.1254883 -0.5629883
vt 0.7348425 0.1379519
vt 0.7473507 0.1139094
vt 0.8498585 0.08587819
vt 0.8370283 0.06196225
v 0.1128574 0.3614039 0.238181
vt 0.8510109 0.0590902
vn 0.8803711 -0.1860352 0.4353027
vt 0.8521778 0.08545333
vt 0.86354 0.05835831
vt 0.8505631 0.1377717
vt 0.8390824 0.1103135
v 0.1007675 0.361417 0.233404
vt 0.8517475 0.1112335
vn -0.9262695 -0.1428223 -0.3483887
vt 0.8529217 0.1382129
vt 0.8661746 0.1142836
vt 0.1470783 0.1382129
vt 0.1338254 0.1142836
v -0.1007675 0.361417 0.233404
vt 0.1482525 0.1112335
vn 0.9262695 -0.1428223 -0.3483887
vt 0.1494369 0.1377717
vt 0.1609176 0.1103135
vt 0.1478222 0.08545333
vt 0.13646 0.05835831
v -0.1128574 0.3614039 0.238181
vt 0.1489891 0.0590902
vn -0.8803711 -0.1860352 0.4353027
vt 0.1501415 0.08587819
vt 0.1629717 0.06196225
vt 0.1884104 0.08578229
vt 0.1762788 0.05924809
v -0.08908311 0.3725075 0.2794564
vt 0.1894863 0.06047618
vn -0.7368164 -0.2075195 0.6430664
vt 0.190552 0.08604854
vt 0.2024379 0.06251949
vt 0.2168632 0.04197633
vt 0.2055829 0.0147171
v -0.05171822 0.3564672 0.2995107
vt 0.2178074 0.009034872
vn 0.6416016 -0.137085 -0.7543945
vt 0.2187704 0.04193354
vt 0.229251 0.01418889
vt 0.2590265 0.04047483
vt 0.2472227 0.009000063
v -0.05997347 0.3668351 0.3068482
vt 0.2597739 0.00984478
vn -0.6713867 0.3818359 0.6342773
vt 0.2610875 0.0405196
vt 0.2727687 0.01249266
v -3.232257E-10 0.4901225 -0.5727717
vt 0.8715572 0.7435535
vn 0 0.6503906 -0.7587891
v 0.01576157 0.4030456 -0.5527008
vt 0.9315947 0.7345971
vn 0.9897461 0.05221558 -0.1293945
v 2.911723E-09 0.4150764 -0.5966054
vt 0.9205798 0.7632775
vn 0 0.119751 -0.9926758
v 1.683495E-09 0.4932403 -0.5552039
vt 0.8703506 0.7320729
vn 0 0.9921875 0.1218872
v 0.021688 0.3761174 -0.4520923
vt 0.9550167 0.6686124
vn 0.9970703 0.07067871 -0.02734375
v -5.333256E-10 0.4470285 -0.4516961
vt 0.905892 0.6644215
vn 0 0.9458008 0.3234863
v 0.01685363 0.3872336 -0.3655976
vt 0.9522895 0.6094497
vn 0.9287109 0.3691406 0.02629089
v -2.515889E-10 0.4030031 -0.3654712
vt 0.9369063 0.6075548
vn 0 0.9487305 0.3154297
v 0.02428706 0.3538997 -0.3656073
vt 0.9752594 0.6127769
vn 0.9907227 0.1018066 -0.0881958
v 0.02252605 0.3912651 -0.3397718
vt 0.9539131 0.5907518
vn 0.7568359 0.4645996 -0.4587402
v 0.03388789 0.3539811 -0.3396583
vt 0.9802683 0.5958157
vn 0.8681641 0.1531982 -0.4711914
v -8.674026E-10 0.4067176 -0.3398387
vt 0.9355818 0.5908948
vn 0 0.8549805 -0.5180664
v 0.06004522 0.3861805 -0.2789268
vt 0.9766074 0.5476798
vn 0.8300781 0.3059082 -0.465332
v 0.03649133 0.4284589 -0.279134
vt 0.9446623 0.5420899
vn 0.6181641 0.5664063 -0.5449219
v 1.333828E-10 0.4483114 -0.2789527
vt 0.9168193 0.545348
vn 0 0.7485352 -0.6625977
v 0.0753613 0.4339128 -0.2151521
vt 0.9634629 0.4949523
vn 0.8295898 0.3596191 -0.4262695
v 2.771236E-09 0.5119473 -0.2164657
vt 0.8894684 0.4916363
vn 0 0.7553711 -0.6547852
v 0.04684069 0.4828973 -0.2151992
vt 0.9261193 0.488127
vn 0.6088867 0.5717773 -0.5488281
v 0.08917956 0.4866475 -0.1397595
vt 0.9478666 0.4337903
vn 0.862793 0.3835449 -0.3286133
v 0.05534438 0.5417157 -0.1402307
vt 0.9053239 0.4277889
vn 0.6254883 0.6513672 -0.4287109
v 2.484536E-09 0.5693281 -0.1401861
vt 0.8642662 0.4315669
vn 0 0.8364258 -0.5473633
v 0.09474131 0.5261892 -0.0610451
vt 0.9343123 0.3749902
vn 0.8496094 0.467041 -0.2446289
v 0.03356873 0.5996112 -0.06110472
vt 0.8702127 0.3709108
vn 0.5625 0.7705078 -0.2988281
v 6.293639E-10 0.6083853 -0.06042182
vt 0.8475096 0.3728104
vn 0 0.934082 -0.3562012
v 3.375628E-10 0.6236266 -0.0007394282
vt 0.84255 0.3307564
vn 0 0.9946289 -0.1001587
v 0.06376197 0.5915585 -0.0009744701
vt 0.889953 0.3306987
vn 0.6894531 0.7177734 -0.0914917
v 0.1002894 0.5394394 -0.0007537356
vt 0.9322026 0.3329184
vn 0.8676758 0.4953613 -0.03146362
v 0.03437628 0.6142165 0.09041736
vt 0.8666429 0.2698022
vn 0.4733887 0.8745117 0.1012573
v -2.10355E-09 0.6235543 0.0901818
vt 0.8432314 0.2684023
vn 0 0.9882813 0.1501465
v 1.593285E-09 0.5950526 0.1817684
vt 0.8574597 0.2035038
vn 0 0.8959961 0.4436035
v 0.062266 0.5866954 0.1269062
vt 0.8924758 0.2458467
vn 0.7573242 0.640625 0.1243286
v 0.09344331 0.5358127 0.1268743
vt 0.9318728 0.2442203
vn 0.8706055 0.482666 0.09429932
v 0.08870357 0.5292875 0.158353
vt 0.93262 0.2218634
vn 0.8505859 0.4658203 0.243042
v 0.05759122 0.5699221 0.1846156
vt 0.898409 0.2072348
vn 0.5522461 0.7119141 0.432373
v -1.054516E-09 0.5415363 0.25883
vt 0.8818973 0.1442879
vn 0 0.7700195 0.6376953
v 0.08261125 0.5154907 0.1987905
vt 0.9359179 0.1920902
vn 0.7758789 0.4616699 0.4291992
v 0.04056002 0.4932695 0.2878278
vt 0.9235987 0.1253477
vn 0.4599609 0.559082 0.6894531
v -1.926137E-09 0.5053948 0.2886178
vt 0.8972914 0.1165278
vn 0 0.5952148 0.8032227
v 0.0746371 0.4889392 0.2402131
vt 0.9436376 0.1586355
vn 0.7631836 0.4611816 0.4519043
v 0.07052589 0.471753 0.2617785
vt 0.9487973 0.1407031
vn 0.8061523 0.359375 0.4694824
v 0.06648114 0.4562162 0.2787224
vt 0.9539066 0.1250006
vn 0.7509766 0.3562012 0.5551758
v 0.06396983 0.4423422 0.2900524
vt 0.9584913 0.11349
vn 0.7070313 0.3508301 0.6137695
v 1.789241E-09 0.4328406 0.3384262
vt 0.9309042 0.06701362
vn 0 0.427002 0.9038086
v 0.06059081 0.4200275 0.3065255
vt 0.9669318 0.09625113
vn 0.559082 0.3376465 0.7568359
v 0.02803254 0.382859 0.3453668
vt 0.9669965 0.05375671
vn 0.432373 0.1330566 0.8916016
v 7.79385E-10 0.3838376 0.3483378
vt 0.953195 0.04141539
vn 0 -0.9345703 0.3547363
v 0.06050291 0.4006172 0.3142706
vt 0.9750245 0.08475363
vn 0.6508789 0.2595215 0.7128906
v 0.05913907 0.3769133 0.3226711
vt 0.9865055 0.07095671
vn 0.2651367 -0.8085938 0.5244141
vt 0.2526493 0.1139094
v -0.07752845 0.3725212 0.2707976
vt 0.2662657 0.1118555
vn 0.8164063 -0.1254883 -0.5629883
vt 0.2651575 0.1379519
vt 0.2673799 0.1376643
vt 0.279956 0.1103742
vt 0.07942021 0.7632775
v -0.01576157 0.4030456 -0.5527008
vt 0.06840527 0.7345971
vn -0.9897461 0.05221558 -0.1293945
vt 0.1284428 0.7435535
vt 0.1296494 0.7320729
v -0.021688 0.3761174 -0.4520923
vt 0.04498327 0.6686124
vn -0.9970703 0.07067871 -0.02734375
vt 0.09410799 0.6644215
v -0.01685363 0.3872336 -0.3655976
vt 0.04771048 0.6094497
vn -0.9287109 0.3691406 0.02629089
vt 0.06309366 0.6075548
v -0.02428706 0.3538997 -0.3656073
vt 0.02474064 0.6127769
vn -0.9907227 0.1018066 -0.0881958
v -0.02252605 0.3912651 -0.3397718
vt 0.04608691 0.5907518
vn -0.7568359 0.4645996 -0.4587402
v -0.03388789 0.3539811 -0.3396583
vt 0.0197317 0.5958157
vn -0.8681641 0.1531982 -0.4711914
vt 0.0644182 0.5908948
v -0.06004522 0.3861805 -0.2789268
vt 0.02339256 0.5476798
vn -0.8300781 0.3059082 -0.465332
v -0.03649133 0.4284589 -0.279134
vt 0.05533773 0.5420899
vn -0.6181641 0.5664063 -0.5449219
vt 0.08318067 0.545348
v -0.0753613 0.4339128 -0.2151521
vt 0.03653711 0.4949523
vn -0.8295898 0.3596191 -0.4262695
vt 0.1105316 0.4916363
v -0.04684069 0.4828973 -0.2151992
vt 0.07388073 0.488127
vn -0.6088867 0.5717773 -0.5488281
v -0.08917956 0.4866475 -0.1397595
vt 0.05213344 0.4337903
vn -0.862793 0.3835449 -0.3286133
v -0.05534438 0.5417157 -0.1402307
vt 0.09467608 0.4277889
vn -0.6254883 0.6513672 -0.4287109
vt 0.1357338 0.4315669
v -0.09474131 0.5261892 -0.0610451
vt 0.06568766 0.3749902
vn -0.8496094 0.467041 -0.2446289
v -0.03356873 0.5996112 -0.06110472
vt 0.1297873 0.3709108
vn -0.5625 0.7705078 -0.2988281
vt 0.1524904 0.3728104
vt 0.15745 0.3307564
v -0.06376197 0.5915585 -0.0009744701
vt 0.110047 0.3306987
vn -0.6894531 0.7177734 -0.0914917
v -0.1002894 0.5394394 -0.0007537356
vt 0.06779736 0.3329184
vn -0.8676758 0.4953613 -0.03146362
v -0.03437628 0.6142165 0.09041736
vt 0.1333571 0.2698022
vn -0.4733887 0.8745117 0.1012573
vt 0.1567686 0.2684023
vt 0.1425403 0.2035038
v -0.062266 0.5866954 0.1269062
vt 0.1075242 0.2458467
vn -0.7573242 0.640625 0.1243286
v -0.09344331 0.5358127 0.1268743
vt 0.06812716 0.2442203
vn -0.8706055 0.482666 0.09429932
v -0.08870357 0.5292875 0.158353
vt 0.06737995 0.2218634
vn -0.8505859 0.4658203 0.243042
v -0.05759122 0.5699221 0.1846156
vt 0.101591 0.2072348
vn -0.5522461 0.7119141 0.432373
vt 0.1181027 0.1442879
v -0.08261125 0.5154907 0.1987905
vt 0.06408215 0.1920902
vn -0.7758789 0.4616699 0.4291992
v -0.04056002 0.4932695 0.2878278
vt 0.07640129 0.1253477
vn -0.4599609 0.559082 0.6894531
vt 0.1027086 0.1165278
v -0.0746371 0.4889392 0.2402131
vt 0.05636239 0.1586355
vn -0.7631836 0.4611816 0.4519043
v -0.07052589 0.471753 0.2617785
vt 0.05120265 0.1407031
vn -0.8061523 0.359375 0.4694824
v -0.06648114 0.4562162 0.2787224
vt 0.0460934 0.1250006
vn -0.7509766 0.3562012 0.5551758
v -0.06396983 0.4423422 0.2900524
vt 0.04150867 0.11349
vn -0.7070313 0.3508301 0.6137695
vt 0.06909579 0.06701362
v -0.06059081 0.4200275 0.3065255
vt 0.03306824 0.09625113
vn -0.559082 0.3376465 0.7568359
v -0.02803254 0.382859 0.3453668
vt 0.03300351 0.05375671
vn -0.432373 0.1330566 0.8916016
vt 0.04680502 0.04141539
v -0.06050291 0.4006172 0.3142706
vt 0.02497554 0.08475363
vn -0.6508789 0.2595215 0.7128906
v -0.05913907 0.3769133 0.3226711
vt 0.01349449 0.07095671
vn -0.2651367 -0.8085938 0.5244141
v 0.08604296 0.3180174 0.07359281
vt 0.5589196 0.3212728
vn 0.06033325 -0.9536133 0.2944336
v 0.1048529 0.3163632 0.1091495
vt 0.5660601 0.2985406
vn -0.09088135 0.9887695 -0.1171265
v 0.1415092 0.342007 0.1213354
vt 0.5922718 0.2899138
vn 0.1048584 -0.9545898 0.2775879
v 0.1101231 0.3232524 0.14372
vt 0.5683405 0.2783254
vn -0.1004028 0.9765625 -0.189209
v 0.1440585 0.3378264 0.1421091
vt 0.5907875 0.2762835
vn 0.8530273 0.5043945 0.1314697
v 0.1479473 0.3374296 0.1194022
vt 0.5962561 0.2883482
vn 0.9521484 0.08966064 0.2910156
v 0.09162233 0.3419625 0.2384534
vt 0.5536777 0.2233691
vn 0.04302979 0.9697266 -0.239502
v 0.1232826 0.3552598 0.235846
vt 0.5731513 0.2214344
vn 0.8066406 0.5849609 0.07910156
v 0.05342251 0.3612762 0.2897412
vt 0.5314534 0.1914244
vn 0.01875305 0.9580078 -0.284668
v 0.08502471 0.3840332 0.327777
vt 0.5482942 0.166788
vn 0.6723633 0.5825195 0.4555664
v -3.003428E-09 0.4072603 0.3642369
vt 0.5 0.1423866
vn 0 0.6533203 0.7563477
v 3.049587E-10 0.36453 0.3035352
vt 0.5 0.183467
vn 0 0.9472656 -0.3190918
v -0.05342251 0.3612762 0.2897412
vt 0.4685466 0.1914244
vn -0.01875305 0.9580078 -0.284668
v -0.08502471 0.3840332 0.327777
vt 0.4517058 0.166788
vn -0.6723633 0.5825195 0.4555664
v -0.1232826 0.3552598 0.235846
vt 0.4268487 0.2214344
vn -0.8066406 0.5849609 0.07910156
v -0.09162233 0.3419625 0.2384534
vt 0.4463223 0.2233691
vn -0.04302979 0.9697266 -0.239502
v -0.1440585 0.3378264 0.1421091
vt 0.4092125 0.2762835
vn -0.8530273 0.5043945 0.1314697
v -0.1101231 0.3232524 0.14372
vt 0.4316595 0.2783254
vn 0.1004028 0.9765625 -0.189209
v -0.1415092 0.342007 0.1213354
vt 0.4077282 0.2899138
vn -0.1048584 -0.9545898 0.2775879
v -0.1479473 0.3374296 0.1194022
vt 0.4037439 0.2883482
vn -0.9521484 0.08966064 0.2910156
v -0.1048529 0.3163632 0.1091495
vt 0.4339399 0.2985406
vn 0.09088135 0.9887695 -0.1171265
v -0.08604296 0.3180174 0.07359281
vt 0.4410804 0.3212728
vn -0.08782959 -0.9418945 0.3232422
vt 0.5878784 0.3774072
vt 0.5928219 0.375643
vt 0.5831676 0.4178309
v 0.07516623 0.3519192 0.2059201
vt 0.5465094 0.4303133
vn -0.007888794 -0.9741211 0.223877
v 0.1045692 0.3618802 0.2664932
vt 0.5639416 0.4681419
vn 0.04428101 -0.965332 0.2570801
vt 0.5530431 0.345614
vt 0.5 0.5197914
vt 0.5359772 0.5036139
vt 0.5163161 0.5165268
v -0.07516623 0.3519192 0.2059201
vt 0.4534906 0.4303133
vn 0.00869751 -0.9750977 0.2209473
v 4.116868E-32 0.3124561 0.04880627
vt 0.5 0.3303892
vn -0.003412247 -0.9819336 0.1882324
vt 0.4469569 0.345614
vt 0.4121216 0.3774072
vt 0.4836839 0.5165268
vt 0.4640228 0.5036139
v -0.1045692 0.3618802 0.2664932
vt 0.4360584 0.4681419
vn -0.04428101 -0.965332 0.2570801
vt 0.4168324 0.4178309
vt 0.4071781 0.375643
vt 0.6782266 0.1077147
vt 0.6616517 0.162201
v 0.02434591 0.3180832 -0.3655284
vt 0.6389751 0.1611773
vn 0.9916992 -0.09631348 -0.08148193
v 0.01485781 0.265126 -0.4522158
vt 0.6077027 0.1041734
vn 0.9897461 -0.1390381 -0.01242828
v 0.01681732 0.2959754 -0.3655197
vt 0.6241215 0.1603498
vn 0.8588867 -0.4997559 0.1104126
vt 0.6985313 0.04461873
v -1.384525E-10 0.279849 -0.3654816
vt 0.609421 0.1608642
vn 0 -0.9384766 0.3447266
v -2.226155E-10 0.2397482 -0.4519639
vt 0.5891896 0.1035953
vn 0 -0.9438477 0.3300781
v 7.478257E-10 0.2953939 -0.5935406
vt 0.6312649 0.01514131
vn 0 -0.2556152 -0.9663086
vt 0.7072751 0.0170188
v -4.358484E-09 0.1958311 -0.5624424
vt 0.5670505 0.03134894
vn 0 -0.4064941 -0.9135742
v 0.0128969 0.2464698 -0.5119813
vt 0.5978299 0.0654484
vn 0.9921875 -0.1040039 -0.06768799
v 2.857664E-10 0.1916824 -0.5460634
vt 0.5635851 0.04130471
vn 0 -0.9736328 0.2276611
v 0.1177491 0.1905385 0.109509
vt 0.5751618 0.7928402
vn 0.5668945 -0.8198242 0.07519531
v 0.109406 0.2126077 0.2247352
vt 0.5693746 0.8652254
vn 0.6044922 -0.7626953 0.2298584
v 0.05921093 0.1639129 0.1094043
vt 0.5364739 0.7892356
vn 0.2587891 -0.9628906 0.07000732
v 0.05775467 0.1873575 0.232051
vt 0.5346287 0.8644294
vn 0.2800293 -0.9189453 0.2768555
v 0.1017755 0.2318861 0.2791173
vt 0.5646817 0.9015062
vn 0.6298828 -0.6582031 0.4118652
v 1.188726E-09 0.15874 0.1095095
vt 0.5 0.7883657
vn 0 -0.9975586 0.06964111
v 0.05364076 0.2457566 0.3467321
vt 0.5325485 0.9423711
vn 0.2114258 -0.800293 0.5605469
v 0.0839051 0.2797199 0.3724155
vt 0.5510301 0.9654766
vn 0.6772461 -0.003732681 0.7353516
v 2.76196E-09 0.2883413 0.404901
vt 0.5 0.9859563
vn 0 -0.02119446 0.9995117
v 1.139642E-09 0.1819868 0.2335539
vt 0.5 0.8643672
vn 0 -0.9716797 0.2349854
v 8.526461E-10 0.2030171 0.2926514
vt 0.5 0.9016431
vn 0 -0.8759766 0.4821777
v -0.05775467 0.1873575 0.232051
vt 0.4653713 0.8644294
vn -0.2800293 -0.9189453 0.2768555
v -0.05921093 0.1639129 0.1094043
vt 0.4635261 0.7892356
vn -0.2587891 -0.9628906 0.07000732
v -0.05364076 0.2457566 0.3467321
vt 0.4674515 0.9423711
vn -0.2114258 -0.800293 0.5605469
v -0.0839051 0.2797199 0.3724155
vt 0.4489699 0.9654766
vn -0.6772461 -0.003732681 0.7353516
v -0.1017755 0.2318861 0.2791173
vt 0.4353183 0.9015062
vn -0.6298828 -0.6582031 0.4118652
v -0.109406 0.2126077 0.2247352
vt 0.4306254 0.8652254
vn -0.6044922 -0.7626953 0.2298584
v -0.1177491 0.1905385 0.109509
vt 0.4248382 0.7928402
vn -0.5668945 -0.8198242 0.07519531
v -0.4450729 0.4543299 0.07964114
vt 0.05977213 0.8780479
vn -0.1315918 -0.04202271 0.9902344
v -0.3811058 0.4541917 0.0788344
vt 0.0862689 0.8763743
vn 0.09954834 0.9946289 0.02520752
v -0.4451408 0.4606332 0.07743642
vt 0.06002009 0.8807587
vn -0.07208252 0.03640747 -0.996582
v -0.3178283 0.4365538 0.08493087
vt 0.1113814 0.8671151
vn -0.01742554 0.1401367 0.9897461
v -0.2816138 0.4317872 0.07846485
vt 0.1263939 0.8664456
vn 0.2697754 0.9365234 0.2219238
v -0.3735963 0.4025347 0.08184551
vt 0.08731878 0.8535063
vn -0.09460449 0.0430603 0.9941406
v -0.1997792 0.3981293 0.08941086
vt 0.1599329 0.851945
vn 0.07598877 0.2404785 0.9672852
v -0.1541664 0.3839828 0.07841832
vt 0.1804262 0.8481235
vn 0.4194336 0.9077148 0
v -0.2963332 0.3615945 0.08951443
vt 0.1200652 0.8361996
vn -0.03051758 -0.003816605 0.9995117
v -0.4726269 0.3312211 0.08407524
vt 0.04713464 0.8225561
vn -0.06616211 -0.1843262 0.9804688
v -0.4748825 0.3712151 0.0819254
vt 0.04591405 0.8388465
vn -0.08422852 0.2352295 0.9682617
v -0.5400385 0.3525067 0.07830801
vt 0.01912761 0.8308305
vn -0.3703613 0.2156982 0.9033203
v -0.539256 0.3421623 0.07816133
vt 0.01945186 0.8264956
vn -0.3056641 -0.2420654 -0.9204102
v -0.3682644 0.3118584 0.07906356
vt 0.090253 0.8142131
vn -0.8618164 -0.4660645 -0.1992188
v -0.2760914 0.2973632 0.08674417
vt 0.1293267 0.8100149
vn 0.008926392 -0.1462402 0.9887695
v -0.4337908 0.2501688 0.07836066
vt 0.06661022 0.7860437
vn -0.3847656 0.2629395 -0.8842773
v -0.3695965 0.2586167 0.07766505
vt 0.09260523 0.7913919
vn 0.06835938 -0.5400391 -0.8383789
v -0.2735692 0.2935778 0.0783079
vt 0.1308173 0.8072371
vn 0.3337402 -0.8417969 -0.4233398
v -0.1961162 0.3365491 0.08946937
vt 0.1618299 0.8265588
vn 0.1158447 -0.2692871 0.9555664
v -0.1517352 0.3553342 0.07842229
vt 0.181528 0.8333824
vn 0.6367188 -0.7705078 0.004245758
v -0.1508198 0.375052 0.08997227
vt 0.1794343 0.8427213
vn 0.2104492 0.0262146 0.9770508
v -0.1437998 0.3759372 0.07842946
vt 0.184468 0.8436523
vn 0.9985352 0.05081177 -0.0006055832
v 0.1193975 0.4836597 0.1259477
vt 0.556224 0.5424303
vn 0.9375 0.3366699 0.08233643
vt 0.6118277 0.6059091
vt 0.5414253 0.5737785
v 0.1277152 0.4793713 -0.0007925892
vt 0.6268814 0.5702922
vn 0.9443359 0.3239746 -0.04974365
vt 0.6485613 0.6147389
v 0.1562346 0.3597032 0.1169044
vt 0.5934775 0.472969
vn 0.9707031 0.2218018 0.08898926
v 0.1400346 0.4049894 -0.06093831
vt 0.6770777 0.544232
vn 0.9594727 0.2056885 -0.1905518
vt 0.7032377 0.6131009
v 0.1603227 0.3493717 0.04404891
vt 0.6346115 0.4868385
vn 0.9858398 0.1656494 -0.02401733
v 0.1220154 0.3918397 -0.1397643
vt 0.7239074 0.5574763
vn 0.9375 0.1800537 -0.296875
vt 0.7606 0.6027597
v 0.1563738 0.3452117 -0.0009021066
vt 0.6592965 0.4965103
vn 0.9868164 0.1038208 -0.1240234
v 0.1479219 0.2864811 -0.06095792
vt 0.7058296 0.4812673
vn 0.9731445 -0.07061768 -0.2175293
v 0.1534387 0.2779069 -0.0007655239
vt 0.6767291 0.4611523
vn 0.9853516 -0.1281738 -0.1115723
v 0.09757932 0.3698082 -0.2152755
vt 0.7726812 0.564094
vn 0.918457 0.12854 -0.3735352
vt 0.8097687 0.5897517
v 0.1261613 0.2972879 -0.1399179
vt 0.7462794 0.5066016
vn 0.9462891 -0.07556152 -0.3134766
v 0.07300278 0.3315035 -0.2799994
vt 0.8196314 0.5580785
vn 0.8837891 -0.09356689 -0.4575195
vt 0.8543456 0.5848072
v 0.1124771 0.2519994 -0.1393335
vt 0.759209 0.4823289
vn 0.8300781 -0.4455566 -0.3347168
vt 0.8694767 0.590992
vt 0.877525 0.5714064
v 0.1329726 0.2366704 -0.06052082
vt 0.719947 0.4551576
vn 0.8510742 -0.4624023 -0.2480469
v 0.03389263 0.3179426 -0.3399384
vt 0.8626098 0.5648225
vn 0.8486328 -0.2407227 -0.470459
v 0.02073703 0.2938372 -0.3396193
vt 0.8720164 0.5504942
vn 0.6796875 -0.5805664 -0.4472656
vt 0.8847713 0.5597681
v 0.04317663 0.2644093 -0.2797623
vt 0.8423696 0.520501
vn 0.6235352 -0.612793 -0.484375
v 1.853383E-09 0.2795262 -0.339611
vt 0.8823485 0.539268
vn 0 -0.8740234 -0.4851074
vt 0.8936629 0.5493975
v 1.367799E-10 0.244389 -0.2792542
vt 0.862991 0.501927
vn 0 -0.8842773 -0.4660645
v 0.0872834 0.2698157 -0.215214
vt 0.7979234 0.5097222
vn 0.8422852 -0.3427734 -0.4155273
v 0.03906383 0.2095793 -0.1775568
vt 0.8089289 0.4593471
vn 0.2929688 -0.8789063 -0.3754883
v 2.555448E-09 0.2209961 -0.2153471
vt 0.8412635 0.4660952
vn 0 -0.9375 -0.347168
v 0.06385565 0.2415417 -0.2148515
vt 0.8106857 0.4923266
vn 0.5717773 -0.7124023 -0.4055176
v 2.940231E-09 0.1919922 -0.1393709
vt 0.8118061 0.4246137
vn 0 -0.9633789 -0.2668457
v 0.08475161 0.2194131 -0.1393751
vt 0.7738287 0.4620314
vn 0.5986328 -0.7353516 -0.3171387
v 0.04364828 0.1963493 -0.1393676
vt 0.792284 0.4415207
vn 0.2937012 -0.9165039 -0.270752
v 0.05230594 0.1789836 -0.06051755
vt 0.7561275 0.4088995
vn 0.2529297 -0.9458008 -0.2027588
v 1.035835E-09 0.1760584 -0.06051733
vt 0.7778211 0.3869528
vn 0 -0.9838867 -0.1760254
v 1.019913E-10 0.167187 -0.0008728824
vt 0.7501808 0.36113
vn 0 -0.9946289 -0.1004639
v 0.1017817 0.2022326 -0.06051723
vt 0.7354591 0.4331636
vn 0.5610352 -0.7900391 -0.2451172
v 0.05658311 0.1704084 -0.0008404737
vt 0.7279019 0.3861846
vn 0.2445068 -0.9643555 -0.09838867
vt 0.697214 0.3189716
vt 0.6751016 0.3468035
vt 0.6516518 0.3781266
v 0.1108292 0.1946069 -0.0008540388
vt 0.7061399 0.4133636
vn 0.5649414 -0.8178711 -0.107605
v 0.1419751 0.2295423 -0.0008584117
vt 0.6908262 0.4358861
vn 0.8613281 -0.4936523 -0.1166992
v 0.1466846 0.224407 0.1082575
vt 0.6372638 0.401391
vn 0.8681641 -0.4921875 0.05682373
v 0.1554511 0.2646214 0.1081822
vt 0.6243488 0.4231024
vn 0.984375 -0.1737061 -0.004638672
v 0.1571353 0.2713064 0.04402159
vt 0.6553026 0.4454587
vn 0.9833984 -0.1737061 -0.0425415
v 0.159345 0.2980007 0.09143299
vt 0.623373 0.4465041
vn 0.9980469 -0.02980042 0.05218506
v 0.1530399 0.2964509 0.1116539
vt 0.6125814 0.4391922
vn 0.9819336 0.08111572 0.1697998
vt 0.596302 0.4591664
v 0.1570677 0.3402522 0.1109868
vt 0.6019137 0.464385
vn 0.9858398 -0.01754761 0.1654053
vt 0.5950624 0.4643567
vt 0.5928681 0.4628038
v 1.222662E-09 0.6876314 0.1189469
vt 0.8298311 0.9257567
vn 0 0.7407227 0.6713867
v 4.116868E-32 0.6131285 0.1154732
vt 0.8506389 0.8949933
vn 0 -0.04656982 0.9985352
v 0.01524938 0.6131284 0.1030744
vt 0.8586838 0.9005799
vn 0.9169922 0.0993042 0.3857422
v 0.01206149 0.641342 0.07734462
vt 0.8620296 0.9204644
vn 0.9736328 0.2070313 0.09558105
v 0.01583859 0.6161724 0.07479319
vt 0.8689613 0.90931
vn 0.9887695 0.1312256 0.06451416
v 6.303183E-11 0.6511142 0.0780199
vt 0.8567567 0.9268533
vn 0 0.9526367 0.3027344
v 0.01561798 0.6449741 0.03178652
vt 0.8842235 0.930085
vn 0.9873047 0.1575928 0.001196861
v 0.01928287 0.6106012 0.03258147
vt 0.8889254 0.9136267
vn 0.9931641 0.1089478 0.02798462
v 0.008450119 0.6983052 0.05332787
vt 0.8650395 0.9518413
vn 0.9467773 0.2578125 0.1906738
v -0.008450119 0.6983052 0.05332787
vt 0.8614287 0.9521487
vn -0.9467773 0.2578125 0.1906738
v 2.257911E-10 0.7555978 0.02873139
vt 0.8667021 0.9835804
vn 0 0.6894531 -0.7241211
v -1.438593E-08 0.701104 0.0009444412
vt 0.8898479 0.9626998
vn 0 0.7739258 -0.6328125
v 0.01529771 0.645475 -0.01375946
vt 0.9073612 0.9375319
vn 0.9819336 0.1846924 -0.03308105
v 0.01978444 0.6066521 -0.01224496
vt 0.9095424 0.9169847
vn 0.9926758 0.1134033 -0.03363037
v 3.621004E-31 0.6571528 -0.01641225
vt 0.9075437 0.9477855
vn 0 0.9907227 -0.1335449
v 0.01770918 0.6011835 -0.04976218
vt 0.9270784 0.9158087
vn 0.9931641 0.09307861 -0.0692749
v 0.009221474 0.6881987 -0.04991471
vt 0.9273466 0.9591836
vn 0.9833984 0.1806641 -0.004852295
v 2.64992E-30 0.6897377 -0.04274973
vt 0.9228622 0.9617522
vn 0 0.6411133 0.7670898
v -1.382784E-10 0.7416587 -0.08742522
vt 0.9468001 0.9862712
vn 0 0.4216309 -0.9067383
v 1.036472E-09 0.6815131 -0.1015408
vt 0.95425 0.9557413
vn 0 0.5327148 -0.8457031
v 0.01189053 0.628944 -0.09729917
vt 0.9521126 0.9284328
vn 0.980957 0.1484375 -0.1222534
v 1.025341E-10 0.6367966 -0.1015527
vt 0.9572353 0.9341126
vn 0 0.8374023 -0.5458984
v 0.01513941 0.5872445 -0.08135214
vt 0.941291 0.908067
vn 0.9941406 0.03598022 -0.09875488
v -1.564816E-09 0.6463496 -0.1618761
vt 0.9872574 0.9279529
vn 0 0.5825195 -0.8125
v 0.008946057 0.6062415 -0.137227
vt 0.9699408 0.9121444
vn 0.9487305 -0.0252533 -0.3146973
v 0.01139005 0.5729134 -0.1200649
vt 0.9585068 0.8972178
vn 0.965332 -0.05978394 -0.253418
v -6.093167E-31 0.5670848 -0.1312227
vt 0.9653907 0.8921323
vn 0 -0.3825684 -0.9238281
v -4.823221E-31 0.1972078 -0.1288666
vt 0.1284945 0.6110814
vn 0 -0.7573242 0.6523438
v -0.01527731 0.2009095 -0.1403829
vt 0.1395887 0.6132813
vn -0.9023438 -0.3500977 0.2504883
v 1.101554E-31 0.1551721 -0.1776751
vt 0.1340343 0.6478468
vn 0 -0.7744141 0.6323242
v -0.01147457 0.1585505 -0.1876185
vt 0.1428623 0.6498814
vn -0.9575195 -0.2612305 0.1184082
v -0.01718049 0.2170069 -0.1890967
vt 0.1659294 0.6261914
vn -0.9956055 -0.09173584 -0.01205444
v 5.180792E-11 0.129082 -0.210459
vt 0.1377438 0.6707371
vn 0 -0.953125 0.302002
v -0.01238137 0.1746699 -0.2309378
vt 0.1680673 0.661737
vn -0.9887695 -0.1483154 -0.01084137
v -0.01716002 0.2342023 -0.235146
vt 0.1908288 0.6349899
vn -0.9975586 -0.05755615 -0.02632141
v -0.007331559 0.1412096 -0.2405637
vt 0.1554894 0.6790166
vn -0.9750977 -0.1436768 -0.1680908
v 4.649952E-11 0.1057998 -0.2471484
vt 0.1413823 0.6951522
vn 0 -0.9438477 0.3288574
v 1.007646E-10 0.1110902 -0.2543479
vt 0.1464181 0.6967484
vn 0 -0.3674316 -0.9296875
v -4.722584E-11 0.1604794 -0.2418581
vt 0.1663107 0.6748683
vn 0 -0.9780273 0.2075195
v 2.358399E-09 0.1193946 -0.3098953
vt 0.1889777 0.7149332
vn 0 -0.9072266 0.4194336
v -0.01454492 0.1919049 -0.2702117
vt 0.1935252 0.6664647
vn -0.9946289 -0.09564209 -0.03588867
v -0.01572042 0.2542536 -0.275776
vt 0.2153462 0.6377665
vn -0.9946289 -0.01139069 -0.09899902
v -0.008554764 0.1367411 -0.3261371
vt 0.203014 0.7110987
vn -0.9926758 -0.1020508 -0.06341553
v 1.180523E-10 0.09586219 -0.3531329
vt 0.2021891 0.7400333
vn 0 -0.9428711 0.3330078
v 1.085997E-10 0.0919843 -0.3691922
vt 0.2090463 0.7469784
vn 0 -0.684082 -0.7290039
v -2.244982E-10 0.1076369 -0.3699574
vt 0.2150945 0.7396734
vn 0 0.1953125 -0.9804688
v -3.756215E-10 0.1543051 -0.3447716
vt 0.2184238 0.7092516
vn 0 0.2888184 -0.9570313
v -0.01189753 0.2140781 -0.3040416
vt 0.2177862 0.6664203
vn -0.9897461 -0.01506042 -0.1394043
v -0.00985356 0.2759419 -0.316611
vt 0.2410464 0.6370581
vn -0.9707031 0.07940674 -0.2247314
v 1.932077E-10 0.2026021 -0.3197183
vt 0.2240287 0.6786166
vn 0 -0.1373291 -0.9902344
v -0.00783779 0.2452786 -0.3381549
vt 0.2443112 0.6579263
vn -0.9389648 0.1477051 -0.3098145
v 5.969732E-31 0.2801339 -0.3238368
vt 0.2484471 0.6363811
vn 0 0.5458984 -0.8374023
v -1.192089E-09 0.1997797 -0.3789047
vt 0.2565055 0.6908128
vn 0 0.07263184 -0.9970703
v -0.005708825 0.2036449 -0.3438998
vt 0.2381159 0.6809517
vn -0.9741211 -0.2039795 -0.09442139
v 1.711878E-10 0.1926226 -0.3755058
vt 0.2531132 0.6940905
vn 0 -0.8862305 -0.4621582
vt 0.8715055 0.6110814
vt 0.8659657 0.6478468
v 0.01527731 0.2009095 -0.1403829
vt 0.8604113 0.6132813
vn 0.9023438 -0.3500977 0.2504883
v 0.01147457 0.1585505 -0.1876185
vt 0.8571377 0.6498814
vn 0.9575195 -0.2612305 0.1184082
vt 0.8622562 0.6707371
v 0.01718049 0.2170069 -0.1890967
vt 0.8340706 0.6261914
vn 0.9956055 -0.09173584 -0.01205444
v 0.007331559 0.1412096 -0.2405637
vt 0.8445106 0.6790166
vn 0.9750977 -0.1436768 -0.1680908
vt 0.8586177 0.6951522
vt 0.8535819 0.6967484
vt 0.8336893 0.6748683
v 0.01238137 0.1746699 -0.2309378
vt 0.8319327 0.661737
vn 0.9887695 -0.1483154 -0.01084137
v 0.01716002 0.2342023 -0.235146
vt 0.8091712 0.6349899
vn 0.9975586 -0.05755615 -0.02632141
vt 0.8110223 0.7149332
v 0.01454492 0.1919049 -0.2702117
vt 0.8064748 0.6664647
vn 0.9946289 -0.09564209 -0.03588867
v 0.01572042 0.2542536 -0.275776
vt 0.7846538 0.6377665
vn 0.9946289 -0.01139069 -0.09899902
v 0.008554764 0.1367411 -0.3261371
vt 0.796986 0.7110987
vn 0.9926758 -0.1020508 -0.06341553
vt 0.7978109 0.7400333
vt 0.7909537 0.7469784
vt 0.7849055 0.7396734
vt 0.7815762 0.7092516
v 0.01189753 0.2140781 -0.3040416
vt 0.7822138 0.6664203
vn 0.9897461 -0.01506042 -0.1394043
v 0.00985356 0.2759419 -0.316611
vt 0.7589536 0.6370581
vn 0.9707031 0.07940674 -0.2247314
vt 0.7759713 0.6786166
v 0.00783779 0.2452786 -0.3381549
vt 0.7556888 0.6579263
vn 0.9389648 0.1477051 -0.3098145
vt 0.7515529 0.6363811
vt 0.7434945 0.6908128
v 0.005708825 0.2036449 -0.3438998
vt 0.7618841 0.6809517
vn 0.9741211 -0.2039795 -0.09442139
vt 0.7468868 0.6940905
vt 0.1493611 0.8949933
vt 0.1701689 0.9257567
v -0.01524938 0.6131284 0.1030744
vt 0.1413162 0.9005799
vn -0.9169922 0.0993042 0.3857422
v -0.01206149 0.641342 0.07734462
vt 0.1379704 0.9204644
vn -0.9736328 0.2070313 0.09558105
vt 0.1432433 0.9268533
v -0.01583859 0.6161724 0.07479319
vt 0.1310387 0.90931
vn -0.9887695 0.1312256 0.06451416
vt 0.1349605 0.9518413
v -0.01561798 0.6449741 0.03178652
vt 0.1157765 0.930085
vn -0.9873047 0.1575928 0.001196861
v -0.01928287 0.6106012 0.03258147
vt 0.1110746 0.9136267
vn -0.9931641 0.1089478 0.02798462
vt 0.1332979 0.9835804
vt 0.1101521 0.9626998
v -0.01529771 0.645475 -0.01375946
vt 0.09263879 0.9375319
vn -0.9819336 0.1846924 -0.03308105
v -0.01978444 0.6066521 -0.01224496
vt 0.09045762 0.9169847
vn -0.9926758 0.1134033 -0.03363037
vt 0.09245628 0.9477855
v -0.01770918 0.6011835 -0.04976218
vt 0.07292157 0.9158087
vn -0.9931641 0.09307861 -0.0692749
v -0.009221474 0.6881987 -0.04991471
vt 0.07265335 0.9591836
vn -0.9833984 0.1806641 -0.004852295
vt 0.07713777 0.9617522
vt 0.05319995 0.9862712
vt 0.04574996 0.9557413
v -0.01189053 0.628944 -0.09729917
vt 0.04788744 0.9284328
vn -0.980957 0.1484375 -0.1222534
vt 0.04276466 0.9341126
v -0.01513941 0.5872445 -0.08135214
vt 0.05870897 0.908067
vn -0.9941406 0.03598022 -0.09875488
vt 0.01274258 0.9279529
v -0.008946057 0.6062415 -0.137227
vt 0.03005916 0.9121444
vn -0.9487305 -0.0252533 -0.3146973
v -0.01139005 0.5729134 -0.1200649
vt 0.04149318 0.8972178
vn -0.965332 -0.05978394 -0.253418
vt 0.03460932 0.8921323
v 0.4451408 0.4606332 0.07743642
vt 0.9399799 0.8807587
vn 0.07208252 0.03640747 -0.996582
v 0.3811058 0.4541917 0.0788344
vt 0.9137311 0.8763743
vn -0.09954834 0.9946289 0.02520752
v 0.4450729 0.4543299 0.07964114
vt 0.9402279 0.8780479
vn 0.1315918 -0.04202271 0.9902344
v 0.3178283 0.4365538 0.08493087
vt 0.8886186 0.8671151
vn 0.01742554 0.1401367 0.9897461
v 0.2816138 0.4317872 0.07846485
vt 0.8736061 0.8664456
vn -0.2697754 0.9365234 0.2219238
v 0.3735963 0.4025347 0.08184551
vt 0.9126812 0.8535063
vn 0.09460449 0.0430603 0.9941406
v 0.1997792 0.3981293 0.08941086
vt 0.8400671 0.851945
vn -0.07598877 0.2404785 0.9672852
v 0.1541664 0.3839828 0.07841832
vt 0.8195738 0.8481235
vn -0.4194336 0.9077148 0
v 0.2963332 0.3615945 0.08951443
vt 0.8799348 0.8361996
vn 0.03051758 -0.003816605 0.9995117
v 0.4726269 0.3312211 0.08407524
vt 0.9528654 0.8225561
vn 0.06616211 -0.1843262 0.9804688
v 0.4748825 0.3712151 0.0819254
vt 0.9540859 0.8388465
vn 0.08422852 0.2352295 0.9682617
v 0.5400385 0.3525067 0.07830801
vt 0.9808724 0.8308305
vn 0.3703613 0.2156982 0.9033203
v 0.539256 0.3421623 0.07816133
vt 0.9805481 0.8264956
vn 0.3056641 -0.2420654 -0.9204102
v 0.3682644 0.3118584 0.07906356
vt 0.909747 0.8142131
vn 0.8618164 -0.4660645 -0.1992188
v 0.2760914 0.2973632 0.08674417
vt 0.8706733 0.8100149
vn -0.008926392 -0.1462402 0.9887695
v 0.4337908 0.2501688 0.07836066
vt 0.9333898 0.7860437
vn 0.3847656 0.2629395 -0.8842773
v 0.3695965 0.2586167 0.07766505
vt 0.9073948 0.7913919
vn -0.06835938 -0.5400391 -0.8383789
v 0.2735692 0.2935778 0.0783079
vt 0.8691827 0.8072371
vn -0.3337402 -0.8417969 -0.4233398
v 0.1961162 0.3365491 0.08946937
vt 0.8381701 0.8265588
vn -0.1158447 -0.2692871 0.9555664
v 0.1517352 0.3553342 0.07842229
vt 0.818472 0.8333824
vn -0.6367188 -0.7705078 0.004241943
v 0.1508198 0.375052 0.08997227
vt 0.8205657 0.8427213
vn -0.2104492 0.0262146 0.9770508
v 0.1437998 0.3759372 0.07842946
vt 0.815532 0.8436523
vn -0.9985352 0.05081177 -0.00060606
vt 0.4585747 0.5737785
vt 0.3881723 0.6059091
v -0.1193975 0.4836597 0.1259477
vt 0.443776 0.5424303
vn -0.9375 0.3366699 0.08233643
v -0.1277152 0.4793713 -0.0007925892
vt 0.3731186 0.5702922
vn -0.9443359 0.3239746 -0.04974365
vt 0.3514387 0.6147389
v -0.1562346 0.3597032 0.1169044
vt 0.4065225 0.472969
vn -0.9707031 0.2218018 0.08898926
v -0.1400346 0.4049894 -0.06093831
vt 0.3229223 0.544232
vn -0.9594727 0.2056885 -0.1905518
vt 0.2967623 0.6131009
v -0.1603227 0.3493717 0.04404891
vt 0.3653885 0.4868385
vn -0.9858398 0.1656494 -0.02401733
v -0.1220154 0.3918397 -0.1397643
vt 0.2760926 0.5574763
vn -0.9375 0.1800537 -0.296875
vt 0.2394 0.6027597
v -0.1563738 0.3452117 -0.0009021066
vt 0.3407035 0.4965103
vn -0.9868164 0.1038208 -0.1240234
v -0.1479219 0.2864811 -0.06095792
vt 0.2941704 0.4812673
vn -0.9731445 -0.07061768 -0.2175293
v -0.1534387 0.2779069 -0.0007655239
vt 0.3232709 0.4611523
vn -0.9853516 -0.1281738 -0.1115723
v -0.09757932 0.3698082 -0.2152755
vt 0.2273188 0.564094
vn -0.918457 0.12854 -0.3735352
vt 0.1902313 0.5897517
v -0.1261613 0.2972879 -0.1399179
vt 0.2537206 0.5066016
vn -0.9462891 -0.07556152 -0.3134766
v -0.07300278 0.3315035 -0.2799994
vt 0.1803686 0.5580785
vn -0.8837891 -0.09356689 -0.4575195
vt 0.1456544 0.5848072
v -0.1124771 0.2519994 -0.1393335
vt 0.240791 0.4823289
vn -0.8300781 -0.4455566 -0.3347168
v -0.02434591 0.3180832 -0.3655284
vt 0.122475 0.5714064
vn -0.9916992 -0.09631348 -0.08148193
vt 0.1305233 0.590992
v -0.0872834 0.2698157 -0.215214
vt 0.2020766 0.5097222
vn -0.8422852 -0.3427734 -0.4155273
v -0.03389263 0.3179426 -0.3399384
vt 0.1373902 0.5648225
vn -0.8486328 -0.2407227 -0.470459
v -0.04317663 0.2644093 -0.2797623
vt 0.1576304 0.520501
vn -0.6235352 -0.612793 -0.484375
v -0.02073703 0.2938372 -0.3396193
vt 0.1279836 0.5504942
vn -0.6796875 -0.5805664 -0.4472656
v -0.01681732 0.2959754 -0.3655197
vt 0.1152287 0.5597681
vn -0.8588867 -0.4997559 0.1104126
vt 0.1176515 0.539268
vt 0.1063371 0.5493975
vt 0.137009 0.501927
v -0.03906383 0.2095793 -0.1775568
vt 0.1910711 0.4593471
vn -0.2929688 -0.8789063 -0.3754883
vt 0.1587365 0.4660952
vt 0.1881939 0.4246137
v -0.06385565 0.2415417 -0.2148515
vt 0.1893143 0.4923266
vn -0.5717773 -0.7124023 -0.4055176
v -0.04364828 0.1963493 -0.1393676
vt 0.207716 0.4415207
vn -0.2937012 -0.9165039 -0.270752
v -0.08475161 0.2194131 -0.1393751
vt 0.2261713 0.4620314
vn -0.5986328 -0.7353516 -0.3171387
v -0.05230594 0.1789836 -0.06051755
vt 0.2438725 0.4088995
vn -0.2529297 -0.9458008 -0.2027588
vt 0.2221789 0.3869528
vt 0.2498192 0.36113
v -0.1017817 0.2022326 -0.06051723
vt 0.2645409 0.4331636
vn -0.5610352 -0.7900391 -0.2451172
v -0.05658311 0.1704084 -0.0008404737
vt 0.2720981 0.3861846
vn -0.2445068 -0.9643555 -0.09838867
vt 0.302786 0.3189716
vt 0.3248984 0.3468035
vt 0.3483482 0.3781266
v -0.1108292 0.1946069 -0.0008540388
vt 0.2938601 0.4133636
vn -0.5649414 -0.8178711 -0.107605
v -0.1329726 0.2366704 -0.06052082
vt 0.280053 0.4551576
vn -0.8510742 -0.4624023 -0.2480469
v -0.1419751 0.2295423 -0.0008584117
vt 0.3091738 0.4358861
vn -0.8613281 -0.4936523 -0.1166992
v -0.1466846 0.224407 0.1082575
vt 0.3627362 0.401391
vn -0.8681641 -0.4921875 0.05682373
v -0.1554511 0.2646214 0.1081822
vt 0.3756512 0.4231024
vn -0.984375 -0.1737061 -0.004638672
v -0.1571353 0.2713064 0.04402159
vt 0.3446974 0.4454587
vn -0.9833984 -0.1737061 -0.0425415
v -0.159345 0.2980007 0.09143299
vt 0.376627 0.4465041
vn -0.9980469 -0.02980042 0.05218506
v -0.1530399 0.2964509 0.1116539
vt 0.3874186 0.4391922
vn -0.9819336 0.08111572 0.1697998
vt 0.403698 0.4591664
v -0.1570677 0.3402522 0.1109868
vt 0.3980863 0.464385
vn -0.9858398 -0.01754761 0.1654053
vt 0.4049376 0.4643567
vt 0.4071319 0.4628038
vt 0.3610249 0.1611773
vt 0.3383483 0.162201
vt 0.3217734 0.1077147
v -0.01485781 0.265126 -0.4522158
vt 0.3922973 0.1041734
vn -0.9897461 -0.1390381 -0.01242828
vt 0.3758785 0.1603498
vt 0.3014687 0.04461873
vt 0.4108104 0.1035953
vt 0.390579 0.1608642
vt 0.3687351 0.01514131
vt 0.2927249 0.0170188
vt 0.4329495 0.03134894
v -0.0128969 0.2464698 -0.5119813
vt 0.4021701 0.0654484
vn -0.9921875 -0.1040039 -0.06768799
vt 0.4364149 0.04130471
vt 0.8107623 0.9760733
vt 0.7570564 0.974791
vt 0.8100073 0.9017721
vt 0.7540929 0.9081609
v 0.1303679 0.2997175 0.2561046
vt 0.6903963 0.9398455
vn 0.9536133 0.04431152 0.2976074
vt 0.6915534 0.9041735
v 0.1333615 0.2455085 0.2175493
vt 0.6585572 0.9627983
vn 0.9155273 -0.3132324 0.2504883
vt 0.6942981 0.9856553
vt 0.6588628 0.9873064
vt 0.5876684 0.9813604
vt 0.5921445 0.9552505
v 0.154615 0.2649979 0.1348226
vt 0.6138178 0.9357815
vn 0.9833984 -0.06573486 0.1679688
vt 0.632707 0.8951492
vt 0.5985402 0.9313653
vt 0.6193644 0.8915139
vt 0.6066463 0.913564
vt 0.1899927 0.9017721
vt 0.2429436 0.974791
vt 0.1892377 0.9760733
vt 0.2459071 0.9081609
v -0.1303679 0.2997175 0.2561046
vt 0.3096037 0.9398455
vn -0.9536133 0.04431152 0.2976074
vt 0.3084466 0.9041735
v -0.1333615 0.2455085 0.2175493
vt 0.3414428 0.9627983
vn -0.9155273 -0.3132324 0.2504883
vt 0.3057019 0.9856553
vt 0.3411372 0.9873064
vt 0.4123316 0.9813604
vt 0.4078555 0.9552505
v -0.154615 0.2649979 0.1348226
vt 0.3861822 0.9357815
vn -0.9833984 -0.06573486 0.1679688
vt 0.367293 0.8951492
vt 0.4014598 0.9313653
vt 0.3806356 0.8915139
vt 0.3933537 0.913564
vt 0.8339858 0.1675295
vt 0.8063805 0.1222147
vt 0.8337295 0.1571009
v 0.1428778 0.3450361 0.180437
vt 0.784832 0.1566321
vn 0.9506836 0.07891846 0.2990723
vt 0.7773415 0.1520203
vt 0.7140678 0.1727893
v 0.1324069 0.419283 0.1567262
vt 0.8009425 0.2146076
vn 0.9433594 0.2514648 0.2142334
vt 0.8207027 0.2665134
v 0.1105376 0.3729736 0.2532647
vt 0.7254503 0.1820861
vn 0.9111328 0.1390381 0.3867188
vt 0.8146276 0.3104098
vt 0.7907155 0.304899
v 0.09780122 0.3789348 0.2730858
vt 0.7080763 0.1866571
vn 0.815918 0.1914063 0.5449219
vt 0.6603605 0.1882383
v 0.1125281 0.4789144 0.1578839
vt 0.7960136 0.2626543
vn 0.9003906 0.3552246 0.2500305
v 0.07751045 0.3860745 0.2993177
vt 0.6834849 0.1938279
vn 0.7763672 0.1297607 0.6162109
vt 0.6674675 0.2067447
v 0.06849596 0.4171852 0.297296
vt 0.6826115 0.2088681
vn 0.7548828 0.2570801 0.6030273
vt 0.6735474 0.2217898
v 0.083667 0.396423 0.287025
vt 0.6944407 0.2051328
vn 0.8383789 0.3234863 0.4382324
v 0.09370549 0.3824372 0.2685531
vt 0.7099602 0.2107878
vn 0.6591797 0.7514648 -0.01055145
v 0.0809766 0.3986511 0.2813979
vt 0.6978106 0.2102472
vn 0.8256836 0.53125 -0.1875
v 0.1051805 0.3770759 0.2505449
vt 0.7258678 0.2132747
vn 0.4958496 0.8256836 0.2685547
v 0.1119773 0.3836223 0.2307427
vt 0.7415754 0.2181813
vn -0.5302734 0.7709961 0.3520508
v 0.07146403 0.4236281 0.2911509
vt 0.6908556 0.2123486
vn 0.8935547 0.3681641 0.2553711
v 0.06956162 0.4236373 0.2855259
vt 0.6964666 0.2120515
vn 0.8725586 0.388916 -0.2944336
v 0.06281363 0.4411627 0.2842233
vt 0.6961845 0.2150187
vn 0.972168 0.04656982 -0.2280273
v 0.1210456 0.3989242 0.2123804
vt 0.7578036 0.1993454
vn 0.9189453 0.2156982 0.3291016
v 0.1149264 0.4009722 0.2131876
vt 0.7548332 0.2229056
vn 0.2785645 0.5214844 0.8061523
v 0.1180354 0.4262185 0.2001322
vt 0.7655868 0.2242588
vn 0.8945313 0.2734375 0.3532715
v 0.1121418 0.426102 0.2016632
vt 0.7607207 0.2278329
vn 0.2282715 0.3273926 0.9165039
v 0.1160532 0.4579414 0.1735627
vt 0.7848752 0.2363229
vn 0.9155273 0.3127441 0.2524414
v 0.1092088 0.4579787 0.1940061
vt 0.7673697 0.2340235
vn 0.828125 0.3339844 0.449707
v 0.1043658 0.4556995 0.1954578
vt 0.762274 0.2326223
vn 0.1966553 0.1940918 0.9609375
v 0.09286905 0.4842921 0.1942021
vt 0.7610176 0.2364381
vn 0.3144531 0.1534424 0.9365234
v 0.1018588 0.4923273 0.1727063
vt 0.7818885 0.2535698
vn 0.8769531 0.3894043 0.2810059
v 0.09706647 0.4887905 0.1920189
vt 0.7664714 0.2435515
vn 0.8256836 0.3581543 0.4350586
v 0.08601265 0.4965881 0.195953
vt 0.7583979 0.2382061
vn 0.2678223 -0.1032715 0.9575195
v 0.07871233 0.5083414 0.1995161
vt 0.7548843 0.2399299
vn 0.7250977 -0.2509766 0.640625
v 0.09360318 0.5078875 0.1753639
vt 0.7784067 0.2728297
vn 0.8701172 0.4101563 0.2729492
vt 0.7597795 0.2937518
v 0.08976507 0.5019513 0.1938209
vt 0.7637603 0.2647656
vn 0.8642578 0.3937988 0.3122559
v 0.08169375 0.5143362 0.1984354
vt 0.7568827 0.2463107
vn 0.7763672 -0.40625 0.480957
vt 0.7266858 0.2746539
v 0.07579245 0.4985701 0.2172203
vt 0.7417845 0.2367903
vn 0.7456055 -0.6064453 -0.2751465
vt 0.7104897 0.229516
v 0.072234 0.4842069 0.2382947
vt 0.7258866 0.2312795
vn 0.8295898 -0.5151367 -0.2130127
v 0.06835449 0.4684788 0.2584654
vt 0.7122123 0.2250248
vn 0.8920898 -0.4177246 -0.1716309
v 0.06479043 0.4535862 0.2741282
vt 0.7025831 0.2195872
vn 0.8481445 -0.4506836 -0.277832
v 0.06407884 0.4423799 0.2899483
vt 0.6891854 0.2259312
vn 0.9868164 0.1450195 -0.0670166
vt 0.6955097 0.2500745
vt 0.6863438 0.2392921
v 0.06489711 0.4276814 0.2963673
vt 0.6838079 0.2174138
vn 0.7475586 0.3024902 0.590332
vt 0.1662705 0.1571009
vt 0.1936195 0.1222147
vt 0.1660142 0.1675295
v -0.1428778 0.3450361 0.180437
vt 0.2151652 0.1566404
vn -0.9506836 0.07891846 0.2990723
vt 0.2226585 0.1520203
vt 0.2859322 0.1727893
v -0.1324069 0.419283 0.1567262
vt 0.1990575 0.2146076
vn -0.9433594 0.2514648 0.2142334
vt 0.1792973 0.2665134
v -0.1105376 0.3729736 0.2532647
vt 0.2745497 0.1820861
vn -0.9111328 0.1390381 0.3867188
vt 0.1853724 0.3104098
vt 0.2092845 0.304899
v -0.09780122 0.3789348 0.2730858
vt 0.2919237 0.1866571
vn -0.815918 0.1914063 0.5449219
vt 0.3396395 0.1882383
v -0.1125281 0.4789144 0.1578839
vt 0.2039864 0.2626543
vn -0.9003906 0.3552246 0.2500305
v -0.07751045 0.3860745 0.2993177
vt 0.3165151 0.1938279
vn -0.7763672 0.1297607 0.6162109
vt 0.3325325 0.2067447
v -0.09360318 0.5078875 0.1753639
vt 0.2215933 0.2728297
vn -0.8701172 0.4101563 0.2729492
vt 0.2402205 0.2937518
v -0.06849596 0.4171852 0.297296
vt 0.3173885 0.2088681
vn -0.7548828 0.2570801 0.6030273
vt 0.3264526 0.2217898
v -0.083667 0.396423 0.287025
vt 0.3055593 0.2051328
vn -0.8383789 0.3234863 0.4382324
v -0.09370549 0.3824372 0.2685531
vt 0.2900398 0.2107878
vn -0.6591797 0.7514648 -0.01055145
v -0.0809766 0.3986511 0.2813979
vt 0.3021894 0.2102472
vn -0.8256836 0.53125 -0.1875
v -0.1051805 0.3770759 0.2505449
vt 0.2741322 0.2132747
vn -0.4958496 0.8256836 0.2685547
v -0.1119773 0.3836223 0.2307427
vt 0.2584246 0.2181813
vn 0.5302734 0.7709961 0.3520508
v -0.07146403 0.4236281 0.2911509
vt 0.3091444 0.2123486
vn -0.8935547 0.3681641 0.2553711
v -0.06956162 0.4236373 0.2855259
vt 0.3035334 0.2120515
vn -0.8725586 0.388916 -0.2944336
v -0.06281363 0.4411627 0.2842233
vt 0.3038155 0.2150187
vn -0.972168 0.04656982 -0.2280273
v -0.1210456 0.3989242 0.2123804
vt 0.2421964 0.1993454
vn -0.9189453 0.2156982 0.3291016
v -0.1149264 0.4009722 0.2131876
vt 0.2451668 0.2229056
vn -0.2785645 0.5214844 0.8061523
v -0.1180354 0.4262185 0.2001322
vt 0.2344132 0.2242588
vn -0.8945313 0.2734375 0.3532715
v -0.1121418 0.426102 0.2016632
vt 0.2392793 0.2278329
vn -0.2282715 0.3273926 0.9165039
v -0.1160532 0.4579414 0.1735627
vt 0.2151248 0.2363229
vn -0.9155273 0.3127441 0.2524414
v -0.1092088 0.4579787 0.1940061
vt 0.2326303 0.2340235
vn -0.828125 0.3339844 0.449707
v -0.1043658 0.4556995 0.1954578
vt 0.237726 0.2326223
vn -0.1966553 0.1940918 0.9609375
v -0.09286905 0.4842921 0.1942021
vt 0.2389824 0.2364381
vn -0.3144531 0.1534424 0.9365234
v -0.1018588 0.4923273 0.1727063
vt 0.2181115 0.2535698
vn -0.8769531 0.3894043 0.2810059
v -0.09706647 0.4887905 0.1920189
vt 0.2335286 0.2435515
vn -0.8256836 0.3581543 0.4350586
v -0.08601265 0.4965881 0.195953
vt 0.2416021 0.2382061
vn -0.2678223 -0.1032715 0.9575195
v -0.07871233 0.5083414 0.1995161
vt 0.2451157 0.2399299
vn -0.7250977 -0.2509766 0.640625
v -0.08976507 0.5019513 0.1938209
vt 0.2362397 0.2647656
vn -0.8642578 0.3937988 0.3122559
v -0.08169375 0.5143362 0.1984354
vt 0.2431173 0.2463107
vn -0.7763672 -0.40625 0.480957
vt 0.2733142 0.2746539
v -0.07579245 0.4985701 0.2172203
vt 0.2582155 0.2367903
vn -0.7456055 -0.6064453 -0.2751465
vt 0.2895103 0.229516
v -0.072234 0.4842069 0.2382947
vt 0.2741134 0.2312795
vn -0.8295898 -0.5151367 -0.2130127
v -0.06835449 0.4684788 0.2584654
vt 0.2877877 0.2250248
vn -0.8920898 -0.4177246 -0.1716309
v -0.06479043 0.4535862 0.2741282
vt 0.2974169 0.2195872
vn -0.8481445 -0.4506836 -0.277832
v -0.06407884 0.4423799 0.2899483
vt 0.3108146 0.2259312
vn -0.9868164 0.1450195 -0.0670166
vt 0.3044903 0.2500745
vt 0.3136562 0.2392921
v -0.06489711 0.4276814 0.2963673
vt 0.3161921 0.2174138
vn -0.7475586 0.3024902 0.590332
vt 0.3567613 0.8770633
vt 0.327539 0.8475847
vt 0.357047 0.8741365
v -0.3577782 0.4003957 0.07402477
vt 0.3203993 0.8463193
vn -0.03665161 -0.004005432 -0.9990234
v -0.2834949 0.427666 0.07245865
vt 0.2866049 0.8571423
vn -0.0171051 0.06732178 -0.9975586
vt 0.3285562 0.8720013
vt 0.2853793 0.8602419
v -0.4099522 0.3881479 0.07549535
vt 0.3438095 0.8409962
vn -0.09411621 0.2609863 -0.9604492
vt 0.3733466 0.8352229
vt 0.4020003 0.8266088
v -0.1999218 0.3981135 0.06963162
vt 0.2497842 0.8433333
vn 0.05621338 0.2420654 -0.9682617
vt 0.2279183 0.8384109
v -0.4737329 0.3511885 0.07619634
vt 0.3726044 0.8252848
vn -0.02603149 0.0001596212 -0.9995117
vt 0.4018338 0.8218924
v -0.1508277 0.3750683 0.06678768
vt 0.2291966 0.8326339
vn 0.173584 0.03408813 -0.9838867
vt 0.223748 0.8334322
vt 0.2273458 0.8225039
v -0.1959521 0.3360194 0.0684955
vt 0.2488025 0.8160241
vn 0.05160522 -0.1676025 -0.984375
vt 0.2831008 0.7966046
vt 0.3253638 0.7816949
vt 0.3536599 0.7778352
vt 0.3260606 0.8062235
v -0.3603639 0.3576706 0.07491343
vt 0.3219324 0.8270735
vn -0.03363037 -0.03671265 -0.9985352
v -0.4060878 0.3219211 0.07549815
vt 0.342768 0.8116477
vn -0.04141235 -0.2590332 -0.9648438
vt 0.372644 0.8153214
v -0.4078905 0.3550369 0.07540909
vt 0.343204 0.8263229
vn -0.01126862 -0.0006976128 -0.9995117
vt 0.642953 0.8741365
vt 0.672461 0.8475847
vt 0.6432387 0.8770633
v 0.3577782 0.4003957 0.07402477
vt 0.6796007 0.8463193
vn 0.03665161 -0.004005432 -0.9990234
v 0.2834949 0.427666 0.07245865
vt 0.7133951 0.8571423
vn 0.0171051 0.06732178 -0.9975586
vt 0.6714438 0.8720013
vt 0.7146207 0.8602419
v 0.4099522 0.3881479 0.07549535
vt 0.6561905 0.8409962
vn 0.09411621 0.2609863 -0.9604492
vt 0.6266534 0.8352229
vt 0.5979997 0.8266088
v 0.1999218 0.3981135 0.06963162
vt 0.7502158 0.8433333
vn -0.05621338 0.2420654 -0.9682617
vt 0.7720817 0.8384109
v 0.4737329 0.3511885 0.07619634
vt 0.6273956 0.8252848
vn 0.02603149 0.0001596212 -0.9995117
vt 0.5981662 0.8218924
v 0.1508277 0.3750683 0.06678768
vt 0.7708034 0.8326339
vn -0.173584 0.03408813 -0.9838867
vt 0.776252 0.8334322
vt 0.7726542 0.8225039
v 0.1959521 0.3360194 0.0684955
vt 0.7511975 0.8160241
vn -0.05160522 -0.1676025 -0.984375
vt 0.7168992 0.7966046
vt 0.6746362 0.7816949
vt 0.6463401 0.7778352
vt 0.6739394 0.8062235
v 0.3603639 0.3576706 0.07491343
vt 0.6780676 0.8270735
vn 0.03363037 -0.03671265 -0.9985352
v 0.4078905 0.3550369 0.07540909
vt 0.656796 0.8263229
vn 0.01126862 -0.0006976128 -0.9995117
v 0.4060878 0.3219211 0.07549815
vt 0.657232 0.8116477
vn 0.04141235 -0.2590332 -0.9648438
vt 0.627356 0.8153214
vt 0.5451518 0.0825032
v 0.08517803 0.3373075 0.1455057
vt 0.5341975 0.08032322
vn 0.2110596 0.9487305 -0.234375
vt 0.5389777 0.03943169
vt 0.5222659 0.0175854
vt 0.5430033 0.09796304
v 0 0.3615126 0.2036067
vt 0.5 0.05216467
vn 0 0.9868164 -0.1591797
vt 0.5 0.01210165
vt 0.4777341 0.0175854
v 3.74635E-32 0.3308675 0.09498309
vt 0.5 0.1038087
vn 0 0.953125 -0.3012695
vt 0.5353834 0.1131465
vt 0.5 0.1244363
vt 0.4646166 0.1131465
vt 0.4569967 0.09796309
v -0.08517803 0.3373075 0.1455057
vt 0.4658025 0.08032322
vn -0.2110596 0.9487305 -0.234375
vt 0.4610223 0.03943169
vt 0.4548482 0.0825032
v -4.319891E-10 0.4701008 -0.4061324
vt 0.2775959 0.708738
vn 0 0.8330078 -0.5527344
v -4.262664E-10 0.4627135 -0.4079854
vt 0.2738913 0.705826
vn 0 -0.5922852 -0.8056641
v -0.007377206 0.4641442 -0.3690282
vt 0.2924603 0.6921278
vn -0.9775391 0.1478271 -0.1486816
v 1.965477E-09 0.4355366 -0.3754822
vt 0.27818 0.6819368
vn 0 -0.644043 -0.7646484
v -5.368799E-11 0.4675431 -0.3423925
vt 0.3075153 0.6868146
vn 0 0.1987305 -0.9799805
v -0.009990728 0.4167131 -0.3311351
vt 0.2912557 0.6577411
vn -0.9321289 -0.2597656 -0.2512207
v 5.520405E-31 0.3934209 -0.3084494
vt 0.2867867 0.6384485
vn 0 -0.8442383 -0.5351563
v -0.01489988 0.4017771 -0.3008725
vt 0.2973297 0.6391872
vn -0.9594727 -0.1560059 -0.232666
v -0.01785613 0.4318474 -0.2749025
vt 0.3192579 0.6411628
vn -0.9946289 0.008338928 -0.102356
v -0.01307445 0.4606632 -0.3197687
vt 0.3144661 0.6720451
vn -0.9926758 -0.008651733 -0.1192627
v -0.01447667 0.4962434 -0.2969002
vt 0.3399844 0.6744584
vn -0.9960938 0.06604004 -0.05752563
v -0.01950922 0.4613344 -0.2443343
vt 0.3425165 0.6378605
vn -0.996582 0.04486084 -0.06561279
v -0.009319786 0.4922635 -0.3576072
vt 0.3167267 0.701057
vn -0.9248047 -0.2130127 -0.3144531
v -1.819747E-10 0.5469437 -0.416788
vt 0.3200732 0.7476274
vn 0 -0.0255127 -0.9995117
v -0.01924466 0.4860256 -0.2201724
vt 0.3615209 0.6355209
vn -0.9921875 0.1131592 -0.04873657
v -1.378393E-10 0.5633284 -0.4124206
vt 0.3301138 0.7514951
vn 0 0.5717773 -0.8198242
v -0.01056766 0.5226174 -0.3440861
vt 0.335272 0.7054833
vn -0.9941406 0.05218506 -0.09356689
v -0.008397484 0.5472544 -0.3358812
vt 0.349335 0.7105528
vn -0.9550781 0.2958984 -0.01128387
v 6.630238E-31 0.5538185 -0.3338457
vt 0.3549028 0.7134593
vn 0 0.9892578 0.1433105
v -6.172732E-11 0.5446913 -0.2822295
vt 0.3703064 0.687679
vn 0 0.7685547 -0.6391602
v -0.01113866 0.5354107 -0.2691078
vt 0.3689206 0.6758559
vn -0.9873047 0.1484375 -0.05062866
v -5.45974E-10 0.5947001 -0.2985968
vt 0.393523 0.7069116
vn 0 0.9057617 -0.4230957
v -0.009986256 0.5546561 -0.2216311
vt 0.3933784 0.6575644
vn -0.9619141 0.2624512 0.07037354
v -0.01757777 0.5169503 -0.1845662
vt 0.3868808 0.6275805
vn -0.9433594 0.3085938 0.1209106
v 4.0867E-10 0.5916353 -0.2680158
vt 0.4004102 0.6904551
vn 0 0.9868164 0.1604004
v -7.318891E-31 0.5258791 -0.1751627
vt 0.3993088 0.6259423
vn 0 0.7695313 0.6381836
v -3.690999E-31 0.5618057 -0.2155313
vt 0.4012443 0.6568588
vn 0 0.8134766 0.5810547
v 0.01489988 0.4017771 -0.3008725
vt 0.7026703 0.6391872
vn 0.9594727 -0.1560059 -0.232666
vt 0.7132133 0.6384485
v 0.009990728 0.4167131 -0.3311351
vt 0.7087443 0.6577411
vn 0.9321289 -0.2597656 -0.2512207
vt 0.72182 0.6819368
v 0.01785613 0.4318474 -0.2749025
vt 0.6807421 0.6411628
vn 0.9946289 0.008338928 -0.102356
v 0.007377206 0.4641442 -0.3690282
vt 0.7075397 0.6921278
vn 0.9775391 0.1478271 -0.1486816
vt 0.7261087 0.705826
vt 0.7224041 0.708738
vt 0.6924847 0.6868146
v 0.01307445 0.4606632 -0.3197687
vt 0.6855339 0.6720451
vn 0.9926758 -0.008651733 -0.1192627
v 0.009319786 0.4922635 -0.3576072
vt 0.6832733 0.701057
vn 0.9248047 -0.2130127 -0.3144531
vt 0.6799268 0.7476274
vt 0.6698862 0.7514951
v 0.01447667 0.4962434 -0.2969002
vt 0.6600156 0.6744584
vn 0.9960938 0.06604004 -0.05752563
v 0.01950922 0.4613344 -0.2443343
vt 0.6574835 0.6378605
vn 0.996582 0.04486084 -0.06561279
v 0.01924466 0.4860256 -0.2201724
vt 0.6384791 0.6355209
vn 0.9921875 0.1131592 -0.04873657
v 0.01056766 0.5226174 -0.3440861
vt 0.664728 0.7054833
vn 0.9941406 0.05218506 -0.09356689
v 0.008397484 0.5472544 -0.3358812
vt 0.650665 0.7105528
vn 0.9550781 0.2958984 -0.01128387
vt 0.6450972 0.7134593
vt 0.6296936 0.687679
v 0.01113866 0.5354107 -0.2691078
vt 0.6310794 0.6758559
vn 0.9873047 0.1484375 -0.05062866
vt 0.606477 0.7069116
v 0.009986256 0.5546561 -0.2216311
vt 0.6066216 0.6575644
vn 0.9619141 0.2624512 0.07037354
v 0.01757777 0.5169503 -0.1845662
vt 0.6131192 0.6275805
vn 0.9433594 0.3085938 0.1209106
vt 0.5995898 0.6904551
vt 0.6006912 0.6259423
vt 0.5987557 0.6568588
o pm0550_11_00_body_mesh_shape_lod1_body_00
g polygon_0
usemtl body_00
f 33/29/33 34/30/34 35/31/35
f 36/32/36 37/33/37 38/34/38
f 39/35/39 40/36/40 41/37/41
f 42/38/42 43/39/43 44/40/44
f 42/41/42 45/42/45 46/43/46
f 47/44/47 48/45/48 49/46/49
f 47/47/47 50/48/50 51/49/51
f 52/50/52 53/51/53 54/52/54
f 52/53/52 55/54/55 56/55/56
f 57/56/57 58/57/58 59/58/59
f 60/59/60 61/60/61 62/61/62
f 63/62/63 64/63/64 65/64/65
f 66/65/66 67/66/67 68/67/68
f 69/68/69 70/69/70 71/70/71
f 72/71/72 73/72/73 74/73/74
f 75/74/75 76/75/76 77/76/77
f 78/77/78 79/78/79 80/79/80
f 81/80/81 82/81/82 83/82/83
f 83/83/83 84/84/84 85/85/85
f 86/86/86 87/87/87 88/88/88
f 88/89/88 89/90/89 90/91/90
f 91/92/91 92/93/92 93/94/93
f 93/95/93 94/96/94 95/97/95
f 96/98/96 97/99/97 98/100/98
f 99/101/99 100/102/100 101/103/101
f 102/104/102 103/105/103 104/106/104
f 42/107/42 46/108/46 105/109/105
f 42/107/42 105/109/105 43/110/43
f 42/111/42 44/112/44 106/113/106
f 42/111/42 106/113/106 45/114/45
f 47/115/47 51/116/51 107/117/107
f 47/115/47 107/117/107 48/118/48
f 47/119/47 49/120/49 108/121/108
f 47/119/47 108/121/108 50/122/50
f 52/123/52 56/124/56 109/125/109
f 52/123/52 109/125/109 53/126/53
f 52/127/52 54/128/54 110/129/110
f 52/127/52 110/129/110 55/130/55
f 82/131/82 111/132/111 83/133/83
f 111/132/111 84/134/84 83/133/83
f 83/135/83 85/136/85 112/137/112
f 83/135/83 112/137/112 81/138/81
f 88/139/88 87/140/87 113/141/113
f 113/141/113 89/142/89 88/139/88
f 88/143/88 90/144/90 114/145/114
f 88/143/88 114/145/114 86/146/86
f 93/147/93 92/148/92 115/149/115
f 115/149/115 94/150/94 93/147/93
f 93/151/93 95/152/95 116/153/116
f 116/153/116 91/154/91 93/151/93
f 39/155/39 41/156/41 117/157/117
f 39/155/39 117/157/117 36/158/36
f 36/158/36 117/157/117 37/159/37
f 36/160/36 38/161/38 118/162/118
f 36/160/36 118/162/118 39/163/39
f 39/163/39 118/162/118 40/164/40
f 60/165/60 62/166/62 119/167/119
f 60/165/60 119/167/119 57/168/57
f 57/168/57 119/167/119 58/169/58
f 57/170/57 59/171/59 120/172/120
f 60/173/60 57/170/57 120/172/120
f 60/173/60 120/172/120 61/174/61
f 66/175/66 68/176/68 121/177/121
f 66/175/66 121/177/121 63/178/63
f 63/178/63 121/177/121 64/179/64
f 63/180/63 65/181/65 122/182/122
f 66/183/66 63/180/63 122/182/122
f 66/183/66 122/182/122 67/184/67
f 69/185/69 71/186/71 123/187/123
f 69/185/69 123/187/123 74/188/74
f 123/187/123 72/189/72 74/188/74
f 74/190/74 73/191/73 124/192/124
f 69/193/69 74/190/74 124/192/124
f 124/192/124 70/194/70 69/193/69
f 80/195/80 79/196/79 125/197/125
f 75/198/75 80/195/80 125/197/125
f 125/197/125 76/199/76 75/198/75
f 98/200/98 97/201/97 126/202/126
f 99/203/99 98/200/98 126/202/126
f 126/202/126 100/204/100 99/203/99
f 99/205/99 101/206/101 127/207/127
f 98/208/98 99/205/99 127/207/127
f 127/207/127 96/209/96 98/208/98
f 128/210/128 129/211/129 130/212/130
f 128/210/128 131/213/131 129/211/129
f 131/213/131 132/214/132 129/211/129
f 132/214/132 131/213/131 133/215/133
f 134/216/134 132/214/132 133/215/133
f 133/215/133 135/217/135 134/216/134
f 136/218/136 132/214/132 134/216/134
f 135/217/135 137/219/137 134/216/134
f 137/219/137 136/218/136 134/216/134
f 138/220/138 136/218/136 137/219/137
f 139/221/139 137/219/137 135/217/135
f 138/220/138 137/219/137 140/222/140
f 137/219/137 139/221/139 141/223/141
f 140/222/140 137/219/137 141/223/141
f 141/223/141 139/221/139 142/224/142
f 140/222/140 141/223/141 143/225/143
f 142/224/142 144/226/144 141/223/141
f 143/225/143 141/223/141 145/227/145
f 141/223/141 144/226/144 145/227/145
f 143/225/143 145/227/145 146/228/146
f 147/229/147 145/227/145 144/226/144
f 146/228/146 145/227/145 147/229/147
f 148/230/148 147/229/147 144/226/144
f 147/229/147 149/231/149 146/228/146
f 147/229/147 148/230/148 150/232/150
f 150/232/150 149/231/149 147/229/147
f 150/232/150 148/230/148 151/233/151
f 150/232/150 151/233/151 152/234/152
f 150/232/150 153/235/153 149/231/149
f 152/234/152 153/235/153 150/232/150
f 153/235/153 154/236/154 149/231/149
f 155/237/155 153/235/153 152/234/152
f 152/234/152 156/238/156 155/237/155
f 156/238/156 157/239/157 155/237/155
f 158/240/158 154/236/154 153/235/153
f 158/240/158 153/235/153 155/237/155
f 159/241/159 154/236/154 158/240/158
f 160/242/160 159/241/159 158/240/158
f 161/243/161 155/237/155 157/239/157
f 158/240/158 155/237/155 161/243/161
f 158/240/158 161/243/161 160/242/160
f 157/239/157 162/244/162 161/243/161
f 160/242/160 161/243/161 163/245/163
f 161/243/161 162/244/162 164/246/164
f 164/246/164 163/245/163 161/243/161
f 162/244/162 165/247/165 164/246/164
f 166/248/166 163/245/163 164/246/164
f 166/248/166 164/246/164 167/249/167
f 167/249/167 164/246/164 168/250/168
f 168/250/168 164/246/164 169/251/169
f 165/247/165 170/252/170 164/246/164
f 171/253/171 169/251/169 164/246/164
f 170/252/170 172/254/172 164/246/164
f 172/254/172 171/253/171 164/246/164
f 170/252/170 173/255/173 172/254/172
f 172/254/172 174/256/174 171/253/171
f 175/257/175 174/256/174 172/254/172
f 77/258/77 176/259/176 75/260/75
f 75/260/75 176/259/176 80/261/80
f 176/259/176 78/262/78 80/261/80
f 130/263/130 177/264/177 128/265/128
f 177/264/177 131/266/131 128/265/128
f 131/266/131 177/264/177 178/267/178
f 178/267/178 133/268/133 131/266/131
f 178/267/178 179/269/179 133/268/133
f 135/270/135 133/268/133 179/269/179
f 180/271/180 179/269/179 178/267/178
f 179/269/179 181/272/181 135/270/135
f 179/269/179 180/271/180 181/272/181
f 181/272/181 180/271/180 182/273/182
f 135/270/135 181/272/181 139/274/139
f 182/273/182 183/275/183 181/272/181
f 181/272/181 184/276/184 139/274/139
f 181/272/181 183/275/183 184/276/184
f 139/274/139 184/276/184 142/277/142
f 183/275/183 185/278/185 184/276/184
f 184/276/184 144/279/144 142/277/142
f 186/280/186 184/276/184 185/278/185
f 186/280/186 144/279/144 184/276/184
f 187/281/187 186/280/186 185/278/185
f 188/282/188 144/279/144 186/280/186
f 188/282/188 186/280/186 187/281/187
f 144/279/144 188/282/188 148/283/148
f 187/281/187 189/284/189 188/282/188
f 188/282/188 190/285/190 148/283/148
f 190/285/190 188/282/188 189/284/189
f 148/283/148 190/285/190 151/286/151
f 190/285/190 152/287/152 151/286/151
f 191/288/191 190/285/190 189/284/189
f 152/287/152 190/285/190 191/288/191
f 191/288/191 189/284/189 192/289/192
f 191/288/191 193/290/193 152/287/152
f 152/287/152 193/290/193 156/291/156
f 193/290/193 157/292/157 156/291/156
f 192/289/192 194/293/194 191/288/191
f 194/293/194 193/290/193 191/288/191
f 195/294/195 194/293/194 192/289/192
f 196/295/196 194/293/194 195/294/195
f 197/296/197 157/292/157 193/290/193
f 197/296/197 193/290/193 194/293/194
f 196/295/196 197/296/197 194/293/194
f 157/292/157 197/296/197 162/297/162
f 198/298/198 197/296/197 196/295/196
f 162/297/162 197/296/197 199/299/199
f 198/298/198 199/299/199 197/296/197
f 162/297/162 199/299/199 165/300/165
f 200/301/200 199/299/199 198/298/198
f 200/301/200 201/302/201 199/299/199
f 201/302/201 202/303/202 199/299/199
f 199/299/199 202/303/202 203/304/203
f 165/300/165 199/299/199 170/305/170
f 199/299/199 203/304/203 204/306/204
f 205/307/205 170/305/170 199/299/199
f 205/307/205 199/299/199 204/306/204
f 170/305/170 205/307/205 173/308/173
f 204/306/204 206/309/206 205/307/205
f 205/307/205 206/309/206 207/310/207
f 208/311/208 209/312/209 210/313/210
f 211/314/211 210/313/210 209/312/209
f 211/314/211 212/315/212 210/313/210
f 210/313/210 212/315/212 213/316/213
f 211/314/211 214/317/214 212/315/212
f 215/318/215 212/315/212 214/317/214
f 214/317/214 216/319/216 215/318/215
f 216/319/216 217/320/217 215/318/215
f 217/320/217 216/319/216 218/321/218
f 216/319/216 219/322/219 218/321/218
f 219/322/219 220/323/220 218/321/218
f 218/321/218 220/323/220 221/324/221
f 220/323/220 222/325/222 221/324/221
f 220/323/220 223/326/223 222/325/222
f 223/326/223 224/327/224 222/325/222
f 223/326/223 225/328/225 224/327/224
f 225/328/225 226/329/226 224/327/224
f 224/327/224 226/329/226 227/330/227
f 228/331/228 226/329/226 225/328/225
f 229/332/229 226/329/226 228/331/228
f 210/333/210 34/334/34 33/335/33
f 230/336/230 210/333/210 33/335/33
f 33/335/33 231/337/231 230/336/230
f 230/336/230 208/338/208 210/333/210
f 230/336/230 231/337/231 173/339/173
f 173/339/173 231/337/231 175/340/175
f 172/341/172 173/339/173 175/340/175
f 232/342/232 208/338/208 230/336/230
f 232/342/232 230/336/230 173/339/173
f 208/338/208 232/342/232 233/343/233
f 233/343/233 232/342/232 229/344/229
f 226/345/226 229/344/229 232/342/232
f 205/346/205 207/347/207 173/339/173
f 207/347/207 234/348/234 173/339/173
f 232/342/232 173/339/173 234/348/234
f 232/342/232 234/348/234 104/349/104
f 232/342/232 104/349/104 226/345/226
f 104/349/104 103/350/103 226/345/226
f 132/351/132 136/352/136 235/353/235
f 236/354/236 132/351/132 235/353/235
f 237/355/237 236/354/236 235/353/235
f 236/354/236 129/356/129 132/351/132
f 238/357/238 239/358/239 237/355/237
f 239/358/239 236/354/236 237/355/237
f 129/356/129 240/359/240 130/360/130
f 241/361/241 240/359/240 129/356/129
f 236/354/236 239/358/239 242/362/242
f 242/362/242 129/356/129 236/354/236
f 129/356/129 242/362/242 241/361/241
f 243/363/243 242/362/242 239/358/239
f 243/363/243 241/361/241 242/362/242
f 244/364/244 245/365/245 246/366/246
f 246/366/246 245/365/245 247/367/247
f 245/365/245 248/368/248 247/367/247
f 247/367/247 249/369/249 246/366/246
f 247/367/247 248/368/248 250/370/250
f 248/368/248 251/371/251 250/370/250
f 251/371/251 252/372/252 250/370/250
f 253/373/253 249/369/249 247/367/247
f 250/370/250 254/374/254 247/367/247
f 254/374/254 253/373/253 247/367/247
f 252/372/252 254/374/254 250/370/250
f 253/373/253 255/375/255 249/369/249
f 254/374/254 255/375/255 253/373/253
f 249/369/249 255/375/255 256/376/256
f 257/377/257 254/374/254 252/372/252
f 255/375/255 254/374/254 257/377/257
f 252/372/252 258/378/258 257/377/257
f 257/377/257 258/378/258 259/379/259
f 259/379/259 255/375/255 257/377/257
f 255/375/255 259/379/259 260/380/260
f 255/375/255 260/380/260 256/376/256
f 256/376/256 260/380/260 261/381/261
f 262/382/262 263/383/263 264/384/264
f 262/382/262 265/385/265 263/383/263
f 263/383/263 265/385/265 266/386/266
f 265/385/265 262/382/262 267/387/267
f 265/385/265 268/388/268 266/386/266
f 266/386/266 268/388/268 269/389/269
f 267/387/267 270/390/270 265/385/265
f 270/390/270 268/388/268 265/385/265
f 270/390/270 267/387/267 271/391/271
f 267/387/267 272/392/272 271/391/271
f 272/392/272 273/393/273 271/391/271
f 274/394/274 271/391/271 273/393/273
f 275/395/275 270/390/270 271/391/271
f 270/390/270 275/395/275 276/396/276
f 268/388/268 270/390/270 276/396/276
f 275/395/275 277/397/277 276/396/276
f 277/397/277 278/398/278 276/396/276
f 278/398/278 279/399/279 276/396/276
f 276/396/276 279/399/279 280/400/280
f 268/388/268 276/396/276 280/400/280
f 280/400/280 279/399/279 281/401/281
f 282/402/282 268/388/268 280/400/280
f 280/400/280 281/401/281 282/402/282
f 268/388/268 282/402/282 269/389/269
f 283/403/283 282/402/282 281/401/281
f 269/389/269 282/402/282 283/403/283
f 284/404/284 154/405/154 159/406/159
f 285/407/285 154/405/154 284/404/284
f 154/405/154 285/407/285 149/408/149
f 286/409/286 285/407/285 284/404/284
f 149/408/149 285/407/285 287/410/287
f 149/408/149 287/410/287 146/411/146
f 288/412/288 285/407/285 286/409/286
f 146/411/146 287/410/287 289/413/289
f 289/413/289 143/414/143 146/411/146
f 290/415/290 287/410/287 285/407/285
f 290/415/290 285/407/285 288/412/288
f 291/416/291 287/410/287 290/415/290
f 291/416/291 289/413/289 287/410/287
f 288/412/288 292/417/292 290/415/290
f 292/417/292 291/416/291 290/415/290
f 293/418/293 143/414/143 289/413/289
f 143/414/143 293/418/293 140/419/140
f 289/413/289 294/420/294 293/418/293
f 294/420/294 289/413/289 291/416/291
f 140/419/140 293/418/293 295/421/295
f 293/418/293 294/420/294 295/421/295
f 140/419/140 295/421/295 138/422/138
f 294/420/294 291/416/291 296/423/296
f 136/424/136 138/422/138 235/425/235
f 296/423/296 291/416/291 297/426/297
f 291/416/291 292/417/292 297/426/297
f 235/425/235 138/422/138 298/427/298
f 138/422/138 295/421/295 298/427/298
f 299/428/299 235/425/235 298/427/298
f 237/429/237 235/425/235 299/428/299
f 300/430/300 298/427/298 295/421/295
f 300/430/300 299/428/299 298/427/298
f 299/428/299 301/431/301 237/429/237
f 237/429/237 301/431/301 238/432/238
f 300/430/300 301/431/301 299/428/299
f 302/433/302 301/431/301 300/430/300
f 295/421/295 294/420/294 303/434/303
f 300/430/300 295/421/295 303/434/303
f 303/434/303 294/420/294 296/423/296
f 304/435/304 302/433/302 300/430/300
f 305/436/305 302/433/302 304/435/304
f 306/437/306 300/430/300 303/434/303
f 300/430/300 306/437/306 304/435/304
f 304/435/304 307/438/307 305/436/305
f 308/439/308 306/437/306 303/434/303
f 304/435/304 306/437/306 308/439/308
f 296/423/296 308/439/308 303/434/303
f 309/440/309 307/438/307 304/435/304
f 304/435/304 308/439/308 309/440/309
f 310/441/310 307/438/307 309/440/309
f 309/440/309 308/439/308 310/441/310
f 310/441/310 311/442/311 307/438/307
f 310/441/310 312/443/312 311/442/311
f 296/423/296 313/444/313 308/439/308
f 310/441/310 308/439/308 313/444/313
f 297/426/297 313/444/313 296/423/296
f 314/445/314 312/443/312 310/441/310
f 310/441/310 313/444/313 314/445/314
f 249/446/249 312/443/312 314/445/314
f 246/447/246 249/446/249 314/445/314
f 314/445/314 244/448/244 246/447/246
f 314/445/314 313/444/313 315/449/315
f 315/449/315 244/448/244 314/445/314
f 297/426/297 315/449/315 313/444/313
f 316/450/316 244/448/244 315/449/315
f 316/450/316 315/449/315 297/426/297
f 317/451/317 244/448/244 316/450/316
f 297/426/297 292/417/292 316/450/316
f 318/452/318 317/451/317 316/450/316
f 319/453/319 316/450/316 292/417/292
f 316/450/316 319/453/319 318/452/318
f 319/453/319 292/417/292 288/412/288
f 319/453/319 320/454/320 318/452/318
f 319/453/319 288/412/288 320/454/320
f 318/452/318 320/454/320 321/455/321
f 213/456/213 321/455/321 320/454/320
f 320/454/320 288/412/288 322/457/322
f 213/456/213 320/454/320 322/457/322
f 322/457/322 288/412/288 286/409/286
f 286/409/286 34/458/34 322/457/322
f 322/457/322 34/458/34 213/456/213
f 213/456/213 34/458/34 210/459/210
f 323/460/323 324/461/324 325/462/325
f 326/463/326 323/460/323 325/462/325
f 327/464/327 326/463/326 325/462/325
f 328/465/328 323/460/323 326/463/326
f 327/464/327 329/466/329 326/463/326
f 330/467/330 329/466/329 327/464/327
f 331/468/331 328/465/328 326/463/326
f 326/463/326 329/466/329 331/468/331
f 332/469/332 328/465/328 331/468/331
f 333/470/333 332/469/332 331/468/331
f 334/471/334 333/470/333 331/468/331
f 329/466/329 334/471/334 331/468/331
f 330/467/330 335/472/335 329/466/329
f 335/472/335 334/471/334 329/466/329
f 336/473/336 335/472/335 330/467/330
f 337/474/337 334/471/334 335/472/335
f 336/473/336 338/475/338 335/472/335
f 339/476/339 337/474/337 335/472/335
f 340/477/340 337/474/337 339/476/339
f 341/478/341 340/477/340 339/476/339
f 339/476/339 342/479/342 341/478/341
f 335/472/335 338/475/338 343/480/343
f 335/472/335 343/480/343 339/476/339
f 339/476/339 343/480/343 342/479/342
f 344/481/344 342/479/342 343/480/343
f 345/482/345 343/480/343 338/475/338
f 346/483/346 344/481/344 343/480/343
f 345/482/345 347/484/347 343/480/343
f 343/480/343 347/484/347 346/483/346
f 348/485/348 347/484/347 345/482/345
f 349/486/349 346/483/346 347/484/347
f 349/486/349 347/484/347 348/485/348
f 350/487/350 351/488/351 352/489/352
f 352/489/352 351/488/351 353/490/353
f 354/491/354 353/490/353 351/488/351
f 352/489/352 353/490/353 355/492/355
f 356/493/356 353/490/353 354/491/354
f 354/491/354 357/494/357 356/493/356
f 355/492/355 353/490/353 358/495/358
f 356/493/356 358/495/358 353/490/353
f 355/492/355 358/495/358 359/496/359
f 359/496/359 358/495/358 360/497/360
f 361/498/361 360/497/360 358/495/358
f 361/498/361 358/495/358 356/493/356
f 356/493/356 362/499/362 361/498/361
f 356/493/356 357/494/357 363/500/363
f 363/500/363 362/499/362 356/493/356
f 357/494/357 364/501/364 363/500/363
f 365/502/365 362/499/362 363/500/363
f 366/503/366 362/499/362 365/502/365
f 366/503/366 365/502/365 367/504/367
f 367/504/367 365/502/365 368/505/368
f 365/502/365 369/506/369 368/505/368
f 363/500/363 364/501/364 370/507/370
f 370/507/370 365/502/365 363/500/363
f 369/506/369 365/502/365 370/507/370
f 364/501/364 371/508/371 370/507/370
f 370/507/370 372/509/372 369/506/369
f 370/507/370 371/508/371 373/510/373
f 373/510/373 371/508/371 374/511/374
f 375/512/375 373/510/373 374/511/374
f 370/507/370 376/513/376 372/509/372
f 370/507/370 373/510/373 376/513/376
f 376/513/376 373/510/373 375/512/375
f 377/514/377 372/509/372 376/513/376
f 377/514/377 376/513/376 375/512/375
f 350/515/350 352/516/352 378/517/378
f 378/517/378 352/516/352 379/518/379
f 352/516/352 355/519/355 379/518/379
f 379/518/379 380/520/380 378/517/378
f 379/518/379 355/519/355 381/521/381
f 355/519/355 359/522/359 381/521/381
f 381/521/381 359/522/359 360/523/360
f 360/523/360 361/524/361 381/521/381
f 382/525/382 380/520/380 379/518/379
f 379/518/379 381/521/381 382/525/382
f 381/521/381 361/524/361 382/525/382
f 382/525/382 383/526/383 380/520/380
f 361/524/361 362/527/362 382/525/382
f 384/528/384 383/526/383 382/525/382
f 362/527/362 384/528/384 382/525/382
f 384/528/384 385/529/385 383/526/383
f 386/530/386 384/528/384 362/527/362
f 362/527/362 366/531/366 386/530/386
f 367/532/367 386/530/386 366/531/366
f 367/532/367 368/533/368 386/530/386
f 368/533/368 369/534/369 386/530/386
f 387/535/387 385/529/385 384/528/384
f 384/528/384 386/530/386 387/535/387
f 387/535/387 386/530/386 369/534/369
f 385/529/385 387/535/387 388/536/388
f 387/535/387 369/534/369 372/537/372
f 388/536/388 387/535/387 389/538/389
f 374/539/374 388/536/388 389/538/389
f 374/539/374 389/538/389 375/540/375
f 387/535/387 372/537/372 390/541/390
f 387/535/387 390/541/390 389/538/389
f 389/538/389 390/541/390 375/540/375
f 372/537/372 377/542/377 390/541/390
f 377/542/377 375/540/375 390/541/390
f 324/543/324 323/544/323 391/545/391
f 391/545/391 323/544/323 392/546/392
f 392/546/392 323/544/323 328/547/328
f 391/545/391 392/546/392 393/548/393
f 328/547/328 332/549/332 392/546/392
f 392/546/392 394/550/394 393/548/393
f 392/546/392 332/549/332 394/550/394
f 393/548/393 394/550/394 395/551/395
f 332/549/332 333/552/333 334/553/334
f 332/549/332 334/553/334 394/550/394
f 394/550/394 396/554/396 395/551/395
f 394/550/394 334/553/334 396/554/396
f 395/551/395 396/554/396 397/555/397
f 396/554/396 334/553/334 337/556/337
f 397/555/397 396/554/396 398/557/398
f 337/556/337 399/558/399 396/554/396
f 340/559/340 399/558/399 337/556/337
f 340/559/340 341/560/341 399/558/399
f 399/558/399 341/560/341 342/561/342
f 398/557/398 396/554/396 400/562/400
f 396/554/396 399/558/399 400/562/400
f 400/562/400 399/558/399 342/561/342
f 400/562/400 342/561/342 344/563/344
f 398/557/398 400/562/400 401/564/401
f 346/565/346 400/562/400 344/563/344
f 400/562/400 402/566/402 401/564/401
f 400/562/400 346/565/346 402/566/402
f 401/564/401 402/566/402 403/567/403
f 402/566/402 346/565/346 349/568/349
f 403/567/403 402/566/402 349/568/349
f 404/569/404 405/570/405 406/571/406
f 405/570/405 407/572/407 406/571/406
f 408/573/408 407/572/407 405/570/405
f 406/571/406 407/572/407 409/574/409
f 407/572/407 408/573/408 410/575/410
f 410/575/410 408/573/408 411/576/411
f 412/577/412 409/574/409 407/572/407
f 410/575/410 412/577/412 407/572/407
f 409/574/409 412/577/412 413/578/413
f 409/574/409 413/578/413 414/579/414
f 414/579/414 413/578/413 415/580/415
f 415/580/415 413/578/413 416/581/416
f 412/577/412 417/582/417 413/578/413
f 417/582/417 412/577/412 418/583/418
f 412/577/412 410/575/410 418/583/418
f 417/582/417 418/583/418 419/584/419
f 418/583/418 420/585/420 419/584/419
f 420/585/420 418/583/418 421/586/421
f 418/583/418 422/587/422 421/586/421
f 422/587/422 418/583/418 410/575/410
f 421/586/421 422/587/422 423/588/423
f 410/575/410 424/589/424 422/587/422
f 422/587/422 424/589/424 423/588/423
f 410/575/410 411/576/411 424/589/424
f 423/588/423 424/589/424 425/590/425
f 425/590/425 424/589/424 411/576/411
f 195/591/195 192/592/192 426/593/426
f 426/593/426 192/592/192 427/594/427
f 192/592/192 189/595/189 427/594/427
f 426/593/426 427/594/427 428/596/428
f 427/594/427 189/595/189 429/597/429
f 189/595/189 187/598/187 429/597/429
f 428/596/428 427/594/427 430/599/430
f 429/597/429 187/598/187 431/600/431
f 185/601/185 431/600/431 187/598/187
f 429/597/429 432/602/432 427/594/427
f 430/599/430 427/594/427 432/602/432
f 433/603/433 432/602/432 429/597/429
f 431/600/431 433/603/433 429/597/429
f 434/604/434 430/599/430 432/602/432
f 432/602/432 433/603/433 434/604/434
f 435/605/435 431/600/431 185/601/185
f 183/606/183 435/605/435 185/601/185
f 435/605/435 436/607/436 431/600/431
f 436/607/436 433/603/433 431/600/431
f 437/608/437 435/605/435 183/606/183
f 437/608/437 436/607/436 435/605/435
f 182/609/182 437/608/437 183/606/183
f 438/610/438 433/603/433 436/607/436
f 439/611/439 182/609/182 180/612/180
f 440/613/440 436/607/436 437/608/437
f 438/610/438 436/607/436 440/613/440
f 441/614/441 437/608/437 182/609/182
f 441/614/441 182/609/182 439/611/439
f 437/608/437 442/615/442 440/613/440
f 437/608/437 441/614/441 442/615/442
f 439/611/439 443/616/443 441/614/441
f 443/616/443 442/615/442 441/614/441
f 444/617/444 443/616/443 439/611/439
f 443/616/443 444/617/444 301/618/301
f 301/618/301 444/617/444 238/619/238
f 301/618/301 442/615/442 443/616/443
f 302/620/302 442/615/442 301/618/301
f 442/615/442 302/620/302 445/621/445
f 445/621/445 302/620/302 305/622/305
f 307/623/307 445/621/445 305/622/305
f 446/624/446 442/615/442 445/621/445
f 440/613/440 442/615/442 446/624/446
f 447/625/447 445/621/445 307/623/307
f 440/613/440 446/624/446 448/626/448
f 446/624/446 445/621/445 448/626/448
f 445/621/445 447/625/447 448/626/448
f 440/613/440 448/626/448 438/610/438
f 449/627/449 447/625/447 307/623/307
f 447/625/447 449/627/449 448/626/448
f 311/628/311 449/627/449 307/623/307
f 312/629/312 449/627/449 311/628/311
f 450/630/450 438/610/438 448/626/448
f 448/626/448 449/627/449 450/630/450
f 451/631/451 449/627/449 312/629/312
f 449/627/449 451/631/451 450/630/450
f 249/632/249 451/631/451 312/629/312
f 451/631/451 249/632/249 256/633/256
f 256/633/256 261/634/261 451/631/451
f 450/630/450 451/631/451 452/635/452
f 451/631/451 261/634/261 452/635/452
f 453/636/453 438/610/438 450/630/450
f 452/635/452 453/636/453 450/630/450
f 453/636/453 433/603/433 438/610/438
f 453/636/453 434/604/434 433/603/433
f 261/634/261 454/637/454 452/635/452
f 454/637/454 453/636/453 452/635/452
f 454/637/454 434/604/434 453/636/453
f 455/638/455 454/637/454 261/634/261
f 455/638/455 456/639/456 454/637/454
f 454/637/454 457/640/457 434/604/434
f 457/640/457 454/637/454 456/639/456
f 457/640/457 430/599/430 434/604/434
f 457/640/457 456/639/456 458/641/458
f 458/641/458 430/599/430 457/640/457
f 459/642/459 458/641/458 456/639/456
f 458/641/458 459/642/459 227/643/227
f 460/644/460 430/599/430 458/641/458
f 460/644/460 458/641/458 227/643/227
f 428/596/428 430/599/430 460/644/460
f 428/596/428 460/644/460 103/645/103
f 103/645/103 460/644/460 227/643/227
f 103/645/103 227/643/227 226/646/226
f 439/647/439 180/648/180 178/649/178
f 439/647/439 178/649/178 461/650/461
f 461/650/461 444/651/444 439/647/439
f 178/649/178 177/652/177 461/650/461
f 239/653/239 238/654/238 444/651/444
f 239/653/239 444/651/444 461/650/461
f 240/655/240 177/652/177 130/656/130
f 177/652/177 240/655/240 241/657/241
f 461/650/461 462/658/462 239/653/239
f 461/650/461 177/652/177 462/658/462
f 462/658/462 177/652/177 241/657/241
f 243/659/243 239/653/239 462/658/462
f 462/658/462 241/657/241 243/659/243
f 252/660/252 251/661/251 218/662/218
f 217/663/217 218/662/218 251/661/251
f 251/661/251 463/664/463 217/663/217
f 215/665/215 217/663/217 463/664/463
f 464/666/464 463/664/463 251/661/251
f 464/666/464 251/661/251 248/667/248
f 248/667/248 245/668/245 464/666/464
f 245/668/245 244/669/244 464/666/464
f 464/666/464 244/669/244 317/670/317
f 463/664/463 465/671/465 215/665/215
f 464/666/464 465/671/465 463/664/463
f 317/670/317 465/671/465 464/666/464
f 465/671/465 212/672/212 215/665/215
f 317/670/317 318/673/318 465/671/465
f 465/671/465 213/674/213 212/672/212
f 318/673/318 321/675/321 465/671/465
f 321/675/321 213/674/213 465/671/465
f 218/676/218 258/677/258 252/678/252
f 218/676/218 221/679/221 258/677/258
f 258/677/258 221/679/221 466/680/466
f 221/679/221 222/681/222 466/680/466
f 466/680/466 467/682/467 258/677/258
f 467/682/467 259/683/259 258/677/258
f 259/683/259 467/682/467 260/684/260
f 467/682/467 261/685/261 260/684/260
f 455/686/455 261/685/261 467/682/467
f 222/681/222 468/687/468 466/680/466
f 468/687/468 467/682/467 466/680/466
f 455/686/455 467/682/467 468/687/468
f 222/681/222 224/688/224 468/687/468
f 456/689/456 455/686/455 468/687/468
f 224/688/224 227/690/227 468/687/468
f 456/689/456 468/687/468 459/691/459
f 468/687/468 227/690/227 459/691/459
f 286/692/286 35/693/35 34/694/34
f 286/692/286 469/695/469 35/693/35
f 469/695/469 33/696/33 35/693/35
f 469/695/469 231/697/231 33/696/33
f 469/695/469 286/692/286 470/698/470
f 286/692/286 284/699/284 470/698/470
f 469/695/469 471/700/471 231/697/231
f 159/701/159 160/702/160 284/699/284
f 471/700/471 472/703/472 231/697/231
f 472/703/472 175/704/175 231/697/231
f 284/699/284 160/702/160 473/705/473
f 473/705/473 470/698/470 284/699/284
f 175/704/175 472/703/472 474/706/474
f 474/706/474 174/707/174 175/704/175
f 474/706/474 475/708/475 174/707/174
f 174/707/174 475/708/475 171/709/171
f 474/706/474 472/703/472 476/710/476
f 476/710/476 475/708/475 474/706/474
f 477/711/477 476/710/476 472/703/472
f 471/700/471 477/711/477 472/703/472
f 476/710/476 477/711/477 478/712/478
f 471/700/471 479/713/479 477/711/477
f 471/700/471 480/714/480 479/713/479
f 481/715/481 476/710/476 478/712/478
f 475/708/475 476/710/476 481/715/481
f 481/715/481 478/712/478 482/716/482
f 483/717/483 481/715/481 482/716/482
f 484/718/484 480/714/480 471/700/471
f 471/700/471 469/695/469 484/718/484
f 485/719/485 480/714/480 484/718/484
f 470/698/470 484/718/484 469/695/469
f 484/718/484 486/720/486 485/719/485
f 486/720/486 484/718/484 470/698/470
f 485/719/485 486/720/486 487/721/487
f 488/722/488 486/720/486 470/698/470
f 470/698/470 473/705/473 488/722/488
f 486/720/486 489/723/489 487/721/487
f 489/723/489 486/720/486 488/722/488
f 487/721/487 489/723/489 490/724/490
f 489/723/489 491/725/491 490/724/490
f 473/705/473 492/726/492 488/722/488
f 489/723/489 493/727/493 491/725/491
f 489/723/489 488/722/488 493/727/493
f 493/727/493 488/722/488 492/726/492
f 493/727/493 494/728/494 491/725/491
f 495/729/495 494/728/494 493/727/493
f 492/726/492 473/705/473 496/730/496
f 492/726/492 496/730/496 493/727/493
f 496/730/496 473/705/473 160/702/160
f 496/730/496 160/702/160 163/731/163
f 493/727/493 496/730/496 497/732/497
f 496/730/496 163/731/163 497/732/497
f 493/727/493 498/733/498 495/729/495
f 493/727/493 497/732/497 498/733/498
f 497/732/497 163/731/163 498/733/498
f 166/734/166 498/733/498 163/731/163
f 495/729/495 498/733/498 499/735/499
f 167/736/167 498/733/498 166/734/166
f 498/733/498 167/736/167 499/735/499
f 499/735/499 167/736/167 500/737/500
f 500/737/500 167/736/167 501/738/501
f 167/736/167 502/739/502 501/738/501
f 503/740/503 502/739/502 167/736/167
f 503/740/503 483/717/483 502/739/502
f 167/736/167 168/741/168 503/740/503
f 503/740/503 481/715/481 483/717/483
f 503/740/503 168/741/168 169/742/169
f 503/740/503 504/743/504 481/715/481
f 503/740/503 169/742/169 504/743/504
f 481/715/481 504/743/504 475/708/475
f 171/709/171 504/743/504 169/742/169
f 171/709/171 475/708/475 504/743/504
f 103/744/103 102/745/102 428/746/428
f 102/745/102 505/747/505 428/746/428
f 102/745/102 104/748/104 505/747/505
f 104/748/104 234/749/234 505/747/505
f 505/747/505 506/750/506 428/746/428
f 506/750/506 426/751/426 428/746/428
f 505/747/505 234/749/234 507/752/507
f 195/753/195 426/751/426 196/754/196
f 234/749/234 508/755/508 507/752/507
f 234/749/234 207/756/207 508/755/508
f 196/754/196 426/751/426 509/757/509
f 426/751/426 506/750/506 509/757/509
f 207/756/207 510/758/510 508/755/508
f 510/758/510 207/756/207 206/759/206
f 509/757/509 511/760/511 196/754/196
f 511/760/511 198/761/198 196/754/196
f 510/758/510 206/759/206 512/762/512
f 206/759/206 204/763/204 512/762/512
f 510/758/510 513/764/513 508/755/508
f 513/764/513 510/758/510 512/762/512
f 513/764/513 514/765/514 508/755/508
f 514/765/514 507/752/507 508/755/508
f 515/766/515 514/765/514 513/764/513
f 514/765/514 516/767/516 507/752/507
f 507/752/507 516/767/516 517/768/517
f 518/769/518 515/766/515 513/764/513
f 512/762/512 518/769/518 513/764/513
f 518/769/518 519/770/519 515/766/515
f 520/771/520 519/770/519 518/769/518
f 517/768/517 521/772/521 507/752/507
f 521/772/521 505/747/505 507/752/507
f 522/773/522 521/772/521 517/768/517
f 506/750/506 505/747/505 521/772/521
f 522/773/522 523/774/523 521/772/521
f 523/774/523 506/750/506 521/772/521
f 523/774/523 522/773/522 524/775/524
f 525/776/525 506/750/506 523/774/523
f 506/750/506 525/776/525 509/757/509
f 523/774/523 524/775/524 526/777/526
f 526/777/526 525/776/525 523/774/523
f 524/775/524 527/778/527 526/777/526
f 526/777/526 527/778/527 528/779/528
f 509/757/509 525/776/525 529/780/529
f 529/780/529 511/760/511 509/757/509
f 526/777/526 530/781/530 525/776/525
f 530/781/530 529/780/529 525/776/525
f 526/777/526 528/779/528 530/781/530
f 529/780/529 530/781/530 511/760/511
f 528/779/528 531/782/531 530/781/530
f 530/781/530 531/782/531 532/783/532
f 511/760/511 530/781/530 533/784/533
f 198/761/198 511/760/511 533/784/533
f 534/785/534 530/781/530 532/783/532
f 530/781/530 534/785/534 533/784/533
f 534/785/534 198/761/198 533/784/533
f 198/761/198 534/785/534 200/786/200
f 534/785/534 532/783/532 535/787/535
f 200/786/200 534/785/534 201/788/201
f 534/785/534 535/787/535 201/788/201
f 201/788/201 535/787/535 536/789/536
f 201/788/201 536/789/536 537/790/537
f 537/790/537 538/791/538 201/788/201
f 201/788/201 538/791/538 539/792/539
f 538/791/538 520/771/520 539/792/539
f 202/793/202 201/788/201 539/792/539
f 539/792/539 520/771/520 518/769/518
f 203/794/203 202/793/202 539/792/539
f 539/792/539 518/769/518 540/795/540
f 539/792/539 540/795/540 203/794/203
f 518/769/518 512/762/512 540/795/540
f 204/763/204 203/794/203 540/795/540
f 204/763/204 540/795/540 512/762/512
f 264/796/264 267/797/267 262/798/262
f 541/799/541 267/797/267 264/796/264
f 541/799/541 264/796/264 542/800/542
f 264/796/264 263/801/263 542/800/542
f 542/800/542 263/801/263 266/802/266
f 543/803/543 267/797/267 541/799/541
f 272/804/272 267/797/267 543/803/543
f 273/805/273 272/804/272 543/803/543
f 266/802/266 544/806/544 542/800/542
f 269/807/269 544/806/544 266/802/266
f 545/808/545 273/805/273 543/803/543
f 273/805/273 545/808/545 274/809/274
f 269/807/269 546/810/546 544/806/544
f 283/811/283 546/810/546 269/807/269
f 281/812/281 546/810/546 283/811/283
f 544/806/544 546/810/546 547/813/547
f 547/813/547 546/810/546 281/812/281
f 544/806/544 547/813/547 542/800/542
f 279/814/279 547/813/547 281/812/281
f 547/813/547 279/814/279 278/815/278
f 547/813/547 278/815/278 277/816/277
f 275/817/275 547/813/547 277/816/277
f 548/818/548 542/800/542 547/813/547
f 548/818/548 547/813/547 275/817/275
f 548/818/548 541/799/541 542/800/542
f 548/818/548 543/803/543 541/799/541
f 549/819/549 548/818/548 275/817/275
f 549/819/549 275/817/275 271/820/271
f 549/819/549 271/820/271 274/809/274
f 274/809/274 545/808/545 549/819/549
f 550/821/550 543/803/543 548/818/548
f 550/821/550 548/818/548 549/819/549
f 545/808/545 543/803/543 550/821/550
f 545/808/545 550/821/550 549/819/549
f 406/822/406 409/823/409 404/824/404
f 404/824/404 409/823/409 551/825/551
f 551/825/551 552/826/552 404/824/404
f 552/826/552 405/827/405 404/824/404
f 405/827/405 552/826/552 408/828/408
f 551/825/551 409/823/409 553/829/553
f 553/829/553 409/823/409 414/830/414
f 553/829/553 414/830/414 415/831/415
f 552/826/552 554/832/554 408/828/408
f 408/828/408 554/832/554 411/833/411
f 415/831/415 555/834/555 553/829/553
f 415/831/415 416/835/416 555/834/555
f 554/832/554 556/836/556 411/833/411
f 411/833/411 556/836/556 425/837/425
f 425/837/425 556/836/556 423/838/423
f 554/832/554 557/839/557 556/836/556
f 423/838/423 556/836/556 557/839/557
f 552/826/552 557/839/557 554/832/554
f 423/838/423 557/839/557 421/840/421
f 420/841/420 421/840/421 557/839/557
f 419/842/419 420/841/420 557/839/557
f 417/843/417 419/842/419 557/839/557
f 557/839/557 552/826/552 558/844/558
f 417/843/417 557/839/557 558/844/558
f 558/844/558 552/826/552 551/825/551
f 553/829/553 558/844/558 551/825/551
f 559/845/559 558/844/558 553/829/553
f 555/834/555 559/845/559 553/829/553
f 558/844/558 560/846/560 417/843/417
f 559/845/559 560/846/560 558/844/558
f 555/834/555 560/846/560 559/845/559
f 555/834/555 416/835/416 560/846/560
f 413/847/413 417/843/417 560/846/560
f 416/835/416 413/847/413 560/846/560
f 211/848/211 561/849/561 214/850/214
f 214/850/214 561/849/561 216/851/216
f 209/852/209 561/849/561 211/848/211
f 216/851/216 561/849/561 562/853/562
f 216/851/216 562/853/562 219/854/219
f 219/854/219 562/853/562 220/855/220
f 209/852/209 563/856/563 561/849/561
f 562/853/562 561/849/561 563/856/563
f 208/857/208 563/856/563 209/852/209
f 233/858/233 563/856/563 208/857/208
f 233/858/233 229/859/229 563/856/563
f 563/856/563 229/859/229 228/860/228
f 562/853/562 564/861/564 220/855/220
f 563/856/563 564/861/564 562/853/562
f 228/860/228 564/861/564 563/856/563
f 220/855/220 564/861/564 223/862/223
f 225/863/225 564/861/564 228/860/228
f 223/862/223 564/861/564 225/863/225
f 565/864/565 566/865/566 567/866/567
f 567/866/567 566/865/566 568/867/568
f 569/868/569 565/864/565 567/866/567
f 568/867/568 570/869/570 567/866/567
f 571/870/571 570/869/570 568/867/568
f 572/871/572 570/869/570 571/870/571
f 573/872/573 570/869/570 572/871/572
f 574/873/574 567/866/567 570/869/570
f 574/873/574 570/869/570 573/872/573
f 569/868/569 567/866/567 574/873/574
f 573/872/573 575/874/575 574/873/574
f 576/875/576 575/874/575 573/872/573
f 577/876/577 569/868/569 574/873/574
f 574/873/574 575/874/575 577/876/577
f 577/876/577 578/877/578 569/868/569
f 579/878/579 575/874/575 576/875/576
f 580/879/580 578/877/578 577/876/577
f 577/876/577 575/874/575 581/880/581
f 577/876/577 581/880/581 580/879/580
f 582/881/582 580/879/580 581/880/581
f 575/874/575 582/881/582 581/880/581
f 582/881/582 583/882/583 580/879/580
f 582/881/582 584/883/584 583/882/583
f 585/884/585 582/881/582 575/874/575
f 585/884/585 584/883/584 582/881/582
f 585/884/585 575/874/575 579/878/579
f 585/884/585 586/885/586 584/883/584
f 579/878/579 587/886/587 585/884/585
f 587/886/587 586/885/586 585/884/585
f 588/887/588 587/886/587 579/878/579
f 586/885/586 587/886/587 589/888/589
f 588/887/588 590/889/590 587/886/587
f 589/888/589 587/886/587 591/890/591
f 587/886/587 590/889/590 591/890/591
f 592/891/592 571/892/571 593/893/593
f 571/892/571 568/894/568 593/893/593
f 593/893/593 594/895/594 592/891/592
f 593/893/593 568/894/568 595/896/595
f 568/894/568 566/897/566 595/896/595
f 595/896/595 566/897/566 565/898/565
f 565/898/565 569/899/569 595/896/595
f 593/893/593 595/896/595 596/900/596
f 595/896/595 569/899/569 596/900/596
f 596/900/596 594/895/594 593/893/593
f 569/899/569 597/901/597 596/900/596
f 578/902/578 597/901/597 569/899/569
f 580/903/580 597/901/597 578/902/578
f 598/904/598 594/895/594 596/900/596
f 597/901/597 598/904/598 596/900/596
f 599/905/599 594/895/594 598/904/598
f 599/905/599 598/904/598 600/906/600
f 580/903/580 601/907/601 597/901/597
f 601/907/601 598/904/598 597/901/597
f 601/907/601 580/903/580 602/908/602
f 601/907/601 602/908/602 598/904/598
f 580/903/580 583/909/583 602/908/602
f 583/909/583 584/910/584 602/908/602
f 598/904/598 602/908/602 603/911/603
f 602/908/602 584/910/584 603/911/603
f 600/906/600 598/904/598 603/911/603
f 584/910/584 586/912/586 603/911/603
f 604/913/604 600/906/600 603/911/603
f 604/913/604 603/911/603 586/912/586
f 605/914/605 600/906/600 604/913/604
f 589/915/589 604/913/604 586/912/586
f 605/914/605 604/913/604 590/916/590
f 591/917/591 604/913/604 589/915/589
f 590/916/590 604/913/604 591/917/591
