mtllib pm0550_00_41_lod1.mtl
v 0.1098121 0.5557857 0.1718452
vt 0.1903581 0.8283284
vn 0.878418 0.2817383 0.3857422
v 0.09520444 0.5758471 0.1904556
vt 0.3148936 0.9607143
vn 0.8999023 0.3347168 0.2785645
v 0.1252332 0.5151337 0.1664233
vt 0.1417851 0.5759823
vn 0.9101563 0.2734375 0.310791
v 0.08843733 0.5668572 0.2239572
vt 0.5162046 0.9123458
vn 0.902832 0.2973633 0.3100586
v 0.08137073 0.5315139 0.2757092
vt 0.8277985 0.7113589
vn 0.8969727 0.3100586 0.3134766
v 0.09217085 0.4952118 0.2824828
vt 0.8547762 0.4864662
vn 0.9086914 0.2819824 0.3071289
v 0.1056446 0.4554366 0.2742492
vt 0.7945595 0.24176
vn 0.9291992 0.2243652 0.2929688
v 0.1188297 0.4272541 0.2499462
vt 0.6423644 0.06592107
vn 0.9282227 0.2183838 0.3010254
v 0.1340129 0.425822 0.211107
vt 0.3977696 0.04589987
vn 0.9018555 0.260498 0.3432617
v 0.1365782 0.4620967 0.1770134
vt 0.1933548 0.2556198
vn 0.9003906 0.2617188 0.3461914
o pm0550_00_41_body_mesh_shape_lod1_l_eye
g polygon_0
usemtl l_eye
f 1/1/1 2/2/2 3/3/3
f 3/3/3 2/2/2 4/4/4
f 5/5/5 3/3/3 4/4/4
f 5/5/5 6/6/6 3/3/3
f 3/3/3 6/6/6 7/7/7
f 3/3/3 7/7/7 8/8/8
f 3/3/3 8/8/8 9/9/9
f 3/3/3 9/9/9 10/10/10
v -0.1252332 0.5151337 0.1664233
vt 0.1417852 0.5759823
vn -0.9101563 0.2734375 0.310791
v -0.09520444 0.5758471 0.1904556
vn -0.8999023 0.3347168 0.2785645
v -0.1098121 0.5557857 0.1718452
vn -0.878418 0.2817383 0.3857422
v -0.08843733 0.5668572 0.2239572
vn -0.902832 0.2973633 0.3100586
v -0.08137073 0.5315139 0.2757092
vn -0.8969727 0.3100586 0.3134766
v -0.09217085 0.4952118 0.2824828
vn -0.9086914 0.2819824 0.3071289
v -0.1056446 0.4554366 0.2742492
vn -0.9291992 0.2243652 0.2929688
v -0.1188297 0.4272541 0.2499462
vn -0.9282227 0.2183838 0.3010254
v -0.1340129 0.425822 0.211107
vn -0.9018555 0.260498 0.3432617
v -0.1365782 0.4620967 0.1770134
vt 0.1933549 0.2556198
vn -0.9003906 0.2617188 0.3461914
o pm0550_00_41_body_mesh_shape_lod1_r_eye
g polygon_0
usemtl r_eye
f 11/11/11 12/2/12 13/1/13
f 14/4/14 12/2/12 11/11/11
f 15/5/15 14/4/14 11/11/11
f 16/6/16 15/5/15 11/11/11
f 11/11/11 17/7/17 16/6/16
f 18/8/18 17/7/17 11/11/11
f 19/9/19 18/8/18 11/11/11
f 11/11/11 20/12/20 19/9/19
v 0.09063569 0.2655614 0.2227835
vt 0.9338499 0.7444011
vn -0.890625 0.3149414 -0.3273926
v 0.1062676 0.3069765 0.2200969
vt 0.9564714 0.7594532
v 0.109024 0.279963 0.1866064
vt 0.9338881 0.7711963
v 0.1202464 0.2781494 0.1915168
vt 0.9354095 0.7749501
vn 0.9433594 0.2744141 0.1845703
vn 0.3666992 0.7382813 -0.5654297
vn 0.878418 0.07055664 0.472168
v 0.09854396 0.4063694 0.2457475
vt 0.8814372 0.7711988
vn 0.262207 -0.7231445 -0.6381836
v 0.1121218 0.4053668 0.2524621
vt 0.8830621 0.7668262
vn 0.840332 -0.5219727 0.1431885
v 0.0879533 0.3736177 0.2785039
vt 0.9056696 0.7869128
vn 0.7929688 -0.3361816 0.5073242
vn -0.9018555 -0.1223145 -0.4138184
v 0.07900002 0.4186554 0.2847053
vt 0.8815801 0.7991824
v 0.06191939 0.2483034 0.2633504
vt 0.9338251 0.8220874
vn -0.7436523 0.4106445 -0.5273438
v 0.08574317 0.2904098 0.2625464
vt 0.9564288 0.8376884
v 0.09424453 0.2624779 0.2288072
vt 0.9359661 0.8528305
v 0.02913569 0.2368625 0.2964227
vt 0.9346928 0.8967369
vn -0.6455078 0.5375977 -0.5415039
v 0.05653395 0.2739937 0.3006257
vt 0.9564389 0.9118721
v 0.06159386 0.2457817 0.2665855
vt 0.9348534 0.9235434
v 0.03503436 0.2391368 0.3041441
vt 0.9763274 0.9335031
vn 0.3103027 -0.0960083 0.9453125
v 0.06808928 0.2482975 0.2735973
vt 0.9761721 0.964911
vn 0.9160156 -0.008995056 0.4001465
vt 0.9576236 0.9509346
vn 0.6889648 -0.3210449 0.6494141
v 0.06878777 0.3932782 0.3175659
vt 0.890044 0.8732235
vn -0.8574219 -0.2418213 -0.4536133
v 0.05298103 0.4390883 0.3230189
vt 0.8651276 0.8890929
v 0.0761779 0.4272163 0.2855048
vt 0.8654727 0.8608555
vn 0.7978516 -0.223999 0.5585938
v 0.06611998 0.4399439 0.3312922
vt 0.866716 0.8935739
vn 0.4880371 -0.220459 0.8442383
vn -0.500061 -0.2705078 0.8222656
v -0.109024 0.279963 0.1866064
vt 0.06611186 0.7711963
vn 0.890625 0.3149414 -0.3273926
v -0.1062676 0.3069765 0.2200969
vt 0.04352862 0.7594532
v -0.09063569 0.2655614 0.2227835
vt 0.06615007 0.7444011
vn -0.878418 0.07055664 0.472168
vn -0.3666992 0.7382813 -0.5654297
v -0.1202464 0.2781494 0.1915168
vt 0.06459045 0.7749501
vn -0.9433594 0.2744141 0.1845703
v -0.1121218 0.4053668 0.2524621
vt 0.1169379 0.7668262
vn -0.840332 -0.5219727 0.1431885
v -0.09854396 0.4063694 0.2457475
vt 0.1185628 0.7711987
vn -0.262207 -0.7231445 -0.6381836
v -0.0879533 0.3736177 0.2785039
vt 0.09433043 0.7869128
vn -0.7929688 -0.3361816 0.5073242
vn 0.9018555 -0.1223145 -0.4138184
v -0.07900002 0.4186554 0.2847053
vt 0.1184199 0.7991824
v -0.09424453 0.2624779 0.2288072
vt 0.06403387 0.8528305
vn 0.7436523 0.4106445 -0.5273438
v -0.08574317 0.2904098 0.2625464
vt 0.04357117 0.8376884
v -0.06191939 0.2483034 0.2633504
vt 0.06617488 0.8220874
v -0.06159386 0.2457817 0.2665855
vt 0.06514657 0.9235434
vn 0.6455078 0.5375977 -0.5415039
v -0.05653395 0.2739937 0.3006257
vt 0.0435611 0.9118721
v -0.02913569 0.2368625 0.2964227
vt 0.0653072 0.8967369
vt 0.0423764 0.9509346
vn -0.6889648 -0.3210449 0.6494141
v -0.06808928 0.2482975 0.2735973
vt 0.02382791 0.964911
vn -0.9160156 -0.008995056 0.4001465
v -0.03503436 0.2391368 0.3041441
vt 0.02367258 0.9335031
vn -0.3103027 -0.0960083 0.9453125
v -0.0761779 0.4272163 0.2855048
vt 0.1345273 0.8608555
vn 0.8574219 -0.2418213 -0.4536133
v -0.05298103 0.4390883 0.3230189
vt 0.1348724 0.8890929
v -0.06878777 0.3932782 0.3175659
vt 0.109956 0.8732235
v -0.06611998 0.4399439 0.3312922
vt 0.133284 0.8935739
vn -0.4880371 -0.220459 0.8442383
vn -0.7978516 -0.223999 0.5585938
vn 0.500061 -0.2705078 0.8222656
vn -0.7504883 0.5058594 0.4243164
vt 0.9377351 0.8944406
vt 0.9378904 0.9258485
vn 0.328125 0.7504883 -0.5732422
vt 0.06226492 0.8944406
vn 0.7504883 0.5058594 0.4243164
vn -0.328125 0.7504883 -0.5732422
vt 0.06210957 0.9258485
v 0.2841663 0.5169484 0.08537415
vt 0.8633406 0.3825024
vn -0.1384277 0.3840332 0.9125977
v 0.1631046 0.4166767 0.08548465
vt 0.9289876 0.3121607
vn -0.7250977 0.6870117 -0.03479004
v 0.2169048 0.4598642 0.09919263
vt 0.9015604 0.3470352
vn 0.001559258 0.04101563 0.9990234
vn -0.1435547 0.3918457 -0.9082031
v 0.2169227 0.4603284 0.07157374
vt 0.8969874 0.3412654
vn -0.003080368 0.050354 -0.9985352
v 0.4781407 0.5842463 0.08513717
vt 0.752836 0.4464427
vn 0.07073975 -0.04013062 -0.996582
v 0.3586132 0.4294555 0.08572838
vt 0.8076837 0.3396384
vn 0.0824585 -0.0562439 -0.9946289
v 0.1307283 0.3675117 0.06948362
vt 0.9376742 0.2788709
vn -0.1056519 -0.04678345 -0.9931641
v 0.3256714 0.351184 0.08405121
vt 0.8190631 0.2887612
vn 0.07397461 -0.006511688 -0.9970703
v 0.3133737 0.2783189 0.08329102
vt 0.8187692 0.2428104
vn 0.0536499 -0.04452515 -0.9975586
v 0.2238802 0.2920893 0.090676
vt 0.8746047 0.2413867
vn -0.1400146 -0.4240723 -0.8945313
v 0.1610987 0.3302983 0.08385891
vt 0.9185354 0.2547596
vn -0.5576172 -0.8291016 0.03475952
v 0.1590265 0.320586 0.1067893
vt 0.8343478 0.5168045
vn 0.9990234 0.002454758 0.0333252
v 0.1462141 0.3201102 0.1136926
vt 0.8269593 0.5197518
vn -0.9829102 0.1777344 0.04632568
v 0.1578453 0.3837515 0.1387499
vt 0.7993937 0.4924085
vn -0.9536133 0.1845703 -0.2368164
vn 0.9882813 0.1209106 -0.08862305
v 0.1623528 0.3704775 0.1709163
vt 0.8088494 0.4732826
vn 0.9355469 -0.05505371 0.3474121
v 0.152029 0.4106951 0.1715089
vt 0.7842219 0.4733571
vn 0.9038086 0.2266846 0.3618164
v 0.1406114 0.333167 0.173173
vt 0.8325784 0.4639856
vn -0.1859131 0.1794434 0.9658203
v 0.1532234 0.2725993 0.09648142
vt 0.8637058 0.5234375
vn 0.9086914 -0.4162598 0.02107239
v 0.1438098 0.2948281 0.1823034
vt 0.8580716 0.4681211
vn 0.9194336 -0.263916 0.2905273
v 0.1268608 0.2954645 0.181462
vt 0.8553043 0.4577788
vn 0.004936218 0.8427734 0.5375977
v 0.09816231 0.2684047 0.2592962
vt 0.8943105 0.419415
vn 0.8647461 -0.3220215 0.3847656
v 0.1090469 0.2249592 0.1903993
vt 0.9078134 0.469106
vn 0.7866211 -0.559082 0.2609863
v 0.08272712 0.1894765 0.1679713
vt 0.9332744 0.4841384
vn 0.4897461 -0.8530273 0.1798096
v 0.08435652 0.1864468 0.1014254
vt 0.933634 0.5234375
vn 0.6162109 -0.7861328 0.03982544
v 3.84804E-09 0.1529799 0.1077954
vt 0.9882813 0.5234375
vn 0 -0.9951172 0.0970459
v 1.139453E-08 0.1898287 0.2637982
vt 0.9757438 0.4204258
vn 0 -0.9487305 0.3151855
v 0.07883798 0.2505173 0.2893242
vt 0.914354 0.4045238
vn 0.7094727 -0.4975586 0.4985352
v 0.04333146 0.2474536 0.3096937
vt 0.929051 0.3836505
vn 0.470459 0.7460938 0.4707031
v 0.03957989 0.2008709 0.2657712
vt 0.9516683 0.4225792
vn 0.4387207 -0.8100586 0.3884277
v -2.290403E-09 0.2332808 0.3234448
vt 0.9617503 0.3772599
vn 0 -0.6967773 0.7167969
v 0.04481826 0.2413308 0.3183141
vt 0.9352537 0.3858842
vn 0.4313965 -0.6074219 0.6665039
v 2.915296E-09 0.2737179 0.3466917
vt 0.9476753 0.3512791
vn 0 -0.4560547 0.8896484
v -0.1631046 0.4166767 0.08548465
vt 0.07101241 0.3121607
vn 0.7250977 0.6870117 -0.03479004
v -0.2841663 0.5169485 0.08537417
vt 0.1366594 0.3825024
vn 0.1384277 0.3840332 0.9125977
v -0.2169048 0.4598642 0.09919263
vt 0.09843957 0.3470352
vn -0.001559258 0.04101563 0.9990234
vn 0.1435547 0.3918457 -0.9082031
v -0.2169227 0.4603284 0.07157374
vt 0.1030126 0.3412654
vn 0.003080368 0.050354 -0.9985352
v -0.4781407 0.5842463 0.08513717
vt 0.247164 0.4464427
vn -0.07073975 -0.04013062 -0.996582
v -0.3586132 0.4294555 0.08572838
vt 0.1923164 0.3396384
vn -0.0824585 -0.0562439 -0.9946289
v -0.1307283 0.3675117 0.06948362
vt 0.06232584 0.2788709
vn 0.1056519 -0.04678345 -0.9931641
v -0.3256714 0.351184 0.08405121
vt 0.1809369 0.2887612
vn -0.07397461 -0.006511688 -0.9970703
v -0.3133737 0.2783189 0.08329102
vt 0.1812308 0.2428104
vn -0.0536499 -0.04452515 -0.9975586
v -0.2238802 0.2920893 0.090676
vt 0.1253952 0.2413867
vn 0.1400146 -0.4240723 -0.8945313
v -0.1610987 0.3302983 0.08385891
vt 0.08146459 0.2547596
vn 0.5576172 -0.8291016 0.03475952
v -0.1590265 0.320586 0.1067893
vt 0.1656522 0.5168045
vn -0.9990234 0.002454758 0.0333252
v -0.1578453 0.3837515 0.1387499
vt 0.2006063 0.4924085
vn 0.9536133 0.1845703 -0.2368164
v -0.1462141 0.3201102 0.1136926
vt 0.1730407 0.5197518
vn 0.9829102 0.1777344 0.04632568
v -0.1623528 0.3704775 0.1709163
vt 0.1911506 0.4732826
vn -0.9355469 -0.05505371 0.3474121
vn -0.9882813 0.1209106 -0.08862305
v -0.152029 0.4106951 0.1715089
vt 0.2157781 0.4733571
vn -0.9038086 0.2266846 0.3618164
v -0.1406114 0.333167 0.173173
vt 0.1674217 0.4639856
vn 0.1859131 0.1794434 0.9658203
v -0.1532234 0.2725993 0.09648142
vt 0.1362942 0.5234375
vn -0.9086914 -0.4162598 0.02107239
v -0.1438098 0.2948281 0.1823034
vt 0.1419284 0.4681211
vn -0.9194336 -0.263916 0.2905273
v -0.1268608 0.2954645 0.181462
vt 0.1446957 0.4577788
vn -0.004936218 0.8427734 0.5375977
v -0.09816231 0.2684047 0.2592962
vt 0.1056895 0.419415
vn -0.8647461 -0.3220215 0.3847656
v -0.1090469 0.2249592 0.1903993
vt 0.09218664 0.4691061
vn -0.7866211 -0.559082 0.2609863
v -0.08272712 0.1894765 0.1679713
vt 0.06672563 0.4841384
vn -0.4897461 -0.8530273 0.1798096
v -0.08435652 0.1864468 0.1014254
vt 0.06636593 0.5234375
vn -0.6162109 -0.7861328 0.03982544
vt 0.01171875 0.5234375
vt 0.02425619 0.4204258
v -0.07883798 0.2505173 0.2893242
vt 0.08564603 0.4045238
vn -0.7094727 -0.4975586 0.4985352
v -0.04333146 0.2474536 0.3096937
vt 0.07094892 0.3836505
vn -0.470459 0.7460938 0.4707031
v -0.03957989 0.2008709 0.2657712
vt 0.04833169 0.4225792
vn -0.4387207 -0.8100586 0.3884277
vt 0.03824968 0.3772599
v -0.04481826 0.2413308 0.3183141
vt 0.06474628 0.3858842
vn -0.4313965 -0.6074219 0.6665039
vt 0.05232465 0.3512791
v 0.101791 0.2636643 0.227781
vt 0.9760041 0.783551
vn 0.6347656 0.07080078 0.769043
vt 0.9759752 0.8101903
vt 0.9536849 0.7985159
vt 0.9747816 0.7797146
vn -0.3720703 0.1992188 0.90625
v 0.09250999 0.417824 0.2915971
vt 0.9113886 0.8499636
vn 0.5395508 -0.2895508 0.7900391
vt 0.8872992 0.8376941
vt 0.9115316 0.8219802
vt 0.9097635 0.8544286
vn -0.4543457 -0.2094727 0.8657227
v 0.07601809 0.2522439 0.2698311
vt 0.9773902 0.8590652
vn 0.5512695 0.01855469 0.8334961
vt 0.9780964 0.8879867
vn 0.9160156 -0.1634521 0.3659668
vt 0.9576337 0.8728447
vn 0.8793945 -0.1373291 0.454834
vt 0.9783106 0.8541738
vn -0.4641113 0.2785645 0.840332
vt 0.9102453 0.8953766
vn 0.4177246 -0.6699219 -0.612793
v 0.08942515 0.4281578 0.2935017
vt 0.911871 0.899918
vn 0.8984375 -0.3793945 0.2202148
vt 0.8872997 0.9122859
vt 0.9122162 0.9281554
v -0.101791 0.2636643 0.227781
vt 0.02399594 0.783551
vn -0.6347656 0.07080078 0.769043
vt 0.04631513 0.7985159
vt 0.02402477 0.8101903
vt 0.02521843 0.7797146
vn 0.3720703 0.1992188 0.90625
v -0.09250999 0.417824 0.2915971
vt 0.08861142 0.8499636
vn -0.5395508 -0.2895508 0.7900391
vt 0.08846843 0.8219802
vt 0.1127008 0.8376941
vt 0.09023654 0.8544286
vn 0.4543457 -0.2094727 0.8657227
v -0.07601809 0.2522439 0.2698311
vt 0.02260983 0.8590652
vn -0.5512695 0.01855469 0.8334961
vt 0.04236633 0.8728447
vn -0.8793945 -0.1373291 0.454834
vt 0.02190363 0.8879867
vn -0.9160156 -0.1634521 0.3659668
vt 0.02168941 0.8541738
vn 0.4641113 0.2785645 0.840332
vt 0.1127003 0.9122859
v -0.08942515 0.4281578 0.2935017
vt 0.08812904 0.899918
vn -0.8984375 -0.3793945 0.2202148
vt 0.0897547 0.8953766
vn -0.4177246 -0.6699219 -0.612793
vt 0.08778383 0.9281554
vt 0.0162158 0.5429688
vn 0.5473633 0.824707 0.1403809
vt 0.06321311 0.5429688
vt 0.03044093 0.5628673
vn 0.9536133 0.2479248 -0.1699219
vt 0.0569905 0.5841787
vt 0.04572105 0.6055607
vn 0.9506836 0.1340332 -0.2790527
vt 0.9837842 0.5429688
vn -0.5473633 0.824707 0.1403809
vt 0.9695591 0.5628673
vn -0.9536133 0.2479248 -0.1699219
vt 0.9367869 0.5429688
vt 0.9430095 0.5841787
vt 0.9542789 0.6055607
vn -0.9506836 0.1340332 -0.2790527
vt 0.7482986 0.1998018
vn -0.307373 0.9003906 -0.3068848
v -2.682354E-09 0.2312028 0.3030987
vt 0.7748559 0.1858666
vn 0 0.9604492 0.2766113
vt 0.7748559 0.2197927
vn 0 0.7158203 -0.6977539
v 0.07032674 0.252262 0.2530013
vt 0.7127305 0.1800683
vn 0.3100586 0.8193359 0.4812012
vt 0.7050384 0.1971532
vn -0.5073242 0.8603516 0.03726196
vt 0.6518826 0.2043112
v 0.1085535 0.2965713 0.1388503
vt 0.6264531 0.1894263
vn 0.2944336 0.8554688 0.4250488
vt 0.6079077 0.218488
v 0.1379227 0.3373303 0.07217249
vt 0.5847417 0.2091101
vn -0.7631836 -0.005443573 0.6455078
v 0.07854578 0.3303668 0.07958201
vt 0.5710945 0.1729455
vn 0.1470947 0.9189453 0.3652344
v 0.1263816 0.3676774 0.1610143
vt 0.5901973 0.2673725
vn -0.7763672 -0.6274414 0.05136108
v 0.1410981 0.336129 0.1769762
vt 0.6099952 0.2687518
vn 0.4970703 -0.7363281 0.458252
v 0.0879261 0.4137686 0.3101311
vt 0.5601861 0.3707688
vn -0.6464844 -0.762207 -0.02064514
v 0.0759155 0.3610617 0.03325024
vt 0.5443091 0.1959209
vn -0.3806152 -0.5058594 0.7734375
v 0.0421899 0.3433258 0.06293231
vt 0.5362293 0.1647049
vn 0.1921387 0.9682617 0.159668
v 7.660791E-10 0.3519374 0.0571281
vt 0.5 0.1627992
vn 0 0.9677734 0.2512207
v 0.09556778 0.3835166 0.09651417
vt 0.5583644 0.2359194
vn -0.4255371 -0.8632813 0.2697754
v 0.07404048 0.4258051 0.2305235
vt 0.5485484 0.3223351
vn -0.2946777 -0.9448242 0.1425781
v 0.05546102 0.4330068 0.3495518
vt 0.5353834 0.3993415
vn -0.3898926 -0.8837891 -0.2578125
v -4.245134E-09 0.406257 0.07586999
vt 0.5 0.2309639
vn 0 -0.9560547 0.291748
v -2.550128E-08 0.4537055 0.3563751
vt 0.5 0.39767
vn 0 -0.984375 -0.1755371
v 8.643425E-10 0.3810346 0.3813126
vt 0.5 0.4346163
vn 0 -0.3244629 -0.9458008
v -0.05546102 0.4330068 0.3495518
vt 0.4646166 0.3993415
vn 0.3898926 -0.8837891 -0.2578125
v -0.07404048 0.4258051 0.2305235
vt 0.4514516 0.3223351
vn 0.2946777 -0.9448242 0.1425781
v -0.0879261 0.4137686 0.3101311
vt 0.4398139 0.3707688
vn 0.6464844 -0.762207 -0.02064514
v 2.887829E-31 0.3732288 0.01989323
vt 0.5 0.19356
vn 0 -0.3996582 0.9165039
v -0.1263816 0.3676774 0.1610143
vt 0.4098027 0.2673725
vn 0.7763672 -0.6274414 0.05136108
v -0.1410981 0.336129 0.1769762
vt 0.3900048 0.2687518
vn -0.4970703 -0.7363281 0.458252
vt 0.3920923 0.218488
v -0.0759155 0.3610617 0.03325024
vt 0.4556909 0.1959209
vn 0.3806152 -0.5058594 0.7734375
v -0.0421899 0.3433258 0.06293231
vt 0.4637707 0.1647049
vn -0.1921387 0.9682617 0.159668
v -0.07854578 0.3303668 0.07958201
vt 0.4289055 0.1729456
vn -0.1470947 0.9189453 0.3652344
v -0.09556778 0.3835166 0.09651417
vt 0.4416356 0.2359194
vn 0.4255371 -0.8632813 0.2697754
v -0.1379227 0.3373303 0.07217249
vt 0.4152583 0.2091101
vn 0.7631836 -0.005443573 0.6455078
v -0.1085535 0.2965713 0.1388503
vt 0.3735469 0.1894263
vn -0.2944336 0.8554688 0.4250488
vt 0.3481174 0.2043112
v -0.07032674 0.252262 0.2530013
vt 0.2872694 0.1800683
vn -0.3100586 0.8193359 0.4812012
vt 0.2949616 0.1971532
vn 0.5073242 0.8603516 0.03726196
vt 0.2517014 0.1998018
vn 0.307373 0.9003906 -0.3068848
vt 0.2251441 0.1858666
vt 0.2251441 0.2197927
v 0.01298542 0.5711754 -0.1185256
vt 0.678702 0.01171875
vn 0.9736328 0.01167297 -0.2266846
v 1.856081E-09 0.5641379 -0.1303702
vt 0.6883764 0.01171875
vn 0.7246094 -0.2697754 -0.6337891
v 7.475893E-10 0.6569197 -0.1698772
vt 0.6945482 0.06771934
vn 0.9838867 0.07403564 -0.1625977
v 0.02027952 0.5995797 -0.04802857
vt 0.6286948 0.01171875
vn 0.9960938 0.06286621 -0.05953979
v 0.01343171 0.6349967 -0.102891
vt 0.6567888 0.04385078
vn 0.9838867 0.07910156 -0.1577148
v -1.568017E-09 0.6446235 -0.1078609
vt 0.6606737 0.05335796
vn 0.5620117 0.4145508 -0.715332
v 2.106977E-09 0.7484553 -0.1105025
vt 0.6440195 0.1121538
vn 0.987793 0.1156616 -0.1004639
v 0.01695918 0.6666945 -0.02104915
vt 0.6015625 0.05021203
vn 0.9902344 0.1350098 -0.01994324
v -7.435188E-10 0.7509573 -0.1010018
vt 0.6377985 0.1130239
vn 0.9697266 0.2390137 0.04626465
v -6.119575E-10 0.6791743 -0.02379916
vt 0.6015625 0.06301677
vn 0.6015625 0.784668 -0.147583
v -2.752605E-09 0.7705483 0.00774255
vt 0.572499 0.111621
vn 0.9707031 0.1965332 -0.1369629
v -1.630745E-09 0.7724916 0.01884035
vt 0.5650994 0.1109911
vn 0.9858398 0.1600342 0.04125977
v 0.014934 0.6626613 0.0715646
vt 0.5439125 0.03996587
vn 0.9873047 0.1403809 0.0680542
v 1.197459E-10 0.6740491 0.07225308
vt 0.5396342 0.0505538
vn 0.5463867 0.6875 0.4772949
v 0.01724812 0.6178223 0.1064379
vt 0.5255733 0.01171875
vn 0.9731445 0.08459473 0.2137451
v 5.184624E-10 0.7093858 0.1147299
vt 0.5128703 0.06409752
vn 0.9555664 0.208374 0.2080078
v -1.045394E-09 0.6182457 0.118953
vt 0.514348 0.01171875
vn 0.5874023 0.03744507 0.8081055
vt 0.3116236 0.01171875
vn -0.7246094 -0.2697754 -0.6337891
v -0.01298542 0.5711754 -0.1185256
vt 0.321298 0.01171875
vn -0.9736328 0.01167297 -0.2266846
vt 0.3054518 0.06771934
vn -0.9838867 0.07403564 -0.1625977
v -0.02027952 0.5995797 -0.04802857
vt 0.3713052 0.01171875
vn -0.9960938 0.06286621 -0.05953979
v -0.01343171 0.6349967 -0.102891
vt 0.3432112 0.04385078
vn -0.9838867 0.07910156 -0.1577148
vt 0.3393263 0.05335796
vn -0.5620117 0.4145508 -0.715332
vt 0.3559805 0.1121538
vn -0.987793 0.1156616 -0.1004639
v -0.01695918 0.6666945 -0.02104915
vt 0.3984375 0.05021203
vn -0.9902344 0.1350098 -0.01994324
vt 0.3622015 0.1130239
vn -0.9697266 0.2390137 0.04626465
vt 0.3984375 0.06301677
vn -0.6015625 0.784668 -0.147583
vt 0.4275009 0.111621
vn -0.9707031 0.1965332 -0.1369629
vt 0.4349007 0.1109911
vn -0.9858398 0.1600342 0.04125977
v -0.014934 0.6626613 0.0715646
vt 0.4560875 0.03996587
vn -0.9873047 0.1403809 0.0680542
vt 0.4603657 0.0505538
vn -0.5463867 0.6875 0.4772949
v -0.01724812 0.6178223 0.1064379
vt 0.4744268 0.01171875
vn -0.9731445 0.08459473 0.2137451
vt 0.4871297 0.06409752
vn -0.9555664 0.208374 0.2080078
vt 0.485652 0.01171875
vn -0.5874023 0.03744507 0.8081055
v -5.436362E-10 0.6168449 -0.2371919
vt 0.8086553 0.09666157
vn 0.9458008 0.3205566 0.04711914
v -5.838585E-10 0.5424259 -0.1648839
vt 0.8160927 0.15625
vn 0.5444336 0.5844727 0.6015625
v 0.01937482 0.536274 -0.1764427
vt 0.8036836 0.15625
vn 0.9663086 0.2220459 0.1293945
v 0.01579504 0.554742 -0.2375499
vt 0.7809105 0.1252271
vn 0.9902344 0.1286621 -0.04428101
v 4.864784E-10 0.5691457 -0.2458232
vt 0.7843665 0.1120266
vn 0.6748047 0.737793 -0.004116058
v -2.630283E-09 0.6157178 -0.3606687
vt 0.7451187 0.04779971
vn 0.9838867 0.1711426 -0.04147339
v 0.01741005 0.4271778 -0.3086537
vt 0.6947498 0.15625
vn 0.9658203 -0.1286621 -0.2230225
v -3.260418E-10 0.6081688 -0.3716286
vt 0.7372249 0.04784763
vn 0.9912109 0.08129883 -0.1005249
v -2.52399E-09 0.4888488 -0.3881991
vt 0.6783893 0.09937632
vn 0.9624023 0.002437592 -0.2702637
v -2.561208E-09 0.4198907 -0.3162667
vt 0.6843394 0.15625
vn 0.5170898 -0.6176758 -0.5917969
v 0.01575498 0.482359 -0.3154281
vt 0.7140427 0.1290495
vn 0.9907227 0.05264282 -0.1236572
v -1.757438E-09 0.4949489 -0.333594
vt 0.7087407 0.1134369
vn 0.7797852 0.07995605 -0.6206055
v 0.01760914 0.2023285 -0.1373895
vt 0.7690452 0.2521119
vn 0.9990234 0.02032471 -0.02441406
v -1.246611E-30 0.200901 -0.1313885
vt 0.7782725 0.2521119
vn 0.3303223 -0.2355957 0.9135742
v -3.71297E-09 0.1536654 -0.1435683
vt 0.7798158 0.2810529
vn 0.6254883 -0.3317871 0.7055664
v 0.01769636 0.1119069 -0.1803181
vt 0.7647364 0.3121684
vn 0.996582 -0.07385254 -0.03112793
v 8.588414E-10 0.1041416 -0.1755303
vt 0.7726452 0.3162487
vn 0.4533691 -0.6728516 0.5839844
v 4.352454E-10 0.2717378 -0.298708
vt 0.6606201 0.2521119
vn 0.9946289 0.04360962 -0.08978271
v 6.777893E-10 0.04257847 -0.2682219
vt 0.7304665 0.3728881
vn 0.9838867 -0.02757263 -0.1762695
v -2.832706E-09 0.2332286 -0.3174067
vt 0.6582195 0.2772661
vn 0.9936523 0.02464294 -0.1064453
v 4.138563E-09 0.1585283 -0.2661825
vt 0.7035073 0.3069882
vn 0.9609375 -0.1043091 -0.2546387
vt 0.1913447 0.09666157
vn -0.9458008 0.3205566 0.04711914
v -0.01937482 0.536274 -0.1764427
vt 0.1963164 0.15625
vn -0.9663086 0.2220459 0.1293945
vt 0.1839073 0.15625
vn -0.5444336 0.5844727 0.6015625
v -0.01579504 0.554742 -0.2375499
vt 0.2190895 0.1252271
vn -0.9902344 0.1286621 -0.04428101
vt 0.2156335 0.1120266
vn -0.6748047 0.737793 -0.004116058
vt 0.2548813 0.04779971
vn -0.9838867 0.1711426 -0.04147339
v -0.01741005 0.4271778 -0.3086537
vt 0.3052501 0.15625
vn -0.9658203 -0.1286621 -0.2230225
vt 0.2627751 0.04784763
vn -0.9912109 0.08129883 -0.1005249
vt 0.3156606 0.15625
vn -0.5170898 -0.6176758 -0.5917969
vt 0.3216107 0.09937632
vn -0.9624023 0.002437592 -0.2702637
v -0.01575498 0.482359 -0.3154281
vt 0.2859574 0.1290495
vn -0.9907227 0.05264282 -0.1236572
vt 0.2912593 0.1134369
vn -0.7797852 0.07995605 -0.6206055
vt 0.2201842 0.2810529
vn -0.6254883 -0.3317871 0.7055664
vt 0.2217275 0.2521119
vn -0.3303223 -0.2355957 0.9135742
v -0.01760914 0.2023285 -0.1373895
vt 0.2309548 0.2521119
vn -0.9990234 0.02032471 -0.02441406
v -0.01769636 0.1119069 -0.1803181
vt 0.2352636 0.3121684
vn -0.996582 -0.07385254 -0.03112793
vt 0.3393799 0.2521119
vn -0.9946289 0.04360962 -0.08978271
vt 0.2273548 0.3162487
vn -0.4533691 -0.6728516 0.5839844
vt 0.3417805 0.2772661
vn -0.9936523 0.02464294 -0.1064453
vt 0.2695335 0.3728881
vn -0.9838867 -0.02757263 -0.1762695
vt 0.2964927 0.3069882
vn -0.9609375 -0.1043091 -0.2546387
vt 0.9063092 0.07452893
vt 0.9399561 0.1157659
vt 0.7958047 0.01058871
vn 0.06835938 -0.03096008 0.9970703
vt 0.8506523 0.117393
vn 0.08319092 -0.05569458 0.9946289
vt 0.9175735 0.2156446
vn 0.06384277 -0.05136108 0.996582
vt 0.8620318 0.1682701
vn 0.09527588 -0.05276489 0.9936523
vt 0.861738 0.2142209
vn 0.07855225 -0.02365112 0.996582
v 0.1299786 0.3700252 0.0980011
vt 0.9806429 0.1781603
vn -0.1262207 -0.03762817 0.9912109
vt 0.9719563 0.1448706
vt 0.9615041 0.2022717
vt 0.9882813 0.1796875
vt 0.06004393 0.1157659
vt 0.09369069 0.07452893
vt 0.2041953 0.01058865
vn -0.06835938 -0.03096008 0.9970703
vt 0.1493476 0.117393
vn -0.08319092 -0.05569458 0.9946289
vt 0.08242655 0.2156446
vn -0.06384277 -0.05136108 0.996582
vt 0.1379682 0.1682701
vn -0.09527588 -0.05276489 0.9936523
vt 0.1382621 0.2142209
vn -0.07855225 -0.02365112 0.996582
v -0.1299786 0.3700252 0.0980011
vt 0.01935709 0.1781603
vn 0.1262207 -0.03762817 0.9912109
vt 0.02804375 0.1448706
vt 0.03849588 0.2022717
vt 0.01171875 0.1796875
vt 0.7415634 0.4944682
vt 0.753744 0.5255528
vt 0.7519728 0.5332043
v 0.131522 0.4253612 0.2420834
vt 0.6784135 0.4594096
vn 0.909668 -0.09289551 0.4040527
vt 0.6748183 0.4059277
vn 0.8388672 -0.185791 0.5107422
v 0.06154099 0.4379839 0.35771
vt 0.6471804 0.3805596
vn 0.4770508 0.3266602 0.8154297
vt 0.6524287 0.3779181
vn 0.4677734 -0.8652344 0.1790771
vt 0.6555554 0.3311288
vn 0 0.0949707 0.9951172
v 2.52834E-09 0.4443387 0.3737273
vt 0.6222855 0.351658
vn 0 0.3691406 0.9291992
v 9.788384E-09 0.5364298 0.3198799
vt 0.5731034 0.3980814
vn 0 0.6494141 0.7597656
v 0.08149011 0.5433636 0.2799162
vt 0.6005032 0.4435544
vn 0.4208984 0.6757813 0.6044922
v 2.363075E-10 0.6053795 0.2287633
vt 0.5329149 0.4622909
vn 0 0.902832 0.4289551
v 0.09658191 0.6030005 0.1620947
vt 0.5758541 0.5162648
vn 0.3840332 0.8745117 0.295166
v -3.167502E-08 0.6418473 0.0912787
vt 0.5124383 0.5707086
vn 0 0.9926758 0.1179199
v 0.09226929 0.5147761 0.2809777
vt 0.6179402 0.4404451
vn 0.8417969 0.284668 0.4584961
v 0.09700971 0.6161543 0.08513974
vt 0.5716956 0.5705032
vn 0.6948242 0.7182617 0.02772522
v 6.26085E-09 0.6393815 -0.004296909
vt 0.5248878 0.6406257
vn 0 0.9765625 -0.2139893
v 0.1036211 0.566801 0.1942625
vt 0.5955867 0.4957261
vn 0.8833008 0.3864746 0.2644043
v 0.1082642 0.5763817 0.1327858
vt 0.5944343 0.5332276
vn 0.9326172 0.3547363 0.06286621
v 0.09307224 0.6123047 -0.01023162
vt 0.5804605 0.629487
vn 0.7231445 0.6645508 -0.1876221
v 0.1336662 0.5065531 0.1751096
vt 0.6231667 0.503343
vn 0.949707 0.2973633 0.09503174
v 0.08133164 0.5767412 -0.1177171
vt 0.6059802 0.691366
vn 0.7290039 0.5654297 -0.3852539
v 6.6246E-09 0.5721766 -0.1626307
vt 0.5845718 0.7417861
vn 0 0.8432617 -0.5366211
v 0.1298018 0.5029286 0.1856528
vt 0.6197488 0.497085
vn 0.8876953 0.326416 0.3234863
v 0.123698 0.4942952 0.2166363
vt 0.6256537 0.4776656
vn 0.875 0.3728027 0.3085938
v 0.1128981 0.4755989 0.258281
vt 0.6330434 0.4511778
vn 0.890625 0.2484131 0.3803711
v 0.1086458 0.4704688 0.2664729
vt 0.6385312 0.4467151
vn 0.8691406 0.2191162 0.442627
v 0.1065603 0.4651344 0.2757575
vt 0.6500813 0.4392031
vn 0.8535156 0.1519775 0.4980469
v 0.1126338 0.4791137 0.2555509
vt 0.6541786 0.4548475
vn 0.90625 0.2297363 0.3547363
v 0.1217447 0.4968761 0.2173323
vt 0.6563511 0.4794002
vn 0.9238281 0.2600098 0.2797852
v 0.1447501 0.445424 0.188427
vt 0.6730515 0.4936005
vn 0.9863281 0.08721924 0.1365967
v 0.1253251 0.5023968 0.1888046
vt 0.6436146 0.4950036
vn 0.8920898 0.302002 0.3349609
v 0.1549933 0.4699064 0.01555029
vt 0.6687554 0.6010787
vn 0.9726563 0.1905518 -0.1290283
v 0.1571572 0.3208707 0.01061333
vt 0.757713 0.5957875
vn 0.984375 -0.1027832 -0.1402588
vt 0.7855897 0.5429689
v 0.09066623 0.440171 -0.2040664
vt 0.6921068 0.7367414
vn 0.9038086 0.1983643 -0.3789063
v 0.1295835 0.3640922 -0.1163886
vt 0.7358969 0.6768447
vn 0.9555664 0.02153015 -0.2929688
v 0.1186513 0.2279791 -0.02466352
vt 0.8171403 0.6197773
vn 0.8481445 -0.5073242 -0.1500244
v 0.1191753 0.2806596 -0.1163379
vt 0.785913 0.6754258
vn 0.9189453 -0.2663574 -0.2900391
v 0.0672676 0.3423898 -0.2765217
vt 0.753989 0.7797885
vn 0.9003906 -0.09216309 -0.4245605
v 0.075875 0.256899 -0.2034645
vt 0.8050646 0.7324527
vn 0.796875 -0.4645996 -0.3852539
v 0.0852152 0.1840158 0.02211047
vt 0.851826 0.5930522
vn 0.5649414 -0.8232422 -0.04968262
vt 0.8555216 0.5429688
vt 0.9101563 0.5429688
v -5.593662E-10 0.1583231 -0.01481568
vt 0.9013551 0.6257542
vn 0 -0.996582 -0.07873535
v 4.685123E-09 0.1691152 -0.1175679
vt 0.8847681 0.690773
vn 0 -0.9501953 -0.3105469
v 0.07085618 0.2033744 -0.1164744
vt 0.8396517 0.6801004
vn 0.5595703 -0.7749023 -0.2924805
v 1.151637E-08 0.2755606 -0.3666601
vt 0.8032466 0.8408247
vn 0 -0.9746094 -0.2233887
v 0.02303438 0.3147538 -0.3662287
vt 0.7752044 0.8407907
vn 0.9829102 -0.1513672 -0.1021118
v -9.881116E-10 0.1914509 -0.5528014
vt 0.857712 0.9516358
vn 0.9931641 -0.09448242 -0.06646729
v 0.01607273 0.3961742 -0.5530533
vt 0.7327451 0.9591179
vn 0.9960938 0.02203369 -0.08441162
v -9.941408E-10 0.2574022 -0.5883439
vt 0.8184602 0.9757466
vn 0.9848633 -0.07495117 -0.1538086
v -3.622507E-09 0.3185518 -0.600127
vt 0.7821705 0.9845122
vn 0.9609375 -0.03265381 -0.2741699
v -4.599466E-10 0.4312943 -0.5922456
vt 0.712873 0.9842929
vn 0.9462891 0.08660889 -0.3103027
v 2.887381E-10 0.492346 -0.5631441
vt 0.674588 0.969647
vn 0.9848633 0.1575928 -0.0668335
v -5.192601E-09 0.4815282 -0.531352
vt 0.679251 0.9502645
vn 0.9790039 0.199585 0.03111267
v 0.02228894 0.3556602 -0.3658263
vt 0.7494574 0.8423628
vn 0.9580078 0.2020264 -0.2020264
v -3.612531E-09 0.4039844 -0.3662176
vt 0.7168986 0.8467894
vn 0 0.9277344 0.3723145
v 4.124832E-09 0.4094156 -0.3498191
vt 0.7115972 0.8391854
vn 0 0.6479492 -0.7612305
v 0.0508811 0.4912699 -0.2410479
vt 0.65964 0.7671865
vn 0.5454102 0.5654297 -0.6181641
vt 0.2584366 0.4944682
vt 0.2480272 0.5332043
vt 0.2462561 0.5255528
v -0.131522 0.4253612 0.2420834
vt 0.3215865 0.4594096
vn -0.909668 -0.09289551 0.4040527
vt 0.3251817 0.4059277
vn -0.8388672 -0.185791 0.5107422
v -0.06154099 0.4379839 0.35771
vt 0.3528196 0.3805596
vn -0.4770508 0.3266602 0.8154297
vt 0.3475713 0.3779181
vn -0.4677734 -0.8652344 0.1790771
vt 0.3444447 0.3311288
vt 0.3777145 0.351658
vt 0.4268966 0.3980814
v -0.08149011 0.5433636 0.2799162
vt 0.3994968 0.4435544
vn -0.4208984 0.6757813 0.6044922
vt 0.4670851 0.4622909
v -0.09658191 0.6030005 0.1620947
vt 0.4241459 0.5162648
vn -0.3840332 0.8745117 0.295166
vt 0.4875617 0.5707086
v -0.09226929 0.5147761 0.2809777
vt 0.3820598 0.4404451
vn -0.8417969 0.284668 0.4584961
v -0.09700971 0.6161543 0.08513974
vt 0.4283044 0.5705032
vn -0.6948242 0.7182617 0.02772522
vt 0.4751122 0.6406257
v -0.1036211 0.566801 0.1942625
vt 0.4044133 0.4957261
vn -0.8833008 0.3864746 0.2644043
v -0.1082642 0.5763817 0.1327858
vt 0.4055657 0.5332276
vn -0.9326172 0.3547363 0.06286621
v -0.09307224 0.6123047 -0.01023162
vt 0.4195395 0.629487
vn -0.7231445 0.6645508 -0.1876221
v -0.1336662 0.5065531 0.1751096
vt 0.3768334 0.503343
vn -0.949707 0.2973633 0.09503174
v -0.08133164 0.5767412 -0.1177171
vt 0.3940198 0.691366
vn -0.7290039 0.5654297 -0.3852539
vt 0.4154282 0.7417861
v -0.1298018 0.5029286 0.1856528
vt 0.3802512 0.497085
vn -0.8876953 0.326416 0.3234863
v -0.123698 0.4942952 0.2166363
vt 0.3743463 0.4776656
vn -0.875 0.3728027 0.3085938
v -0.1128981 0.4755989 0.258281
vt 0.3669565 0.4511778
vn -0.890625 0.2484131 0.3803711
v -0.1086458 0.4704688 0.2664729
vt 0.3614688 0.4467151
vn -0.8691406 0.2191162 0.442627
v -0.1065603 0.4651344 0.2757575
vt 0.3499187 0.4392031
vn -0.8535156 0.1519775 0.4980469
v -0.1126338 0.4791137 0.2555509
vt 0.3458213 0.4548475
vn -0.90625 0.2297363 0.3547363
v -0.1217447 0.4968761 0.2173323
vt 0.3436489 0.4794002
vn -0.9238281 0.2600098 0.2797852
v -0.1447501 0.445424 0.188427
vt 0.3269485 0.4936005
vn -0.9863281 0.08721924 0.1365967
v -0.1253251 0.5023968 0.1888046
vt 0.3563854 0.4950036
vn -0.8920898 0.302002 0.3349609
v -0.1549933 0.4699064 0.01555029
vt 0.3312445 0.6010788
vn -0.9726563 0.1905518 -0.1290283
v -0.1571572 0.3208707 0.01061333
vt 0.242287 0.5957875
vn -0.984375 -0.1027832 -0.1402588
vt 0.2144103 0.5429688
v -0.09066623 0.440171 -0.2040664
vt 0.3078931 0.7367414
vn -0.9038086 0.1983643 -0.3789063
v -0.1295835 0.3640922 -0.1163886
vt 0.2641031 0.6768447
vn -0.9555664 0.02153015 -0.2929688
v -0.1186513 0.2279791 -0.02466352
vt 0.1828597 0.6197773
vn -0.8481445 -0.5073242 -0.1500244
v -0.1191753 0.2806596 -0.1163379
vt 0.214087 0.6754258
vn -0.9189453 -0.2663574 -0.2900391
v -0.0672676 0.3423898 -0.2765217
vt 0.246011 0.7797885
vn -0.9003906 -0.09216309 -0.4245605
v -0.075875 0.256899 -0.2034645
vt 0.1949355 0.7324527
vn -0.796875 -0.4645996 -0.3852539
v -0.0852152 0.1840158 0.02211047
vt 0.1481741 0.5930522
vn -0.5649414 -0.8232422 -0.04968262
vt 0.1444784 0.5429688
vt 0.08984375 0.5429688
vt 0.09864485 0.6257543
vt 0.1152319 0.690773
v -0.07085618 0.2033744 -0.1164744
vt 0.1603482 0.6801004
vn -0.5595703 -0.7749023 -0.2924805
vt 0.1967534 0.8408247
v -0.02303438 0.3147538 -0.3662287
vt 0.2247956 0.8407907
vn -0.9829102 -0.1513672 -0.1021118
vt 0.142288 0.9516358
vn -0.9931641 -0.09448242 -0.06646729
v -0.01607273 0.3961742 -0.5530533
vt 0.2672549 0.9591179
vn -0.9960938 0.02203369 -0.08441162
vt 0.1815398 0.9757466
vn -0.9848633 -0.07495117 -0.1538086
vt 0.2178295 0.9845122
vn -0.9609375 -0.03265381 -0.2741699
vt 0.287127 0.9842929
vn -0.9462891 0.08660889 -0.3103027
vt 0.3254121 0.969647
vn -0.9848633 0.1575928 -0.0668335
vt 0.3207491 0.9502645
vn -0.9790039 0.199585 0.03111267
v -0.02228894 0.3556602 -0.3658263
vt 0.2505426 0.8423628
vn -0.9580078 0.2020264 -0.2020264
vt 0.2831014 0.8467894
vt 0.2884027 0.8391854
v -0.0508811 0.4912699 -0.2410479
vt 0.34036 0.7671865
vn -0.5454102 0.5654297 -0.6181641
v 0.09198073 0.3348227 0.1247676
vt 0.5554529 0.8345792
vn 0.4428711 0.8398438 0.3137207
vt 0.5740966 0.8170626
vt 0.5524452 0.862029
vt 0.5279168 0.8746408
vt 0.5473703 0.7383021
v -4.517129E-09 0.3576046 0.1270158
vt 0.5 0.8363893
vn 0 0.9472656 0.3203125
vt 0.5 0.8789063
vt 0.4720832 0.8746408
v 7.691466E-10 0.2850346 0.2788441
vt 0.5 0.7380825
vn 0 0.7680664 0.6401367
vt 0.5 0.706483
vt 0.4526297 0.7383021
v -0.09198073 0.3348227 0.1247676
vt 0.4445471 0.8345792
vn -0.4428711 0.8398438 0.3137207
vt 0.4475548 0.862029
vt 0.4259034 0.8170626
vt 0.3526695 0.8946604
vn 0.4423828 0.8334961 0.3295898
v -0.05683104 0.4602985 0.228251
vt 0.3743329 0.9146581
vn 0.2521973 0.949707 0.1834717
vt 0.3418358 0.9370511
vn 0.3586426 0.8881836 0.286377
vt 0.3962041 0.8730469
vn 0.6157227 0.7407227 -0.2683105
v -0.06280229 0.4833561 0.1974197
vt 0.379201 0.9374877
vn 0.2727051 0.7666016 0.5810547
v -0.04938402 0.4721222 0.2447088
vt 0.4019897 0.9063023
vn -0.2729492 0.3791504 -0.8837891
vt 0.3659323 0.9687766
vn 0.1540527 0.9482422 0.2763672
vt 0.4318208 0.8845118
vn 0.01831055 -0.8823242 -0.4694824
v -0.06269477 0.5014122 0.1866679
vt 0.4013125 0.9447608
vn -0.02159119 0.1524658 0.987793
v -0.05346638 0.4889822 0.2394739
vt 0.4199516 0.9125656
vn -0.01517487 -0.8383789 -0.5439453
vt 0.4102049 0.9785155
vn 0.8203125 0.5683594 0.05865479
vt 0.4555097 0.9251009
vn 0.06036377 -0.934082 -0.3510742
v -0.06334841 0.5049885 0.1943207
vt 0.4270914 0.937093
vn 0.02230835 -0.9707031 -0.237793
vt 0.4450725 0.9588993
vn 0.0690918 -0.949707 -0.3041992
vt 0.6037959 0.8730469
vn -0.6157227 0.7407227 -0.2683105
vt 0.6473305 0.8946604
vn -0.4423828 0.8334961 0.3295898
v 0.05683104 0.4602985 0.228251
vt 0.6256671 0.9146581
vn -0.2521973 0.949707 0.1834717
vt 0.6581643 0.9370511
vn -0.3586426 0.8881836 0.286377
v 0.04938402 0.4721222 0.2447088
vt 0.5980103 0.9063023
vn 0.2729492 0.3791504 -0.8837891
v 0.06280229 0.4833561 0.1974197
vt 0.6207989 0.9374877
vn -0.2727051 0.7666016 0.5810547
vt 0.5681792 0.8845118
vn -0.01831055 -0.8823242 -0.4694824
vt 0.6340678 0.9687766
vn -0.1540527 0.9482422 0.2763672
v 0.05346638 0.4889822 0.2394739
vt 0.5800484 0.9125656
vn 0.01517487 -0.8383789 -0.5439453
v 0.06269477 0.5014122 0.1866679
vt 0.5986875 0.9447608
vn 0.02159119 0.1524658 0.987793
vt 0.5444903 0.9251009
vn -0.06036377 -0.934082 -0.3510742
vt 0.5897951 0.9785155
vn -0.8203125 0.5683594 0.05865479
v 0.06334841 0.5049885 0.1943207
vt 0.5729086 0.937093
vn -0.02230835 -0.9707031 -0.237793
vt 0.5549275 0.9588993
vn -0.0690918 -0.949707 -0.3041992
o pm0550_00_41_body_mesh_shape_lod1_body_01
g polygon_0
usemtl body_01
f 21/13/21 22/14/21 23/15/21
f 24/16/22 23/15/23 22/14/24
f 25/17/25 26/18/26 27/19/27
f 25/17/28 27/19/28 28/20/28
f 29/21/29 30/22/29 31/23/29
f 32/24/30 33/25/30 34/26/30
f 35/27/31 36/28/32 33/29/33
f 37/30/34 38/31/34 39/32/34
f 37/30/35 40/33/36 38/31/37
f 41/34/38 42/35/38 43/36/38
f 42/35/39 41/34/40 44/37/41
f 45/38/42 46/39/43 47/40/44
f 46/39/45 48/41/45 47/40/45
f 49/42/46 50/43/46 51/44/46
f 52/45/47 53/46/47 54/47/47
f 53/48/48 55/49/49 56/50/50
f 57/51/51 58/52/51 59/53/51
f 60/54/52 59/53/53 58/52/54
f 32/24/55 35/55/31 33/25/33
f 36/56/32 34/26/56 33/25/33
f 53/46/48 56/57/50 54/47/57
f 53/46/48 52/45/58 55/58/49
f 61/59/59 62/60/60 63/61/61
f 62/60/60 61/59/62 64/62/63
f 64/62/63 61/59/62 65/63/64
f 66/64/65 64/62/63 65/63/64
f 62/60/60 64/62/63 67/65/66
f 67/65/66 64/62/63 66/64/65
f 66/64/65 68/66/67 67/65/66
f 68/66/67 69/67/68 67/65/66
f 69/67/68 70/68/69 67/65/66
f 70/68/69 71/69/70 67/65/66
f 72/70/71 73/71/72 74/72/73
f 74/72/74 75/73/75 72/70/71
f 75/73/75 74/72/74 76/74/76
f 76/74/76 77/75/77 75/73/75
f 75/73/75 78/76/78 72/70/71
f 75/73/75 77/75/77 79/77/79
f 75/73/75 79/77/79 78/76/78
f 79/77/79 77/75/77 80/78/80
f 80/78/80 81/79/81 79/77/79
f 79/77/79 82/80/82 78/76/78
f 81/79/81 82/80/82 79/77/79
f 78/76/78 82/80/82 83/81/83
f 83/81/83 84/82/84 78/76/78
f 84/82/84 83/81/83 85/83/85
f 85/83/85 83/81/83 86/84/86
f 82/80/82 81/79/81 87/85/87
f 87/85/87 81/79/81 88/86/88
f 83/81/83 82/80/82 89/87/89
f 86/84/86 83/81/83 89/87/89
f 82/80/82 87/85/87 89/87/89
f 89/87/89 90/88/90 86/84/86
f 91/89/91 87/85/87 88/86/88
f 89/87/89 87/85/87 91/89/91
f 91/89/91 90/88/90 89/87/89
f 92/90/92 91/89/91 88/86/88
f 92/90/92 90/88/90 91/89/91
f 93/91/93 94/92/94 95/93/95
f 94/92/96 93/91/93 96/94/97
f 94/92/96 96/94/97 97/95/98
f 97/95/98 96/94/97 98/96/99
f 99/97/100 96/94/97 93/91/93
f 98/96/99 96/94/97 99/97/100
f 100/98/101 98/96/99 99/97/100
f 101/99/102 100/98/101 99/97/100
f 102/100/103 101/99/102 99/97/100
f 102/100/103 99/97/100 103/101/104
f 104/102/105 105/103/106 106/104/107
f 104/102/105 107/105/108 105/103/109
f 108/106/110 105/103/109 107/105/108
f 107/105/108 109/107/111 108/106/110
f 107/105/108 104/102/105 110/108/112
f 111/109/113 109/107/111 107/105/108
f 111/109/113 107/105/108 110/108/112
f 112/110/114 109/107/111 111/109/113
f 113/111/115 112/110/114 111/109/113
f 114/112/116 111/109/113 110/108/112
f 111/109/113 114/112/116 113/111/115
f 110/108/112 115/113/117 114/112/116
f 110/108/112 116/114/118 115/113/117
f 116/114/118 85/115/85 115/113/117
f 115/113/117 85/115/85 86/116/86
f 113/111/115 114/112/116 117/117/119
f 118/118/120 113/111/115 117/117/119
f 119/119/121 114/112/116 115/113/117
f 119/119/121 115/113/117 86/116/86
f 114/112/116 119/119/121 117/117/119
f 119/119/121 86/116/86 90/120/90
f 117/117/119 120/121/122 118/118/120
f 117/117/119 119/119/121 120/121/122
f 90/120/90 120/121/122 119/119/121
f 118/118/120 120/121/122 92/122/92
f 92/122/92 120/121/122 90/120/90
f 121/123/123 24/124/22 22/125/24
f 22/125/24 21/126/124 121/123/123
f 122/127/125 27/128/27 26/129/26
f 27/128/27 122/127/125 28/130/126
f 123/131/127 31/132/128 30/133/129
f 29/134/130 123/131/127 30/133/129
f 39/135/131 124/136/132 37/137/35
f 40/138/36 37/137/35 124/136/132
f 125/139/133 42/140/39 44/141/41
f 42/140/39 125/139/133 43/142/134
f 126/143/135 45/144/42 47/145/44
f 126/143/135 47/145/44 48/146/136
f 127/147/137 50/148/138 49/149/139
f 50/148/138 127/147/137 51/150/140
f 59/151/53 128/152/141 57/153/142
f 60/154/52 128/152/141 59/151/53
f 112/155/143 106/156/107 109/157/144
f 109/157/144 106/156/107 105/158/106
f 108/159/145 109/157/144 105/158/106
f 80/160/146 77/161/147 73/162/72
f 73/162/72 77/161/147 74/163/73
f 77/161/147 76/164/148 74/163/73
f 88/165/149 129/166/150 92/167/151
f 88/165/149 130/168/152 129/166/150
f 81/169/153 130/168/152 88/165/149
f 130/168/152 81/169/153 80/170/146
f 130/168/152 80/170/146 131/171/154
f 73/172/72 131/171/154 80/170/146
f 73/172/72 132/173/155 131/171/154
f 131/171/154 132/173/155 133/174/156
f 132/173/155 73/172/72 134/175/157
f 134/175/157 73/172/72 135/176/158
f 136/177/159 134/175/157 135/176/158
f 133/174/156 132/173/155 137/178/160
f 133/174/156 137/178/160 138/179/161
f 137/178/160 139/180/162 138/179/161
f 134/175/157 140/181/163 132/173/155
f 132/173/155 140/181/163 137/178/160
f 141/182/164 134/175/157 136/177/159
f 140/181/163 134/175/157 141/182/164
f 142/183/165 141/182/164 136/177/159
f 140/181/163 143/184/166 137/178/160
f 140/181/163 141/182/164 143/184/166
f 142/183/165 144/185/167 141/182/164
f 143/184/166 141/182/164 144/185/167
f 145/186/168 144/185/167 142/183/165
f 145/186/168 146/187/169 144/185/167
f 144/185/167 146/187/169 147/188/170
f 147/188/170 143/184/166 144/185/167
f 146/187/169 148/189/171 147/188/170
f 149/190/172 137/178/160 143/184/166
f 149/190/172 139/180/162 137/178/160
f 147/188/170 148/189/171 150/191/173
f 150/191/173 148/189/171 151/192/174
f 151/192/174 106/193/107 150/191/173
f 149/190/172 152/194/175 139/180/162
f 143/184/166 152/194/175 149/190/172
f 139/180/162 152/194/175 153/195/176
f 154/196/177 153/195/176 152/194/175
f 155/197/178 143/184/166 147/188/170
f 152/194/175 143/184/166 155/197/178
f 150/191/173 155/197/178 147/188/170
f 156/198/179 154/196/177 152/194/175
f 152/194/175 155/197/178 156/198/179
f 156/198/179 155/197/178 150/191/173
f 150/191/173 106/193/107 156/198/179
f 157/199/180 154/196/177 156/198/179
f 106/193/107 157/199/180 156/198/179
f 106/193/107 112/200/143 157/199/180
f 157/199/180 112/200/143 158/201/181
f 113/202/182 158/201/181 112/200/143
f 118/203/183 158/201/181 113/202/182
f 129/204/150 158/201/181 118/203/183
f 129/204/150 118/203/183 92/205/151
f 159/206/184 160/207/185 161/208/186
f 159/206/184 161/208/186 162/209/187
f 162/209/187 161/208/186 163/210/188
f 161/208/186 164/211/189 163/210/188
f 165/212/190 163/210/188 164/211/189
f 165/212/190 166/213/191 163/210/188
f 162/209/187 163/210/188 166/213/191
f 167/214/192 166/213/191 165/212/190
f 167/214/192 168/215/193 166/213/191
f 166/213/191 168/215/193 169/216/194
f 169/216/194 170/217/195 166/213/191
f 171/218/196 162/209/187 166/213/191
f 171/218/196 166/213/191 170/217/195
f 170/217/195 172/219/197 171/218/196
f 173/220/198 162/209/187 171/218/196
f 174/221/199 171/218/196 172/219/197
f 171/218/196 174/221/199 173/220/198
f 174/221/199 175/222/200 173/220/198
f 160/223/201 176/224/202 161/225/203
f 177/226/204 161/225/203 176/224/202
f 178/227/205 161/225/203 177/226/204
f 164/228/206 161/225/203 178/227/205
f 164/228/206 178/227/205 165/229/207
f 178/227/205 179/230/208 165/229/207
f 179/230/208 178/227/205 177/226/204
f 167/231/209 165/229/207 179/230/208
f 168/232/210 167/231/209 179/230/208
f 168/232/210 179/230/208 169/233/211
f 179/230/208 170/234/212 169/233/211
f 177/226/204 180/235/213 179/230/208
f 170/234/212 179/230/208 180/235/213
f 170/234/212 180/235/213 172/236/214
f 181/237/215 180/235/213 177/226/204
f 172/236/214 180/235/213 174/238/216
f 174/238/216 180/235/213 181/237/215
f 174/238/216 181/237/215 175/239/217
f 182/240/218 183/241/219 184/242/220
f 185/243/221 182/240/218 184/242/220
f 182/240/218 185/243/221 186/244/222
f 187/245/223 186/244/222 185/243/221
f 184/242/220 188/246/224 185/243/221
f 189/247/225 187/245/223 185/243/221
f 190/248/226 188/246/224 191/249/227
f 189/247/225 185/243/221 192/250/228
f 185/243/221 188/246/224 192/250/228
f 188/246/224 190/248/226 192/250/228
f 189/247/225 192/250/228 193/251/229
f 190/248/226 193/251/229 192/250/228
f 194/252/230 195/253/231 196/254/232
f 194/252/230 196/254/232 197/255/233
f 197/255/233 196/254/232 198/256/234
f 199/257/235 194/252/230 197/255/233
f 198/256/234 200/258/236 197/255/233
f 199/257/235 197/255/233 201/259/237
f 202/260/238 197/255/233 200/258/236
f 201/259/237 197/255/233 202/260/238
f 182/261/239 203/262/240 183/263/241
f 182/261/239 204/264/242 203/262/240
f 186/265/243 204/264/242 182/261/239
f 204/264/242 186/265/243 187/266/244
f 203/262/240 204/264/242 205/267/245
f 189/268/246 204/264/242 187/266/244
f 191/269/247 205/267/245 190/270/248
f 206/271/249 204/264/242 189/268/246
f 205/267/245 204/264/242 206/271/249
f 206/271/249 190/270/248 205/267/245
f 189/268/246 193/272/250 206/271/249
f 193/272/250 190/270/248 206/271/249
f 196/273/251 195/274/252 207/275/253
f 208/276/254 196/273/251 207/275/253
f 207/275/253 199/277/255 208/276/254
f 198/278/256 196/273/251 208/276/254
f 199/277/255 201/279/257 208/276/254
f 200/280/258 198/278/256 208/276/254
f 208/276/254 201/279/257 202/281/259
f 208/276/254 202/281/259 200/280/258
f 61/282/59 63/283/61 65/284/260
f 63/283/61 66/285/261 65/284/260
f 63/283/61 70/286/262 66/285/261
f 68/287/263 66/285/261 70/286/262
f 70/286/262 69/288/264 68/287/263
f 209/289/265 70/286/262 63/283/61
f 209/289/265 63/283/61 62/290/60
f 70/286/262 209/289/265 71/291/70
f 209/289/265 62/290/60 67/292/66
f 71/291/70 209/289/265 67/292/66
f 95/293/95 94/294/94 97/295/266
f 98/296/267 95/293/95 97/295/266
f 102/297/268 95/293/95 98/296/267
f 98/296/267 100/298/269 102/297/268
f 102/297/268 100/298/269 101/299/270
f 95/293/95 102/297/268 210/300/271
f 93/301/93 95/293/95 210/300/271
f 102/297/268 103/302/104 210/300/271
f 93/301/93 210/300/271 99/303/100
f 210/300/271 103/302/104 99/303/100
f 135/304/158 73/305/72 72/306/71
f 72/306/71 211/307/272 135/304/158
f 135/304/158 211/307/272 136/308/273
f 212/309/274 136/308/273 211/307/272
f 136/308/273 212/309/274 142/310/275
f 145/311/276 142/310/275 212/309/274
f 145/311/276 212/309/274 213/312/277
f 213/312/277 212/309/274 214/313/278
f 212/309/274 215/314/279 214/313/278
f 216/315/280 214/313/278 215/314/279
f 217/316/281 216/315/280 215/314/279
f 216/315/280 217/316/281 218/317/282
f 219/318/283 215/314/279 212/309/274
f 217/316/281 220/319/284 218/317/282
f 218/317/282 220/319/284 221/320/285
f 217/316/281 215/314/279 222/321/286
f 215/314/279 219/318/283 222/321/286
f 223/322/287 220/319/284 217/316/281
f 222/321/286 223/322/287 217/316/281
f 221/320/285 220/319/284 224/323/288
f 225/324/289 223/322/287 222/321/286
f 226/325/290 221/320/285 224/323/288
f 227/326/291 221/320/285 226/325/290
f 228/327/292 225/324/289 222/321/286
f 219/318/283 228/327/292 222/321/286
f 219/318/283 229/328/293 228/327/292
f 230/329/294 229/328/293 219/318/283
f 231/330/295 230/329/294 219/318/283
f 232/331/296 231/330/295 219/318/283
f 212/309/274 232/331/296 219/318/283
f 231/330/295 232/331/296 233/332/297
f 211/307/272 232/331/296 212/309/274
f 211/307/272 233/332/297 232/331/296
f 233/332/297 211/307/272 234/333/298
f 211/307/272 235/334/299 234/333/298
f 235/334/299 236/335/300 234/333/298
f 225/324/289 236/335/300 235/334/299
f 211/307/272 72/306/71 235/334/299
f 225/324/289 235/334/299 237/336/301
f 72/306/71 237/336/301 235/334/299
f 225/324/289 237/336/301 223/322/287
f 237/336/301 220/319/284 223/322/287
f 224/323/288 220/319/284 237/336/301
f 237/336/301 226/325/290 224/323/288
f 237/336/301 72/306/71 238/337/302
f 72/306/71 78/338/78 238/337/302
f 237/336/301 239/339/303 226/325/290
f 240/340/304 237/336/301 238/337/302
f 240/340/304 239/339/303 237/336/301
f 78/338/78 241/341/305 238/337/302
f 238/337/302 242/342/306 240/340/304
f 242/342/306 238/337/302 241/341/305
f 240/340/304 242/342/306 243/343/307
f 239/339/303 240/340/304 243/343/307
f 241/341/305 244/344/308 242/342/306
f 242/342/306 244/344/308 243/343/307
f 78/338/78 245/345/309 241/341/305
f 84/346/84 245/345/309 78/338/78
f 85/347/85 245/345/309 84/346/84
f 246/348/310 245/345/309 85/347/85
f 247/349/311 245/345/309 246/348/310
f 245/345/309 248/350/312 241/341/305
f 245/345/309 247/349/311 248/350/312
f 241/341/305 248/350/312 244/344/308
f 249/351/313 248/350/312 247/349/311
f 248/350/312 249/351/313 244/344/308
f 249/351/313 243/343/307 244/344/308
f 243/343/307 249/351/313 250/352/314
f 243/343/307 250/352/314 239/339/303
f 250/352/314 249/351/313 251/353/315
f 251/353/315 252/354/316 250/352/314
f 253/355/317 252/354/316 251/353/315
f 254/356/318 252/354/316 253/355/317
f 254/356/318 255/357/319 252/354/316
f 255/357/319 256/358/320 252/354/316
f 257/359/321 252/354/316 256/358/320
f 250/352/314 252/354/316 258/360/322
f 258/360/322 252/354/316 257/359/321
f 250/352/314 258/360/322 239/339/303
f 259/361/323 258/360/322 257/359/321
f 260/362/324 258/360/322 259/361/323
f 260/362/324 239/339/303 258/360/322
f 260/362/324 261/363/325 239/339/303
f 239/339/303 261/363/325 226/325/290
f 227/326/291 261/363/325 260/362/324
f 227/326/291 226/325/290 261/363/325
f 151/364/174 104/365/105 106/366/107
f 104/365/105 151/364/174 262/367/326
f 262/367/326 151/364/174 148/368/327
f 262/367/326 148/368/327 263/369/328
f 148/368/327 146/370/329 263/369/328
f 263/369/328 146/370/329 145/371/276
f 213/372/277 263/369/328 145/371/276
f 214/373/278 263/369/328 213/372/277
f 264/374/330 263/369/328 214/373/278
f 216/375/280 264/374/330 214/373/278
f 264/374/330 216/375/280 265/376/331
f 218/377/282 265/376/331 216/375/280
f 263/369/328 264/374/330 266/378/332
f 218/377/282 267/379/333 265/376/331
f 221/380/285 267/379/333 218/377/282
f 265/376/331 268/381/334 264/374/330
f 264/374/330 268/381/334 266/378/332
f 265/376/331 267/379/333 269/382/335
f 265/376/331 269/382/335 268/381/334
f 270/383/336 267/379/333 221/380/285
f 268/381/334 269/382/335 271/384/337
f 270/383/336 221/380/285 272/385/338
f 272/385/338 221/380/285 227/386/291
f 271/384/337 273/387/339 268/381/334
f 266/378/332 268/381/334 273/387/339
f 274/388/340 266/378/332 273/387/339
f 275/389/341 266/378/332 274/388/340
f 266/378/332 275/389/341 276/390/342
f 277/391/343 266/378/332 276/390/342
f 263/369/328 266/378/332 277/391/343
f 276/390/342 278/392/344 277/391/343
f 277/391/343 262/367/326 263/369/328
f 277/391/343 278/392/344 262/367/326
f 262/367/326 278/392/344 279/393/345
f 262/367/326 279/393/345 280/394/346
f 279/393/345 281/395/347 280/394/346
f 280/394/346 281/395/347 271/384/337
f 262/367/326 280/394/346 104/365/105
f 271/384/337 282/396/348 280/394/346
f 282/396/348 104/365/105 280/394/346
f 271/384/337 269/382/335 282/396/348
f 269/382/335 267/379/333 282/396/348
f 282/396/348 267/379/333 270/383/336
f 270/383/336 272/385/338 282/396/348
f 104/365/105 282/396/348 283/397/349
f 110/398/112 104/365/105 283/397/349
f 272/385/338 284/399/350 282/396/348
f 285/400/351 283/397/349 282/396/348
f 282/396/348 284/399/350 285/400/351
f 110/398/112 283/397/349 286/401/352
f 283/397/349 285/400/351 287/402/353
f 287/402/353 286/401/352 283/397/349
f 287/402/353 285/400/351 288/403/354
f 288/403/354 285/400/351 284/399/350
f 286/401/352 287/402/353 289/404/355
f 289/404/355 287/402/353 288/403/354
f 290/405/356 110/398/112 286/401/352
f 116/406/118 110/398/112 290/405/356
f 116/406/118 290/405/356 85/407/85
f 290/405/356 246/408/310 85/407/85
f 247/409/311 246/408/310 290/405/356
f 290/405/356 286/401/352 291/410/357
f 291/410/357 247/409/311 290/405/356
f 291/410/357 286/401/352 289/404/355
f 291/410/357 249/411/313 247/409/311
f 291/410/357 289/404/355 249/411/313
f 249/411/313 289/404/355 288/403/354
f 292/412/358 249/411/313 288/403/354
f 284/399/350 292/412/358 288/403/354
f 251/413/359 249/411/313 292/412/358
f 292/412/358 293/414/360 251/413/359
f 293/414/360 253/415/361 251/413/359
f 253/415/361 293/414/360 254/416/362
f 254/416/362 293/414/360 255/417/363
f 293/414/360 256/418/364 255/417/363
f 256/418/364 293/414/360 257/419/365
f 294/420/366 293/414/360 292/412/358
f 257/419/365 293/414/360 294/420/366
f 292/412/358 284/399/350 294/420/366
f 294/420/366 259/421/323 257/419/365
f 259/421/323 294/420/366 260/422/324
f 294/420/366 284/399/350 260/422/324
f 284/399/350 295/423/367 260/422/324
f 272/385/338 295/423/367 284/399/350
f 260/422/324 295/423/367 227/386/291
f 295/423/367 272/385/338 227/386/291
f 296/424/368 131/425/154 133/426/156
f 133/426/156 138/427/161 296/424/368
f 130/428/152 131/425/154 296/424/368
f 138/427/161 297/429/369 296/424/368
f 139/430/162 297/429/369 138/427/161
f 139/430/162 153/431/176 297/429/369
f 298/432/370 130/428/152 296/424/368
f 298/432/370 296/424/368 297/429/369
f 129/433/150 130/428/152 298/432/370
f 129/433/150 298/432/370 158/434/181
f 297/429/369 153/431/176 299/435/371
f 299/435/371 298/432/370 297/429/369
f 299/435/371 158/434/181 298/432/370
f 153/431/176 154/436/177 299/435/371
f 157/437/180 158/434/181 299/435/371
f 157/437/180 299/435/371 154/436/177
f 278/438/372 300/439/373 279/440/374
f 276/441/375 300/439/373 278/438/372
f 300/439/373 301/442/376 279/440/374
f 302/443/377 300/439/373 276/441/375
f 279/440/374 301/442/376 281/444/378
f 276/441/375 275/445/379 302/443/377
f 301/442/376 303/446/380 281/444/378
f 302/443/377 275/445/379 304/447/381
f 281/444/378 303/446/380 271/448/382
f 274/449/383 304/447/381 275/445/379
f 303/446/380 305/450/384 271/448/382
f 274/449/383 305/450/384 304/447/381
f 271/448/382 305/450/384 273/451/385
f 273/451/385 305/450/384 274/449/383
f 231/452/386 233/453/387 306/454/388
f 233/453/387 234/455/389 306/454/388
f 231/452/386 306/454/388 307/456/390
f 234/455/389 308/457/391 306/454/388
f 307/456/390 230/458/392 231/452/386
f 234/455/389 236/459/393 308/457/391
f 309/460/394 230/458/392 307/456/390
f 236/459/393 310/461/395 308/457/391
f 229/462/396 230/458/392 309/460/394
f 236/459/393 225/463/397 310/461/395
f 311/464/398 229/462/396 309/460/394
f 310/461/395 225/463/397 311/464/398
f 228/465/399 229/462/396 311/464/398
f 225/463/397 228/465/399 311/464/398
