mtllib pm0550_11_00_lod2.mtl
v 0.05306632 0.4417129 0.2883788
vt 0.757004 0.5177588
vn 0.7587891 0.3330078 0.559082
v 0.06018911 0.4229371 0.2898969
vt 0.7507685 0.4198686
vn 0.8374023 0.3044434 0.4528809
v 0.05531858 0.4549987 0.2774116
vt 0.7018588 0.5819243
vn 0.8325195 0.2973633 0.4663086
v 0.09854701 0.3731808 0.2520835
vt 0.510457 0.1555159
vn 0.847168 0.310791 0.4304199
v 0.07249156 0.3962528 0.285358
vt 0.7083561 0.2813489
vn 0.8408203 0.3125 0.4416504
v 0.08619526 0.3789372 0.2714963
vt 0.6209363 0.1892383
vn 0.8408203 0.310791 0.442627
v 0.05918721 0.4708339 0.260636
vt 0.617424 0.6587607
vn 0.8510742 0.3056641 0.4257813
v 0.0633173 0.4876511 0.2391049
vt 0.5116491 0.7422746
vn 0.8730469 0.3110352 0.3740234
v 0.06713019 0.5029613 0.2166028
vt 0.4025535 0.8198814
vn 0.8540039 0.326416 0.4047852
v 0.07029084 0.5133813 0.1976175
vt 0.3109987 0.8741974
vn 0.8354492 0.4108887 0.364502
v 0.0853826 0.4877593 0.1919225
vt 0.2580447 0.7367441
vn 0.840332 0.3286133 0.4304199
v 0.09766515 0.4572046 0.1932723
vt 0.2422611 0.5769487
vn 0.8105469 0.3410645 0.4753418
v 0.105988 0.4255863 0.1998531
vt 0.2578808 0.4151435
vn 0.8466797 0.3100586 0.4316406
v 0.109005 0.398694 0.2120728
vt 0.309045 0.2797952
vn 0.8691406 0.2810059 0.40625
v 0.1058781 0.380132 0.2307961
vt 0.4005077 0.1883215
vn 0.8916016 0.237915 0.3847656
o pm0550_11_00_eye_mesh_shape_lod2_l_eye
g polygon_0
usemtl l_eye
f 1/1/1 2/2/2 3/3/3
f 3/3/3 2/2/2 4/4/4
f 2/2/2 5/5/5 4/4/4
f 6/6/6 4/4/4 5/5/5
f 4/4/4 7/7/7 3/3/3
f 8/8/8 7/7/7 4/4/4
f 8/8/8 4/4/4 9/9/9
f 10/10/10 9/9/9 11/11/11
f 9/9/9 4/4/4 11/11/11
f 11/11/11 4/4/4 12/12/12
f 13/13/13 12/12/12 4/4/4
f 14/14/14 13/13/13 4/4/4
f 15/15/15 14/14/14 4/4/4
v -0.07029084 0.5133813 0.1976175
vt 0.3109988 0.8741973
vn -0.8354492 0.4108887 0.364502
v -0.0853826 0.4877593 0.1919225
vt 0.2580447 0.7367439
vn -0.840332 0.3286133 0.4304199
v -0.06713019 0.5029613 0.2166028
vn -0.8540039 0.326416 0.4047852
v -0.09854701 0.3731808 0.2520835
vt 0.5104571 0.1555158
vn -0.847168 0.310791 0.4304199
v -0.09766515 0.4572046 0.1932723
vt 0.2422611 0.5769485
vn -0.8105469 0.3410645 0.4753418
v -0.105988 0.4255863 0.1998531
vt 0.2578809 0.4151434
vn -0.8466797 0.3100586 0.4316406
v -0.109005 0.398694 0.2120728
vn -0.8691406 0.2810059 0.40625
v -0.1058781 0.380132 0.2307961
vt 0.4005078 0.1883216
vn -0.8916016 0.237915 0.3847656
v -0.0633173 0.4876511 0.2391049
vn -0.8730469 0.3110352 0.3740234
v -0.05918721 0.4708339 0.260636
vt 0.6174239 0.6587607
vn -0.8510742 0.3056641 0.4257813
v -0.05531858 0.4549987 0.2774116
vt 0.7018589 0.5819242
vn -0.8325195 0.2973633 0.4663086
v -0.06018911 0.4229371 0.2898969
vt 0.7507687 0.4198686
vn -0.8374023 0.3044434 0.4528809
v -0.05306632 0.4417129 0.2883788
vt 0.7570041 0.5177588
vn -0.7587891 0.3330078 0.559082
v -0.07249156 0.3962528 0.285358
vn -0.8408203 0.3125 0.4416504
v -0.08619526 0.3789372 0.2714963
vt 0.6209365 0.1892383
vn -0.8408203 0.310791 0.442627
o pm0550_11_00_eye_mesh_shape_lod2_r_eye
g polygon_0
usemtl r_eye
f 16/16/16 17/17/17 18/9/18
f 18/9/18 17/17/17 19/18/19
f 19/18/19 17/17/17 20/19/20
f 19/18/19 20/19/20 21/20/21
f 22/14/22 19/18/19 21/20/21
f 23/21/23 19/18/19 22/14/22
f 24/8/24 18/9/18 19/18/19
f 24/8/24 19/18/19 25/22/25
f 25/22/25 19/18/19 26/23/26
f 27/24/27 28/25/28 26/23/26
f 26/23/26 19/18/19 27/24/27
f 27/24/27 19/18/19 29/5/29
f 29/5/29 19/18/19 30/26/30
v -0.1473411 0.2993093 0.1535394
vt 0.4541606 0.7624764
vn -0.7075195 -0.3859863 0.5913086
v -0.1492492 0.3452712 0.1214583
vt 0.4167659 0.7195349
vn -0.09240723 -0.9658203 0.2412109
v -0.1360651 0.3422948 0.1876992
vt 0.4855318 0.7195038
vn -0.2449951 -0.9526367 0.1798096
v 0.07579246 0.4985701 0.2172203
vt 0.7417845 0.2367903
vn 0.628418 -0.6801758 -0.3769531
v 0.06835449 0.4684788 0.2584654
vt 0.7122123 0.2250248
vn 0.8164063 0.3359375 0.4689941
v 0.072234 0.4842069 0.2382947
vt 0.7258866 0.2312795
vn -0.972168 0.2325439 -0.005722046
v -0.06835449 0.4684788 0.2584654
vt 0.2877877 0.2250248
vn -0.8164063 0.3359375 0.4689941
v -0.07579246 0.4985701 0.2172203
vt 0.2582155 0.2367903
vn -0.628418 -0.6801758 -0.3769531
v -0.072234 0.4842069 0.2382947
vt 0.2741134 0.2312795
vn 0.972168 0.2325439 -0.005722046
v 0.1360651 0.3422948 0.1876992
vt 0.5144682 0.7195038
vn 0.6767578 -0.6621094 0.3208008
v 0.1492492 0.3452712 0.1214583
vt 0.5832341 0.7195349
vn 0.2768555 -0.9072266 0.315918
v 0.1473412 0.2993093 0.1535394
vt 0.5458394 0.7624764
vn 0.7075195 -0.3859863 0.5913086
v -0.05101494 0.408165 0.2914526
vt 0.4908762 0.2682555
vn 0.3071289 0.7578125 -0.5751953
v -0.06776466 0.3629847 0.2898624
vt 0.4789591 0.237519
vn 0.2253418 -0.04928589 -0.9726563
v -0.07189231 0.3622968 0.2935312
vt 0.4818563 0.2348842
vn -0.862793 0.40625 0.2995605
v -0.04392704 0.3720612 0.3164965
vt 0.4826831 0.3004935
vn -0.1768799 0.5371094 0.8242188
v -0.03979938 0.3680444 0.3128277
vt 0.4778777 0.3004931
vn 0.8759766 -0.01197815 -0.4819336
vt 0.4911765 0.2703474
v -0.08638958 0.3947089 0.2528348
vt 0.4642386 0.6523686
vn 0.3046875 0.809082 -0.5014648
v -0.09533226 0.347876 0.2529404
vt 0.4494369 0.6223971
vn 0.6069336 -0.1176758 -0.7856445
v -0.0990776 0.3518519 0.2551145
vt 0.4535306 0.6228762
vn -0.9443359 0.2697754 -0.1861572
v -0.08018383 0.3602344 0.284463
vt 0.4538474 0.6849616
vn -0.1889648 0.6450195 0.7402344
v -0.07521892 0.3562583 0.2823059
vt 0.4491383 0.6849635
vn 0.9677734 0.1084595 -0.2253418
vt 0.4642124 0.6544566
v -0.1016085 0.3829975 0.2198704
vt 0.4917777 0.6543307
vn 0.3222656 0.8803711 -0.347168
v -0.1120158 0.3345909 0.2129195
vt 0.4786564 0.6225102
vn 0.6826172 -0.04211426 -0.7290039
v -0.1174977 0.3381431 0.2141623
vt 0.4833565 0.622512
vn -0.8061523 0.3464355 -0.4787598
v -0.1037746 0.3480357 0.2464166
vt 0.4833324 0.6863261
vn -0.4592285 0.5546875 0.6933594
v -0.09829273 0.3444834 0.2451738
vt 0.4786316 0.6863246
vn 0.996582 0.07775879 -0.01225281
vt 0.4917768 0.6564271
v -0.04908905 0.3363551 0.3139794
vt 0.3608873 0.2989365
vn 0.1173706 -0.9848633 0.1240845
v -0.03270344 0.3878452 0.320078
vt 0.3562577 0.2588038
vn 0.9433594 -0.2790527 -0.1773682
v -0.03765091 0.3878385 0.3258783
vt 0.3621053 0.2588041
vn -0.01476288 -0.2219238 0.9746094
v -0.06843925 0.3775659 0.2996046
vt 0.3621029 0.3381426
vn -0.890625 -0.298584 0.3422852
v -0.06349175 0.3775727 0.2938043
vt 0.3562553 0.3381428
vn 0.230957 -0.3613281 -0.9033203
vt 0.3608872 0.3015432
v -0.06829047 0.3776101 0.2891845
vt 0.3805923 0.2661952
vn 0.9599609 -0.2717285 0.06439209
v -0.07434311 0.3776033 0.2938038
vt 0.3853949 0.2661952
vn -0.2246094 -0.3259277 0.9179688
v -0.0801519 0.3327181 0.27645
vt 0.3816921 0.2953614
vn 0.1325684 -0.984375 0.1152954
v 0.05101496 0.408165 0.2914526
vt 0.5091238 0.2682555
vn -0.3071289 0.7578125 -0.5751953
v 0.07189231 0.3622968 0.2935312
vt 0.5181437 0.2348842
vn 0.862793 0.40625 0.2995605
v 0.06776464 0.3629847 0.2898624
vt 0.5210409 0.237519
vn -0.2253418 -0.04928589 -0.9726563
vt 0.5088235 0.2703474
v 0.03979938 0.3680444 0.3128277
vt 0.5221223 0.3004931
vn -0.8759766 -0.01197815 -0.4819336
v 0.04392704 0.3720612 0.3164965
vt 0.5173169 0.3004935
vn 0.1768799 0.5371094 0.8242188
v 0.08638958 0.3947089 0.2528348
vt 0.5357614 0.6523686
vn -0.3046875 0.809082 -0.5014648
v 0.0990776 0.3518519 0.2551145
vt 0.5464694 0.6228762
vn 0.9443359 0.2697754 -0.1861572
v 0.09533226 0.347876 0.2529404
vt 0.5505631 0.6223971
vn -0.6069336 -0.1176758 -0.7856445
vt 0.5357876 0.6544566
v 0.07521892 0.3562583 0.2823059
vt 0.5508617 0.6849635
vn -0.9677734 0.1084595 -0.2253418
v 0.08018383 0.3602344 0.284463
vt 0.5461526 0.6849616
vn 0.1889648 0.6450195 0.7402344
v 0.1016085 0.3829975 0.2198704
vt 0.5082223 0.6543307
vn -0.3222656 0.8803711 -0.347168
v 0.1174977 0.3381431 0.2141623
vt 0.5166435 0.622512
vn 0.8061523 0.3464355 -0.4787598
v 0.1120158 0.3345909 0.2129195
vt 0.5213436 0.6225102
vn -0.6826172 -0.04211426 -0.7290039
vt 0.5082232 0.6564271
v 0.09829273 0.3444834 0.2451738
vt 0.5213684 0.6863246
vn -0.996582 0.07775879 -0.01225281
v 0.1037746 0.3480357 0.2464166
vt 0.5166676 0.6863261
vn 0.4592285 0.5546875 0.6933594
v 0.04908905 0.3363551 0.3139794
vt 0.6391127 0.2989365
vn -0.1173706 -0.9848633 0.1240845
v 0.03765091 0.3878385 0.3258783
vt 0.6378947 0.2588041
vn 0.01476288 -0.2219238 0.9746094
v 0.03270344 0.3878452 0.320078
vt 0.6437423 0.2588038
vn -0.9433594 -0.2790527 -0.1773682
vt 0.6391128 0.3015432
v 0.06349176 0.3775727 0.2938043
vt 0.6437447 0.3381428
vn -0.230957 -0.3613281 -0.9033203
v 0.06843925 0.3775659 0.2996046
vt 0.6378971 0.3381426
vn 0.890625 -0.298584 0.3422852
vt 0.3816921 0.2975023
v -0.09887165 0.3674186 0.2616493
vt 0.3853965 0.323806
vn -0.8950195 -0.3972168 0.2006836
v -0.09281902 0.3674255 0.25703
vt 0.380594 0.3238063
vn 0.3820801 -0.3408203 -0.8583984
v 0.0801519 0.3327181 0.27645
vt 0.6183079 0.2953614
vn -0.1325684 -0.984375 0.1152954
v 0.07434311 0.3776033 0.2938038
vt 0.6146051 0.2661952
vn 0.2246094 -0.3259277 0.9179688
v 0.0682905 0.3776101 0.2891845
vt 0.6194077 0.2661952
vn -0.9599609 -0.2717285 0.06439209
vt 0.6183079 0.2975023
v 0.09281902 0.3674255 0.25703
vt 0.619406 0.3238063
vn -0.3820801 -0.3408203 -0.8583984
v 0.09887165 0.3674186 0.2616493
vt 0.6146035 0.323806
vn 0.8950195 -0.3972168 0.2006836
v 0.1056335 0.3242618 0.2363744
vt 0.6650312 0.2921984
vn -0.06842041 -0.9936523 0.08630371
v 0.1037441 0.3642382 0.2531247
vt 0.6613884 0.2584412
vn 0.4467773 -0.3276367 0.8320313
v 0.09691896 0.3642447 0.2503808
vt 0.6674054 0.2584418
vn -0.9047852 -0.3022461 0.2998047
v -0.09691894 0.3642447 0.2503808
vt 0.3325946 0.2584418
vn 0.9047852 -0.3022461 0.2998047
v -0.1037441 0.3642382 0.2531247
vt 0.3386116 0.2584412
vn -0.4467773 -0.3276367 0.8320313
v -0.1056335 0.3242618 0.2363744
vt 0.3349688 0.2921984
vn 0.06842041 -0.9936523 0.08630371
vt 0.6650308 0.2948807
v 0.1114413 0.3562693 0.2167018
vt 0.6666417 0.325935
vn -0.6069336 -0.3330078 -0.7211914
v 0.1182664 0.3562627 0.2194456
vt 0.6606247 0.3259338
vn 0.9287109 -0.3703613 -0.006965637
vt 0.3349692 0.2948807
v -0.1182664 0.3562627 0.2194456
vt 0.3393753 0.3259338
vn -0.9287109 -0.3703613 -0.006965637
v -0.1114413 0.3562693 0.2167018
vt 0.3333583 0.325935
vn 0.6069336 -0.3330078 -0.7211914
v -0.05997345 0.3668351 0.3068482
vt 0.2597739 0.00984478
vn -0.6733398 0.3815918 0.6328125
vt 0.2727687 0.01249266
vt 0.2610875 0.0405196
vt 0.2472227 0.009000063
v -0.05171822 0.3564672 0.2995107
vt 0.2178074 0.009034872
vn 0.6381836 -0.1269531 -0.7587891
vt 0.229251 0.01418889
vt 0.2168632 0.04197633
vt 0.2055829 0.0147171
v -0.09272297 0.3580313 0.2708587
vt 0.1736585 0.009787321
vn -0.8237305 0.3579102 0.4387207
vt 0.1864208 0.009040892
vt 0.1721188 0.03811985
vt 0.1612681 0.009394407
v -0.08279316 0.3500791 0.2665446
vt 0.1306297 0.008411765
vn 0.8369141 -0.09771729 -0.5375977
vt 0.1429341 0.009891272
vt 0.1316311 0.03935182
vt 0.118321 0.009230256
vt 0.02651215 0.1862266
v -0.1133771 0.3448655 0.2309109
vt 0.02347738 0.1578001
vn -0.8989258 0.3525391 0.2592773
vt 0.03625447 0.1574874
vt 0.01071382 0.157123
v -0.1024133 0.337761 0.2284252
vt 0.08758658 0.00888133
vn 0.9213867 -0.08789063 -0.3781738
vt 0.09988934 0.008966208
vt 0.08659834 0.03929687
vt 0.07544172 0.01084411
vt 0.2764113 0.08817554
v -0.0555188 0.3826988 0.3156416
vt 0.2754029 0.06055802
vn -0.6074219 -0.1124878 0.7861328
vt 0.2877963 0.06239498
vt 0.2629467 0.05921304
v -0.04562385 0.3827124 0.304041
vt 0.2325897 0.05909753
vn 0.6875 -0.2009277 -0.6972656
vt 0.2455934 0.05945063
vt 0.2281128 0.08780992
vt 0.2195924 0.05963641
v -0.0890831 0.3725075 0.2794564
vt 0.1894863 0.06047618
vn -0.7324219 -0.2132568 0.6459961
vt 0.2024379 0.06251949
vt 0.190552 0.08604854
vt 0.1762788 0.05924809
vt 0.7389125 0.04051965
vt 0.7272313 0.01249266
v 0.05997347 0.3668351 0.3068482
vt 0.7402261 0.00984478
vn 0.6733398 0.3815918 0.6328125
vt 0.7527773 0.009000063
v -0.07752845 0.3725212 0.2707976
vt 0.2662657 0.1118555
vn 0.8193359 -0.1330566 -0.5571289
vt 0.279956 0.1103742
vt 0.2651575 0.1379519
vt 0.2526493 0.1139094
vt 0.7831368 0.04197633
vt 0.770749 0.01418895
v 0.05171822 0.3564672 0.2995107
vt 0.7821926 0.009034872
vn -0.6381836 -0.1269531 -0.7587891
vt 0.7944171 0.0147171
vt 0.8278812 0.03811985
vt 0.8135792 0.009040892
v 0.09272297 0.3580313 0.2708587
vt 0.8263415 0.009787321
vn 0.8237305 0.3579102 0.4387207
vt 0.8387319 0.009394407
vt 0.8683689 0.03935176
vt 0.8570659 0.009891272
v 0.08279316 0.3500791 0.2665446
vt 0.8693703 0.008411765
vn -0.8369141 -0.09771729 -0.5375977
vt 0.881679 0.009230256
vt 0.9734879 0.1862266
vt 0.9637455 0.1574874
v 0.1133771 0.3448655 0.2309109
vt 0.9765226 0.1578001
vn 0.8989258 0.3525391 0.2592773
vt 0.9892862 0.157123
vt 0.9134017 0.03929687
vt 0.9001107 0.008966208
v 0.1024133 0.337761 0.2284252
vt 0.9124134 0.00888133
vn -0.9213867 -0.08789063 -0.3781738
vt 0.9245583 0.01084411
vt 0.7235887 0.08817554
vt 0.7122037 0.06239504
v 0.0555188 0.3826988 0.3156416
vt 0.7245971 0.06055802
vn 0.6074219 -0.1124878 0.7861328
vt 0.7370533 0.05921298
vt 0.7718872 0.08780986
vt 0.7544066 0.05945063
v 0.04562385 0.3827124 0.304041
vt 0.7674103 0.05909753
vn -0.6875 -0.2009277 -0.6972656
vt 0.7804076 0.05963641
vt 0.809448 0.08604854
vt 0.7975621 0.06251949
v 0.0890831 0.3725075 0.2794564
vt 0.8105137 0.06047624
vn 0.7324219 -0.2132568 0.6459961
vt 0.8237212 0.05924809
vt 0.7348425 0.1379519
vt 0.720044 0.1103742
v 0.07752845 0.3725212 0.2707976
vt 0.7337343 0.1118555
vn -0.8193359 -0.1330566 -0.5571289
vt 0.7473507 0.1139094
vt 0.8498585 0.08587819
vt 0.8370283 0.06196225
v 0.1128574 0.3614039 0.238181
vt 0.8510109 0.0590902
vn 0.8774414 -0.1920166 0.4389648
vt 0.86354 0.05835831
v -0.1128574 0.3614039 0.238181
vt 0.1489891 0.0590902
vn -0.8774414 -0.1920166 0.4389648
vt 0.1629717 0.06196225
vt 0.1501415 0.08587819
vt 0.13646 0.05835831
vt 0.8529217 0.1382129
vt 0.8390824 0.1103135
v 0.1007675 0.361417 0.233404
vt 0.8517475 0.1112335
vn -0.9272461 -0.1488037 -0.3425293
vt 0.8661746 0.1142836
v -0.1007675 0.361417 0.233404
vt 0.1482525 0.1112335
vn 0.9272461 -0.1488037 -0.3425293
vt 0.1609176 0.1103135
vt 0.1470783 0.1382129
vt 0.1338254 0.1142836
v -0.08601978 0.3180116 0.0736931
vt 0.4410804 0.3212728
vn -0.1201172 -0.90625 0.4047852
vt 0.4077282 0.2899138
v -0.111284 0.3268323 0.1430851
vt 0.4316595 0.2783254
vn -0.01733398 0.9853516 -0.1690674
v -0.144054 0.3378271 0.1420997
vt 0.4092125 0.2762835
vn -0.8569336 0.4970703 0.1330566
v -0.09162232 0.3419625 0.2384534
vt 0.4463223 0.2233691
vn 0.04016113 0.9643555 -0.2607422
v -0.1269572 0.3555157 0.2368449
vt 0.4268487 0.2214344
vn -0.9199219 0.3203125 0.2252197
v -0.05342251 0.3603667 0.2902778
vt 0.4685466 0.1914244
vn -0.02880859 0.9555664 -0.291748
v -0.08502471 0.3840332 0.327777
vt 0.4517058 0.166788
vn -0.690918 0.5693359 0.4443359
v 0 0.4070218 0.3643776
vt 0.5 0.1423866
vn 0 0.7836914 0.6206055
v 0.05342251 0.3603667 0.2902778
vt 0.5314534 0.1914244
vn 0.02880859 0.9555664 -0.291748
v 0.08502471 0.3840332 0.327777
vt 0.5482942 0.166788
vn 0.690918 0.5693359 0.4443359
v 0.1269572 0.3555157 0.2368449
vt 0.5731513 0.2214344
vn 0.9199219 0.3203125 0.2252197
v 0.09162233 0.3419625 0.2384534
vt 0.5536777 0.2233691
vn -0.04016113 0.9643555 -0.2607422
v 0.144054 0.3378271 0.1420997
vt 0.5907875 0.2762835
vn 0.8569336 0.4970703 0.1330566
v 0.111284 0.3268323 0.1430851
vt 0.5683405 0.2783254
vn 0.01733398 0.9853516 -0.1690674
vt 0.5922718 0.2899138
v 0.08601978 0.3180116 0.0736931
vt 0.5589196 0.3212728
vn 0.1384277 -0.9326172 0.3330078
v 6.406937E-31 0.4150764 -0.5966054
vt 0.07942021 0.7632775
vn 0 0.1201172 -0.9926758
v -0.01695881 0.40304 -0.5527197
vt 0.06840527 0.7345971
vn -0.9946289 0.009590149 -0.1022949
v 6.145993E-31 0.4939107 -0.5723066
vt 0.1284428 0.7435535
vn 0 0.9907227 -0.1339111
v -0.02296299 0.3760206 -0.4520444
vt 0.04498327 0.6686124
vn -0.9985352 -0.002872467 -0.04931641
v 4.850366E-31 0.4473255 -0.4516596
vt 0.09410799 0.6644215
vn 0 0.9443359 0.3288574
v -0.02799755 0.353019 -0.3657587
vt 0.02474064 0.6127769
vn -0.9702148 -0.01405334 -0.2406006
v 3.792057E-31 0.4016674 -0.3652912
vt 0.06309366 0.6075548
vn 0 0.9638672 -0.265625
v -0.06346916 0.3870398 -0.2803775
vt 0.02339256 0.5476798
vn -0.8398438 0.3459473 -0.4174805
v 1.122538E-31 0.4513229 -0.2812974
vt 0.08318067 0.545348
vn 0 0.7670898 -0.640625
v -0.0922192 0.4883926 -0.14127
vt 0.05213344 0.4337903
vn -0.8100586 0.4294434 -0.3981934
v 3.814697E-08 0.5722515 -0.1426397
vt 0.1357338 0.4315669
vn 0 0.7875977 -0.6157227
v -0.03402523 0.6001753 -0.06149536
vt 0.1297873 0.3709108
vn -0.5820313 0.7617188 -0.2836914
v -0.1037438 0.5410244 -0.001102474
vt 0.06779736 0.3329184
vn -0.862793 0.5019531 -0.05175781
v -1.907349E-07 0.6274296 -0.000417399
vt 0.15745 0.3307564
vn 0 0.9980469 0.06051636
v -0.09621109 0.5383106 0.1276905
vt 0.06812716 0.2442203
vn -0.8046875 0.5834961 0.1066895
v -1.525879E-07 0.5986454 0.183056
vt 0.1425403 0.2035038
vn 0 0.9580078 0.2861328
v -0.09189041 0.5311388 0.1593445
vt 0.06737995 0.2218634
vn -0.7963867 0.5463867 0.2578125
v -0.08574455 0.5174074 0.1998274
vt 0.06408215 0.1920902
vn -0.628418 0.6411133 0.439209
v -0.04067501 0.4932946 0.2879505
vt 0.07640129 0.1253477
vn -0.4528809 0.5742188 0.6816406
v 2.058434E-32 0.5419068 0.259322
vt 0.1181027 0.1442879
vn 0 0.7514648 0.659668
vt 0.05120265 0.1407031
v 2.058434E-32 0.4331185 0.3387952
vt 0.06909579 0.06701362
vn 0 0.3527832 0.9355469
v -0.06650147 0.4572867 0.2797868
vt 0.0460934 0.1250006
vn -0.7255859 0.347168 0.5932617
v 2.058434E-32 0.3833727 0.3500949
vt 0.04680502 0.04141539
vn 0.009933472 -0.7260742 0.6870117
v -0.06082279 0.3770609 0.326093
vt 0.01349449 0.07095671
vn -0.4213867 -0.1291504 0.8974609
vt 0.8715572 0.7435535
v 0.01695881 0.40304 -0.5527197
vt 0.9315947 0.7345971
vn 0.9946289 0.009590149 -0.1022949
vt 0.9205798 0.7632775
v 0.02296299 0.3760206 -0.4520444
vt 0.9550167 0.6686124
vn 0.9985352 -0.002872467 -0.04931641
vt 0.905892 0.6644215
v 0.02799755 0.353019 -0.3657587
vt 0.9752594 0.6127769
vn 0.9702148 -0.01405334 -0.2406006
vt 0.9369063 0.6075548
v 0.06346918 0.3870398 -0.2803775
vt 0.9766074 0.5476798
vn 0.8398438 0.3459473 -0.4174805
vt 0.9168193 0.545348
v 0.0922192 0.4883926 -0.14127
vt 0.9478666 0.4337903
vn 0.8100586 0.4294434 -0.3981934
vt 0.8642662 0.4315669
v 0.03402523 0.6001753 -0.06149536
vt 0.8702127 0.3709108
vn 0.5820313 0.7617188 -0.2836914
v 0.1037438 0.5410244 -0.001102474
vt 0.9322026 0.3329184
vn 0.862793 0.5019531 -0.05175781
vt 0.84255 0.3307564
v 0.09621109 0.5383106 0.1276905
vt 0.9318728 0.2442203
vn 0.8046875 0.5834961 0.1066895
vt 0.8574597 0.2035038
v 0.09189041 0.5311388 0.1593445
vt 0.93262 0.2218634
vn 0.7963867 0.5463867 0.2578125
v 0.08574453 0.5174074 0.1998274
vt 0.9359179 0.1920902
vn 0.628418 0.6411133 0.439209
v 0.04067501 0.4932946 0.2879505
vt 0.9235987 0.1253477
vn 0.4528809 0.5742188 0.6816406
vt 0.8818973 0.1442879
vt 0.9487973 0.1407031
vt 0.9309042 0.06701362
v 0.06650145 0.4572867 0.2797868
vt 0.9539066 0.1250006
vn 0.7255859 0.347168 0.5932617
vt 0.953195 0.04141539
v 0.06082277 0.3770609 0.326093
vt 0.9865055 0.07095671
vn 0.4213867 -0.1291504 0.8974609
v 4.844289E-31 0.2368032 -0.4510938
vt 0.4108104 0.1035953
vn 0 -0.9995117 0.00982666
v 3.927886E-31 0.2800846 -0.3657595
vt 0.390579 0.1608642
vn 0 -0.9282227 -0.3718262
vt 0.3383483 0.162201
vt 0.3217734 0.1077147
vt 0.3014687 0.04461873
v 6.039457E-31 0.1936895 -0.5623862
vt 0.4329495 0.03134894
vn 0 -0.9946289 0.09985352
v 6.374024E-31 0.2953939 -0.5935406
vt 0.3687351 0.01514131
vn 0 -0.251709 -0.9677734
vt 0.2927249 0.0170188
vt 0.6985313 0.04461873
vt 0.6312649 0.01514131
vt 0.7072751 0.0170188
vt 0.5670505 0.03134894
vt 0.5891896 0.1035953
vt 0.6782266 0.1077147
vt 0.6616517 0.162201
vt 0.609421 0.1608642
v -0.1505265 0.3535063 0.0793387
vt 0.2273458 0.8225039
vn 0.5366211 -0.6787109 0.500061
v -0.1517863 0.3848937 0.07557717
vt 0.2279183 0.8384109
vn 0.251709 0.4462891 -0.8583984
v -0.1497341 0.3776809 0.09251714
vt 0.223748 0.8334322
vn 0.1519775 0.1066284 0.9824219
v -0.1957062 0.3357818 0.06802221
vt 0.2488025 0.8160241
vn 0.07824707 -0.1345215 -0.987793
v -0.2757049 0.2960033 0.08730648
vt 0.2831008 0.7966046
vn 0.1009521 -0.3747559 0.9213867
v -0.36924 0.2578046 0.07765766
vt 0.3253638 0.7816949
vn 0.0748291 -0.5551758 -0.828125
v -0.4337908 0.2501688 0.07836066
vt 0.3536599 0.7778352
vn -0.4106445 0.2607422 -0.8735352
v -0.2828614 0.4294859 0.07242288
vt 0.2866049 0.8571423
vn 0.07879639 0.5517578 -0.8300781
v -0.3683797 0.3118627 0.0782619
vt 0.3260606 0.8062235
vn -0.2431641 -0.06646729 -0.9672852
v -0.3746381 0.4031553 0.07862051
vt 0.327539 0.8475847
vn -0.2124023 0.02407837 -0.9765625
v -0.4456523 0.4638047 0.07949714
vt 0.3567613 0.8770633
vn -0.1245117 0.2041016 0.9707031
v -0.4069982 0.3230424 0.07422259
vt 0.342768 0.8116477
vn -0.01190186 -0.02235413 -0.9995117
v -0.4726582 0.3312445 0.08412724
vt 0.372644 0.8153214
vn -0.07458496 -0.04165649 0.9960938
v -0.5423194 0.3444233 0.07842736
vt 0.4018338 0.8218924
vn -0.1258545 0.2912598 -0.9482422
v 0.1497341 0.3776809 0.09251714
vt 0.776252 0.8334322
vn -0.1519775 0.1066284 0.9824219
v 0.1517864 0.3848937 0.07557717
vt 0.7720817 0.8384109
vn -0.251709 0.4462891 -0.8583984
v 0.1505265 0.3535063 0.0793387
vt 0.7726542 0.8225039
vn -0.5366211 -0.6787109 0.500061
v 0.1957062 0.3357818 0.06802221
vt 0.7511975 0.8160241
vn -0.07824707 -0.1345215 -0.987793
v 0.2757049 0.2960033 0.08730648
vt 0.7168992 0.7966046
vn -0.1009521 -0.3747559 0.9213867
v 0.36924 0.2578046 0.07765766
vt 0.6746362 0.7816949
vn -0.0748291 -0.5551758 -0.828125
v 0.4337908 0.2501688 0.07836066
vt 0.6463401 0.7778352
vn 0.4106445 0.2607422 -0.8735352
v 0.2828615 0.4294859 0.07242288
vt 0.7133951 0.8571423
vn -0.07879639 0.5517578 -0.8300781
v 0.3683797 0.3118627 0.0782619
vt 0.6739394 0.8062235
vn 0.2431641 -0.06646729 -0.9672852
v 0.374638 0.4031553 0.07862051
vt 0.672461 0.8475847
vn 0.2124023 0.02407837 -0.9765625
v 0.4456523 0.4638047 0.07949714
vt 0.6432387 0.8770633
vn 0.1245117 0.2041016 0.9707031
v 0.4069982 0.3230424 0.07422259
vt 0.657232 0.8116477
vn 0.01190186 -0.02235413 -0.9995117
v 0.4726582 0.3312445 0.08412724
vt 0.627356 0.8153214
vn 0.07458496 -0.04165649 0.9960938
v 0.5423193 0.3444233 0.07842736
vt 0.5981662 0.8218924
vn 0.1258545 0.2912598 -0.9482422
vt 0.08731878 0.8535063
vt 0.01945186 0.8264956
vt 0.04713464 0.8225561
v -0.296336 0.3615907 0.08951422
vt 0.1200652 0.8361996
vn -0.03543091 0.02233887 0.9990234
vt 0.090253 0.8142131
vt 0.06002009 0.8807587
vt 0.1293267 0.8100149
vt 0.06661022 0.7860437
vt 0.09260523 0.7913919
vt 0.1794343 0.8427213
vt 0.181528 0.8333824
vt 0.1263939 0.8664456
vt 0.1804262 0.8481235
vt 0.9126812 0.8535063
vt 0.9528654 0.8225561
vt 0.9805481 0.8264956
v 0.296336 0.3615907 0.08951422
vt 0.8799348 0.8361996
vn 0.03543091 0.02233887 0.9990234
vt 0.909747 0.8142131
vt 0.9399799 0.8807587
vt 0.8706733 0.8100149
vt 0.9333898 0.7860437
vt 0.9073948 0.7913919
vt 0.8205657 0.8427213
vt 0.818472 0.8333824
vt 0.8736061 0.8664456
vt 0.8195738 0.8481235
v -3.659446E-31 0.5258791 -0.1751628
vt 0.3993086 0.6259425
vn 0 0.746582 0.6645508
v -2.054059E-31 0.5618057 -0.2155313
vt 0.402071 0.6567268
vn 0 0.8881836 0.4589844
v -0.01924465 0.4860256 -0.2201724
vt 0.3615209 0.6355209
vn -0.9897461 0.1397705 0.0005149841
v -0.01113865 0.5354107 -0.2691078
vt 0.3686647 0.6752509
vn -0.9882813 0.1480713 -0.02124023
v 1.636581E-31 0.5947001 -0.2985968
vt 0.3934938 0.7068079
vn 0 0.9741211 0.225708
v -3.010042E-32 0.5446913 -0.2822295
vt 0.3703064 0.687679
vn 0 0.96875 -0.2476807
v -0.01785614 0.4318474 -0.2749025
vt 0.3190804 0.6411746
vn -0.9912109 -0.02130127 -0.1295166
v 3.814697E-08 0.5633285 -0.4124206
vt 0.3298202 0.75168
vn 0 0.6391602 -0.7685547
v -0.01307445 0.4606632 -0.3197687
vt 0.3144661 0.6720451
vn -0.9916992 -0.03713989 -0.119812
v 2.760203E-31 0.3934209 -0.3084494
vt 0.2866853 0.638401
vn 0 -0.7685547 -0.6391602
v 2.866015E-31 0.4675431 -0.3423925
vt 0.3075153 0.6868146
vn 0 0.005931854 -0.9995117
v 3.814697E-08 0.4627135 -0.4079854
vt 0.2737632 0.7057359
vn 0 -0.7504883 -0.6606445
v -3.046584E-31 0.5670848 -0.1312227
vt 0.9653903 0.8921326
vn 0 -0.3605957 -0.9326172
v 4.33493E-32 0.6463496 -0.1618761
vt 0.9870801 0.9285776
vn 0 -0.1381836 -0.9902344
v 0.01513943 0.5872445 -0.08135214
vt 0.941291 0.908067
vn 0.9858398 -0.0176239 -0.1643066
v 0.01189053 0.628944 -0.09729917
vt 0.9521126 0.9284328
vn 0.984375 0.1105347 -0.1352539
v -2.532166E-31 0.6367966 -0.1015527
vt 0.9572353 0.9341126
vn 0 0.5922852 -0.8051758
v 0.01978447 0.6066521 -0.01224496
vt 0.9095174 0.9179176
vn 0.9941406 0.1040039 -0.02116394
v 3.814697E-08 0.7416587 -0.08742522
vt 0.9467375 0.9860976
vn 0 0.9174805 -0.3964844
v 0.0152977 0.645475 -0.01375946
vt 0.9063404 0.9362886
vn 0.9873047 0.1575928 -0.01544952
v 1.810502E-31 0.6571528 -0.01641225
vt 0.9075437 0.9477855
vn 0 0.9951172 -0.09368896
v 0.01583859 0.6161724 0.07479319
vt 0.8689613 0.90931
vn 0.9833984 0.1275635 0.1270752
v 1.521892E-30 0.7555978 0.02873139
vt 0.866624 0.9831538
vn 0 0.9780273 0.2070313
v 0.0120615 0.641342 0.07734462
vt 0.8620296 0.9204644
vn 0.9799805 0.1365967 0.1427002
v 2.058434E-32 0.6131285 0.1154732
vt 0.8506036 0.8949514
vn 0 0.01789856 0.9995117
v 8.344422E-32 0.6511142 0.0780199
vt 0.8567567 0.9268533
vn 0 0.7827148 0.621582
v 1.050911E-31 0.6876314 0.1189469
vt 0.8298311 0.9257567
vn 0 0.1453857 0.9892578
v -0.01513943 0.5872445 -0.08135214
vt 0.05870897 0.908067
vn -0.9858398 -0.0176239 -0.1643066
vt 0.01298225 0.9284253
vt 0.03460946 0.8921324
v -0.01189053 0.628944 -0.09729917
vt 0.04788744 0.9284328
vn -0.984375 0.1105347 -0.1352539
vt 0.04276466 0.9341126
v -0.01978443 0.6066521 -0.01224496
vt 0.09048253 0.9179176
vn -0.9941406 0.1040039 -0.02116394
vt 0.05323276 0.9860999
v -0.0152977 0.645475 -0.01375946
vt 0.09361923 0.9362864
vn -0.9873047 0.1575928 -0.01544952
vt 0.09245628 0.9477855
v -0.01583859 0.6161724 0.07479319
vt 0.1310387 0.90931
vn -0.9833984 0.1275635 0.1270752
vt 0.1329809 0.9831316
v -0.0120615 0.641342 0.07734462
vt 0.1379704 0.9204644
vn -0.9799805 0.1365967 0.1427002
vt 0.1494144 0.89493
vt 0.1432433 0.9268533
vt 0.1701689 0.9257567
vt 0.6006917 0.6259425
v 0.01924465 0.4860256 -0.2201724
vt 0.6384791 0.6355209
vn 0.9897461 0.1397705 0.000515461
vt 0.5982047 0.6567708
v 0.01113869 0.5354107 -0.2691078
vt 0.6313483 0.6752458
vn 0.9882813 0.1480713 -0.02124023
vt 0.6065068 0.7068077
vt 0.6296936 0.687679
v 0.01785614 0.4318474 -0.2749025
vt 0.6809197 0.6411745
vn 0.9912109 -0.02130127 -0.1295166
vt 0.6702808 0.7516407
v 0.01307445 0.4606632 -0.3197687
vt 0.6855339 0.6720451
vn 0.9916992 -0.03713989 -0.119812
vt 0.7132794 0.6384173
vt 0.6924847 0.6868146
vt 0.7261981 0.7057397
v -1.106262E-06 0.2883247 0.4049182
vt 0.8107623 0.9760733
vn -7.790327E-05 -0.2416992 0.9702148
v 0.08563459 0.2786794 0.3737615
vt 0.7570564 0.974791
vn 0.6303711 -0.3210449 0.7060547
vt 0.8100073 0.9017721
vt 0.7540929 0.9081609
vt 0.6915534 0.9041735
v 0.1370361 0.2457643 0.2185482
vt 0.6585572 0.9627983
vn 0.9453125 -0.1652832 0.2797852
v 0.1111238 0.2099388 0.2257848
vt 0.6588628 0.9873064
vn 0.449707 -0.8378906 0.3083496
v 0.1191243 0.1870161 0.110024
vt 0.5876684 0.9813604
vn 0.4223633 -0.9003906 0.1043091
v 0.1482017 0.224297 0.1079761
vt 0.5921445 0.9552505
vn 0.9125977 -0.4052734 0.05078125
v 0.1545855 0.2650036 0.1347595
vt 0.6138178 0.9357815
vn 0.9960938 -0.0206604 0.08026123
vt 0.632707 0.8951492
vt 0.6193644 0.8915139
vt 0.1899927 0.9017721
v -0.08563461 0.2786794 0.3737615
vt 0.2429436 0.974791
vn -0.6303711 -0.3220215 0.7060547
vt 0.1892377 0.9760733
vt 0.2459071 0.9081609
vt 0.3084466 0.9041735
v -0.1370361 0.2457643 0.2185482
vt 0.3414428 0.9627983
vn -0.9453125 -0.1652832 0.2797852
v -0.1111238 0.2099388 0.2257848
vt 0.3411372 0.9873064
vn -0.4487305 -0.8383789 0.3083496
v -0.1191244 0.1870161 0.110024
vt 0.4123316 0.9813604
vn -0.4216309 -0.9003906 0.1044922
v -0.1482017 0.224297 0.1079761
vt 0.4078555 0.9552505
vn -0.9125977 -0.4052734 0.05078125
v -0.1545855 0.2650036 0.1347595
vt 0.3861822 0.9357815
vn -0.9960938 -0.02067566 0.08026123
vt 0.367293 0.8951492
vt 0.3806356 0.8915139
vt 0.1662705 0.1571009
vt 0.1936195 0.1222147
v -0.1600486 0.3597361 0.1167783
vt 0.1660142 0.1675295
vn -0.9780273 0.2042236 0.04122925
vt 0.2226585 0.1520203
vt 0.1853724 0.3104098
vt 0.2092845 0.304899
v -0.1214371 0.3989777 0.2127876
vt 0.2421964 0.1993454
vn -0.9267578 0.1928711 0.3212891
v -0.1047876 0.3627882 0.2666442
vt 0.2859322 0.1727893
vn -0.06506348 -0.9609375 0.2683105
v -0.1160828 0.4584566 0.1742046
vt 0.2151248 0.2363229
vn -0.925293 0.3144531 0.2114258
v -0.09626129 0.4882824 0.1917116
vt 0.2335286 0.2435515
vn -0.8662109 0.3085938 0.392334
vt 0.2402205 0.2937518
v -0.1121418 0.426102 0.2016632
vt 0.2392793 0.2278329
vn -0.6479492 0.4418945 0.6196289
v -0.1043658 0.4556995 0.1954578
vt 0.237726 0.2326223
vn -0.8076172 0.3295898 0.4880371
v -0.1149264 0.4009722 0.2131876
vt 0.2451668 0.2229056
vn -0.2144775 0.5366211 0.815918
v -0.09286903 0.4842921 0.1942021
vt 0.2389824 0.2364381
vn -0.7275391 0.1882324 0.6591797
v -0.1119773 0.3836223 0.2307427
vt 0.2584246 0.2181813
vn 0.5292969 0.7700195 0.3552246
v -0.08601265 0.4965881 0.195953
vt 0.2416021 0.2382061
vn -0.3452148 -0.05227661 0.9365234
v -0.07871231 0.5083414 0.1995161
vt 0.2451157 0.2399299
vn -0.6118164 -0.4931641 0.6176758
v -0.1051805 0.3770759 0.2505449
vt 0.2741322 0.2132747
vn -0.800293 0.4384766 0.4086914
v -0.09370548 0.3824372 0.2685531
vt 0.2900398 0.2107878
vn -0.8271484 0.4162598 0.376709
v -0.06479042 0.4535862 0.2741282
vt 0.2974169 0.2195872
vn -0.9516602 -0.2895508 -0.09838867
vt 0.3044903 0.2500745
v -0.06281365 0.4411627 0.2842233
vt 0.3038155 0.2150187
vn -0.2792969 -0.2822266 -0.9174805
v -0.07790291 0.3862676 0.299477
vt 0.3165151 0.1938279
vn -0.8144531 0.2219238 0.5356445
vt 0.3396395 0.1882383
v -0.0809766 0.3986511 0.2813979
vt 0.3021894 0.2102472
vn -0.8935547 0.2922363 0.3395996
v -0.07143798 0.4236898 0.2911588
vt 0.3091444 0.2123486
vn -0.7895508 0.3181152 0.5244141
v -0.06956162 0.4236373 0.2855259
vt 0.3035334 0.2120515
vn -0.8725586 0.3894043 -0.2941895
v 0.1600486 0.3597361 0.1167783
vt 0.8339858 0.1675295
vn 0.9780273 0.2042236 0.04122925
vt 0.8063805 0.1222147
vt 0.8337295 0.1571009
vt 0.7773415 0.1520203
vt 0.7907155 0.304899
vt 0.8146276 0.3104098
v 0.1214371 0.3989777 0.2127876
vt 0.7578036 0.1993454
vn 0.9267578 0.1928711 0.3212891
v 0.1047876 0.3627882 0.2666442
vt 0.7140678 0.1727893
vn 0.1591797 -0.9458008 0.2822266
v 0.1160828 0.4584566 0.1742046
vt 0.7848752 0.2363229
vn 0.925293 0.3144531 0.2114258
v 0.09626129 0.4882824 0.1917116
vt 0.7664714 0.2435515
vn 0.8662109 0.3085938 0.392334
vt 0.7597795 0.2937518
v 0.1121418 0.426102 0.2016632
vt 0.7607207 0.2278329
vn 0.6479492 0.4418945 0.6196289
v 0.1043658 0.4556995 0.1954578
vt 0.762274 0.2326223
vn 0.8076172 0.3295898 0.4880371
v 0.1149264 0.4009722 0.2131876
vt 0.7548332 0.2229056
vn 0.2144775 0.5366211 0.815918
v 0.09286905 0.4842921 0.1942021
vt 0.7610176 0.2364381
vn 0.7275391 0.1882324 0.6591797
v 0.1119773 0.3836223 0.2307427
vt 0.7415754 0.2181813
vn -0.5292969 0.7700195 0.3552246
v 0.08601265 0.4965881 0.195953
vt 0.7583979 0.2382061
vn 0.3452148 -0.05227661 0.9365234
v 0.07871233 0.5083414 0.1995161
vt 0.7548843 0.2399299
vn 0.6118164 -0.4931641 0.6176758
v 0.1051805 0.3770759 0.2505449
vt 0.7258678 0.2132747
vn 0.800293 0.4384766 0.4086914
v 0.09370548 0.3824372 0.2685531
vt 0.7099602 0.2107878
vn 0.8271484 0.4162598 0.376709
vt 0.6955097 0.2500745
v 0.06479042 0.4535862 0.2741282
vt 0.7025831 0.2195872
vn 0.9516602 -0.2895508 -0.09838867
v 0.06281362 0.4411627 0.2842233
vt 0.6961845 0.2150187
vn 0.2792969 -0.2822266 -0.9174805
v 0.07790291 0.3862676 0.299477
vt 0.6834849 0.1938279
vn 0.8144531 0.2219238 0.5356445
vt 0.6603605 0.1882383
v 0.0809766 0.3986511 0.2813979
vt 0.6978106 0.2102472
vn 0.8935547 0.2922363 0.3395996
v 0.07143798 0.4236898 0.2911588
vt 0.6908556 0.2123486
vn 0.7890625 0.3181152 0.5244141
v 0.06956162 0.4236373 0.2855259
vt 0.6964666 0.2120515
vn 0.8725586 0.3894043 -0.2941895
v -0.01718048 0.2170069 -0.1890967
vt 0.1659294 0.6261914
vn -0.9936523 -0.09179688 0.05911255
v 1.15667E-32 0.1551721 -0.1776751
vt 0.1334653 0.647658
vn 0 -0.8125 0.5820313
v -2.41161E-31 0.1972078 -0.1288666
vt 0.1284947 0.6110815
vn 0 -0.7573242 0.6523438
v -0.01238136 0.1746699 -0.2309378
vt 0.1680673 0.661737
vn -0.9887695 -0.1459961 0.01856995
v 3.814697E-08 0.1057998 -0.2471484
vt 0.1411862 0.6950474
vn 0 -0.8984375 0.4387207
v 9.704349E-32 0.1604794 -0.2418581
vt 0.1663107 0.6748683
vn 0 -0.9916992 0.1263428
v 3.814697E-08 0.09198431 -0.3691922
vt 0.2093553 0.7469166
vn 0 -0.8300781 -0.5571289
v -0.01189751 0.2140781 -0.3040416
vt 0.2172339 0.6660694
vn -0.9951172 0.04034424 -0.0881958
v 2.984866E-31 0.2801339 -0.3238368
vt 0.2485745 0.6363462
vn 0 0.8115234 -0.5839844
v 4.038824E-31 0.2026021 -0.3197183
vt 0.2240287 0.6786166
vn 0 -0.08001709 -0.996582
v 3.814697E-08 0.1997797 -0.3789047
vt 0.2565831 0.6909937
vn 0 0.4440918 -0.8955078
vt 0.8662754 0.6477622
v 0.01718048 0.2170069 -0.1890967
vt 0.8340706 0.6261914
vn 0.9936523 -0.09179688 0.05911255
vt 0.871505 0.6110815
v 0.01238136 0.1746699 -0.2309378
vt 0.8319327 0.661737
vn 0.9887695 -0.1459961 0.01856995
vt 0.8587534 0.6950623
vt 0.8336893 0.6748683
vt 0.7906308 0.7469966
v 0.01189754 0.2140781 -0.3040416
vt 0.7827643 0.6660796
vn 0.9951172 0.04034424 -0.0881958
vt 0.7514706 0.6363596
vt 0.7759713 0.6786166
vt 0.7435287 0.6911262
vt 0.4640228 0.5036139
vt 0.4360584 0.4681419
vt 0.5 0.5197914
vt 0.5639416 0.4681419
vt 0.5359772 0.5036139
v 0.07533577 0.3525056 0.2058182
vt 0.5465094 0.4303133
vn -0.001802444 -0.9760742 0.2172852
vt 0.4168324 0.4178309
vt 0.5831676 0.4178309
vt 0.4071781 0.375643
vt 0.5928219 0.375643
vt 0.4469569 0.345614
vt 0.5530431 0.345614
v 2.058434E-32 0.3124561 0.04880627
vt 0.5 0.3303892
vn 0.004074097 -0.9819336 0.1888428
vt 0.5389777 0.03943169
vt 0.5451518 0.0825032
vt 0.5222659 0.0175854
v 0 0.3619628 0.2035107
vt 0.5 0.05216467
vn 0 0.9868164 -0.1593018
vt 0.4777341 0.0175854
vt 0.4548482 0.0825032
vt 0.4610223 0.03943169
v 1.873175E-32 0.3313615 0.09487769
vt 0.5 0.1038087
vn 0 0.9604492 -0.2775879
vt 0.5353834 0.1131465
vt 0.4646166 0.1131465
vt 0.5 0.1244363
vt 0.4585747 0.5737785
vt 0.3881723 0.6059091
vt 0.4065225 0.472969
v -0.1425771 0.4054415 -0.06113383
vt 0.3229223 0.544232
vn -0.9628906 0.2131348 -0.163208
vt 0.2967623 0.6131009
v -0.1507528 0.2868126 -0.06114213
vt 0.2941704 0.4812673
vn -0.9868164 -0.0447998 -0.1534424
v -0.1297648 0.2971945 -0.1411721
vt 0.2537206 0.5066016
vn -0.9296875 -0.09594727 -0.3547363
vt 0.1902313 0.5897517
v -0.1614875 0.2982499 0.09146371
vt 0.376627 0.4465041
vn -0.9975586 -0.05255127 0.04003906
vt 0.4049376 0.4643567
vt 0.3627362 0.401391
v -0.1447267 0.2269824 -0.00152305
vt 0.3091738 0.4358861
vn -0.8071289 -0.5688477 -0.1558838
vt 0.3483482 0.3781266
v -0.07287522 0.3316373 -0.2800991
vt 0.1803686 0.5580785
vn -0.8930664 -0.1269531 -0.4309082
vt 0.1305233 0.590992
vt 0.1063371 0.5493975
v -0.04459198 0.2634333 -0.2805828
vt 0.1576304 0.520501
vn -0.6928711 -0.5678711 -0.4433594
v 1.474259E-31 0.2445137 -0.2792985
vt 0.137009 0.501927
vn 0 -0.9194336 -0.3925781
v -0.08675399 0.2163506 -0.1404603
vt 0.2261713 0.4620314
vn -0.6064453 -0.7207031 -0.3339844
v 3.814697E-08 0.1883331 -0.1404559
vt 0.1881939 0.4246137
vn 0 -0.9487305 -0.315918
v -0.05827011 0.1670474 -0.001491171
vt 0.2720981 0.3861846
vn -0.3452148 -0.9282227 -0.135376
v 3.839436E-33 0.1673339 -0.0007551459
vt 0.2498192 0.36113
vn 0 -0.9912109 -0.1322021
v 0.0001582336 0.1549284 0.1096229
vt 0.302786 0.3189716
vn 0 -0.9873047 0.1583252
vt 0.5934775 0.472969
vt 0.6118277 0.6059091
vt 0.5414253 0.5737785
v 0.1425771 0.4054415 -0.06113383
vt 0.6770777 0.544232
vn 0.9628906 0.2131348 -0.163208
vt 0.7032377 0.6131009
v 0.1507528 0.2868126 -0.06114213
vt 0.7058296 0.4812673
vn 0.9868164 -0.0447998 -0.1534424
v 0.1297648 0.2971945 -0.1411721
vt 0.7462794 0.5066016
vn 0.9296875 -0.09594727 -0.3547363
vt 0.8097687 0.5897517
v 0.1614875 0.2982499 0.09146371
vt 0.623373 0.4465041
vn 0.9975586 -0.05255127 0.04003906
vt 0.5950624 0.4643567
vt 0.6372638 0.401391
v 0.1447267 0.2269824 -0.00152305
vt 0.6908262 0.4358861
vn 0.8071289 -0.5688477 -0.1558838
vt 0.6516518 0.3781266
v 0.07287523 0.3316373 -0.2800991
vt 0.8196314 0.5580785
vn 0.8930664 -0.1269531 -0.4309082
vt 0.8694767 0.590992
vt 0.8936629 0.5493975
v 0.04459198 0.2634333 -0.2805828
vt 0.8423696 0.520501
vn 0.6928711 -0.5678711 -0.4433594
vt 0.862991 0.501927
v 0.08675398 0.2163506 -0.1404603
vt 0.7738287 0.4620314
vn 0.6064453 -0.7207031 -0.3339844
vt 0.8118061 0.4246137
v 0.05827011 0.1670474 -0.001491171
vt 0.7279019 0.3861846
vn 0.345459 -0.9282227 -0.1356201
vt 0.7501808 0.36113
vt 0.697214 0.3189716
v 0.0001678848 0.1994701 0.2940504
vt 0.5 0.9016431
vn 0.0001149178 -0.9130859 0.4067383
vt 0.4306254 0.8652254
vt 0.4248382 0.7928402
vt 0.5 0.7883657
vt 0.4489699 0.9654766
vt 0.5751618 0.7928402
vt 0.5 0.9859563
vt 0.5693746 0.8652254
vt 0.5510301 0.9654766
o pm0550_11_00_body_mesh_shape_lod2_body_00
g polygon_0
usemtl body_00
f 31/27/31 32/28/32 33/29/33
f 34/30/34 35/31/35 36/32/36
f 37/33/37 38/34/38 39/35/39
f 40/36/40 41/37/41 42/38/42
f 43/39/43 44/40/44 45/41/45
f 46/42/46 47/43/47 43/44/43
f 48/45/48 49/46/49 50/47/50
f 51/48/51 52/49/52 48/50/48
f 53/51/53 54/52/54 55/53/55
f 56/54/56 57/55/57 53/56/53
f 58/57/58 59/58/59 60/59/60
f 61/60/61 62/61/62 58/62/58
f 63/63/63 64/64/64 65/65/65
f 66/66/66 67/67/67 68/68/68
f 66/69/66 69/70/69 70/71/70
f 71/72/71 72/73/72 73/74/73
f 71/75/71 74/76/74 75/77/75
f 76/78/76 77/79/77 78/80/78
f 76/81/76 79/82/79 80/83/80
f 81/84/81 82/85/82 83/86/83
f 81/87/81 84/88/84 85/89/85
f 65/90/65 86/91/86 87/92/87
f 88/93/88 89/94/89 90/95/90
f 88/96/88 91/97/91 92/98/92
f 93/99/93 94/100/94 95/101/95
f 96/102/96 97/103/97 98/104/98
f 93/105/93 99/106/99 100/107/100
f 98/108/98 101/109/101 102/110/102
f 103/111/103 46/112/46 43/113/43
f 43/113/43 45/114/45 103/111/103
f 104/115/104 44/116/44 43/117/43
f 43/117/43 47/118/47 104/115/104
f 105/119/105 51/120/51 48/121/48
f 48/121/48 50/122/50 105/119/105
f 106/123/106 49/124/49 48/125/48
f 48/125/48 52/126/52 106/123/106
f 53/127/53 107/128/107 56/129/56
f 53/127/53 55/130/55 107/128/107
f 108/131/108 54/132/54 53/133/53
f 53/133/53 57/134/57 108/131/108
f 58/135/58 109/136/109 61/137/61
f 58/135/58 60/138/60 109/136/109
f 110/139/110 59/140/59 58/141/58
f 62/142/62 110/139/110 58/141/58
f 111/143/111 86/144/86 65/145/65
f 65/145/65 64/146/64 111/143/111
f 66/147/66 70/148/70 112/149/112
f 66/147/66 112/149/112 67/150/67
f 113/151/113 63/152/63 65/153/65
f 87/154/87 113/151/113 65/153/65
f 66/155/66 68/156/68 114/157/114
f 66/155/66 114/157/114 69/158/69
f 71/159/71 75/160/75 115/161/115
f 71/159/71 115/161/115 72/162/72
f 71/163/71 73/164/73 116/165/116
f 71/163/71 116/165/116 74/166/74
f 76/167/76 80/168/80 117/169/117
f 76/167/76 117/169/117 77/170/77
f 76/171/76 78/172/78 118/173/118
f 76/171/76 118/173/118 79/174/79
f 81/175/81 85/176/85 119/177/119
f 81/175/81 119/177/119 82/178/82
f 81/179/81 83/180/83 120/181/120
f 81/179/81 120/181/120 84/182/84
f 88/183/88 92/184/92 121/185/121
f 88/183/88 121/185/121 89/186/89
f 88/187/88 90/188/90 122/189/122
f 88/187/88 122/189/122 91/190/91
f 93/191/93 100/192/100 123/193/123
f 93/191/93 123/193/123 94/194/94
f 124/195/124 101/196/101 98/197/98
f 98/197/98 97/198/97 124/195/124
f 93/199/93 95/200/95 125/201/125
f 93/199/93 125/201/125 99/202/99
f 126/203/126 96/204/96 98/205/98
f 98/205/98 102/206/102 126/203/126
f 127/207/127 32/208/32 128/209/128
f 128/209/128 32/208/32 129/210/129
f 130/211/130 128/209/128 129/210/129
f 130/211/130 129/210/129 131/212/131
f 132/213/132 130/211/130 131/212/131
f 132/213/132 131/212/131 133/214/133
f 134/215/134 132/213/132 133/214/133
f 135/216/135 132/213/132 134/215/134
f 136/217/136 135/216/135 134/215/134
f 135/216/135 136/217/136 137/218/137
f 138/219/138 135/216/135 137/218/137
f 137/218/137 139/220/139 138/219/138
f 140/221/140 138/219/138 139/220/139
f 140/221/140 139/220/139 41/222/41
f 140/221/140 41/222/41 141/223/141
f 142/224/142 143/225/143 144/226/144
f 144/226/144 143/225/143 145/227/145
f 145/227/145 146/228/146 144/226/144
f 145/227/145 147/229/147 146/228/146
f 148/230/148 146/228/146 147/229/147
f 147/229/147 149/231/149 148/230/148
f 148/230/148 149/231/149 150/232/150
f 151/233/151 150/232/150 149/231/149
f 150/232/150 151/233/151 152/234/152
f 151/233/151 153/235/153 152/234/152
f 153/235/153 151/233/151 154/236/154
f 152/234/152 153/235/153 155/237/155
f 155/237/155 153/235/153 154/236/154
f 156/238/156 155/237/155 154/236/154
f 157/239/157 155/237/155 156/238/156
f 158/240/158 157/239/157 156/238/156
f 159/241/159 157/239/157 158/240/158
f 159/241/159 160/242/160 157/239/157
f 161/243/161 157/239/157 160/242/160
f 37/244/37 160/242/160 159/241/159
f 161/243/161 160/242/160 162/245/162
f 37/244/37 163/246/163 160/242/160
f 164/247/164 162/245/162 160/242/160
f 160/242/160 163/246/163 165/248/165
f 164/247/164 160/242/160 165/248/165
f 144/249/144 166/250/166 142/251/142
f 144/249/144 167/252/167 166/250/166
f 167/252/167 144/249/144 146/253/146
f 168/254/168 167/252/167 146/253/146
f 146/253/146 148/255/148 168/254/168
f 168/254/168 148/255/148 169/256/169
f 169/256/169 148/255/148 150/257/150
f 170/258/170 169/256/169 150/257/150
f 152/259/152 170/258/170 150/257/150
f 170/258/170 152/259/152 171/260/171
f 171/260/171 172/261/172 170/258/170
f 171/260/171 152/259/152 155/262/155
f 155/262/155 172/261/172 171/260/171
f 173/263/173 172/261/172 155/262/155
f 173/263/173 155/262/155 157/264/157
f 173/263/173 157/264/157 174/265/174
f 174/265/174 157/264/157 175/266/175
f 176/267/176 175/266/175 157/264/157
f 157/264/157 161/268/161 176/267/176
f 35/269/35 175/266/175 176/267/176
f 161/268/161 162/270/162 176/267/176
f 35/269/35 176/267/176 177/271/177
f 162/270/162 164/272/164 176/267/176
f 178/273/178 177/271/177 176/267/176
f 164/272/164 178/273/178 176/267/176
f 179/274/179 180/275/180 147/276/147
f 147/276/147 145/277/145 179/274/179
f 145/277/145 143/278/143 179/274/179
f 179/274/179 143/278/143 181/279/181
f 143/278/143 182/280/182 181/279/181
f 182/280/182 143/278/143 142/281/142
f 166/282/166 182/283/182 142/284/142
f 181/285/181 182/283/182 166/282/166
f 181/285/181 166/282/166 179/286/179
f 179/286/179 166/282/166 167/287/167
f 179/286/179 167/287/167 168/288/168
f 180/289/180 179/286/179 168/288/168
f 183/290/183 184/291/184 185/292/185
f 186/293/186 184/291/184 183/290/183
f 187/294/187 186/293/186 183/290/183
f 186/293/186 187/294/187 188/295/188
f 186/293/186 188/295/188 189/296/189
f 184/291/184 186/293/186 190/297/190
f 191/298/191 186/293/186 189/296/189
f 192/299/192 190/297/190 186/293/186
f 192/299/192 186/293/186 191/298/191
f 192/299/192 193/300/193 190/297/190
f 194/301/194 192/299/192 191/298/191
f 194/301/194 191/298/191 195/302/195
f 194/301/194 196/303/196 192/299/192
f 194/301/194 195/302/195 196/303/196
f 197/304/197 198/305/198 199/306/199
f 199/306/199 198/305/198 200/307/200
f 199/306/199 200/307/200 201/308/201
f 202/309/202 201/308/201 200/307/200
f 203/310/203 202/309/202 200/307/200
f 204/311/204 200/307/200 198/305/198
f 205/312/205 203/310/203 200/307/200
f 200/307/200 204/311/204 206/313/206
f 205/312/205 200/307/200 206/313/206
f 206/313/206 204/311/204 207/314/207
f 206/313/206 208/315/208 205/312/205
f 209/316/209 205/312/205 208/315/208
f 210/317/210 208/315/208 206/313/206
f 210/317/210 209/316/209 208/315/208
f 192/318/192 196/319/196 195/320/195
f 211/321/211 192/318/192 195/320/195
f 191/322/191 211/321/211 195/320/195
f 192/318/192 211/321/211 193/323/193
f 211/321/211 191/322/191 187/324/187
f 191/322/191 189/325/189 187/324/187
f 189/325/189 188/326/188 187/324/187
f 211/321/211 185/327/185 193/323/193
f 185/327/185 211/321/211 187/324/187
f 185/327/185 187/324/187 183/328/183
f 193/323/193 185/327/185 190/329/190
f 190/329/190 185/327/185 184/330/184
f 206/331/206 209/332/209 210/333/210
f 206/331/206 212/334/212 209/332/209
f 212/334/212 205/335/205 209/332/209
f 212/334/212 206/331/206 207/336/207
f 205/335/205 212/334/212 201/337/201
f 205/335/205 201/337/201 203/338/203
f 201/337/201 202/339/202 203/338/203
f 197/340/197 212/334/212 207/336/207
f 212/334/212 197/340/197 201/337/201
f 201/337/201 197/340/197 199/341/199
f 207/336/207 204/342/204 197/340/197
f 197/340/197 204/342/204 198/343/198
f 213/344/213 214/345/214 215/346/215
f 215/346/215 214/345/214 216/347/216
f 214/345/214 217/348/217 216/347/216
f 216/347/216 217/348/217 218/349/218
f 215/346/215 216/347/216 219/350/219
f 216/347/216 218/349/218 220/351/220
f 219/350/219 216/347/216 221/352/221
f 221/352/221 216/347/216 220/351/220
f 221/352/221 222/353/222 219/350/219
f 220/351/220 223/354/223 221/352/221
f 221/352/221 224/355/224 222/353/222
f 223/354/223 224/355/224 221/352/221
f 225/356/225 226/357/226 227/358/227
f 227/358/227 226/357/226 228/359/228
f 226/357/226 229/360/229 228/359/228
f 227/358/227 228/359/228 230/361/230
f 229/360/229 231/362/231 228/359/228
f 232/363/232 230/361/230 228/359/228
f 232/363/232 228/359/228 231/362/231
f 231/362/231 233/364/233 232/363/232
f 230/361/230 232/363/232 234/365/234
f 233/364/233 235/366/235 232/363/232
f 234/365/234 232/363/232 236/367/236
f 236/367/236 232/363/232 235/366/235
f 234/365/234 236/367/236 237/368/237
f 235/366/235 238/369/238 236/367/236
f 236/367/236 239/370/239 237/368/237
f 238/369/238 239/370/239 236/367/236
f 240/371/240 226/372/226 225/373/225
f 241/374/241 226/372/226 240/371/240
f 226/372/226 241/374/241 229/375/229
f 242/376/242 241/374/241 240/371/240
f 241/374/241 231/377/231 229/375/229
f 242/376/242 243/378/243 241/374/241
f 243/378/243 231/377/231 241/374/241
f 233/379/233 231/377/231 243/378/243
f 244/380/244 243/378/243 242/376/242
f 243/378/243 235/381/235 233/379/233
f 245/382/245 243/378/243 244/380/244
f 245/382/245 235/381/235 243/378/243
f 237/383/237 245/382/245 244/380/244
f 238/384/238 235/381/235 245/382/245
f 237/383/237 239/385/239 245/382/245
f 245/382/245 239/385/239 238/384/238
f 213/386/213 246/387/246 214/388/214
f 214/388/214 246/387/246 247/389/247
f 214/388/214 247/389/247 217/390/217
f 218/391/218 217/390/217 247/389/247
f 248/392/248 247/389/247 246/387/246
f 220/393/220 218/391/218 247/389/247
f 247/389/247 248/392/248 249/394/249
f 220/393/220 247/389/247 249/394/249
f 249/394/249 248/392/248 222/395/222
f 223/396/223 220/393/220 249/394/249
f 222/395/222 224/397/224 249/394/249
f 224/397/224 223/396/223 249/394/249
f 250/398/250 251/399/251 134/400/134
f 136/401/136 134/400/134 251/399/251
f 251/399/251 137/402/137 136/401/136
f 252/403/252 137/402/137 251/399/251
f 252/403/252 251/399/251 253/404/253
f 253/404/253 254/405/254 252/403/252
f 252/403/252 254/405/254 255/406/255
f 252/403/252 256/407/256 137/402/137
f 255/406/255 256/407/256 252/403/252
f 256/407/256 139/408/139 137/402/137
f 255/406/255 41/409/41 256/407/256
f 256/407/256 41/409/41 139/408/139
f 134/410/134 257/411/257 250/412/250
f 134/410/134 133/413/133 257/411/257
f 257/411/257 133/413/133 131/414/131
f 131/414/131 258/415/258 257/411/257
f 258/415/258 259/416/259 257/411/257
f 258/415/258 260/417/260 259/416/259
f 261/418/261 260/417/260 258/415/258
f 262/419/262 258/415/258 131/414/131
f 261/418/261 258/415/258 262/419/262
f 131/414/131 129/420/129 262/419/262
f 262/419/262 32/421/32 261/418/261
f 129/420/129 32/421/32 262/419/262
f 32/422/32 31/423/31 263/424/263
f 31/423/31 33/425/33 263/424/263
f 156/426/156 263/424/263 158/427/158
f 263/424/263 33/425/33 264/428/264
f 264/428/264 33/425/33 265/429/265
f 263/424/263 266/430/266 158/427/158
f 266/430/266 263/424/263 264/428/264
f 267/431/267 158/427/158 266/430/266
f 267/431/267 159/432/159 158/427/158
f 264/428/264 268/433/268 266/430/266
f 268/433/268 269/434/269 266/430/266
f 264/428/264 270/435/270 268/433/268
f 266/430/266 269/434/269 271/436/271
f 266/430/266 271/436/271 267/431/267
f 270/435/270 264/428/264 272/437/272
f 271/436/271 273/438/273 267/431/267
f 272/437/272 264/428/264 265/429/265
f 267/431/267 273/438/273 274/439/274
f 159/432/159 267/431/267 274/439/274
f 159/432/159 274/439/274 38/34/38
f 159/432/159 38/34/38 37/33/37
f 265/429/265 275/440/275 272/437/272
f 276/441/276 275/440/275 265/429/265
f 37/33/37 277/442/277 163/443/163
f 277/442/277 278/444/278 163/443/163
f 279/445/279 276/441/276 265/429/265
f 165/446/165 279/445/279 265/429/265
f 280/447/280 276/441/276 279/445/279
f 165/446/165 163/443/163 281/448/281
f 279/445/279 165/446/165 281/448/281
f 163/443/163 278/444/278 281/448/281
f 281/448/281 280/447/280 279/445/279
f 278/444/278 282/449/282 281/448/281
f 281/448/281 282/449/282 280/447/280
f 283/450/283 42/451/42 41/452/41
f 283/450/283 40/453/40 42/451/42
f 174/454/174 283/450/283 173/455/173
f 283/450/283 284/456/284 40/453/40
f 285/457/285 40/453/40 284/456/284
f 283/450/283 174/454/174 286/458/286
f 286/458/286 284/456/284 283/450/283
f 287/459/287 286/458/286 174/454/174
f 287/459/287 174/454/174 175/460/175
f 284/456/284 286/458/286 288/461/288
f 288/461/288 286/458/286 289/462/289
f 290/463/290 284/456/284 288/461/288
f 286/458/286 291/464/291 289/462/289
f 286/458/286 287/459/287 291/464/291
f 290/463/290 292/465/292 284/456/284
f 287/459/287 293/466/293 291/464/291
f 284/456/284 292/465/292 285/457/285
f 294/467/294 293/466/293 287/459/287
f 287/459/287 175/460/175 294/467/294
f 294/467/294 175/460/175 34/30/34
f 175/460/175 35/31/35 34/30/34
f 285/457/285 292/465/292 295/468/295
f 285/457/285 295/468/295 296/469/296
f 177/470/177 297/471/297 35/31/35
f 177/470/177 298/472/298 297/471/297
f 296/469/296 299/473/299 285/457/285
f 178/474/178 285/457/285 299/473/299
f 299/473/299 296/469/296 300/475/300
f 178/474/178 301/476/301 177/470/177
f 299/473/299 301/476/301 178/474/178
f 177/470/177 301/476/301 298/472/298
f 301/476/301 299/473/299 300/475/300
f 298/472/298 301/476/301 302/477/302
f 301/476/301 300/475/300 302/477/302
f 303/478/303 304/479/304 305/480/305
f 306/481/306 304/479/304 303/478/303
f 306/481/306 307/482/307 304/479/304
f 308/483/308 307/482/307 306/481/306
f 306/481/306 309/484/309 308/483/308
f 303/478/303 310/485/310 306/481/306
f 310/485/310 309/484/309 306/481/306
f 310/485/310 303/478/303 311/486/311
f 310/485/310 312/487/312 309/484/309
f 310/485/310 311/486/311 313/488/313
f 310/485/310 313/488/313 312/487/312
f 304/489/304 314/490/314 305/491/305
f 315/492/315 314/490/314 304/489/304
f 304/489/304 307/493/307 315/492/315
f 307/493/307 308/494/308 315/492/315
f 308/494/308 309/495/309 315/492/315
f 316/496/316 314/490/314 315/492/315
f 309/495/309 316/496/316 315/492/315
f 314/490/314 316/496/316 311/497/311
f 316/496/316 309/495/309 312/498/312
f 311/497/311 316/496/316 313/499/313
f 316/496/316 312/498/312 313/499/313
f 165/500/165 265/501/265 164/502/164
f 164/502/164 285/503/285 178/504/178
f 317/505/317 164/502/164 265/501/265
f 317/505/317 285/503/285 164/502/164
f 317/505/317 265/501/265 33/506/33
f 40/507/40 285/503/285 317/505/317
f 317/505/317 33/506/33 32/508/32
f 317/505/317 41/509/41 40/507/40
f 32/508/32 127/510/127 317/505/317
f 317/505/317 141/511/141 41/509/41
f 318/512/318 317/505/317 127/510/127
f 141/511/141 317/505/317 318/512/318
f 138/513/138 140/514/140 135/515/135
f 135/515/135 140/514/140 319/516/319
f 135/515/135 319/516/319 132/517/132
f 132/517/132 128/518/128 130/519/130
f 319/516/319 128/518/128 132/517/132
f 319/516/319 140/514/140 320/520/320
f 320/520/320 128/518/128 319/516/319
f 141/521/141 320/520/320 140/514/140
f 127/522/127 128/518/128 320/520/320
f 318/523/318 320/520/320 141/521/141
f 318/523/318 127/522/127 320/520/320
f 156/524/156 154/525/154 263/526/263
f 321/527/321 263/526/263 154/525/154
f 154/525/154 151/528/151 321/527/321
f 322/529/322 263/526/263 321/527/321
f 321/527/321 151/528/151 323/530/323
f 323/530/323 322/529/322 321/527/321
f 149/531/149 323/530/323 151/528/151
f 263/526/263 322/529/322 324/532/324
f 263/526/263 324/532/324 32/533/32
f 324/532/324 261/534/261 32/533/32
f 325/535/325 324/532/324 322/529/322
f 324/532/324 325/535/325 261/534/261
f 325/535/325 322/529/322 323/530/323
f 261/534/261 325/535/325 260/536/260
f 326/537/326 323/530/323 149/531/149
f 147/538/147 326/537/326 149/531/149
f 180/539/180 326/537/326 147/538/147
f 326/537/326 180/539/180 327/540/327
f 327/540/327 323/530/323 326/537/326
f 328/541/328 327/540/327 180/539/180
f 327/540/327 329/542/329 323/530/323
f 327/540/327 328/541/328 329/542/329
f 325/535/325 323/530/323 329/542/329
f 330/543/330 329/542/329 328/541/328
f 329/542/329 331/544/331 325/535/325
f 331/544/331 329/542/329 330/543/330
f 331/544/331 260/536/260 325/535/325
f 332/545/332 331/544/331 330/543/330
f 331/544/331 333/546/333 260/536/260
f 333/546/333 331/544/331 332/545/332
f 283/547/283 172/548/172 173/549/173
f 283/547/283 334/550/334 172/548/172
f 172/548/172 334/550/334 170/551/170
f 335/552/335 334/550/334 283/547/283
f 170/551/170 334/550/334 336/553/336
f 335/552/335 336/553/336 334/550/334
f 336/553/336 169/554/169 170/551/170
f 337/555/337 335/552/335 283/547/283
f 283/547/283 41/556/41 337/555/337
f 41/556/41 255/557/255 337/555/337
f 335/552/335 337/555/337 338/558/338
f 338/558/338 337/555/337 255/557/255
f 336/553/336 335/552/335 338/558/338
f 255/557/255 254/559/254 338/558/338
f 339/560/339 169/554/169 336/553/336
f 169/554/169 339/560/339 168/561/168
f 168/561/168 339/560/339 180/562/180
f 340/563/340 180/562/180 339/560/339
f 339/560/339 336/553/336 340/563/340
f 328/564/328 180/562/180 340/563/340
f 336/553/336 341/565/341 340/563/340
f 341/565/341 328/564/328 340/563/340
f 336/553/336 338/558/338 341/565/341
f 341/565/341 330/566/330 328/564/328
f 342/567/342 341/565/341 338/558/338
f 342/567/342 330/566/330 341/565/341
f 338/558/338 254/559/254 342/567/342
f 342/567/342 332/568/332 330/566/330
f 254/559/254 333/569/333 342/567/342
f 333/569/333 332/568/332 342/567/342
f 343/570/343 259/571/259 260/572/260
f 333/573/333 343/570/343 260/572/260
f 259/571/259 343/570/343 257/574/257
f 343/570/343 333/573/333 254/575/254
f 257/574/257 343/570/343 250/576/250
f 254/575/254 253/577/253 343/570/343
f 250/576/250 343/570/343 251/578/251
f 343/570/343 253/577/253 251/578/251
