mtllib pm0285_00_00_lod1.mtl
v -0.0464663 0.1995907 0.1849357
vt 0.4095998 1.115237
vn -0.2401123 0.3078613 0.9204102
v -0.03254683 0.2296787 0.1731543
vt 0.4470314 1.165892
vn -0.2244873 0.3557129 0.9067383
v -0.03697765 0.2274752 0.1775501
vt 0.437392 1.16708
vn -0.08325195 0.2910156 0.9526367
v 0.0464663 0.1995907 0.1849357
vt 0.6073955 1.097541
vn 0.2401123 0.3078613 0.9204102
v 0.1031338 0.1530217 0.1771641
vt 0.6928453 1.063666
vn 0.4724121 0.4406738 0.7626953
v 0.06848829 0.2349699 0.1670608
vt 0.6128417 1.185335
vn 0.4382324 0.4946289 0.75
v -0.07369392 0.1596915 0.1934444
vt 0.3626019 1.054456
vn -0.2949219 0.5449219 0.784668
v -0.1031338 0.1530217 0.1771641
vt 0.3071547 1.063666
vn -0.4724121 0.4406738 0.7626953
v 0.07369392 0.1596915 0.1934444
vt 0.6373981 1.054456
vn 0.2949219 0.5449219 0.784668
v 0.03254683 0.2296787 0.1731543
vt 0.5529686 1.165892
vn 0.2244873 0.3557129 0.9067383
vt 0.5791213 1.116496
v 0.03697765 0.2274752 0.1775501
vt 0.562608 1.16708
vn 0.08325195 0.2910156 0.9526367
v -9.88779E-06 0.1521539 0.208344
vt 0.5 1.010369
vn 0 0.5410156 0.840332
vt 0.4219002 1.100259
v -2.720418E-05 0.1965118 0.1919821
vt 0.5 1.082849
vn 0 0.329834 0.9438477
v 8.445064E-07 0.2279364 0.1831362
vt 0.4975301 1.103089
vn 0.0001071692 0.2995605 0.9536133
v 0.03448093 0.2425377 0.1675511
vt 0.5581048 1.184453
vn 0.34375 -0.8129883 -0.4692383
v 0.02999262 0.2385228 0.1753108
vt 0.5483952 1.177801
vn 0.9926758 -0.04473877 0.1080322
v 0.03127821 0.2415909 0.168379
vt 0.5532726 1.177167
vn 0.5751953 -0.769043 -0.2780762
v 1.120588E-21 0.2066579 0.1247345
vt 0.5 1.539309
vn 0 0.9511719 -0.3081055
v 1.488039E-21 0.1853084 0.1048575
vt 0.5 1.570313
vn 0 0.6811523 -0.7314453
v -0.04634096 0.1859881 0.1277488
vt 0.4432617 1.535639
vn -0.4106445 0.8989258 -0.1507568
v 0.03153298 0.2131396 0.123444
vt 0.8830982 1.94928
vn -0.5737305 -0.7260742 0.3781738
vt 0.8359375 1.984375
vn 0 -0.2814941 0.9594727
v 0.04634096 0.1859881 0.1277488
vt 0.8725314 1.912241
vn -0.8261719 -0.3654785 0.4277344
v -0.03153298 0.2131396 0.123444
vt 0.1169018 1.94928
vn 0.5737305 -0.7260742 0.3779297
vt 0.1274686 1.912241
vn 0.8261719 -0.3654785 0.4277344
vt 0.1640625 1.984375
vt 0.9465675 1.910153
vn -0.6162109 -0.7866211 -0.02934265
v 4.852937E-07 0.2280666 0.1832174
vt 0.9569393 1.984375
vn 0 -0.9995117 -0.02740479
v -0.06848829 0.2349699 0.1670608
vt 0.3871583 1.185335
vn -0.4382324 0.4946289 0.75
vt 0.05343246 1.910153
vn 0.03485107 0.5234375 -0.8510742
v -0.02690423 0.1879533 0.1785767
vt 0.05463147 1.867198
vn -0.196167 0.8154297 -0.543457
v -0.04691858 0.1844598 0.1573295
vt 0.08913803 1.886804
vn -0.3425293 0.9389648 0.004306793
v 0.04691858 0.1844598 0.1573295
vt 0.5588503 1.493546
vn 0.3425293 0.9389648 0.004306793
vt 0.5567383 1.535639
vn 0.4106445 0.8989258 -0.1507568
vt 0.910862 1.886804
vn -0.9980469 -0.05975342 0.01638794
v 0.02690423 0.1879533 0.1785767
vt 0.9453685 1.867198
vn 0.196167 0.8154297 -0.543457
vn -0.03485107 0.5234375 -0.8510742
vt 0.5 1.158959
vn 0 0.420166 0.9072266
vn 0.2529297 0.1143188 0.9604492
v -1.308731E-07 0.1890121 0.1851698
vt 0.9708761 1.845156
vn 0 -0.05691528 -0.9980469
vt 0.9818782 1.85719
vn 0 0.07678223 -0.996582
v 0.03177976 0.2435223 0.1675004
vt 0.6155189 1.521449
vn -0.1380615 -0.3830566 -0.9130859
v 0.03292272 0.2440332 0.1671219
vt 0.6169402 1.52224
vn -0.1380615 -0.3835449 -0.9125977
vt 0.6184731 1.52179
vt 0.6146795 1.51896
v 0.0313343 0.2366062 0.1704389
vt 0.6146016 1.511743
vn 0.9667969 0.1422119 0.2119141
v 0.03126031 0.2392695 0.1693441
vt 0.6145325 1.515706
vn 0.9707031 0.09759521 0.2192383
vt 0.6093149 1.511385
v 0.03155821 0.2339468 0.1715292
vt 0.6150061 1.507792
vn 0.9658203 0.1781006 0.1868896
v 0.03183345 0.2316214 0.1724566
vt 0.6156952 1.504415
vn 0.9609375 0.2724609 -0.04022217
vt 0.6169405 1.501897
vn 0.9448242 0.3022461 -0.1242065
v -0.01754961 0.3620493 -0.02499942
vt 0.1473836 1.040129
vn 0.2819824 0.7949219 0.5366211
v -0.04183065 0.3882754 -0.04098383
vt 0.1692613 1.087793
vn 0.6777344 0.7275391 0.105896
v -0.02874062 0.3623322 0.01061943
vt 0.09351599 1.056314
vn 0.4821777 0.8569336 -0.1800537
v -0.03448093 0.2425377 0.1675511
vt 0.4418952 1.184453
vn -0.34375 -0.8129883 -0.4692383
v -0.03127821 0.2415909 0.168379
vt 0.4467274 1.177167
vn -0.5751953 -0.769043 -0.2780762
v -0.02999262 0.2385228 0.1753108
vt 0.4516048 1.177801
vn -0.9926758 -0.04473877 0.1080322
v -0.02883454 0.3550178 -0.03530351
vt 0.1566575 1.047092
vn 0.6293945 0.1148682 -0.7680664
v -0.02540559 0.3759608 -0.03373824
vt 0.1705755 1.04084
vn -0.7060547 0.5361328 0.4614258
vn -0.9663086 0.142334 0.2128906
v -0.04372849 0.3550419 0.01679683
vt 0.08982956 1.067214
vn -0.442627 0.1629639 -0.8813477
v -0.05335121 0.3884138 0.02780125
vt 0.05601805 1.092896
vn 0.2590332 0.7866211 -0.5595703
v -0.05676423 0.387818 0.01149
vt 0.09961557 1.10625
vn 0.6113281 0.7490234 0.253418
vn 0.2600098 0.2541504 0.9311523
v -0.000101905 0.3606065 0.03231243
vt 0.06180364 1.011719
vn 0.08734131 0.8183594 -0.5678711
v 0.0002561241 0.3766361 0.04336734
vt 0.04169571 1.023698
vn 0.6132813 0.765625 -0.1923828
v 0.002222335 0.3564904 0.04858844
vt 0.05029827 1.011719
vn 0.8710938 0.2009277 0.4470215
v -0.02605672 0.3912092 0.06327064
vt 0.008298337 1.054703
vn 0.2851563 0.9125977 -0.2912598
v -0.06607695 0.3943588 -0.003153748
vt 0.1172154 1.120304
vn 0.4257813 0.8950195 0.1290283
v 1.314661E-05 0.3487475 -0.009445608
vt 0.1235359 1.011719
vn -0.0002748966 0.9848633 0.1716309
v -8.106661E-05 0.3938272 -0.04558785
vt 0.1963568 1.011719
vn -0.0005793571 0.8300781 0.5571289
v 1.298901E-05 0.396954 -0.06482872
vt 0.2211339 1.011719
vn 0.0004618168 0.9868164 0.1604004
v -0.01780404 0.394089 -0.06300794
vt 0.2163725 1.034446
vn -0.4882813 0.8242188 0.2856445
vn -0.2529297 0.1143188 0.9604492
vt 0.4411497 1.493546
vt 0.01812199 1.85719
vt 0.0291239 1.845156
vn 0.6162109 -0.7866211 -0.02935791
vt 0.04306066 1.984375
vn 0.9980469 -0.05975342 0.01638794
v -0.03177976 0.2435223 0.1675004
vt 0.3844811 1.521449
vn 0.1380615 -0.3830566 -0.9130859
vt 0.381527 1.52179
v -0.03292272 0.2440332 0.1671219
vt 0.3830598 1.52224
vn 0.1380615 -0.3835449 -0.9125977
vt 0.3853206 1.51896
v -0.0313343 0.2366062 0.1704389
vt 0.3853984 1.511743
vn -0.9667969 0.1422119 0.2119141
vt 0.3906851 1.511385
v -0.03126031 0.2392695 0.1693441
vt 0.3854675 1.515706
vn -0.9707031 0.09759521 0.2192383
v -0.03155821 0.2339468 0.1715292
vt 0.3849939 1.507792
vn -0.9658203 0.1781006 0.1868896
v -0.03183345 0.2316214 0.1724566
vt 0.3843048 1.504415
vn -0.9609375 0.2724609 -0.04022217
vt 0.3830595 1.501897
vn -0.9448242 0.3022461 -0.1242065
v 0.02874062 0.3623322 0.01061943
vt 0.906484 1.056314
vn -0.4819336 0.8569336 -0.180542
v 0.04183065 0.3882754 -0.04098383
vt 0.8307387 1.087793
vn -0.6777344 0.7275391 0.105896
v 0.01754961 0.3620493 -0.02499942
vt 0.8526164 1.040129
vn -0.2817383 0.7944336 0.5371094
vn -0.6293945 0.1148682 -0.7680664
v 0.02883454 0.3550178 -0.03530351
vt 0.8433425 1.047092
vn 0.9663086 0.142334 0.2128906
v 0.02540559 0.3759608 -0.03373824
vt 0.8294245 1.04084
vn 0.7045898 0.5375977 0.4624023
v 0.05335121 0.3884138 0.02780125
vt 0.9439819 1.092896
vn -0.2590332 0.7866211 -0.5595703
v 0.04372849 0.3550419 0.01679683
vt 0.9101704 1.067214
vn 0.442627 0.1629639 -0.8813477
vn -0.2600098 0.2541504 0.9311523
v 0.05676423 0.387818 0.01149
vt 0.9003844 1.10625
vn -0.6113281 0.7490234 0.253418
vt 0.9381964 1.011719
vn -0.9887695 -0.09100342 0.1181641
vt 0.9497017 1.011719
vn -0.8046875 0.05407715 0.590332
v -0.0002561241 0.3766361 0.04336734
vt 0.9583043 1.023698
vn -0.6313477 0.7539063 -0.1793213
v 0.02605672 0.3912092 0.06327064
vt 0.9917017 1.054703
vn -0.2851563 0.9125977 -0.2912598
v 0.06607695 0.3943588 -0.003153748
vt 0.8827846 1.120304
vn -0.4257813 0.8950195 0.1290283
vt 0.8764641 1.011719
vt 0.8036432 1.011719
v 0.01780404 0.394089 -0.06300794
vt 0.7836275 1.034446
vn 0.4865723 0.824707 0.2878418
vt 0.7788661 1.011719
vt 0.4666417 1.465762
v 3.995715E-21 0.2062078 0.1660886
vt 0.5 1.48912
vn 0 0.9863281 0.1619873
vt 0.4999999 1.459523
vn 0 0.7426758 0.6694336
vt 0.533358 1.465762
v 0.03845815 0.2380565 0.1733758
vt 0.5644057 1.178584
vn 0.1716309 0.6000977 0.7807617
v 0.03539356 0.2315983 0.171931
vt 0.5606074 1.172639
vn -0.8295898 0.3015137 0.4692383
v -2.42128E-07 0.2209116 0.1214599
vt 0.8858434 1.984375
vn 0 -0.890625 0.4541016
v -0.03539356 0.2315983 0.171931
vt 0.4393926 1.172639
vn 0.8295898 0.3015137 0.4692383
v -0.03845815 0.2380565 0.1733758
vt 0.4355943 1.178584
vn -0.1716309 0.6000977 0.7807617
vt 0.1141566 1.984375
v 0.02944493 0.2507113 0.1726602
vt 0.5465038 1.200863
vn 0.1947021 0.6044922 0.7719727
v 4.395518E-07 0.2916033 0.1444812
vt 0.500004 1.287683
vn 0 0.7709961 0.6367188
v -0.02944493 0.2507113 0.1726602
vt 0.4534962 1.200863
vn -0.1947021 0.6044922 0.7719727
v -1.361856E-05 0.3309089 0.07526069
vt 0.5000013 1.415778
vn 0 0.8730469 0.4875488
v -0.05287103 0.3323171 0.05672328
vt 0.3971004 1.43681
vn -0.3059082 0.8305664 0.4643555
v 0.05287103 0.3323171 0.05672328
vt 0.6029139 1.43681
vn 0.3056641 0.8305664 0.4643555
v -0.0969067 0.2947372 0.1007552
vt 0.3580984 1.326849
vn -0.4912109 0.7348633 0.4667969
v -0.07862668 0.3294038 -0.0009416628
vt 0.2902008 1.492788
vn -0.5107422 0.8442383 0.1601563
v -0.1386897 0.293899 -8.723762E-05
vt 0.1935029 1.41966
vn -0.6582031 0.7519531 -0.008102417
v 0.0969067 0.2947372 0.1007552
vt 0.6419064 1.326849
vn 0.4912109 0.7348633 0.4667969
v 0.07862668 0.3294038 -0.0009416628
vt 0.7098039 1.492788
vn 0.5063477 0.855957 -0.1008301
v 0.1386897 0.293899 -8.723743E-05
vt 0.806495 1.41966
vn 0.6582031 0.7519531 -0.008102417
v -0.1590346 0.236907 0.08905239
vt 0.2274801 1.253819
vn -0.8334961 0.463623 0.2998047
v -0.1872399 0.2336325 0.0004001397
vt 0.1126397 1.331217
vn -0.8823242 0.470459 0.003198624
v -0.1312625 0.1596118 0.1588203
vt 0.2614658 1.093145
vn -0.5932617 0.4990234 0.6313477
v -0.1770858 0.1525229 0.1014997
vt 0.154156 1.135863
vn -0.7275391 0.4831543 0.486084
v -0.2053278 0.1526954 -0.0001245773
vt 0.02343542 1.242184
vn -0.8706055 0.4916992 0.006607056
v -0.1930398 0.159249 0.0727357
vt 0.1152418 1.171266
vn -0.8081055 0.5283203 0.2595215
v 0.1590346 0.236907 0.08905239
vt 0.7725205 1.253819
vn 0.8334961 0.463623 0.2998047
v 0.1872399 0.2336325 0.0004001397
vt 0.8873603 1.331217
vn 0.8823242 0.470459 0.003198624
v 0.1312625 0.1596118 0.1588203
vt 0.7385342 1.093145
vn 0.5932617 0.4990234 0.6313477
v 0.1770858 0.1525229 0.1014997
vt 0.845844 1.135863
vn 0.7275391 0.4831543 0.486084
v 0.2053278 0.1526954 -0.0001245773
vt 0.9765646 1.242184
vn 0.8706055 0.4916992 0.006607056
v 0.1930398 0.159249 0.0727357
vt 0.8847582 1.171266
vn 0.8081055 0.5283203 0.2595215
vt 0.6216594 1.498079
v 0.03374733 0.2291524 0.1731953
vt 0.61855 1.501385
vn 0.1328125 0.9536133 0.2687988
vn 0.3991699 0.9150391 0.05627441
v 0.03489136 0.2296656 0.1728134
vt 0.6200305 1.502265
vn -0.5913086 0.6000977 0.5380859
vt 0.6207476 1.504907
vt 0.6259324 1.512538
v 0.03541283 0.2339226 0.1709607
vt 0.6208962 1.508311
vn -0.7822266 0.2421875 0.5732422
v 0.03532344 0.2365535 0.1697842
vt 0.6207879 1.512254
vn -0.7788086 0.2019043 0.5932617
v 0.03511584 0.2392473 0.1687983
vt 0.6204375 1.515927
vn -0.7797852 0.1582031 0.6049805
vt 0.6197867 1.519465
vn -0.78125 0.1525879 0.6044922
v -0.03374733 0.2291524 0.1731953
vt 0.38145 1.501385
vn -0.1328125 0.9536133 0.2687988
vt 0.3783406 1.498079
vn -0.3991699 0.9150391 0.05627441
v -0.03489136 0.2296656 0.1728134
vt 0.3799695 1.502265
vn 0.5913086 0.6000977 0.5380859
vt 0.3792524 1.504907
v -0.03541283 0.2339226 0.1709607
vt 0.3791038 1.508311
vn 0.7822266 0.2421875 0.5732422
vt 0.3740676 1.512538
v -0.03532344 0.2365535 0.1697842
vt 0.3792121 1.512254
vn 0.7788086 0.2019043 0.5932617
v -0.03511584 0.2392473 0.1687983
vt 0.3795625 1.515927
vn 0.7797852 0.1582031 0.6049805
vt 0.3802133 1.519465
vn 0.78125 0.1525879 0.6044922
vt 0.1235754 1.689353
v -0.1934577 0.1595153 -0.07270381
vt 0.1297753 1.850966
vn -0.8334961 0.4672852 -0.2939453
vt 0.03124828 1.777345
v -0.1359576 0.2341141 -0.1306523
vt 0.2943276 1.808105
vn -0.6796875 0.4694824 -0.5629883
v -0.1770148 0.1525626 -0.1015414
vt 0.1675925 1.891397
vn -0.7436523 0.4428711 -0.5004883
vt 0.2114101 1.597367
vt 0.2904805 1.521383
v -0.05335684 0.3320108 -0.05576218
vt 0.3779673 1.57791
vn -0.3945313 0.8569336 -0.3308105
v -0.09285302 0.2969315 -0.101281
vt 0.3600387 1.686575
vn -0.4155273 0.6884766 -0.59375
v 2.142076E-05 0.3318994 -0.07720774
vt 0.5 1.609928
vn 0 0.8378906 -0.5449219
v -0.1316547 0.1602576 -0.1591594
vt 0.2780846 1.934245
vn -0.5844727 0.4475098 -0.6762695
v -0.1032675 0.1537323 -0.1766524
vt 0.3261186 1.958985
vn -0.3657227 0.5004883 -0.7841797
v -0.07380539 0.1584725 -0.1926894
vt 0.3793719 1.964815
vn -0.2680664 0.4812012 -0.8339844
v -1.011755E-06 0.2361804 -0.1809604
vt 0.4999945 1.842851
vn 0 0.559082 -0.8286133
v 5.76556E-07 0.1523386 -0.2082798
vt 0.5 1.988281
vn 0 0.4846191 -0.8745117
v 0.07380539 0.1584725 -0.1926894
vt 0.6206281 1.964815
vn 0.2680664 0.4812012 -0.8339844
v 1.095459E-07 0.2970737 -0.1305846
vt 0.4999872 1.710686
vn 0 0.6606445 -0.7504883
v 0.09285305 0.2969314 -0.101281
vt 0.6399403 1.686578
vn 0.4155273 0.6884766 -0.59375
v 0.05335684 0.3320108 -0.05576218
vt 0.622033 1.57791
vn 0.3947754 0.8569336 -0.3308105
vt 0.7095193 1.521383
vt 0.7885786 1.597368
v 0.1359581 0.2341134 -0.1306523
vt 0.7056662 1.808107
vn 0.3408203 0.484375 -0.8051758
vt 0.8764258 1.689353
v 0.1316547 0.1602576 -0.1591594
vt 0.7219153 1.934246
vn 0.5844727 0.4475098 -0.6762695
v 0.1032675 0.1537323 -0.1766524
vt 0.6738814 1.958985
vn 0.3657227 0.5004883 -0.7841797
v 0.1770148 0.1525626 -0.1015414
vt 0.8324075 1.891397
vn 0.7436523 0.4428711 -0.5004883
v 0.1934577 0.1595153 -0.07270381
vt 0.8702247 1.850966
vn 0.8334961 0.4672852 -0.2939453
vt 0.9687517 1.777345
vn -0.182251 0.8803711 0.4372559
v -0.0270597 0.2422631 0.1734323
vt 0.4560559 1.185293
vn -0.3125 0.2080078 0.9267578
v 0.0270597 0.2422631 0.1734323
vt 0.5439439 1.185293
vn 0.3125 0.2080078 0.9267578
vn -0.07391357 -0.4753418 0.8764648
v -0.05646723 0.06632502 -0.005682292
vt 0.07672648 1.448241
vn -0.3696289 0.9287109 -0.01422882
v -0.01415047 0.03525364 -0.02632868
vt 0.05306953 1.501704
vn 0.9506836 0.1867676 -0.2460938
v -0.06509067 0.03582274 -0.06144228
vt 0.01216412 1.439501
vn -0.3647461 0.5483398 -0.7519531
v -0.1162852 0.03475378 -0.0265968
vt 0.05311751 1.377396
vn -0.9052734 0.260498 -0.3349609
v -0.01412671 0.03461006 0.02639367
vt 0.111178 1.501688
vn 0.9677734 0.1170044 0.2220459
v -0.1100051 0.03618469 0.03732123
vt 0.1237328 1.384813
vn -0.8842773 0.4355469 0.1657715
v -0.04344871 0.03498603 0.06165095
vt 0.1517416 1.46481
vn 0.4953613 0.1276855 0.8588867
v 0.01415047 0.03525364 -0.02632868
vt 0.9469305 1.501704
vn -0.9506836 0.1867676 -0.2460938
v 0.05646723 0.06632502 -0.005682292
vt 0.9232736 1.448241
vn -0.2680664 0.9145508 0.3012695
v 0.06509067 0.03582274 -0.06144228
vt 0.9878359 1.439501
vn 0.3647461 0.5483398 -0.7519531
v 0.1162852 0.03475378 -0.0265968
vt 0.9468825 1.377396
vn 0.9052734 0.260498 -0.3349609
v 0.01412671 0.03461006 0.02639367
vt 0.888822 1.501688
vn -0.9677734 0.1170044 0.2220459
v 0.1100051 0.03618469 0.03732123
vt 0.8762673 1.384813
vn 0.5200195 0.5581055 0.6459961
v 0.04344871 0.03498603 0.06165095
vt 0.8482584 1.46481
vn -0.4953613 0.1276855 0.8588867
vt 0.05306953 1.52564
v -0.06042458 0.0030596 -0.03943618
vt 0.04949793 1.584285
vn 0.5874023 -0.7119141 -0.3840332
vt 0.01216412 1.587843
vt 0.05311751 1.649948
v -0.03454728 0.001761791 0.03738621
vt 0.1124478 1.563207
vn 0 -1.000122 0
vt 0.111178 1.525656
v -0.1118732 0.008906915 0.02410712
vt 0.1030571 1.627155
vn -0.7807617 -0.6152344 0.1043701
vt 0.1237328 1.642531
vt 0.1517416 1.562533
v -0.08490924 0.008828537 0.05632067
vt 0.1289479 1.604475
vn -0.2224121 -0.6435547 0.7319336
vt 0.9878359 1.587843
v 0.06042458 0.0030596 -0.03943618
vt 0.950502 1.584285
vn 0.3083496 -0.5927734 -0.7436523
vt 0.9469305 1.52564
vt 0.9468825 1.649948
v 0.03454728 0.001761791 0.03738621
vt 0.8875522 1.563207
vt 0.888822 1.525656
v 0.1118732 0.008906915 0.02410712
vt 0.8969429 1.627155
vn 0.7807617 -0.6152344 0.1043701
vt 0.8762673 1.642531
vt 0.8482584 1.562533
v 0.08490924 0.008828537 0.05632067
vt 0.8710521 1.604475
vn 0.2224121 -0.6435547 0.7319336
o pm0285_00_00_body_mesh_shape_lod1_body_b
g polygon_0
usemtl body_b
f 1/1/1 2/2/2 3/3/3
f 4/4/4 5/5/5 6/6/6
f 7/7/7 1/1/1 8/8/8
f 9/9/9 5/5/5 4/4/4
f 10/10/10 4/11/4 11/12/11
f 9/9/9 4/4/4 12/13/12
f 7/7/7 12/13/12 1/14/1
f 1/14/1 13/15/13 14/16/14
f 4/4/4 14/16/14 13/15/13
f 15/17/15 16/18/16 17/19/17
f 18/20/18 19/21/19 20/22/20
f 21/23/21 19/24/22 22/25/23
f 23/26/24 20/27/25 19/28/22
f 21/23/21 4/29/26 24/30/27
f 4/4/4 6/6/6 11/12/11
f 8/8/8 1/1/1 25/31/28
f 1/32/29 26/33/30 27/34/31
f 18/20/18 28/35/32 22/36/33
f 4/29/26 22/25/23 28/37/34
f 29/38/35 4/29/36 28/37/32
f 4/11/4 10/10/10 24/39/37
f 2/2/2 1/1/1 24/39/37
f 16/18/38 24/39/37 10/10/10
f 22/36/33 19/21/19 18/20/18
f 30/40/39 14/41/40 29/38/35
f 29/38/35 14/41/40 4/29/36
f 4/29/26 21/23/21 22/25/23
f 31/42/41 32/43/42 15/44/15
f 17/45/17 31/42/41 15/44/15
f 33/46/43 34/47/44 16/48/16
f 16/48/16 34/47/44 17/45/17
f 16/48/16 35/49/45 33/46/43
f 16/48/16 36/50/46 35/49/45
f 16/48/16 10/51/47 36/50/46
f 37/52/48 38/53/49 39/54/50
f 40/55/51 41/56/52 42/57/53
f 43/58/54 38/53/49 37/52/54
f 37/52/48 44/59/55 43/58/56
f 45/60/57 46/61/58 39/54/50
f 39/54/50 47/62/59 45/60/60
f 48/63/61 49/64/62 50/65/63
f 46/61/58 51/66/64 49/64/62
f 39/54/50 38/53/49 47/62/59
f 52/67/65 47/62/59 38/53/49
f 53/68/66 54/69/67 37/52/48
f 55/70/68 56/71/69 54/69/67
f 24/39/37 42/57/70 2/2/2
f 20/22/20 27/72/31 18/20/18
f 1/32/29 14/73/40 26/33/30
f 26/33/30 14/73/40 30/74/39
f 1/32/71 23/26/24 24/75/27
f 1/32/71 27/34/72 20/27/25
f 1/32/71 20/27/25 23/26/24
f 57/76/73 40/77/51 58/78/74
f 57/76/73 41/79/52 40/77/51
f 59/80/75 42/81/53 60/82/76
f 60/82/76 42/81/53 41/79/52
f 61/83/77 42/81/53 59/80/75
f 62/84/78 42/81/53 61/83/77
f 2/85/79 42/81/53 62/84/78
f 25/31/28 1/1/1 3/3/3
f 63/86/80 64/87/81 65/88/82
f 65/88/83 64/87/81 66/89/83
f 65/88/82 66/89/84 67/90/85
f 63/86/80 68/91/86 69/92/87
f 63/86/80 69/92/88 70/93/89
f 48/94/90 50/95/91 71/96/92
f 68/91/86 71/96/92 72/97/93
f 64/87/81 63/86/80 70/93/89
f 70/93/89 73/98/94 64/87/81
f 53/99/66 65/88/82 54/100/67
f 54/100/67 74/101/95 55/102/68
f 27/72/31 26/103/30 75/104/96
f 75/104/96 26/103/30 30/105/97
f 75/104/96 28/35/32 18/20/18
f 18/20/18 27/72/31 75/104/96
f 75/104/96 29/106/35 28/35/32
f 30/105/97 29/106/35 75/104/96
f 12/13/12 4/4/4 13/15/13
f 13/15/13 1/14/1 12/13/12
f 11/12/11 76/107/98 77/108/99
f 11/12/11 6/6/6 76/107/98
f 21/23/21 24/30/27 78/109/100
f 21/23/21 78/109/100 19/24/22
f 39/54/50 53/68/66 37/52/48
f 53/68/66 39/54/50 48/63/61
f 39/54/50 49/64/62 48/63/61
f 49/64/62 39/54/50 46/61/58
f 37/52/48 54/69/67 44/59/55
f 44/59/55 54/69/67 56/71/69
f 3/3/3 79/110/101 80/111/102
f 80/111/102 25/31/28 3/3/3
f 24/75/27 23/26/24 78/112/100
f 23/26/24 19/28/22 78/112/100
f 53/99/66 63/86/80 65/88/82
f 53/99/66 48/94/61 63/86/80
f 48/94/61 71/96/92 63/86/80
f 63/86/80 71/96/92 68/91/86
f 54/100/67 65/88/82 67/90/85
f 67/90/85 74/101/95 54/100/67
f 81/113/103 82/114/104 83/115/105
f 82/114/104 84/116/106 85/117/107
f 86/118/108 84/116/106 82/114/104
f 85/117/107 87/119/109 82/114/104
f 85/117/107 88/120/110 87/119/109
f 87/119/109 88/120/110 89/121/111
f 90/122/112 86/118/108 82/114/104
f 90/122/112 91/123/113 86/118/108
f 92/124/114 91/123/113 90/122/112
f 82/114/104 87/119/109 25/31/28
f 6/6/6 90/122/112 82/114/104
f 25/31/28 87/119/109 93/125/115
f 87/119/109 89/121/111 93/125/115
f 25/31/28 93/125/115 8/8/8
f 94/126/116 93/125/115 89/121/111
f 8/8/8 93/125/115 95/127/117
f 96/128/118 95/127/117 93/125/115
f 93/125/115 94/126/116 97/129/119
f 97/129/119 98/130/120 93/125/115
f 98/130/120 96/128/118 93/125/115
f 99/131/121 90/122/112 6/6/6
f 92/124/114 90/122/112 99/131/121
f 5/5/5 99/131/121 6/6/6
f 100/132/122 92/124/114 99/131/121
f 101/133/123 99/131/121 5/5/5
f 102/134/124 99/131/121 101/133/123
f 100/132/122 99/131/121 103/135/125
f 104/136/126 103/135/125 99/131/121
f 99/131/121 102/134/124 104/136/126
f 11/137/11 105/138/127 10/51/128
f 106/139/129 105/138/127 11/137/11
f 77/140/99 106/139/129 11/137/11
f 77/140/99 76/141/98 107/142/130
f 107/142/130 76/141/98 108/143/131
f 76/141/98 109/144/132 108/143/131
f 15/145/133 109/144/132 76/141/98
f 110/146/134 3/147/3 2/85/135
f 111/148/136 3/147/3 110/146/134
f 111/148/136 79/149/101 3/147/3
f 79/149/101 112/150/137 80/151/102
f 80/151/102 112/150/137 113/152/138
f 113/152/138 114/153/139 80/151/102
f 80/151/102 114/153/139 40/154/140
f 94/155/116 115/156/141 97/157/119
f 115/156/141 94/155/116 116/158/142
f 116/158/142 117/159/143 115/156/141
f 94/155/116 89/160/111 116/158/142
f 89/160/111 88/161/110 118/162/144
f 119/163/145 89/160/111 118/162/144
f 116/158/142 89/160/111 119/163/145
f 120/164/146 119/163/145 118/162/144
f 121/165/147 117/159/143 116/158/142
f 122/166/148 121/165/147 123/167/149
f 121/165/147 116/158/142 123/167/149
f 124/168/150 123/167/149 116/158/142
f 116/158/142 119/163/145 124/168/150
f 123/167/149 124/168/150 125/169/151
f 124/168/150 126/170/152 125/169/151
f 127/171/153 119/163/145 120/164/146
f 124/168/150 119/163/145 127/171/153
f 128/172/154 127/171/153 120/164/146
f 127/171/153 128/172/154 124/168/150
f 128/172/154 120/164/146 129/173/155
f 129/173/155 91/174/113 92/175/114
f 129/173/155 92/175/114 128/172/154
f 124/168/150 128/172/154 130/176/156
f 128/172/154 92/175/114 130/176/156
f 126/170/152 124/168/150 130/176/156
f 130/176/156 92/175/114 100/177/122
f 126/170/152 131/178/157 132/179/158
f 130/176/156 131/178/157 126/170/152
f 130/176/156 133/180/159 131/178/157
f 100/177/122 134/181/160 130/176/156
f 130/176/156 134/181/160 133/180/159
f 134/181/160 100/177/122 103/182/125
f 25/31/28 80/111/102 40/55/161
f 25/31/28 83/115/105 82/114/104
f 40/55/161 83/115/105 25/31/28
f 40/55/161 135/183/162 83/115/105
f 135/183/162 40/55/161 42/57/70
f 42/57/70 24/39/37 135/183/162
f 24/39/37 83/115/105 135/183/162
f 24/39/37 81/113/103 83/115/105
f 136/184/163 81/113/103 24/39/37
f 136/184/163 24/39/37 16/18/38
f 15/17/164 136/184/163 16/18/38
f 136/184/163 15/17/164 81/113/103
f 6/6/6 81/113/103 15/17/164
f 6/6/6 15/17/164 76/107/98
f 6/6/6 82/114/104 81/113/103
f 137/185/165 138/186/166 139/187/167
f 140/188/168 137/185/165 139/187/167
f 137/185/165 141/189/169 138/186/166
f 142/190/170 137/185/165 140/188/168
f 143/191/171 141/189/169 137/185/165
f 137/185/165 142/190/170 143/191/171
f 144/192/172 145/193/173 146/194/174
f 145/193/173 147/195/175 146/194/174
f 148/196/176 145/193/173 144/192/172
f 147/195/175 145/193/173 149/197/177
f 145/193/173 148/196/176 150/198/178
f 150/198/178 149/197/177 145/193/173
f 138/199/166 151/200/179 139/201/167
f 139/201/167 151/200/179 140/202/168
f 138/199/166 152/203/180 151/200/179
f 152/203/180 138/199/166 141/204/169
f 140/202/168 151/200/179 153/205/181
f 153/205/181 151/200/179 152/203/180
f 140/202/168 153/205/181 142/206/170
f 143/207/171 152/203/180 141/204/169
f 153/205/181 154/208/182 142/206/170
f 153/205/181 152/203/180 154/208/182
f 154/208/182 143/207/171 142/206/170
f 152/203/180 143/207/171 154/208/182
f 146/209/174 155/210/183 144/211/172
f 146/209/174 147/212/175 155/210/183
f 156/213/180 144/211/172 155/210/183
f 144/211/172 156/213/180 148/214/176
f 147/212/175 157/215/184 155/210/183
f 155/210/183 157/215/184 156/213/180
f 157/215/184 147/212/175 149/216/177
f 150/217/178 148/214/176 156/213/180
f 157/215/184 149/216/177 158/218/185
f 156/213/180 157/215/184 158/218/185
f 150/217/178 158/218/185 149/216/177
f 158/218/185 150/217/178 156/213/180
v -0.01359484 0.09717853 -0.2400126
vt 0.03365356 0.928992
vn 0.4377441 -0.8193359 0.3693848
v -0.03214425 0.1135661 -0.1816652
vt 0.08203125 0.8671875
vn 0.003353119 -0.9990234 0.03341675
v -0.08960608 0.06533789 -0.2549543
vt 0.1247791 0.9809842
vn 0.04779053 -0.8691406 0.4914551
v -0.09747629 0.1177467 -0.1618269
vt 0.1578649 0.8580935
vn -0.3112793 -0.9287109 -0.199707
v -0.1099112 0.1193075 -0.1922426
vt 0.1767712 0.8911795
vn -0.9858398 -0.1358643 -0.09381104
v -0.05670585 0.09067489 -0.2615804
vt 0.07178724 0.0453949
vn -0.217041 0.5371094 -0.8144531
vt 0.01910388 0.07199228
vn 0.5532227 0.2954102 -0.7783203
vt 0.1136351 0.01999998
vn -0.5185547 0.4685059 -0.7148438
vt 0.1514475 0.1523438
vt 0.1609007 0.1098047
v -0.1689343 0.06210123 -0.1992653
vt 0.1140546 0.708988
vn 0.3979492 -0.8808594 0.2556152
vt 0.1459144 0.823718
vn 0.5200195 -0.7988281 0.3012695
v -0.1631486 0.1191204 -0.09502573
vt 0.03431535 0.8252647
vn 0.251709 -0.7978516 0.546875
v -0.1524011 0.08064919 -0.207418
vt 0.1382997 0.7212803
vn 0.1203613 0.1625977 -0.9790039
v -0.1121095 0.119217 -0.1879452
vt 0.1666591 0.7921788
vn 0.6376953 -0.1629639 -0.7524414
vt 0.4296584 0.515625
vt 0.4391116 0.5628906
vt 0.4107521 0.6337891
vt 0.1865761 0.6971383
vn -0.1141357 -0.9638672 -0.239624
v -0.2140891 0.09792288 -0.1086434
vt 0.1818492 0.7661442
vn -0.4355469 0.01406097 -0.8999023
vt 0.1676697 0.6905192
vn 0.2839355 -0.06848145 -0.9560547
v -0.2611207 0.06091151 -0.08057909
vt 0.2338415 0.8275895
vn 0.512207 -0.8510742 0.1140137
v -0.1857236 0.1207546 0.0001232509
vt 0.30474 0.6905192
vn -0.2546387 -0.9604492 0.1114502
v -0.2209983 0.1185556 -0.002026692
vt 0.3219567 0.7330582
vn -0.21521 -0.4345703 0.8745117
v -0.2642953 0.06549933 -0.04994161
vt 0.2705669 0.8196836
vn 0.4526367 -0.8588867 0.237793
vt 0.2219591 0.3542968
vn -0.7851563 0.5527344 -0.2780762
vt 0.2584636 0.3622179
vn -0.8295898 0.5327148 -0.1657715
v -0.2316342 0.1284603 -0.01089823
vt 0.2944492 0.4506488
vn -0.8325195 0.5532227 -0.01779175
v -0.2650927 0.06024004 0.05935312
vt 0.1067181 0.3098489
vn 0.5068359 -0.8432617 -0.1768799
vt 0.06171566 0.1788247
vn 0.4892578 -0.8266602 -0.2763672
v -0.1626312 0.1191862 0.09436035
vt 0.1800798 0.1796482
vn 0.5644531 -0.824707 0.01699829
v -0.2546763 0.08057226 0.02645269
vt 0.06890541 0.2767631
vn -0.4760742 -0.4460449 -0.7573242
v -0.2320427 0.07276656 0.09407215
vt 0.1570808 0.2768027
vn 0.4836426 -0.8623047 0.1488037
v -0.1986597 0.0905587 0.1786078
vt 0.4279537 0.9563673
vn -0.6430664 0.5546875 0.5273438
v -0.19904 0.06038117 0.1840543
vt 0.4246058 0.9894533
vn -0.8056641 0.1149292 0.5805664
v -0.1764362 0.06515804 0.2036854
vt 0.3891352 0.981512
vn -0.4130859 0.4306641 0.8022461
vt 0.2186948 0.5333593
vn 0.3625488 -0.8496094 -0.3825684
vt 0.2691863 0.6624373
vn 0.2739258 -0.8266602 -0.4907227
v -0.09727676 0.1171908 0.1615961
vt 0.1545088 0.662437
vn 0.4726563 -0.8388672 -0.2695313
v -0.2067096 0.08026007 0.1506957
vt 0.2596552 0.5651416
vn -0.8217773 -0.4106445 -0.3945313
v -0.1873331 0.1186465 0.1106919
vt 0.2834918 0.6373438
vn -0.7631836 -0.1641846 -0.6245117
vt 0.1856087 0.5380859
vn 0.4538574 -0.8642578 -0.21521
v -0.1357231 0.09831119 0.2013694
vt 0.1430697 0.5948046
vn 0.0002406836 0.182251 0.9829102
v -0.100819 0.1331427 0.1728505
vt 0.1336168 0.6609766
vn 0.7148438 -0.1595459 0.6801758
vt 0.4892647 0.8901954
vt 0.4637846 0.9610938
vt 0.4784652 0.8476563
vt 0.3283748 0.6905242
vt 0.01068258 0.8347179
vn -0.6225586 -0.02018738 0.7817383
v -0.1892805 0.1189122 -0.1121754
vt 0.01540899 0.7921788
vn -0.659668 -0.3151855 0.6816406
vt 0.1761124 0.8347179
vt 0.1883093 0.8533669
vn -0.925293 0.007087708 0.3786621
v 3.010762E-06 0.1145611 -0.1852547
vt 0.04660529 0.8580935
vn 0 -0.9760742 -0.217041
vt 0.0113415 0.8580935
vn 0.9711914 -0.1231079 -0.2021484
vt 0.2878837 0.1221038
v -0.1007835 0.06495801 0.03941675
vt 0.382529 0.28853
vn -0.376709 -0.9257813 -0.02752686
vt 0.2573525 0.2442936
v -0.104112 0.07186335 -0.08776394
vt 0.376482 0.1401424
vn -0.2648926 -0.9125977 -0.3112793
vt 0.3738369 0.03672796
vt 0.09565473 0.6342728
vn -0.515625 -0.5698242 0.6396484
vt 0.03491729 0.6224012
vn -0.7119141 -0.3962402 0.5791016
vt 0.03663558 0.5766909
vn -0.6943359 0.5766602 0.4296875
v 6.728527E-06 0.34819 0.05079864
vt 0.1198559 0.5636574
vn -0.01612854 0.7578125 0.6518555
vt 0.1215415 0.5778492
vn 0.03390503 -0.5571289 0.8295898
vt 0.1217534 0.5985716
vn 0.6674805 0.2470703 0.7016602
vt 0.2651232 0.07594705
vn -0.8041992 -0.5585938 -0.2000732
vt 0.2665675 0.1220309
vn -0.8618164 -0.2739258 0.4257813
vt 0.2498817 0.1385034
vn -0.824707 -0.512207 -0.2374268
vt 0.1865188 0.07473409
vn -0.8037109 -0.5063477 -0.3110352
vt 0.1848624 0.1216722
vn -0.8022461 -0.3903809 -0.4511719
vt 0.4606426 0.6114854
vt 0.4527344 0.5898829
vt 0.4752706 0.5483698
vt 0.5 0.6796875
vn -0.3356934 0.8520508 -0.4006348
vt 0.5393574 0.6114854
vn 0.3356934 0.8520508 -0.4003906
vt 0.1730549 0.02215433
vt 0.2587684 0.008426785
vn -0.5063477 0.855957 -0.1008301
vt 0.1388764 0.5253382
vt 0.2012493 0.1727786
vn 0.4199219 -0.01218414 0.9072266
v -0.1921833 0.1187881 0.108036
vt 0.1965227 0.2105911
vn 0.05648804 -0.1140137 0.9916992
vt 0.2943197 0.6704296
vn -0.5493164 -0.05984497 -0.8330078
vt 0.02985561 0.3303908
vn -0.9682617 -0.04156494 -0.2458496
v -0.1096375 0.0979474 0.2135325
vt 0.02429688 0.4012892
vn -0.9223633 0.2824707 0.2617188
vt 0.01113391 0.3365257
vn -0.9658203 -0.04977417 -0.2524414
vn -0.2363281 -0.9174805 0.3183594
v -0.1020754 0.08700912 0.2428051
vt 0.04320312 0.4296485
vn -0.6396484 -0.7070313 -0.3005371
vn -0.005947113 -0.9370117 -0.3486328
v -0.08156817 0.06032503 0.2593563
vt 0.08101565 0.4627344
vn -0.03546143 -0.8740234 -0.4838867
v -0.007638932 0.1086873 0.209916
vt 0.1491449 0.3599668
vn 0.1768799 -0.859375 -0.4794922
v -2.753731E-06 0.1121527 0.1872003
vt 0.148043 0.3303908
vn 0 -0.9067383 0.4211426
vn 0.9296875 -0.2427979 0.2753906
v -1.533763E-07 0.1392018 0.2110299
vt 0.1802734 0.3398438
vn 0.9008789 -0.1640625 0.401123
vn 0.8925781 -0.2374268 0.3823242
v -0.03499368 0.07241096 0.2470816
vt 0.1284415 0.4273643
vn 0.3449707 -0.8574219 -0.3813477
v -0.05257896 0.06725891 0.2655163
vt 0.1155459 0.4551869
vn 0.2407227 -0.9692383 -0.04135132
vt 0.2318656 0.9882813
vt 0.218081 0.8822065
vn -0.2199707 0.5849609 0.7802734
vt 0.2828612 0.8544317
vn -0.1104126 0.5371094 0.8359375
vt 0.1914455 0.9882813
vt 0.1914455 0.9079297
vt 0.1772656 0.9741015
vt 0.2481643 0.8464844
vn -0.2734375 0.3461914 0.8969727
vn -0.4873047 -0.8310547 0.2666016
vt 0.289599 0.3657821
vn -0.6088867 -0.7080078 0.3571777
vt 0.3762686 0.449182
vt 0.5 0.4726563
vn -0.1685791 -0.9208984 0.3505859
v 0.03214425 0.1135661 -0.1816652
vt 0.9179688 0.8671875
vn -0.003343582 -0.9990234 0.03341675
v 0.01359484 0.09717853 -0.2400126
vt 0.9663464 0.928992
vn -0.4377441 -0.8193359 0.3693848
v 0.08960608 0.06533789 -0.2549543
vt 0.875221 0.9809842
vn -0.04779053 -0.8691406 0.4914551
v 0.09747629 0.1177467 -0.1618269
vt 0.8421351 0.8580935
vn 0.3112793 -0.9287109 -0.1998291
v 0.1099112 0.1193075 -0.1922426
vt 0.8232288 0.8911795
vn 0.9858398 -0.1358643 -0.09381104
vt 0.8863649 0.01999998
vn 0.5185547 0.4685059 -0.7148438
vt 0.9808961 0.07199228
vn -0.5532227 0.2954102 -0.7783203
v 0.05670585 0.09067489 -0.2615804
vt 0.9282128 0.0453949
vn 0.217041 0.5371094 -0.8144531
vt 0.8485525 0.1523438
vt 0.8390993 0.1098047
v 0.1631486 0.1191204 -0.09502573
vt 0.9656847 0.8252647
vn -0.251709 -0.7978516 0.546875
vt 0.8540856 0.823718
vn -0.5200195 -0.7988281 0.3012695
v 0.1689343 0.06210123 -0.1992653
vt 0.8859454 0.708988
vn -0.3979492 -0.8808594 0.2556152
v 0.1121095 0.119217 -0.1879452
vt 0.8333409 0.7921788
vn -0.6376953 -0.1629639 -0.7524414
v 0.1524011 0.08064919 -0.207418
vt 0.8617003 0.7212803
vn -0.1203613 0.1625977 -0.9790039
vt 0.5892479 0.6337891
vt 0.5608884 0.5628906
vt 0.5703416 0.515625
vt 0.8323303 0.6905192
vn -0.2839355 -0.06848145 -0.9560547
v 0.2140891 0.09792288 -0.1086434
vt 0.8181508 0.7661442
vn 0.4355469 0.01406097 -0.8999023
vt 0.8134239 0.6971383
vn 0.1141357 -0.9638672 -0.239624
v 0.2611207 0.06091151 -0.08057909
vt 0.7661585 0.8275895
vn -0.512207 -0.8510742 0.1140137
v 0.1857236 0.1207546 0.0001232509
vt 0.69526 0.6905192
vn 0.2546387 -0.9604492 0.1114502
v 0.2642953 0.06549933 -0.04994161
vt 0.7294331 0.8196836
vn -0.4526367 -0.8588867 0.237793
v 0.2209983 0.1185556 -0.002026692
vt 0.6780433 0.7330582
vn 0.21521 -0.4345703 0.8745117
v 0.2316342 0.1284603 -0.01089823
vt 0.7055508 0.4506488
vn 0.8325195 0.5532227 -0.01779175
vt 0.7415364 0.3622179
vn 0.8295898 0.5327148 -0.1657715
vt 0.7780409 0.3542968
vn 0.7851563 0.5527344 -0.2780762
v 0.1626312 0.1191862 0.09436035
vt 0.8199202 0.1796482
vn -0.5644531 -0.824707 0.01699829
vt 0.9382843 0.1788247
vn -0.4892578 -0.8266602 -0.2763672
v 0.2650927 0.06024004 0.05935312
vt 0.8932819 0.3098489
vn -0.5068359 -0.8432617 -0.1768799
v 0.2546763 0.08057226 0.02645269
vt 0.9310946 0.2767631
vn 0.4760742 -0.4460449 -0.7573242
v 0.2320427 0.07276656 0.09407215
vt 0.8429192 0.2768027
vn -0.4836426 -0.8623047 0.1488037
v 0.19904 0.06038117 0.1840543
vt 0.5753942 0.9894533
vn 0.8056641 0.1149292 0.5805664
v 0.1986597 0.0905587 0.1786078
vt 0.5720463 0.9563673
vn 0.6430664 0.5546875 0.5273438
v 0.1764362 0.06515804 0.2036854
vt 0.6108648 0.981512
vn 0.4130859 0.4306641 0.8022461
v 0.09727676 0.1171908 0.1615961
vt 0.8454912 0.662437
vn -0.4726563 -0.8388672 -0.2695313
vt 0.7308137 0.6624373
vn -0.2739258 -0.8266602 -0.4907227
vt 0.7813052 0.5333593
vn -0.3625488 -0.8496094 -0.3825684
v 0.1873331 0.1186465 0.1106919
vt 0.7165082 0.6373438
vn 0.7631836 -0.1641846 -0.6245117
v 0.2067096 0.08026007 0.1506957
vt 0.7403448 0.5651416
vn 0.8217773 -0.4106445 -0.3945313
vt 0.8143913 0.5380859
vn -0.4538574 -0.8642578 -0.21521
v 0.1357231 0.09831119 0.2013694
vt 0.8569303 0.5948046
vn -0.0002406836 0.182251 0.9829102
v 0.100819 0.1331427 0.1728505
vt 0.8663832 0.6609766
vn -0.7148438 -0.1595459 0.6801758
vt 0.5215348 0.8476563
vt 0.5362154 0.9610938
vt 0.5107353 0.8901954
v 0.1007835 0.06495801 0.03941675
vt 0.617471 0.28853
vn 0.1685791 -0.9208984 0.3505859
vt 0.6237314 0.449182
vn 0.2363281 -0.9174805 0.3183594
vn 0.4873047 -0.8310547 0.2666016
vt 0.7104009 0.3657821
vn 0.6088867 -0.7080078 0.3571777
vt 0.7426475 0.2442936
vt 0.6716253 0.6905242
v 0.1892805 0.1189122 -0.1121754
vt 0.984591 0.7921788
vn 0.659668 -0.3151855 0.6816406
vt 0.9893174 0.8347179
vn 0.6225586 -0.02018738 0.7817383
vt 0.8238876 0.8347179
vt 0.8116907 0.8533669
vn 0.925293 0.007087708 0.3786621
vt 0.9533947 0.8580935
vn -0.9711914 -0.1231689 -0.2020264
vt 0.9886585 0.8580935
vn 0.376709 -0.9257813 -0.02752686
vt 0.7121164 0.1221038
v 0.104112 0.07186335 -0.08776394
vt 0.623518 0.1401424
vn 0.2648926 -0.9125977 -0.3112793
vt 0.6261631 0.03672796
vt 0.9633644 0.5766909
vn 0.6889648 0.6000977 0.4052734
vt 0.9650827 0.6224012
vn 0.7119141 -0.3962402 0.5791016
vt 0.9043453 0.6342728
vn 0.5537109 -0.5415039 0.6318359
vt 0.8861826 0.5766675
vt 0.8801441 0.5636574
vn -0.6396484 0.118042 0.7592773
vt 0.8782466 0.5985716
vt 0.7501183 0.1385034
vn 0.824707 -0.512207 -0.2374268
vt 0.7334325 0.1220309
vn 0.8618164 -0.2739258 0.4257813
vt 0.7348768 0.07594705
vn 0.8041992 -0.5585938 -0.2000732
vt 0.8134812 0.07473409
vn 0.8037109 -0.5063477 -0.3110352
vt 0.8151376 0.1216722
vn 0.8022461 -0.3903809 -0.4511719
vt 0.5247294 0.5483698
vt 0.5472656 0.5898829
vt 0.8269451 0.02215433
vt 0.7412316 0.008426785
v 0.08156817 0.06032503 0.2593563
vt 0.7518357 0.8464844
vn 0.2734375 0.3461914 0.8969727
v 0.1020754 0.08700912 0.2428051
vt 0.781919 0.8822065
vn 0.2199707 0.5849609 0.7802734
v 0.05257896 0.06725891 0.2655163
vt 0.7171388 0.8544317
vn 0.1104126 0.5371094 0.8359375
v 0.1096375 0.0979474 0.2135325
vt 0.8085545 0.9079297
vn 0.9223633 0.2824707 0.2617188
vt 0.8085545 0.9882813
vt 0.8227344 0.9741015
vn 0.9658203 -0.04977417 -0.2524414
vt 0.7681344 0.9882813
vt 0.8611203 0.5253404
v 0.03499368 0.07241096 0.2470816
vt 0.8715585 0.4273643
vn -0.3449707 -0.8574219 -0.3813477
vt 0.9189844 0.4627344
vn 0.03546143 -0.8740234 -0.4838867
vt 0.8844541 0.4551869
vn -0.2407227 -0.9692383 -0.04135132
v 0.007638932 0.1086873 0.209916
vt 0.8508551 0.3599668
vn -0.8925781 -0.2374268 0.3823242
vt 0.8197266 0.3398438
vn -0.9008789 -0.1644287 0.4008789
vt 0.9701444 0.3303908
vn -0.1768799 -0.859375 -0.479248
vt 0.851957 0.3303908
vn -0.9296875 -0.2427979 0.2756348
vt 0.9567969 0.4296485
vn 0.6396484 -0.7070313 -0.3005371
vt 0.9757031 0.4012892
vn 0.005947113 -0.9370117 -0.3486328
vt 0.9888661 0.3365257
vn 0.9682617 -0.04156494 -0.2458496
v 0.1921833 0.1187881 0.108036
vt 0.8034773 0.2105911
vn -0.05648804 -0.1140137 0.9916992
vt 0.7987507 0.1727786
vn -0.4199219 -0.01218414 0.9072266
vt 0.7056803 0.6704296
vn 0.5493164 -0.05984497 -0.8330078
v -0.2190848 0.1188996 0.0024515
vt 0.04527265 0.2105911
vn -0.3286133 -0.1743164 -0.9277344
vt 0.04054423 0.1775092
v -0.2564656 0.06664033 0.08711074
vt 0.1445305 0.3034885
vn -0.7578125 -0.3833008 0.5273438
vt 0.4282909 0.6645916
vt 0.571709 0.6645917
vt -0.01847941 0.5396394
vt 0.06255933 0.5112936
v 0.2190848 0.1188996 0.0024515
vt 0.9547274 0.2105911
vn 0.3286133 -0.1743164 -0.9277344
vt 0.9594558 0.1775092
v 0.2564656 0.06664033 0.08711074
vt 0.8554695 0.3034885
vn 0.7578125 -0.3833008 0.5273438
vt 1.018479 0.5396394
vt 0.9374405 0.5112938
v -0.1994893 0.07288717 -0.1538846
vt 0.05486512 0.7295334
vn 0.06945801 -0.8486328 0.5234375
v -0.2047396 0.06478811 -0.1781058
vt 0.06740129 0.7023741
vn -0.5678711 -0.8203125 -0.05908203
v -0.189608 0.07187615 -0.2027714
vt 0.1004872 0.6929209
vn -0.5029297 0.4528809 -0.7353516
v 0.1994893 0.07288717 -0.1538846
vt 0.9451349 0.7295334
vn -0.06945801 -0.8486328 0.5234375
v 0.2047396 0.06478811 -0.1781058
vt 0.9325987 0.7023741
vn 0.5678711 -0.8203125 -0.05908203
v 0.189608 0.07187615 -0.2027714
vt 0.8995128 0.6929209
vn 0.5029297 0.4528809 -0.7353516
vt 0.1699672 0.4157423
vt 0.2109375 0.4960938
vt 0.167671 0.4960938
vt 0.4578125 0.01171875
v -1.00044E-05 0.07662749 -0.1442948
vt 0.5 0.07320184
vn 0 -0.949707 -0.3120117
vt 0.5 0.01171875
v -0.01198216 0.1278772 0.23296
vt 0.3161842 0.9457421
vn 0.02320862 0.5385742 0.8417969
vt 0.3059773 0.8780961
vt 0.3379688 0.9788281
vt 0.8300328 0.4157423
vt 0.7890625 0.4960938
vt 0.832329 0.4960938
vt 0.5421875 0.01171875
vt 0.6620312 0.9788281
vt 0.6940227 0.8780961
v 0.01198216 0.1278772 0.23296
vt 0.6838158 0.9457421
vn -0.02319336 0.5390625 0.8417969
vt 0.02383029 0.1501678
vt 0.1111456 0.1523438
vt 0.3237891 0.9882813
vt 0.8888544 0.1523438
vt 0.9761697 0.1501678
vt 0.6762109 0.9882813
vn 0 -0.578125 -0.8154297
vn 0 -0.5776367 -0.815918
vt 0.5 0.5426172
vn 0 -0.5361328 -0.84375
vt 0.3023099 0.4960908
vt 0.311764 0.4488281
vn -0.6865234 -0.09112549 0.7211914
vt 0.3445913 0.8476564
vt 0.3493179 0.928008
vt 0.3304117 0.861836
vt 0.3871304 0.8476564
vt 0.6976901 0.4960908
vt 0.688236 0.4488281
vn 0.6865234 -0.09112549 0.7211914
vt 0.6695883 0.861836
vt 0.6506821 0.928008
vt 0.6554087 0.8476564
vt 0.6128696 0.8476564
vt 0.3343359 0.785586
vt 0.3581203 0.7146875
vt 0.3389577 0.8285896
v -0.2616678 0.09064571 0.05452691
vt 0.3932324 0.7194141
vn -0.8222656 0.565918 0.05480957
vt 0.3957813 0.6863281
vn -0.9897461 0.1223755 0.06835938
vt 0.4335938 0.828125
vt 0.4335938 0.6923674
v -0.2460092 0.08686236 0.09735683
vt 0.4451306 0.7187178
vn -0.6767578 0.4616699 0.5727539
vt 0.4762843 0.8281251
vt 0.4572266 0.7146875
vt 0.4808594 0.785586
vt 0.6610423 0.8285896
vt 0.6418797 0.7146875
vt 0.6656641 0.785586
v 0.2616678 0.09064571 0.05452691
vt 0.6067676 0.7194141
vn 0.8222656 0.565918 0.05480957
vt 0.6042187 0.6863281
vn 0.9897461 0.1223755 0.06835938
vt 0.5664063 0.828125
vt 0.5664063 0.6923674
v 0.2460092 0.08686236 0.09735683
vt 0.5548694 0.7187178
vn 0.6767578 0.4616699 0.5727539
vt 0.5237157 0.8281251
vt 0.5427734 0.7146875
vt 0.5191406 0.785586
vt 0.2973146 0.515625
v -0.1948743 0.1278026 -0.1239426
vt 0.3046091 0.5615193
vn -0.7270508 0.6186523 -0.2973633
vt 0.2878615 0.5676171
vt 0.3114942 0.6290625
v -0.2088606 0.08746087 -0.1654683
vt 0.3240805 0.6273412
vn -0.730957 0.5498047 -0.4033203
vt 0.3351271 0.6574218
vt 0.3709923 0.6526953
vt 0.3872733 0.513954
vt 0.3918459 0.6526953
vt 0.7026854 0.515625
vt 0.7121385 0.5676171
v 0.1948743 0.1278026 -0.1239426
vt 0.6953909 0.5615193
vn 0.7270508 0.6186523 -0.2973633
vt 0.6885058 0.6290625
v 0.2088606 0.08746087 -0.1654683
vt 0.6759195 0.6273412
vn 0.730957 0.5498047 -0.4033203
vt 0.6648729 0.6574218
vt 0.6290077 0.6526953
vt 0.6127268 0.513954
vt 0.6081541 0.6526953
v -7.602604E-06 0.03981643 -0.000103817
vt 0.5 0.2422225
vn 0 -0.9916992 -0.126709
o pm0285_00_00_body_mesh_shape_lod1_body_a
g polygon_0
usemtl body_a
f 159/219/186 160/220/187 161/221/188
f 162/222/189 161/221/188 160/220/187
f 163/223/190 161/221/188 162/222/189
f 164/224/191 159/225/192 161/226/193
f 164/224/191 161/226/193 122/227/148
f 122/227/148 161/226/193 163/228/190
f 165/229/194 162/230/195 166/231/196
f 162/230/195 167/232/197 168/233/198
f 122/234/148 168/235/198 167/236/197
f 166/237/199 169/238/200 117/239/201
f 170/240/202 169/238/200 166/237/199
f 166/237/199 171/241/203 170/240/202
f 172/242/204 173/243/205 171/241/203
f 170/240/202 171/241/203 173/243/205
f 170/244/206 173/245/207 174/246/208
f 175/247/209 171/248/210 176/249/211
f 175/247/209 177/250/212 171/248/210
f 176/249/211 178/251/213 175/247/209
f 179/252/214 180/253/215 181/254/216
f 180/255/217 176/256/218 182/257/219
f 176/256/218 183/258/220 184/259/221
f 180/255/217 183/258/220 176/256/218
f 182/257/219 181/260/222 180/255/217
f 182/257/219 185/261/223 181/260/222
f 186/262/224 185/261/223 182/257/219
f 184/263/221 183/264/220 96/265/118
f 97/266/119 172/242/204 171/241/203
f 117/267/225 187/268/226 166/231/196
f 162/230/195 168/233/198 122/269/148
f 122/270/227 163/223/190 162/222/189
f 160/220/187 159/219/186 188/271/228
f 159/219/192 125/272/151 188/271/229
f 166/273/199 189/274/230 171/275/203
f 190/276/231 166/273/199 162/277/189
f 51/278/232 46/279/233 45/280/234
f 191/281/235 50/282/236 45/280/234
f 51/278/232 45/280/234 50/282/236
f 50/282/63 49/283/62 51/278/237
f 45/284/238 47/285/239 52/286/240
f 45/284/238 52/286/240 43/287/241
f 38/288/242 43/287/241 52/286/240
f 43/289/56 44/290/55 56/291/69
f 120/292/146 43/289/243 66/293/244
f 118/294/144 88/295/110 43/287/243
f 88/295/245 45/284/234 43/287/243
f 45/280/234 84/296/106 191/281/235
f 96/297/246 192/298/247 176/249/211
f 176/256/218 184/259/221 96/299/248
f 182/300/249 193/301/250 186/302/251
f 182/300/252 194/303/253 193/301/254
f 182/300/252 195/304/255 194/303/253
f 196/305/256 182/300/252 197/306/257
f 197/306/258 198/307/259 196/305/260
f 182/300/252 199/308/261 195/304/255
f 196/305/256 199/308/261 182/300/252
f 198/307/259 199/308/261 196/305/260
f 200/309/262 195/304/255 199/308/261
f 7/310/7 194/311/263 200/312/264
f 8/313/8 194/311/263 7/310/7
f 8/313/8 193/314/250 194/311/263
f 186/315/251 193/314/250 8/313/8
f 200/312/264 194/311/263 195/316/265
f 189/274/266 176/317/267 171/275/203
f 189/274/266 182/318/252 176/317/267
f 197/319/257 182/318/252 189/274/268
f 201/320/269 202/321/270 203/322/271
f 201/320/269 203/322/271 204/323/272
f 204/323/272 203/322/271 205/324/273
f 203/325/274 202/326/275 206/327/276
f 132/328/158 203/325/274 206/327/276
f 205/329/273 203/325/274 132/328/158
f 207/330/277 204/331/278 208/332/279
f 209/333/280 210/334/281 204/331/278
f 210/335/281 209/336/280 132/337/158
f 133/338/282 211/339/283 207/340/284
f 207/340/284 211/339/283 212/341/285
f 212/341/285 213/342/286 207/340/284
f 213/342/286 214/343/287 215/344/288
f 214/343/287 213/342/286 212/341/285
f 216/345/289 214/346/290 212/347/291
f 217/348/292 213/349/293 218/350/294
f 213/349/293 219/351/295 218/350/294
f 218/350/294 220/352/296 217/348/292
f 221/353/297 222/354/298 223/355/299
f 224/356/300 217/357/301 221/358/302
f 225/359/303 226/360/304 217/357/301
f 217/357/301 226/360/304 221/358/302
f 221/358/302 223/361/305 224/356/300
f 224/356/300 227/362/306 228/363/307
f 223/361/305 227/362/306 224/356/300
f 102/364/124 226/365/304 225/366/303
f 229/367/308 224/368/309 197/319/257
f 229/367/310 217/369/311 224/368/309
f 213/370/286 217/369/311 229/367/310
f 213/342/286 215/344/288 103/371/125
f 207/330/277 230/372/312 133/373/313
f 132/374/158 209/333/280 204/331/278
f 204/323/272 205/324/273 132/375/314
f 188/376/228 202/321/270 201/320/269
f 188/376/315 125/377/151 202/321/275
f 213/370/286 229/367/316 207/378/284
f 207/378/284 231/379/317 204/380/272
f 69/381/318 68/382/319 72/383/320
f 69/381/318 50/384/236 191/385/235
f 72/383/320 50/384/236 69/381/318
f 72/383/321 71/386/92 50/384/91
f 73/387/322 70/388/323 69/389/324
f 69/389/324 66/390/325 73/387/322
f 64/391/326 73/387/322 66/390/325
f 74/392/95 67/393/85 66/293/84
f 129/394/155 66/390/244 91/395/113
f 66/390/244 69/389/318 91/395/113
f 232/396/327 233/397/328 234/398/329
f 233/397/328 235/399/330 5/400/5
f 5/400/5 235/399/330 228/401/331
f 234/398/329 233/397/328 9/402/9
f 9/402/9 233/397/328 5/400/5
f 84/403/106 69/381/318 191/385/235
f 236/404/332 232/405/333 234/406/334
f 237/407/335 236/404/332 198/408/336
f 232/405/333 236/404/332 224/409/309
f 224/409/309 236/404/332 237/407/337
f 197/410/338 237/407/335 198/408/336
f 197/410/257 224/409/309 237/407/337
f 224/409/309 233/411/339 232/405/333
f 235/412/340 233/411/339 224/409/309
f 228/413/331 235/412/330 224/409/341
f 217/348/292 238/414/342 102/415/343
f 102/416/344 225/359/303 217/357/301
f 171/248/210 177/250/212 239/417/345
f 171/248/210 239/417/345 97/418/119
f 192/298/247 178/251/213 176/249/211
f 175/247/209 178/251/213 240/419/346
f 118/420/144 43/289/243 120/292/146
f 120/292/146 66/293/244 129/421/155
f 88/422/110 85/423/107 45/280/234
f 85/423/107 84/296/106 45/280/234
f 241/424/347 219/351/295 213/349/293
f 103/425/125 241/424/347 213/349/293
f 217/348/292 220/352/296 238/414/342
f 242/426/348 220/352/296 218/350/294
f 91/427/113 69/381/318 86/428/108
f 86/428/108 69/381/318 84/403/106
f 187/268/226 243/429/349 166/231/196
f 166/231/196 243/429/349 165/229/194
f 165/229/194 243/429/349 244/430/350
f 165/229/194 244/430/350 245/431/351
f 165/229/194 167/232/197 162/230/195
f 207/330/277 246/432/352 230/372/312
f 208/332/279 246/432/352 207/330/277
f 247/433/353 246/432/352 208/332/279
f 208/332/279 248/434/354 247/433/353
f 204/331/278 210/334/281 208/332/279
f 169/435/200 170/244/206 115/436/141
f 169/435/200 115/436/141 117/437/143
f 96/265/118 183/264/220 179/252/214
f 180/253/215 179/252/214 183/264/220
f 160/438/187 249/439/355 162/277/189
f 249/439/355 160/438/187 188/440/228
f 250/441/356 199/442/261 198/443/259
f 200/312/264 199/442/261 250/441/356
f 212/347/291 211/444/283 134/445/160
f 211/444/283 133/446/159 134/445/160
f 222/354/298 226/365/304 102/364/124
f 226/365/304 222/354/298 221/353/297
f 249/439/355 201/447/269 204/380/272
f 188/440/228 201/447/269 249/439/355
f 198/448/336 236/449/332 251/450/357
f 251/450/357 236/449/332 234/398/329
f 125/451/151 159/225/192 164/224/191
f 123/452/149 125/451/151 164/224/191
f 122/227/148 123/452/149 164/224/191
f 7/310/7 200/312/264 250/441/356
f 12/453/12 7/310/7 250/441/356
f 12/453/12 250/441/356 198/443/259
f 126/454/152 132/328/158 206/327/276
f 125/455/151 126/454/152 206/327/276
f 206/327/276 202/326/275 125/455/151
f 12/456/12 198/448/336 251/450/357
f 251/450/357 9/402/9 12/456/12
f 234/398/329 9/402/9 251/450/357
f 43/289/358 56/291/358 66/293/358
f 66/293/358 56/291/358 74/392/359
f 56/291/358 55/457/360 74/392/359
f 115/436/141 170/244/206 174/246/208
f 174/246/208 97/458/119 115/436/141
f 97/458/119 174/246/208 172/459/204
f 174/246/208 173/245/361 172/459/204
f 8/460/8 185/461/223 186/462/224
f 95/463/117 185/461/223 8/460/8
f 179/252/214 185/461/223 95/463/117
f 96/265/118 179/252/214 95/463/117
f 185/461/223 179/252/214 181/254/216
f 216/345/289 212/347/291 134/445/160
f 103/464/125 216/345/289 134/445/160
f 103/464/125 215/465/288 216/345/289
f 215/465/288 214/346/362 216/345/289
f 228/466/307 227/467/306 5/468/5
f 5/468/5 227/467/306 101/469/123
f 101/469/123 227/467/306 222/354/298
f 222/354/298 102/364/124 101/469/123
f 223/355/299 222/354/298 227/467/306
f 239/470/345 177/471/212 97/472/119
f 97/472/119 177/471/212 252/473/363
f 177/471/212 175/474/364 252/473/363
f 98/475/120 97/472/119 252/473/363
f 252/473/363 175/474/364 240/476/346
f 253/477/365 98/475/120 252/473/363
f 253/477/365 252/473/363 240/476/346
f 96/478/118 98/475/120 253/477/365
f 253/477/365 240/476/346 178/479/213
f 253/477/365 178/479/213 192/480/247
f 96/478/118 253/477/365 192/480/247
f 103/481/125 219/482/295 241/483/347
f 254/484/366 219/482/295 103/481/125
f 254/484/366 218/485/367 219/482/295
f 104/486/126 254/484/366 103/481/125
f 218/485/367 254/484/366 242/487/348
f 104/486/126 255/488/368 254/484/366
f 242/487/348 254/484/366 255/488/368
f 102/489/124 255/488/368 104/486/126
f 220/490/296 242/487/348 255/488/368
f 238/491/342 220/490/296 255/488/368
f 102/489/124 238/491/342 255/488/368
f 117/492/225 256/493/369 187/494/226
f 256/493/369 243/495/349 187/494/226
f 257/496/370 243/495/349 256/493/369
f 257/496/370 244/497/350 243/495/349
f 257/496/370 245/498/351 244/497/350
f 121/499/147 257/496/370 256/493/369
f 257/496/370 121/499/147 245/498/351
f 256/493/369 117/492/143 121/499/147
f 167/236/197 245/498/351 121/499/147
f 122/234/148 167/236/197 121/499/147
f 167/236/197 165/500/194 245/498/351
f 133/501/313 230/502/312 258/503/371
f 230/502/312 246/504/352 258/503/371
f 258/503/371 246/504/352 259/505/372
f 246/504/352 247/506/353 259/505/372
f 247/506/353 248/507/354 259/505/372
f 258/503/371 259/505/372 131/508/157
f 131/508/157 259/505/372 248/507/354
f 133/501/159 258/503/371 131/508/157
f 131/508/157 248/507/354 210/335/281
f 131/508/157 210/335/281 132/337/158
f 248/507/354 208/509/279 210/335/281
f 190/276/231 162/277/189 249/439/355
f 249/439/355 204/380/272 231/379/317
f 231/379/317 190/276/231 249/439/355
f 190/276/231 189/274/266 166/273/199
f 260/510/373 190/276/231 231/379/317
f 190/276/231 260/510/373 189/274/266
f 229/367/316 260/510/373 231/379/317
f 229/367/316 189/274/266 260/510/373
f 207/378/284 229/367/316 231/379/317
f 189/274/266 229/367/316 197/319/257
v 0.03030342 0.2262876 0.173843
vt 0.651864 0.09205902
vn 0.1715088 0.3603516 0.9165039
v 0.03439429 0.2246614 0.1737168
vt 0.5123758 0.03116059
vn 0.1713867 0.3603516 0.9165039
v 0.02818158 0.230004 0.1727792
vt 0.7172003 0.2298518
v 0.03832955 0.2261368 0.1724006
vt 0.3697342 0.08425248
v 0.04008218 0.2297805 0.1706405
vt 0.2968787 0.2182233
v 0.02745656 0.235731 0.1706638
vt 0.7274644 0.4761361
v 0.02732093 0.243226 0.167729
vt 0.7109681 0.7189125
vn 0.157959 0.3571777 0.9204102
v 0.02917403 0.248801 0.1652052
vt 0.6288488 0.9240907
v 0.03310929 0.2502764 0.163889
vt 0.4862078 0.9771869
v 0.03720015 0.2486503 0.1637628
vt 0.3467185 0.9162914
v 0.0396139 0.2429998 0.1655321
vt 0.2761559 0.7068827
v 0.04023343 0.2354909 0.1683677
vt 0.2766902 0.3949593
o pm0285_00_00_eye_mesh_shape_lod1_l_eye
g polygon_0
usemtl l_eye
f 261/511/374 262/512/375 263/513/374
f 264/514/374 265/515/374 262/512/375
f 263/513/374 262/512/375 266/516/374
f 267/517/376 266/516/374 262/512/375
f 268/518/374 267/517/376 262/512/375
f 269/519/374 268/518/374 262/512/375
f 269/519/374 262/512/375 270/520/374
f 270/520/374 262/512/375 271/521/374
f 271/521/374 262/512/375 272/522/374
f 265/515/374 272/522/374 262/512/375
v -0.03832955 0.2261368 0.1724006
vn -0.1715088 0.3603516 0.9165039
v -0.03439429 0.2246614 0.1737168
vn -0.1713867 0.3603516 0.9165039
v -0.04008218 0.2297805 0.1706405
v -0.04023343 0.2354909 0.1683677
vt 0.2748517 0.429261
v -0.0396139 0.2429998 0.1655321
v -0.03720015 0.2486503 0.1637628
v -0.02818158 0.230004 0.1727792
v -0.03030342 0.2262876 0.173843
v -0.02745656 0.235731 0.1706638
vt 0.7275252 0.4417855
vn -0.1824951 0.3649902 0.9125977
v -0.02732093 0.243226 0.167729
vt 0.7156016 0.683309
vn -0.1702881 0.3598633 0.9169922
v -0.02917403 0.248801 0.1652052
v -0.03310929 0.2502764 0.163889
o pm0285_00_00_eye_mesh_shape_lod1_r_eye
g polygon_0
usemtl r_eye
f 273/514/377 274/512/378 275/515/377
f 275/515/377 274/512/378 276/523/377
f 276/523/377 274/512/378 277/521/377
f 277/521/377 274/512/378 278/520/377
f 279/513/377 274/512/378 280/511/377
f 281/524/379 274/512/378 279/513/377
f 282/525/380 274/512/378 281/524/379
f 283/518/377 274/512/378 282/525/380
f 284/519/377 274/512/378 283/518/377
f 278/520/377 274/512/378 284/519/377
