# Blender v2.91.0 OBJ File: ''
# www.blender.org
mtllib oran berry.mtl
o pref_fruit_green.001_pref_fruit_green
v -0.125109 0.677932 0.302041
v 0.000000 0.677932 0.326927
v 0.000000 0.557407 0.427150
v -0.163463 0.557407 0.394635
v -0.231172 0.677932 0.231172
v 0.000000 0.415239 0.462344
v -0.302041 0.557407 0.302041
v -0.302041 0.677932 0.125109
v -0.176931 0.415239 0.427150
v 0.000000 0.273070 0.427150
v -0.394635 0.557407 0.163463
v -0.326927 0.677932 -0.000000
v -0.326927 0.415239 0.326926
v -0.163463 0.273070 0.394635
v 0.000000 0.152546 0.326927
v -0.125109 0.152546 0.302041
v -0.302041 0.273070 0.302041
v -0.231172 0.152546 0.231172
v -0.427150 0.557407 -0.000000
v -0.302041 0.677932 -0.125109
v -0.427150 0.415239 0.176931
v -0.394635 0.273070 0.163463
v -0.302041 0.152546 0.125109
v -0.394635 0.557407 -0.163463
v -0.231172 0.677932 -0.231172
v -0.462344 0.415239 -0.000000
v -0.427150 0.273070 -0.000000
v -0.326927 0.152546 -0.000000
v -0.302041 0.557407 -0.302041
v -0.125109 0.677932 -0.302041
v -0.427150 0.415239 -0.176931
v -0.394635 0.273070 -0.163463
v -0.302041 0.152546 -0.125109
v -0.163463 0.557407 -0.394635
v -0.000000 0.677932 -0.326927
v -0.000000 0.557407 -0.427150
v -0.326927 0.415239 -0.326927
v -0.302041 0.273070 -0.302041
v -0.231172 0.152546 -0.231172
v -0.176931 0.415239 -0.427150
v -0.000000 0.415239 -0.462344
v -0.163463 0.273070 -0.394635
v -0.125109 0.152546 -0.302041
v -0.000000 0.273070 -0.427150
v -0.000000 0.152546 -0.326927
v 0.125109 0.677932 -0.302041
v -0.000000 0.677932 -0.326927
v -0.000000 0.557407 -0.427150
v 0.163463 0.557407 -0.394635
v 0.231172 0.677932 -0.231172
v -0.000000 0.415239 -0.462344
v 0.302040 0.557407 -0.302041
v 0.302041 0.677932 -0.125110
v 0.176931 0.415239 -0.427150
v -0.000000 0.273070 -0.427150
v 0.394635 0.557407 -0.163464
v 0.326927 0.677932 -0.000000
v 0.326926 0.415239 -0.326927
v 0.163463 0.273070 -0.394635
v -0.000000 0.152546 -0.326927
v 0.125109 0.152546 -0.302041
v 0.302040 0.273070 -0.302041
v 0.231172 0.152546 -0.231172
v 0.427150 0.557407 -0.000000
v 0.302041 0.677932 0.125109
v 0.427150 0.415239 -0.176932
v 0.394635 0.273070 -0.163464
v 0.302041 0.152546 -0.125110
v 0.394635 0.557407 0.163463
v 0.231172 0.677932 0.231172
v 0.462344 0.415239 -0.000000
v 0.427150 0.273070 -0.000000
v 0.326927 0.152546 -0.000000
v 0.302041 0.557407 0.302041
v 0.125109 0.677932 0.302041
v 0.427150 0.415239 0.176931
v 0.394635 0.273070 0.163463
v 0.302041 0.152546 0.125109
v 0.163463 0.557407 0.394635
v 0.000000 0.677932 0.326927
v 0.000000 0.557407 0.427150
v 0.326927 0.415239 0.326926
v 0.302041 0.273070 0.302041
v 0.231172 0.152546 0.231172
v 0.176931 0.415239 0.427150
v 0.000000 0.415239 0.462344
v 0.163463 0.273070 0.394635
v 0.125109 0.152546 0.302041
v 0.000000 0.273070 0.427150
v 0.000000 0.152546 0.326927
v -0.000000 0.758464 -0.176931
v -0.125109 0.677932 -0.302041
v -0.000000 0.677932 -0.326927
v -0.067709 0.758464 -0.163463
v 0.000000 0.786743 0.000000
v -0.231172 0.677932 -0.231172
v 0.067709 0.758464 -0.163463
v 0.125109 0.677932 -0.302041
v -0.125109 0.758464 -0.125109
v -0.302041 0.677932 -0.125109
v 0.125109 0.758464 -0.125110
v 0.231172 0.677932 -0.231172
v -0.163463 0.758464 -0.067709
v -0.326927 0.677932 -0.000000
v 0.163463 0.758464 -0.067709
v 0.302041 0.677932 -0.125110
v -0.176931 0.758464 -0.000000
v 0.176931 0.758464 -0.000000
v -0.163463 0.758464 0.067709
v -0.302041 0.677932 0.125109
v 0.326927 0.677932 -0.000000
v -0.231172 0.677932 0.231172
v 0.163463 0.758464 0.067709
v 0.302041 0.677932 0.125109
v -0.125109 0.758464 0.125109
v -0.125109 0.677932 0.302041
v 0.125109 0.758464 0.125109
v 0.231172 0.677932 0.231172
v -0.067709 0.758464 0.163463
v 0.000000 0.677932 0.326927
v 0.067709 0.758464 0.163463
v 0.125109 0.677932 0.302041
v 0.000000 0.758464 0.176931
v -0.000000 0.766119 -0.166393
v -0.062909 0.759096 -0.151875
v -0.000000 0.759096 -0.164389
v -0.063676 0.766119 -0.153727
v -0.116240 0.759096 -0.116240
v 0.063675 0.766119 -0.153727
v 0.062909 0.759096 -0.151875
v -0.117657 0.766119 -0.117657
v -0.151875 0.759096 -0.062909
v 0.117657 0.766119 -0.117657
v 0.116240 0.759096 -0.116240
v -0.153727 0.766119 -0.063676
v -0.164389 0.759096 -0.000000
v 0.153727 0.766119 -0.063676
v 0.151875 0.759096 -0.062909
v -0.166393 0.766119 -0.000000
v -0.151875 0.759096 0.062909
v 0.166393 0.766119 -0.000000
v 0.164389 0.759096 -0.000000
v -0.153727 0.766119 0.063676
v -0.116240 0.759096 0.116240
v 0.153727 0.766119 0.063676
v 0.151875 0.759096 0.062909
v -0.117657 0.766119 0.117657
v -0.062909 0.759096 0.151875
v 0.117657 0.766119 0.117657
v 0.116240 0.759096 0.116240
v -0.063676 0.766119 0.153727
v -0.000000 0.759096 0.164389
v 0.063676 0.766119 0.153727
v 0.062909 0.759096 0.151875
v -0.000000 0.766119 0.166392
v 0.162514 0.771737 -0.000000
v 0.150144 0.771737 0.062192
v 0.114915 0.771737 0.114915
v 0.062192 0.771737 0.150144
v -0.000000 0.771737 0.162514
v -0.062192 0.771737 0.150144
v 0.150144 0.771737 -0.062192
v -0.114915 0.771737 0.114915
v 0.114915 0.771737 -0.114915
v -0.150144 0.771737 0.062192
v 0.062191 0.771737 -0.150144
v -0.162514 0.771737 -0.000000
v -0.000000 0.771737 -0.162514
v -0.150144 0.771737 -0.062192
v -0.062192 0.771737 -0.150144
v -0.114915 0.771737 -0.114915
v 0.080390 0.786995 -0.080391
v 0.043507 0.786995 -0.105035
v -0.000000 0.786995 -0.113689
v -0.043507 0.786995 -0.105035
v -0.080390 0.786995 -0.080390
v -0.105035 0.786995 -0.043507
v 0.105035 0.786995 -0.043507
v -0.113689 0.786995 -0.000000
v 0.113689 0.786995 -0.000000
v -0.105035 0.786995 0.043507
v 0.105035 0.786995 0.043507
v -0.080390 0.786995 0.080390
v 0.080390 0.786995 0.080390
v -0.043507 0.786995 0.105035
v 0.043507 0.786995 0.105035
v -0.000000 0.786995 0.113689
v 0.102033 0.788611 0.042263
v 0.078093 0.788611 0.078093
v 0.042263 0.788611 0.102033
v -0.000000 0.788611 0.110440
v -0.042263 0.788611 0.102033
v -0.078093 0.788611 0.078093
v 0.110440 0.788611 -0.000000
v -0.102033 0.788611 0.042263
v 0.102033 0.788611 -0.042264
v -0.110440 0.788611 -0.000000
v 0.078093 0.788611 -0.078093
v -0.102033 0.788611 -0.042263
v 0.042263 0.788611 -0.102033
v -0.078093 0.788611 -0.078093
v -0.000000 0.788611 -0.110440
v -0.042263 0.788611 -0.102033
v 0.099977 0.791107 -0.041412
v 0.076519 0.791107 -0.076519
v 0.041412 0.791107 -0.099977
v -0.000000 0.791107 -0.108214
v -0.041412 0.791107 -0.099977
v -0.076519 0.791107 -0.076519
v -0.000000 0.831517 -0.090646
v 0.108214 0.791107 -0.000000
v -0.099977 0.791107 -0.041412
v -0.034689 0.831517 -0.083746
v 0.000000 0.873012 0.000000
v -0.064096 0.831517 -0.064096
v 0.034689 0.831517 -0.083746
v 0.064096 0.831517 -0.064096
v 0.083746 0.831517 -0.034689
v 0.090646 0.831517 -0.000000
v -0.083746 0.831517 -0.034689
v 0.083746 0.831517 0.034689
v -0.090646 0.831517 -0.000000
v -0.108214 0.791107 -0.000000
v -0.099977 0.791107 0.041412
v 0.099977 0.791107 0.041412
v -0.083746 0.831517 0.034689
v -0.076519 0.791107 0.076519
v 0.064096 0.831517 0.064096
v 0.076519 0.791107 0.076519
v -0.064096 0.831517 0.064096
v -0.041412 0.791107 0.099977
v 0.034689 0.831517 0.083746
v 0.041412 0.791107 0.099977
v -0.000000 0.791107 0.108214
v -0.034689 0.831517 0.083746
v 0.000000 0.831517 0.090646
v -0.000000 0.152546 -0.326927
v -0.125109 0.152546 -0.302041
v -0.067709 0.072014 -0.163463
v -0.000000 0.072014 -0.176931
v 0.000000 0.043735 0.000000
v 0.125109 0.152546 -0.302041
v -0.125109 0.072014 -0.125109
v -0.231172 0.152546 -0.231172
v 0.067709 0.072014 -0.163463
v 0.231172 0.152546 -0.231172
v -0.163463 0.072014 -0.067709
v -0.302041 0.152546 -0.125109
v 0.125109 0.072014 -0.125110
v 0.302041 0.152546 -0.125110
v -0.176931 0.072014 -0.000000
v -0.326927 0.152546 -0.000000
v 0.163463 0.072014 -0.067709
v -0.163463 0.072014 0.067709
v 0.176931 0.072014 -0.000000
v 0.326927 0.152546 -0.000000
v -0.302041 0.152546 0.125109
v 0.302041 0.152546 0.125109
v -0.125109 0.072014 0.125109
v -0.231172 0.152546 0.231172
v 0.163463 0.072014 0.067709
v 0.231172 0.152546 0.231172
v -0.067709 0.072014 0.163463
v -0.125109 0.152546 0.302041
v 0.125109 0.072014 0.125109
v 0.125109 0.152546 0.302041
v 0.000000 0.072014 0.176931
v 0.000000 0.152546 0.326927
v 0.067709 0.072014 0.163463
vt 0.007915 0.498950
vt 0.007915 0.401612
vt 0.094995 0.401612
vt 0.094995 0.498950
vt 0.176255 0.401612
vt 0.007915 0.583906
vt 0.176255 0.498950
vt 0.254477 0.401612
vt 0.094995 0.583906
vt 0.007915 0.668862
vt 0.254477 0.498950
vt 0.331087 0.401612
vt 0.176255 0.583906
vt 0.094995 0.668862
vt 0.007915 0.766203
vt 0.094995 0.766203
vt 0.176255 0.668862
vt 0.176255 0.766203
vt 0.331087 0.498950
vt 0.406830 0.401612
vt 0.254477 0.583906
vt 0.254477 0.668862
vt 0.254477 0.766203
vt 0.406830 0.498950
vt 0.482107 0.401612
vt 0.331087 0.583906
vt 0.331087 0.668862
vt 0.331087 0.766203
vt 0.482107 0.498950
vt 0.557144 0.401612
vt 0.406830 0.583906
vt 0.406830 0.668862
vt 0.406830 0.766203
vt 0.557144 0.498950
vt 0.632079 0.401612
vt 0.632079 0.498950
vt 0.482107 0.583906
vt 0.482107 0.668862
vt 0.482107 0.766203
vt 0.557144 0.583906
vt 0.632079 0.583906
vt 0.557144 0.668862
vt 0.557144 0.766203
vt 0.632079 0.668862
vt 0.632079 0.766203
vt 0.007915 0.112163
vt 0.007915 0.014825
vt 0.082850 0.014825
vt 0.082850 0.112163
vt 0.157887 0.014825
vt 0.007915 0.197118
vt 0.157887 0.112163
vt 0.233164 0.014825
vt 0.082850 0.197118
vt 0.007915 0.282074
vt 0.233164 0.112163
vt 0.308907 0.014825
vt 0.157887 0.197118
vt 0.082850 0.282074
vt 0.007915 0.379415
vt 0.082850 0.379415
vt 0.157887 0.282074
vt 0.157887 0.379415
vt 0.308907 0.112163
vt 0.385518 0.014825
vt 0.233164 0.197118
vt 0.233164 0.282074
vt 0.233164 0.379415
vt 0.385518 0.112163
vt 0.463741 0.014825
vt 0.308907 0.197118
vt 0.308907 0.282074
vt 0.308907 0.379415
vt 0.463741 0.112163
vt 0.545003 0.014825
vt 0.385518 0.197118
vt 0.385518 0.282074
vt 0.385518 0.379415
vt 0.545003 0.112163
vt 0.632083 0.014825
vt 0.632083 0.112163
vt 0.463741 0.197118
vt 0.463741 0.282074
vt 0.463741 0.379415
vt 0.545003 0.197118
vt 0.632083 0.197118
vt 0.545003 0.282074
vt 0.545003 0.379415
vt 0.632083 0.282074
vt 0.632083 0.379415
vt 0.816016 0.730221
vt 0.748266 0.716745
vt 0.816937 0.639012
vt 0.784021 0.632830
vt 0.816016 0.553182
vt 0.690831 0.678368
vt 0.849712 0.632126
vt 0.883766 0.716745
vt 0.755977 0.614524
vt 0.652453 0.620932
vt 0.877358 0.613222
vt 0.941202 0.678368
vt 0.737072 0.586878
vt 0.638977 0.553182
vt 0.895665 0.585178
vt 0.979580 0.620932
vt 0.730187 0.554102
vt 0.901846 0.552262
vt 0.736368 0.521187
vt 0.652453 0.485432
vt 0.993056 0.553182
vt 0.690830 0.427996
vt 0.894960 0.519486
vt 0.979580 0.485432
vt 0.754675 0.493142
vt 0.748266 0.389619
vt 0.876056 0.491841
vt 0.941202 0.427996
vt 0.782321 0.474238
vt 0.816016 0.376143
vt 0.848012 0.473534
vt 0.883766 0.389619
vt 0.815096 0.467353
vt 0.806803 0.987629
vt 0.759646 0.978266
vt 0.806811 0.980863
vt 0.762232 0.972017
vt 0.719617 0.951641
vt 0.851421 0.972033
vt 0.853996 0.978294
vt 0.724393 0.946847
vt 0.692710 0.911723
vt 0.889308 0.946825
vt 0.894083 0.951631
vt 0.698968 0.909104
vt 0.683017 0.864384
vt 0.914711 0.909027
vt 0.920965 0.911647
vt 0.689830 0.864361
vt 0.692330 0.816778
vt 0.923743 0.864356
vt 0.930531 0.864384
vt 0.698638 0.819384
vt 0.719263 0.776423
vt 0.914987 0.819598
vt 0.921272 0.817026
vt 0.724081 0.781253
vt 0.759599 0.749551
vt 0.889760 0.781574
vt 0.894585 0.776790
vt 0.762189 0.755854
vt 0.807102 0.740227
vt 0.851874 0.756082
vt 0.854502 0.749810
vt 0.807077 0.747033
vt 0.917935 0.864377
vt 0.909628 0.821841
vt 0.885664 0.785699
vt 0.849668 0.761465
vt 0.807102 0.752856
vt 0.764447 0.761228
vt 0.909342 0.906828
vt 0.728233 0.785352
vt 0.885190 0.942743
vt 0.704049 0.821573
vt 0.849175 0.966693
vt 0.695658 0.864301
vt 0.806774 0.975074
vt 0.704308 0.906824
vt 0.764405 0.966653
vt 0.728449 0.942713
vt 0.860126 0.917991
vt 0.835470 0.934262
vt 0.806480 0.939881
vt 0.777557 0.934011
vt 0.753097 0.917551
vt 0.736830 0.893005
vt 0.876702 0.893525
vt 0.730944 0.863958
vt 0.882667 0.864568
vt 0.736861 0.834799
vt 0.877099 0.835518
vt 0.753470 0.810169
vt 0.860833 0.810799
vt 0.778218 0.793816
vt 0.836332 0.794180
vt 0.807320 0.788210
vt 0.874758 0.836473
vt 0.859034 0.812578
vt 0.835351 0.796514
vt 0.807308 0.790743
vt 0.779178 0.796163
vt 0.755259 0.811972
vt 0.880139 0.864554
vt 0.739207 0.835779
vt 0.874373 0.892546
vt 0.733482 0.863950
vt 0.858349 0.916198
vt 0.739160 0.892030
vt 0.834513 0.931926
vt 0.754881 0.915775
vt 0.806488 0.937359
vt 0.778527 0.931686
vt 0.872054 0.891568
vt 0.856582 0.914408
vt 0.833565 0.929598
vt 0.806501 0.934847
vt 0.779498 0.929371
vt 0.756662 0.914008
vt 0.807034 0.910675
vt 0.877621 0.864536
vt 0.741484 0.891065
vt 0.789172 0.907245
vt 0.806849 0.864101
vt 0.773923 0.897266
vt 0.824837 0.907040
vt 0.839896 0.896887
vt 0.849931 0.881751
vt 0.853416 0.863926
vt 0.763510 0.882227
vt 0.849817 0.846119
vt 0.760687 0.864249
vt 0.736009 0.863947
vt 0.741543 0.836760
vt 0.872423 0.837420
vt 0.763925 0.846467
vt 0.757037 0.813771
vt 0.839676 0.831042
vt 0.857239 0.814347
vt 0.773854 0.831306
vt 0.780130 0.798503
vt 0.824533 0.820993
vt 0.834369 0.798837
vt 0.807290 0.793266
vt 0.788890 0.821132
vt 0.806696 0.817510
vt 0.782880 0.112920
vt 0.748827 0.028301
vt 0.816576 0.014825
vt 0.815656 0.106035
vt 0.816576 0.191864
vt 0.884326 0.028301
vt 0.755235 0.131824
vt 0.691391 0.066678
vt 0.848571 0.112216
vt 0.941761 0.066678
vt 0.736928 0.159868
vt 0.653014 0.124113
vt 0.876616 0.130522
vt 0.980139 0.124113
vt 0.730746 0.192784
vt 0.639537 0.191863
vt 0.895520 0.158168
vt 0.737632 0.225559
vt 0.902406 0.190943
vt 0.993616 0.191863
vt 0.653012 0.259613
vt 0.980140 0.259613
vt 0.756536 0.253205
vt 0.691389 0.317049
vt 0.896225 0.223859
vt 0.941763 0.317050
vt 0.784580 0.271512
vt 0.748825 0.355427
vt 0.877917 0.251904
vt 0.884326 0.355428
vt 0.817496 0.277693
vt 0.816576 0.368904
vt 0.850272 0.270808
vn -0.0000 0.4404 0.8978
vn -0.0000 0.7629 0.6465
vn -0.2474 0.7629 0.5973
vn -0.3436 0.4404 0.8294
vn -0.4571 0.7629 0.4571
vn -0.0000 -0.0000 1.0000
vn -0.6348 0.4404 0.6348
vn -0.5973 0.7629 0.2474
vn -0.3827 0.0000 0.9239
vn -0.0000 -0.4404 0.8978
vn -0.8294 0.4404 0.3436
vn -0.6465 0.7629 0.0000
vn -0.7071 0.0000 0.7071
vn -0.3436 -0.4404 0.8294
vn -0.0000 -0.7629 0.6465
vn -0.2474 -0.7629 0.5973
vn -0.6348 -0.4404 0.6348
vn -0.4571 -0.7629 0.4571
vn -0.8978 0.4404 -0.0000
vn -0.5973 0.7629 -0.2474
vn -0.9239 0.0000 0.3827
vn -0.8294 -0.4404 0.3436
vn -0.5973 -0.7629 0.2474
vn -0.8294 0.4404 -0.3436
vn -0.4571 0.7629 -0.4571
vn -1.0000 -0.0000 -0.0000
vn -0.8978 -0.4404 -0.0000
vn -0.6465 -0.7629 0.0000
vn -0.6348 0.4404 -0.6348
vn -0.2474 0.7629 -0.5973
vn -0.9239 0.0000 -0.3827
vn -0.8294 -0.4404 -0.3436
vn -0.5973 -0.7629 -0.2474
vn -0.3436 0.4404 -0.8294
vn -0.0000 0.7629 -0.6465
vn -0.0000 0.4404 -0.8978
vn -0.7071 -0.0000 -0.7071
vn -0.6348 -0.4404 -0.6348
vn -0.4571 -0.7629 -0.4571
vn -0.3827 0.0000 -0.9239
vn -0.0000 -0.0000 -1.0000
vn -0.3436 -0.4404 -0.8294
vn -0.2474 -0.7629 -0.5973
vn -0.0000 -0.4404 -0.8978
vn -0.0000 -0.7629 -0.6465
vn 0.2474 0.7629 -0.5973
vn 0.3436 0.4404 -0.8294
vn 0.4571 0.7629 -0.4571
vn 0.6348 0.4404 -0.6348
vn 0.5973 0.7629 -0.2474
vn 0.3827 0.0000 -0.9239
vn 0.8294 0.4404 -0.3436
vn 0.6465 0.7629 0.0000
vn 0.7071 -0.0000 -0.7071
vn 0.3436 -0.4404 -0.8294
vn 0.2474 -0.7629 -0.5973
vn 0.6348 -0.4404 -0.6348
vn 0.4571 -0.7629 -0.4571
vn 0.8978 0.4404 -0.0000
vn 0.5973 0.7629 0.2474
vn 0.9239 0.0000 -0.3827
vn 0.8294 -0.4404 -0.3436
vn 0.5973 -0.7629 -0.2474
vn 0.8294 0.4404 0.3436
vn 0.4571 0.7629 0.4571
vn 1.0000 0.0000 -0.0000
vn 0.8978 -0.4404 -0.0000
vn 0.6465 -0.7629 0.0000
vn 0.6348 0.4404 0.6348
vn 0.2474 0.7629 0.5973
vn 0.9239 -0.0000 0.3827
vn 0.8294 -0.4404 0.3436
vn 0.5973 -0.7629 0.2474
vn 0.3436 0.4404 0.8294
vn 0.7071 0.0000 0.7071
vn 0.6348 -0.4404 0.6348
vn 0.4571 -0.7629 0.4571
vn 0.3827 0.0000 0.9239
vn 0.3436 -0.4404 0.8294
vn 0.2474 -0.7629 0.5973
vn -0.0000 0.9410 -0.3383
vn -0.1295 0.9410 -0.3125
vn 0.0000 1.0000 -0.0000
vn 0.1295 0.9410 -0.3125
vn -0.2392 0.9410 -0.2392
vn 0.2392 0.9410 -0.2392
vn -0.3125 0.9410 -0.1295
vn 0.3125 0.9410 -0.1295
vn -0.3383 0.9410 -0.0000
vn 0.3383 0.9410 -0.0000
vn -0.3125 0.9410 0.1295
vn 0.3125 0.9410 0.1295
vn -0.2392 0.9410 0.2392
vn 0.2392 0.9410 0.2392
vn -0.1295 0.9410 0.3125
vn 0.1295 0.9410 0.3125
vn -0.0000 0.9410 0.3383
vn -0.0000 -0.2744 -0.9616
vn -0.3680 -0.2744 -0.8884
vn -0.0000 0.1545 -0.9880
vn -0.3781 0.1545 -0.9128
vn -0.6800 -0.2744 -0.6800
vn 0.3781 0.1545 -0.9128
vn 0.3680 -0.2744 -0.8884
vn -0.6986 0.1545 -0.6986
vn -0.8884 -0.2744 -0.3680
vn 0.6986 0.1545 -0.6986
vn 0.6800 -0.2744 -0.6800
vn -0.9128 0.1545 -0.3781
vn -0.9616 -0.2744 0.0000
vn 0.9128 0.1545 -0.3781
vn 0.8884 -0.2744 -0.3680
vn -0.9880 0.1545 -0.0000
vn -0.8884 -0.2744 0.3680
vn 0.9880 0.1545 0.0000
vn 0.9616 -0.2744 -0.0000
vn -0.9128 0.1545 0.3781
vn -0.6800 -0.2744 0.6800
vn 0.9128 0.1545 0.3781
vn 0.8884 -0.2744 0.3680
vn -0.6986 0.1545 0.6986
vn -0.3680 -0.2744 0.8884
vn 0.6986 0.1545 0.6986
vn 0.6800 -0.2744 0.6800
vn -0.3781 0.1545 0.9128
vn -0.0000 -0.2744 0.9616
vn 0.3781 0.1545 0.9128
vn 0.3680 -0.2744 0.8884
vn 0.0000 0.1545 0.9880
vn 0.6181 0.7861 0.0000
vn 0.5711 0.7861 0.2365
vn 0.4371 0.7861 0.4371
vn 0.2365 0.7861 0.5711
vn 0.0000 0.7861 0.6181
vn -0.2365 0.7861 0.5711
vn 0.5711 0.7861 -0.2365
vn -0.4371 0.7861 0.4371
vn 0.4371 0.7861 -0.4371
vn -0.5711 0.7861 0.2365
vn 0.2365 0.7861 -0.5711
vn -0.6181 0.7861 -0.0000
vn -0.0000 0.7861 -0.6181
vn -0.5711 0.7861 -0.2365
vn -0.2365 0.7861 -0.5711
vn -0.4371 0.7861 -0.4371
vn 0.2576 0.9313 -0.2576
vn 0.1394 0.9313 -0.3366
vn 0.0000 0.9313 -0.3643
vn -0.1394 0.9313 -0.3366
vn -0.2576 0.9313 -0.2576
vn -0.3366 0.9313 -0.1394
vn 0.3366 0.9313 -0.1394
vn -0.3643 0.9313 0.0000
vn 0.3643 0.9313 -0.0000
vn -0.3366 0.9313 0.1394
vn 0.3366 0.9313 0.1394
vn -0.2576 0.9313 0.2576
vn 0.2576 0.9313 0.2576
vn -0.1394 0.9313 0.3366
vn 0.1394 0.9313 0.3366
vn -0.0000 0.9313 0.3643
vn 0.5464 0.8064 0.2263
vn 0.4182 0.8064 0.4182
vn 0.2263 0.8064 0.5464
vn 0.0000 0.8064 0.5914
vn -0.2263 0.8064 0.5464
vn -0.4182 0.8064 0.4182
vn 0.5914 0.8064 -0.0000
vn -0.5464 0.8064 0.2263
vn 0.5464 0.8064 -0.2263
vn -0.5914 0.8064 0.0000
vn 0.4182 0.8064 -0.4182
vn -0.5464 0.8064 -0.2263
vn 0.2263 0.8064 -0.5464
vn -0.4182 0.8064 -0.4182
vn -0.0000 0.8064 -0.5914
vn -0.2263 0.8064 -0.5464
vn 0.7728 0.5481 -0.3201
vn 0.5914 0.5481 -0.5914
vn 0.3201 0.5481 -0.7728
vn -0.0000 0.5481 -0.8364
vn -0.3201 0.5481 -0.7728
vn -0.5914 0.5481 -0.5915
vn -0.0000 0.6787 -0.7344
vn 0.8364 0.5481 0.0000
vn -0.7728 0.5481 -0.3201
vn -0.2810 0.6787 -0.6785
vn -0.5193 0.6787 -0.5193
vn 0.2810 0.6787 -0.6785
vn 0.5193 0.6787 -0.5193
vn 0.6785 0.6787 -0.2810
vn 0.7344 0.6787 -0.0000
vn -0.6785 0.6787 -0.2810
vn 0.6785 0.6787 0.2810
vn -0.7344 0.6787 -0.0000
vn -0.8364 0.5481 -0.0000
vn -0.7728 0.5481 0.3201
vn 0.7728 0.5481 0.3201
vn -0.6785 0.6787 0.2810
vn -0.5914 0.5481 0.5914
vn 0.5193 0.6787 0.5193
vn 0.5914 0.5481 0.5914
vn -0.5193 0.6787 0.5193
vn -0.3201 0.5481 0.7728
vn 0.2810 0.6787 0.6785
vn 0.3201 0.5481 0.7728
vn 0.0000 0.5481 0.8364
vn -0.2810 0.6787 0.6785
vn -0.0000 0.6787 0.7344
vn -0.1295 -0.9410 -0.3125
vn -0.0000 -0.9410 -0.3383
vn 0.0000 -1.0000 0.0000
vn -0.2392 -0.9410 -0.2392
vn 0.1295 -0.9410 -0.3125
vn -0.3125 -0.9410 -0.1295
vn 0.2392 -0.9410 -0.2392
vn -0.3383 -0.9410 -0.0000
vn 0.3125 -0.9410 -0.1295
vn -0.3125 -0.9410 0.1295
vn 0.3383 -0.9410 -0.0000
vn -0.2392 -0.9410 0.2392
vn 0.3125 -0.9410 0.1295
vn -0.1295 -0.9410 0.3125
vn 0.2392 -0.9410 0.2392
vn -0.0000 -0.9410 0.3383
vn 0.1295 -0.9410 0.3125
usemtl mat_d_model_fruit_oranberry_lv3
s 1
f 3/1/1 2/2/2 1/3/3
f 4/4/4 3/1/1 1/3/3
f 4/4/4 1/3/3 5/5/5
f 6/6/6 3/1/1 4/4/4
f 7/7/7 4/4/4 5/5/5
f 7/7/7 5/5/5 8/8/8
f 9/9/9 6/6/6 4/4/4
f 9/9/9 4/4/4 7/7/7
f 10/10/10 6/6/6 9/9/9
f 11/11/11 7/7/7 8/8/8
f 11/11/11 8/8/8 12/12/12
f 13/13/13 9/9/9 7/7/7
f 13/13/13 7/7/7 11/11/11
f 14/14/14 10/10/10 9/9/9
f 14/14/14 9/9/9 13/13/13
f 15/15/15 10/10/10 14/14/14
f 16/16/16 15/15/15 14/14/14
f 16/16/16 14/14/14 17/17/17
f 17/17/17 14/14/14 13/13/13
f 18/18/18 16/16/16 17/17/17
f 19/19/19 11/11/11 12/12/12
f 19/19/19 12/12/12 20/20/20
f 21/21/21 13/13/13 11/11/11
f 17/17/17 13/13/13 21/21/21
f 21/21/21 11/11/11 19/19/19
f 18/18/18 17/17/17 22/22/22
f 22/22/22 17/17/17 21/21/21
f 23/23/23 18/18/18 22/22/22
f 24/24/24 19/19/19 20/20/20
f 24/24/24 20/20/20 25/25/25
f 26/26/26 21/21/21 19/19/19
f 22/22/22 21/21/21 26/26/26
f 26/26/26 19/19/19 24/24/24
f 23/23/23 22/22/22 27/27/27
f 27/27/27 22/22/22 26/26/26
f 28/28/28 23/23/23 27/27/27
f 29/29/29 24/24/24 25/25/25
f 29/29/29 25/25/25 30/30/30
f 31/31/31 26/26/26 24/24/24
f 27/27/27 26/26/26 31/31/31
f 31/31/31 24/24/24 29/29/29
f 28/28/28 27/27/27 32/32/32
f 32/32/32 27/27/27 31/31/31
f 33/33/33 28/28/28 32/32/32
f 34/34/34 29/29/29 30/30/30
f 34/34/34 30/30/30 35/35/35
f 36/36/36 34/34/34 35/35/35
f 37/37/37 31/31/31 29/29/29
f 32/32/32 31/31/31 37/37/37
f 37/37/37 29/29/29 34/34/34
f 33/33/33 32/32/32 38/38/38
f 38/38/38 32/32/32 37/37/37
f 39/39/39 33/33/33 38/38/38
f 40/40/40 34/34/34 36/36/36
f 40/40/40 37/37/37 34/34/34
f 38/38/38 37/37/37 40/40/40
f 41/41/41 40/40/40 36/36/36
f 39/39/39 38/38/38 42/42/42
f 42/42/42 38/38/38 40/40/40
f 42/42/42 40/40/40 41/41/41
f 43/43/43 39/39/39 42/42/42
f 44/44/44 42/42/42 41/41/41
f 43/43/43 42/42/42 44/44/44
f 45/45/45 43/43/43 44/44/44
f 48/46/36 47/47/35 46/48/46
f 49/49/47 48/46/36 46/48/46
f 49/49/47 46/48/46 50/50/48
f 51/51/41 48/46/36 49/49/47
f 52/52/49 49/49/47 50/50/48
f 52/52/49 50/50/48 53/53/50
f 54/54/51 51/51/41 49/49/47
f 54/54/51 49/49/47 52/52/49
f 55/55/44 51/51/41 54/54/51
f 56/56/52 52/52/49 53/53/50
f 56/56/52 53/53/50 57/57/53
f 58/58/54 54/54/51 52/52/49
f 58/58/54 52/52/49 56/56/52
f 59/59/55 55/55/44 54/54/51
f 59/59/55 54/54/51 58/58/54
f 60/60/45 55/55/44 59/59/55
f 61/61/56 60/60/45 59/59/55
f 61/61/56 59/59/55 62/62/57
f 62/62/57 59/59/55 58/58/54
f 63/63/58 61/61/56 62/62/57
f 64/64/59 56/56/52 57/57/53
f 64/64/59 57/57/53 65/65/60
f 66/66/61 58/58/54 56/56/52
f 62/62/57 58/58/54 66/66/61
f 66/66/61 56/56/52 64/64/59
f 63/63/58 62/62/57 67/67/62
f 67/67/62 62/62/57 66/66/61
f 68/68/63 63/63/58 67/67/62
f 69/69/64 64/64/59 65/65/60
f 69/69/64 65/65/60 70/70/65
f 71/71/66 66/66/61 64/64/59
f 67/67/62 66/66/61 71/71/66
f 71/71/66 64/64/59 69/69/64
f 68/68/63 67/67/62 72/72/67
f 72/72/67 67/67/62 71/71/66
f 73/73/68 68/68/63 72/72/67
f 74/74/69 69/69/64 70/70/65
f 74/74/69 70/70/65 75/75/70
f 76/76/71 71/71/66 69/69/64
f 72/72/67 71/71/66 76/76/71
f 76/76/71 69/69/64 74/74/69
f 73/73/68 72/72/67 77/77/72
f 77/77/72 72/72/67 76/76/71
f 78/78/73 73/73/68 77/77/72
f 79/79/74 74/74/69 75/75/70
f 79/79/74 75/75/70 80/80/2
f 81/81/1 79/79/74 80/80/2
f 82/82/75 76/76/71 74/74/69
f 77/77/72 76/76/71 82/82/75
f 82/82/75 74/74/69 79/79/74
f 78/78/73 77/77/72 83/83/76
f 83/83/76 77/77/72 82/82/75
f 84/84/77 78/78/73 83/83/76
f 85/85/78 79/79/74 81/81/1
f 85/85/78 82/82/75 79/79/74
f 83/83/76 82/82/75 85/85/78
f 86/86/6 85/85/78 81/81/1
f 84/84/77 83/83/76 87/87/79
f 87/87/79 83/83/76 85/85/78
f 87/87/79 85/85/78 86/86/6
f 88/88/80 84/84/77 87/87/79
f 89/89/10 87/87/79 86/86/6
f 88/88/80 87/87/79 89/89/10
f 90/90/15 88/88/80 89/89/10
f 93/91/35 92/92/30 91/93/81
f 92/92/30 94/94/82 91/93/81
f 91/93/81 94/94/82 95/95/83
f 92/92/30 96/96/25 94/94/82
f 93/91/35 91/93/81 97/97/84
f 97/97/84 91/93/81 95/95/83
f 98/98/46 93/91/35 97/97/84
f 96/96/25 99/99/85 94/94/82
f 94/94/82 99/99/85 95/95/83
f 96/96/25 100/100/20 99/99/85
f 98/98/46 97/97/84 101/101/86
f 101/101/86 97/97/84 95/95/83
f 102/102/48 98/98/46 101/101/86
f 100/100/20 103/103/87 99/99/85
f 99/99/85 103/103/87 95/95/83
f 100/100/20 104/104/12 103/103/87
f 102/102/48 101/101/86 105/105/88
f 105/105/88 101/101/86 95/95/83
f 106/106/50 102/102/48 105/105/88
f 103/103/87 107/107/89 95/95/83
f 104/104/12 107/107/89 103/103/87
f 108/108/90 105/105/88 95/95/83
f 106/106/50 105/105/88 108/108/90
f 107/107/89 109/109/91 95/95/83
f 104/104/12 110/110/8 107/107/89
f 110/110/8 109/109/91 107/107/89
f 111/111/53 106/106/50 108/108/90
f 110/110/8 112/112/5 109/109/91
f 111/111/53 108/108/90 113/113/92
f 113/113/92 108/108/90 95/95/83
f 114/114/60 111/111/53 113/113/92
f 112/112/5 115/115/93 109/109/91
f 109/109/91 115/115/93 95/95/83
f 112/112/5 116/116/3 115/115/93
f 114/114/60 113/113/92 117/117/94
f 117/117/94 113/113/92 95/95/83
f 118/118/65 114/114/60 117/117/94
f 116/116/3 119/119/95 115/115/93
f 115/115/93 119/119/95 95/95/83
f 116/116/3 120/120/2 119/119/95
f 118/118/65 117/117/94 121/121/96
f 121/121/96 117/117/94 95/95/83
f 122/122/70 118/118/65 121/121/96
f 119/119/95 123/123/97 95/95/83
f 120/120/2 123/123/97 119/119/95
f 123/123/97 121/121/96 95/95/83
f 122/122/70 121/121/96 123/123/97
f 120/120/2 122/122/70 123/123/97
f 126/124/98 125/125/99 124/126/100
f 125/125/99 127/127/101 124/126/100
f 125/125/99 128/128/102 127/127/101
f 126/124/98 124/126/100 129/129/103
f 130/130/104 126/124/98 129/129/103
f 128/128/102 131/131/105 127/127/101
f 128/128/102 132/132/106 131/131/105
f 130/130/104 129/129/103 133/133/107
f 134/134/108 130/130/104 133/133/107
f 132/132/106 135/135/109 131/131/105
f 132/132/106 136/136/110 135/135/109
f 134/134/108 133/133/107 137/137/111
f 138/138/112 134/134/108 137/137/111
f 136/136/110 139/139/113 135/135/109
f 136/136/110 140/140/114 139/139/113
f 138/138/112 137/137/111 141/141/115
f 142/142/116 138/138/112 141/141/115
f 140/140/114 143/143/117 139/139/113
f 140/140/114 144/144/118 143/143/117
f 142/142/116 141/141/115 145/145/119
f 146/146/120 142/142/116 145/145/119
f 144/144/118 147/147/121 143/143/117
f 144/144/118 148/148/122 147/147/121
f 146/146/120 145/145/119 149/149/123
f 150/150/124 146/146/120 149/149/123
f 148/148/122 151/151/125 147/147/121
f 148/148/122 152/152/126 151/151/125
f 150/150/124 149/149/123 153/153/127
f 154/154/128 150/150/124 153/153/127
f 152/152/126 154/154/128 155/155/129
f 152/152/126 155/155/129 151/151/125
f 154/154/128 153/153/127 155/155/129
f 145/145/119 141/141/115 156/156/130
f 149/149/123 145/145/119 157/157/131
f 157/157/131 145/145/119 156/156/130
f 153/153/127 149/149/123 158/158/132
f 158/158/132 149/149/123 157/157/131
f 155/155/129 153/153/127 159/159/133
f 159/159/133 153/153/127 158/158/132
f 151/151/125 155/155/129 160/160/134
f 160/160/134 155/155/129 159/159/133
f 147/147/121 151/151/125 161/161/135
f 161/161/135 151/151/125 160/160/134
f 156/156/130 141/141/115 162/162/136
f 141/141/115 137/137/111 162/162/136
f 163/163/137 147/147/121 161/161/135
f 143/143/117 147/147/121 163/163/137
f 162/162/136 137/137/111 164/164/138
f 137/137/111 133/133/107 164/164/138
f 165/165/139 143/143/117 163/163/137
f 139/139/113 143/143/117 165/165/139
f 164/164/138 133/133/107 166/166/140
f 133/133/107 129/129/103 166/166/140
f 167/167/141 139/139/113 165/165/139
f 135/135/109 139/139/113 167/167/141
f 166/166/140 129/129/103 168/168/142
f 129/129/103 124/126/100 168/168/142
f 169/169/143 135/135/109 167/167/141
f 131/131/105 135/135/109 169/169/143
f 168/168/142 124/126/100 170/170/144
f 124/126/100 127/127/101 170/170/144
f 127/127/101 131/131/105 171/171/145
f 171/171/145 131/131/105 169/169/143
f 170/170/144 127/127/101 171/171/145
f 164/164/138 166/166/140 172/172/146
f 166/166/140 168/168/142 173/173/147
f 166/166/140 173/173/147 172/172/146
f 168/168/142 170/170/144 174/174/148
f 168/168/142 174/174/148 173/173/147
f 170/170/144 171/171/145 175/175/149
f 170/170/144 175/175/149 174/174/148
f 171/171/145 169/169/143 176/176/150
f 171/171/145 176/176/150 175/175/149
f 169/169/143 167/167/141 177/177/151
f 169/169/143 177/177/151 176/176/150
f 164/164/138 172/172/146 178/178/152
f 162/162/136 164/164/138 178/178/152
f 167/167/141 179/179/153 177/177/151
f 167/167/141 165/165/139 179/179/153
f 162/162/136 178/178/152 180/180/154
f 156/156/130 162/162/136 180/180/154
f 165/165/139 181/181/155 179/179/153
f 165/165/139 163/163/137 181/181/155
f 156/156/130 180/180/154 182/182/156
f 157/157/131 156/156/130 182/182/156
f 163/163/137 183/183/157 181/181/155
f 163/163/137 161/161/135 183/183/157
f 157/157/131 182/182/156 184/184/158
f 158/158/132 157/157/131 184/184/158
f 161/161/135 185/185/159 183/183/157
f 161/161/135 160/160/134 185/185/159
f 158/158/132 184/184/158 186/186/160
f 159/159/133 158/158/132 186/186/160
f 160/160/134 159/159/133 187/187/161
f 160/160/134 187/187/161 185/185/159
f 159/159/133 186/186/160 187/187/161
f 182/182/156 180/180/154 188/188/162
f 184/184/158 182/182/156 189/189/163
f 182/182/156 188/188/162 189/189/163
f 186/186/160 184/184/158 190/190/164
f 184/184/158 189/189/163 190/190/164
f 187/187/161 186/186/160 191/191/165
f 186/186/160 190/190/164 191/191/165
f 185/185/159 187/187/161 192/192/166
f 187/187/161 191/191/165 192/192/166
f 183/183/157 185/185/159 193/193/167
f 185/185/159 192/192/166 193/193/167
f 180/180/154 194/194/168 188/188/162
f 180/180/154 178/178/152 194/194/168
f 183/183/157 193/193/167 195/195/169
f 181/181/155 183/183/157 195/195/169
f 178/178/152 196/196/170 194/194/168
f 178/178/152 172/172/146 196/196/170
f 181/181/155 195/195/169 197/197/171
f 179/179/153 181/181/155 197/197/171
f 172/172/146 198/198/172 196/196/170
f 172/172/146 173/173/147 198/198/172
f 179/179/153 197/197/171 199/199/173
f 177/177/151 179/179/153 199/199/173
f 173/173/147 200/200/174 198/198/172
f 173/173/147 174/174/148 200/200/174
f 177/177/151 199/199/173 201/201/175
f 176/176/150 177/177/151 201/201/175
f 174/174/148 202/202/176 200/200/174
f 174/174/148 175/175/149 202/202/176
f 175/175/149 176/176/150 203/203/177
f 176/176/150 201/201/175 203/203/177
f 175/175/149 203/203/177 202/202/176
f 196/196/170 198/198/172 204/204/178
f 198/198/172 200/200/174 205/205/179
f 198/198/172 205/205/179 204/204/178
f 200/200/174 202/202/176 206/206/180
f 200/200/174 206/206/180 205/205/179
f 202/202/176 203/203/177 207/207/181
f 202/202/176 207/207/181 206/206/180
f 203/203/177 201/201/175 208/208/182
f 203/203/177 208/208/182 207/207/181
f 201/201/175 199/199/173 209/209/183
f 201/201/175 209/209/183 208/208/182
f 207/207/181 208/208/182 210/210/184
f 207/207/181 210/210/184 206/206/180
f 196/196/170 204/204/178 211/211/185
f 194/194/168 196/196/170 211/211/185
f 199/199/173 212/212/186 209/209/183
f 199/199/173 197/197/171 212/212/186
f 208/208/182 209/209/183 213/213/187
f 208/208/182 213/213/187 210/210/184
f 210/210/184 213/213/187 214/214/83
f 209/209/183 215/215/188 213/213/187
f 209/209/183 212/212/186 215/215/188
f 213/213/187 215/215/188 214/214/83
f 210/210/184 216/216/189 206/206/180
f 216/216/189 210/210/184 214/214/83
f 206/206/180 216/216/189 217/217/190
f 217/217/190 216/216/189 214/214/83
f 205/205/179 206/206/180 217/217/190
f 205/205/179 217/217/190 218/218/191
f 218/218/191 217/217/190 214/214/83
f 204/204/178 205/205/179 218/218/191
f 204/204/178 218/218/191 219/219/192
f 219/219/192 218/218/191 214/214/83
f 211/211/185 204/204/178 219/219/192
f 215/215/188 220/220/193 214/214/83
f 212/212/186 220/220/193 215/215/188
f 221/221/194 219/219/192 214/214/83
f 211/211/185 219/219/192 221/221/194
f 220/220/193 222/222/195 214/214/83
f 212/212/186 223/223/196 220/220/193
f 223/223/196 222/222/195 220/220/193
f 197/197/171 223/223/196 212/212/186
f 197/197/171 195/195/169 223/223/196
f 195/195/169 224/224/197 223/223/196
f 223/223/196 224/224/197 222/222/195
f 195/195/169 193/193/167 224/224/197
f 225/225/198 211/211/185 221/221/194
f 194/194/168 211/211/185 225/225/198
f 188/188/162 194/194/168 225/225/198
f 224/224/197 226/226/199 222/222/195
f 222/222/195 226/226/199 214/214/83
f 193/193/167 227/227/200 224/224/197
f 224/224/197 227/227/200 226/226/199
f 193/193/167 192/192/166 227/227/200
f 225/225/198 221/221/194 228/228/201
f 228/228/201 221/221/194 214/214/83
f 188/188/162 225/225/198 229/229/202
f 229/229/202 225/225/198 228/228/201
f 189/189/163 188/188/162 229/229/202
f 227/227/200 230/230/203 226/226/199
f 226/226/199 230/230/203 214/214/83
f 192/192/166 231/231/204 227/227/200
f 227/227/200 231/231/204 230/230/203
f 192/192/166 191/191/165 231/231/204
f 229/229/202 228/228/201 232/232/205
f 232/232/205 228/228/201 214/214/83
f 189/189/163 229/229/202 233/233/206
f 233/233/206 229/229/202 232/232/205
f 190/190/164 189/189/163 233/233/206
f 191/191/165 190/190/164 234/234/207
f 191/191/165 234/234/207 231/231/204
f 190/190/164 233/233/206 234/234/207
f 231/231/204 235/235/208 230/230/203
f 230/230/203 235/235/208 214/214/83
f 231/231/204 234/234/207 235/235/208
f 236/236/209 232/232/205 214/214/83
f 233/233/206 232/232/205 236/236/209
f 235/235/208 236/236/209 214/214/83
f 234/234/207 236/236/209 235/235/208
f 234/234/207 233/233/206 236/236/209
f 239/237/210 238/238/43 237/239/45
f 240/240/211 239/237/210 237/239/45
f 239/237/210 240/240/211 241/241/212
f 240/240/211 237/239/45 242/242/56
f 239/237/210 243/243/213 238/238/43
f 243/243/213 239/237/210 241/241/212
f 243/243/213 244/244/39 238/238/43
f 245/245/214 240/240/211 242/242/56
f 240/240/211 245/245/214 241/241/212
f 245/245/214 242/242/56 246/246/58
f 243/243/213 247/247/215 244/244/39
f 247/247/215 243/243/213 241/241/212
f 247/247/215 248/248/33 244/244/39
f 249/249/216 245/245/214 246/246/58
f 245/245/214 249/249/216 241/241/212
f 249/249/216 246/246/58 250/250/63
f 247/247/215 251/251/217 248/248/33
f 251/251/217 247/247/215 241/241/212
f 251/251/217 252/252/28 248/248/33
f 253/253/218 249/249/216 250/250/63
f 249/249/216 253/253/218 241/241/212
f 254/254/219 251/251/217 241/241/212
f 251/251/217 254/254/219 252/252/28
f 253/253/218 255/255/220 241/241/212
f 253/253/218 250/250/63 256/256/68
f 255/255/220 253/253/218 256/256/68
f 254/254/219 257/257/23 252/252/28
f 255/255/220 256/256/68 258/258/73
f 254/254/219 259/259/221 257/257/23
f 259/259/221 254/254/219 241/241/212
f 259/259/221 260/260/18 257/257/23
f 261/261/222 255/255/220 258/258/73
f 255/255/220 261/261/222 241/241/212
f 261/261/222 258/258/73 262/262/77
f 259/259/221 263/263/223 260/260/18
f 263/263/223 259/259/221 241/241/212
f 263/263/223 264/264/16 260/260/18
f 265/265/224 261/261/222 262/262/77
f 261/261/222 265/265/224 241/241/212
f 265/265/224 262/262/77 266/266/80
f 263/263/223 267/267/225 264/264/16
f 267/267/225 263/263/223 241/241/212
f 267/267/225 268/268/15 264/264/16
f 269/269/226 266/266/80 268/268/15
f 269/269/226 265/265/224 266/266/80
f 265/265/224 269/269/226 241/241/212
f 267/267/225 269/269/226 268/268/15
f 269/269/226 267/267/225 241/241/212
